<svg width="27" height="28" viewBox="0 0 27 28" fill="none" xmlns="http://www.w3.org/2000/svg">
<path d="M26.8194 11.5058C26.8218 10.8087 26.637 10.1238 26.2842 9.52259C25.9314 8.92136 25.4237 8.42591 24.814 8.08802C24.2043 7.75012 23.515 7.58218 22.8182 7.60174C22.1214 7.6213 21.4426 7.82765 20.8528 8.19921C20.263 8.57078 19.7838 9.09394 19.4653 9.714C19.1469 10.3341 19.0008 11.0283 19.0423 11.7241C19.0838 12.42 19.3115 13.0919 19.7015 13.6697C20.0915 14.2474 20.6295 14.7098 21.2594 15.0086V18.7338C21.2594 20.2084 20.6736 21.6226 19.6309 22.6653C18.5882 23.708 17.174 24.2937 15.6994 24.2937C14.2248 24.2937 12.8105 23.708 11.7678 22.6653C10.7251 21.6226 10.1394 20.2084 10.1394 18.7338V18.5659C12.0217 18.1789 13.7131 17.1548 14.9284 15.6662C16.1438 14.1776 16.8088 12.3155 16.8114 10.3938V4.83387C16.8114 3.80165 16.4013 2.81171 15.6714 2.08183C14.9415 1.35194 13.9516 0.941895 12.9194 0.941895H10.1394V4.27787H12.9194C13.0668 4.27787 13.2082 4.33645 13.3125 4.44072C13.4168 4.54499 13.4754 4.68641 13.4754 4.83387V10.3938C13.4754 11.721 12.9481 12.9937 12.0097 13.9322C11.0713 14.8706 9.7985 15.3978 8.47135 15.3978C7.14421 15.3978 5.87142 14.8706 4.93299 13.9322C3.99456 12.9937 3.46735 11.721 3.46735 10.3938V4.83387C3.46735 4.68641 3.52593 4.54499 3.6302 4.44072C3.73447 4.33645 3.87589 4.27787 4.02335 4.27787H6.80335V0.941895H4.02335C2.99113 0.941895 2.00118 1.35194 1.27129 2.08183C0.541397 2.81171 0.131348 3.80165 0.131348 4.83387L0.131348 10.3938C0.133925 12.3155 0.798928 14.1776 2.01428 15.6662C3.22962 17.1548 4.921 18.1789 6.80335 18.5659V18.7338C6.80335 21.0931 7.74061 23.3558 9.40893 25.0241C11.0773 26.6925 13.34 27.6297 15.6994 27.6297C18.0587 27.6297 20.3215 26.6925 21.9898 25.0241C23.6581 23.3558 24.5954 21.0931 24.5954 18.7338V15.0086C25.2595 14.6949 25.8209 14.1993 26.2146 13.5793C26.6083 12.9592 26.818 12.2403 26.8194 11.5058Z" fill="#4F83C2"/>
</svg>
