<svg width="23" height="24" viewBox="0 0 23 24" fill="none" xmlns="http://www.w3.org/2000/svg">
<path d="M10.1643 3.83044C8.18739 1.85354 2.79645 -0.332167 0.819542 1.64473C-1.15737 3.62163 1.02835 9.01253 3.00527 10.9894C4.71318 12.6973 7.76248 13.3539 9.83547 12.2263C10.0951 12.0809 10.395 12.0236 10.69 12.0632C10.9849 12.1027 11.2591 12.2369 11.4713 12.4456L13.9598 14.9341L13.9593 14.9346C13.8319 15.062 13.7308 15.2132 13.6619 15.3797C13.5929 15.5462 13.5574 15.7246 13.5574 15.9048C13.5574 16.085 13.5929 16.2634 13.6619 16.4299C13.7308 16.5964 13.8319 16.7477 13.9593 16.8751L19.7627 22.6784C19.9332 22.8489 20.1356 22.9842 20.3585 23.0765C20.5813 23.1688 20.8201 23.2163 21.0613 23.2163C21.3024 23.2163 21.5412 23.1688 21.7641 23.0765C21.9869 22.9842 22.1893 22.8489 22.3599 22.6784L22.3602 22.6781C22.5307 22.5075 22.666 22.3051 22.7583 22.0823C22.8506 21.8594 22.8981 21.6206 22.8981 21.3795C22.8981 21.1383 22.8506 20.8995 22.7583 20.6767C22.666 20.4538 22.5307 20.2514 22.3602 20.0809L11.8236 9.54432C12.2793 7.60091 11.5851 5.25122 10.1643 3.83044Z" fill="#4F83C2"/>
</svg>
