<svg width="54" height="54" viewBox="0 0 54 54" fill="none" xmlns="http://www.w3.org/2000/svg">
<mask id="mask0_4416_7536" style="mask-type:alpha" maskUnits="userSpaceOnUse" x="0" y="0" width="54" height="54">
<rect x="0.511719" y="0.329426" width="52.7996" height="52.7996" fill="#D9D9D9"/>
</mask>
<g mask="url(#mask0_4416_7536)">
<path fill-rule="evenodd" clip-rule="evenodd" d="M32.4269 40.5732V46H21.5731V40.5732C21.5731 40.2142 21.7157 39.8698 21.9696 39.6159C22.2235 39.3621 22.5678 39.2194 22.9269 39.2194H31.0731C31.2513 39.2179 31.4281 39.2518 31.593 39.3193C31.758 39.3867 31.9079 39.4864 32.0339 39.6124C32.1599 39.7384 32.2596 39.8883 32.327 40.0533C32.3945 40.2182 32.4284 40.395 32.4269 40.5732Z" fill="#4F83C2"/>
<path fill-rule="evenodd" clip-rule="evenodd" d="M43.2806 17.5002H41.9268V14.7809C41.9268 14.4218 41.7842 14.0775 41.5303 13.8236C41.2765 13.5698 40.9321 13.4271 40.5731 13.4271C40.2141 13.4271 39.8697 13.5698 39.6159 13.8236C39.362 14.0775 39.2194 14.4218 39.2194 14.7809V17.5002H34.3981V19.6258C34.4165 20.2866 34.2738 20.9419 33.9824 21.5351C33.6909 22.1284 33.2595 22.6418 32.7253 23.0311C32.191 23.4203 31.5701 23.6737 30.9161 23.7694C30.262 23.8651 29.5946 23.8001 28.9712 23.5802L27 22.8558L24.9931 23.5802C24.3686 23.8023 23.6992 23.8687 23.0432 23.7735C22.3872 23.6783 21.7644 23.4244 21.2287 23.0339C20.693 22.6461 20.261 22.1323 19.9711 21.5379C19.6811 20.9435 19.5421 20.2868 19.5662 19.6258V17.5002H14.7806V14.7809C14.7806 14.4218 14.638 14.0775 14.3841 13.8236C14.1302 13.5698 13.7859 13.4271 13.4269 13.4271C13.0678 13.4271 12.7235 13.5698 12.4696 13.8236C12.2157 14.0775 12.0731 14.4218 12.0731 14.7809V17.5002H10.7194C9.99815 17.5002 9.30647 17.7867 8.79649 18.2967C8.2865 18.8067 8 19.4984 8 20.2196V46H18.8537V40.5732C18.8569 39.4939 19.287 38.4597 20.0502 37.6965C20.8134 36.9334 21.8476 36.5032 22.9269 36.5001H31.0731C31.6084 36.4985 32.1388 36.6028 32.6337 36.8069C33.1286 37.0111 33.5782 37.311 33.9567 37.6896C34.3353 38.0681 34.6352 38.5177 34.8394 39.0126C35.0435 39.5075 35.1478 40.0379 35.1462 40.5732V46H46V20.2196C46.0015 19.862 45.9323 19.5077 45.7962 19.1771C45.6601 18.8464 45.4598 18.546 45.207 18.2932C44.9542 18.0404 44.6538 17.8401 44.3231 17.704C43.9925 17.5679 43.6382 17.4987 43.2806 17.5002ZM21.5731 32.427C21.3059 32.4247 21.0453 32.3433 20.8243 32.1931C20.6032 32.0429 20.4316 31.8307 20.3309 31.5831C20.2303 31.3356 20.2051 31.0638 20.2587 30.8019C20.3123 30.5401 20.4421 30.3 20.6319 30.1119C20.8217 29.9238 21.063 29.796 21.3252 29.7447C21.5875 29.6934 21.8591 29.7209 22.1058 29.8237C22.3524 29.9265 22.5632 30.1 22.7114 30.3224C22.8596 30.5448 22.9387 30.806 22.9387 31.0733C22.9387 31.252 22.9033 31.429 22.8346 31.5941C22.7658 31.7591 22.665 31.9089 22.538 32.0347C22.4111 32.1606 22.2604 32.26 22.0948 32.3274C21.9292 32.3947 21.7519 32.4286 21.5731 32.427ZM27 32.427C26.7328 32.4247 26.4722 32.3433 26.2511 32.1931C26.0301 32.0429 25.8584 31.8307 25.7578 31.5831C25.6571 31.3356 25.632 31.0638 25.6856 30.8019C25.7392 30.5401 25.869 30.3 26.0588 30.1119C26.2486 29.9238 26.4898 29.796 26.7521 29.7447C27.0144 29.6934 27.2859 29.7209 27.5326 29.8237C27.7793 29.9265 27.99 30.1 28.1383 30.3224C28.2865 30.5448 28.3656 30.806 28.3656 31.0733C28.3656 31.252 28.3302 31.429 28.2614 31.5941C28.1927 31.7591 28.0919 31.9089 27.9649 32.0347C27.8379 32.1606 27.6873 32.26 27.5217 32.3274C27.3561 32.3947 27.1788 32.4286 27 32.427ZM32.4387 32.427C32.171 32.427 31.9093 32.3476 31.6866 32.1988C31.464 32.0501 31.2905 31.8387 31.188 31.5913C31.0856 31.3439 31.0588 31.0718 31.111 30.8092C31.1632 30.5466 31.2922 30.3053 31.4815 30.116C31.6708 29.9267 31.912 29.7978 32.1746 29.7455C32.4372 29.6933 32.7094 29.7201 32.9568 29.8226C33.2042 29.925 33.4156 30.0985 33.5643 30.3212C33.7131 30.5438 33.7925 30.8055 33.7925 31.0733C33.7925 31.4323 33.6499 31.7766 33.396 32.0305C33.1421 32.2844 32.7978 32.427 32.4387 32.427Z" fill="#4F83C2"/>
<path fill-rule="evenodd" clip-rule="evenodd" d="M33.5431 14.1515C33.3769 14.3534 32.2131 15.8852 31.94 16.2296C31.6964 16.6054 31.5993 17.0575 31.6669 17.5002C31.6669 18.1059 31.6669 18.9371 31.7381 19.709C31.7481 19.9311 31.7036 20.1523 31.6087 20.3534C31.5137 20.5544 31.3711 20.7292 31.1932 20.8627C31.0153 20.9961 30.8076 21.084 30.588 21.1189C30.3684 21.1538 30.1436 21.1345 29.9331 21.0627L27.4631 20.184C27.1677 20.0769 26.8441 20.0769 26.5487 20.184L24.0787 21.0627C23.867 21.1394 23.6395 21.1625 23.4166 21.13C23.1937 21.0974 22.9824 21.0103 22.8013 20.8763C22.6203 20.7422 22.4752 20.5655 22.379 20.3619C22.2828 20.1582 22.2385 19.9339 22.25 19.709C22.25 18.9371 22.25 18.1059 22.3094 17.5002C22.3502 17.2809 22.347 17.0557 22.3001 16.8376C22.2533 16.6194 22.1636 16.4128 22.0362 16.2296C21.7631 15.8852 20.6112 14.3534 20.445 14.1515C20.3109 13.9754 20.2216 13.7694 20.1848 13.5512C20.1479 13.3329 20.1647 13.109 20.2337 12.8987C20.3026 12.6884 20.4216 12.4979 20.5805 12.3438C20.7394 12.1897 20.9333 12.0765 21.1456 12.014C22.0481 11.7646 23.0694 11.444 23.6512 11.2897C23.9505 11.1944 24.2096 11.0022 24.3875 10.7434L25.86 8.58217C25.9873 8.39868 26.158 8.24953 26.3569 8.148C26.5558 8.04648 26.7767 7.99574 27 8.0003C27.2209 7.99972 27.4387 8.05228 27.6351 8.15355C27.8314 8.25482 28.0005 8.40183 28.1281 8.58217C28.6744 9.36592 29.3156 10.2565 29.6006 10.7434C29.7785 11.0022 30.0376 11.1944 30.3369 11.2897C30.9187 11.444 31.94 11.7646 32.8544 12.014C33.0651 12.0793 33.2571 12.1943 33.4142 12.3493C33.5712 12.5043 33.6888 12.6948 33.7569 12.9046C33.8265 13.114 33.8434 13.3374 33.8061 13.5548C33.7689 13.7723 33.6785 13.9773 33.5431 14.1515Z" fill="#4F83C2"/>
</g>
</svg>
