<svg width="28" height="28" viewBox="0 0 28 28" fill="none" xmlns="http://www.w3.org/2000/svg">
<path d="M21.855 5.48831C21.855 2.98143 19.8155 0.941895 17.3086 0.941895C16.1798 0.941895 15.1214 1.35368 14.2969 2.09463C13.4724 1.35368 12.414 0.941895 11.2852 0.941895C8.77832 0.941895 6.73877 2.98143 6.73877 5.48831C6.73877 10.9053 13.6606 14.3305 13.9552 14.4736C14.171 14.5784 14.4229 14.5784 14.6386 14.4736C14.9332 14.3305 21.855 10.9053 21.855 5.48831ZM15.8606 8.23934H15.0788V9.02121C15.0788 9.45301 14.7287 9.80308 14.2969 9.80308C13.8651 9.80308 13.515 9.45301 13.515 9.02121V8.23934H12.7331C12.3013 8.23934 11.9513 7.88927 11.9513 7.45747C11.9513 7.02567 12.3013 6.6756 12.7331 6.6756H13.515V5.89373C13.515 5.46193 13.8651 5.11187 14.2969 5.11187C14.7287 5.11187 15.0788 5.46193 15.0788 5.89373V6.6756H15.8606C16.2925 6.6756 16.6425 7.02567 16.6425 7.45747C16.6425 7.88927 16.2925 8.23934 15.8606 8.23934Z" fill="#4F83C2"/>
<path d="M25.6887 6.26221C24.6093 6.26242 23.7344 7.13748 23.7344 8.21693V11.7519C24.3762 11.9399 24.9715 12.3116 25.433 12.8606C26.6825 14.3496 26.4879 16.5732 25.0017 17.8202L21.4597 20.7923C21.1289 21.0698 20.6357 21.0267 20.3582 20.6958C20.0807 20.3651 20.1238 19.8719 20.4546 19.5943L23.9965 16.6223C24.8241 15.9279 24.9314 14.6938 24.2361 13.8669C23.5419 13.0413 22.3099 12.9342 21.4836 13.6275L16.5302 17.7839C15.6428 18.5286 15.1338 19.6201 15.1338 20.7787V26.8514C15.1338 27.2832 15.4839 27.6333 15.9157 27.6333H23.2132C23.645 27.6333 23.995 27.2832 23.995 26.8514V24.4921L26.7486 20.5585C27.3313 19.7262 27.6438 18.7347 27.6438 17.7187V8.21693C27.6438 7.13722 26.7684 6.262 25.6887 6.26221Z" fill="#4F83C2"/>
<path d="M12.0662 17.7838L7.11277 13.6275C6.28638 12.9341 5.05451 13.0412 4.36026 13.8669C3.66496 14.6937 3.77229 15.9278 4.59988 16.6222L8.14183 19.5943C8.47261 19.8718 8.51577 20.365 8.2382 20.6958C7.96064 21.0266 7.46743 21.0698 7.13665 20.7922L3.5947 17.8202C2.10851 16.5731 1.91398 14.3495 3.16336 12.8605C3.62493 12.3116 4.2202 11.9399 4.86201 11.7518V8.21688C4.86201 7.13748 3.9871 6.26242 2.90769 6.26221C1.82802 6.26189 0.952637 7.13712 0.952637 8.21683V17.7186C0.952637 18.7346 1.26518 19.7261 1.84783 20.5584L4.60139 24.492V26.8513C4.60139 27.2831 4.95146 27.6332 5.38326 27.6332H12.6808C13.1126 27.6332 13.4626 27.2831 13.4626 26.8513V20.7786C13.4626 19.62 12.9536 18.5285 12.0662 17.7838Z" fill="#4F83C2"/>
</svg>
