<svg width="27" height="30" viewBox="0 0 27 30" fill="none" xmlns="http://www.w3.org/2000/svg">
<path d="M22.5466 10.563H16.0988C14.1421 10.563 12.55 12.155 12.55 14.1123V29.633H26.096V14.1123C26.096 12.155 24.5039 10.563 22.5466 10.563ZM17.5306 15.5277C18.1301 14.8095 18.7235 14.2602 18.7489 14.2371L19.323 13.7075L19.8972 14.2371C19.922 14.2602 20.5154 14.8095 21.1149 15.5277C22.0154 16.6071 22.4535 17.49 22.4535 18.2273C22.4535 19.9532 21.0489 21.3578 19.323 21.3578C17.5966 21.3578 16.1926 19.9532 16.1926 18.2273C16.1926 17.49 16.6301 16.6071 17.5306 15.5277ZM22.5613 25.4852H16.0847V23.7916H22.5613V25.4852Z" fill="#4F83C2"/>
<path d="M0.0429688 29.6334H10.8587V26.1151H3.97961V24.4215H10.8587V21.2944H0.0429688V29.6334Z" fill="#4F83C2"/>
<path d="M0.0429688 18.1474V19.6003H10.8587V16.5952H1.59516C0.737936 16.5952 0.0429688 17.2902 0.0429688 18.1474Z" fill="#4F83C2"/>
<path d="M16.9319 5.41992H21.7148V8.86933H16.9319V5.41992Z" fill="#4F83C2"/>
<path d="M20.3831 1.7777C20.3831 1.19451 19.9083 0.719727 19.3251 0.719727C18.7414 0.719727 18.2666 1.19451 18.2666 1.7777V3.72483H20.3831V1.7777Z" fill="#4F83C2"/>
</svg>
