<svg width="28" height="25" viewBox="0 0 28 25" fill="none" xmlns="http://www.w3.org/2000/svg">
<path d="M25.0865 9.838H27.6286C27.6365 9.66584 27.6406 9.50873 27.6406 9.36888C27.6406 7.79164 27.0915 6.6572 26.0086 5.99699C25.403 5.62774 24.6403 5.40501 23.6184 5.30816L25.4442 2.26523C25.6664 1.89494 25.5463 1.41466 25.176 1.19251C24.8058 0.970248 24.3255 1.09034 24.1033 1.46069L23.0536 3.2101V1.02894C23.0536 0.597139 22.7035 0.24707 22.2717 0.24707C21.8399 0.24707 21.4898 0.597139 21.4898 1.02894V3.2101L20.4401 1.46064C20.218 1.09034 19.7376 0.970404 19.3674 1.19245C18.9971 1.41461 18.8771 1.89489 19.0992 2.26518L20.925 5.30811C19.9031 5.40491 19.1404 5.62769 18.5348 5.99694C17.4519 6.6572 16.9028 7.79164 16.9028 9.36888C16.9028 11.6461 17.9749 18.6581 19.6905 22.0712C20.454 23.5903 21.2983 24.3287 22.2717 24.3287C23.2451 24.3287 24.0894 23.5903 24.8529 22.0712C25.2671 21.2473 25.6618 20.186 26.0309 18.9077H24.2525C23.8207 18.9077 23.4706 18.5576 23.4706 18.1258C23.4706 17.694 23.8207 17.344 24.2525 17.344H26.4436C26.6175 16.6233 26.7757 15.8838 26.9159 15.1547H24.6695C24.2377 15.1547 23.8876 14.8046 23.8876 14.3728C23.8876 13.941 24.2377 13.591 24.6695 13.591H27.1928C27.3196 12.8073 27.4218 12.0639 27.4964 11.4017H25.0865C24.6547 11.4017 24.3046 11.0517 24.3046 10.6199C24.3046 10.1881 24.6547 9.838 25.0865 9.838Z" fill="#4F83C2"/>
<path d="M15.3391 9.36808C15.3391 8.2105 15.5793 7.30077 15.9391 6.58655C14.46 5.97294 12.7752 5.91107 11.2153 6.45838C11.0587 5.247 10.4845 3.04338 8.3913 1.99682C8.00505 1.8036 7.5354 1.96028 7.34233 2.34648C7.14926 2.73267 7.30579 3.20236 7.69204 3.39543C9.00663 4.05272 9.46476 5.48193 9.62437 6.40964C5.32744 5.01166 0.952637 8.23635 0.952637 12.7041C0.952637 14.4771 1.74728 16.9883 2.97712 19.1018C3.84099 20.5864 5.64087 23.0769 7.98952 23.0769C9.06543 23.0769 9.75635 22.8107 10.4915 22.4113C11.2267 22.8107 11.9176 23.0769 12.9935 23.0769C14.8108 23.0769 16.2993 21.5859 17.2801 20.2236C16.1183 16.6271 15.3391 11.5086 15.3391 9.36808Z" fill="#4F83C2"/>
</svg>
