<svg width="41" height="41" viewBox="0 0 41 41" fill="none" xmlns="http://www.w3.org/2000/svg">
<mask id="mask0_4036_10851" style="mask-type:alpha" maskUnits="userSpaceOnUse" x="-1" y="0" width="42" height="41">
<rect x="-0.000244141" width="41" height="41" fill="#D9D9D9"/>
</mask>
<g mask="url(#mask0_4036_10851)">
<path d="M36.1072 22.2973C35.8879 21.9788 35.559 21.7665 35.1205 21.7665C32.7088 21.7665 30.4066 22.828 28.9815 24.7387L27.9949 26.0125C26.789 27.3924 24.9254 28.1355 23.0617 28.1355H19.7729C19.1152 28.1355 18.6767 27.7109 18.6767 27.074C18.6767 26.4371 19.1152 26.0125 19.7729 26.0125H21.8558C23.6098 26.0125 25.2542 24.6326 25.2542 22.9342V22.828C25.2542 22.2973 24.7061 21.7665 24.158 21.7665H17.4708C13.5243 21.7665 10.3451 23.4649 8.59113 26.2248L5.63124 30.683C5.41198 31.0015 5.41198 31.4261 5.63124 31.7445L8.92001 37.052C9.02963 37.2643 9.35851 37.4766 9.57776 37.5827H9.79701C10.0163 37.5827 10.2355 37.4766 10.4548 37.3704C14.6205 34.7167 19.4441 33.3368 24.3772 33.3368C27.9949 33.3368 31.2836 31.4261 33.0377 28.3478L35.9975 23.2526C36.2168 23.0403 36.2168 22.6157 36.1072 22.2973Z" fill="#4F83C2"/>
<path d="M17.4708 19.6436H24.158C25.912 19.6436 27.4467 21.0235 27.4467 22.7219V22.9342L34.2435 16.1406C36.8745 13.4869 36.8745 9.34712 34.2435 6.69339C32.928 5.52576 31.2836 4.78271 29.5296 4.78271C27.7756 4.78271 26.0216 5.52576 24.7061 6.79954L24.158 7.33029L23.6098 6.79954C22.2943 5.52576 20.65 4.78271 18.7863 4.78271C17.0323 4.78271 15.3879 5.52576 14.0724 6.79954C11.4414 9.45327 11.4414 13.5931 14.0724 16.2468L17.4708 19.6436ZM18.6767 13.2746H20.4307L22.2943 11.4701C22.5136 11.2578 22.8425 11.1516 23.281 11.1516C23.6098 11.2578 23.9387 11.4701 24.0483 11.6824L25.1446 13.8054L26.4601 10.7271C26.5697 10.4086 26.8986 10.0902 27.3371 10.0902C27.7756 10.0902 28.1045 10.1963 28.3237 10.5148L30.5163 13.6992C30.8451 14.23 30.7355 14.8669 30.1874 15.1853C29.6393 15.5038 28.9815 15.3976 28.6526 14.8669L27.666 13.3808L26.2409 16.7775C26.1312 17.2021 25.6927 17.5206 25.2542 17.5206C24.8157 17.5206 24.4869 17.3083 24.2676 16.8837L22.7328 13.9115L21.6366 14.973C21.4173 15.2915 21.1981 15.3976 20.8692 15.3976H18.6767C18.0189 15.3976 17.5804 14.973 17.5804 14.3361C17.5804 13.6992 18.0189 13.2746 18.6767 13.2746Z" fill="#4F83C2"/>
</g>
</svg>
