<svg width="27" height="28" viewBox="0 0 27 28" fill="none" xmlns="http://www.w3.org/2000/svg">
<path d="M3.37479 12.4809C5.21733 12.4809 6.71079 10.9875 6.71079 9.14493C6.71079 10.9875 8.20425 12.4809 10.0468 12.4809C11.8893 12.4809 13.3828 10.9872 13.3828 9.14493C13.3828 10.9875 14.8763 12.4809 16.7188 12.4809C18.5613 12.4809 20.0548 10.9872 20.0548 9.14493C20.0548 10.9875 21.5483 12.4809 23.3908 12.4809C23.8757 12.4809 24.3428 12.3739 24.7698 12.186V12.1801C25.9232 11.6549 26.7268 10.4948 26.7268 9.14493L22.2787 0.941895H4.48688L0.240551 8.77263L0.0419922 9.23006C0.0750853 10.5434 0.866919 11.6661 1.99609 12.1801V12.1964C2.41669 12.3782 2.8824 12.4809 3.37479 12.4809Z" fill="#4F83C2"/>
<path d="M23.3881 14.6169C22.1335 14.6169 20.9761 14.1923 20.0521 13.4795C19.1282 14.1923 17.9707 14.6169 16.7161 14.6169C15.4615 14.6169 14.3041 14.1923 13.3801 13.4795C12.4562 14.1923 11.2987 14.6169 10.0441 14.6169C8.78953 14.6169 7.63207 14.1923 6.70814 13.4795C5.7842 14.1923 4.62674 14.6169 3.37213 14.6169C2.89522 14.6169 2.43458 14.5491 1.99316 14.4341V27.6307H14.2141V16.8667H20.5525V27.6307H24.7671V14.4338C24.3257 14.5491 23.8651 14.6169 23.3881 14.6169ZM10.1221 21.3241H6.20774V16.8667H10.1221V21.3241Z" fill="#4F83C2"/>
</svg>
