<svg width="27" height="28" viewBox="0 0 27 28" fill="none" xmlns="http://www.w3.org/2000/svg">
<path d="M3.02959 14.585C2.74658 14.7632 2.82321 14.7149 0.759048 16.779C-0.0778859 17.6159 -0.0778859 18.9777 0.759048 19.8146L2.75674 21.8123L1.78766 22.7813C1.15596 23.4131 1.15596 24.4411 1.78771 25.0729L3.13536 26.4205C3.76852 27.0538 4.79369 27.0539 5.42701 26.4205L6.39604 25.4515L7.95251 27.0079C8.7894 27.8448 10.1512 27.8449 10.9881 27.0079C13.0776 24.9184 13.0085 25.0132 13.1822 24.7374L3.02959 14.585Z" fill="#4F83C2"/>
<path d="M26.1975 8.76295L24.1998 6.76527L25.1689 5.79625C25.8006 5.16445 25.8006 4.13647 25.1689 3.50461L23.8212 2.15703C23.1881 1.52377 22.1629 1.52361 21.5296 2.15703L20.5605 3.126L19.0041 1.56959C18.1671 0.732662 16.8054 0.732662 15.9685 1.56959C13.879 3.65912 13.9481 3.5643 13.7744 3.84017L23.9269 13.9926C24.2099 13.8144 24.1333 13.8627 26.1975 11.7986C27.0345 10.9616 27.0345 9.59988 26.1975 8.76295Z" fill="#4F83C2"/>
<path d="M7.65015 16.8408L16.0288 8.46223L19.3422 11.7756L10.9636 20.1542L7.65015 16.8408Z" fill="#4F83C2"/>
</svg>
