<svg width="20" height="28" viewBox="0 0 20 28" fill="none" xmlns="http://www.w3.org/2000/svg">
<path d="M10.4829 16.3735C10.3478 16.4717 10.1865 16.5231 10.0229 16.5231C9.95534 16.5231 9.88732 16.5144 9.8206 16.4965C9.59255 16.4354 9.40438 16.2746 9.30852 16.0589L8.62657 14.5244L8.09562 14.8462C7.97344 14.9202 7.83328 14.9594 7.6904 14.9594H6.28271C7.33663 16.2535 8.82126 17.5383 9.92224 18.2619C10.5824 17.7994 11.6757 16.9081 12.6878 15.8642C12.9883 15.5543 13.261 15.2517 13.5042 14.9594H12.4271L10.4829 16.3735Z" fill="#4F83C2"/>
<path d="M12.7034 10.1602C11.8021 10.1602 10.9823 10.7263 10.6633 11.569C10.5483 11.873 10.2571 12.0741 9.93208 12.0741C9.60703 12.0741 9.31591 11.873 9.20086 11.569C8.88186 10.7263 8.06203 10.1602 7.16078 10.1602C5.95841 10.1602 4.98022 11.1383 4.98022 12.3407C4.98022 12.6601 5.0814 13.0183 5.25774 13.3978H7.47213L8.57547 12.7291C8.7676 12.6127 9.00034 12.5846 9.21468 12.6517C9.42897 12.719 9.604 12.875 9.69522 13.0802L10.3451 14.5425L11.7132 13.5474C11.8468 13.4502 12.0078 13.3978 12.1731 13.3978H14.5726C14.7766 12.9916 14.884 12.6337 14.884 12.3407C14.8839 11.1383 13.9057 10.1602 12.7034 10.1602Z" fill="#4F83C2"/>
<path d="M17.0201 4.63867H2.84198C1.43361 4.63867 0.287842 5.78443 0.287842 7.19279V21.3708C0.287842 22.7791 1.43361 23.9249 2.84198 23.9249H17.0201C18.4284 23.9249 19.5742 22.7791 19.5742 21.3708V7.19279C19.5742 5.78443 18.4284 4.63867 17.0201 4.63867ZM10.322 19.8644C10.201 19.9342 10.066 19.9691 9.93103 19.9691C9.79602 19.9691 9.66107 19.9342 9.54009 19.8644C8.63775 19.3434 7.14556 18.2034 5.84602 16.8307C4.23316 15.1271 3.41536 13.6157 3.41536 12.3387C3.41536 10.2741 5.0951 8.59438 7.15968 8.59438C8.22966 8.59438 9.23276 9.05918 9.93098 9.82448C10.6292 9.05918 11.6323 8.59438 12.7023 8.59438C14.7669 8.59438 16.4466 10.2741 16.4466 12.3387C16.4466 15.2891 11.403 19.2402 10.322 19.8644Z" fill="#4F83C2"/>
<path d="M15.787 1.50078C15.6883 1.16921 15.3836 0.941895 15.0376 0.941895H4.82145C4.47502 0.941895 4.16988 1.16989 4.07163 1.50213L3.60547 3.07891H16.2547C16.0992 2.55302 15.9435 2.02677 15.787 1.50078Z" fill="#4F83C2"/>
<path d="M4.07143 27.0705C4.16964 27.4028 4.47478 27.6308 4.82126 27.6308H15.0374C15.3834 27.6308 15.6881 27.4035 15.7868 27.0719C15.9433 26.5458 16.099 26.0195 16.2545 25.4937H3.60522L4.07143 27.0705Z" fill="#4F83C2"/>
</svg>
