<svg width="376" height="428" viewBox="0 0 376 428" fill="none" xmlns="http://www.w3.org/2000/svg">
<path d="M75.5861 364.513L121.242 207.235L148.153 206.749L126.389 363.597L75.5861 364.513Z" fill="#A7CEED"/>
<path d="M87.0495 364.317L129.072 207.102L139.647 206.897L114.262 363.822L87.0495 364.317Z" fill="#4F83C2"/>
<path d="M129.957 172.506L232.637 89.9728L246.516 111.86L154.127 196.206L129.957 172.506Z" fill="#A7CEED"/>
<path d="M142.04 175.655L237.64 100.03L240.648 104.51L149.219 184.211L142.04 175.655Z" fill="#4F83C2"/>
<path d="M130.205 219.387C116.201 215.826 107.735 201.587 111.296 187.583C114.857 173.579 129.096 165.114 143.1 168.675C157.104 172.236 165.57 186.475 162.009 200.478C158.448 214.482 144.209 222.948 130.205 219.387Z" fill="#4F83C2"/>
<path d="M148.496 190.353C150.539 196.896 146.886 203.845 140.327 205.879C133.793 207.907 126.836 204.269 124.802 197.71C122.768 191.152 126.412 184.218 132.97 182.185C139.514 180.141 146.462 183.795 148.496 190.353Z" fill="white"/>
<path d="M273.69 84.1235L259.868 87.6511L254.469 109.421L265.015 119.02L282.629 123.408L291.329 88.5063L273.69 84.1235Z" fill="#A7CEED"/>
<path d="M273.709 84.1414L291.328 88.5234L282.649 123.417L265.031 119.035L273.709 84.1414Z" fill="#A7CEED"/>
<path d="M291.33 88.5068L322.352 73.7718L346.623 92.1306L341.812 98.1963L319.998 86.1802L287.765 102.806L291.33 88.5068Z" fill="#4F83C2"/>
<path d="M282.609 123.541L303.128 151.094L333.167 146.248L331.754 138.619L306.862 139.041L286.159 109.233L282.609 123.541Z" fill="#4F83C2"/>
<path d="M265.722 91.2923C268.599 100.554 263.421 110.405 254.159 113.282C244.896 116.158 235.046 110.98 232.169 101.718C229.292 92.4559 234.471 82.6052 243.733 79.7286C252.995 76.8519 262.846 82.0301 265.722 91.2923Z" fill="#4F83C2"/>
<path d="M256.892 94.0413C258.263 98.444 255.793 103.11 251.415 104.476C247.012 105.848 242.346 103.377 240.98 98.999C239.614 94.6206 242.078 89.93 246.457 88.5641C250.85 87.2075 255.526 89.6628 256.892 94.0413Z" fill="white"/>
<g clip-path="url(#clip0_145_1428)">
<path d="M366.085 112.331C365.562 111.606 365.722 110.601 366.442 110.076C366.857 109.773 367.375 109.703 367.832 109.838L369.042 105.674L327.655 93.7355L326.454 97.8972C326.789 97.9971 327.093 98.1926 327.316 98.4967C327.839 99.2221 327.679 100.226 326.96 100.752C326.544 101.055 326.026 101.125 325.569 100.989L316.022 134.092L357.403 146.027L366.95 112.924C366.615 112.825 366.311 112.629 366.088 112.325L366.085 112.331Z" fill="#A1C4DD"/>
<path d="M360.808 106.26L355.081 104.611L353.709 106.715L341.021 103.06L340.92 100.529L335.169 98.8687C333.003 98.2463 330.73 99.4611 330.122 101.582L322.553 127.828C321.942 129.94 323.212 132.188 325.384 132.814L351.024 140.205C353.19 140.827 355.462 139.612 356.071 137.491L363.633 111.242C364.245 109.13 362.974 106.882 360.802 106.257L360.808 106.26Z" fill="white"/>
<path d="M328.482 95.7581C328.251 96.2451 328.459 96.8271 328.946 97.0579C329.433 97.2887 330.015 97.081 330.246 96.594C330.476 96.107 330.269 95.525 329.782 95.2942C329.295 95.0634 328.713 95.2711 328.482 95.7581Z" fill="#FFD9A8"/>
<path d="M365.417 106.409C365.186 106.896 365.393 107.478 365.88 107.709C366.367 107.94 366.949 107.732 367.18 107.245C367.411 106.758 367.203 106.176 366.716 105.945C366.229 105.714 365.647 105.922 365.417 106.409Z" fill="#FFD9A8"/>
<path d="M318.127 131.666C317.896 132.153 318.103 132.735 318.59 132.966C319.077 133.196 319.659 132.989 319.89 132.502C320.121 132.015 319.913 131.433 319.426 131.202C318.939 130.971 318.357 131.179 318.127 131.666Z" fill="#FFD9A8"/>
<path d="M355.062 142.317C354.831 142.804 355.039 143.386 355.526 143.617C356.013 143.847 356.595 143.64 356.826 143.153C357.057 142.666 356.849 142.084 356.362 141.853C355.875 141.622 355.293 141.83 355.062 142.317Z" fill="#FFD9A8"/>
<path d="M358.795 110.868L334.672 103.91C333.943 103.7 333.181 104.121 332.971 104.85L326.36 127.774C326.149 128.503 326.57 129.265 327.299 129.475L351.422 136.432C352.151 136.643 352.913 136.222 353.123 135.493L359.735 112.569C359.945 111.84 359.524 111.078 358.795 110.868Z" fill="#4E80BA"/>
<path d="M339.331 117.795C338.877 117.878 338.013 117.85 336.993 117.557C334.62 116.871 333.266 114.855 334.061 112.094C334.822 109.458 337.121 108.188 339.736 108.939C340.787 109.239 341.384 109.654 341.627 109.893L341.109 110.707C340.754 110.39 340.212 110.067 339.512 109.868C337.539 109.297 335.861 110.182 335.225 112.397C334.629 114.458 335.437 116.124 337.484 116.713C338.147 116.903 338.858 116.959 339.361 116.874L339.337 117.798L339.331 117.795Z" fill="white"/>
<path d="M343.024 110.142C343.574 110.204 344.283 110.333 345.158 110.583C346.235 110.895 346.948 111.365 347.319 111.963C347.661 112.497 347.766 113.185 347.551 113.935C347.336 114.686 346.936 115.233 346.38 115.549C345.63 115.997 344.6 116.039 343.537 115.733C343.217 115.639 342.917 115.539 342.683 115.403L341.714 118.776L340.629 118.461L343.027 110.136L343.024 110.142ZM342.939 114.514C343.159 114.643 343.452 114.758 343.809 114.861C345.119 115.241 346.108 114.832 346.441 113.674C346.762 112.56 346.131 111.797 344.929 111.451C344.454 111.317 344.081 111.248 343.877 111.242L342.932 114.511L342.939 114.514Z" fill="white"/>
<path d="M350.795 112.277L349.361 117.26C348.815 119.145 349.423 120.186 350.551 120.514C351.803 120.876 352.838 120.282 353.374 118.417L354.808 113.434L355.909 113.749L354.493 118.657C353.748 121.243 352.082 121.91 350.254 121.383C348.527 120.888 347.518 119.524 348.266 116.915L349.698 111.956L350.798 112.271L350.795 112.277Z" fill="white"/>
<path d="M335.371 127.59C335.881 128.894 338.701 129.009 341.67 127.847C344.64 126.686 346.634 124.688 346.124 123.384C345.614 122.081 342.794 121.966 339.824 123.127C336.855 124.289 334.861 126.287 335.371 127.59Z" fill="white"/>
</g>
<defs>
<clipPath id="clip0_145_1428">
<rect width="48.3937" height="49.2766" fill="white" transform="translate(375.155 108.571) rotate(115.358)"/>
</clipPath>
</defs>
</svg>
