<svg width="89" height="89" viewBox="0 0 89 89" fill="none" xmlns="http://www.w3.org/2000/svg">
<path d="M75.4248 53.6059L76.5224 30.5287C76.7306 26.4151 73.5394 22.9012 69.4395 22.6892L47.4152 21.5801L25.391 20.471C21.2861 20.2677 17.7685 23.4452 17.5603 27.5588L16.4627 50.6361C16.2594 54.741 19.4456 58.2635 23.5505 58.4668L32.4476 58.9186L29.4816 66.4917L27.8718 70.6029C27.7535 70.8922 27.7046 71.1404 27.7076 71.3377C27.7166 71.9293 28.2144 72.0854 29.0344 71.654L45.4068 63.0109L50.6212 60.2678C50.8652 60.1419 51.0335 60.0074 51.1572 59.8707L67.6028 60.6987C71.7077 60.902 75.2302 57.7158 75.4335 53.6109L75.4248 53.6059Z" fill="#4F83C2"/>
<path d="M24.2139 33.096L26.5063 33.1902L26.3352 37.2789L29.4811 37.4092L29.6522 33.3205L31.9223 33.4135L31.4805 44.1561L29.2104 44.0631L29.3942 39.6482L26.2483 39.518L26.0645 43.9329L23.7721 43.8387L24.2139 33.096Z" fill="white"/>
<path d="M34.0139 33.497L40.0687 33.7495L39.9828 35.8856L36.2204 35.7273L36.1378 37.7158L39.3283 37.8484L39.2363 40.0155L36.0371 39.878L35.9391 42.1568L39.8405 42.3135L39.7484 44.4806L33.546 44.2248L33.9878 33.4821L34.0139 33.497Z" fill="white"/>
<path d="M41.9674 33.8276L44.2685 33.9267L43.9188 42.5022L47.6278 42.6532L47.5358 44.8204L41.5256 44.5702L41.9674 33.8276Z" fill="white"/>
<path d="M49.5062 34.1403L51.8074 34.2394L51.4576 42.8149L55.1666 42.966L55.0746 45.1331L49.0644 44.883L49.5062 34.1403Z" fill="white"/>
<path d="M55.8263 39.7182C55.9717 36.2014 57.8245 34.275 60.4295 34.3857C63.0346 34.4964 64.7209 36.5693 64.5805 40.0774C64.4302 43.6029 62.5765 45.6323 59.9665 45.5303C57.3614 45.4196 55.676 43.2437 55.8263 39.7182ZM62.2434 39.9809C62.3307 37.9031 61.5955 36.6461 60.3401 36.5888C59.0797 36.5402 58.2644 37.7332 58.1771 39.811C58.0935 41.9025 58.8104 43.2525 60.0707 43.3011C61.3311 43.3497 62.1598 42.0724 62.257 39.9772L62.2434 39.9809Z" fill="white"/>
<path d="M66.6472 44.1947C66.6857 43.2966 67.3524 42.6287 68.2282 42.6659C69.104 42.7032 69.7199 43.4209 69.6814 44.3191C69.6418 45.2395 68.9763 45.8851 68.1005 45.8478C67.2247 45.8105 66.6163 45.1201 66.6472 44.1947ZM67.1279 37.2114L67.1473 34.8076L69.9583 34.9202L69.7825 37.3158L69.0681 41.8549L67.4642 41.7837L67.1241 37.1978L67.1279 37.2114Z" fill="white"/>
</svg>
