<svg width="160" height="162" viewBox="0 0 160 162" fill="none" xmlns="http://www.w3.org/2000/svg">
<path d="M63.4388 91.4223L65.5948 91.4191L79.9287 76.9775C81.1166 75.7846 83.048 75.7831 84.2461 76.9625C85.4389 78.1504 85.4489 80.087 84.261 81.2799L74.1999 91.4179L75.1518 91.4204L86.9146 91.4141C88.1856 91.4146 89.215 90.3822 89.2154 89.1113L89.2032 75.3673C89.2037 74.0964 88.1714 73.067 86.9004 73.0666L63.4278 73.0886C62.1568 73.0881 61.1275 74.1204 61.127 75.3914L61.1392 89.1353C61.1387 90.4063 62.1711 91.4356 63.442 91.4361L63.4388 91.4223Z" fill="#6CA9DD"/>
<path d="M49.7922 67.0116L49.8222 98.8699C49.8264 100.285 50.982 101.438 52.4056 101.439L97.9856 101.395C99.4092 101.396 100.562 100.24 100.558 98.8252L100.528 66.9669C100.529 65.5433 99.3735 64.3903 97.9499 64.3892L52.3784 64.4387C50.9548 64.4376 49.8018 65.5933 49.806 67.0084L49.7922 67.0116ZM61.1241 75.3774C61.1246 74.1065 62.154 73.0742 63.4249 73.0746L86.8975 73.0526C88.1685 73.0531 89.2008 74.0824 89.2003 75.3534L89.2125 89.0973C89.2121 90.3683 88.1827 91.4006 86.9117 91.4001L75.1489 91.4065L74.197 91.404L84.2581 81.2659C85.446 80.0731 85.4445 78.1418 84.2432 76.9486C83.0503 75.7607 81.1138 75.7707 79.9259 76.9635L65.5919 91.4052L63.4359 91.4084C62.1649 91.4079 61.1326 90.3785 61.1331 89.1076L61.1209 75.3636L61.1241 75.3774ZM94.1378 69.638C95.0812 69.6352 95.8467 70.393 95.858 71.3417C95.8608 72.285 95.0977 73.059 94.1543 73.0618C93.2109 73.0646 92.437 72.3016 92.4395 71.3497C92.4367 70.4063 93.1944 69.6408 94.1431 69.6295L94.1378 69.638ZM94.1539 74.3327C95.0973 74.3299 95.8712 75.093 95.874 76.0364C95.8768 76.9798 95.1138 77.7537 94.1704 77.7565C93.227 77.7593 92.4531 76.9963 92.4503 76.0529C92.4475 75.1095 93.2105 74.3355 94.1539 74.3327Z" fill="#B9DBF6"/>
<path d="M40.013 66.1547L36.5273 97.0779C36.4581 97.6823 36.8975 98.2259 37.4966 98.3036L43.8354 99.014C44.4398 99.0833 44.9834 98.6439 45.0526 98.0395L48.5383 67.1163C48.6075 66.5118 48.1681 65.9683 47.5637 65.8991L41.2334 65.1939C40.629 65.1247 40.077 65.5588 40.0162 66.1685L40.013 66.1547Z" fill="#B9DBF6"/>
<path d="M30.4195 108.223C29.8504 113.272 33.4977 117.844 38.5471 118.413C39.9563 118.57 41.2359 117.552 41.3928 116.142C41.555 114.725 40.54 113.459 39.1223 113.297C36.8913 113.041 35.2805 111.029 35.5357 108.798C35.7909 106.567 37.8033 104.956 40.0343 105.211C42.2653 105.467 43.8761 107.479 43.6209 109.71C43.464 111.119 44.4737 112.393 45.8914 112.556C47.3006 112.713 48.5802 111.694 48.7372 110.285C49.3062 105.236 45.659 100.664 40.6095 100.095C35.5601 99.5261 30.9886 103.173 30.4195 108.223Z" fill="#4F83C2"/>
<path d="M108.765 64.278L102.501 65.4382C101.902 65.5492 101.508 66.1281 101.619 66.7266L107.28 97.3259C107.391 97.9244 107.97 98.3192 108.568 98.2082L114.833 97.048C115.431 96.937 115.826 96.3581 115.715 95.7596L110.054 65.1603C109.943 64.5618 109.372 64.1723 108.774 64.2833L108.765 64.278Z" fill="#B9DBF6"/>
<path d="M114.55 112.575C113.157 112.828 112.229 114.17 112.491 115.569C112.744 116.962 114.087 117.89 115.485 117.628C120.484 116.706 123.794 111.887 122.871 106.888C121.949 101.89 117.13 98.5801 112.132 99.5023C107.133 100.425 103.824 105.244 104.746 110.242C104.999 111.635 106.342 112.563 107.74 112.301C109.138 112.039 110.061 110.705 109.799 109.307C109.392 107.1 110.855 104.972 113.062 104.564C115.268 104.157 117.397 105.62 117.804 107.827C118.211 110.033 116.749 112.162 114.542 112.569L114.55 112.575Z" fill="#4F83C2"/>
<path d="M70.3505 120.538C70.9611 120.541 71.4472 120.042 71.4497 119.431L71.4364 104.969C71.4388 104.358 70.9455 103.864 70.3297 103.87L61.2614 103.877C60.6508 103.875 60.1647 104.374 60.1622 104.984L60.1755 119.447C60.1784 120.049 60.6717 120.544 61.2822 120.546L70.3505 120.538Z" fill="#B9DBF6"/>
<path d="M80.5145 120.528L89.5828 120.52C90.1934 120.523 90.688 120.029 90.6819 119.413L90.6686 104.951C90.6711 104.34 90.1725 103.854 89.5619 103.852L80.4936 103.86C79.8831 103.857 79.3969 104.356 79.3945 104.966L79.3993 119.424C79.3969 120.034 79.8902 120.529 80.506 120.523L80.5145 120.528Z" fill="#B9DBF6"/>
<path d="M55.8537 124.968L55.8612 130.34C55.8587 131.292 56.3529 132.069 56.9687 132.063L70.9374 132.049C71.5532 132.043 72.0417 131.275 72.0442 130.323L72.0367 124.951C72.0392 123.999 71.5398 123.23 70.9292 123.228L56.9605 123.242C56.35 123.239 55.8562 124.016 55.8675 124.964L55.8537 124.968Z" fill="#4F83C2"/>
<path d="M78.7673 130.319C78.7649 131.271 79.259 132.049 79.8749 132.043L93.8435 132.029C94.4541 132.031 94.9479 131.255 94.9418 130.298L94.9429 124.931C94.9453 123.979 94.4459 123.21 93.8353 123.207L79.8667 123.221C79.2561 123.219 78.7623 123.995 78.7684 124.952L78.7758 130.325L78.7673 130.319Z" fill="#4F83C2"/>
<path d="M64.4689 20.5668L63.481 20.5655C62.8704 20.563 62.3758 21.0563 62.3819 21.6722L62.3785 27.3082L56.4319 27.3121L56.01 27.3091C54.4115 27.3054 53.119 28.6098 53.1152 30.2083L53.1389 59.2142C53.1351 60.8127 54.4396 62.1052 56.0296 62.1036L94.8637 62.0614C96.4622 62.0652 97.7547 60.7607 97.7532 59.1707L97.7296 30.1649C97.7333 28.5664 96.4288 27.2739 94.8388 27.2754L93.6262 27.2758L88.4703 27.2763L88.46 21.6435C88.4624 21.0329 87.9638 20.5468 87.3532 20.5444L86.3738 20.5483C85.7632 20.5459 85.2686 21.0392 85.2747 21.6551L85.2851 27.2879L65.5585 27.3051L65.5481 21.6723C65.5505 21.0617 65.0572 20.5671 64.4467 20.5647L64.4689 20.5668ZM61.3452 37.7311C63.4122 37.7197 65.0898 39.3969 65.1013 41.4639C65.1127 43.5309 63.4355 45.2085 61.3685 45.22C59.3015 45.2314 57.6239 43.5542 57.6124 41.4872C57.601 39.4202 59.2697 37.7373 61.3452 37.7311ZM89.3693 37.6394C91.4362 37.628 93.1192 39.2967 93.1253 41.3722C93.1368 43.4392 91.4595 45.1168 89.3926 45.1283C87.3256 45.1397 85.6426 43.471 85.6365 41.3955C85.625 39.3285 87.3023 37.6509 89.3693 37.6394ZM96.5842 50.6645L96.5884 51.7383L54.6551 51.8808L54.6509 50.807L96.5842 50.6645Z" fill="#B9DBF6"/>
<path d="M45.2089 37.9178C44.5983 37.9153 44.1037 38.4086 44.1013 39.0192L44.1097 50.4184C44.1073 51.029 44.6144 51.5204 45.2164 51.5176L49.5062 51.5091L49.4627 37.9104L45.2142 37.9093L45.2089 37.9178Z" fill="#4F83C2"/>
<path d="M50.7198 37.9141L49.4574 37.9189L49.5009 51.5175L50.7274 51.5139C51.3379 51.5163 51.824 51.0177 51.8265 50.4072L51.8181 39.0079C51.8205 38.3973 51.3272 37.9027 50.7113 37.9088L50.7198 37.9141Z" fill="#6CA9DD"/>
<path d="M105.991 37.7308L101.701 37.7393L101.744 51.3379L105.998 51.3306C106.609 51.333 107.109 50.8312 107.097 50.2239L107.084 38.8331C107.086 38.2225 106.593 37.7279 105.977 37.734L105.991 37.7308Z" fill="#4F83C2"/>
<path d="M100.48 37.7345C99.8696 37.7321 99.375 38.2254 99.3811 38.8412L99.3895 50.2405C99.3923 50.8425 99.8856 51.3372 100.496 51.3396L101.753 51.3433L101.71 37.7446L100.483 37.7483L100.48 37.7345Z" fill="#6CA9DD"/>
<path d="M61.3763 45.2253C63.4433 45.2139 65.112 43.5309 65.1091 41.4692C65.0977 39.4022 63.42 37.725 61.353 37.7364C59.2861 37.7479 57.6088 39.4255 57.6203 41.4925C57.6317 43.5595 59.3094 45.2367 61.3763 45.2253Z" fill="#182138"/>
<path d="M89.4059 45.1249C91.4728 45.1135 93.1501 43.4358 93.1386 41.3688C93.1272 39.3019 91.4495 37.6246 89.3826 37.6361C87.3156 37.6475 85.6384 39.3252 85.6498 41.3921C85.6612 43.4591 87.3442 45.1279 89.4059 45.1249Z" fill="#182138"/>
<path d="M54.663 51.8773L96.5928 51.7347L96.5891 50.6647L54.6594 50.8073L54.663 51.8773Z" fill="#6CA9DD"/>
<path d="M94.1534 73.0619C95.0968 73.0591 95.8598 72.2851 95.857 71.3417C95.8542 70.3983 95.0803 69.6353 94.1369 69.6381C93.1935 69.6409 92.422 70.4096 92.4333 71.3583C92.4361 72.3017 93.2047 73.0732 94.1481 73.0704L94.1534 73.0619Z" fill="#FC6158"/>
<path d="M94.1699 77.7569C95.1133 77.7541 95.8763 76.9802 95.8735 76.0368C95.8707 75.0934 95.0967 74.3304 94.1534 74.3332C93.21 74.336 92.4384 75.1046 92.4497 76.0533C92.4525 76.9967 93.2265 77.7597 94.1699 77.7569Z" fill="#4F83C2"/>
</svg>
