<svg width="60" height="81" viewBox="0 0 60 81" fill="none" xmlns="http://www.w3.org/2000/svg">
<path d="M19.42 0H14.47V30.08H19.42V0Z" fill="#4F83C2"/>
<path d="M32.23 0H27.29V30.08H32.23V0Z" fill="#4F83C2"/>
<path d="M45.05 0H40.1V30.08H45.05V0Z" fill="#4F83C2"/>
<path d="M19.42 50.41H14.47V80.49H19.42V50.41Z" fill="#4F83C2"/>
<path d="M32.23 50.41H27.29V80.49H32.23V50.41Z" fill="#4F83C2"/>
<path d="M45.05 50.41H40.1V80.49H45.05V50.41Z" fill="#4F83C2"/>
<path d="M13.49 10.48H46.04C53.48 10.48 59.53 16.52 59.53 23.97V56.52C59.53 63.96 53.49 70.01 46.04 70.01H13.49C6.05 70.01 0 63.97 0 56.52V23.97C0 16.53 6.04 10.48 13.49 10.48Z" fill="#4E4553"/>
<path d="M54.46 13.51L4.46 66.48C6.85 68.65 10 70.01 13.49 70.01H46.04C53.49 70.01 59.53 63.97 59.53 56.52V23.97C59.53 19.72 57.53 15.98 54.46 13.51Z" fill="#00B4E8"/>
<path d="M13.49 10.48H46.04C53.48 10.48 59.53 16.52 59.53 23.97V56.52C59.53 63.96 53.49 70.01 46.04 70.01H13.49C6.05 70.01 0 63.97 0 56.52V23.97C0 16.53 6.04 10.48 13.49 10.48Z" fill="#4F83C2"/>
<path d="M54.46 13.51L4.46 66.48C6.85 68.65 10 70.01 13.49 70.01H46.04C53.49 70.01 59.53 63.97 59.53 56.52V23.97C59.53 19.72 57.53 15.98 54.46 13.51Z" fill="#A7CEED"/>
</svg>
