<svg width="91" height="67" viewBox="0 0 91 67" fill="none" xmlns="http://www.w3.org/2000/svg">
<path d="M69.3838 18.6495C66.0415 7.85341 55.9767 0 44.0656 0C32.1544 0 21.7771 8.11835 18.6052 19.1888C7.94392 21.7435 0 31.3096 0 42.749C0 56.1377 10.8602 67 24.2673 67C28.689 67 32.8267 65.7983 36.4057 63.7356C39.9752 65.8078 44.1129 67 48.5346 67C51.7538 67 54.8216 66.3566 57.6336 65.2212C60.4457 66.3566 63.5135 67 66.7327 67C80.1398 67 91 56.1472 91 42.749C91 30.2498 81.5411 19.9647 69.3838 18.6495Z" fill="#C1DDF7"/>
<path d="M61.6672 32.5775C58.1165 32.5775 55.2476 35.4444 55.2476 38.9927C55.2476 41.9448 57.2549 44.4049 59.9723 45.1524V66.0254C61.1937 66.385 62.453 66.631 63.7407 66.7918V45.0388C66.2688 44.1778 68.0961 41.8123 68.0961 38.9927C68.0961 35.4444 65.2178 32.5775 61.6766 32.5775H61.6672Z" fill="#4F83C2"/>
<path d="M29.3802 32.5775C25.8296 32.5775 22.9607 35.4444 22.9607 38.9927C22.9607 41.7934 24.7691 44.1494 27.2782 45.0294V66.8013C28.5754 66.6404 29.8252 66.3661 31.0466 66.0065V45.1618C33.783 44.4238 35.7997 41.9542 35.7997 38.9927C35.7997 35.4444 32.9213 32.5775 29.3802 32.5775Z" fill="#4F83C2"/>
<path d="M51.9243 38.9927C51.9243 35.4444 49.0459 32.5775 45.5047 32.5775C41.9636 32.5775 39.0852 35.4444 39.0852 38.9927C39.0852 41.8785 40.9978 44.2819 43.6205 45.0956V66.4417C44.8514 66.6972 46.1012 66.8675 47.3889 66.9243V45.0956C50.0117 44.2819 51.9243 41.8785 51.9243 38.9927Z" fill="#4F83C2"/>
</svg>
