<svg width="513" height="381" viewBox="0 0 513 381" fill="none" xmlns="http://www.w3.org/2000/svg">
<path d="M258.72 341.681C254.682 341.681 250.581 340.603 246.892 338.345C236.174 331.806 232.783 317.825 239.329 307.109L307.368 195.796C313.924 185.079 327.92 181.712 338.638 188.241C349.356 194.779 352.747 208.76 346.201 219.477L278.163 330.79C273.878 337.811 266.386 341.681 258.73 341.681H258.72Z" fill="#FFD9A8"/>
<path d="M351.504 150.199L356.19 210.341L398.23 205.835L380.637 120.595L351.504 150.199Z" fill="#FFAF8F"/>
<mask id="mask0_225_970" style="mask-type:luminance" maskUnits="userSpaceOnUse" x="351" y="120" width="48" height="91">
<path d="M351.504 150.199L356.19 210.341L398.23 205.835L380.637 120.595L351.504 150.199Z" fill="white"/>
</mask>
<g mask="url(#mask0_225_970)">
<path opacity="0.35" d="M348.144 152.334C348.144 152.334 357.433 153.648 369.323 150.794L350.743 170.462L348.154 152.334H348.144Z" fill="#FC6158"/>
</g>
<path d="M402.639 109.868C400.491 135.869 377.637 155.208 351.607 153.052C325.578 150.907 306.217 128.078 308.375 102.077C310.523 76.0756 333.377 56.7364 359.407 58.892C385.436 61.0477 404.797 83.8667 402.639 109.868Z" fill="#FFAF8F"/>
<mask id="mask1_225_970" style="mask-type:luminance" maskUnits="userSpaceOnUse" x="308" y="58" width="95" height="96">
<path d="M402.639 109.868C400.491 135.869 377.637 155.208 351.607 153.052C325.578 150.907 306.217 128.078 308.375 102.077C310.523 76.0756 333.377 56.7364 359.407 58.892C385.436 61.0477 404.797 83.8667 402.639 109.868Z" fill="white"/>
</mask>
<g mask="url(#mask1_225_970)">
<path opacity="0.35" d="M316.802 123.171C316.062 125.666 312.455 126.805 308.755 125.707C305.056 124.608 302.662 121.693 303.402 119.188C304.141 116.694 307.748 115.555 311.448 116.653C315.147 117.751 317.542 120.667 316.802 123.171Z" fill="#FC6158"/>
<path opacity="0.35" d="M360.609 120.133C361.153 122.679 358.523 125.399 354.741 126.199C350.97 127 347.465 125.573 346.921 123.028C346.376 120.482 349.007 117.762 352.778 116.971C356.56 116.171 360.054 117.597 360.598 120.143L360.609 120.133Z" fill="#FC6158"/>
</g>
<mask id="mask2_225_970" style="mask-type:luminance" maskUnits="userSpaceOnUse" x="308" y="58" width="95" height="96">
<path d="M402.803 105.957C402.813 132.05 381.654 153.206 355.532 153.216C329.41 153.227 308.231 132.091 308.221 105.998C308.21 79.9041 329.369 58.748 355.491 58.7378C381.613 58.7275 402.792 79.863 402.803 105.957Z" fill="white"/>
</mask>
<g mask="url(#mask2_225_970)">
<path d="M310.071 79.0011C310.071 79.0011 305.785 101.758 374.482 87.172L380.719 118.706C380.719 118.706 389.002 166.448 389.485 160.587C389.968 154.726 441.595 70.7481 370.844 50.5364C304.696 31.6386 310.071 79.0011 310.071 79.0011Z" fill="#6E3B46"/>
</g>
<path d="M369.035 112.937C369.569 119.691 375.488 124.721 382.24 124.187C389.002 123.654 394.037 117.741 393.503 110.997C392.968 104.243 387.049 99.2128 380.298 99.7466C373.536 100.28 368.501 106.193 369.035 112.937Z" fill="#FFAF8F"/>
<path d="M339.403 178.835H418.788C442.8 178.835 453.593 201.39 452.781 215.67L434.546 361.243C433.755 368.049 427.803 373.185 420.752 373.135L323.738 372.466C316.533 372.416 310.591 366.979 310.088 359.994L300.086 219.817C298.503 197.662 316.563 178.845 339.403 178.845V178.835Z" fill="#FFD9A8"/>
<path d="M407.54 178.835L338.67 178.885C338.67 178.885 342.13 204.301 373.295 204.301C404.46 204.301 407.529 178.835 407.529 178.835H407.54Z" fill="#FFAF8F"/>
<path d="M432.738 97.8206C456.677 92.0753 471.42 68.0331 465.669 44.1207C459.917 20.2083 435.849 5.48095 411.91 11.2262C387.971 16.9715 373.228 41.0138 378.98 64.9261C384.731 88.8385 408.8 103.566 432.738 97.8206Z" fill="#6E3B46"/>
<path d="M334.096 340.501C339.625 329.209 353.261 324.528 364.575 330.041C368.285 331.847 371.265 334.547 373.423 337.739L407.386 339.064L419.358 361.564L371.584 365.609C364.956 373.051 353.96 375.535 344.568 370.947C333.264 365.424 328.578 351.802 334.096 340.501Z" fill="#FFAF8F"/>
<path d="M396.956 360.866H294.348V374.026H396.956V360.866Z" fill="#D7E8F7"/>
<path d="M309.711 374.026H155.044C146.134 374.026 138.314 368.093 135.93 359.522L105.77 251.288C103.108 241.721 110.312 232.246 120.249 232.246H262.307C268.257 232.246 273.456 236.25 274.967 241.998L309.711 374.036V374.026Z" fill="#D7E8F7"/>
<path d="M203.62 326.52C211.702 326.52 218.253 319.975 218.253 311.903C218.253 303.83 211.702 297.285 203.62 297.285C195.538 297.285 188.987 303.83 188.987 311.903C188.987 319.975 195.538 326.52 203.62 326.52Z" fill="white"/>
<path d="M394.941 374.026L489.883 373.554C495.545 373.492 501.166 371.665 505.379 367.887C512.727 361.287 514.802 351.022 511.113 342.359L449.364 199.614C444.678 188.836 432.285 183.703 421.33 187.994C409.883 192.49 404.395 205.527 409.204 216.839L456.68 329.055L394.458 329.753L394.951 374.036L394.941 374.026Z" fill="#FFD9A8"/>
<g clip-path="url(#clip0_225_970)">
<path d="M22.5163 320.375H73.1846C74.0721 320.375 74.8053 321.112 74.8053 322.004V360.624C74.8053 371.869 65.7367 380.981 54.5457 380.981H41.1551C29.9641 380.981 20.8955 371.869 20.8955 360.624V322.004C20.8955 321.112 21.6287 320.375 22.5163 320.375Z" fill="white"/>
<path d="M28.5754 374.311C17.1528 367.836 -2.45077 348.681 0.790765 335.226C1.67833 331.62 3.83935 328.906 7.11948 327.393C14.6831 323.865 25.5268 328.13 26.7616 328.634L23.1342 336.195C20.5101 335.11 14.1042 333.365 11.0942 334.799C10.4768 335.071 9.82076 335.575 9.47345 337.048C7.58255 344.881 22.9027 361.438 33.2061 367.293L28.5754 374.35V374.311Z" fill="white"/>
</g>
<defs>
<clipPath id="clip0_225_970">
<rect width="74.3624" height="60.6058" fill="white" transform="translate(0.443359 320.375)"/>
</clipPath>
</defs>
</svg>
