<svg width="90" height="54" viewBox="0 0 90 54" fill="none" xmlns="http://www.w3.org/2000/svg">
<path d="M10.607 25.5638C9.13278 26.9846 7.21318 27.8363 5.54718 29.0304C2.1717 31.4526 -0.116302 35.4904 0.00456988 39.6423C0.129235 43.7928 2.88571 47.8672 6.85042 49.1162C11.1038 50.4589 15.6452 48.5768 20.1012 48.4086C28.7965 48.086 37.0116 54.3155 45.5938 52.8953C51.6257 51.8987 56.703 47.2321 62.8047 46.8359C66.6587 46.5857 70.429 48.0881 74.29 48.1619C80.4793 48.2764 86.5489 44.3212 88.9383 38.6112C90.0141 36.0415 90.3127 32.878 88.6811 30.6181C87.3365 28.7531 84.9942 27.8947 83.3525 26.2877C80.4931 23.4854 80.2685 19.0641 79.541 15.1238C78.811 11.1887 76.6184 6.72319 72.6322 6.35785C68.5465 5.98288 64.8309 10.2607 60.8732 9.16572C58.5378 8.51804 57.1292 6.23774 55.4577 4.48539C51.1715 -0.0108762 43.8859 -1.31069 38.3102 1.42661C31.8008 4.62335 31.791 12.092 19.6995 11.4434C7.60809 10.7948 13.3833 22.8973 10.6137 25.5699L10.607 25.5638Z" fill="#8BB546"/>
<path d="M42.0781 17.0845C42.2511 20.206 42.4242 23.3274 42.5949 26.4542C42.7656 29.5809 42.9369 32.6638 43.1093 35.7725L43.4019 41.0387C43.4223 41.4315 43.8338 41.7653 44.2225 41.7116C44.6392 41.6514 44.9185 41.3132 44.8954 40.8909C44.7224 37.7694 44.5494 34.6479 44.3787 31.5212C44.2077 28.4163 44.0368 25.3115 43.8643 22.2029C43.7676 20.4457 43.6723 18.6924 43.5717 16.9367C43.5513 16.5439 43.1398 16.2101 42.751 16.2638C42.3343 16.324 42.055 16.6622 42.0781 17.0845Z" fill="#6E3B46"/>
<path d="M32.3702 24.2729C32.9797 25.9025 34.0847 27.3371 35.4573 28.4031C36.8284 29.4653 38.4765 30.1944 40.1958 30.452C41.1571 30.5961 42.1543 30.5957 43.1115 30.4234C43.3105 30.3861 43.4935 30.3069 43.6224 30.1441C43.7345 30.0052 43.8107 29.7842 43.7844 29.6027C43.7313 29.2268 43.3798 28.8568 42.9637 28.9298C42.6088 28.9923 42.2504 29.0343 41.8909 29.0507C41.7111 29.0589 41.5337 29.0618 41.3533 29.0572C41.3314 29.0569 41.3058 29.0581 41.2824 29.054C41.2824 29.054 41.4861 29.0627 41.37 29.0551C41.33 29.0531 41.2862 29.0525 41.2462 29.0505C41.1572 29.0455 41.0682 29.0406 40.9777 29.0318C40.6173 29.0006 40.2625 28.9499 39.9102 28.872C39.7348 28.8349 39.5579 28.7941 39.3857 28.7428C39.3376 28.7308 39.2932 28.7174 39.2488 28.7039C39.1315 28.6707 39.4368 28.7623 39.2775 28.7104C39.1925 28.6821 39.1038 28.6552 39.0189 28.6269C38.6777 28.5099 38.3421 28.3734 38.0173 28.2196C37.853 28.1434 37.6948 28.0606 37.5351 27.9739C37.4572 27.9299 37.3755 27.8872 37.3014 27.8417C37.2669 27.8201 37.2287 27.8 37.1943 27.7784C37.1546 27.7545 37.079 27.7052 37.2669 27.8202C37.2444 27.807 37.2273 27.7962 37.2048 27.7831C36.5916 27.4005 36.0215 26.9491 35.5157 26.4381C35.5009 26.4221 35.4808 26.4037 35.4659 26.3877C35.381 26.3027 35.5754 26.5023 35.512 26.4396C35.4808 26.4037 35.4457 26.3693 35.4145 26.3334C35.3468 26.2593 35.2776 26.1814 35.2099 26.1072C35.0768 25.9537 34.9499 25.7935 34.8267 25.6318C34.5842 25.307 34.36 24.9622 34.1662 24.6055L34.2643 24.7812C34.0815 24.4421 33.9216 24.0942 33.7867 23.7323C33.6519 23.3705 33.1884 23.1394 32.8201 23.3029C32.4518 23.4663 32.2441 23.8772 32.3907 24.2694L32.3702 24.2729Z" fill="#6E3B46"/>
<path d="M44.6493 34.6357C46.9922 35.3371 49.5212 35.4355 51.9244 35.0031C54.398 34.5611 56.7692 33.5923 58.8183 32.1376C59.9538 31.3305 60.9932 30.3645 61.8741 29.2809C62.1227 28.9762 62.0828 28.4645 61.7568 28.2285C61.4308 27.9924 60.9676 28.0225 60.7044 28.3459C60.4642 28.6386 60.2174 28.9252 59.9518 29.1972C59.8255 29.3329 59.6924 29.4625 59.5594 29.5921C59.4707 29.6785 59.6901 29.4678 59.5754 29.5772C59.5433 29.607 59.5112 29.6368 59.4753 29.668C59.4012 29.7357 59.3248 29.8087 59.2506 29.8764C58.693 30.374 58.095 30.8349 57.4691 31.2455C57.1119 31.4831 56.7436 31.7032 56.3656 31.9096L56.5413 31.8115C55.2669 32.5065 53.9012 33.0319 52.4896 33.3702L52.6857 33.3253C51.6596 33.5676 50.6151 33.7168 49.5631 33.7557C49.3063 33.7674 49.0503 33.7701 48.7967 33.7675C48.731 33.7666 48.6692 33.7642 48.6035 33.7634C48.5778 33.7645 48.5507 33.7619 48.5288 33.7616C48.3794 33.7581 48.7182 33.7672 48.5688 33.7637C48.4398 33.7567 48.3123 33.7535 48.1871 33.745C47.6644 33.7109 47.1406 33.6511 46.6231 33.5627C46.0409 33.4644 45.466 33.3285 44.8998 33.1587C44.7276 33.1074 44.4691 33.1937 44.3334 33.2939C44.1877 33.4021 44.0614 33.5945 44.0401 33.7769C44.0156 33.9736 44.0498 34.1869 44.1753 34.3433C44.3008 34.4997 44.4574 34.5788 44.6582 34.6366L44.6493 34.6357Z" fill="#6E3B46"/>
<path d="M54.7714 29.3958C54.8246 30.3944 54.8816 31.3916 54.9348 32.3903C54.9553 32.7831 55.3668 33.1169 55.7555 33.0632C56.1723 33.0031 56.4515 32.6648 56.4284 32.2425C56.3752 31.2438 56.3183 30.2466 56.2651 29.248C56.2446 28.8552 55.8331 28.5213 55.4443 28.5751C55.0276 28.6352 54.7483 28.9735 54.7714 29.3958Z" fill="#6E3B46"/>
<path d="M36.584 28.3878C35.3271 29.1849 34.0717 29.9858 32.8148 30.783C32.4821 30.9937 32.4153 31.5333 32.6567 31.8324C32.9293 32.1674 33.3484 32.2152 33.7061 31.9905C34.963 31.1934 36.2184 30.3925 37.4753 29.5954C37.808 29.3846 37.8747 28.8451 37.6333 28.5459C37.3607 28.2109 36.9417 28.1631 36.584 28.3878Z" fill="#6E3B46"/>
<path d="M43.1709 22.8007C45.3874 22.8451 47.6006 21.5451 48.7465 19.667C49.1106 19.074 49.3747 18.4585 49.5369 17.782C49.6288 17.3982 49.2979 16.9681 48.9188 16.9223C48.4892 16.8698 48.155 17.1334 48.059 17.5405C48.0407 17.6172 48.0208 17.6902 48.001 17.7632C47.9811 17.8362 48.0357 17.6496 48.0325 17.6639C48.0255 17.6797 48.0237 17.6978 48.0167 17.7135C48.0056 17.7526 47.9908 17.7932 47.9783 17.8285C47.9295 17.9736 47.8741 18.1125 47.8111 18.2543C47.748 18.3962 47.6821 18.5304 47.6071 18.6638C47.5893 18.6968 47.5738 18.7245 47.556 18.7575C47.5405 18.7852 47.4603 18.9163 47.5359 18.7957C47.6114 18.6752 47.5358 18.7958 47.5227 18.8182C47.5011 18.8527 47.4795 18.8871 47.4579 18.9215C47.2893 19.1737 47.0996 19.4165 46.8951 19.6433C46.8422 19.6984 46.7894 19.7536 46.7366 19.8088C46.7121 19.8356 46.6861 19.8587 46.6616 19.8855C46.605 19.9421 46.7503 19.7991 46.7381 19.8126C46.7211 19.8365 46.6937 19.8557 46.6739 19.8721C46.5615 19.9763 46.4425 20.0743 46.3272 20.171C46.054 20.3893 45.7654 20.5787 45.4605 20.7483L45.6361 20.6502C45.1829 20.8986 44.6973 21.0854 44.1945 21.2048L44.3906 21.1599C43.9438 21.2664 43.488 21.3155 43.0269 21.3056C42.8465 21.301 42.6242 21.4475 42.5159 21.5849C42.4076 21.7224 42.3277 21.9448 42.3539 22.1263C42.3808 22.3207 42.4696 22.5173 42.6334 22.6373C42.7971 22.7572 42.9686 22.7957 43.1747 22.7992L43.1709 22.8007Z" fill="#6E3B46"/>
</svg>
