<svg width="103" height="213" viewBox="0 0 103 213" fill="none" xmlns="http://www.w3.org/2000/svg">
<g clip-path="url(#clip0_145_317)">
<path d="M40.1724 4.61039C38.9512 2.77943 37.2081 1.72955 35.232 1.08542C34.4009 0.64416 27.6616 -0.420942 25.5993 0.1674C22.7972 0.48693 20.3244 1.86142 19.0677 4.85892C18.7333 5.65521 18.6522 6.37035 18.7434 7.00434C17.6844 8.62228 17.9986 14.6021 19.2958 16.3062C20.4055 17.7619 21.4544 13.5775 23.0657 13.5826C25.3054 13.5826 27.54 13.5826 29.7746 13.5826C31.7964 13.5826 33.8436 13.679 35.8654 13.608C35.2776 15.2614 34.4567 16.8946 33.8689 18.122C33.5395 18.477 33.3115 18.9436 33.2659 19.5421C33.2558 19.679 33.2456 19.8109 33.2355 19.9479C33.0835 22.1085 36.4582 23.1229 37.4463 21.1702C37.7909 21.0687 38.1253 20.8862 38.4243 20.6123C40.2434 18.9385 41.272 14.9165 41.6318 12.5581C42.0523 9.82432 41.7331 6.94855 40.1674 4.60532L40.1724 4.61039Z" fill="#6E3B46"/>
<path d="M44.6062 195.294C43.2684 194.523 40.7602 192.535 39.6302 191.754C38.8549 191.216 38.3989 190.329 38.404 189.385C38.409 188.614 38.8701 183.481 39.3161 178.739C39.6809 174.18 51.4519 110.355 49.8101 92.5624C49.7949 92.3748 34.4313 99.1508 34.335 103.142C33.575 134.893 33.3216 158.771 33.2405 171.152C33.2152 171.187 33.1949 171.223 33.2 171.258C33.2152 171.659 33.2203 172.47 33.2253 173.551C33.2 178.176 33.2 180.641 33.2 180.641C33.2101 180.717 33.2253 180.788 33.2456 180.849C33.2709 186.687 33.3571 193.154 33.7118 194.269C34.0259 195.243 34.8012 195.756 35.6221 196.278C36.5241 196.851 40.1876 198.606 41.125 198.92C42.3868 199.473 46.3493 196.303 44.6062 195.294Z" fill="#FC6158"/>
<path d="M33.1999 102.919C33.1999 102.919 15.8044 102.067 15.7892 102.255C14.1424 120.047 14.9176 189.679 14.1424 190.217C13.0124 191.003 9.13095 193.904 7.79828 194.675C6.05518 195.684 10.0177 198.849 11.2794 198.302C12.2168 197.987 15.8804 196.237 16.7823 195.659C17.6032 195.137 18.3836 194.624 18.6927 193.651C18.8903 193.032 33.1999 102.919 33.1999 102.919Z" fill="#FC6158"/>
<path d="M58.2368 59.7928C58.1557 59.0016 57.9176 58.2509 57.5426 57.6017C58.0746 56.3693 58.0594 54.9086 57.345 53.7014C52.967 46.2965 47.7731 38.8052 40.0305 35.4781C38.6066 34.5347 37.0561 33.7283 35.3485 33.0943C34.1273 32.6429 32.7034 33.0233 31.6393 33.8145C31.2035 33.8956 30.8184 34.0478 30.4789 34.2456C25.6347 32.0342 17.1169 39.4342 14.1171 42.4063C8.74592 47.7318 4.72767 54.4622 2.564 61.7151C1.83433 64.1699 1.2212 66.8326 0.95771 69.47C1.84823e-05 71.372 -0.309078 73.5529 0.344585 75.8657C1.61137 80.3493 6.14141 83.1693 10.6157 83.3518C11.0717 83.3721 11.5278 83.362 11.9838 83.3366C11.6899 86.6587 11.4873 89.991 11.3454 93.3232C11.0616 99.9877 8.91821 111.836 18.181 113.301C21.7077 113.859 25.7766 112.835 29.1361 111.76C32.6527 110.634 36.0781 109.041 39.1539 107.002C43.9221 103.842 48.0569 99.7189 51.0921 94.8803C53.5497 95.8947 57.046 94.5912 57.2994 91.0611C57.4666 88.7382 57.5679 86.4203 57.5983 84.0974C58.1608 83.4228 58.5256 82.5505 58.556 81.5107C58.6574 77.8742 58.6827 74.2427 58.627 70.6061C58.7283 67 58.5966 63.3989 58.2317 59.7928H58.2368Z" fill="#92537F"/>
<path d="M19.7361 190.704C19.6297 190.308 19.4929 190.227 19.0419 190.354C17.4052 190.815 16.3107 190.755 14.7146 190.232C13.8937 189.963 13.2501 190.364 10.0426 192.626C9.34844 193.118 4.00259 195.923 7.81309 198.469C8.31474 198.804 10.595 199.149 12.1556 198.682C13.4123 198.342 16.5691 196.268 17.4559 195.674C18.2666 195.132 19.0318 194.604 19.3206 193.62C19.4675 193.118 19.7209 191.241 19.7513 191.094C19.7766 190.963 19.7665 190.831 19.7361 190.709V190.704Z" fill="#6E3B46"/>
<path d="M33.2307 191.637C33.3371 191.241 33.474 191.16 33.9249 191.287C35.5616 191.749 36.6561 191.688 38.2523 191.165C39.0732 190.897 39.7167 191.297 42.9242 193.559C43.6184 194.051 48.9642 196.856 45.1537 199.402C44.6521 199.737 42.3719 200.082 40.8112 199.615C39.5545 199.275 36.3977 197.201 35.511 196.608C34.7002 196.065 33.9351 195.537 33.6462 194.553C33.4993 194.051 33.2459 192.175 33.2155 192.028C33.1902 191.896 33.2003 191.764 33.2307 191.642V191.637Z" fill="#6E3B46"/>
<path d="M29.6277 61.152C29.3643 61.0911 27.6262 63.0337 23.9779 65.0929C16.2505 69.4446 7.51976 68.1563 5.61958 70.2611C3.35963 72.7565 5.5537 76.7481 8.6092 77.4785C13.6459 78.645 25.118 77.3111 34.0514 64.043C35.5918 61.7505 31.2847 59.4884 29.6277 61.1571V61.152Z" fill="#FCC6A1"/>
<path d="M26.7702 36.6192C26.2433 35.757 25.9443 27.9006 25.8632 26.024C25.8277 25.7805 25.5744 22.1034 25.8075 21.5911C25.8733 21.3832 28.4475 20.1406 29.9777 19.9276C30.8189 19.8109 31.6347 19.9276 32.3492 20.2167C32.5569 20.2674 32.7596 20.3282 32.9572 20.4043C33.7629 20.3587 34.5382 20.5159 35.2172 20.8405C36.6968 21.2361 37.9281 22.3063 38.0244 23.6909C38.1409 25.2936 38.2524 26.8964 38.3689 28.4991C38.445 29.5794 38.7034 34.3876 38.6122 35.3867C38.374 37.9785 27.1199 37.1822 26.7753 36.6141L26.7702 36.6192Z" fill="#FCC6A1"/>
<path d="M19.0575 12.4414C19.6808 9.90034 19.5794 7.63319 23.0149 7.42524C26.0147 7.24265 30.4282 7.89693 33.5597 9.49965C35.6271 10.5597 37.1928 9.7989 38.0796 12.0204C39.6403 15.9106 39.5389 25.7196 33.8232 30.6698C32.4196 31.8871 29.0601 33.0181 27.3068 33.0435C25.2293 33.0688 22.1637 31.6791 20.8614 28.6715C19.0778 24.5379 17.4816 18.8421 19.0626 12.4414H19.0575Z" fill="#FCC6A1"/>
<path d="M34.8522 23.2852C32.5415 23.9445 29.6381 24.0916 27.5504 24.0054C24.8091 23.8938 22.311 23.1837 19.7368 22.1237C18.1458 21.4694 18.0394 23.1178 18.0191 23.696C17.8113 29.2396 16.0632 37.3242 23.0001 39.0791C30.7376 41.0368 33.0989 34.8643 34.2542 32.5211C35.4045 30.183 36.1392 27.7332 36.5497 25.1922C36.6662 24.8625 36.3926 22.8439 34.8522 23.2852Z" fill="#6E3B46"/>
<path d="M39.1083 13.121C40.1268 11.782 39.0323 9.75834 37.6337 8.82511C36.5494 8.1049 35.2522 7.82087 34.0614 7.3289C32.7389 6.78113 31.5785 5.83268 30.2256 5.432C30.2154 5.432 30.2053 5.42693 30.1952 5.42186C30.0989 5.3965 30.0026 5.37621 29.9013 5.35592C29.8759 5.35592 29.8557 5.34578 29.8303 5.34071C29.729 5.32042 29.6276 5.28999 29.5212 5.27984C28.5129 5.15305 27.8744 5.85297 27.6515 6.69491C26.6836 6.17757 25.7361 5.62981 24.8747 4.97046C24.6314 3.4641 22.8427 2.29756 21.652 3.66698C20.3345 4.11838 20.0609 6.05077 21.0135 6.98908C23.3444 9.29173 26.5874 10.8387 29.506 12.274C30.9603 12.9891 33.1645 13.9224 35.2015 14.2013C37.1473 14.4701 38.485 14.2977 38.3077 16.1591C38.0543 18.8624 36.4176 19.2124 36.7369 20.1203C36.9142 20.6173 37.4108 20.9571 37.9428 20.8608C39.4782 20.5818 40.1876 17.5792 40.2585 16.3315C40.3345 15.0483 39.9646 13.8362 39.0982 13.1159L39.1083 13.121Z" fill="#6E3B46"/>
<path d="M102.909 209.85C94.2998 176.634 85.6907 143.413 77.0867 110.197C79.0172 110.152 80.9478 110.106 82.8835 110.06C84.9255 110.015 87.3172 110.324 89.2884 109.787C91.6496 109.142 92.3489 106.916 92.5719 104.542C93.1242 103.7 93.2255 102.752 93.4079 101.53C93.7525 99.2167 94.0971 96.909 94.4416 94.5962C95.1561 89.8083 95.8706 85.0204 96.585 80.2376L100.801 52.0124C100.867 51.5661 100.826 51.1553 100.71 50.785C100.669 49.5475 99.8584 48.3201 98.2673 48.2795C91.8979 48.1223 85.5235 47.9701 79.1541 47.8129C79.3162 45.0994 79.3821 42.3758 79.3517 39.6471C79.3162 36.3859 74.244 36.3757 74.2845 39.6471C74.3149 42.3352 74.2541 45.0132 74.097 47.6861C66.6787 47.5035 59.2604 47.326 51.8472 47.1434C50.4284 46.7782 48.5586 47.5644 48.3762 49.4866C46.6432 67.7658 44.9102 86.0399 43.1823 104.319C43.1013 104.547 43.0506 104.796 43.0354 105.07C42.9949 105.785 42.9492 106.5 42.9087 107.215C42.858 108.118 43.1925 108.767 43.7093 109.163C43.9677 110.137 44.7481 110.938 46.0605 110.907C54.3757 110.715 62.6909 110.522 71.0061 110.329C61.7535 141.709 52.8809 173.231 42.9138 204.393C41.9156 207.507 46.8104 208.841 47.7985 205.742C57.0663 176.766 65.3917 147.476 73.9551 118.277C81.9815 149.246 90.0079 180.22 98.0343 211.189C98.8501 214.344 103.74 213.01 102.919 209.84L102.909 209.85Z" fill="#462D1B"/>
<path d="M44.0744 41.5846C43.9325 41.1433 43.522 40.91 43.0761 40.9506C41.9462 41.0571 40.5932 41.9447 39.899 42.8018C39.2555 43.593 38.9464 44.6074 39.1288 45.5965C37.1222 50.3032 35.4095 55.1114 34.0161 60.0311C33.7374 60.1782 33.5499 60.4622 33.5854 60.8832C33.6056 61.0861 33.6208 61.294 33.6411 61.4969C33.7374 62.5874 35.3133 62.9322 35.6325 61.7657C37.0412 56.5873 38.7893 51.5255 40.8922 46.5855C40.9327 46.555 40.9733 46.5246 41.0138 46.484C41.9411 45.4697 42.8836 44.4401 43.5727 43.2431C43.8413 42.7765 44.2568 42.1476 44.0744 41.5744V41.5846Z" fill="#462D1B"/>
<path d="M35.4092 56.5315C34.7352 57.1097 34.1019 57.7335 33.509 58.3979C33.286 58.6515 32.8857 59.316 32.4956 59.8232C32.8452 59.1892 33.2252 58.5704 33.6509 57.9668C34.4008 56.8967 32.6476 55.8823 31.9027 56.9423C31.2845 57.8248 30.7423 58.7428 30.2762 59.6964C29.8961 60.2137 29.6124 60.7564 29.3894 61.3244C30.0836 63.4242 30.3116 65.6305 32.1409 66.655C36.3111 66.655 37.8769 63.688 38.2113 61.4969C38.7484 58.0023 36.6202 55.4968 35.4142 56.5315H35.4092Z" fill="#FCC6A1"/>
<path d="M16.7372 52.0479C14.832 55.8975 14.1631 60.0564 13.5855 64.2763C13.4993 64.9153 14.4722 65.1892 14.5634 64.5451C15.131 60.4216 15.7491 56.3286 17.6139 52.5602C17.9027 51.9769 17.0261 51.4646 16.7372 52.0479Z" fill="#644471"/>
</g>
<defs>
<clipPath id="clip0_145_317">
<rect width="103" height="213" fill="white"/>
</clipPath>
</defs>
</svg>
