<svg width="107" height="226" viewBox="0 0 107 226" fill="none" xmlns="http://www.w3.org/2000/svg">
<g clip-path="url(#clip0_145_278)">
<path d="M25.5878 82.778C24.0474 80.6275 21.1026 80.3326 18.6226 80.6062C16.8201 80.793 8.96063 88.1323 9.16347 88.2594C6.78747 90.9093 -2.00505 98.11 7.84538 105.254C11.3036 107.747 15.6279 103.125 17.134 101.899C17.9298 101.326 26.371 93.4704 27.0027 92.4033C28.0611 90.6246 28.8418 87.3234 25.6049 82.7941L25.5878 82.778Z" fill="#6E3B46"/>
<path d="M57.4912 2.78981C53.5625 1.20969 42.394 -0.0714395 38.5404 6.43296C38.1143 7.16116 37.5696 7.80969 37.0079 8.44209C36.0296 9.56945 34.9197 9.61917 33.5135 9.74429C30.123 10.0783 27.3997 12.2061 26.8574 15.7166C26.2733 19.4945 28.2506 22.9465 31.4607 24.3483C37.343 26.9185 37.1076 30.1536 41.0991 31.6153C46.3986 33.5539 53.1249 35.4999 53.3985 30.7662C53.6058 27.1493 48.0163 17.1492 47.19 15.0273C47.1534 14.9119 47.1007 14.8137 47.048 14.7154C48.8022 13.4651 51.249 12.0776 53.2433 13.3161C54.4603 14.0785 55.1429 15.2728 56.0816 16.16C56.0483 16.7101 56.03 17.2098 56.0579 17.5917C56.3342 21.2941 62.6336 20.6071 62.8352 19.0204C64.47 14.8783 64.4416 5.57774 57.4912 2.78981Z" fill="#6E3B46"/>
<path d="M43.4702 14.8886C43.809 11.7836 52.7571 10.9178 58.1518 12.1547C61.9597 13.023 63.0738 17.5656 62.8169 20.6349C62.5035 24.5878 61.2622 29.1341 58.1248 31.84C56.7498 33.0124 54.5328 33.7607 52.8248 33.7784C50.8014 33.7888 48.1489 32.1706 46.3549 29.8613C43.7679 26.5439 42.7384 21.4996 43.4702 14.8886Z" fill="#FCC6A1"/>
<path d="M56.6323 7.39131C55.4074 7.47774 54.3049 7.77683 53.2908 8.25632C53.0741 7.66376 52.5786 7.17935 51.7786 7.05344C49.7287 6.73183 48.49 7.46761 47.4494 8.72995C46.1726 9.30047 44.8952 9.85436 44.0033 11.0956C43.4139 11.9119 43.4241 12.8101 43.7613 13.5488C42.4214 14.7868 40.8411 15.7491 39.1187 16.3994C37.4783 17.0141 37.0054 18.9583 38.2213 20.2366C40.7553 22.89 45.6164 21.2475 48.1141 19.3427C50.9364 17.1953 52.9105 12.1946 56.7842 11.9293C59.698 11.7427 59.5783 7.17038 56.6479 7.35757L56.6323 7.39131Z" fill="#6E3B46"/>
<path d="M27.778 49.9497C27.9057 49.7795 27.9939 48.8451 28.01 48.828C30.0191 45.5567 37.2306 39.8507 38.0031 39.6114C38.0197 39.6109 38.0363 39.6104 38.0528 39.6099C38.2653 39.5037 38.4943 39.3971 38.7068 39.2909C39.3613 38.9885 40.094 39.0832 40.7332 39.3802C43.7054 38.9256 45.9903 43.2337 42.905 44.9064C42.8724 44.924 42.8397 44.9416 42.791 44.9763L42.792 45.0096C42.8457 45.1411 42.9154 45.2555 42.953 45.4041C43.41 46.8215 42.5604 48.9267 40.9432 49.2079C39.9201 49.3881 39.2651 49.6739 38.487 50.2795C38.4392 50.3474 38.3744 50.3993 38.3267 50.4673C37.2705 51.7634 35.8598 51.7388 34.7944 51.0551C34.0865 51.7917 33.4132 52.5772 32.757 53.3788C32.5656 53.6341 32.3742 53.8894 32.1656 54.1286C29.6022 57.1668 25.4476 53.0143 27.7449 49.9507L27.778 49.9497Z" fill="#FCC6A1"/>
<path d="M45.2958 219.732C45.058 216.761 40.8775 214.523 38.6422 216.885C38.4814 217.057 38.3377 217.244 38.194 217.431C36.9825 217.967 36.2412 219.253 36.3994 220.663C36.561 222.189 37.709 223.419 39.1014 223.943C40.527 224.467 42.2209 224.533 43.4853 223.547C44.5715 222.699 45.4208 221.143 45.2958 219.732Z" fill="#182138"/>
<path d="M90.0823 214.154C89.3969 213.975 88.6862 214.063 88.0473 214.331C87.633 214.344 87.2216 214.456 86.8986 214.748C86.0269 215.556 85.3571 216.458 85.1944 217.678C85.0302 218.847 85.3803 220.018 86.1855 220.876C88.0022 222.835 90.9052 222.283 92.1987 220.048C93.4767 217.847 92.69 214.825 90.0818 214.137L90.0823 214.154Z" fill="#182138"/>
<path d="M99.6144 197.796C96.5513 196.873 84.2393 197.855 81.4385 197.939C73.6321 198.155 65.8146 198.554 58.0186 199.119C50.421 199.662 27.5131 201.327 24.4796 203.064C23.811 203.45 18.9168 207.873 22.9581 213.792C25.9415 218.163 30.8167 217.551 35.6518 217.823C48.1469 218.532 60.6892 218.042 73.1529 217.138C79.3272 216.704 85.4814 216.155 91.6347 215.572C96.7624 215.087 103.243 214.91 105.717 209.412C107.957 204.436 104.385 199.252 99.5812 197.797L99.6144 197.796Z" fill="#A7CEED"/>
<path d="M54.4276 195.516C54.2508 195.704 54.0569 195.876 53.8795 196.048C53.5109 194.811 52.755 195.05 51.3886 195.956C48.2158 198.03 43.5 199.535 41.3016 201.464C39.071 203.428 38.5334 206.539 42.2047 207.278C45.3754 207.916 53.1322 206.037 55.8944 204.657C58.7546 203.224 58.2103 200.545 58.0876 196.987C58.0331 195.159 55.747 194.145 54.4272 195.499L54.4276 195.516Z" fill="#6E3B46"/>
<path d="M25.3396 95.0154C26.2885 95.686 27.7805 94.5433 27.2422 93.1783C24.7277 86.7306 21.7178 74.79 25.9392 68.9402C29.5872 63.8896 40.1493 49.8306 38.7698 50.8534C38.169 51.2873 37.2553 42.895 31.0836 45.6414C28.1858 46.9258 17.5298 65.0643 17.4031 65.2677C15.8857 67.2265 14.0819 71.8228 15.2522 76.5801C16.1801 83.2249 20.4669 90.7013 22.9071 95.7701C23.5609 97.1151 25.3441 96.2799 25.3567 95.0316L25.3396 95.0154Z" fill="#FCC6A1"/>
<path d="M31.8011 103.675C33.7743 102.535 32.6326 100.406 31.8096 98.9492C31.3539 98.1308 30.7023 97.4181 30.1326 96.6696C29.9248 96.3763 29.4419 95.7584 29.0122 95.2554C29.5911 95.754 30.2488 96.1171 30.9598 96.5951C32.0944 97.3766 33.0551 96.2165 32.1129 95.2129C31.3253 94.3878 30.1015 92.8435 29.2018 92.1548C27.2046 90.8166 27.0453 91.0377 25.4525 90.4695C25.4525 90.4695 25.4359 90.47 25.4194 90.4705C25.3355 90.4397 21.6708 93.2612 21.8821 93.6709C22.3583 94.6218 22.8392 96.288 22.9622 96.5173C24.0487 98.465 25.1552 100.529 26.535 102.301C27.69 103.764 30.0571 104.709 31.8016 103.692L31.8011 103.675Z" fill="#FCC6A1"/>
<path d="M77.2318 194.287C77.4035 194.481 77.5747 194.659 77.7463 194.854C78.1747 193.643 78.9128 193.921 80.2528 194.912C83.2893 197.168 87.9209 198.96 90.0058 201.011C92.1247 203.095 92.4675 206.246 88.7675 206.772C85.5627 207.217 77.9291 204.882 75.246 203.348C72.4779 201.75 73.1625 199.117 73.5044 195.563C73.6824 193.744 76.0115 192.859 77.2489 194.303L77.2318 194.287Z" fill="#6E3B46"/>
<path d="M76.5785 99.445C76.5565 99.2627 44.1446 94.2718 39.1022 99.8466C38.6686 100.325 39.0825 106.42 39.0822 106.969C38.9016 121.5 50.1385 194.079 50.3825 196.701C50.482 197.813 51.3411 199.368 53.9822 199.489C56.2079 199.589 58.0987 198.468 57.9903 197.057C57.9328 196.243 56.1608 161.836 57.7798 122.103C57.8975 119.37 59.8456 117.948 60.7152 122.082C67.5234 154.043 73.8267 197.45 73.8267 197.45C74.0462 198.691 76.265 199.674 77.5191 199.453C79.5487 199.093 80.6388 198.378 80.5464 195.835C80.4124 191.896 78.8786 118.179 76.5785 99.445Z" fill="#4F83C2"/>
<path d="M89.6902 67.9885C89.6014 67.7914 82.1867 51.6559 79.0651 47.6556C79.0651 47.6556 79.0646 47.639 79.0475 47.6229C79.0471 47.6063 76.8379 43.6121 71.0449 40.1407C70.3335 39.6461 69.5753 39.2527 68.8065 39.0593C68.7899 39.0598 68.7733 39.0603 68.7568 39.0608C68.5383 38.9675 68.3033 38.8747 68.0849 38.7813C67.4136 38.5185 66.6878 38.6566 66.0675 38.9912C63.0734 38.7144 61.0493 43.1509 64.2286 44.6369C64.2623 44.6525 64.2959 44.6681 64.3466 44.6999L64.3476 44.7332C64.3019 44.8676 64.239 44.986 64.2103 45.1366C63.8386 46.5787 64.8121 48.6296 66.4432 48.8139C67.4752 48.9329 68.146 49.1791 68.9589 49.7373C69.0106 49.8023 69.0784 49.8502 69.1301 49.9152C69.5758 50.4011 70.0649 50.6694 70.566 50.7876C70.3615 51.1598 70.2183 51.3637 70.1158 51.2669C68.8538 50.1065 77.7654 65.2656 80.8301 70.6986C84.3687 76.9993 80.034 88.5098 76.8164 94.6459C76.1254 95.9477 77.4748 97.2553 78.503 96.6922C78.374 97.9273 80.0635 98.9585 80.8555 97.7036C83.849 92.9553 88.9502 86.0144 90.6141 79.5087C92.3014 74.8992 91.0317 70.1449 89.7409 68.0202L89.6902 67.9885Z" fill="#FCC6A1"/>
<path d="M71.178 105.263C69.346 103.904 70.7299 101.916 71.7012 100.556C72.2424 99.7906 72.9864 99.1528 73.63 98.4846C73.8711 98.2279 74.4183 97.6625 74.9026 97.2154C74.2681 97.6337 73.5639 97.9375 72.8124 98.326C71.6044 98.9777 70.7702 97.7046 71.8222 96.8247C72.6963 96.0998 74.0975 94.6936 75.059 94.1158C77.1989 93.0037 77.3223 93.2497 78.9863 92.8673C78.9863 92.8673 79.0028 92.8668 79.0194 92.8663C79.1188 92.8633 82.5441 94.8079 82.3747 95.2455C81.7744 96.8109 80.9254 98.9328 80.7826 99.1533C79.4932 100.972 78.1571 102.892 76.579 104.487C75.2582 105.807 72.8237 106.496 71.1785 105.28L71.178 105.263Z" fill="#FCC6A1"/>
<path d="M81.986 52.161C82.795 49.8074 79.5371 47.3587 77.8434 45.6287C75.7385 43.4618 72.7075 40.2742 66.4329 37.8987C61.8358 36.1555 55.8396 35.885 51.7179 36.1742C48.7216 36.38 45.8552 35.933 42.1036 37.5091C41.9329 37.3478 42.0217 37.5448 41.7264 37.6534C39.448 38.57 37.0034 39.4748 35.0377 40.8645C31.2532 43.0073 24.0933 50.4423 24.1032 51.8896C24.1207 54.7011 29.651 57.1487 33.0216 58.9285C31.0963 72.2475 29.3362 88.3237 29.2292 91.9709C28.9154 94.2433 29.2851 101.637 29.3393 101.785C29.4702 102.28 29.6301 104.305 31.1791 105.075C34.7997 106.897 36.7175 106.124 38.8175 105.346C40.4087 104.75 42.0005 104.17 43.6113 103.672C45.1919 103.276 46.8096 103.011 48.5171 102.977C57.2545 102.833 65.7272 105.492 74.4014 106.565C77.2648 106.912 77.9945 105.792 78.2532 104.454C78.773 101.859 75.7155 79.4203 75.2742 67.9522C75.0895 65.0958 74.7703 62.1767 74.3712 59.3599C75.3126 58.6663 80.8572 55.4727 81.9865 52.1777L81.986 52.161Z" fill="#F7BF56"/>
<path d="M44.7072 44.7195C47.8809 46.5717 54.6501 42.7259 58.4269 39.768C59.9179 38.5921 61.4646 37.6142 63.3661 37.4077C63.8618 37.343 64.4092 37.3434 64.9254 37.4112C64.0532 37.0877 61.4376 36.1507 59.0107 35.4243C59.0078 35.3246 59.041 32.5448 59.039 32.4783C58.9949 30.9987 58.9508 29.5191 58.9067 28.0395C58.8686 26.7594 57.743 25.7281 56.3707 25.3197C55.7476 25.0055 55.0124 24.8277 54.2661 24.8333C54.0813 24.7556 53.8971 24.6946 53.6962 24.634C53.0404 24.3374 52.2736 24.2105 51.4796 24.2841C50.0241 24.4273 47.5509 25.4827 47.4905 25.6842C47.2558 26.1571 47.3569 29.5486 47.3799 29.7642C47.3735 30.6629 47.4884 33.405 47.584 35.4987C45.2168 36.2182 41.7657 37.3028 41.7123 37.737C41.2563 41.3613 42.2248 43.246 44.7403 44.7185L44.7072 44.7195Z" fill="#FCC6A1"/>
<path d="M66.1571 38.09C58.2411 58.5595 42.7783 70.7013 25.7228 83.3897C24.165 84.551 25.7519 87.1493 27.3258 85.9709C44.7711 73.0047 60.7207 60.4989 68.8217 39.558C69.5145 37.757 66.8659 36.2718 66.1576 38.1066L66.1571 38.09Z" fill="#6E3B46"/>
</g>
<defs>
<clipPath id="clip0_145_278">
<rect width="99.8968" height="222.437" fill="white" transform="translate(0.43457 2.97632) rotate(-1.70729)"/>
</clipPath>
</defs>
</svg>
