<svg width="62" height="62" viewBox="0 0 62 62" fill="none" xmlns="http://www.w3.org/2000/svg">
<mask id="mask0_346_397" style="mask-type:alpha" maskUnits="userSpaceOnUse" x="0" y="0" width="62" height="62">
<rect width="62" height="62" fill="#D9D9D9"/>
</mask>
<g mask="url(#mask0_346_397)">
<path d="M5.81616 58C5.36611 58 5 57.6028 5 57.1146V41.3043C5 37.372 7.31207 33.8975 10.7528 32.6605L11.9957 32.2153V29.4579C11.9957 28.9697 12.3618 28.5726 12.8118 28.5726H14.4512L14.6039 27.8516C12.9576 26.9839 11.8942 25.1449 11.8942 23.1654V22.8012C11.8942 21.4136 12.3933 20.1071 13.3004 19.123L13.403 19.0117V11.8035H16.2012V17.609L16.6082 17.5977C16.6361 17.5977 16.6653 17.5951 16.6933 17.5951H17.4581L17.5269 17.3131C18.3081 14.1447 20.9595 11.9325 23.9758 11.9325H29.5945V8.17345L26.6668 6.90356V5H35.3332V6.90356L32.4067 8.17345V11.9325H38.0242C41.0405 11.9325 43.6919 14.146 44.4731 17.3131L44.5419 17.5951H45.3067C45.3359 17.5951 45.3639 17.5951 45.3918 17.5977L45.7988 17.609V11.8035H48.597V19.0117L48.6996 19.123C49.6067 20.1071 50.1058 21.4136 50.1058 22.8012V23.1654C50.1058 25.1449 49.0424 26.9839 47.3961 27.8516L47.5488 28.5726H49.1882C49.6382 28.5726 50.0043 28.9697 50.0043 29.4579V32.214L51.2461 32.6605C54.6879 33.8975 57 37.372 57 41.3043V57.1146C57 57.6028 56.6339 58 56.1838 58H5.81616ZM35.8976 54.9644H44.1559L43.9904 54.4585C43.8038 53.8893 43.7094 53.2936 43.7094 52.6877V48.8933C43.7094 46.6495 45.0211 44.6371 46.974 43.8858L47.2072 43.796V31.6069H35.8976V54.9644ZM28.9019 54.9644H33.0993V50.411H28.9019V54.9644ZM48.6064 46.6166C47.4486 46.6166 46.5077 47.6385 46.5077 48.8933V52.6877C46.5077 53.9424 47.4486 54.9644 48.6064 54.9644H54.2029V46.6166H48.6064ZM14.7939 43.796L15.0271 43.8858C16.9801 44.6371 18.2918 46.6495 18.2918 48.8933V52.6877C18.2918 53.2923 18.1973 53.8881 18.0108 54.4585L17.8452 54.9644H26.1036V31.6081H14.7939V43.7973V43.796ZM7.79827 54.9644H13.3948C14.5526 54.9644 15.4935 53.9424 15.4935 52.6877V48.8933C15.4935 47.6385 14.5526 46.6166 13.3948 46.6166H7.79827V54.9644ZM28.9019 47.3755H33.0993V39.1958H28.9019V47.3755ZM50.0055 43.581H54.2029V41.3043C54.2029 38.7367 52.7035 36.4372 50.4719 35.581L50.0055 35.4026V43.581ZM11.5293 35.5822C9.29768 36.4372 7.79827 38.7367 7.79827 41.3056V43.5823H11.9957V35.4039L11.5293 35.5822ZM28.9019 36.1615H33.0993V31.6081H28.9019V36.1615ZM23.0418 14.9782C21.4142 14.9782 20.0384 16.5491 20.0384 18.4084V27.5594C20.0384 27.7909 20.0617 28.03 20.1083 28.2715L20.1666 28.5738H41.8311L41.8893 28.2715C41.936 28.03 41.9593 27.7909 41.9593 27.5594V18.4084C41.9593 16.5491 40.5847 14.9782 38.9582 14.9782H23.0418ZM44.6993 24.9564H45.3079C46.2022 24.9564 46.9589 24.1368 46.9589 23.1654V22.8012C46.9589 21.831 46.2033 21.0102 45.3079 21.0102H44.6993V24.9564ZM16.6933 21.0114C15.799 21.0114 15.0423 21.831 15.0423 22.8024V23.1667C15.0423 24.1368 15.7978 24.9577 16.6933 24.9577H17.3019V21.0127H16.6933V21.0114Z" fill="white"/>
<path d="M34.8295 25.671C34.0542 25.671 33.4234 24.9868 33.4234 24.1457V22.8745C33.4234 22.0334 34.0542 21.3491 34.8295 21.3491C35.6049 21.3491 36.2357 22.0334 36.2357 22.8745V24.1457C36.2357 24.9868 35.6049 25.671 34.8295 25.671Z" fill="white"/>
<path d="M26.6353 25.671C25.8599 25.671 25.2292 24.9868 25.2292 24.1457V22.8745C25.2292 22.0334 25.8599 21.3491 26.6353 21.3491C27.4106 21.3491 28.0414 22.0334 28.0414 22.8745V24.1457C28.0414 24.9868 27.4106 25.671 26.6353 25.671Z" fill="white"/>
<path d="M48.5982 6.73914H45.7999V9.77472H48.5982V6.73914Z" fill="white"/>
<path d="M16.2012 6.73914H13.403V9.77472H16.2012V6.73914Z" fill="white"/>
</g>
</svg>
