<svg width="153" height="188" viewBox="0 0 153 188" fill="none" xmlns="http://www.w3.org/2000/svg">
<g clip-path="url(#clip0_145_248)">
<path d="M101.322 120.228L92.3161 97.51C90.238 92.2673 94.1537 86.5986 99.7928 86.6743L118.397 86.9068C124.036 86.9826 127.796 92.7625 125.59 97.9461L115.991 120.432C113.207 126.952 103.957 126.815 101.351 120.241L101.322 120.228Z" fill="white"/>
<path d="M34.8571 115.255C35.2303 116.864 35.649 118.528 36.0842 120.233C36.6262 122.329 37.2094 124.529 37.8426 126.734C39.795 133.663 42.1946 141.114 44.9647 148.345C45.2368 149.032 45.509 149.718 45.7811 150.405C49.4878 159.817 53.8484 168.753 58.7309 175.604C60.8452 178.57 63.7316 180.507 66.8663 181.431C72.6375 183.115 79.2342 181.295 83.2737 175.938C88.6986 168.732 93.5701 159.098 97.7447 149.042C101.09 140.903 103.947 132.5 106.235 124.852C106.361 124.441 106.487 124.03 106.592 123.628C107.349 121.041 108.046 118.55 108.66 116.212C112.428 101.911 113.761 94.1608 112.749 86.9308C112.741 86.91 112.724 86.8683 112.737 86.8393C112.2 83.0559 111.019 79.4076 109.208 75.0218C109.01 74.5225 108.804 74.0024 108.577 73.4905C108.177 72.5418 107.731 71.5389 107.257 70.5234L37.447 69.6202C36.9576 70.6327 36.5016 71.6079 36.0581 72.554C34.2129 76.5835 32.8767 79.9538 32.0642 83.3091C30.0861 91.3152 31.0466 99.1435 34.8653 115.276L34.8571 115.255Z" fill="#A7CEED"/>
<path d="M24.53 94.1196L33.5354 116.838C34.3683 118.939 35.8806 120.386 37.6527 121.152C41.4168 122.814 46.2957 121.457 48.1963 117.021L57.7954 94.5349C60.0017 89.3513 56.2421 83.5714 50.6112 83.5164L32.0067 83.2839C26.3676 83.2082 22.4518 88.8769 24.53 94.1196Z" fill="white"/>
<path d="M37.7775 45.0068L37.5339 63.1584L107.323 64.0698L107.566 45.9183C107.817 26.6322 92.3908 10.7923 73.1338 10.5536C68.7289 10.4942 64.5043 11.254 60.6143 12.6756C47.4254 17.5425 37.961 30.1049 37.7692 44.986L37.7775 45.0068Z" fill="#A7CEED"/>
<mask id="mask0_145_248" style="mask-type:luminance" maskUnits="userSpaceOnUse" x="37" y="10" width="71" height="55">
<path d="M37.7775 45.0068L37.5339 63.1584L107.323 64.0698L107.566 45.9183C107.817 26.6322 92.3908 10.7923 73.1338 10.5536C68.7289 10.4942 64.5043 11.254 60.6143 12.6756C47.4254 17.5425 37.961 30.1049 37.7692 44.986L37.7775 45.0068Z" fill="white"/>
</mask>
<g mask="url(#mask0_145_248)">
<path d="M36.9857 37.6652C36.7966 43.6863 39.3619 48.6396 42.7277 48.7498C46.0935 48.8601 48.9593 44.0649 49.1484 38.0439C49.3376 32.0228 46.7723 27.0694 43.4065 26.9592C40.0407 26.849 37.1749 31.6441 36.9857 37.6652Z" fill="url(#paint0_linear_145_248)"/>
</g>
<path d="M32.138 67.825C32.1224 68.8182 32.4229 69.7583 32.94 70.5163C33.0806 70.7494 33.271 70.9869 33.4948 71.1871C34.344 72.0541 35.5225 72.598 36.8066 72.6187L107.801 73.5338C109.417 73.543 110.862 72.7538 111.722 71.5222C112.268 70.7759 112.579 69.8584 112.586 68.8444C112.598 67.5396 112.078 66.3494 111.25 65.4741C110.401 64.6071 109.222 64.0632 107.938 64.0425L36.9442 63.1274C34.3345 63.1026 32.1753 65.1862 32.1506 67.796L32.138 67.825Z" fill="#4F83C2"/>
<path d="M32.94 70.5163C33.0806 70.7495 33.271 70.9869 33.4948 71.1871C34.344 72.0541 35.5226 72.5981 36.8066 72.6187L107.801 73.5338C109.417 73.543 110.862 72.7538 111.722 71.5222C111.581 71.2891 111.391 71.0516 111.167 70.8514C110.318 69.9844 109.139 69.4404 107.855 69.4198L36.861 68.5047C35.2444 68.4955 33.7999 69.2847 32.94 70.5163Z" fill="#4F83C2"/>
<path d="M100.987 99.5857L80.1548 99.3213" stroke="white" stroke-width="0.76" stroke-linecap="round" stroke-linejoin="round"/>
<path d="M97.1203 95.9666C97.5074 96.9432 98.613 97.4211 99.5896 97.034C100.566 96.6469 101.044 95.5413 100.657 94.5646C100.27 93.588 99.1643 93.1101 98.1877 93.4972C97.211 93.8844 96.7331 94.9899 97.1203 95.9666Z" fill="#FA835F"/>
<path d="M84.4875 95.7984C84.8746 96.775 85.9802 97.2529 86.9568 96.8658C87.9335 96.4786 88.4113 95.3731 88.0242 94.3964C87.6371 93.4198 86.5315 92.9419 85.5549 93.329C84.5782 93.7162 84.1003 94.8217 84.4875 95.7984Z" fill="#88976A"/>
<path d="M45.7607 150.413C49.4674 159.825 53.828 168.761 58.7104 175.612C60.8248 178.578 63.7112 180.515 66.8459 181.439C68.2742 180.488 69.5621 179.303 70.6638 177.831C74.2401 173.068 77.5744 167.268 80.6402 160.973C82.903 156.297 79.5871 150.847 74.4092 150.781L45.7815 150.405L45.7607 150.413Z" fill="#A7CEED"/>
<path d="M107.348 64.0693L65.1663 63.5193L65.332 50.809C65.4091 44.9013 70.283 40.1529 76.1906 40.23L97.2253 40.5043C102.976 40.5792 107.592 45.3171 107.517 51.0681L107.348 64.0693Z" fill="url(#paint1_linear_145_248)"/>
<path d="M103.197 52.9943L95.1894 52.8946" stroke="white" stroke-width="0.82" stroke-linecap="round" stroke-linejoin="round"/>
<path d="M85.7506 53.0729L77.7554 52.9441" stroke="white" stroke-width="0.82" stroke-linecap="round" stroke-linejoin="round"/>
</g>
<defs>
<linearGradient id="paint0_linear_145_248" x1="26.9107" y1="36.4724" x2="44.1066" y2="37.6366" gradientUnits="userSpaceOnUse">
<stop stop-color="#192A4F"/>
<stop offset="1" stop-color="#2A4370"/>
</linearGradient>
<linearGradient id="paint1_linear_145_248" x1="67.3783" y1="89.5551" x2="100.458" y2="31.1911" gradientUnits="userSpaceOnUse">
<stop stop-color="#192A4F"/>
<stop offset="1" stop-color="#2A4370"/>
</linearGradient>
<clipPath id="clip0_145_248">
<rect width="162.384" height="98.6031" fill="white" transform="translate(92.2578 0.132324) rotate(68.3771)"/>
</clipPath>
</defs>
</svg>
