<svg width="32" height="32" viewBox="0 0 32 32" fill="none" xmlns="http://www.w3.org/2000/svg">
<path d="M3.79709 22.1584C-1.26546 17.0958 -1.26535 8.85818 3.79709 3.79553C8.85975 -1.26713 17.0972 -1.26713 22.1598 3.79553C26.4548 8.0905 27.1052 14.4782 24.113 19.4663C24.113 19.4663 23.898 19.8269 24.1883 20.117C25.8444 21.773 30.8129 26.7416 30.8129 26.7416C32.1315 28.0601 32.4454 29.9038 31.2761 31.0733L31.0748 31.2744C29.9055 32.4439 28.0617 32.1301 26.7432 30.8116C26.7432 30.8116 21.7852 25.8534 20.1325 24.2009C19.8283 23.8967 19.4678 24.1116 19.4678 24.1116C14.4798 27.1038 8.09207 26.4534 3.79709 22.1584ZM19.7626 19.7612C23.5034 16.0204 23.5033 9.93378 19.7625 6.193C16.0218 2.45232 9.93514 2.45221 6.19446 6.193C2.45368 9.93367 2.45368 16.0204 6.19446 19.7612C9.93525 23.5017 16.0217 23.5017 19.7626 19.7612Z" fill="white"/>
<path d="M18.9335 12.2062C19.1076 12.2062 19.2846 12.172 19.4552 12.1C20.1367 11.8115 20.4556 11.0252 20.1672 10.3436C18.3543 6.05943 13.3941 4.04894 9.11005 5.86181C8.42855 6.15025 8.10971 6.93659 8.39814 7.61819C8.68668 8.29979 9.47281 8.61843 10.1546 8.3301C13.0775 7.09328 16.462 8.46504 17.6988 11.3879C17.9151 11.8991 18.4114 12.2062 18.9335 12.2062Z" fill="white"/>
</svg>
