<svg width="38" height="13" viewBox="0 0 38 13" fill="none" xmlns="http://www.w3.org/2000/svg">
<path d="M19.37 12.78H6.39C2.86 12.78 0 9.91 0 6.39C0 2.87 2.86 0 6.39 0C7.1 0 7.69 0.58 7.69 1.3C7.69 2.02 7.1 2.6 6.39 2.6C4.3 2.6 2.6 4.3 2.6 6.38C2.6 8.46 4.3 10.16 6.39 10.16H19.36C21.45 10.16 23.14 8.46 23.14 6.38C23.14 5.66 23.72 5.08 24.44 5.08C25.16 5.08 25.74 5.66 25.74 6.38C25.74 9.9 22.88 12.77 19.35 12.77L19.37 12.78Z" fill="#4F83C2"/>
<path d="M30.94 12.78H26.38C25.66 12.78 25.08 12.2 25.08 11.48C25.08 10.76 25.66 10.18 26.38 10.18H30.94C33.03 10.18 34.72 8.48 34.72 6.4C34.72 4.32 33.02 2.62 30.94 2.62H17.96C15.87 2.62 14.18 4.32 14.18 6.4C14.18 7.12 13.6 7.7 12.88 7.7C12.16 7.7 11.58 7.12 11.58 6.4C11.58 2.88 14.44 0.01 17.97 0.01H30.95C34.48 0.01 37.34 2.88 37.34 6.4C37.34 9.92 34.48 12.79 30.95 12.79L30.94 12.78Z" fill="#4F83C2"/>
</svg>
