<svg width="42" height="98" viewBox="0 0 42 98" fill="none" xmlns="http://www.w3.org/2000/svg">
<path d="M20.7825 0C17.3854 0.674108 14.0921 2.59737 12.931 5.8564C11.899 8.74723 12.2197 11.9471 11.4471 14.9105C10.2665 19.4307 6.75799 22.8866 3.94431 26.6137C1.13063 30.3407 -1.13943 35.2416 0.617317 39.5605C1.83262 42.541 4.82807 44.7946 5.08041 47.9796C5.27503 50.4643 3.73202 52.7168 3.02319 55.1053C1.6068 59.8001 3.58142 65.0957 7.17725 68.4147C10.7731 71.7337 15.7397 73.2915 20.6307 73.5455C25.4256 73.8116 30.4733 72.8064 34.1816 69.7513C37.8898 66.6962 39.8657 61.2972 38.001 56.867C36.9164 54.2999 34.6865 52.1948 34.2215 49.4591C33.0273 42.4615 43.6618 36.6069 40.8423 30.0778C39.8366 27.7313 37.3754 26.4181 35.6631 24.5406C33.0745 21.7034 32.3132 17.7154 31.6863 13.9213C31.073 10.1412 30.422 6.15511 28.0139 3.16989C25.6058 0.184671 20.7736 -1.20674 17.8824 1.32624" fill="#D8D86E"/>
<path d="M18.7458 19.0957C18.7127 29.2004 18.6661 39.3188 18.6056 49.4232C18.5452 59.5275 18.5113 69.687 18.4639 79.8326C18.4448 85.4951 18.4116 91.1713 18.3925 96.8338C18.3962 97.4783 19.3832 97.4932 19.3795 96.8487C19.4121 86.7714 19.4582 76.7083 19.5043 66.6449C19.5504 56.5815 19.599 46.3536 19.6464 36.208C19.666 30.5181 19.6996 24.8144 19.7191 19.1245C19.7154 18.48 18.7281 18.4647 18.7318 19.1092L18.7458 19.0957Z" fill="#6E3B46"/>
<path d="M14.8312 27.5092C16.0533 30.051 17.3165 32.5797 18.5525 35.108C18.8317 35.6745 19.7026 35.208 19.4373 34.628C18.2152 32.0862 16.9521 29.5574 15.7161 27.0291C15.4369 26.4626 14.566 26.9292 14.8312 27.5092Z" fill="#6E3B46"/>
<path d="M19.6314 57.5835C24.5004 54.8343 27.6614 49.9333 28.8281 44.5354C28.961 43.9204 28.0058 43.6315 27.8724 44.2739C26.7508 49.412 23.7988 54.0832 19.1513 56.6987C18.5979 57.0192 19.0645 57.8901 19.6314 57.5835Z" fill="#6E3B46"/>
</svg>
