<svg width="59" height="87" viewBox="0 0 59 87" fill="none" xmlns="http://www.w3.org/2000/svg">
<path d="M2.67417 37.5418C-6.22268 62.633 12.4495 69.4421 18.94 71.0432C29.0877 73.5393 40.5065 73.3856 49.0996 67.4391C57.6819 61.5051 61.9138 48.8041 56.238 40.0511C55.0126 38.1517 53.3951 36.5267 52.1913 34.6023C47.6463 27.4028 49.5516 17.7079 45.8312 10.0395C41.7121 1.54159 30.2482 -2.47176 21.7236 1.60226C12.7103 5.91019 8.93142 16.5235 6.02955 26.077C4.02344 32.6546 2.00611 39.2447 0 45.8223" fill="#90B249"/>
<path d="M25.5498 28.3979C25.163 35.7901 24.787 43.1698 24.4003 50.562C24.0135 57.9542 23.6376 65.334 23.2508 72.7261C23.0279 76.9235 22.8161 81.1086 22.5933 85.306C22.5684 85.7893 23.0997 86.1633 23.5439 86.1321C24.0816 86.0945 24.3452 85.6649 24.37 85.1815C24.7568 77.7894 25.1328 70.4096 25.5195 63.0174C25.9063 55.6252 26.2822 48.2455 26.669 40.8533C26.8919 36.6559 27.1037 32.4709 27.3265 28.2735C27.3514 27.7901 26.8201 27.4162 26.3759 27.4473C25.8382 27.4849 25.5746 27.9146 25.5498 28.3979Z" fill="#6E3B46"/>
<path d="M17.4975 37.032C18.3072 41.3802 21.0389 45.1594 24.9666 47.2337C25.9785 47.7619 26.748 46.1691 25.7235 45.63C22.4174 43.8764 19.9446 40.6078 19.2743 36.9076C19.1823 36.4324 18.838 36.0454 18.3237 36.0814C17.8795 36.1125 17.4055 36.5568 17.4975 37.032Z" fill="#6E3B46"/>
<path d="M34.3466 52.3558C32.7429 57.1315 29.1352 61.1316 24.4665 63.0679C23.4047 63.5064 23.9808 65.1927 25.0426 64.7542C30.1332 62.6357 34.2029 58.3569 35.95 53.113C36.1059 52.6557 36 52.1462 35.5269 51.9327C35.1382 51.7485 34.4901 51.8876 34.3466 52.3558Z" fill="#6E3B46"/>
</svg>
