<svg width="57" height="129" viewBox="0 0 57 129" fill="none" xmlns="http://www.w3.org/2000/svg">
<path d="M31.7317 108.711C25.9381 110.289 19.9506 111.881 13.9904 111.135C8.02501 110.394 2.02041 106.712 0.489144 100.987C-1.21238 94.6161 2.87191 88.341 5.70044 82.3656C7.98609 77.545 9.54214 72.1777 8.65806 66.9313C7.80544 61.8867 4.80235 57.495 2.5686 52.8769C0.334859 48.2588 -1.13522 42.72 1.14193 38.1252C2.40823 35.5602 4.69034 33.639 6.36953 31.3128C10.1025 26.1553 10.6478 19.4835 12.3897 13.3849C14.1316 7.28627 18.1589 0.829903 24.542 0.0717002C32.3982 -0.858971 38.3168 7.43954 39.552 15.1386C40.7871 22.8376 39.3658 30.9419 41.9102 38.3232C43.9594 44.2693 48.3576 49.0822 51.8926 54.3067C55.4276 59.5312 58.2146 65.9416 56.4605 71.9743C55.5009 75.2764 53.2755 78.0864 52.1242 81.3329C50.1285 86.9631 51.5704 93.2993 49.8889 99.0292C47.1533 108.348 35.2195 113.797 26.2327 109.832" fill="#7A9756"/>
<path d="M25.1564 32.4719C25.4066 38.7024 25.6011 44.9275 25.7337 51.1605C25.8672 57.3844 25.949 63.6081 25.9649 69.8345C25.9858 76.0568 25.945 82.287 25.8534 88.5077C25.7618 94.7284 25.6037 101.003 25.3926 107.244C25.1833 113.468 24.9089 119.685 24.5829 125.901C24.5431 126.674 24.5034 127.447 24.4585 128.225C24.4074 129.159 25.8773 129.3 25.9284 128.366C26.2707 122.128 26.5571 115.885 26.7827 109.64C27.0082 103.395 27.1727 97.1491 27.2856 90.9027C27.3986 84.6563 27.4459 78.362 27.444 72.0906C27.4351 65.8417 27.3746 59.5925 27.2522 53.3511C27.1317 47.0915 26.9502 40.8306 26.712 34.5735C26.6816 33.7982 26.6511 33.0229 26.6207 32.2476C26.6034 31.8574 26.1374 31.586 25.7747 31.6435C25.345 31.7131 25.1483 32.0826 25.1606 32.4769L25.1564 32.4719Z" fill="#6E3B46"/>
<path d="M16.5482 55.4734C18.522 58.5587 20.9739 61.3248 23.7792 63.7041C24.5713 64.377 25.3959 65.0069 26.2419 65.611C26.5533 65.8307 27.0532 65.7633 27.2689 65.4372C27.4847 65.1112 27.4264 64.6616 27.093 64.4259C26.3523 63.8967 25.6278 63.3458 24.9247 62.7693C24.5866 62.487 24.2536 62.2006 23.9215 61.9049C23.8442 61.8327 23.766 61.7697 23.6887 61.6975C23.7054 61.7177 23.5164 61.5422 23.5895 61.6094C23.65 61.6615 23.5289 61.5573 23.5163 61.5422C23.344 61.3869 23.1727 61.2223 23.0055 61.0628C21.7074 59.8138 20.504 58.463 19.4164 57.0355C18.8013 56.2363 18.2219 55.4081 17.6825 54.556C17.4751 54.2354 16.9133 54.2182 16.6406 54.4555C16.3109 54.7475 16.3146 55.1318 16.5379 55.4816L16.5482 55.4734Z" fill="#6E3B46"/>
<path d="M33.2142 78.5388C31.405 81.0375 29.5968 83.527 27.7876 86.0257C27.2701 86.7389 26.7527 87.4521 26.2301 88.1694C26.0068 88.4762 26.075 88.9684 26.406 89.1807C26.737 89.393 27.1936 89.3353 27.433 89.0069C29.2422 86.5082 31.0505 84.0186 32.8597 81.5199C33.3772 80.8067 33.8946 80.0936 34.4173 79.3763C34.6405 79.0694 34.5723 78.5772 34.2414 78.365C33.9104 78.1527 33.4537 78.2104 33.2142 78.5388Z" fill="#6E3B46"/>
</svg>
