<svg width="100" height="100" viewBox="0 0 100 100" fill="none" xmlns="http://www.w3.org/2000/svg">
<circle cx="50" cy="50.001" r="48" stroke="#9CCD5A" stroke-width="3" stroke-linecap="round" stroke-dasharray="1 8"/>
<mask id="mask0_4051_7814" style="mask-type:alpha" maskUnits="userSpaceOnUse" x="20" y="20" width="60" height="61">
<rect x="20" y="20.001" width="60" height="60" fill="#D9D9D9"/>
</mask>
<g mask="url(#mask0_4051_7814)">
<path d="M65.6605 63.0581L56.7717 54.1548C56.5767 53.9598 56.3167 53.846 56.0405 53.8298L51.7667 53.586C51.1005 53.5373 50.548 54.0898 50.5967 54.756L50.8405 59.0298C50.8567 59.306 50.9705 59.566 51.1655 59.761L60.0705 68.666L65.6605 63.0581Z" fill="#0E8347"/>
<path d="M68.1792 65.5785L67.383 64.7822L61.793 70.3885L62.5892 71.1847C63.3692 71.9647 64.3767 72.3385 65.3842 72.3385C66.3917 72.3385 67.3992 71.9647 68.1792 71.1847C69.7392 69.6247 69.7392 67.1222 68.1792 65.5785Z" fill="#0E8347"/>
<path d="M61.55 27.001H36.7688C33.5838 27.001 31 29.5847 31 32.7697V64.5547C31 67.7397 33.5838 70.3235 36.7688 70.3235H58.2821L49.4421 61.4851C48.8246 60.8644 48.4574 60.0437 48.407 59.1695L48.1632 54.8957C48.095 53.9581 48.4363 52.988 49.1009 52.273C49.7671 51.558 50.708 51.1469 51.6846 51.1469L56.1794 51.3971C57.0536 51.4475 57.8742 51.8131 58.4917 52.4274L67.3171 61.269V32.7697C67.3187 29.5847 64.735 27.001 61.55 27.001ZM45.625 63.0272H38.2475C37.4399 63.0272 36.785 62.3724 36.785 61.5647C36.785 60.7571 37.4399 60.1022 38.2475 60.1022H45.625C46.4326 60.1022 47.0875 60.7571 47.0875 61.5647C47.0875 62.3724 46.4326 63.0272 45.625 63.0272ZM36.785 52.9035C36.785 52.0958 37.4399 51.441 38.2475 51.441H45.04C45.8476 51.441 46.5025 52.0958 46.5025 52.9035C46.5025 53.7111 45.8476 54.366 45.04 54.366H38.2475C37.4399 54.366 36.785 53.7111 36.785 52.9035ZM59.912 45.708H38.254C37.4464 45.708 36.7915 45.0531 36.7915 44.2455C36.7915 43.4379 37.4464 42.783 38.254 42.783H59.912C60.7196 42.783 61.3745 43.4379 61.3745 44.2455C61.3745 45.0531 60.7196 45.708 59.912 45.708ZM59.912 37.0451H38.254C37.4464 37.0451 36.7915 36.3902 36.7915 35.5826C36.7915 34.775 37.4464 34.1201 38.254 34.1201H59.912C60.7196 34.1201 61.3745 34.775 61.3745 35.5826C61.3745 36.3902 60.7196 37.0451 59.912 37.0451Z" fill="#9CCD5A"/>
</g>
</svg>
