<svg width="1920" height="254" viewBox="0 0 1920 254" fill="none" xmlns="http://www.w3.org/2000/svg">
<mask id="mask0_4206_1887" style="mask-type:alpha" maskUnits="userSpaceOnUse" x="0" y="0" width="1920" height="254">
<rect width="1920" height="254" fill="#D9D9D9"/>
</mask>
<g mask="url(#mask0_4206_1887)">
<path d="M481.5 114C229.1 115.2 84.5 154 0 177.5V336.5H1405.5C1202.67 261.834 733.9 112.8 481.5 114Z" fill="#9CCD5A" stroke="#9CCD5A"/>
<path d="M418.097 139.17L450.664 62.6445L486.937 113.89L426.009 138.828L418.097 139.17Z" fill="#FFD9A8"/>
<path d="M489.733 112.351L502.128 38.0378C502.533 35.6136 500.895 33.3207 498.471 32.9163L460.081 26.5131C457.657 26.1088 455.364 27.7462 454.96 30.1704L442.565 104.484C442.16 106.908 443.798 109.201 446.222 109.605L484.612 116.008C487.036 116.413 489.329 114.775 489.733 112.351Z" fill="#4F83C2"/>
<path d="M486.923 103.828L497.478 40.5419C497.812 38.5426 496.461 36.6515 494.462 36.3181L462.76 31.0304C460.761 30.6969 458.87 32.0473 458.536 34.0466L447.981 97.3323C447.647 99.3315 448.997 101.223 450.997 101.556L482.699 106.844C484.698 107.177 486.589 105.827 486.923 103.828Z" fill="#A7CEED"/>
<path d="M460.381 107.457C460.253 108.216 460.765 108.945 461.536 109.067L470.287 110.528C471.045 110.655 471.774 110.143 471.896 109.372C472.023 108.614 471.512 107.885 470.74 107.763L461.99 106.302C461.231 106.174 460.503 106.686 460.371 107.454L460.381 107.457Z" fill="#182138"/>
<mask id="mask1_4206_1887" style="mask-type:luminance" maskUnits="userSpaceOnUse" x="447" y="30" width="51" height="77">
<path d="M486.922 103.828L497.478 40.5419C497.811 38.5426 496.461 36.6515 494.462 36.3181L462.76 31.0304C460.76 30.6969 458.869 32.0473 458.536 34.0466L447.98 97.3323C447.647 99.3315 448.997 101.223 450.996 101.556L482.698 106.844C484.698 107.177 486.589 105.827 486.922 103.828Z" fill="white"/>
</mask>
<g mask="url(#mask1_4206_1887)">
<path d="M493.498 125.348L432.201 115.124C432.201 115.124 431.234 111.42 432.511 92.2925C433.166 82.4765 443.478 78.4714 450.18 77.892C460.598 77.0001 477.919 79.0702 487.196 82.9631C498.907 87.8766 500.009 102.208 498.575 107.521C498.575 107.521 495.07 125.863 493.498 125.348Z" fill="white"/>
</g>
<path d="M465.864 91.8291C466.529 93.6586 468.493 94.5619 469.988 93.3161C475.234 88.9076 481.818 82.2918 481.966 80.9579L483.359 68.5263C483.67 65.7138 479.442 65.4813 476.95 65.2048L468.91 64.3053C466.409 64.025 461.957 65.8407 461.646 68.6532L460.54 78.5655C460.403 79.7955 463.723 85.9568 465.873 91.8329L465.864 91.8291Z" fill="#FAB196"/>
<path d="M478.804 76.9144C473.843 80.2837 464.588 79.6315 461.049 69.5536C456.581 56.8138 459.469 46.2172 467.503 41.6552C475.532 37.1024 484.752 40.6586 489.305 48.6879C493.858 56.7172 486.436 71.723 478.795 76.9106L478.804 76.9144Z" fill="#FFAF8F"/>
<path d="M490.591 58.1979C486.313 57.5341 462.964 53.769 459.557 53.7759C458.812 53.773 458.571 40.9519 468.549 37.9447C478.519 34.9337 484.552 39.1711 487.801 42.3958C492.924 47.4812 490.587 58.2071 490.587 58.2071L490.591 58.1979Z" fill="white"/>
<path d="M470.46 48.068C469.999 50.8513 471.877 53.4919 474.66 53.953C477.444 54.4141 480.084 52.5359 480.545 49.7526C481.006 46.9693 479.128 44.3286 476.345 43.8676C473.562 43.4065 470.921 45.2847 470.46 48.068Z" fill="#4F83C2"/>
<path d="M475.688 52.3072L476.778 45.7676L475.318 45.5241L474.228 52.0637L475.688 52.3072Z" fill="white"/>
<path d="M478.645 50.1952L478.889 48.7354L472.349 47.6446L472.106 49.1044L478.645 50.1952Z" fill="white"/>
<path d="M472.09 71.598C475.277 72.1277 477.246 69.7254 477.841 68.3807C478.061 67.8979 477.84 67.3314 477.353 67.121C476.87 66.9013 476.313 67.1266 476.097 67.6001C476.048 67.7204 474.896 70.1336 472.398 69.714C469.809 69.2788 469.315 66.4276 469.304 66.4015C469.215 65.8789 468.732 65.5292 468.209 65.6174C467.687 65.7056 467.337 66.1891 467.425 66.7117C467.452 66.8846 468.162 70.9485 472.09 71.598Z" fill="#FC6158"/>
<path d="M451.965 94.3515C453.6 93.2926 454.695 94.8121 454.878 95.3411C455.389 94.6214 456.857 94.0996 457.793 95.2184C459.659 97.4652 454.529 99.6946 454.132 99.8991L454.124 99.9176C454.124 99.9176 454.124 99.9176 454.115 99.9138L454.111 99.923L454.119 99.9045C453.804 99.5916 449.918 95.7057 451.984 94.3591L451.965 94.3515Z" fill="#D32A17"/>
<path d="M404.871 141.93C405.697 140.442 406.524 138.955 407.351 137.467C408.192 135.943 409.058 134.385 409.478 132.676C410.255 129.493 409.266 125.844 406.861 123.96C404.456 122.077 400.733 122.3 398.619 124.686C397.133 126.357 396.583 128.725 396.082 130.974C395.813 132.182 395.548 133.381 395.279 134.59C394.809 136.71 394.358 139.021 395.176 140.979C395.878 142.639 397.403 143.719 399.027 144.212C400.642 144.702 402.363 144.695 404.048 144.673" fill="#6E3B46"/>
<path d="M407.365 128.318C407.36 128.251 407.355 128.184 407.35 128.117C407.08 128.222 403.154 125.909 401.504 126.269C401.401 126.995 400.445 130.299 400.412 129.799C400.348 129.773 400.274 129.742 400.209 129.716C399.569 129.561 398.931 129.959 398.78 130.589C398.63 131.219 399.024 131.867 399.657 132.008C399.835 132.048 400.001 132.041 400.164 132.011C400.164 132.011 399.571 135.723 399.553 135.845C399.326 137.32 400.348 138.701 401.823 138.928C403.297 139.154 404.678 138.132 404.905 136.658C404.919 136.545 405.155 134.837 405.155 134.837C406.634 134.579 407.071 133.169 407.081 131.855C407.091 130.54 407.347 128.31 407.347 128.31L407.365 128.318Z" fill="#FFAF8F"/>
<path d="M394.629 159.594C394.052 155.758 394.036 151.741 394.034 151.719C393.977 150.593 393.025 149.726 391.899 149.783C390.773 149.84 389.907 150.793 389.963 151.918C389.96 151.928 389.961 151.95 389.967 151.963C390.009 154.758 391.126 160.545 391.126 160.545C391.381 161.504 392.375 162.085 393.337 161.82C394.296 161.565 394.877 160.571 394.612 159.609L394.629 159.594Z" fill="#FFAF8F"/>
<path d="M395.513 162.075C395.429 161.674 394.989 160.455 394.638 159.598C394.383 158.639 393.389 158.058 392.427 158.323C391.477 158.582 390.908 159.548 391.144 160.499C391.144 160.499 391.467 162.242 391.96 163.622C392.596 165.364 393.106 165.098 393.106 165.098C393.106 165.098 393.477 165.747 393.878 165.48C393.878 165.48 394.258 166.003 394.553 165.627C394.553 165.627 395.468 166.11 394.993 164.975C394.568 163.958 394.362 162.457 394.561 162.182C394.761 161.907 394.933 162.832 395.291 163.065C395.649 163.299 395.615 162.485 395.519 162.088L395.513 162.075Z" fill="#FFAF8F"/>
<path d="M398.398 140.214C398.332 138.846 397.177 137.789 395.819 137.858C395.765 137.858 395.707 137.867 395.65 137.876C395.265 137.891 394.9 138.043 394.546 138.298C394.44 138.374 394.343 138.453 394.242 138.541C391.611 140.921 389.679 148.948 390.009 151.991C390.009 151.991 389.994 152.212 390.002 152.323C390.061 153.471 391.023 154.342 392.158 154.289C393.217 154.237 394.058 153.371 394.11 152.323C395.165 146.67 398.013 141.677 398.013 141.677C398.273 141.254 398.415 140.751 398.398 140.214Z" fill="#FA835F"/>
<path d="M421.152 145.93C417.633 147.577 413.795 148.737 413.769 148.748C412.707 149.123 412.157 150.281 412.522 151.339C412.897 152.4 414.055 152.951 415.113 152.585C415.122 152.589 415.139 152.574 415.152 152.569C417.821 151.729 423.041 149.018 423.041 149.018C423.894 148.492 424.156 147.379 423.64 146.529C423.124 145.68 422.001 145.413 421.152 145.93Z" fill="#FFAF8F"/>
<path d="M423.278 144.381C422.926 144.582 421.87 145.338 421.151 145.93C420.298 146.455 420.036 147.569 420.552 148.418C421.072 149.259 422.159 149.532 423.005 149.025C423.005 149.025 424.591 148.217 425.768 147.349C427.256 146.251 426.853 145.837 426.853 145.837C426.853 145.837 427.374 145.305 426.996 144.988C426.996 144.988 427.389 144.479 426.941 144.306C426.941 144.306 427.143 143.286 426.184 144.071C425.334 144.771 423.955 145.394 423.632 145.283C423.31 145.173 424.153 144.751 424.27 144.334C424.387 143.918 423.627 144.189 423.265 144.387L423.278 144.381Z" fill="#FFAF8F"/>
<path d="M406.44 139.688C406.329 138.323 407.339 137.127 408.69 137.022C408.748 137.013 408.801 137.014 408.865 137.018C409.234 136.986 409.614 137.088 410.002 137.301C410.119 137.36 410.231 137.428 410.34 137.505C413.253 139.521 416.204 147.239 416.279 150.297C416.279 150.297 416.318 150.518 416.326 150.63C416.42 151.771 415.555 152.615 414.447 152.864C412.594 153.271 411.673 150.958 411.48 149.927C409.701 144.463 407.008 141.121 407.008 141.121L407.012 141.111C406.692 140.732 406.481 140.245 406.432 139.706L406.44 139.688Z" fill="#FA835F"/>
<path d="M409.081 142.577C409.081 142.577 409.478 139.184 409.378 136.873C409.378 136.873 407.185 136.395 404.929 136.441C404.929 136.441 404.669 137.837 402.274 138.011C399.876 138.14 399.577 136.786 399.577 136.786C397.336 137.033 395.078 137.793 395.078 137.793C395.277 140.101 396.111 143.416 396.111 143.416C394.98 146.595 396.811 147.876 396.811 147.876L397.252 156.153L403.431 156.634L403.427 156.644L403.494 156.639L403.557 156.643L403.561 156.634L409.623 155.349L408.981 147.087C408.981 147.087 410.627 145.578 409.103 142.575L409.081 142.577Z" fill="#FA835F"/>
<path d="M425.411 165.263C426.681 164.195 426.858 162.29 425.781 161.016C424.713 159.745 422.807 159.569 421.533 160.646C421.533 160.646 412.474 168.894 412.429 168.951C412.363 169.032 411.633 170.073 411.79 170.245C411.618 171.137 411.905 172.098 412.635 172.743C413.394 173.422 414.429 173.587 415.325 173.274C415.391 173.323 416.307 172.672 416.427 172.537C416.506 172.451 425.407 165.272 425.407 165.272L425.411 165.263Z" fill="#FFD9A8"/>
<path d="M422.19 166.58L425.424 165.258C426.694 164.191 426.871 162.285 425.794 161.011C424.726 159.74 422.821 159.564 421.546 160.641L417.877 162.681C417.877 162.681 419.567 164.963 422.19 166.58Z" fill="#FFD9A8"/>
<path d="M403.171 153.554C400.029 153.757 397.04 153.374 397.04 153.374C397.04 153.374 396.621 156.477 396.567 157.319C396.498 158.383 396.585 160.385 396.585 160.385C396.676 161.796 397.535 163.099 398.705 163.515L402.966 163.695L403.742 163.647L403.956 163.626L404.978 163.559L409.18 162.829C410.276 162.264 410.97 160.862 410.879 159.452C410.879 159.452 410.722 157.885 410.482 156.414C410.252 154.947 409.418 152.659 409.418 152.659C409.418 152.659 406.304 153.348 403.171 153.554Z" fill="#FFD9A8"/>
<path d="M416.592 172.4L415.064 174.043L414.219 177.631L410.26 171.445L412.611 168.745L416.592 172.4Z" fill="#6E3B46"/>
<path d="M408.129 163.468C406.43 163.182 405.284 161.577 405.561 159.875C405.847 158.176 407.452 157.03 409.155 157.307C408.042 157.12 422.613 159.781 423.907 159.998C425.546 160.271 426.658 161.83 426.385 163.469C426.115 165.076 425.663 163.226 424.045 163.244L422.444 164.749C406.254 164.375 407.048 163.284 408.119 163.465L408.129 163.468Z" fill="#FFD9A8"/>
<path d="M417.181 166.275C418.431 165.177 417.593 165.298 416.682 163.908C415.775 162.509 413.903 162.119 412.513 163.03C412.513 163.03 402.648 171.24 402.594 171.293C402.514 171.357 401.679 172.312 401.809 172.495C401.538 173.367 401.709 174.346 402.347 175.083C403.018 175.845 404.031 176.142 404.952 175.925C405.015 175.983 405.993 175.444 406.141 175.321C406.225 175.247 417.181 166.275 417.181 166.275Z" fill="#FFD9A8"/>
<path d="M412.56 170.108L417.185 166.266C418.435 165.168 417.596 165.289 416.686 163.899C415.779 162.5 413.907 162.111 412.517 163.021L408.744 165.71C408.744 165.71 410.152 168.179 412.564 170.099L412.56 170.108Z" fill="#FFD9A8"/>
<path d="M406.303 175.215L404.595 176.665L403.327 180.123L400.14 173.507L402.8 171.108L406.303 175.215Z" fill="#6E3B46"/>
<path d="M398.87 164.22C397.211 163.734 396.27 161.997 396.752 160.346C397.239 158.687 398.976 157.746 400.626 158.228C399.535 157.91 413.701 162.296 414.953 162.669C416.553 163.142 418.354 162.811 418.122 164.456C417.892 166.069 416.424 167.197 414.819 167.025C398.795 164.719 397.825 163.921 398.87 164.22Z" fill="#FFD9A8"/>
<path opacity="0.35" d="M405.138 134.851C405.138 134.851 404.396 135 403.456 134.788L404.901 136.483L405.138 134.851Z" fill="#FC6158"/>
<path opacity="0.35" d="M405.698 131.406C405.733 131.636 406.04 131.784 406.382 131.74C406.724 131.697 406.981 131.467 406.945 131.237C406.91 131.006 406.603 130.858 406.261 130.902C405.919 130.945 405.663 131.175 405.698 131.406Z" fill="#FC6158"/>
<path opacity="0.35" d="M401.845 130.549C401.758 130.762 401.954 131.048 402.281 131.171C402.609 131.295 402.935 131.213 403.022 131C403.109 130.787 402.913 130.501 402.585 130.378C402.258 130.254 401.932 130.336 401.845 130.549Z" fill="#FC6158"/>
<path d="M412.266 151.147C412.266 151.147 413.038 154.48 418.064 151.451L416.923 147.751L413.554 148.508L412.266 151.147Z" fill="#FA835F"/>
<path d="M394.187 154.981L390.104 155.791C390.104 155.791 389.891 152.569 390.137 150.757L394.034 151.718L394.183 154.99L394.187 154.981Z" fill="#FA835F"/>
<path d="M408.337 129.03C406.177 129.236 403.954 128.702 402.131 127.532C401.575 127.174 401.006 126.638 401.101 125.985C401.217 125.255 402.117 124.932 402.854 125.007C403.59 125.083 404.301 125.407 405.036 125.352" fill="#6E3B46"/>
<path d="M425.725 138.737L417.263 139.286C416.718 139.322 416.22 139.798 416.158 140.346L414.568 153.151C414.502 153.707 414.882 154.123 415.427 154.087L423.889 153.538C424.433 153.502 424.931 153.025 424.994 152.478L426.584 139.673C426.65 139.117 426.269 138.701 425.725 138.737Z" fill="white"/>
<path d="M402.261 204.175L416.013 202.035L423.956 205.964L407.743 206.543L402.261 204.175Z" fill="#6B3644"/>
<path d="M421.644 204.724L417.137 200.508L402.764 202.317L406.581 206.056L421.644 204.724Z" fill="#FFD08F"/>
<g style="mix-blend-mode:soft-light" opacity="0.5">
<path d="M421.644 204.724L417.137 200.508L402.764 202.317L406.581 206.056L421.644 204.724Z" fill="black"/>
</g>
<path d="M422.386 206.92L422.735 197.033L404.924 199.636L406.581 206.056L407.743 206.544L406.84 200.92L421.373 199.036L421.557 206.386L422.386 206.92Z" fill="#FFD08F"/>
<path opacity="0.28" d="M424.555 213.409C425.455 210.925 427.499 205.97 428.051 204.651C428.139 204.438 428.139 204.201 428.052 203.992L426.886 201.222C426.804 201.026 426.797 200.807 426.867 200.609L427.288 199.398C427.425 199.011 427.264 198.588 426.907 198.377C426.453 198.115 425.876 198.31 425.674 198.801L425.169 200.031C425.091 200.248 424.925 200.417 424.716 200.504L422.498 201.432C422.276 201.525 422.105 201.703 422.02 201.938C421.393 203.703 418.648 211.472 418.194 212.842C417.686 214.396 417.575 214.642 418.05 214.826C418.522 215.02 418.78 213.839 419.251 214.033C419.723 214.226 419.177 215.321 419.745 215.543C420.309 215.775 420.923 214.805 421.386 214.995C421.858 215.189 421.366 216.414 422.036 216.678C422.693 216.947 423.508 216.277 424.55 213.396L424.555 213.409Z" fill="white"/>
<path opacity="0.28" d="M422.476 215.605C422.143 215.468 422.357 214.551 421.682 214.274C421.099 214.034 420.585 214.786 420.211 214.697C419.837 214.608 420.056 213.52 419.631 213.346C419.187 213.163 418.881 213.881 418.465 213.71C418.215 213.608 422.191 203.76 422.751 202.185C422.762 202.157 422.779 202.142 422.792 202.137L425.165 201.121C425.165 201.121 426.127 201.516 426.163 201.509L427.329 204.279C427.329 204.279 427.332 204.324 427.324 204.342C426.736 205.776 424.713 210.653 423.813 213.137C423.125 215.05 422.8 215.738 422.467 215.601L422.476 215.605Z" fill="#4291EB"/>
<path d="M427.349 204.731L422.39 202.642L420.13 208.968L424.88 210.668L427.349 204.731Z" fill="white"/>
<path d="M423.587 208.051L421.414 207.181L422.808 203.678L425.083 204.59L423.587 208.051Z" fill="#FA835F"/>
<path d="M426.796 197.952L427.046 198.052C427.418 198.2 427.602 198.629 427.453 199L427.309 199.363L425.702 198.721L425.847 198.359C425.995 197.987 426.424 197.803 426.796 197.952Z" fill="#FA835F"/>
<path d="M418.637 207.284C418.698 204.185 416.234 201.629 413.148 201.562C410.05 201.501 407.493 203.965 407.426 207.051C407.366 210.15 409.829 212.707 412.915 212.773C416.014 212.834 418.571 210.37 418.637 207.284Z" fill="#D2ECFA"/>
<path d="M416.684 207.25C416.726 205.224 415.118 203.559 413.092 203.517C411.066 203.475 409.401 205.083 409.359 207.109C409.317 209.135 410.925 210.8 412.951 210.842C414.977 210.884 416.642 209.276 416.684 207.25Z" fill="#A7CEED"/>
<path d="M414.593 209.052L420.298 201.891L425.275 210.257L414.593 209.052Z" fill="#EDF5FA"/>
<path d="M411.197 209.084L415.593 203.613L421.047 211.105L411.197 209.084Z" fill="white"/>
<path d="M415.174 220.412L405.187 213.59L402.262 204.175L413.155 208.764L415.174 220.412Z" fill="#FFD08F"/>
<g style="mix-blend-mode:soft-light" opacity="0.5">
<path d="M415.174 220.412L405.187 213.59L402.262 204.175L413.155 208.764L415.174 220.412Z" fill="black"/>
</g>
<path d="M429.051 219.837L415.174 220.412L413.155 208.764L430.62 207.715L429.051 219.837Z" fill="#FFD08F"/>
<g style="mix-blend-mode:soft-light">
<path d="M413.155 208.764L402.259 204.26L413.365 209.78L425.319 208.069L413.155 208.764Z" fill="white"/>
</g>
<g style="mix-blend-mode:soft-light">
<path d="M407.529 201.796L417.046 200.967L419.501 202.807L417.137 200.507L407.529 201.796Z" fill="white"/>
</g>
<g style="mix-blend-mode:soft-light" opacity="0.5">
<path d="M405.495 202.01L402.765 202.317L406.581 206.055L403.923 202.576L405.603 202.249" fill="black"/>
</g>
<path d="M496.725 152.848L447.092 197.229L471.69 217.548L520.234 170.342L496.725 152.848Z" fill="#A7CEED"/>
<path d="M504.827 168.613C506.906 172.028 508.479 175.808 508.479 175.808L508.518 175.792C508.518 175.792 508.54 175.844 508.551 175.87C509.05 176.918 510.307 177.358 511.355 176.859C512.403 176.359 512.843 175.102 512.344 174.054C512.338 174.041 512.333 174.028 512.328 174.015C511.162 171.375 507.79 166.317 507.79 166.317C507.161 165.507 505.992 165.352 505.169 165.987C504.36 166.617 504.292 167.702 504.84 168.608L504.827 168.613Z" fill="#FAB196"/>
<path d="M496.254 174.726C495.013 175.406 494.554 176.947 495.228 178.175C495.259 178.231 495.285 178.274 495.319 178.321L495.316 178.33C495.502 178.666 495.801 178.94 496.198 179.157C496.311 179.225 496.44 179.278 496.56 179.327C499.954 180.698 508.282 178.894 510.965 177.228C510.965 177.228 511.183 177.145 511.282 177.088C512.316 176.518 512.705 175.229 512.144 174.199C511.619 173.238 510.442 172.841 509.442 173.274C503.715 174.826 497.796 174.419 497.796 174.419L497.792 174.428C497.277 174.368 496.745 174.452 496.254 174.726Z" fill="#FAB196"/>
<path d="M504.045 174.021C500.601 174.197 497.876 171.565 496.098 172.63C494.883 173.353 494.66 176.45 495.27 177.705C495.291 177.758 495.326 177.804 495.357 177.86C495.527 178.211 495.812 178.49 496.202 178.726C496.315 178.794 493.223 179.849 493.343 179.898C494.861 180.597 501.798 179.919 504.415 179.653C504.415 179.653 504.738 176.943 504.049 174.012L504.045 174.021Z" fill="#FFFEF3"/>
<path d="M498.113 162.216C497.747 162.001 496.688 161.21 495.965 160.6C495.099 160.05 494.844 158.907 495.394 158.041C495.94 157.184 497.06 156.931 497.915 157.454C497.915 157.454 499.521 158.308 500.715 159.219C502.222 160.367 501.8 160.789 501.8 160.789C501.8 160.789 502.317 161.347 501.937 161.667C501.937 161.667 502.336 162.197 501.864 162.372C501.864 162.372 502.05 163.421 501.088 162.604C500.231 161.874 498.827 161.212 498.49 161.322C498.162 161.436 499.007 161.88 499.124 162.306C499.232 162.729 498.461 162.445 498.096 162.23L498.113 162.216Z" fill="#FAB196"/>
<path d="M495.714 160.421C492.286 158.344 488.519 156.777 488.519 156.777L488.534 156.74C488.534 156.74 488.488 156.721 488.46 156.709C487.414 156.204 486.975 154.954 487.471 153.904C487.976 152.857 489.226 152.419 490.277 152.915C490.295 152.922 490.304 152.926 490.314 152.93C492.952 154.088 498.023 157.455 498.023 157.455C498.836 158.081 498.991 159.258 498.356 160.067C497.731 160.881 496.642 160.953 495.744 160.401L495.714 160.421Z" fill="#FAB196"/>
<path d="M497.621 162.727C497.083 161.695 497.085 160.399 497.645 159.375C498.197 158.348 499.278 157.635 500.44 157.517C500.97 157.464 501.559 157.555 501.933 157.935C502.307 158.315 502.36 159.029 501.926 159.348C502.587 159.555 503.295 159.542 503.971 159.712C504.638 159.877 505.329 160.301 505.49 160.962C505.657 161.636 504.968 162.445 504.337 162.164C505.112 162.569 505.814 163.149 506.222 163.921C506.629 164.694 506.689 165.68 506.251 166.43C505.814 167.18 504.815 167.613 504.006 167.292C504.348 168.514 503.593 169.933 502.393 170.327C502.043 170.443 501.669 170.484 501.306 170.476C500.349 170.462 499.362 170.154 498.722 169.448C498.086 168.733 497.911 167.58 498.473 166.816" fill="#182138"/>
<path d="M489.603 168.992C488.933 170.231 487.38 170.696 486.151 170.03C486.095 170.007 486.047 169.965 486.005 169.937C485.659 169.752 485.385 169.445 485.177 169.057C485.106 168.941 485.047 168.82 485.002 168.693C483.624 165.307 485.425 156.966 487.096 154.29C487.096 154.29 487.184 154.078 487.229 153.967C487.794 152.933 489.088 152.546 490.112 153.106C491.074 153.631 491.467 154.808 491.048 155.804C489.496 161.534 489.914 167.444 489.914 167.444L489.91 167.454C489.961 167.961 489.88 168.501 489.607 168.983L489.603 168.992Z" fill="#FAB196"/>
<path d="M490.305 161.195C490.126 164.635 493.141 168.088 492.076 169.867C491.351 171.082 487.879 170.587 486.627 169.976C486.571 169.953 486.52 169.921 486.468 169.889C486.115 169.723 485.837 169.425 485.593 169.044C485.522 168.928 484.475 172.033 484.42 171.903C483.724 170.385 484.388 163.448 484.66 160.835C484.66 160.835 487.366 160.508 490.296 161.192L490.305 161.195Z" fill="#FFFEF3"/>
<path d="M479.975 182.077L482.514 184.556L482.562 184.597L485.101 187.077L487.673 189.58L484.998 192.331C484.144 193.202 482.767 193.502 481.65 193.011L477.491 191.186L476.795 190.511L476.747 190.47C476.293 190.024 475.913 189.5 475.641 188.924L474.123 185.696C473.602 184.596 473.87 183.204 474.716 182.329L477.39 179.578L479.962 182.082L479.975 182.077Z" fill="#4F83C2"/>
<path d="M468.95 197.961C468.465 196.562 466.943 195.818 465.545 196.304C464.146 196.789 463.402 198.311 463.888 199.71C463.922 199.81 463.96 199.902 464.002 199.984L464.567 201.61L462.378 203.706L470.015 201.056L468.969 197.968C468.969 197.968 468.958 197.942 468.962 197.933L468.95 197.961Z" fill="#1C1316"/>
<path d="M461.614 187.838C461.614 187.838 476.53 188.576 476.647 188.581C478.375 188.663 479.851 187.333 479.933 185.605C480.015 183.877 478.685 182.402 476.957 182.32C476.894 182.315 462.252 181.831 462.252 181.831C462.139 181.817 462.026 181.803 461.922 181.793C460.247 181.711 458.832 183 458.754 184.665C458.669 186.295 459.903 187.687 461.523 187.823L461.631 187.824L461.614 187.838Z" fill="#4F83C2"/>
<path d="M460.891 182.592C459.303 183.118 458.439 184.828 458.965 186.417L464.245 201.078C467.276 200.539 469.48 199.357 469.48 199.357L464.713 184.527C464.186 182.938 462.476 182.074 460.897 182.605L460.891 182.592Z" fill="#4F83C2"/>
<path d="M463.678 213.946C464.716 212.891 464.701 211.188 463.643 210.159C462.588 209.121 460.885 209.136 459.856 210.194C459.785 210.262 459.719 210.344 459.653 210.425L458.444 211.658L455.588 210.637L461.363 216.293L463.653 213.979C463.653 213.979 463.661 213.961 463.674 213.955L463.678 213.946Z" fill="#1C1316"/>
<path d="M473.965 203.942C473.965 203.942 484.312 193.163 484.387 193.085C485.581 191.835 485.541 189.851 484.29 188.657C483.04 187.463 481.056 187.503 479.862 188.754C479.821 188.801 469.848 199.539 469.848 199.539C469.764 199.613 469.68 199.687 469.601 199.773C468.448 200.976 468.483 202.892 469.695 204.049C470.873 205.181 472.729 205.164 473.896 204.032L473.971 203.955L473.965 203.942Z" fill="#4F83C2"/>
<path d="M473.841 199.871C472.663 198.685 470.756 198.67 469.561 199.844L458.789 211.108C460.618 213.577 462.663 215.021 462.663 215.021L473.818 204.142C475.004 202.964 475.019 201.057 473.845 199.861L473.841 199.871Z" fill="#4F83C2"/>
<path d="M503.176 163.915L503.186 163.919L503.172 163.924L503.176 163.915Z" fill="#FFBA9A"/>
<path d="M497.881 160.856C497.932 160.812 497.979 160.777 498.025 160.742C498.116 160.995 498.292 161.251 498.483 161.524C499.248 162.584 500.646 163.049 501.374 164.408C500.932 164.907 500.485 165.416 500.043 165.915C499.977 165.996 499.915 166.122 499.996 166.188C500.038 166.216 500.105 166.211 500.157 166.189C500.267 166.158 500.381 166.118 500.5 166.092C500.162 166.256 499.581 166.644 499.716 166.894C499.835 167.105 500.606 166.86 500.98 166.581C501.045 166.607 501.11 166.634 501.154 166.684C501.637 167.034 501.746 167.717 501.387 168.196C501.038 168.68 500.359 168.779 499.875 168.43C499.743 168.332 499.64 168.214 499.567 168.076L497.452 170.516C497.392 170.61 497.326 170.691 497.257 170.782C496.356 171.817 494.786 171.93 493.75 171.029C492.715 170.129 492.602 168.558 493.503 167.523C493.569 167.442 493.64 167.373 493.72 167.309L494.624 166.264C493.922 165.079 494.653 163.93 495.568 163.149C496.483 162.368 497.878 160.865 497.878 160.865L497.881 160.856Z" fill="#FAB196"/>
<path opacity="0.35" d="M494.625 166.265C494.625 166.265 494.95 166.841 495.633 167.338L493.683 167.348L494.625 166.265Z" fill="#FC6158"/>
<path d="M485.145 166.158C485.727 165.478 486.588 165.172 487.415 165.263C489.385 165.282 491.721 166.543 493.372 167.631C493.372 167.631 493.059 169.157 494.381 170.283C494.381 170.283 494.399 170.29 494.405 170.304C494.414 170.307 494.423 170.311 494.432 170.315C495.754 171.441 497.211 170.893 497.211 170.893C498.548 172.35 501.101 173.505 501.438 175.449C501.659 176.253 500.549 178.089 499.973 178.782C499.746 179.045 499.475 179.258 499.186 179.41L494.684 180.871L487.462 189.516C487.462 189.516 485.379 188.77 481.512 185.497C481.512 185.497 481.494 185.489 481.479 185.472C481.47 185.468 481.461 185.465 481.446 185.448C477.596 182.16 476.532 180.221 476.532 180.221L483.926 171.711L484.645 167.034C484.743 166.717 484.909 166.418 485.136 166.154L485.145 166.158Z" fill="#FFFEF3"/>
<path opacity="0.35" d="M496.551 164.018C496.357 164.122 496.069 163.982 495.908 163.689C495.747 163.396 495.769 163.08 495.966 162.967C496.16 162.863 496.449 163.003 496.61 163.296C496.771 163.589 496.749 163.904 496.551 164.018Z" fill="#FC6158"/>
<path opacity="0.35" d="M499.418 166.437C499.297 166.626 498.979 166.636 498.697 166.455C498.414 166.274 498.285 165.983 498.406 165.795C498.526 165.607 498.844 165.597 499.126 165.777C499.409 165.958 499.538 166.249 499.418 166.437Z" fill="#FC6158"/>
<path d="M516.583 182.268L516.814 185.919C516.911 187.343 518.135 188.418 519.563 188.334C520.684 188.264 521.577 187.484 521.873 186.471L522.771 186.418C523.771 186.352 524.536 185.488 524.47 184.489C524.405 183.489 523.541 182.724 522.541 182.789L521.809 182.834L521.752 181.946L516.598 182.285L516.583 182.268ZM522.71 185.485L521.978 185.53L521.859 183.741L522.591 183.696C523.081 183.659 523.509 184.04 523.545 184.53C523.582 185.021 523.201 185.448 522.71 185.485Z" fill="white"/>
<path d="M153.484 172.26C149.927 173.251 146.25 174.251 142.591 173.783C138.928 173.317 135.241 171.005 134.3 167.41C133.256 163.41 135.763 159.47 137.5 155.718C138.904 152.691 139.859 149.321 139.316 146.027C138.793 142.859 136.949 140.102 135.577 137.202C134.206 134.302 133.303 130.824 134.701 127.939C135.479 126.329 136.88 125.122 137.911 123.662C140.203 120.423 140.538 116.234 141.608 112.404C142.677 108.575 145.15 104.521 149.07 104.045C153.894 103.461 157.528 108.671 158.286 113.506C159.045 118.34 158.172 123.429 159.734 128.063C160.993 131.797 163.693 134.819 165.864 138.1C168.034 141.38 169.746 145.405 168.669 149.193C168.079 151.267 166.713 153.031 166.006 155.07C164.781 158.605 165.666 162.583 164.634 166.181C162.954 172.032 155.626 175.454 150.108 172.964" fill="#7A9756"/>
<path d="M149.447 124.389C149.601 128.301 149.72 132.21 149.801 136.124C149.883 140.032 149.934 143.94 149.943 147.85C149.956 151.757 149.931 155.669 149.875 159.575C149.819 163.481 149.722 167.42 149.592 171.34C149.463 175.247 149.295 179.151 149.095 183.054C149.07 183.54 149.046 184.025 149.018 184.513C148.987 185.1 149.89 185.189 149.921 184.602C150.131 180.685 150.307 176.765 150.445 172.844C150.584 168.923 150.685 165.001 150.754 161.078C150.824 157.156 150.853 153.204 150.852 149.266C150.846 145.342 150.809 141.419 150.734 137.5C150.66 133.569 150.548 129.638 150.402 125.709C150.383 125.222 150.365 124.735 150.346 124.248C150.335 124.004 150.049 123.833 149.827 123.869C149.563 123.913 149.442 124.145 149.449 124.392L149.447 124.389Z" fill="#6E3B46"/>
<path d="M144.161 138.832C145.373 140.769 146.879 142.506 148.601 144C149.088 144.423 149.594 144.818 150.113 145.198C150.305 145.336 150.612 145.293 150.744 145.088C150.877 144.884 150.841 144.601 150.636 144.453C150.181 144.121 149.736 143.775 149.305 143.413C149.097 143.236 148.893 143.056 148.689 142.871C148.641 142.825 148.593 142.786 148.546 142.74C148.556 142.753 148.44 142.643 148.485 142.685C148.522 142.718 148.448 142.652 148.44 142.643C148.334 142.545 148.229 142.442 148.126 142.342C147.329 141.558 146.59 140.709 145.922 139.813C145.545 139.311 145.189 138.791 144.858 138.256C144.73 138.055 144.385 138.044 144.218 138.193C144.015 138.376 144.018 138.618 144.155 138.837L144.161 138.832Z" fill="#6E3B46"/>
<path d="M154.395 153.315C153.284 154.884 152.173 156.447 151.063 158.016C150.745 158.464 150.427 158.912 150.106 159.362C149.969 159.555 150.011 159.864 150.214 159.997C150.417 160.13 150.698 160.094 150.845 159.888C151.956 158.319 153.066 156.756 154.177 155.187C154.495 154.739 154.813 154.291 155.133 153.841C155.27 153.648 155.229 153.339 155.025 153.206C154.822 153.073 154.542 153.109 154.395 153.315Z" fill="#6E3B46"/>
<path d="M794.083 117C791.781 117.45 789.549 118.735 788.763 120.911C788.063 122.842 788.281 124.979 787.757 126.958C786.957 129.977 784.579 132.285 782.673 134.774C780.766 137.264 779.228 140.537 780.418 143.421C781.242 145.412 783.272 146.917 783.443 149.044C783.575 150.703 782.529 152.208 782.049 153.803C781.089 156.939 782.427 160.475 784.864 162.692C787.3 164.909 790.666 165.949 793.98 166.119C797.229 166.296 800.65 165.625 803.163 163.585C805.676 161.544 807.015 157.938 805.751 154.98C805.016 153.265 803.505 151.859 803.19 150.032C802.381 145.359 809.587 141.449 807.676 137.088C806.995 135.521 805.327 134.644 804.167 133.39C802.413 131.495 801.897 128.832 801.472 126.298C801.056 123.773 800.615 121.111 798.983 119.117C797.351 117.123 794.077 116.194 792.118 117.886" fill="#D8D86E"/>
<path d="M792.703 129.753C792.68 136.502 792.649 143.26 792.608 150.008C792.567 156.756 792.544 163.542 792.512 170.318C792.499 174.099 792.476 177.89 792.463 181.672C792.466 182.103 793.135 182.113 793.132 181.682C793.154 174.952 793.186 168.231 793.217 161.51C793.248 154.789 793.281 147.958 793.313 141.182C793.326 137.382 793.349 133.573 793.362 129.773C793.36 129.342 792.691 129.332 792.693 129.762L792.703 129.753Z" fill="#6E3B46"/>
<path d="M790.05 135.372C790.878 137.07 791.734 138.759 792.572 140.448C792.761 140.826 793.351 140.514 793.171 140.127C792.343 138.429 791.487 136.74 790.65 135.052C790.461 134.674 789.87 134.985 790.05 135.372Z" fill="#6E3B46"/>
<path d="M793.303 155.458C796.602 153.622 798.744 150.349 799.535 146.744C799.625 146.333 798.978 146.14 798.887 146.569C798.127 150.001 796.127 153.12 792.978 154.867C792.603 155.081 792.919 155.663 793.303 155.458Z" fill="#6E3B46"/>
<path d="M876.083 150C873.781 150.45 871.549 151.735 870.763 153.911C870.063 155.842 870.281 157.979 869.757 159.958C868.957 162.977 866.579 165.285 864.673 167.774C862.766 170.264 861.228 173.537 862.418 176.421C863.242 178.412 865.272 179.917 865.443 182.044C865.575 183.703 864.529 185.208 864.049 186.803C863.089 189.939 864.427 193.475 866.864 195.692C869.3 197.909 872.666 198.949 875.98 199.119C879.229 199.296 882.65 198.625 885.163 196.585C887.676 194.544 889.015 190.938 887.751 187.98C887.016 186.265 885.505 184.859 885.19 183.032C884.381 178.359 891.587 174.449 889.676 170.088C888.995 168.521 887.327 167.644 886.167 166.39C884.413 164.495 883.897 161.832 883.472 159.298C883.056 156.773 882.615 154.111 880.983 152.117C879.351 150.123 876.077 149.194 874.118 150.886" fill="#D8D86E"/>
<path d="M874.703 162.753C874.68 169.502 874.649 176.26 874.608 183.008C874.567 189.756 874.544 196.542 874.512 203.318C874.499 207.099 874.476 210.89 874.463 214.672C874.466 215.103 875.135 215.113 875.132 214.682C875.154 207.952 875.186 201.231 875.217 194.51C875.248 187.789 875.281 180.958 875.313 174.182C875.326 170.382 875.349 166.573 875.362 162.773C875.36 162.342 874.691 162.332 874.693 162.762L874.703 162.753Z" fill="#6E3B46"/>
<path d="M872.05 168.372C872.878 170.07 873.734 171.759 874.572 173.448C874.761 173.826 875.351 173.514 875.171 173.127C874.343 171.429 873.487 169.74 872.65 168.052C872.461 167.674 871.87 167.985 872.05 168.372Z" fill="#6E3B46"/>
<path d="M875.303 188.458C878.602 186.622 880.744 183.349 881.535 179.744C881.625 179.333 880.978 179.14 880.887 179.569C880.127 183.001 878.127 186.12 874.978 187.867C874.603 188.081 874.919 188.663 875.303 188.458Z" fill="#6E3B46"/>
<path d="M633.432 192.997C632.677 193.719 631.694 194.152 630.841 194.76C629.112 195.991 627.94 198.044 628.002 200.155C628.066 202.265 629.478 204.336 631.508 204.971C633.686 205.654 636.012 204.697 638.294 204.612C642.747 204.448 646.954 207.615 651.349 206.893C654.438 206.386 657.038 204.014 660.163 203.812C662.136 203.685 664.067 204.449 666.044 204.486C669.214 204.544 672.322 202.534 673.546 199.631C674.097 198.324 674.25 196.716 673.414 195.567C672.726 194.619 671.526 194.182 670.685 193.365C669.221 191.94 669.106 189.692 668.733 187.689C668.36 185.689 667.237 183.418 665.195 183.232C663.103 183.042 661.2 185.217 659.174 184.66C657.978 184.331 657.256 183.171 656.4 182.28C654.205 179.994 650.474 179.334 647.619 180.725C644.285 182.351 644.28 186.148 638.088 185.818C631.896 185.488 634.854 191.641 633.435 193L633.432 192.997Z" fill="#8BB546"/>
<path d="M649.548 188.686C649.637 190.273 649.726 191.86 649.813 193.45C649.901 195.039 649.988 196.607 650.077 198.187L650.226 200.865C650.237 201.064 650.448 201.234 650.647 201.207C650.86 201.176 651.003 201.004 650.991 200.79C650.903 199.203 650.814 197.616 650.727 196.026C650.639 194.447 650.552 192.869 650.463 191.288C650.414 190.395 650.365 189.504 650.313 188.611C650.303 188.411 650.092 188.241 649.893 188.269C649.68 188.299 649.537 188.471 649.548 188.686Z" fill="#6E3B46"/>
<path d="M644.577 192.341C644.889 193.169 645.455 193.899 646.158 194.441C646.86 194.981 647.704 195.351 648.585 195.482C649.077 195.556 649.587 195.555 650.078 195.468C650.18 195.449 650.273 195.409 650.339 195.326C650.397 195.255 650.436 195.143 650.422 195.05C650.395 194.859 650.215 194.671 650.002 194.708C649.82 194.74 649.637 194.762 649.453 194.77C649.361 194.774 649.27 194.775 649.177 194.773C649.166 194.773 649.153 194.774 649.141 194.772C649.141 194.772 649.245 194.776 649.186 194.772C649.165 194.771 649.143 194.771 649.122 194.77C649.077 194.767 649.031 194.765 648.985 194.76C648.8 194.744 648.619 194.719 648.438 194.679C648.348 194.66 648.258 194.639 648.17 194.613C648.145 194.607 648.122 194.6 648.1 194.594C648.04 194.577 648.196 194.623 648.114 194.597C648.071 194.582 648.025 194.569 647.982 194.554C647.807 194.495 647.635 194.425 647.469 194.347C647.385 194.309 647.304 194.266 647.222 194.222C647.182 194.2 647.14 194.178 647.102 194.155C647.085 194.144 647.065 194.134 647.047 194.123C647.027 194.111 646.988 194.086 647.085 194.144C647.073 194.138 647.064 194.132 647.053 194.125C646.739 193.931 646.447 193.701 646.188 193.442C646.18 193.433 646.17 193.424 646.162 193.416C646.119 193.373 646.218 193.474 646.186 193.442C646.17 193.424 646.152 193.407 646.136 193.388C646.101 193.351 646.066 193.311 646.031 193.273C645.963 193.195 645.898 193.114 645.835 193.032C645.711 192.867 645.596 192.691 645.497 192.51L645.547 192.599C645.453 192.427 645.371 192.25 645.302 192.066C645.233 191.882 644.996 191.764 644.807 191.848C644.619 191.931 644.512 192.14 644.587 192.339L644.577 192.341Z" fill="#6E3B46"/>
<path d="M650.865 197.609C652.065 197.966 653.36 198.016 654.591 197.796C655.858 197.571 657.072 197.079 658.121 196.339C658.703 195.929 659.235 195.438 659.686 194.887C659.813 194.732 659.793 194.472 659.626 194.352C659.459 194.232 659.222 194.247 659.087 194.411C658.964 194.56 658.838 194.706 658.702 194.844C658.637 194.913 658.569 194.979 658.501 195.045C658.455 195.089 658.568 194.982 658.509 195.038C658.493 195.053 658.476 195.068 658.458 195.084C658.42 195.118 658.381 195.155 658.343 195.19C658.057 195.443 657.751 195.677 657.43 195.886C657.247 196.007 657.059 196.118 656.865 196.223L656.955 196.173C656.303 196.527 655.603 196.794 654.88 196.966L654.981 196.943C654.455 197.066 653.92 197.142 653.382 197.162C653.25 197.168 653.119 197.169 652.989 197.168C652.955 197.167 652.924 197.166 652.89 197.166C652.877 197.166 652.863 197.165 652.852 197.165C652.775 197.163 652.949 197.168 652.872 197.166C652.806 197.162 652.741 197.161 652.677 197.157C652.409 197.139 652.141 197.109 651.876 197.064C651.578 197.014 651.283 196.945 650.993 196.858C650.905 196.832 650.773 196.876 650.703 196.927C650.629 196.982 650.564 197.08 650.553 197.173C650.541 197.273 650.558 197.381 650.622 197.461C650.687 197.54 650.767 197.58 650.87 197.61L650.865 197.609Z" fill="#6E3B46"/>
<path d="M656.049 194.945C656.076 195.453 656.105 195.96 656.132 196.468C656.143 196.667 656.354 196.837 656.553 196.81C656.766 196.779 656.909 196.607 656.897 196.393C656.87 195.885 656.841 195.378 656.814 194.87C656.803 194.67 656.592 194.501 656.393 194.528C656.18 194.559 656.037 194.731 656.049 194.945Z" fill="#6E3B46"/>
<path d="M646.735 194.433C646.091 194.838 645.448 195.245 644.805 195.651C644.634 195.758 644.6 196.032 644.724 196.184C644.863 196.354 645.078 196.379 645.261 196.264C645.905 195.859 646.548 195.452 647.191 195.047C647.362 194.94 647.396 194.665 647.272 194.513C647.133 194.343 646.918 194.319 646.735 194.433Z" fill="#6E3B46"/>
<path d="M650.108 191.592C651.243 191.615 652.377 190.954 652.963 189.999C653.15 189.698 653.285 189.385 653.368 189.041C653.415 188.846 653.246 188.627 653.052 188.604C652.832 188.577 652.661 188.711 652.611 188.918C652.602 188.957 652.592 188.994 652.582 189.031C652.571 189.068 652.599 188.973 652.598 188.981C652.594 188.989 652.593 188.998 652.59 189.006C652.584 189.026 652.576 189.046 652.57 189.064C652.545 189.138 652.517 189.209 652.484 189.281C652.452 189.353 652.418 189.421 652.38 189.489C652.371 189.506 652.363 189.52 652.354 189.537C652.346 189.551 652.305 189.617 652.343 189.556C652.382 189.495 652.343 189.556 652.337 189.567C652.326 189.585 652.315 189.602 652.304 189.62C652.217 189.748 652.12 189.872 652.015 189.987C651.988 190.015 651.961 190.043 651.934 190.071C651.922 190.085 651.908 190.096 651.896 190.11C651.867 190.139 651.941 190.066 651.935 190.073C651.926 190.085 651.912 190.095 651.902 190.103C651.844 190.156 651.783 190.206 651.724 190.255C651.585 190.366 651.437 190.463 651.281 190.549L651.371 190.499C651.138 190.625 650.89 190.72 650.632 190.781L650.733 190.758C650.504 190.812 650.27 190.837 650.034 190.832C649.942 190.83 649.828 190.904 649.773 190.974C649.717 191.044 649.676 191.157 649.69 191.249C649.703 191.348 649.749 191.448 649.833 191.509C649.917 191.57 650.005 191.59 650.11 191.591L650.108 191.592Z" fill="#6E3B46"/>
<path d="M1616.47 193.359C1615.81 193.566 1615.07 193.257 1614.76 192.607C1614.42 191.892 1614.71 191.034 1615.42 190.689L1647.77 174.994C1648.48 174.65 1649.33 174.951 1649.68 175.667C1650.02 176.383 1649.73 177.241 1649.02 177.586L1616.67 193.283C1616.6 193.314 1616.54 193.34 1616.47 193.361L1616.47 193.359Z" fill="#91BAE8"/>
<path d="M1658.59 160.392C1658.49 161.078 1657.89 161.605 1657.17 161.604C1656.37 161.603 1655.73 160.963 1655.73 160.176L1655.7 124.201C1655.7 123.413 1656.34 122.776 1657.14 122.776C1657.93 122.778 1658.58 123.417 1658.58 124.206L1658.61 160.182C1658.61 160.253 1658.6 160.324 1658.59 160.394L1658.59 160.392Z" fill="#91BAE8"/>
<path d="M1705.95 243.149C1705.85 243.835 1705.25 244.362 1704.53 244.361C1703.74 244.359 1703.09 243.72 1703.09 242.933L1703.07 206.957C1703.07 206.17 1703.71 205.533 1704.5 205.533C1705.3 205.534 1705.94 206.173 1705.94 206.963L1705.97 242.938C1705.97 243.01 1705.96 243.081 1705.95 243.151L1705.95 243.149Z" fill="#91BAE8"/>
<path d="M1797.68 243.902C1797.58 244.588 1796.98 245.115 1796.26 245.114C1795.46 245.112 1794.82 244.473 1794.82 243.686L1794.79 207.71C1794.79 206.923 1795.43 206.286 1796.23 206.286C1797.02 206.287 1797.67 206.926 1797.67 207.716L1797.69 243.691C1797.69 243.763 1797.69 243.834 1797.68 243.904L1797.68 243.902Z" fill="#91BAE8"/>
<path d="M1611.22 243.902C1611.12 244.588 1610.52 245.115 1609.8 245.114C1609.01 245.112 1608.36 244.473 1608.36 243.686L1608.34 207.71C1608.34 206.923 1608.98 206.286 1609.77 206.286C1610.57 206.287 1611.21 206.926 1611.21 207.716L1611.24 243.691C1611.24 243.763 1611.23 243.834 1611.22 243.904L1611.22 243.902Z" fill="#91BAE8"/>
<path d="M1711.95 191.854C1711.29 192.061 1710.56 191.752 1710.24 191.102C1709.9 190.387 1710.19 189.529 1710.9 189.184L1743.25 173.489C1743.96 173.145 1744.81 173.446 1745.16 174.163C1745.5 174.878 1745.21 175.736 1744.5 176.081L1712.15 191.778C1712.08 191.809 1712.02 191.835 1711.95 191.856L1711.95 191.854Z" fill="#91BAE8"/>
<path d="M1616.58 257.874C1616.05 257.428 1615.91 256.643 1616.29 256.028C1616.71 255.351 1617.59 255.135 1618.26 255.544L1648.95 274.284C1649.62 274.695 1649.83 275.575 1649.41 276.254C1649 276.931 1648.12 277.147 1647.44 276.737L1616.75 257.998C1616.69 257.961 1616.63 257.919 1616.58 257.874L1616.58 257.874Z" fill="#91BAE8"/>
<path d="M1713.75 257.874C1713.22 257.428 1713.08 256.643 1713.46 256.028C1713.87 255.351 1714.75 255.135 1715.43 255.544L1746.12 274.284C1746.79 274.695 1747 275.575 1746.58 276.254C1746.17 276.931 1745.29 277.147 1744.61 276.737L1713.92 257.998C1713.86 257.961 1713.8 257.919 1713.75 257.874L1713.75 257.874Z" fill="#91BAE8"/>
<path d="M1760.37 176.438C1759.83 175.993 1759.7 175.207 1760.07 174.592C1760.49 173.916 1761.37 173.7 1762.04 174.109L1792.73 192.849C1793.4 193.259 1793.61 194.14 1793.2 194.819C1792.78 195.495 1791.9 195.711 1791.23 195.301L1760.54 176.562C1760.48 176.525 1760.42 176.484 1760.36 176.438L1760.37 176.438Z" fill="#91BAE8"/>
<path d="M1664.13 174.934C1663.6 174.489 1663.46 173.704 1663.84 173.089C1664.25 172.412 1665.13 172.196 1665.81 172.605L1696.49 191.345C1697.17 191.755 1697.37 192.636 1696.96 193.315C1696.55 193.991 1695.66 194.207 1694.99 193.797L1664.3 175.059C1664.24 175.021 1664.18 174.98 1664.13 174.934L1664.13 174.934Z" fill="#91BAE8"/>
<path d="M1570.9 176.438C1570.37 175.993 1570.23 175.207 1570.61 174.592C1571.03 173.916 1571.91 173.7 1572.58 174.109L1603.27 192.849C1603.94 193.259 1604.15 194.14 1603.73 194.819C1603.32 195.495 1602.44 195.711 1601.76 195.301L1571.07 176.562C1571.01 176.525 1570.95 176.484 1570.9 176.438L1570.9 176.438Z" fill="#91BAE8"/>
<path d="M1702.93 268.9C1711.68 268.9 1718.77 261.744 1718.77 252.917C1718.77 244.09 1711.68 236.935 1702.93 236.935C1694.19 236.935 1687.1 244.09 1687.1 252.917C1687.1 261.744 1694.19 268.9 1702.93 268.9Z" fill="#F7D19F"/>
<path d="M1560.84 186.143C1569.58 186.143 1576.67 178.987 1576.67 170.16C1576.67 161.333 1569.58 154.178 1560.84 154.178C1552.09 154.178 1545 161.333 1545 170.16C1545 178.987 1552.09 186.143 1560.84 186.143Z" fill="#F7D19F"/>
<path d="M1702.93 212.474C1711.68 212.474 1718.77 205.318 1718.77 196.491C1718.77 187.664 1711.68 180.509 1702.93 180.509C1694.19 180.509 1687.1 187.664 1687.1 196.491C1687.1 205.318 1694.19 212.474 1702.93 212.474Z" fill="#4F83C2"/>
<path d="M1796.16 212.474C1804.91 212.474 1812 205.318 1812 196.491C1812 187.664 1804.91 180.509 1796.16 180.509C1787.42 180.509 1780.33 187.664 1780.33 196.491C1780.33 205.318 1787.42 212.474 1796.16 212.474Z" fill="#F7D19F"/>
<path d="M1609.71 268.9C1618.45 268.9 1625.54 261.744 1625.54 252.917C1625.54 244.09 1618.45 236.935 1609.71 236.935C1600.96 236.935 1593.87 244.09 1593.87 252.917C1593.87 261.744 1600.96 268.9 1609.71 268.9Z" fill="#A7CEED"/>
<path d="M1796.16 268.9C1804.91 268.9 1812 261.744 1812 252.917C1812 244.09 1804.91 236.935 1796.16 236.935C1787.42 236.935 1780.33 244.09 1780.33 252.917C1780.33 261.744 1787.42 268.9 1796.16 268.9Z" fill="#F7D19F"/>
<path d="M1658.57 186.143C1667.32 186.143 1674.41 178.987 1674.41 170.16C1674.41 161.333 1667.32 154.178 1658.57 154.178C1649.83 154.178 1642.74 161.333 1642.74 170.16C1642.74 178.987 1649.83 186.143 1658.57 186.143Z" fill="#A7CEED"/>
<path d="M1749.55 186.143C1758.3 186.143 1765.39 178.987 1765.39 170.16C1765.39 161.333 1758.3 154.178 1749.55 154.178C1740.8 154.178 1733.71 161.333 1733.71 170.16C1733.71 178.987 1740.8 186.143 1749.55 186.143Z" fill="#A7CEED"/>
<path d="M1658.57 128.965C1667.32 128.965 1674.41 121.809 1674.41 112.983C1674.41 104.156 1667.32 97 1658.57 97C1649.83 97 1642.74 104.156 1642.74 112.983C1642.74 121.809 1649.83 128.965 1658.57 128.965Z" fill="#A7CEED"/>
<path d="M1609.71 212.474C1618.45 212.474 1625.54 205.318 1625.54 196.491C1625.54 187.664 1618.45 180.509 1609.71 180.509C1600.96 180.509 1593.87 187.664 1593.87 196.491C1593.87 205.318 1600.96 212.474 1609.71 212.474Z" fill="#A7CEED"/>
</g>
</svg>
