<svg width="336" height="80" viewBox="0 0 336 80" fill="none" xmlns="http://www.w3.org/2000/svg">
<path d="M4.76976 62.0506H16.5319C15.8039 62.8229 15.4489 63.6573 15.4755 64.545C15.511 65.6724 16.1324 66.6844 17.3042 67.5455C20.1271 69.7825 22.1777 71.5402 23.3938 72.7386C24.6188 74.1412 25.8528 74.8158 27.06 74.7537C28.1519 74.7537 29.3858 74.1323 30.8505 72.8717C32.1821 71.7266 32.9278 70.5903 33.052 69.4896C33.1852 68.3622 32.6171 67.1727 31.3654 65.9299C29.9451 64.7048 28.3117 63.4088 26.5185 62.0506H48.5691V69.4807C48.5691 70.0488 48.4271 70.182 48.3827 70.2086C48.2762 70.2796 47.9744 70.4128 47.2198 70.4749H44.0685C41.1746 70.4128 39.3281 70.9632 38.4404 72.1793C37.748 73.1203 37.6859 74.4252 38.254 76.0497C39.0796 78.6152 41.1746 79.9201 44.4857 79.9201C44.6277 79.9201 44.7786 79.9201 44.9295 79.9201C49.3414 79.8047 52.5816 79.3697 54.5611 78.6152C56.3632 77.8961 57.6237 76.8309 58.2984 75.4283C58.902 74.1678 59.195 72.3302 59.195 69.818V62.0506H73.5314C76.452 62.0506 77.9877 60.5237 77.9877 57.6298C77.9877 54.7359 76.4431 53.2091 73.5314 53.2091H59.195V50.6968L64.7964 50.5459C64.8852 50.5992 64.9917 50.6702 65.116 50.759C65.2846 50.8833 65.4 50.9632 65.4799 51.0431C67.4595 52.6409 69.5101 52.6054 71.4275 50.9543C72.7325 49.8447 73.3983 48.8593 73.4604 47.9361C73.5314 46.9862 72.8923 46.0275 71.5607 45.0865C69.8208 43.8881 67.7081 42.6187 65.2757 41.296C66.4475 41.083 67.4329 40.5859 68.2052 39.7869C69.2527 38.7217 69.7853 37.3191 69.7853 35.6236V22.0684C69.7853 20.3196 69.226 18.8726 68.1164 17.7719C67.0068 16.6711 65.5509 16.1207 63.7933 16.1207H44.246V13.9636H70.8772C73.6823 13.9636 75.1648 12.49 75.1648 9.7115C75.1648 6.93298 73.6823 5.45938 70.8772 5.45938H44.246V5.39725C44.246 1.95295 42.4085 0.124278 38.9287 0.124278C35.4489 0.124278 33.6113 1.94408 33.6113 5.39725V5.45938H6.8026C3.99745 5.45938 2.51499 6.93298 2.51499 9.7115C2.51499 12.49 3.99745 13.9636 6.8026 13.9636H33.6113V16.1207H15.1737C13.4071 16.1207 11.9513 16.68 10.8505 17.7719C9.74091 18.8726 9.18165 20.3107 9.18165 22.0684V35.455C9.18165 37.2037 9.74091 38.6507 10.8505 39.7514C11.9602 40.8522 13.416 41.4026 15.1737 41.4026H33.6113V43.5597H23.9708C16.2123 43.613 10.6109 43.613 7.31747 43.5597C5.96816 43.5597 5.03607 43.9414 4.56559 44.6782C4.10398 45.3351 3.90868 46.3382 3.97082 47.7497C4.03296 49.099 4.2904 50.0399 4.752 50.6347C5.2935 51.3094 6.18121 51.6467 7.40624 51.6467C18.0942 51.5934 31.9424 51.3715 48.5603 50.9809V53.2179H4.76976C1.84921 53.2179 0.313477 54.7448 0.313477 57.6387C0.313477 60.5326 1.85808 62.0595 4.76976 62.0595V62.0506ZM19.479 25.3351V24.6782C19.479 23.5686 19.9584 23.0892 21.0858 23.0892H33.6291V25.3351H19.479ZM19.479 33.4043V31.984H33.6291V34.3187H20.4022C19.7365 34.3187 19.479 34.0612 19.479 33.4043ZM44.2549 25.3351V23.0892H58.3339C58.9464 23.0892 59.1683 23.3111 59.1683 23.9148V25.3351H44.2549ZM51.1879 41.6422C51.0813 41.7488 50.7618 42.0595 50.8949 42.4501C50.9482 42.6187 51.0991 42.8318 51.4364 42.885C51.8359 43.036 52.1555 43.2046 52.4129 43.3999L44.2638 43.462V41.3848H51.4986L51.1967 41.6422H51.1879ZM44.2549 34.3098V31.9751H59.1683V32.7208C59.1683 33.8305 58.689 34.3098 57.5616 34.3098H44.2549ZM132.138 22.8318H154.694C156.461 22.8318 157.917 22.2725 159.017 21.1806C160.127 20.0799 160.686 18.6418 160.686 16.8841V8.41544C160.686 6.65779 160.127 5.21971 159.017 4.11895C157.908 3.0182 156.452 2.46782 154.694 2.46782H132.138C130.371 2.46782 128.915 3.02707 127.815 4.11895C126.705 5.21971 126.146 6.66666 126.146 8.41544V16.8841C126.146 18.6329 126.705 20.0799 127.815 21.1806C128.924 22.2814 130.38 22.8318 132.138 22.8318ZM136.425 13.2446V12.055C136.425 10.9454 136.905 10.466 138.032 10.466H148.196C149.324 10.466 149.803 10.9454 149.803 12.055V13.2446C149.803 14.3542 149.324 14.8335 148.196 14.8335H138.032C136.905 14.8335 136.425 14.3542 136.425 13.2446ZM89.9362 56.9285C86.7405 56.9285 85.0538 58.6063 85.0538 61.7754C85.0538 64.9445 86.7405 66.6223 89.9362 66.6223H99.0618V75.1531C99.0618 78.3222 100.784 80 104.033 80C107.282 80 108.915 78.3222 108.915 75.1531V66.6223H120.136L120.251 67.4301C120.491 69.0546 121.192 70.3773 122.32 71.3449C123.465 72.3214 124.77 72.7563 126.19 72.632C127.495 72.5166 129.572 72.348 132.422 72.1261C140.012 71.5313 145.968 71.0342 150.14 70.6436V74.8158C150.14 78.1536 151.916 79.9201 155.28 79.9201C158.645 79.9201 160.42 78.1536 160.42 74.8158V69.676H160.456C163.287 69.3653 164.779 67.723 164.779 64.909C164.779 63.2845 164.361 62.0861 163.536 61.3404C162.799 60.6747 161.743 60.3728 160.42 60.4616V34.1855H160.491C163.412 34.1855 164.947 32.6587 164.947 29.7648C164.947 26.8708 163.403 25.344 160.491 25.344H125.897C122.977 25.344 121.441 26.8708 121.441 29.7648C121.441 32.6587 122.985 34.1855 125.897 34.1855H126.474V62.9649L122.835 63.1691V62.8762C122.835 61.1185 122.275 59.6804 121.166 58.5797C120.056 57.4789 118.6 56.9285 116.843 56.9285H108.915V52.7386H114.792C116.558 52.7386 118.014 52.1793 119.115 51.0874C120.225 49.9867 120.784 48.5486 120.784 46.7909V27.2259C120.784 25.4683 120.225 24.0302 119.115 22.9294C118.005 21.8287 116.55 21.2783 114.792 21.2783H108.915V17.763H116.931C120.074 17.763 121.734 16.0852 121.734 12.9161C121.734 9.74701 120.074 8.14913 116.931 8.14913H108.915V4.9534C108.915 1.78429 107.229 0.10652 104.033 0.10652C100.837 0.10652 99.0618 1.78429 99.0618 4.9534V8.14913H90.7085C87.566 8.14913 85.906 9.80027 85.906 12.9161C85.906 16.032 87.566 17.763 90.7085 17.763H99.0618V21.2783H93.6113C91.8448 21.2783 90.3889 21.8376 89.2882 22.9294C88.1786 24.0302 87.6193 25.4683 87.6193 27.2259V46.8797C87.6193 48.6374 88.1697 50.0666 89.2438 51.1318C90.3179 52.1971 91.7649 52.7386 93.5314 52.7386H99.0707V56.9285H89.9451H89.9362ZM95.8483 33.2978V29.7648C95.8483 29.3298 95.9904 29.1877 96.4342 29.1877H100.092V33.2978H95.8572H95.8483ZM95.8483 43.3111V40.7901H100.083V44.9001H97.4551C96.3277 44.9001 95.8483 44.4208 95.8483 43.3111ZM107.726 33.2978V29.1877H110.611C111.738 29.1877 112.218 29.6671 112.218 30.7767V33.2978H107.726ZM107.726 44.9001V40.7901H112.218V44.2432C112.218 44.7315 112.049 44.9001 111.552 44.9001H107.726ZM136.603 37.7807V34.1767H150.149V37.7807H136.603ZM136.603 49.5517V45.6991H150.149V49.5517H136.603ZM136.603 62.2193V57.47H150.149V61.2694C144.086 61.6866 139.568 62.0062 136.603 62.2193ZM177.508 24.0923H184.29C188.986 36.5912 194.934 47.075 201.973 55.2597C195.449 60.1598 187.575 64.1988 178.565 67.2703C175.671 68.1758 173.904 69.4541 173.318 71.0874C172.812 72.4723 173.15 74.0879 174.313 75.8988C175.618 77.9405 177.411 78.9703 179.674 78.9703C180.677 78.9703 181.769 78.7661 182.95 78.3666C193.354 74.5761 202.55 69.5517 210.291 63.4443C217.988 69.889 227.309 74.9046 238.023 78.3755C241.965 79.5561 244.974 78.7306 246.971 75.9254C248.4 73.937 248.862 72.1704 248.329 70.6791C247.699 68.9037 245.746 67.5899 242.391 66.6933C233.869 63.897 226.146 59.9201 219.417 54.8602C227.007 46.5158 233.123 36.174 237.606 24.1101H244.468C248.001 24.1101 249.865 22.2548 249.865 18.7572C249.865 15.2596 248.001 13.4043 244.468 13.4043H216.292V5.45938C216.292 1.89968 214.392 0.0177444 210.806 0.0177444C207.22 0.0177444 205.24 1.89968 205.24 5.45938V13.4043H177.491C173.958 13.4043 172.093 15.2596 172.093 18.7572C172.093 22.2548 173.958 24.1101 177.491 24.1101L177.508 24.0923ZM196.523 24.0923H224.788C221.325 33.0049 216.656 40.7545 210.904 47.1371C204.779 40.6036 199.941 32.854 196.523 24.0923ZM262.595 28.4953H330.762C333.62 28.4953 335.138 26.9685 335.138 24.0746C335.138 21.1806 333.629 19.7337 330.762 19.7337H316.567C317.002 18.9348 317.588 17.834 318.343 16.387C318.76 15.5082 319.097 14.8424 319.364 14.3542H325.808C328.667 14.3542 330.185 12.8273 330.185 9.93342C330.185 7.03951 328.676 5.59255 325.808 5.59255H302.16C302.16 1.9352 300.198 0 296.505 0C292.812 0 290.771 1.9352 290.762 5.59255H267.886C265.027 5.59255 263.509 7.09277 263.509 9.93342C263.509 12.7741 265.018 14.3542 267.886 14.3542H275.325C275.112 14.7625 275.147 15.2774 275.431 15.8899C275.484 15.9964 275.564 16.1829 275.68 16.4581C276.257 17.834 276.701 18.9348 277.002 19.7337H262.595C259.736 19.7337 258.219 21.2339 258.219 24.0746C258.219 26.9152 259.728 28.4953 262.595 28.4953ZM286.377 14.3542H307.22C306.758 15.526 306.066 17.1593 305.169 19.2188C305.063 19.423 304.983 19.5917 304.921 19.7337H288.729C288.214 17.905 287.415 16.103 286.368 14.3542H286.377ZM262.426 71.2739H290.771V74.3009C290.771 77.9672 292.759 79.9112 296.514 79.9112C300.269 79.9112 302.169 77.9672 302.169 74.3009V71.2739H331.028C333.949 71.2739 335.484 69.747 335.484 66.8531C335.484 63.9592 333.94 62.4323 331.028 62.4323H302.169V59.5916H320.518C322.284 59.5916 323.74 59.0324 324.841 57.9405C325.95 56.8398 326.51 55.4017 326.51 53.644V37.0439C326.51 35.2952 325.95 33.8482 324.841 32.7474C323.731 31.6467 322.275 31.0963 320.518 31.0963H272.937C271.17 31.0963 269.714 31.6556 268.605 32.7474C267.495 33.8482 266.936 35.2952 266.936 37.0439V53.644C266.936 55.3928 267.495 56.8398 268.605 57.9405C269.714 59.0413 271.17 59.5916 272.937 59.5916H290.771V62.4323H262.426C259.506 62.4323 257.97 63.9592 257.97 66.8531C257.97 69.747 259.515 71.2739 262.426 71.2739ZM277.562 41.7577V40.1687C277.562 39.059 278.041 38.5797 279.168 38.5797H314.02C314.969 38.5797 315.369 38.9791 315.369 39.9112V41.7577H277.562ZM277.562 50.6702V48.9126H315.369V50.3329C315.369 51.4425 314.89 51.9219 313.762 51.9219H278.822C277.926 51.9219 277.562 51.5579 277.562 50.6702ZM9.76754 9.62272C9.76754 11.2916 8.40935 12.6498 6.74046 12.6498C5.07158 12.6498 3.71339 11.2916 3.71339 9.62272C3.71339 7.95384 5.07158 6.59564 6.74046 6.59564C8.40935 6.59564 9.76754 7.95384 9.76754 9.62272ZM93.6291 12.8717C93.6291 14.5406 92.2709 15.8988 90.602 15.8988C88.9331 15.8988 87.5749 14.5406 87.5749 12.8717C87.5749 11.2028 88.9331 9.84465 90.602 9.84465C92.2709 9.84465 93.6291 11.2028 93.6291 12.8717ZM180.393 18.9259C180.393 20.5948 179.035 21.9529 177.366 21.9529C175.697 21.9529 174.339 20.5948 174.339 18.9259C174.339 17.257 175.697 15.8988 177.366 15.8988C179.035 15.8988 180.393 17.257 180.393 18.9259ZM271.357 9.86241C271.357 11.5313 269.998 12.8895 268.329 12.8895C266.661 12.8895 265.302 11.5313 265.302 9.86241C265.302 8.19352 266.661 6.83533 268.329 6.83533C269.998 6.83533 271.357 8.19352 271.357 9.86241Z" fill="url(#paint0_linear_14_1015)"/>
<defs>
<linearGradient id="paint0_linear_14_1015" x1="167.886" y1="80.0089" x2="167.886" y2="0.00887871" gradientUnits="userSpaceOnUse">
<stop stop-color="#018139"/>
<stop offset="1" stop-color="#0F6632"/>
</linearGradient>
</defs>
</svg>
