<svg width="60" height="60" viewBox="0 0 60 60" fill="none" xmlns="http://www.w3.org/2000/svg">
<mask id="mask0_4051_7405" style="mask-type:alpha" maskUnits="userSpaceOnUse" x="0" y="0" width="60" height="60">
<rect width="60" height="60" fill="#D9D9D9"/>
</mask>
<g mask="url(#mask0_4051_7405)">
<path d="M42.1875 56C41.8539 56 41.5202 55.8959 41.2376 55.6855C39.9201 54.7059 28.375 45.9062 28.375 38.4432C28.375 34.0636 31.9492 30.5 36.3438 30.5C38.6026 30.5 40.7085 31.4478 42.1875 33.0373C43.6665 31.4478 45.7724 30.5 48.0312 30.5C52.4258 30.5 56 34.0636 56 38.4432C56 45.9062 44.4549 54.7059 43.1374 55.6855C42.8548 55.8959 42.5211 56 42.1875 56Z" fill="#0E8347"/>
<path d="M35.7913 26.1012L30.6488 20.9588C29.9475 20.2575 29.0125 19.875 28.035 19.875H23.5938C21.5537 19.875 19.875 21.5537 19.875 23.5938V33.1562C19.875 35.1963 21.5537 36.875 23.5938 36.875H24.2313C24.975 31.01 29.9263 26.4625 35.94 26.2712C35.8975 26.2075 35.8338 26.1437 35.7913 26.1012Z" fill="#F5F3B2"/>
<path d="M49.625 15.625H44.9925C44.3338 13.8188 42.9313 12.4163 41.125 11.7575V7.125C41.125 5.95625 40.1688 5 39 5C37.8312 5 36.875 5.95625 36.875 7.125V11.375H30.5V7.125C30.5 5.95625 29.5438 5 28.375 5C27.2062 5 26.25 5.95625 26.25 7.125V11.375H19.875V7.125C19.875 5.95625 18.9187 5 17.75 5C16.5813 5 15.625 5.95625 15.625 7.125V11.7575C13.8188 12.4163 12.4163 13.8188 11.7575 15.625H7.125C5.95625 15.625 5 16.5813 5 17.75C5 18.9187 5.95625 19.875 7.125 19.875H11.375V26.25H7.125C5.95625 26.25 5 27.2062 5 28.375C5 29.5438 5.95625 30.5 7.125 30.5H11.375V36.875H7.125C5.95625 36.875 5 37.8312 5 39C5 40.1688 5.95625 41.125 7.125 41.125H11.7575C12.4163 42.9313 13.8188 44.3338 15.625 44.9925V49.625C15.625 50.7938 16.5813 51.75 17.75 51.75C18.9187 51.75 19.875 50.7938 19.875 49.625V45.375H26.0375C25.315 43.9938 24.7625 42.57 24.4437 41.125H17.75C16.5813 41.125 15.625 40.1688 15.625 39V17.75C15.625 16.5813 16.5813 15.625 17.75 15.625H39C40.1688 15.625 41.125 16.5813 41.125 17.75V27.2275C41.4863 27.3763 41.8475 27.5462 42.1875 27.7375C43.9725 26.7812 45.375 26.25 45.375 26.25V19.875H49.625C50.7938 19.875 51.75 18.9187 51.75 17.75C51.75 16.5813 50.7938 15.625 49.625 15.625Z" fill="#0E8347"/>
</g>
</svg>
