<svg width="1920" height="734" viewBox="0 0 1920 734" fill="none" xmlns="http://www.w3.org/2000/svg">
<mask id="mask0_4206_1920" style="mask-type:alpha" maskUnits="userSpaceOnUse" x="-46" y="0" width="2012" height="734">
<rect x="-46" width="2012" height="734" fill="#D9D9D9"/>
</mask>
<g mask="url(#mask0_4206_1920)">
<path d="M1280.5 99.5238C1109.89 -52.6236 787.129 335.172 528.192 711.155L1700.07 711.156C1417.34 204.569 1404.05 209.696 1280.5 99.5238Z" fill="#B6D267"/>
<path d="M179.744 55.175C15.3817 60.0635 -45.3133 342.401 -69.5587 719.416L758.857 701.839C570.063 185.59 298.773 51.6253 179.744 55.175Z" fill="#B9D877"/>
<path d="M1638.93 191.197C1459.38 185.451 1275.49 400.002 1091.28 689.788L2217.67 681.669C1982.65 324.766 1768.96 195.351 1638.93 191.197Z" fill="#BFDC6E"/>
<path d="M1810.03 284.249C1807.29 285.007 1804.45 285.772 1801.63 285.414C1798.8 285.057 1795.96 283.288 1795.23 280.536C1794.43 277.474 1796.36 274.458 1797.7 271.587C1798.78 269.27 1799.52 266.69 1799.1 264.169C1798.7 261.744 1797.27 259.633 1796.22 257.414C1795.16 255.194 1794.46 252.532 1795.54 250.324C1796.14 249.091 1797.22 248.168 1798.02 247.05C1799.79 244.571 1800.04 241.364 1800.87 238.433C1801.69 235.502 1803.6 232.399 1806.63 232.034C1810.35 231.587 1813.15 235.576 1813.74 239.276C1814.32 242.976 1813.65 246.871 1814.85 250.419C1815.82 253.277 1817.91 255.59 1819.58 258.101C1821.26 260.612 1822.58 263.693 1821.74 266.592C1821.29 268.179 1820.24 269.53 1819.69 271.09C1818.75 273.796 1819.43 276.842 1818.63 279.595C1817.34 284.074 1811.68 286.693 1807.43 284.787" fill="#7A9756"/>
<path d="M1806.92 247.607C1807.03 250.601 1807.13 253.593 1807.19 256.589C1807.25 259.58 1807.29 262.571 1807.3 265.564C1807.31 268.554 1807.29 271.549 1807.25 274.539C1807.2 277.528 1807.13 280.544 1807.03 283.544C1806.93 286.535 1806.8 289.523 1806.64 292.511C1806.63 292.882 1806.61 293.254 1806.59 293.627C1806.56 294.076 1807.26 294.144 1807.28 293.695C1807.44 290.697 1807.58 287.697 1807.69 284.695C1807.79 281.694 1807.87 278.692 1807.92 275.69C1807.98 272.688 1808 269.662 1808 266.648C1808 263.645 1807.97 260.641 1807.91 257.642C1807.85 254.633 1807.77 251.624 1807.65 248.617C1807.64 248.244 1807.62 247.871 1807.61 247.499C1807.6 247.311 1807.38 247.181 1807.21 247.209C1807.01 247.242 1806.91 247.42 1806.92 247.609L1806.92 247.607Z" fill="#6E3B46"/>
<path d="M1802.84 258.662C1803.77 260.145 1804.94 261.474 1806.26 262.617C1806.64 262.941 1807.03 263.244 1807.43 263.534C1807.58 263.64 1807.81 263.607 1807.92 263.45C1808.02 263.294 1807.99 263.078 1807.83 262.964C1807.48 262.71 1807.14 262.445 1806.81 262.168C1806.65 262.033 1806.49 261.895 1806.33 261.753C1806.29 261.718 1806.26 261.688 1806.22 261.653C1806.23 261.663 1806.14 261.578 1806.17 261.611C1806.2 261.636 1806.15 261.586 1806.14 261.578C1806.06 261.504 1805.98 261.425 1805.9 261.348C1805.28 260.748 1804.71 260.099 1804.2 259.412C1803.91 259.028 1803.63 258.63 1803.38 258.221C1803.28 258.067 1803.01 258.058 1802.88 258.172C1802.73 258.313 1802.73 258.497 1802.83 258.666L1802.84 258.662Z" fill="#6E3B46"/>
<path d="M1810.73 269.747C1809.88 270.948 1809.02 272.145 1808.16 273.346C1807.92 273.688 1807.67 274.031 1807.42 274.376C1807.32 274.523 1807.35 274.76 1807.51 274.862C1807.66 274.964 1807.88 274.936 1807.99 274.779C1808.85 273.578 1809.71 272.381 1810.57 271.18C1810.81 270.837 1811.06 270.495 1811.3 270.15C1811.41 270.002 1811.38 269.766 1811.22 269.664C1811.06 269.562 1810.85 269.59 1810.73 269.747Z" fill="#6E3B46"/>
<path d="M1864.02 369.394C1862.19 369.908 1860.3 370.426 1858.42 370.184C1856.53 369.942 1854.64 368.743 1854.15 366.879C1853.62 364.805 1854.91 362.762 1855.8 360.817C1856.52 359.247 1857.01 357.5 1856.73 355.792C1856.46 354.149 1855.52 352.719 1854.81 351.216C1854.11 349.712 1853.64 347.909 1854.36 346.413C1854.76 345.578 1855.48 344.952 1856.01 344.195C1857.19 342.516 1857.36 340.343 1857.91 338.358C1858.46 336.372 1859.73 334.27 1861.75 334.023C1864.23 333.72 1866.1 336.422 1866.49 338.929C1866.88 341.436 1866.43 344.074 1867.23 346.477C1867.88 348.413 1869.27 349.98 1870.39 351.681C1871.5 353.382 1872.38 355.469 1871.83 357.433C1871.53 358.509 1870.82 359.423 1870.46 360.48C1869.83 362.314 1870.29 364.377 1869.75 366.242C1868.89 369.276 1865.12 371.05 1862.28 369.759" fill="#7A9756"/>
<path d="M1861.94 344.572C1862.02 346.601 1862.08 348.628 1862.13 350.657C1862.17 352.683 1862.19 354.71 1862.2 356.737C1862.21 358.763 1862.19 360.791 1862.16 362.816C1862.14 364.842 1862.09 366.885 1862.02 368.917C1861.95 370.943 1861.87 372.967 1861.76 374.991C1861.75 375.243 1861.74 375.495 1861.72 375.748C1861.71 376.052 1862.17 376.098 1862.19 375.794C1862.3 373.763 1862.39 371.73 1862.46 369.697C1862.53 367.664 1862.58 365.63 1862.62 363.596C1862.65 361.563 1862.67 359.513 1862.67 357.471C1862.66 355.437 1862.64 353.402 1862.61 351.37C1862.57 349.332 1862.51 347.294 1862.44 345.256C1862.43 345.004 1862.42 344.752 1862.41 344.499C1862.4 344.372 1862.25 344.284 1862.14 344.303C1862 344.325 1861.94 344.445 1861.95 344.574L1861.94 344.572Z" fill="#6E3B46"/>
<path d="M1859.23 352.061C1859.85 353.066 1860.62 353.966 1861.51 354.741C1861.76 354.96 1862.02 355.165 1862.29 355.362C1862.39 355.433 1862.54 355.411 1862.61 355.305C1862.68 355.199 1862.66 355.053 1862.56 354.976C1862.32 354.804 1862.09 354.624 1861.87 354.437C1861.76 354.345 1861.66 354.251 1861.55 354.155C1861.53 354.132 1861.51 354.111 1861.48 354.088C1861.49 354.094 1861.43 354.037 1861.45 354.059C1861.47 354.076 1861.43 354.042 1861.43 354.037C1861.37 353.986 1861.32 353.933 1861.26 353.881C1860.85 353.474 1860.47 353.034 1860.13 352.57C1859.94 352.309 1859.75 352.04 1859.58 351.762C1859.52 351.658 1859.34 351.652 1859.25 351.73C1859.15 351.825 1859.15 351.95 1859.22 352.064L1859.23 352.061Z" fill="#6E3B46"/>
<path d="M1864.49 359.571C1863.92 360.384 1863.35 361.195 1862.78 362.008C1862.61 362.241 1862.45 362.473 1862.28 362.706C1862.21 362.806 1862.23 362.966 1862.34 363.036C1862.44 363.105 1862.59 363.086 1862.66 362.979C1863.23 362.165 1863.81 361.355 1864.38 360.541C1864.54 360.309 1864.7 360.077 1864.87 359.843C1864.94 359.744 1864.92 359.583 1864.81 359.514C1864.71 359.445 1864.56 359.464 1864.49 359.571Z" fill="#6E3B46"/>
<path d="M894.574 453C892.518 453.409 890.526 454.575 889.823 456.55C889.199 458.303 889.393 460.243 888.925 462.039C888.211 464.779 886.088 466.874 884.386 469.134C882.684 471.393 881.31 474.364 882.373 476.982C883.108 478.789 884.921 480.155 885.073 482.086C885.191 483.592 884.258 484.958 883.829 486.406C882.972 489.252 884.166 492.462 886.342 494.474C888.518 496.486 891.523 497.431 894.482 497.585C897.383 497.746 900.437 497.137 902.681 495.285C904.924 493.432 906.12 490.159 904.991 487.474C904.335 485.918 902.986 484.641 902.705 482.983C901.982 478.741 908.416 475.192 906.711 471.234C906.102 469.811 904.613 469.015 903.577 467.877C902.011 466.157 901.55 463.739 901.171 461.439C900.8 459.148 900.406 456.731 898.949 454.922C897.492 453.112 894.568 452.268 892.819 453.804" fill="#D8D86E"/>
<path d="M893.341 464.576C893.321 470.702 893.293 476.836 893.257 482.961C893.22 489.087 893.199 495.246 893.171 501.396C893.159 504.829 893.139 508.27 893.128 511.702C893.13 512.093 893.727 512.102 893.725 511.711C893.744 505.602 893.772 499.502 893.8 493.401C893.828 487.301 893.858 481.1 893.886 474.95C893.898 471.501 893.918 468.043 893.93 464.594C893.928 464.203 893.331 464.194 893.333 464.584L893.341 464.576Z" fill="#6E3B46"/>
<path d="M890.973 469.677C891.712 471.217 892.477 472.75 893.224 474.283C893.393 474.627 893.92 474.344 893.76 473.992C893.02 472.451 892.256 470.918 891.508 469.386C891.339 469.042 890.812 469.325 890.973 469.677Z" fill="#6E3B46"/>
<path d="M893.877 487.908C896.823 486.242 898.736 483.27 899.442 479.998C899.522 479.625 898.944 479.45 898.863 479.84C898.185 482.954 896.399 485.786 893.587 487.372C893.252 487.566 893.534 488.094 893.877 487.908Z" fill="#6E3B46"/>
<path d="M1359.55 426.478C1358.78 427.228 1357.77 427.677 1356.9 428.306C1355.14 429.583 1353.94 431.712 1354 433.901C1354.07 436.09 1355.51 438.238 1357.58 438.896C1359.81 439.604 1362.19 438.612 1364.52 438.523C1369.07 438.353 1373.37 441.638 1377.86 440.889C1381.01 440.363 1383.67 437.903 1386.86 437.694C1388.88 437.562 1390.85 438.354 1392.87 438.393C1396.11 438.454 1399.29 436.368 1400.54 433.358C1401.1 432.003 1401.25 430.335 1400.4 429.143C1399.7 428.16 1398.47 427.707 1397.61 426.86C1396.12 425.383 1396 423.051 1395.62 420.974C1395.24 418.899 1394.09 416.545 1392 416.352C1389.87 416.154 1387.92 418.41 1385.85 417.833C1384.63 417.491 1383.89 416.289 1383.02 415.365C1380.77 412.994 1376.96 412.309 1374.04 413.752C1370.64 415.438 1370.63 419.375 1364.31 419.033C1357.98 418.692 1361 425.073 1359.55 426.482L1359.55 426.478Z" fill="#8BB546"/>
<path d="M1376.02 422.008C1376.11 423.654 1376.2 425.299 1376.29 426.948C1376.38 428.596 1376.47 430.222 1376.56 431.861L1376.71 434.637C1376.72 434.845 1376.94 435.021 1377.14 434.992C1377.36 434.961 1377.5 434.782 1377.49 434.56C1377.4 432.914 1377.31 431.268 1377.22 429.619C1377.13 427.982 1377.04 426.345 1376.95 424.706C1376.9 423.78 1376.85 422.855 1376.8 421.93C1376.79 421.723 1376.57 421.547 1376.37 421.575C1376.15 421.607 1376 421.785 1376.02 422.008Z" fill="#6E3B46"/>
<path d="M1370.94 425.798C1371.26 426.657 1371.83 427.413 1372.55 427.975C1373.27 428.535 1374.13 428.92 1375.03 429.056C1375.53 429.132 1376.06 429.131 1376.56 429.041C1376.66 429.021 1376.76 428.979 1376.82 428.893C1376.88 428.82 1376.92 428.704 1376.91 428.608C1376.88 428.41 1376.7 428.215 1376.48 428.253C1376.29 428.286 1376.11 428.308 1375.92 428.317C1375.82 428.321 1375.73 428.323 1375.64 428.32C1375.63 428.32 1375.61 428.321 1375.6 428.319C1375.6 428.319 1375.71 428.323 1375.65 428.319C1375.62 428.318 1375.6 428.318 1375.58 428.317C1375.53 428.314 1375.49 428.312 1375.44 428.307C1375.25 428.29 1375.07 428.264 1374.88 428.223C1374.79 428.203 1374.7 428.182 1374.61 428.155C1374.58 428.148 1374.56 428.141 1374.54 428.134C1374.47 428.116 1374.63 428.165 1374.55 428.137C1374.51 428.122 1374.46 428.108 1374.42 428.093C1374.24 428.032 1374.06 427.96 1373.89 427.879C1373.81 427.839 1373.72 427.795 1373.64 427.749C1373.6 427.726 1373.56 427.703 1373.52 427.679C1373.5 427.668 1373.48 427.657 1373.46 427.646C1373.44 427.633 1373.4 427.607 1373.5 427.668C1373.49 427.661 1373.48 427.655 1373.47 427.649C1373.15 427.447 1372.85 427.209 1372.58 426.939C1372.57 426.931 1372.56 426.921 1372.56 426.913C1372.51 426.868 1372.61 426.973 1372.58 426.94C1372.56 426.921 1372.55 426.903 1372.53 426.884C1372.49 426.845 1372.46 426.804 1372.42 426.765C1372.35 426.684 1372.29 426.6 1372.22 426.514C1372.1 426.343 1371.98 426.161 1371.88 425.973L1371.93 426.066C1371.83 425.887 1371.75 425.704 1371.68 425.513C1371.61 425.322 1371.36 425.2 1371.17 425.286C1370.98 425.373 1370.87 425.589 1370.95 425.796L1370.94 425.798Z" fill="#6E3B46"/>
<path d="M1377.36 431.262C1378.59 431.631 1379.91 431.683 1381.17 431.455C1382.46 431.222 1383.7 430.711 1384.78 429.944C1385.37 429.519 1385.91 429.01 1386.37 428.438C1386.5 428.278 1386.48 428.008 1386.31 427.883C1386.14 427.759 1385.9 427.775 1385.76 427.945C1385.64 428.1 1385.51 428.251 1385.37 428.394C1385.3 428.466 1385.23 428.534 1385.16 428.602C1385.12 428.648 1385.23 428.537 1385.17 428.594C1385.15 428.61 1385.14 428.626 1385.12 428.642C1385.08 428.678 1385.04 428.717 1385 428.752C1384.71 429.015 1384.4 429.258 1384.07 429.474C1383.88 429.599 1383.69 429.715 1383.49 429.824L1383.58 429.772C1382.92 430.139 1382.2 430.416 1381.46 430.594L1381.57 430.571C1381.03 430.698 1380.48 430.777 1379.93 430.798C1379.8 430.804 1379.66 430.805 1379.53 430.804C1379.5 430.803 1379.47 430.802 1379.43 430.802C1379.42 430.802 1379.4 430.801 1379.39 430.801C1379.31 430.799 1379.49 430.804 1379.41 430.802C1379.35 430.798 1379.28 430.796 1379.21 430.792C1378.94 430.774 1378.67 430.742 1378.39 430.696C1378.09 430.644 1377.79 430.572 1377.49 430.483C1377.4 430.456 1377.27 430.501 1377.2 430.554C1377.12 430.611 1377.05 430.713 1377.04 430.809C1377.03 430.912 1377.05 431.025 1377.11 431.107C1377.18 431.19 1377.26 431.232 1377.37 431.262L1377.36 431.262Z" fill="#6E3B46"/>
<path d="M1382.66 428.499C1382.69 429.025 1382.72 429.551 1382.74 430.078C1382.75 430.285 1382.97 430.461 1383.17 430.432C1383.39 430.401 1383.54 430.222 1383.53 430C1383.5 429.473 1383.47 428.947 1383.44 428.421C1383.43 428.214 1383.21 428.038 1383.01 428.066C1382.79 428.098 1382.65 428.276 1382.66 428.499Z" fill="#6E3B46"/>
<path d="M1373.14 427.967C1372.48 428.388 1371.83 428.81 1371.17 429.23C1371 429.341 1370.96 429.626 1371.09 429.784C1371.23 429.96 1371.45 429.985 1371.64 429.867C1372.29 429.447 1372.95 429.024 1373.61 428.604C1373.78 428.493 1373.82 428.208 1373.69 428.051C1373.55 427.874 1373.33 427.849 1373.14 427.967Z" fill="#6E3B46"/>
<path d="M1376.59 425.022C1377.75 425.045 1378.91 424.36 1379.51 423.369C1379.7 423.057 1379.83 422.732 1379.92 422.375C1379.97 422.173 1379.79 421.946 1379.6 421.922C1379.37 421.895 1379.2 422.033 1379.15 422.248C1379.14 422.289 1379.13 422.327 1379.12 422.366C1379.11 422.404 1379.13 422.306 1379.13 422.313C1379.13 422.322 1379.13 422.331 1379.12 422.339C1379.12 422.36 1379.11 422.381 1379.1 422.4C1379.08 422.477 1379.05 422.55 1379.02 422.625C1378.98 422.699 1378.95 422.77 1378.91 422.84C1378.9 422.858 1378.89 422.872 1378.88 422.89C1378.87 422.904 1378.83 422.974 1378.87 422.91C1378.91 422.846 1378.87 422.91 1378.87 422.922C1378.85 422.94 1378.84 422.958 1378.83 422.976C1378.74 423.109 1378.64 423.237 1378.54 423.357C1378.51 423.386 1378.48 423.415 1378.45 423.444C1378.44 423.458 1378.43 423.47 1378.41 423.485C1378.39 423.514 1378.46 423.439 1378.45 423.446C1378.45 423.459 1378.43 423.469 1378.42 423.477C1378.36 423.532 1378.3 423.584 1378.24 423.635C1378.1 423.75 1377.95 423.85 1377.79 423.939L1377.88 423.888C1377.64 424.019 1377.39 424.117 1377.12 424.18L1377.23 424.156C1376.99 424.213 1376.75 424.239 1376.51 424.233C1376.42 424.231 1376.3 424.308 1376.25 424.381C1376.19 424.453 1376.15 424.57 1376.16 424.666C1376.17 424.768 1376.22 424.872 1376.31 424.935C1376.39 424.999 1376.48 425.019 1376.59 425.021L1376.59 425.022Z" fill="#6E3B46"/>
<path d="M1712.55 497.485C1707.4 511.176 1718.2 514.892 1721.95 515.766C1727.81 517.128 1734.41 517.044 1739.38 513.799C1744.34 510.561 1746.78 503.631 1743.5 498.854C1742.8 497.818 1741.86 496.931 1741.17 495.881C1738.54 491.953 1739.64 486.663 1737.49 482.478C1735.11 477.841 1728.48 475.651 1723.56 477.874C1718.35 480.225 1716.16 486.016 1714.48 491.229C1713.33 494.818 1712.16 498.414 1711 502.003" fill="#90B249"/>
<path d="M1725.77 492.496C1725.54 496.529 1725.33 500.556 1725.1 504.59C1724.88 508.623 1724.66 512.65 1724.44 516.684C1724.31 518.974 1724.19 521.258 1724.06 523.548C1724.04 523.812 1724.35 524.016 1724.61 523.999C1724.92 523.978 1725.07 523.744 1725.09 523.48C1725.31 519.447 1725.53 515.42 1725.75 511.386C1725.97 507.353 1726.19 503.326 1726.41 499.292C1726.54 497.002 1726.67 494.718 1726.79 492.428C1726.81 492.164 1726.5 491.96 1726.24 491.977C1725.93 491.997 1725.78 492.232 1725.77 492.496Z" fill="#6E3B46"/>
<path d="M1721.11 497.207C1721.58 499.58 1723.16 501.642 1725.43 502.774C1726.01 503.062 1726.46 502.193 1725.87 501.899C1723.96 500.942 1722.53 499.158 1722.14 497.139C1722.09 496.88 1721.89 496.669 1721.59 496.688C1721.33 496.705 1721.06 496.948 1721.11 497.207Z" fill="#6E3B46"/>
<path d="M1730.85 505.569C1729.92 508.174 1727.84 510.357 1725.14 511.414C1724.53 511.653 1724.86 512.573 1725.47 512.334C1728.42 511.178 1730.77 508.843 1731.78 505.982C1731.87 505.732 1731.81 505.454 1731.53 505.338C1731.31 505.237 1730.93 505.313 1730.85 505.569Z" fill="#6E3B46"/>
<path d="M1466.5 315.793C1461.51 330.358 1471.98 334.311 1475.62 335.24C1481.32 336.689 1487.72 336.6 1492.54 333.148C1497.36 329.703 1499.73 322.33 1496.55 317.249C1495.86 316.147 1494.95 315.203 1494.28 314.086C1491.73 309.907 1492.8 304.279 1490.71 299.828C1488.4 294.895 1481.97 292.565 1477.19 294.93C1472.13 297.431 1470.01 303.592 1468.38 309.137C1467.26 312.956 1466.12 316.781 1465 320.599" fill="#90B249"/>
<path d="M1479.33 310.485C1479.12 314.776 1478.9 319.06 1478.69 323.351C1478.47 327.642 1478.26 331.926 1478.04 336.217C1477.92 338.653 1477.8 341.083 1477.67 343.519C1477.66 343.8 1477.96 344.017 1478.21 343.999C1478.51 343.977 1478.66 343.728 1478.67 343.447C1478.89 339.156 1479.1 334.872 1479.32 330.581C1479.53 326.29 1479.74 322.006 1479.96 317.715C1480.09 315.278 1480.2 312.849 1480.33 310.412C1480.34 310.132 1480.04 309.915 1479.8 309.933C1479.49 309.955 1479.35 310.204 1479.33 310.485Z" fill="#6E3B46"/>
<path d="M1474.82 315.497C1475.27 318.021 1476.8 320.215 1479.01 321.419C1479.57 321.725 1480 320.801 1479.43 320.488C1477.58 319.47 1476.19 317.572 1475.81 315.425C1475.76 315.149 1475.57 314.924 1475.28 314.945C1475.03 314.963 1474.76 315.221 1474.82 315.497Z" fill="#6E3B46"/>
<path d="M1484.27 324.392C1483.37 327.164 1481.34 329.486 1478.72 330.61C1478.13 330.865 1478.45 331.844 1479.05 331.589C1481.9 330.359 1484.19 327.876 1485.17 324.832C1485.25 324.566 1485.19 324.27 1484.93 324.146C1484.71 324.04 1484.35 324.12 1484.27 324.392Z" fill="#6E3B46"/>
<path d="M104.03 327.878C101.286 328.587 98.4498 329.303 95.6265 328.968C92.8008 328.634 89.9565 326.979 89.2312 324.405C88.4252 321.541 90.3599 318.719 91.6997 316.033C92.7824 313.865 93.5195 311.452 93.1007 309.093C92.6968 306.825 91.2743 304.85 90.2162 302.774C89.1581 300.698 88.4618 298.207 89.5404 296.142C90.1403 294.988 91.2213 294.125 92.0167 293.079C93.7849 290.76 94.0432 287.76 94.8683 285.018C95.6934 282.276 97.6011 279.373 100.625 279.032C104.346 278.614 107.15 282.345 107.735 285.806C108.32 289.268 107.646 292.912 108.852 296.231C109.822 298.904 111.906 301.068 113.58 303.417C115.255 305.766 116.575 308.648 115.744 311.361C115.289 312.845 114.235 314.109 113.69 315.568C112.745 318.1 113.428 320.949 112.631 323.525C111.335 327.715 105.682 330.165 101.426 328.382" fill="#7A9756"/>
<path d="M100.916 293.6C101.034 296.401 101.126 299.2 101.189 302.002C101.252 304.801 101.291 307.599 101.299 310.398C101.309 313.196 101.289 315.997 101.246 318.794C101.202 321.591 101.128 324.412 101.028 327.218C100.928 330.016 100.798 332.812 100.644 335.607C100.625 335.954 100.606 336.302 100.585 336.651C100.561 337.071 101.257 337.135 101.281 336.715C101.444 333.91 101.579 331.103 101.686 328.295C101.793 325.488 101.871 322.679 101.924 319.871C101.978 317.063 102 314.233 101.999 311.413C101.995 308.603 101.966 305.794 101.908 302.987C101.851 300.173 101.765 297.358 101.653 294.545C101.638 294.196 101.624 293.847 101.609 293.499C101.601 293.323 101.38 293.201 101.209 293.227C101.005 293.259 100.912 293.425 100.918 293.602L100.916 293.6Z" fill="#6E3B46"/>
<path d="M96.8381 303.942C97.7731 305.329 98.9345 306.572 100.263 307.642C100.639 307.945 101.029 308.228 101.43 308.5C101.577 308.598 101.814 308.568 101.916 308.421C102.019 308.275 101.991 308.073 101.833 307.967C101.482 307.729 101.139 307.481 100.806 307.222C100.646 307.095 100.488 306.966 100.331 306.833C100.294 306.801 100.257 306.772 100.22 306.74C100.228 306.749 100.139 306.67 100.173 306.7C100.202 306.724 100.145 306.677 100.139 306.67C100.057 306.6 99.976 306.526 99.8968 306.455C99.282 305.893 98.712 305.286 98.1968 304.644C97.9054 304.285 97.6309 303.912 97.3754 303.529C97.2772 303.385 97.0111 303.377 96.8819 303.484C96.7257 303.615 96.7275 303.788 96.8333 303.945L96.8381 303.942Z" fill="#6E3B46"/>
<path d="M104.733 314.312C103.876 315.435 103.019 316.555 102.162 317.678C101.917 317.999 101.672 318.32 101.424 318.642C101.319 318.78 101.351 319.001 101.508 319.097C101.664 319.192 101.881 319.166 101.994 319.019C102.851 317.895 103.708 316.776 104.565 315.652C104.81 315.332 105.055 315.011 105.302 314.689C105.408 314.551 105.376 314.329 105.219 314.234C105.062 314.138 104.846 314.164 104.733 314.312Z" fill="#6E3B46"/>
<path d="M1219.7 525.462C1216.65 526.282 1213.5 527.109 1210.36 526.721C1207.22 526.336 1204.06 524.424 1203.26 521.45C1202.36 518.142 1204.51 514.883 1206 511.779C1207.2 509.275 1208.02 506.488 1207.56 503.763C1207.11 501.143 1205.53 498.862 1204.35 496.463C1203.18 494.065 1202.4 491.188 1203.6 488.801C1204.27 487.469 1205.47 486.471 1206.35 485.263C1208.32 482.585 1208.6 479.119 1209.52 475.952C1210.44 472.784 1212.56 469.431 1215.92 469.037C1220.05 468.554 1223.17 472.864 1223.82 476.863C1224.47 480.861 1223.72 485.071 1225.06 488.904C1226.14 491.993 1228.45 494.492 1230.31 497.206C1232.17 499.919 1233.64 503.249 1232.72 506.382C1232.21 508.097 1231.04 509.556 1230.43 511.243C1229.38 514.167 1230.14 517.458 1229.26 520.434C1227.82 525.274 1221.54 528.104 1216.81 526.045" fill="#7A9756"/>
<path d="M1216.24 485.865C1216.37 489.101 1216.47 492.334 1216.54 495.572C1216.61 498.804 1216.66 502.037 1216.67 505.271C1216.68 508.502 1216.65 511.738 1216.61 514.969C1216.56 518.2 1216.48 521.459 1216.36 524.701C1216.25 527.933 1216.11 531.162 1215.94 534.391C1215.92 534.792 1215.9 535.194 1215.87 535.597C1215.85 536.082 1216.62 536.156 1216.65 535.671C1216.83 532.431 1216.98 529.188 1217.1 525.945C1217.21 522.701 1217.3 519.457 1217.36 516.213C1217.42 512.969 1217.44 509.7 1217.44 506.442C1217.44 503.197 1217.41 499.951 1217.34 496.71C1217.28 493.458 1217.18 490.207 1217.06 486.957C1217.04 486.554 1217.03 486.151 1217.01 485.749C1217 485.546 1216.76 485.405 1216.57 485.435C1216.34 485.471 1216.24 485.663 1216.24 485.868L1216.24 485.865Z" fill="#6E3B46"/>
<path d="M1211.71 497.812C1212.75 499.414 1214.04 500.851 1215.51 502.087C1215.93 502.436 1216.37 502.763 1216.81 503.077C1216.97 503.191 1217.24 503.156 1217.35 502.987C1217.47 502.817 1217.43 502.584 1217.26 502.462C1216.87 502.187 1216.49 501.901 1216.12 501.601C1215.94 501.454 1215.76 501.306 1215.59 501.152C1215.55 501.115 1215.51 501.082 1215.47 501.044C1215.48 501.055 1215.38 500.964 1215.42 500.999C1215.45 501.026 1215.38 500.972 1215.38 500.964C1215.29 500.883 1215.2 500.798 1215.11 500.715C1214.42 500.066 1213.79 499.365 1213.22 498.623C1212.89 498.208 1212.59 497.778 1212.31 497.335C1212.2 497.169 1211.9 497.16 1211.76 497.283C1211.58 497.435 1211.59 497.634 1211.7 497.816L1211.71 497.812Z" fill="#6E3B46"/>
<path d="M1220.48 509.791C1219.53 511.089 1218.58 512.382 1217.62 513.68C1217.35 514.05 1217.08 514.421 1216.8 514.793C1216.69 514.953 1216.72 515.208 1216.9 515.319C1217.07 515.429 1217.31 515.399 1217.44 515.228C1218.39 513.931 1219.34 512.638 1220.29 511.34C1220.57 510.969 1220.84 510.599 1221.11 510.226C1221.23 510.067 1221.2 509.811 1221.02 509.701C1220.85 509.591 1220.61 509.621 1220.48 509.791Z" fill="#6E3B46"/>
<path d="M607.597 364C604.884 364.533 602.254 366.055 601.327 368.633C600.503 370.921 600.759 373.452 600.142 375.797C599.199 379.373 596.397 382.107 594.15 385.056C591.902 388.005 590.09 391.882 591.493 395.299C592.463 397.657 594.855 399.44 595.057 401.96C595.212 403.926 593.98 405.708 593.414 407.597C592.283 411.312 593.86 415.502 596.732 418.127C599.603 420.753 603.57 421.986 607.476 422.187C611.306 422.397 615.337 421.602 618.298 419.185C621.26 416.768 622.838 412.496 621.349 408.991C620.483 406.96 618.702 405.295 618.33 403.13C617.377 397.594 625.87 392.962 623.618 387.797C622.815 385.94 620.849 384.901 619.482 383.416C617.414 381.171 616.806 378.016 616.306 375.014C615.816 372.023 615.296 368.87 613.373 366.508C611.449 364.146 607.59 363.045 605.281 365.049" fill="#D8D86E"/>
<path d="M605.971 379.108C605.944 387.102 605.907 395.108 605.859 403.102C605.811 411.096 605.783 419.134 605.746 427.161C605.73 431.641 605.704 436.132 605.689 440.612C605.692 441.122 606.48 441.133 606.477 440.623C606.503 432.651 606.54 424.689 606.577 416.727C606.613 408.765 606.652 400.673 606.69 392.647C606.706 388.145 606.732 383.632 606.748 379.131C606.745 378.621 605.957 378.609 605.96 379.119L605.971 379.108Z" fill="#6E3B46"/>
<path d="M602.844 385.764C603.82 387.775 604.829 389.776 605.816 391.776C606.039 392.224 606.735 391.855 606.523 391.396C605.547 389.385 604.538 387.385 603.551 385.385C603.328 384.936 602.633 385.305 602.844 385.764Z" fill="#6E3B46"/>
<path d="M606.678 409.558C610.567 407.383 613.091 403.506 614.023 399.235C614.129 398.748 613.366 398.52 613.26 399.028C612.364 403.093 610.006 406.789 606.295 408.858C605.853 409.112 606.225 409.801 606.678 409.558Z" fill="#6E3B46"/>
<path d="M230.848 504.367C229.897 505.276 228.657 505.822 227.581 506.586C225.402 508.137 223.924 510.722 224.002 513.38C224.083 516.037 225.863 518.646 228.423 519.446C231.169 520.305 234.102 519.1 236.979 518.993C242.593 518.786 247.898 522.774 253.439 521.865C257.334 521.227 260.613 518.239 264.552 517.986C267.041 517.825 269.476 518.787 271.969 518.835C275.965 518.908 279.884 516.376 281.427 512.72C282.122 511.075 282.314 509.049 281.261 507.603C280.393 506.409 278.88 505.859 277.82 504.83C275.974 503.036 275.829 500.205 275.359 497.683C274.888 495.163 273.472 492.304 270.898 492.07C268.26 491.83 265.861 494.569 263.305 493.868C261.797 493.453 260.888 491.994 259.809 490.872C257.041 487.993 252.337 487.161 248.736 488.913C244.533 490.96 244.527 495.742 236.719 495.326C228.912 494.911 232.641 502.66 230.853 504.371L230.848 504.367Z" fill="#8BB546"/>
<path d="M251.169 498.938C251.281 500.936 251.393 502.935 251.503 504.937C251.613 506.938 251.724 508.912 251.835 510.903L252.024 514.274C252.037 514.526 252.303 514.739 252.554 514.705C252.823 514.666 253.003 514.45 252.988 514.179C252.877 512.181 252.765 510.183 252.655 508.181C252.544 506.193 252.434 504.205 252.323 502.215C252.26 501.09 252.199 499.967 252.134 498.843C252.121 498.592 251.855 498.378 251.604 498.413C251.335 498.451 251.154 498.668 251.169 498.938Z" fill="#6E3B46"/>
<path d="M244.901 503.54C245.294 504.583 246.008 505.502 246.894 506.184C247.78 506.864 248.844 507.331 249.954 507.496C250.575 507.588 251.219 507.588 251.837 507.478C251.965 507.454 252.083 507.403 252.167 507.299C252.239 507.21 252.288 507.069 252.271 506.952C252.237 506.712 252.01 506.475 251.741 506.522C251.512 506.562 251.281 506.589 251.048 506.599C250.932 506.604 250.818 506.606 250.701 506.603C250.687 506.603 250.671 506.604 250.656 506.601C250.656 506.601 250.787 506.607 250.712 506.602C250.686 506.601 250.658 506.6 250.632 506.599C250.575 506.596 250.517 506.593 250.459 506.587C250.226 506.567 249.997 506.535 249.77 506.485C249.656 506.461 249.542 506.435 249.431 506.402C249.4 506.394 249.371 506.386 249.342 506.377C249.267 506.356 249.464 506.414 249.361 506.381C249.306 506.363 249.249 506.346 249.194 506.328C248.974 506.253 248.757 506.165 248.547 506.067C248.441 506.018 248.339 505.965 248.236 505.91C248.186 505.881 248.133 505.854 248.085 505.825C248.063 505.811 248.038 505.798 248.016 505.784C247.99 505.769 247.941 505.738 248.063 505.811C248.048 505.803 248.037 505.796 248.023 505.787C247.627 505.543 247.259 505.254 246.932 504.926C246.922 504.916 246.909 504.904 246.9 504.894C246.845 504.84 246.971 504.967 246.93 504.927C246.909 504.904 246.887 504.882 246.867 504.859C246.823 504.812 246.778 504.762 246.735 504.715C246.649 504.616 246.567 504.514 246.487 504.41C246.33 504.202 246.186 503.981 246.061 503.753L246.124 503.866C246.006 503.649 245.903 503.426 245.816 503.194C245.729 502.962 245.429 502.814 245.191 502.919C244.954 503.024 244.82 503.287 244.914 503.538L244.901 503.54Z" fill="#6E3B46"/>
<path d="M252.83 510.175C254.342 510.624 255.975 510.687 257.527 510.41C259.124 510.127 260.655 509.507 261.978 508.575C262.712 508.059 263.383 507.44 263.952 506.746C264.112 506.551 264.086 506.224 263.876 506.073C263.665 505.921 263.366 505.941 263.196 506.148C263.041 506.335 262.882 506.519 262.71 506.693C262.629 506.78 262.543 506.863 262.457 506.946C262.4 507.001 262.541 506.866 262.467 506.936C262.447 506.955 262.426 506.974 262.403 506.994C262.355 507.038 262.305 507.084 262.258 507.128C261.898 507.446 261.511 507.741 261.107 508.004C260.877 508.156 260.639 508.297 260.395 508.429L260.508 508.367C259.685 508.812 258.803 509.148 257.892 509.365L258.019 509.336C257.356 509.491 256.682 509.586 256.002 509.611C255.837 509.619 255.671 509.621 255.508 509.619C255.465 509.618 255.425 509.617 255.383 509.616C255.366 509.617 255.349 509.615 255.335 509.615C255.238 509.613 255.457 509.619 255.36 509.616C255.277 509.612 255.195 509.61 255.114 509.604C254.776 509.583 254.438 509.544 254.104 509.488C253.728 509.425 253.357 509.338 252.991 509.229C252.88 509.196 252.713 509.252 252.626 509.316C252.532 509.385 252.45 509.508 252.436 509.625C252.42 509.751 252.442 509.887 252.523 509.988C252.604 510.088 252.706 510.138 252.835 510.175L252.83 510.175Z" fill="#6E3B46"/>
<path d="M259.365 506.82C259.4 507.459 259.437 508.098 259.471 508.737C259.484 508.989 259.75 509.202 260.001 509.168C260.27 509.129 260.45 508.913 260.435 508.643C260.401 508.003 260.364 507.365 260.33 506.725C260.317 506.474 260.051 506.26 259.8 506.295C259.531 506.333 259.35 506.55 259.365 506.82Z" fill="#6E3B46"/>
<path d="M247.622 506.175C246.81 506.685 246 507.198 245.188 507.708C244.973 507.843 244.93 508.188 245.086 508.38C245.262 508.594 245.533 508.625 245.764 508.481C246.575 507.971 247.386 507.458 248.197 506.948C248.412 506.813 248.455 506.467 248.299 506.276C248.123 506.061 247.853 506.031 247.622 506.175Z" fill="#6E3B46"/>
<path d="M251.875 502.598C253.306 502.626 254.735 501.794 255.475 500.591C255.71 500.212 255.881 499.818 255.985 499.385C256.045 499.139 255.831 498.863 255.586 498.834C255.309 498.801 255.093 498.969 255.031 499.23C255.019 499.279 255.007 499.326 254.994 499.372C254.981 499.419 255.016 499.3 255.014 499.309C255.01 499.319 255.008 499.331 255.004 499.341C254.997 499.366 254.987 499.392 254.979 499.414C254.948 499.507 254.912 499.596 254.871 499.687C254.83 499.778 254.788 499.864 254.739 499.949C254.728 499.97 254.718 499.988 254.706 500.009C254.696 500.027 254.645 500.111 254.693 500.034C254.742 499.956 254.693 500.034 254.685 500.048C254.671 500.07 254.657 500.092 254.643 500.114C254.534 500.276 254.412 500.431 254.28 500.576C254.246 500.611 254.211 500.647 254.177 500.682C254.161 500.699 254.145 500.714 254.129 500.731C254.092 500.767 254.186 500.676 254.178 500.685C254.167 500.7 254.15 500.712 254.137 500.723C254.064 500.789 253.987 500.852 253.913 500.914C253.737 501.054 253.55 501.175 253.353 501.284L253.467 501.221C253.174 501.38 252.861 501.499 252.536 501.576L252.663 501.547C252.374 501.615 252.08 501.647 251.782 501.64C251.665 501.637 251.522 501.731 251.452 501.819C251.382 501.907 251.33 502.05 251.347 502.166C251.365 502.29 251.422 502.416 251.528 502.493C251.634 502.57 251.744 502.594 251.877 502.597L251.875 502.598Z" fill="#6E3B46"/>
<path d="M1002.02 293.441C1001.18 294.244 1000.09 294.725 999.149 295.399C997.233 296.768 995.933 299.049 996.002 301.394C996.073 303.739 997.638 306.04 999.889 306.746C1002.3 307.505 1004.88 306.441 1007.41 306.346C1012.35 306.164 1017.01 309.683 1021.89 308.881C1025.31 308.318 1028.19 305.682 1031.66 305.458C1033.85 305.317 1035.99 306.165 1038.18 306.207C1041.69 306.272 1045.14 304.037 1046.5 300.812C1047.11 299.36 1047.28 297.573 1046.35 296.296C1045.59 295.243 1044.26 294.758 1043.32 293.85C1041.7 292.267 1041.57 289.769 1041.16 287.544C1040.75 285.321 1039.5 282.798 1037.24 282.592C1034.92 282.38 1032.81 284.796 1030.56 284.178C1029.24 283.812 1028.44 282.524 1027.49 281.534C1025.05 278.994 1020.92 278.26 1017.75 279.806C1014.06 281.612 1014.05 285.831 1007.18 285.464C1000.32 285.098 1003.6 291.935 1002.03 293.445L1002.02 293.441Z" fill="#8BB546"/>
<path d="M1019.89 288.651C1019.99 290.414 1020.09 292.178 1020.18 293.944C1020.28 295.71 1020.38 297.452 1020.48 299.208L1020.64 302.183C1020.65 302.405 1020.89 302.593 1021.11 302.563C1021.34 302.529 1021.5 302.338 1021.49 302.1C1021.39 300.336 1021.29 298.573 1021.2 296.807C1021.1 295.053 1021 293.299 1020.9 291.543C1020.85 290.55 1020.8 289.559 1020.74 288.568C1020.73 288.346 1020.49 288.157 1020.27 288.188C1020.04 288.222 1019.88 288.413 1019.89 288.651Z" fill="#6E3B46"/>
<path d="M1014.38 292.712C1014.72 293.632 1015.35 294.443 1016.13 295.045C1016.91 295.645 1017.85 296.057 1018.82 296.203C1019.37 296.284 1019.93 296.284 1020.48 296.186C1020.59 296.165 1020.69 296.121 1020.77 296.029C1020.83 295.95 1020.87 295.825 1020.86 295.723C1020.83 295.51 1020.63 295.301 1020.39 295.343C1020.19 295.378 1019.99 295.402 1019.78 295.411C1019.68 295.416 1019.58 295.417 1019.48 295.415C1019.47 295.414 1019.45 295.415 1019.44 295.413C1019.44 295.413 1019.55 295.418 1019.49 295.413C1019.47 295.412 1019.44 295.412 1019.42 295.411C1019.37 295.408 1019.32 295.405 1019.27 295.4C1019.06 295.383 1018.86 295.354 1018.66 295.31C1018.56 295.289 1018.46 295.266 1018.36 295.237C1018.33 295.23 1018.31 295.223 1018.28 295.215C1018.22 295.196 1018.39 295.248 1018.3 295.219C1018.25 295.203 1018.2 295.188 1018.15 295.172C1017.96 295.105 1017.77 295.028 1017.58 294.941C1017.49 294.898 1017.4 294.852 1017.31 294.803C1017.27 294.778 1017.22 294.754 1017.18 294.728C1017.16 294.716 1017.14 294.704 1017.12 294.692C1017.09 294.679 1017.05 294.651 1017.16 294.716C1017.15 294.708 1017.14 294.702 1017.12 294.695C1016.78 294.479 1016.45 294.224 1016.16 293.935C1016.16 293.926 1016.14 293.916 1016.14 293.907C1016.09 293.859 1016.2 293.971 1016.16 293.936C1016.14 293.916 1016.12 293.896 1016.11 293.876C1016.07 293.834 1016.03 293.79 1015.99 293.748C1015.92 293.661 1015.84 293.571 1015.77 293.48C1015.64 293.296 1015.51 293.101 1015.4 292.9L1015.45 292.999C1015.35 292.808 1015.26 292.611 1015.18 292.407C1015.11 292.202 1014.84 292.072 1014.63 292.164C1014.42 292.256 1014.31 292.488 1014.39 292.71L1014.38 292.712Z" fill="#6E3B46"/>
<path d="M1021.35 298.566C1022.68 298.962 1024.12 299.018 1025.48 298.773C1026.89 298.524 1028.23 297.976 1029.39 297.155C1030.04 296.699 1030.63 296.153 1031.13 295.541C1031.27 295.369 1031.25 295.08 1031.06 294.946C1030.88 294.813 1030.62 294.83 1030.47 295.013C1030.33 295.178 1030.19 295.34 1030.04 295.494C1029.97 295.57 1029.89 295.644 1029.82 295.717C1029.77 295.766 1029.89 295.647 1029.82 295.708C1029.81 295.725 1029.79 295.742 1029.77 295.76C1029.73 295.798 1029.68 295.839 1029.64 295.877C1029.32 296.158 1028.98 296.419 1028.63 296.651C1028.43 296.785 1028.22 296.909 1028 297.026L1028.1 296.971C1027.38 297.363 1026.6 297.66 1025.8 297.851L1025.91 297.826C1025.33 297.963 1024.74 298.047 1024.14 298.069C1023.99 298.075 1023.85 298.077 1023.7 298.075C1023.67 298.075 1023.63 298.074 1023.6 298.073C1023.58 298.074 1023.57 298.072 1023.55 298.072C1023.47 298.07 1023.66 298.075 1023.58 298.073C1023.5 298.069 1023.43 298.068 1023.36 298.063C1023.06 298.044 1022.76 298.01 1022.47 297.96C1022.14 297.904 1021.81 297.827 1021.49 297.732C1021.39 297.703 1021.25 297.751 1021.17 297.808C1021.09 297.869 1021.02 297.978 1021 298.081C1020.99 298.192 1021.01 298.312 1021.08 298.401C1021.15 298.489 1021.24 298.534 1021.36 298.566L1021.35 298.566Z" fill="#6E3B46"/>
<path d="M1027.1 295.606C1027.13 296.17 1027.16 296.733 1027.19 297.297C1027.2 297.519 1027.44 297.708 1027.66 297.678C1027.89 297.644 1028.05 297.453 1028.04 297.214C1028.01 296.65 1027.98 296.087 1027.95 295.522C1027.93 295.3 1027.7 295.112 1027.48 295.142C1027.24 295.176 1027.08 295.367 1027.1 295.606Z" fill="#6E3B46"/>
<path d="M1016.77 295.036C1016.06 295.487 1015.34 295.939 1014.63 296.389C1014.44 296.509 1014.4 296.813 1014.54 296.982C1014.7 297.172 1014.93 297.199 1015.14 297.072C1015.85 296.621 1016.56 296.169 1017.28 295.719C1017.47 295.6 1017.5 295.295 1017.37 295.126C1017.21 294.937 1016.97 294.909 1016.77 295.036Z" fill="#6E3B46"/>
<path d="M1020.51 291.88C1021.77 291.905 1023.03 291.171 1023.68 290.11C1023.88 289.775 1024.03 289.427 1024.13 289.045C1024.18 288.828 1023.99 288.585 1023.77 288.56C1023.53 288.53 1023.34 288.679 1023.29 288.909C1023.28 288.952 1023.26 288.993 1023.25 289.035C1023.24 289.076 1023.27 288.97 1023.27 288.978C1023.27 288.987 1023.27 288.998 1023.26 289.006C1023.26 289.029 1023.25 289.052 1023.24 289.071C1023.21 289.153 1023.18 289.232 1023.15 289.312C1023.11 289.392 1023.07 289.468 1023.03 289.543C1023.02 289.562 1023.01 289.578 1023 289.596C1022.99 289.612 1022.95 289.686 1022.99 289.618C1023.03 289.55 1022.99 289.618 1022.98 289.631C1022.97 289.65 1022.96 289.669 1022.94 289.689C1022.85 289.831 1022.74 289.969 1022.63 290.097C1022.6 290.128 1022.57 290.159 1022.54 290.19C1022.52 290.205 1022.51 290.218 1022.49 290.233C1022.46 290.265 1022.54 290.185 1022.54 290.192C1022.53 290.206 1022.51 290.217 1022.5 290.226C1022.44 290.285 1022.37 290.34 1022.3 290.395C1022.15 290.518 1021.98 290.625 1021.81 290.721L1021.91 290.665C1021.65 290.806 1021.38 290.911 1021.09 290.979L1021.2 290.953C1020.95 291.014 1020.69 291.041 1020.43 291.036C1020.33 291.033 1020.2 291.116 1020.14 291.193C1020.08 291.271 1020.03 291.397 1020.05 291.499C1020.06 291.609 1020.11 291.72 1020.21 291.788C1020.3 291.856 1020.4 291.877 1020.51 291.879L1020.51 291.88Z" fill="#6E3B46"/>
</g>
</svg>
