<svg width="1922" height="108" viewBox="0 0 1922 108" fill="none" xmlns="http://www.w3.org/2000/svg">
<path d="M1921.27 107.5C1288.03 107.5 1209.2 107.5 0.77372 107.5C0.773398 86.4996 -0.831932 80.4373 0.583054 69.3898C1.62326 61.241 0.583054 52.8687 0.583054 44.5889C20.7217 45.884 44.4507 36.8487 60.528 26.4796C87.0456 9.38033 115.215 12.1865 138.23 33.3024C165.726 58.535 189.888 63.23 224.009 46.9942C256.01 31.7605 287.01 32.4852 318.988 46.1539C346.684 57.9954 374.066 58.0493 400.04 40.8961C413.028 32.3156 426.994 25.1613 442.834 25.1768C464.992 25.1999 486.278 20.2505 507.908 17.0666C531.198 13.6359 554.083 13.8749 571.873 32.3387C597.037 58.4502 627.234 57.4711 658.937 48.2739C670.892 44.8047 682.8 39.7242 695.168 39.9787C718.626 40.4643 738.402 43.7485 755.458 28.7539C770.863 15.2086 780.544 15.1778 800.951 17.1128C848.969 21.669 905.168 10.2515 953.17 15.3011C974.716 17.5677 993.677 22.147 1010.66 36.0315C1043.39 62.7751 1069.41 60.1077 1096.89 28.7539C1107.77 16.3496 1119.41 5.1171 1137.61 4.30762C1161.47 3.24373 1185.33 1.96399 1209.2 1.13138C1229.15 0.437539 1249.09 0.64568 1268.37 6.92107C1282.72 11.5929 1340.8 2.21831 1355.86 1.13129C1412.44 -2.94694 1425.69 5.22503 1482.51 6.63583C1501.16 7.09839 1516.15 13.05 1529.35 25.5622C1560.23 54.8191 1586.81 54.5262 1617.29 25.1382C1649.46 -5.88413 1677.26 -4.73545 1705.37 29.7407C1718.54 45.8994 1734.98 53.5779 1755.75 53.5548C1779.67 53.5317 1803.6 53.0537 1827.49 53.9017C1846.37 54.5724 1861.3 48.3201 1873.81 34.7363C1881.45 26.4565 1889.22 18.0842 1899.47 12.6028C1914.61 4.51576 1920.81 16.5 1920.81 24.1591C1921.15 43.6252 1921.27 73.5 1921.27 107.5H1921.27Z" fill="#F5F3B2"/>
</svg>
