<?xml version="1.0" encoding="utf-8"?>
<!-- Generator: Adobe Illustrator 27.0.0, SVG Export Plug-In . SVG Version: 6.00 Build 0)  -->
<svg version="1.1" id="圖層_1" xmlns="http://www.w3.org/2000/svg" xmlns:xlink="http://www.w3.org/1999/xlink" x="0px" y="0px"
	 viewBox="0 0 42 42" style="enable-background:new 0 0 42 42;" xml:space="preserve">
<style type="text/css">
	.st0{fill:#D9D9D9;filter:url(#Adobe_OpacityMaskFilter);}
	.st1{mask:url(#mask0_289_799_00000043453696085682236000000000961347035717781134_);}
	.st2{clip-path:url(#SVGID_00000086681792673100091070000017543487701570676140_);}
	.st3{fill-rule:evenodd;clip-rule:evenodd;fill:#91BAE8;}
</style>
<defs>
	<filter id="Adobe_OpacityMaskFilter" filterUnits="userSpaceOnUse">
		<feColorMatrix  type="matrix" values="1 0 0 0 0  0 1 0 0 0  0 0 1 0 0  0 0 0 1 0"/>
	</filter>
</defs>
<mask maskUnits="userSpaceOnUse" id="mask0_289_799_00000043453696085682236000000000961347035717781134_">
	<rect class="st0" width="42" height="42"/>
</mask>
<g class="st1">
</g>
<g>
	<defs>
		<rect id="SVGID_1_" x="3.3" y="3.3" width="35.4" height="35.4"/>
	</defs>
	<clipPath id="SVGID_00000007426758085658523170000013195656655924316345_">
		<use xlink:href="#SVGID_1_"  style="overflow:visible;"/>
	</clipPath>
	<g style="clip-path:url(#SVGID_00000007426758085658523170000013195656655924316345_);">
		<path class="st3" d="M11.6,23.4c2.2,0,4.3-0.9,5.8-2.4c1.5-1.5,2.4-3.6,2.4-5.8c0-0.1,0-0.2-0.1-0.4c0-0.1-0.1-0.2-0.2-0.3
			c-0.1-0.1-0.2-0.2-0.3-0.2c-0.1,0-0.2-0.1-0.4-0.1h-6.4V7.9c0-0.2-0.1-0.5-0.3-0.7C12,7.1,11.8,7,11.6,7c-1.1,0-2.2,0.2-3.2,0.6
			c-1,0.4-1.9,1-2.7,1.8C5,10.1,4.4,11,3.9,12c-0.4,1-0.6,2.1-0.6,3.2s0.2,2.2,0.6,3.2c0.4,1,1,1.9,1.8,2.7c0.8,0.8,1.7,1.4,2.7,1.8
			C9.4,23.2,10.5,23.4,11.6,23.4z M25.5,9.1c0,0.1,0,0.2,0.1,0.4c0,0.1,0.1,0.2,0.2,0.3c0.1,0.1,0.2,0.2,0.3,0.2
			c0.1,0,0.2,0.1,0.4,0.1h9.1c0.2,0,0.5-0.1,0.7-0.3s0.3-0.4,0.3-0.7s-0.1-0.5-0.3-0.7s-0.4-0.3-0.7-0.3h-9.1c-0.1,0-0.2,0-0.4,0.1
			c-0.1,0-0.2,0.1-0.3,0.2c-0.1,0.1-0.2,0.2-0.2,0.3C25.5,8.9,25.5,9,25.5,9.1z M25.5,4.2c0,0.1,0,0.2,0.1,0.4
			c0,0.1,0.1,0.2,0.2,0.3C25.8,5,25.9,5.1,26,5.1c0.1,0,0.2,0.1,0.4,0.1h9.1c0.2,0,0.5-0.1,0.7-0.3c0.2-0.2,0.3-0.4,0.3-0.7
			c0-0.2-0.1-0.5-0.3-0.7c-0.2-0.2-0.4-0.3-0.7-0.3h-9.1c-0.1,0-0.2,0-0.4,0.1c-0.1,0-0.2,0.1-0.3,0.2c-0.1,0.1-0.2,0.2-0.2,0.3
			C25.5,4,25.5,4.1,25.5,4.2z M37.8,36.8c0.2,0,0.5,0.1,0.7,0.3c0.2,0.2,0.3,0.4,0.3,0.7c0,0.2-0.1,0.5-0.3,0.7
			c-0.2,0.2-0.4,0.3-0.7,0.3H6.2c-0.2,0-0.5-0.1-0.7-0.3c-0.2-0.2-0.3-0.4-0.3-0.7c0-0.2,0.1-0.5,0.3-0.7c0.2-0.2,0.4-0.3,0.7-0.3
			h1.9v-8.2c0-0.1,0-0.2,0.1-0.4c0-0.1,0.1-0.2,0.2-0.3c0.1-0.1,0.2-0.2,0.3-0.2c0.1,0,0.2-0.1,0.4-0.1h5.3c0.1,0,0.2,0,0.4,0.1
			c0.1,0,0.2,0.1,0.3,0.2c0.1,0.1,0.2,0.2,0.2,0.3c0,0.1,0.1,0.2,0.1,0.4v8.2h2.8V23.7c0-0.2,0.1-0.5,0.3-0.7
			c0.2-0.2,0.4-0.3,0.7-0.3h5.3c0.1,0,0.2,0,0.4,0.1c0.1,0,0.2,0.1,0.3,0.2c0.1,0.1,0.2,0.2,0.2,0.3c0,0.1,0.1,0.2,0.1,0.4v13.1h2.8
			V16.1c0-0.1,0-0.2,0.1-0.4c0-0.1,0.1-0.2,0.2-0.3c0.1-0.1,0.2-0.2,0.3-0.2c0.1,0,0.2-0.1,0.4-0.1h5.3c0.2,0,0.5,0.1,0.7,0.3
			c0.2,0.2,0.3,0.4,0.3,0.7v20.7H37.8z M15.2,3.3c2.2,0,4.3,0.9,5.8,2.4c1.5,1.5,2.4,3.6,2.4,5.8c0,0.1,0,0.2-0.1,0.4
			s-0.1,0.2-0.2,0.3c-0.1,0.1-0.2,0.2-0.3,0.2c-0.1,0-0.2,0.1-0.4,0.1h-7.3c-0.1,0-0.2,0-0.4-0.1c-0.1,0-0.2-0.1-0.3-0.2
			c-0.1-0.1-0.2-0.2-0.2-0.3c0-0.1-0.1-0.2-0.1-0.4V4.2c0-0.1,0-0.2,0.1-0.4c0-0.1,0.1-0.2,0.2-0.3c0.1-0.1,0.2-0.2,0.3-0.2
			C15,3.3,15.1,3.3,15.2,3.3z"/>
	</g>
</g>
</svg>
