<?xml version="1.0" encoding="utf-8"?>
<!-- Generator: Adobe Illustrator 27.0.0, SVG Export Plug-In . SVG Version: 6.00 Build 0)  -->
<svg version="1.1" id="圖層_1" xmlns="http://www.w3.org/2000/svg" xmlns:xlink="http://www.w3.org/1999/xlink" x="0px" y="0px"
	 viewBox="0 0 42 42" style="enable-background:new 0 0 42 42;" xml:space="preserve">
<style type="text/css">
	.st0{fill:#D9D9D9;filter:url(#Adobe_OpacityMaskFilter);}
	.st1{mask:url(#mask0_289_754_00000070092094445783641700000005582862355689361032_);}
	.st2{fill:#91BAE8;}
</style>
<defs>
	<filter id="Adobe_OpacityMaskFilter" filterUnits="userSpaceOnUse" x="2" y="2" width="38" height="37">
		<feColorMatrix  type="matrix" values="1 0 0 0 0  0 1 0 0 0  0 0 1 0 0  0 0 0 1 0"/>
	</filter>
</defs>
<mask maskUnits="userSpaceOnUse" x="2" y="2" width="38" height="37" id="mask0_289_754_00000070092094445783641700000005582862355689361032_">
	<rect class="st0" width="42" height="42"/>
</mask>
<g class="st1">
	<path class="st2" d="M6.4,20.6H3c-0.6,0-1-0.4-1-1c0-0.5,0.5-1,1-1h3.4c0.6,0,1,0.4,1,1C7.5,20.1,7,20.6,6.4,20.6z"/>
	<path class="st2" d="M39,20.6h-3.4c-0.6,0-1-0.4-1-1c0-0.5,0.5-1,1-1H39c0.6,0,1,0.4,1,1C40,20.1,39.5,20.6,39,20.6z"/>
	<path class="st2" d="M10.7,11c-0.3,0-0.5-0.1-0.7-0.3L7.6,8.5c-0.4-0.4-0.4-1,0-1.3C8,6.8,8.6,6.8,9,7.2l2.4,2.2
		c0.4,0.4,0.4,1,0,1.3C11.2,10.9,11,11,10.7,11z"/>
	<path class="st2" d="M33.7,32.3c-0.3,0-0.5-0.1-0.7-0.3c-0.9-0.9-1.5-1.4-2.4-2.2c-0.4-0.4-0.4-1,0-1.3c0.4-0.4,1.1-0.4,1.5,0
		l2.4,2.2c0.4,0.4,0.4,1,0,1.3C34.2,32.2,34,32.3,33.7,32.3z"/>
	<path class="st2" d="M21,7.1c-0.6,0-1-0.4-1-1V3c0-0.5,0.5-1,1-1s1,0.4,1,1v3.1C22,6.6,21.6,7.1,21,7.1z"/>
	<path class="st2" d="M31.3,11c-0.3,0-0.5-0.1-0.7-0.3c-0.4-0.4-0.4-1,0-1.3S33,7.2,33,7.2c0.4-0.4,1.1-0.4,1.5,0s0.4,1,0,1.3
		L32,10.7C31.8,10.9,31.6,11,31.3,11z"/>
	<path class="st2" d="M8.3,32.3c-0.3,0-0.5-0.1-0.7-0.3c-0.4-0.4-0.4-1,0-1.3l2.4-2.2c0.4-0.4,1.1-0.4,1.5,0c0.4,0.4,0.4,1,0,1.3
		L9,32.1C8.8,32.2,8.6,32.3,8.3,32.3z"/>
	<path class="st2" d="M31.7,19.6c0,2.7-1.2,5.2-3.3,7.1c0,0,0,0,0,0c-1.2,1-1.8,2.5-1.6,4.2c0,0.3-0.1,0.5-0.3,0.7
		C26.3,31.9,26,32,25.7,32H21c0.6,0,1-0.4,1-1v-9.1c1.2-0.2,2.2-0.7,3.1-1.5c0.4-0.4,0.4-1,0-1.3c-0.4-0.4-1-0.4-1.5,0
		c-0.7,0.7-1.7,1-2.7,1s-2-0.4-2.7-1c-0.4-0.4-1-0.4-1.5,0c-0.4,0.4-0.4,1,0,1.3c0.8,0.8,1.9,1.3,3.1,1.5V31c0,0.5,0.5,1,1,1h-4.7
		c-0.3,0-0.6-0.1-0.8-0.3c-0.2-0.2-0.3-0.5-0.3-0.7c0.1-1.7-0.5-3.2-1.6-4.2c0,0,0,0,0,0c-2.1-1.9-3.3-4.4-3.3-7.1
		c-0.1-5.4,4.7-9.9,10.5-10c2.9,0,5.6,1,7.6,2.9C30.5,14.5,31.7,16.9,31.7,19.6z"/>
	<path class="st2" d="M25.7,32.9h-9.4c-0.6,0-1,0.4-1,1v2.2c0,1.6,1.4,2.9,3.1,2.9h5.2c1.7,0,3.1-1.3,3.1-2.9v-2.2
		C26.7,33.4,26.3,32.9,25.7,32.9z"/>
</g>
</svg>
