<?xml version="1.0" encoding="utf-8"?>
<!-- Generator: Adobe Illustrator 27.0.0, SVG Export Plug-In . SVG Version: 6.00 Build 0)  -->
<svg version="1.1" id="圖層_1" xmlns="http://www.w3.org/2000/svg" xmlns:xlink="http://www.w3.org/1999/xlink" x="0px" y="0px"
	 viewBox="0 0 42 42" style="enable-background:new 0 0 42 42;" xml:space="preserve">
<style type="text/css">
	.st0{fill:#D9D9D9;filter:url(#Adobe_OpacityMaskFilter);}
	.st1{mask:url(#mask0_289_765_00000178177080979788595340000008897492215528240044_);}
	.st2{fill:#91BAE8;}
</style>
<defs>
	<filter id="Adobe_OpacityMaskFilter" filterUnits="userSpaceOnUse" x="4.4" y="4.4" width="34.3" height="34.3">
		<feColorMatrix  type="matrix" values="1 0 0 0 0  0 1 0 0 0  0 0 1 0 0  0 0 0 1 0"/>
	</filter>
</defs>
<mask maskUnits="userSpaceOnUse" x="4.4" y="4.4" width="34.3" height="34.3" id="mask0_289_765_00000178177080979788595340000008897492215528240044_">
	<rect class="st0" width="42" height="42"/>
</mask>
<g class="st1">
	<path class="st2" d="M23.9,20.9c-0.3-0.2-0.4-0.5-0.4-0.8l0-2.1l-1.7,1.3c-0.3,0.2-0.6,0.2-0.9,0.1l-2-0.7l0.7,2
		c0.1,0.3,0.1,0.7-0.1,0.9l-1.3,1.7l2.1,0c0,0,0,0,0,0c0.3,0,0.6,0.2,0.8,0.4l1.2,1.7l0.6-2c0.1-0.3,0.3-0.6,0.7-0.7l2-0.6
		L23.9,20.9z"/>
	<path class="st2" d="M13.2,11.8c-0.4-0.4-1-0.4-1.4,0c-0.4,0.4-0.4,1,0,1.4c0.4,0.4,1,0.4,1.4,0c0,0,0,0,0,0
		C13.6,12.8,13.6,12.2,13.2,11.8z"/>
	<path class="st2" d="M38.4,22.8l-2.1-2.1L20.6,36.3l2.1,2.1c0.2,0.2,0.5,0.3,0.7,0.3c0.3,0,0.5-0.1,0.7-0.3l14.2-14.2
		C38.8,23.8,38.8,23.2,38.4,22.8z"/>
	<path class="st2" d="M20.3,4.7c-0.2-0.2-0.4-0.3-0.7-0.3h-8.5c-0.3,0-0.5,0.1-0.7,0.3L8.3,6.8L6.1,4.7c-0.4-0.4-1-0.4-1.4,0
		c-0.4,0.4-0.4,1,0,1.4l2.1,2.1l-2.1,2.1c-0.2,0.2-0.3,0.4-0.3,0.7v8.5c0,0.3,0.1,0.5,0.3,0.7l14.5,14.5l15.6-15.6L20.3,4.7z
		 M14.7,14.7c-1.2,1.2-3.1,1.2-4.3,0c-1.2-1.2-1.2-3.1,0-4.3c1.1-1.1,3.1-1.1,4.3,0C15.8,11.6,15.8,13.5,14.7,14.7z M28.2,23.5
		l-3.5,1.1L23.6,28c-0.1,0.4-0.5,0.7-1,0.7c-0.3,0-0.6-0.2-0.8-0.4l-2.1-3l-3.6,0c-0.4,0-0.7-0.2-0.9-0.5c-0.2-0.3-0.1-0.7,0.1-1.1
		l2.2-2.9l-1.2-3.5c-0.1-0.4,0-0.8,0.2-1c0.3-0.3,0.7-0.4,1-0.2l3.5,1.2l2.9-2.2c0.3-0.2,0.7-0.3,1.1-0.1c0.3,0.2,0.6,0.5,0.5,0.9
		l0,3.6l3,2.1c0.3,0.2,0.5,0.6,0.4,1C28.8,23,28.6,23.3,28.2,23.5z"/>
</g>
</svg>
