<?xml version="1.0" encoding="utf-8"?>
<!-- Generator: Adobe Illustrator 27.0.0, SVG Export Plug-In . SVG Version: 6.00 Build 0)  -->
<svg version="1.1" id="圖層_1" xmlns="http://www.w3.org/2000/svg" xmlns:xlink="http://www.w3.org/1999/xlink" x="0px" y="0px"
	 viewBox="0 0 42 42" style="enable-background:new 0 0 42 42;" xml:space="preserve">
<style type="text/css">
	.st0{fill:#D9D9D9;filter:url(#Adobe_OpacityMaskFilter);}
	.st1{mask:url(#mask0_289_751_00000102504397289094039960000004931821843573391504_);}
	.st2{fill:#91BAE8;}
</style>
<defs>
	<filter id="Adobe_OpacityMaskFilter" filterUnits="userSpaceOnUse" x="5" y="6" width="32" height="30">
		<feColorMatrix  type="matrix" values="1 0 0 0 0  0 1 0 0 0  0 0 1 0 0  0 0 0 1 0"/>
	</filter>
</defs>
<mask maskUnits="userSpaceOnUse" x="5" y="6" width="32" height="30" id="mask0_289_751_00000102504397289094039960000004931821843573391504_">
	<rect class="st0" width="42" height="42"/>
</mask>
<g class="st1">
	<path class="st2" d="M36.5,19.6l-4.8-4.9V9c0-1-0.8-1.8-1.8-1.8c-1,0-1.8,0.8-1.8,1.8V11l-3.6-3.6c-1.8-1.8-4.9-1.8-6.7,0L5.5,19.6
		c-0.7,0.7-0.7,1.9,0,2.6c0.7,0.7,1.9,0.7,2.6,0L20.3,10c0.4-0.4,1.1-0.4,1.5,0l12.1,12.2c0.4,0.4,0.8,0.5,1.3,0.5
		c0.5,0,0.9-0.2,1.3-0.5C37.2,21.4,37.2,20.3,36.5,19.6z"/>
	<path class="st2" d="M21.6,13.5c-0.4-0.4-0.9-0.4-1.3,0L9.7,24.2c-0.2,0.2-0.3,0.4-0.3,0.6v7.8c0,1.8,1.5,3.3,3.3,3.3H18v-8.2h6V36
		h5.3c1.8,0,3.3-1.5,3.3-3.3v-7.8c0-0.2-0.1-0.5-0.3-0.6L21.6,13.5z"/>
</g>
</svg>
