<svg width="42" height="42" viewBox="0 0 42 42" fill="none" xmlns="http://www.w3.org/2000/svg">
<mask id="mask0_289_774" style="mask-type:alpha" maskUnits="userSpaceOnUse" x="0" y="0" width="42" height="42">
<rect width="42" height="42" fill="#D9D9D9"/>
</mask>
<g mask="url(#mask0_289_774)">
<mask id="mask1_289_774" style="mask-type:alpha" maskUnits="userSpaceOnUse" x="1" y="1" width="40" height="40">
<rect x="1.10522" y="1.10522" width="39.7895" height="39.7895" fill="#D9D9D9"/>
</mask>
<g mask="url(#mask1_289_774)">
<path d="M38.7743 9.2526C37.48 7.14339 35.8359 5.29706 33.8877 3.765C33.4164 3.39441 32.7338 3.47599 32.3632 3.94732C31.9925 4.41866 32.0742 5.1012 32.5455 5.47185C34.2911 6.84453 35.7641 8.4987 36.9235 10.3882C37.1284 10.7222 37.4849 10.9063 37.85 10.9063C38.0436 10.9063 38.2397 10.8545 38.4167 10.7458C38.9278 10.4322 39.0879 9.76368 38.7743 9.2526Z" fill="#91BAE8"/>
<path d="M5.19069 29.8166C4.87715 29.3056 4.20857 29.1455 3.6975 29.459C3.18636 29.7726 3.02633 30.4411 3.33995 30.9522C4.34877 32.5963 5.58191 34.0931 7.00496 35.4007C7.21349 35.5924 7.47673 35.6871 7.73933 35.6871C8.03261 35.6871 8.32495 35.5689 8.53905 35.336C8.94474 34.8945 8.91571 34.2077 8.4742 33.802C7.19916 32.6303 6.09443 31.2894 5.19069 29.8166Z" fill="#91BAE8"/>
<path d="M30.3219 37.618H29.352L28.8027 36.0647C26.4192 37.2235 23.7853 37.8351 21.0573 37.8351C18.3293 37.8351 15.6954 37.2235 13.312 36.0647L12.7626 37.618H11.7927C11.1934 37.618 10.707 38.1044 10.707 38.7037C10.707 39.303 11.1934 39.7894 11.7927 39.7894H30.3219C30.9212 39.7894 31.4076 39.303 31.4076 38.7037C31.4076 38.1044 30.9212 37.618 30.3219 37.618Z" fill="#91BAE8"/>
<path d="M17.834 19.0166C17.9801 18.5843 18.2105 18.1906 18.5062 17.8553L14.8998 11.6089C12.5491 13.3178 10.9316 15.9769 10.6179 19.0174C10.6235 19.0174 10.6289 19.0166 10.6345 19.0166H17.834Z" fill="#91BAE8"/>
<path d="M21.0572 16.7006C21.2873 16.7006 21.5117 16.7237 21.7288 16.7671L25.3362 10.5201C24.9316 10.3384 24.5133 10.182 24.0833 10.0525C23.9212 10.2617 23.7461 10.4795 23.5572 10.7061C22.9369 11.4494 22.0256 11.8765 21.0572 11.8765C20.0887 11.8765 19.1775 11.4494 18.5572 10.7061C18.3683 10.4795 18.1931 10.2617 18.031 10.0525C17.601 10.182 17.1827 10.3384 16.7781 10.5201L20.3855 16.7671C20.6026 16.7237 20.827 16.7006 21.0572 16.7006Z" fill="#91BAE8"/>
<path d="M21.0571 21.3325C21.7367 21.3325 22.2876 20.7816 22.2876 20.102C22.2876 19.4225 21.7367 18.8716 21.0571 18.8716C20.3776 18.8716 19.8267 19.4225 19.8267 20.102C19.8267 20.7816 20.3776 21.3325 21.0571 21.3325Z" fill="#91BAE8"/>
<path d="M27.2153 11.6089L23.6089 17.8553C23.9046 18.1906 24.135 18.5843 24.2811 19.0166H31.4806C31.4862 19.0166 31.4916 19.0174 31.4972 19.0174C31.1835 15.9769 29.566 13.3178 27.2153 11.6089Z" fill="#91BAE8"/>
<path d="M26.1178 5.37817C26.1214 5.46069 26.1236 5.5432 26.1236 5.62644C26.1236 6.17363 26.0157 6.96618 25.3419 8.18288C26.0237 8.42825 26.678 8.73152 27.2997 9.08473C27.3308 9.09849 27.3612 9.11441 27.3909 9.13106C27.4242 9.1506 27.4561 9.17087 27.4857 9.1933C31.2162 11.3994 33.7234 15.4635 33.7234 20.1024C33.7234 27.087 28.0416 32.7688 21.057 32.7688C14.0723 32.7688 8.39055 27.087 8.39055 20.1024C8.39055 15.4635 10.8978 11.3994 14.6282 9.1933C14.6579 9.17087 14.6897 9.1506 14.723 9.13106C14.7527 9.11441 14.7831 9.09921 14.8135 9.08473C15.4353 8.73152 16.0903 8.42825 16.7721 8.18288C16.0983 6.96618 15.9904 6.17363 15.9904 5.62644C15.9904 5.5432 15.9926 5.46069 15.9962 5.37817C13.7836 6.13671 11.7555 7.39612 10.0531 9.09849C7.11377 12.0378 5.49536 15.9456 5.49536 20.1024C5.49536 24.2591 7.11377 28.1669 10.0531 31.1062C12.9924 34.0456 16.9002 35.664 21.057 35.664C25.2137 35.664 29.1215 34.0456 32.0609 31.1062C35.0002 28.1669 36.6186 24.2591 36.6186 20.1024C36.6186 15.9456 35.0002 12.0378 32.0609 9.09849C30.3585 7.39612 28.3304 6.13671 26.1178 5.37817Z" fill="#91BAE8"/>
<path d="M31.4972 21.187C31.4916 21.1871 31.4862 21.1878 31.4806 21.1878H24.2811C24.135 21.6202 23.9046 22.0139 23.6089 22.3491L27.2153 28.5956C29.566 26.8867 31.1835 24.2275 31.4972 21.187Z" fill="#91BAE8"/>
<path d="M14.8998 28.5956L18.5062 22.3491C18.2105 22.0139 17.9801 21.6203 17.834 21.1878H10.6345C10.6289 21.1878 10.6235 21.1871 10.6179 21.187C10.9316 24.2275 12.5491 26.8867 14.8998 28.5956Z" fill="#91BAE8"/>
<path d="M25.3358 29.6848L21.7288 23.4373C21.5116 23.481 21.287 23.5042 21.057 23.5042C20.8271 23.5042 20.6025 23.481 20.3853 23.4373L16.7783 29.6848C18.0857 30.2709 19.534 30.5974 21.057 30.5974C22.5801 30.5974 24.0284 30.2709 25.3358 29.6848Z" fill="#91BAE8"/>
<path d="M21.8896 9.31504C22.745 8.28928 23.9522 6.65864 23.9522 5.62614C23.9522 4.0272 22.656 2.73096 21.0571 2.73096C19.4581 2.73096 18.1619 4.0272 18.1619 5.62614C18.1619 6.65864 19.3691 8.28928 20.2245 9.31504C20.6576 9.83444 21.4565 9.83444 21.8896 9.31504Z" fill="#91BAE8"/>
</g>
</g>
</svg>
