<?xml version="1.0" encoding="utf-8"?>
<!-- Generator: Adobe Illustrator 27.0.0, SVG Export Plug-In . SVG Version: 6.00 Build 0)  -->
<svg version="1.1" id="圖層_1" xmlns="http://www.w3.org/2000/svg" xmlns:xlink="http://www.w3.org/1999/xlink" x="0px" y="0px"
	 viewBox="0 0 42 42" style="enable-background:new 0 0 42 42;" xml:space="preserve">
<style type="text/css">
	.st0{fill:#D9D9D9;filter:url(#Adobe_OpacityMaskFilter);}
	.st1{mask:url(#mask0_289_757_00000058560234103989613460000010283548060755791265_);}
	.st2{fill:#91BAE8;}
</style>
<defs>
	<filter id="Adobe_OpacityMaskFilter" filterUnits="userSpaceOnUse" x="7.7" y="5.5" width="27.1" height="32.1">
		<feColorMatrix  type="matrix" values="1 0 0 0 0  0 1 0 0 0  0 0 1 0 0  0 0 0 1 0"/>
	</filter>
</defs>
<mask maskUnits="userSpaceOnUse" x="7.7" y="5.5" width="27.1" height="32.1" id="mask0_289_757_00000058560234103989613460000010283548060755791265_">
	<rect class="st0" width="42" height="42"/>
</mask>
<g class="st1">
	<path class="st2" d="M32.2,31L26,24.7c-0.1-0.1-0.3-0.2-0.5-0.2l-3-0.2c-0.5,0-0.9,0.4-0.8,0.8l0.2,3c0,0.2,0.1,0.4,0.2,0.5
		l6.3,6.3L32.2,31z"/>
	<path class="st2" d="M34,32.8l-0.6-0.6l-4,4l0.6,0.6c0.6,0.6,1.3,0.8,2,0.8c0.7,0,1.4-0.3,2-0.8C35.1,35.7,35.1,33.9,34,32.8z"/>
	<path class="st2" d="M29.3,5.5H11.8c-2.3,0-4.1,1.8-4.1,4.1v22.5c0,2.3,1.8,4.1,4.1,4.1H27l-6.2-6.2c-0.4-0.4-0.7-1-0.7-1.6l-0.2-3
		c0-0.7,0.2-1.3,0.7-1.9c0.5-0.5,1.1-0.8,1.8-0.8l3.2,0.2c0.6,0,1.2,0.3,1.6,0.7l6.2,6.3V9.6C33.4,7.4,31.6,5.5,29.3,5.5z M18.1,31
		h-5.2c-0.6,0-1-0.5-1-1c0-0.6,0.5-1,1-1h5.2c0.6,0,1,0.5,1,1C19.1,30.5,18.6,31,18.1,31z M11.8,23.8c0-0.6,0.5-1,1-1h4.8
		c0.6,0,1,0.5,1,1c0,0.6-0.5,1-1,1h-4.8C12.3,24.9,11.8,24.4,11.8,23.8z M28.2,18.8H12.9c-0.6,0-1-0.5-1-1c0-0.6,0.5-1,1-1h15.3
		c0.6,0,1,0.5,1,1C29.2,18.3,28.7,18.8,28.2,18.8z M28.2,12.6H12.9c-0.6,0-1-0.5-1-1s0.5-1,1-1h15.3c0.6,0,1,0.5,1,1
		S28.7,12.6,28.2,12.6z"/>
</g>
</svg>
