<?xml version="1.0" encoding="utf-8"?>
<!-- Generator: Adobe Illustrator 27.0.0, SVG Export Plug-In . SVG Version: 6.00 Build 0)  -->
<svg version="1.1" id="圖層_1" xmlns="http://www.w3.org/2000/svg" xmlns:xlink="http://www.w3.org/1999/xlink" x="0px" y="0px"
	 viewBox="0 0 42 42" style="enable-background:new 0 0 42 42;" xml:space="preserve">
<style type="text/css">
	.st0{fill:#D9D9D9;filter:url(#Adobe_OpacityMaskFilter);}
	.st1{mask:url(#mask0_289_792_00000097480768185711211140000000879840062288905614_);}
	.st2{clip-path:url(#SVGID_00000003815296905093208100000009443645924221019535_);}
	.st3{fill:#91BAE8;}
</style>
<defs>
	<filter id="Adobe_OpacityMaskFilter" filterUnits="userSpaceOnUse">
		<feColorMatrix  type="matrix" values="1 0 0 0 0  0 1 0 0 0  0 0 1 0 0  0 0 0 1 0"/>
	</filter>
</defs>
<mask maskUnits="userSpaceOnUse" id="mask0_289_792_00000097480768185711211140000000879840062288905614_">
	<rect x="92" y="138.3" class="st0" width="42" height="42"/>
</mask>
<g class="st1">
</g>
<g>
	<defs>
		<rect id="SVGID_1_" x="3.3" y="3.3" width="35.4" height="35.4"/>
	</defs>
	<clipPath id="SVGID_00000035526093218658487780000011478185046132777110_">
		<use xlink:href="#SVGID_1_"  style="overflow:visible;"/>
	</clipPath>
	<g style="clip-path:url(#SVGID_00000035526093218658487780000011478185046132777110_);">
		<path class="st3" d="M34.8,5.6h-1.3l0.1-1c0.1-0.7-0.5-1.3-1.1-1.3H9.5c-0.7,0-1.2,0.6-1.1,1.3l0.1,1H7.2c-1.9,0-3.5,1.6-3.5,3.5
			c0,5,2.9,9.4,7.3,11.5c1.4,2.5,3.7,4.4,6.5,5.3v4c0,0.8-0.7,1.9-1.2,1.9c-0.1,0-0.2,0-0.2,0c-1.8,0.1-3.2,1.6-3.2,3.4v2.3
			c0,0.6,0.5,1.2,1.2,1.2h13.8c0.6,0,1.2-0.5,1.2-1.2v-2.3c0-1.8-1.4-3.3-3.2-3.4c-0.1,0-0.2,0-0.2,0c-0.4,0-1.2-1.1-1.2-1.9v-4
			c2.8-0.9,5.1-2.8,6.5-5.3c4.5-2.1,7.3-6.5,7.3-11.5C38.3,7.2,36.7,5.6,34.8,5.6z M6,9.1c0-0.6,0.5-1.2,1.2-1.2h1.5l0.9,8.3
			c0,0.3,0.1,0.6,0.1,0.9C7.4,15.1,6,12.2,6,9.1z M19.4,31.8c0.3-0.6,0.5-1.3,0.5-1.9v-3.5c0.4,0,0.8,0.1,1.2,0.1s0.8,0,1.2-0.1v3.5
			c0,0.6,0.2,1.3,0.5,1.9H19.4z M26.2,14l-1.8,1.7l0.4,2.4c0.2,0.9-0.8,1.7-1.7,1.2L21,18.2l-2.2,1.1c-0.8,0.4-1.8-0.3-1.7-1.2
			l0.4-2.4L15.8,14c-0.7-0.7-0.3-1.8,0.6-2l2.4-0.4L20,9.5c0.4-0.9,1.6-0.9,2.1,0l1.1,2.2l2.4,0.4C26.5,12.1,26.9,13.3,26.2,14z
			 M32.3,17.1c0.1-0.3,0.1-0.6,0.1-0.9l0.9-8.3h1.5c0.6,0,1.2,0.5,1.2,1.2C36,12.2,34.6,15.1,32.3,17.1z"/>
	</g>
</g>
</svg>
