<?xml version="1.0" encoding="utf-8"?>
<!-- Generator: Adobe Illustrator 27.0.0, SVG Export Plug-In . SVG Version: 6.00 Build 0)  -->
<svg version="1.1" id="圖層_1" xmlns="http://www.w3.org/2000/svg" xmlns:xlink="http://www.w3.org/1999/xlink" x="0px" y="0px"
	 viewBox="0 0 42 42" style="enable-background:new 0 0 42 42;" xml:space="preserve">
<style type="text/css">
	.st0{fill:#D9D9D9;filter:url(#Adobe_OpacityMaskFilter);}
	.st1{mask:url(#mask0_289_803_00000160908274727496042150000017308237067950824360_);}
	.st2{fill:#91BAE8;}
</style>
<defs>
	<filter id="Adobe_OpacityMaskFilter" filterUnits="userSpaceOnUse" x="7.7" y="3.3" width="26.4" height="35.4">
		<feColorMatrix  type="matrix" values="1 0 0 0 0  0 1 0 0 0  0 0 1 0 0  0 0 0 1 0"/>
	</filter>
</defs>
<mask maskUnits="userSpaceOnUse" x="7.7" y="3.3" width="26.4" height="35.4" id="mask0_289_803_00000160908274727496042150000017308237067950824360_">
	<rect class="st0" width="42" height="42"/>
</mask>
<g class="st1">
	<path class="st2" d="M18.7,32.1h-3.3c-0.6,0-1,0.5-1,1v4.5c0,0.8,0.9,1.3,1.6,0.8l1.1-0.8l1.1,0.8c0.7,0.5,1.6,0,1.6-0.8v-4.5
		C19.8,32.6,19.3,32.1,18.7,32.1z"/>
	<path class="st2" d="M28.2,3.3H11.5C9.4,3.3,7.7,5,7.7,7.1v24.4c0,2.1,1.7,3.8,3.8,3.8h0.8v-2.1h-0.8c-1,0-1.7-0.8-1.7-1.7
		c0-1,0.8-1.7,1.7-1.7h16.6c0-3.3,2.7-5.9,5.9-5.9V9.3C30.8,9.3,28.2,6.6,28.2,3.3z M20.9,25.4c-4.8,0-8.8-3.9-8.8-8.8
		s3.9-8.8,8.8-8.8s8.8,3.9,8.8,8.8S25.8,25.4,20.9,25.4z"/>
	<path class="st2" d="M30.3,29.8h1.8v3.5H21.8v2.1h11.3c0.6,0,1-0.5,1-1v-8.4C32,25.9,30.3,27.7,30.3,29.8z"/>
	<path class="st2" d="M20.9,9.9c-3.7,0-6.7,3-6.7,6.7s3,6.7,6.7,6.7s6.7-3,6.7-6.7S24.6,9.9,20.9,9.9z M22,16.6
		c0,0.3-0.1,0.5-0.3,0.7l-2.2,2.2c-0.4,0.4-1.1,0.4-1.5,0c-0.4-0.4-0.4-1.1,0-1.5l1.9-1.9v-3.4c0-0.6,0.5-1,1-1c0.6,0,1,0.5,1,1
		V16.6z"/>
	<path class="st2" d="M33.1,3.3h-2.8c0,2.1,1.7,3.9,3.9,3.9V4.4C34.1,3.8,33.7,3.3,33.1,3.3z"/>
</g>
</svg>
