<svg width="505" height="80" viewBox="0 0 505 80" fill="none" xmlns="http://www.w3.org/2000/svg">
<path d="M27.0658 40.9533H5.98611C4.22134 40.9533 2.76696 41.5119 1.65843 42.6027C0.549907 43.7024 -0.00878906 45.1479 -0.00878906 46.8949V69.7394C-0.00878906 71.4864 0.549907 72.932 1.65843 74.0316C2.76696 75.1313 4.22134 75.6811 5.98611 75.6811H27.0658C28.8306 75.6811 30.285 75.1224 31.3846 74.0316C32.4931 72.932 33.0518 71.4953 33.0518 69.7394V46.8949C33.0518 45.139 32.4931 43.7024 31.3846 42.6027C30.2761 41.5031 28.8217 40.9533 27.0658 40.9533ZM22.1883 53.0761V63.5672C22.1883 64.6757 21.7094 65.1546 20.5832 65.1546H12.052C10.9257 65.1546 10.4468 64.6757 10.4468 63.5672V53.0761C10.4468 51.9675 10.9257 51.4887 12.052 51.4887H20.5832C21.7094 51.4887 22.1883 51.9675 22.1883 53.0761ZM17.6833 34.8165H56.0826C57.8473 34.8165 59.3017 34.2578 60.4014 33.167C61.5099 32.0673 62.0686 30.6218 62.0686 28.8748V9.24058C62.0686 7.49355 61.5099 6.04803 60.4014 4.94837C59.2928 3.84872 57.8385 3.29889 56.0826 3.29889H17.6833C15.9185 3.29889 14.4641 3.85759 13.3556 4.94837C12.2471 6.04803 11.6884 7.48468 11.6884 9.24058V28.8748C11.6884 30.6218 12.2471 32.0673 13.3556 33.167C14.4641 34.2666 15.9185 34.8165 17.6833 34.8165ZM22.3036 22.7823V15.4217C22.3036 14.3132 22.7825 13.8343 23.9087 13.8343H49.3427C50.469 13.8343 50.9479 14.3132 50.9479 15.4217V22.7823C50.9479 23.8908 50.469 24.3697 49.3427 24.3697H23.9087C22.7825 24.3697 22.3036 23.8908 22.3036 22.7823ZM45.4141 75.69H67.5137C69.2784 75.69 70.7328 75.1313 71.8325 74.0405C72.941 72.9408 73.4997 71.5042 73.4997 69.7483V46.9038C73.4997 45.1479 72.941 43.7113 71.8325 42.6116C70.7239 41.5119 69.2696 40.9621 67.5137 40.9621H45.4141C43.6493 40.9621 42.195 41.5208 41.0953 42.6116C39.9868 43.7113 39.4281 45.1479 39.4281 46.9038V69.7483C39.4281 71.4953 39.9868 72.9408 41.0953 74.0405C42.2038 75.1401 43.6582 75.69 45.4141 75.69ZM49.8659 63.5672V53.0761C49.8659 51.9675 50.3448 51.4887 51.4711 51.4887H60.8625C61.9888 51.4887 62.4677 51.9675 62.4677 53.0761V63.5672C62.4677 64.6757 61.9888 65.1546 60.8625 65.1546H51.4711C50.3448 65.1546 49.8659 64.6757 49.8659 63.5672ZM157.038 53.9895H150.653V48.3405C150.653 45.006 148.879 43.2412 145.518 43.2412C142.157 43.2412 140.384 45.006 140.384 48.3405V53.9895H127.534C132.881 51.0453 136.89 47.1699 139.47 42.4342H153.624C155.389 42.4342 156.843 41.8755 157.943 40.7848C159.051 39.6851 159.61 38.2485 159.61 36.4925V13.8166C159.61 12.0607 159.051 10.624 157.943 9.52436C156.834 8.42471 155.38 7.87488 153.624 7.87488H141.554C142.574 5.91501 142.849 4.39855 142.388 3.24568C141.9 2.03074 140.517 1.19713 138.246 0.771454C136.375 0.469935 134.885 0.682772 133.795 1.38336C132.713 2.08395 131.888 3.3521 131.356 5.12574C131.241 5.46273 131.063 5.96822 130.806 6.63333C130.611 7.13882 130.442 7.55562 130.3 7.86601H122.896C121.131 7.86601 119.676 8.42471 118.568 9.51549C117.459 10.6152 116.901 12.0607 116.901 13.8077V36.5724C116.901 38.3283 117.45 39.756 118.524 40.8202C119.597 41.8844 121.042 42.4254 122.807 42.4254H127.809C125.769 44.6513 123.108 46.5846 119.898 48.1808C118.488 48.8282 117.761 49.5199 117.681 50.3003C117.619 50.9388 117.991 51.5596 118.763 52.1272C119.561 52.8455 120.235 53.4663 120.776 53.9806H118.63C115.606 53.9806 114.001 55.568 114.001 58.5744C114.001 61.5807 115.597 63.2479 118.63 63.2479H140.375V74.9007C140.375 78.2351 142.148 79.9999 145.509 79.9999C148.87 79.9999 150.644 78.2351 150.644 74.9007V63.2479H157.029C160.053 63.2479 161.65 61.6339 161.65 58.5744C161.65 55.5148 160.053 53.9806 157.029 53.9806L157.038 53.9895ZM126.673 21.1594V17.4525C126.673 16.6278 127.01 16.2908 127.853 16.2908H133.466V21.1594H126.673ZM126.673 32.3511V28.9901H133.422C133.325 29.9922 133.227 30.7814 133.129 31.3579C132.988 32.36 132.819 33.2202 132.633 33.9385H128.279C127.152 33.9385 126.673 33.4596 126.673 32.3511ZM149.509 17.8782V21.1594H144.41C143.284 21.1594 142.805 20.6806 142.805 19.572V16.2908H147.904C149.03 16.2908 149.509 16.7697 149.509 17.8782ZM142.627 31.2071C142.716 30.2671 142.769 29.5399 142.796 28.9812H149.509V32.3422C149.509 33.4508 149.03 33.9296 147.904 33.9296H142.308C142.468 32.8211 142.574 31.9964 142.627 31.4111V31.1982V31.2071ZM83.2813 76.1955C82.8113 75.1934 82.8113 73.8897 83.299 72.3201C85.8886 63.0528 87.2011 50.1673 87.2011 34.0361V6.87277C87.2011 3.81325 88.8594 2.19923 91.9987 2.19923C95.1381 2.19923 96.7078 3.81325 96.7078 6.87277V22.1704H101.115V4.84196C101.115 1.72922 102.774 0.0797346 105.913 0.0797346C109.052 0.0797346 110.711 1.72922 110.711 4.84196V22.1704H111.633C114.71 22.1704 116.342 23.7844 116.342 26.844C116.342 29.9035 114.71 31.6062 111.633 31.6062H96.7166V34.0361C96.7166 36.732 96.69 38.887 96.6457 40.4478H106.596C108.361 40.4478 109.815 41.0065 110.915 42.0972C112.023 43.1969 112.582 44.6336 112.582 46.3895V75.1579C112.582 78.3238 110.897 79.9999 107.704 79.9999C104.512 79.9999 102.738 78.3238 102.738 75.1579V51.3822C102.738 50.2737 102.259 49.7948 101.133 49.7948H96.2555C95.5106 60.1972 94.2247 68.8792 92.4333 75.6102C91.9367 77.2685 91.2006 78.3238 90.2251 78.7761C89.2673 79.2195 87.9726 79.1574 86.3852 78.581C84.7978 78.0046 83.7513 77.2064 83.2724 76.1955H83.2813ZM177.515 24.3963C180.84 25.8773 183.474 27.2253 185.354 28.4136C186.72 29.3359 187.474 30.3824 187.607 31.5352C187.669 32.5728 187.225 33.77 186.25 35.2155C185.097 36.8827 183.82 37.8316 182.437 38.0445C182.233 38.08 182.029 38.0888 181.825 38.0888C180.69 38.0888 179.501 37.6099 178.277 36.6699C178.073 36.5191 177.736 36.3063 177.258 36.0225C176.788 35.7476 176.442 35.5525 176.22 35.4461C175.466 34.985 174.349 34.3642 172.886 33.5838C171.351 32.8211 170.411 31.8367 170.11 30.6661C169.791 29.4335 170.19 28.0057 171.28 26.4183C172.948 24.0948 175.049 23.412 177.524 24.3963H177.515ZM194.763 25.9749C191.846 25.9749 190.312 27.5002 190.312 30.3912C190.312 33.2823 191.855 34.8076 194.763 34.8076H214.123V37.1399H201.769C200.12 37.1399 198.781 37.6365 197.787 38.6209C196.794 39.6053 196.289 40.9355 196.289 42.5761V47.7197H193.149C192.059 47.7197 191.429 48.3405 191.429 49.4312V50.3979L189.584 48.9967C187.944 47.7286 186.321 47.2851 184.769 47.6931C183.217 48.0921 181.967 49.2982 181.062 51.2758C178.286 57.3328 175.342 63.1858 172.291 68.6752C171.431 70.1917 171.192 71.5397 171.582 72.6925C171.963 73.6946 172.939 74.679 174.562 75.6988C176.291 76.8606 177.861 77.2774 179.209 76.9226C180.503 76.5857 181.594 75.5481 182.463 73.8365C185.079 68.6575 188.148 61.9354 191.606 53.8387C191.943 54.7876 192.768 55.302 194.01 55.302H196.298V58.3083H194.355C191.5 58.3083 189.983 59.807 189.983 62.6449C189.983 65.4827 191.491 66.9814 194.355 66.9814H196.298V74.5726C196.298 77.907 198.071 79.6718 201.432 79.6718C204.793 79.6718 206.567 77.907 206.567 74.5726V66.9814H232.56V70.174C232.56 70.5375 232.489 70.7947 232.373 70.9011C232.303 70.9632 232.063 71.114 231.38 71.1761H229.172C226.458 71.1051 224.765 71.6283 223.993 72.7635C223.381 73.6592 223.408 74.9007 224.064 76.4438C224.986 78.6431 227.079 79.7605 230.272 79.7605H230.281C234.129 79.6452 237.003 79.1752 238.812 78.3682C240.373 77.6498 241.499 76.6566 242.137 75.4151C242.767 74.2001 243.086 72.462 243.086 70.2626V66.9814H243.751C246.607 66.9814 248.123 65.4827 248.123 62.6449C248.123 59.807 246.616 58.3083 243.751 58.3083H243.086V55.302H243.92C246.385 55.302 247.689 53.9806 247.689 51.4709C247.689 48.9612 246.385 47.7286 243.92 47.7286H243.086V43.0994C243.086 41.3523 242.528 39.9068 241.419 38.8071C240.31 37.7075 238.856 37.1577 237.1 37.1577H224.401V34.8253H243.414C246.332 34.8253 247.866 33.3 247.866 30.409C247.866 27.5179 246.323 25.9926 243.414 25.9926H234.475V23.5805H240.346C242.873 23.5805 244.204 22.2591 244.204 19.7494C244.204 17.2397 242.873 15.9183 240.346 15.9183H234.475V13.4175H241.543C244.124 13.4175 245.49 12.0341 245.49 9.41794C245.49 6.80183 244.124 5.50707 241.543 5.50707H234.475V5.2765C234.475 1.82677 232.639 0.00878906 229.163 0.00878906C225.687 0.00878906 223.851 1.82677 223.851 5.2765V5.50707H214.327V5.18782C214.327 1.80016 212.518 0.00878906 209.103 0.00878906C205.689 0.00878906 203.791 1.80016 203.791 5.18782V5.50707H197.832C195.251 5.50707 193.885 6.8639 193.885 9.41794C193.885 11.972 195.251 13.4175 197.832 13.4175H203.791V15.9183H199.029C196.51 15.9183 195.171 17.2397 195.171 19.7494C195.171 22.2591 196.502 23.5805 199.029 23.5805H203.791V25.9926H194.763V25.9749ZM214.327 15.9095V13.4086H223.851V15.9095H214.327ZM232.56 55.2931V58.2994H224.401V55.2931H232.56ZM232.56 46.0525V47.7286H224.401V44.9794H231.469C232.249 44.9794 232.56 45.2898 232.56 46.0613V46.0525ZM214.327 25.9749V23.5627H223.851V25.9749H214.327ZM214.123 55.2931V58.2994H206.558V55.2931H214.123ZM214.123 44.9705V47.7197H206.558V46.3008C206.558 45.3696 206.957 44.9705 207.906 44.9705H214.123ZM192.218 9.27605C192.28 10.3136 191.837 11.5108 190.861 12.9564C189.691 14.5792 188.396 15.4927 187.013 15.6966C186.818 15.7232 186.622 15.741 186.427 15.741C185.248 15.741 184.006 15.2444 182.729 14.26C182.392 14.0383 181.896 13.6747 181.231 13.1869C180.938 13.0716 180.734 12.9475 180.583 12.8145C179.262 12.0518 178.224 11.4665 177.479 11.0674C175.75 10.1983 174.73 9.11643 174.438 7.85714C174.154 6.59786 174.606 5.17895 175.803 3.63588C177.524 1.37449 179.687 0.78919 182.224 1.88885C185.257 3.30776 187.855 4.70893 189.966 6.06577C191.34 7.05014 192.085 8.12319 192.218 9.26719V9.27605ZM270.09 22.5695L272.44 24.3786C273.54 25.4073 274.089 26.4715 274.107 27.5623C274.125 28.7329 273.522 29.939 272.307 31.1362C270.986 32.4487 269.726 33.1581 268.573 33.2557C268.485 33.2557 268.405 33.2645 268.316 33.2645C267.217 33.2645 266.055 32.697 264.858 31.5707C263.456 30.2937 261.727 28.9457 259.705 27.5534C258.136 26.5336 257.231 25.363 257.045 24.0771C256.85 22.7734 257.444 21.461 258.801 20.1751C260.645 18.3482 262.747 18.0378 265.035 19.2616C265.345 19.4479 265.744 19.7051 266.268 20.042C267.766 20.9555 268.839 21.6561 269.531 22.1704C269.638 22.268 269.771 22.3832 270.09 22.5695ZM319.016 57.1998H318.519C316.169 57.1377 314.653 57.6077 313.872 58.6542C313.216 59.5321 313.136 60.7737 313.65 62.3522C314.36 64.6402 316.222 65.8019 319.184 65.8019C319.335 65.8019 319.486 65.8019 319.637 65.8019C322.581 65.6866 324.94 65.2166 326.651 64.4008C328.044 63.6824 329.055 62.6715 329.675 61.3856C330.154 60.2593 330.394 58.6098 330.394 56.4726V26.4183C330.394 24.8397 329.906 23.5539 328.939 22.5961C327.973 21.6383 326.678 21.1594 325.09 21.1594H319.84C319.184 20.7604 318.111 20.2017 316.666 19.51C316.24 19.2971 315.868 19.1109 315.548 18.9424C319.761 16.2287 323.148 13.3466 325.631 10.3314C327.157 7.97243 327.609 6.18105 327.033 4.83309C326.447 3.47625 324.957 2.7934 322.616 2.7934H286.771C283.969 2.7934 282.488 4.26552 282.488 7.04127C282.488 9.81701 283.969 11.2891 286.771 11.2891H311.655C309.509 12.7879 307.7 13.9762 306.281 14.8364C304.321 14.0117 301.865 13.0096 298.965 11.8744C297.218 11.1916 295.497 11.5286 293.83 12.8765C292.207 14.1979 291.507 15.3862 291.675 16.5036C291.844 17.5944 292.81 18.4724 294.628 19.2084C295.675 19.6252 297.173 20.2815 299.089 21.1417H287.711C285.946 21.1417 284.492 21.7004 283.383 22.7912C282.275 23.8908 281.716 25.3364 281.716 27.0834V60.5076C281.716 63.8421 283.525 65.6068 286.939 65.6068C290.354 65.6068 292.074 63.8421 292.074 60.5076V52.9164H300.916V60.4278C300.916 63.5938 302.636 65.2698 305.882 65.2698C309.128 65.2698 310.759 63.5938 310.759 60.4278V52.9164H319.858V56.3662C319.858 56.8273 319.707 57.1466 319.025 57.1909L319.016 57.1998ZM319.849 40.9089V44.7577H310.751V40.9089H319.849ZM310.751 32.9985V29.3182H318.244C319.37 29.3182 319.849 29.7971 319.849 30.9056V32.9985H310.751ZM300.907 40.9089V44.7577H292.065V40.9089H300.907ZM300.907 29.3182V32.9985H292.065V30.9056C292.065 29.7971 292.544 29.3182 293.67 29.3182H300.907ZM274.941 14.5615C273.593 15.8385 272.378 16.4593 271.225 16.4593C271.172 16.4593 271.119 16.4593 271.057 16.4593C269.921 16.4593 268.724 15.8474 267.509 14.6413C266.161 13.4707 264.476 12.1139 262.508 10.6063C260.867 9.47115 259.989 8.24734 259.891 6.97032C259.803 5.74651 260.441 4.4961 261.789 3.24568C263.758 1.47204 265.86 1.19713 268.024 2.42094C269.593 3.45852 271.065 4.48723 272.422 5.4982C273.336 6.11898 274.24 6.84617 275.1 7.64431C276.262 8.7617 276.839 9.91456 276.821 11.0674C276.803 12.2469 276.165 13.4264 274.923 14.5615H274.941ZM254.659 43.3388C254.659 40.0044 256.433 38.2396 259.794 38.2396H269.611C271.092 38.2396 272.289 38.683 273.167 39.5521C274.045 40.43 274.497 41.6095 274.497 43.0816V60.2948C277.717 65.2078 283.889 67.9214 292.855 68.356C303.47 68.8083 315.14 68.693 327.538 68.019C329.924 67.8416 331.458 68.2052 332.22 69.1541C332.974 70.103 333.019 71.6904 332.345 73.9961C331.857 75.4949 331.21 76.5768 330.402 77.2242C329.587 77.8716 328.407 78.2351 326.9 78.2972C319.051 78.5544 311.939 78.6874 305.625 78.6874C300.898 78.6874 296.624 78.6165 292.81 78.4746C287.383 78.244 282.825 77.4104 279.268 75.9915C275.606 74.5637 272.467 72.2846 269.921 69.2162C269.611 69.5177 269.203 69.8902 268.724 70.3247C266.755 72.2757 265.168 73.7656 264.015 74.7322C262.091 76.3906 260.37 77.0645 258.898 76.7364C257.55 76.4349 256.433 75.3175 255.564 73.3931C254.038 70.2449 254.748 67.6643 257.683 65.731C260.193 64.0017 262.339 62.3788 264.06 60.9067V50.0254C264.06 48.9169 263.581 48.438 262.454 48.438H259.812C256.451 48.438 254.677 46.6732 254.677 43.3388H254.659ZM345.39 61.9709H357.14C356.413 62.7424 356.058 63.576 356.085 64.4628C356.12 65.5891 356.741 66.6001 357.921 67.4603C360.741 69.6951 362.798 71.451 364.004 72.6482C365.228 74.0494 366.461 74.7145 367.667 74.6613C368.757 74.6613 369.99 74.0405 371.453 72.7812C372.784 71.6372 373.529 70.5021 373.653 69.4024C373.786 68.2762 373.218 67.0878 371.968 65.8463C370.54 64.6225 368.917 63.3188 367.126 61.9709H389.154V69.3936C389.154 69.9611 389.012 70.0941 388.968 70.1207C388.862 70.1917 388.56 70.3247 387.806 70.3868H384.658C381.767 70.3247 379.922 70.8745 379.036 72.0984C378.344 73.0384 378.282 74.342 378.849 75.9649C379.674 78.5278 381.767 79.8314 385.066 79.8314C385.208 79.8314 385.359 79.8314 385.509 79.8314C389.917 79.7161 393.154 79.2816 395.131 78.5278C396.941 77.8095 398.191 76.7453 398.865 75.3441C399.459 74.1026 399.761 72.2136 399.761 69.7394V61.9797H414.083C417 61.9797 418.535 60.4544 418.535 57.5634C418.535 54.6723 416.992 53.147 414.083 53.147H399.761V50.6373L405.356 50.4866C405.445 50.5398 405.552 50.6107 405.676 50.6994C405.844 50.8236 405.96 50.9034 406.039 50.9832C408.017 52.5795 410.065 52.544 411.981 50.8945C413.285 49.786 413.95 48.8016 414.012 47.8793C414.083 46.9304 413.444 45.9726 412.114 45.0326C410.376 43.8354 408.265 42.5673 405.835 41.2459C407.006 41.0331 407.99 40.5364 408.762 39.7383C409.808 38.6741 410.34 37.2729 410.34 35.5791V22.0374C410.34 20.2904 409.782 18.8448 408.673 17.7452C407.565 16.6455 406.11 16.0957 404.346 16.0957H384.818V13.9407H411.422C414.225 13.9407 415.706 12.4686 415.706 9.69286C415.706 6.91711 414.225 5.44499 411.422 5.44499H384.818V5.38292C384.818 1.94206 382.982 0.115207 379.506 0.115207C376.029 0.115207 374.203 1.93319 374.203 5.38292V5.44499H347.421C344.618 5.44499 343.137 6.91711 343.137 9.69286C343.137 12.4686 344.618 13.9407 347.421 13.9407H374.203V16.0957H355.783C354.018 16.0957 352.564 16.6544 351.464 17.7452C350.356 18.8448 349.797 20.2904 349.797 22.0374V35.4106C349.797 37.1577 350.356 38.6032 351.464 39.7028C352.573 40.8025 354.027 41.3523 355.783 41.3523H374.203V43.5073H364.572C356.821 43.5605 351.225 43.5605 347.935 43.5073C346.587 43.5073 345.656 43.8886 345.186 44.6247C344.725 45.2809 344.53 46.283 344.592 47.6931C344.654 49.041 344.911 49.9811 345.372 50.5752C345.913 51.2492 346.8 51.5862 348.024 51.5862C358.701 51.533 372.535 51.3113 389.137 50.9211V53.1559H345.372C342.454 53.1559 340.92 54.6812 340.92 57.5722C340.92 60.4633 342.463 61.9886 345.372 61.9886L345.39 61.9709ZM360.084 25.292V24.6358C360.084 23.5272 360.563 23.0484 361.689 23.0484H374.22V25.292H360.084ZM360.084 33.3532V31.9343H374.22V34.2666H361.007C360.342 34.2666 360.084 34.0095 360.084 33.3532ZM384.835 25.292V23.0484H398.9C399.512 23.0484 399.734 23.2701 399.734 23.8731V25.292H384.835ZM391.762 41.5829C391.655 41.6893 391.336 41.9997 391.46 42.3899C391.513 42.5584 391.664 42.7712 392.001 42.8244C392.4 42.9752 392.728 43.1437 392.977 43.3388L384.835 43.4009V41.3257H392.063L391.762 41.5829ZM384.835 34.2666V31.9343H399.734V32.6792C399.734 33.7877 399.255 34.2666 398.129 34.2666H384.835ZM485.658 35.1091C486.767 34.0095 487.325 32.5728 487.325 30.8169V21.6827C487.325 19.9356 486.767 18.4901 485.658 17.3905C484.549 16.2908 483.095 15.741 481.339 15.741H459.319C457.555 15.741 456.1 16.2997 454.992 17.3905C453.883 18.4901 453.325 19.9356 453.325 21.6827V30.8169C453.325 32.5639 453.883 34.0095 454.992 35.1091C456.1 36.2088 457.555 36.7586 459.319 36.7586H481.339C483.104 36.7586 484.558 36.1999 485.658 35.1091ZM463.603 27.6864V24.8131C463.603 23.7046 464.082 23.2257 465.208 23.2257H475.025C476.151 23.2257 476.63 23.7046 476.63 24.8131V27.6864C476.63 28.795 476.151 29.2738 475.025 29.2738H465.208C464.082 29.2738 463.603 28.795 463.603 27.6864ZM504.734 71.5131C504.734 74.7943 503.013 76.5236 499.767 76.5236H435.845C434.081 76.5236 432.626 75.9649 431.527 74.8741C430.418 73.7744 429.859 72.3378 429.859 70.5819V8.82378C429.859 7.07674 430.418 5.63123 431.527 4.53157C432.635 3.43191 434.089 2.88208 435.845 2.88208H497.719C500.911 2.88208 502.596 4.55817 502.596 7.72412C502.596 10.8901 500.911 12.6548 497.719 12.6548H442.159C441.033 12.6548 440.554 13.1337 440.554 14.2422V65.0127C440.554 66.1212 441.033 66.6001 442.159 66.6001H499.767C503.013 66.6001 504.734 68.3028 504.734 71.5308V71.5131ZM477.748 63.239H490.465C492.229 63.239 493.684 62.6803 494.783 61.5895C495.892 60.4899 496.451 59.0444 496.451 57.2973V45.5381C496.451 43.7911 495.892 42.3456 494.783 41.2459C493.675 40.1462 492.22 39.5964 490.465 39.5964H477.748C475.983 39.5964 474.528 40.1551 473.429 41.2459C472.32 42.3456 471.762 43.7822 471.762 45.5381V57.2973C471.762 59.0532 472.32 60.4899 473.429 61.5895C474.537 62.6892 475.992 63.239 477.748 63.239ZM480.922 53.9984V48.8371C480.922 47.7286 481.401 47.2497 482.528 47.2497H485.259C486.385 47.2497 486.864 47.7286 486.864 48.8371V53.9984C486.864 55.1069 486.385 55.5858 485.259 55.5858H482.528C481.401 55.5858 480.922 55.1069 480.922 53.9984ZM450.7 39.5964C448.935 39.5964 447.48 40.1551 446.381 41.2459C445.272 42.3456 444.714 43.7822 444.714 45.5381V57.2973C444.714 59.0532 445.272 60.4899 446.381 61.5895C447.489 62.6892 448.944 63.239 450.7 63.239H462.991C464.756 63.239 466.21 62.6803 467.31 61.5895C468.418 60.4899 468.977 59.0532 468.977 57.2973V45.5381C468.977 43.7911 468.418 42.3456 467.31 41.2459C466.201 40.1462 464.747 39.5964 462.991 39.5964H450.7ZM459.47 48.8371V53.9984C459.47 55.1069 458.991 55.5858 457.865 55.5858H455.302C454.176 55.5858 453.697 55.1069 453.697 53.9984V48.8371C453.697 47.7286 454.176 47.2497 455.302 47.2497H457.865C458.991 47.2497 459.47 47.7286 459.47 48.8371Z" fill="url(#paint0_linear_14_1054)"/>
<path d="M17.4349 12.2115C19.105 12.2115 20.4589 10.8576 20.4589 9.18746C20.4589 7.51732 19.105 6.1634 17.4349 6.1634C15.7647 6.1634 14.4108 7.51732 14.4108 9.18746C14.4108 10.8576 15.7647 12.2115 17.4349 12.2115Z" fill="white"/>
<path d="M91.9277 10.5886C93.5979 10.5886 94.9518 9.23471 94.9518 7.56458C94.9518 5.89444 93.5979 4.54052 91.9277 4.54052C90.2576 4.54052 88.9037 5.89444 88.9037 7.56458C88.9037 9.23471 90.2576 10.5886 91.9277 10.5886Z" fill="white"/>
<path d="M180.202 9.2318C181.872 9.2318 183.226 7.87788 183.226 6.20774C183.226 4.5376 181.872 3.18369 180.202 3.18369C178.532 3.18369 177.178 4.5376 177.178 6.20774C177.178 7.87788 178.532 9.2318 180.202 9.2318Z" fill="white"/>
<path d="M286.993 9.98559C288.663 9.98559 290.017 8.63168 290.017 6.96154C290.017 5.2914 288.663 3.93748 286.993 3.93748C285.322 3.93748 283.969 5.2914 283.969 6.96154C283.969 8.63168 285.322 9.98559 286.993 9.98559Z" fill="white"/>
<path d="M347.935 12.8234C349.605 12.8234 350.959 11.4695 350.959 9.79936C350.959 8.12922 349.605 6.77531 347.935 6.77531C346.265 6.77531 344.911 8.12922 344.911 9.79936C344.911 11.4695 346.265 12.8234 347.935 12.8234Z" fill="white"/>
<path d="M436.067 12.0874C437.737 12.0874 439.091 10.7334 439.091 9.0633C439.091 7.39316 437.737 6.03925 436.067 6.03925C434.397 6.03925 433.043 7.39316 433.043 9.0633C433.043 10.7334 434.397 12.0874 436.067 12.0874Z" fill="white"/>
<defs>
<linearGradient id="paint0_linear_14_1054" x1="252.362" y1="79.9999" x2="252.362" y2="-8.01082e-05" gradientUnits="userSpaceOnUse">
<stop stop-color="#018139"/>
<stop offset="1" stop-color="#0F6632"/>
</linearGradient>
</defs>
</svg>
