<svg width="1920" height="853" viewBox="0 0 1920 853" fill="none" xmlns="http://www.w3.org/2000/svg">
<mask id="mask0_4130_2055" style="mask-type:alpha" maskUnits="userSpaceOnUse" x="-54" y="0" width="2029" height="853">
<rect x="-53.9998" width="2028" height="853" fill="#D9D9D9"/>
</mask>
<g mask="url(#mask0_4130_2055)">
<path d="M456.5 309.5C311 295 -151 450.001 -151 852.999L923 853C803.999 451 573 321.11 456.5 309.5Z" fill="#BFDC6E"/>
<path d="M624.736 371.092C622.145 371.454 619.475 371.817 616.945 371.159C614.415 370.5 612.032 368.553 611.702 365.963C611.335 363.075 613.449 360.558 615.008 358.105C616.265 356.123 617.25 353.857 617.158 351.519C617.078 349.258 616.035 347.168 615.336 345.027C614.636 342.876 614.319 340.375 615.555 338.493C616.249 337.44 617.336 336.724 618.199 335.802C620.098 333.754 620.718 330.861 621.81 328.294C622.902 325.726 625.014 323.121 627.812 323.154C631.254 323.189 633.336 327.159 633.435 330.595C633.533 334.03 632.455 337.507 633.13 340.878C633.672 343.597 635.297 345.944 636.523 348.431C637.75 350.917 638.585 353.876 637.493 356.421C636.893 357.817 635.767 358.921 635.089 360.273C633.905 362.631 634.172 365.477 633.122 367.888C631.408 371.818 625.951 373.523 622.309 371.285" fill="#7A9756"/>
<path d="M626.248 337.35C625.757 342.835 625.166 348.31 624.464 353.766C623.762 359.221 622.981 364.644 622.089 370.058C621.582 373.115 621.053 376.162 620.491 379.208C620.419 379.609 621.032 379.777 621.115 379.365C622.117 373.927 623.03 368.469 623.843 362.989C624.656 357.51 625.348 352.1 625.95 346.646C626.29 343.547 626.607 340.437 626.88 337.329C626.918 336.918 626.275 336.928 626.237 337.339L626.248 337.35Z" fill="#6E3B46"/>
<path d="M621.215 346.942C622.088 348.814 623.314 350.513 624.812 351.92C625.116 352.203 625.564 351.742 625.26 351.458C623.795 350.073 622.604 348.429 621.765 346.612C621.593 346.238 621.043 346.568 621.215 346.942Z" fill="#6E3B46"/>
<path d="M627.105 357.97C625.915 359.242 624.736 360.513 623.547 361.796C623.263 362.1 623.725 362.547 624.009 362.243C625.199 360.972 626.377 359.7 627.567 358.418C627.851 358.114 627.389 357.666 627.105 357.97Z" fill="#6E3B46"/>
<path d="M160.184 339.107C157.674 339.744 155.284 341.314 154.541 343.799C153.876 345.994 154.251 348.371 153.796 350.618C153.095 354.036 150.604 356.761 148.652 359.657C146.687 362.552 145.184 366.3 146.678 369.462C147.71 371.639 150.042 373.197 150.35 375.574C150.592 377.425 149.544 379.162 149.102 380.976C148.243 384.538 149.924 388.409 152.744 390.753C155.564 393.097 159.341 394.059 163.01 394.05C166.613 394.04 170.346 393.098 172.996 390.674C175.646 388.25 176.911 384.122 175.337 380.894C174.425 379.018 172.672 377.538 172.22 375.503C171.049 370.317 178.769 365.529 176.403 360.753C175.556 359.048 173.66 358.159 172.302 356.823C170.259 354.805 169.528 351.851 168.916 349.042C168.303 346.232 167.664 343.278 165.739 341.155C163.813 339.019 160.142 338.175 158.096 340.177" fill="#D8D86E"/>
<path d="M159.419 353.441C159.793 360.993 160.155 368.533 160.53 376.085C160.905 383.638 161.267 391.269 161.642 398.861C161.85 403.09 162.058 407.307 162.266 411.536C162.294 412.009 163.03 412.02 163.016 411.534C162.641 404.021 162.28 396.495 161.905 388.982C161.53 381.468 161.168 373.771 160.793 366.179C160.585 361.937 160.377 357.694 160.168 353.439C160.141 352.966 159.404 352.955 159.419 353.441Z" fill="#6E3B46"/>
<path d="M156.818 359.897C157.836 361.747 158.88 363.583 159.91 365.433C160.148 365.853 160.791 365.47 160.554 365.05C159.536 363.201 158.492 361.364 157.462 359.515C157.224 359.095 156.581 359.478 156.818 359.897Z" fill="#6E3B46"/>
<path d="M161.611 382.178C165.13 379.936 167.316 376.16 167.976 372.086C168.053 371.613 167.33 371.417 167.252 371.891C166.631 375.767 164.589 379.399 161.228 381.535C160.821 381.786 161.204 382.442 161.611 382.178Z" fill="#6E3B46"/>
<path d="M377.946 296.698C375.965 297.234 374.092 298.523 373.547 300.493C373.059 302.247 373.376 304.122 373.059 305.919C372.56 308.645 370.614 310.83 369.103 313.16C367.592 315.476 366.45 318.477 367.676 320.966C368.531 322.676 370.394 323.886 370.681 325.763C370.897 327.224 370.092 328.629 369.768 330.071C369.132 332.907 370.525 335.964 372.802 337.767C375.08 339.586 378.091 340.294 380.993 340.233C383.849 340.173 386.798 339.37 388.857 337.414C390.916 335.442 391.866 332.167 390.577 329.617C389.835 328.137 388.421 326.994 388.017 325.382C387.004 321.285 393.069 317.377 391.121 313.623C390.428 312.28 388.916 311.602 387.813 310.561C386.158 308.991 385.538 306.659 385.013 304.448C384.487 302.238 383.929 299.905 382.38 298.24C380.831 296.576 377.899 295.959 376.297 297.581" fill="#D8D86E"/>
<path d="M377.552 308.076C378.36 320.047 379.167 332.017 379.975 343.987C380.201 347.361 380.426 350.735 380.667 354.109C380.691 354.494 381.277 354.482 381.254 354.096C380.446 342.141 379.639 330.187 378.831 318.232C378.605 314.842 378.38 311.453 378.138 308.064C378.115 307.679 377.528 307.691 377.552 308.076Z" fill="#6E3B46"/>
<path d="M375.591 313.225C376.424 314.673 377.289 316.12 378.122 317.569C378.315 317.904 378.818 317.585 378.626 317.265C377.792 315.817 376.928 314.369 376.094 312.921C375.902 312.586 375.399 312.905 375.591 313.225Z" fill="#6E3B46"/>
<path d="M379.714 330.833C382.471 329.001 384.153 325.973 384.61 322.739C384.664 322.367 384.089 322.21 384.035 322.596C383.591 325.691 382.03 328.578 379.395 330.331C379.075 330.538 379.379 331.041 379.699 330.833L379.714 330.833Z" fill="#6E3B46"/>
<path d="M250.681 284.446L240.825 284.907L241.289 294.753L251.145 294.291L250.681 284.446Z" fill="#4F83C2"/>
<path d="M312.229 322.273L234.153 325.929L236.348 372.532L314.424 368.876L312.229 322.273Z" fill="#4F83C2"/>
<path d="M234.264 295.033L309.198 291.522L317.886 321.965L228.487 326.159L234.264 295.033Z" fill="#A7CEED"/>
<path d="M284.242 343.813L264.057 344.758L265.302 371.181L285.486 370.236L284.242 343.813Z" fill="white"/>
<path d="M257.124 337.036L241.422 337.771L242.16 353.458L257.863 352.722L257.124 337.036Z" fill="white"/>
<path d="M249.266 337.354L250.015 353.038" stroke="#A7CEED" stroke-width="1.03" stroke-miterlimit="10"/>
<path d="M257.499 344.833L241.799 345.579" stroke="#A7CEED" stroke-width="1.03" stroke-miterlimit="10"/>
<path d="M306.084 334.73L290.381 335.465L291.12 351.151L306.822 350.416L306.084 334.73Z" fill="white"/>
<path d="M298.251 335.069L298.983 350.752" stroke="#A7CEED" stroke-width="1.03" stroke-miterlimit="10"/>
<path d="M306.466 342.546L290.767 343.275" stroke="#A7CEED" stroke-width="1.03" stroke-miterlimit="10"/>
<path d="M1478.04 74.7034C1176.44 23.6952 643 316.999 295 848.999L2338.84 863.082C2026.5 334.421 1696.47 111.649 1478.04 74.7034Z" fill="#B9D877"/>
<path d="M1082.59 486.057C1077.7 484.848 1073.75 479.684 1070.66 473.45C1066.65 465.348 1064.11 455.44 1062.91 450.062C1058.71 431.147 1054 413.092 1054 393.041C1054 358.598 1083.9 323.09 1112.12 305.129C1124.27 297.395 1137.99 291.756 1149.73 283.151C1162.88 273.502 1184.37 270.242 1195.88 258.732C1203.02 251.591 1213.92 247.431 1219.81 239.684C1224.16 233.963 1230.68 228.137 1235.93 223.078C1238.29 220.806 1241.82 219.473 1243.87 216.973C1245.61 214.845 1244.92 211.502 1247.41 209.892C1265.34 198.285 1267.44 159.606 1271.7 140.417C1274.47 127.98 1276.27 166.992 1271.09 178.634C1267.61 186.466 1268.87 196.142 1265.48 203.787C1262.56 210.355 1267.85 219.563 1263.28 225.276C1261.09 228.016 1263.55 233.525 1261.69 236.876C1260.5 239.019 1256.93 241.441 1256.32 243.591C1254.13 251.263 1248.91 252.251 1245.21 258.732C1242.38 263.683 1234.72 270.061 1229.82 272.651C1225.35 275.018 1221.65 282.886 1216.64 285.838C1210.92 289.199 1200.45 295.411 1196.98 300.612C1192.37 307.531 1181.78 310.437 1176.1 316.118C1164.76 327.456 1142.46 338.3 1139.84 356.655C1137.16 375.374 1139.75 392.081 1152.9 405.984C1167.76 421.693 1182.76 436.816 1198.08 452.137C1202.67 456.73 1215.69 465.938 1212 474.237C1209.15 480.638 1193.16 483.951 1187.09 486.814C1176.57 491.777 1164.85 494.437 1154.61 500C1141.23 507.272 1120.54 514.896 1105.04 514.896C1094.98 514.896 1086.26 499.477 1083.06 491.209C1082.37 489.438 1082.58 487.674 1082.59 486.057Z" fill="#A7CEED"/>
<path d="M1084.77 486.325C1072.18 486.325 1065.16 460.179 1062.91 450.062C1058.71 431.147 1054 413.092 1054 393.041C1054 358.598 1083.9 323.09 1112.12 305.129C1124.27 297.395 1137.99 291.756 1149.73 283.151C1162.88 273.502 1184.37 270.242 1195.88 258.732C1203.02 251.591 1213.92 247.431 1219.81 239.684C1224.16 233.963 1230.68 228.137 1235.93 223.078C1238.29 220.806 1241.82 219.473 1243.87 216.973C1245.61 214.845 1244.92 211.502 1247.41 209.892C1265.34 198.285 1267.44 159.606 1271.7 140.417C1274.47 127.98 1276.27 166.992 1271.09 178.634C1267.61 186.466 1268.87 196.142 1265.48 203.787C1262.56 210.355 1267.85 219.563 1263.28 225.276C1261.09 228.016 1263.55 233.525 1261.69 236.876C1260.5 239.019 1256.93 241.441 1256.32 243.591C1254.13 251.263 1248.91 252.251 1245.21 258.732C1242.38 263.683 1234.72 270.061 1229.82 272.651C1225.35 275.018 1221.65 282.886 1216.64 285.838C1210.92 289.199 1200.45 295.411 1196.98 300.612C1192.37 307.531 1181.78 310.437 1176.1 316.118C1164.76 327.456 1142.46 338.3 1139.84 356.655C1137.16 375.374 1139.75 392.081 1152.9 405.984C1167.76 421.693 1182.76 436.816 1198.08 452.137C1202.67 456.73 1215.69 465.938 1212 474.237C1209.15 480.638 1193.16 483.951 1187.09 486.814C1176.57 491.777 1164.85 494.437 1154.61 500C1141.23 507.272 1120.54 514.896 1105.04 514.896C1094.98 514.896 1086.26 499.477 1083.06 491.209C1081.62 487.484 1084.13 483.787 1080.37 481.441C1076.19 478.826 1067.21 470.978 1064.99 466.545" stroke="#A7CEED" stroke-width="3" stroke-linecap="round"/>
<path d="M420.281 473.582C420.281 473.582 436.362 447.456 456.259 456.658C456.259 456.658 493.92 425.157 522.105 439.097C550.289 453.036 541.897 468.101 541.897 468.101C541.897 468.101 562.344 450.164 575.416 460.66C588.489 471.156 579.709 483.692 579.709 483.692C579.709 483.692 608.384 480.376 616.074 493.253C623.763 506.131 620.173 526.973 620.173 526.973L420.281 473.582Z" fill="#90B249"/>
<path d="M1453.69 425.378C1453.69 425.378 1480.4 392.254 1508.59 394.358C1536.79 396.444 1534.55 408.447 1534.55 408.447C1534.55 408.447 1546.25 386.881 1564.51 386.429C1582.76 385.977 1582.1 404.618 1582.1 404.618C1582.1 404.618 1590.92 387.359 1606.44 386.793C1621.97 386.245 1624.91 406.124 1624.91 406.124C1624.91 406.124 1640.1 389.091 1663.48 398.697C1686.86 408.303 1693.44 454.661 1693.44 454.661L1453.67 425.381L1453.69 425.378Z" fill="#7A9756"/>
<path d="M1610.21 448.598C1610.21 448.598 1635.27 404.034 1668.98 418.086C1668.98 418.086 1729.62 363.2 1777.4 384.58C1825.18 405.959 1812.21 431.606 1812.21 431.606C1812.21 431.606 1845.08 400.389 1867.49 417.048C1889.9 433.69 1876.13 455.126 1876.13 455.126C1876.13 455.126 1923.62 447.741 1937.25 468.696C1950.89 489.65 1946.27 524.61 1946.27 524.61L1610.25 448.61L1610.21 448.598Z" fill="#D8D86E"/>
<path d="M1415.31 298.665C1414.65 297.224 1415.33 295.438 1416.53 294.405C1417.74 293.386 1419.37 292.987 1420.95 292.825C1422.07 292.705 1423.24 292.697 1424.29 293.06C1426.33 293.771 1427.7 295.778 1428.23 297.868C1428.7 299.725 1428.61 301.764 1427.73 303.452C1426.85 305.154 1425.12 306.44 1423.21 306.557C1421.3 306.675 1419.32 305.467 1418.76 303.626" fill="#182138"/>
<path d="M1428.21 375.571C1428.2 373.384 1426.4 371.9 1424.21 371.932C1422.03 371.95 1420.27 373.467 1420.29 375.668C1420.29 375.821 1420.31 375.97 1420.33 376.117L1420.36 378.377L1416.31 380.588L1428.24 380.449L1428.21 375.633C1428.21 375.633 1428.21 375.603 1428.2 375.589L1428.21 375.571Z" fill="#FC6158"/>
<path d="M1417.92 366.581C1416.18 365.267 1413.91 365.773 1412.59 367.512C1411.28 369.25 1411.4 371.57 1413.14 372.899C1413.26 372.982 1413.38 373.066 1413.51 373.149L1415.32 374.511L1414.58 379.075L1421.79 369.562L1417.96 366.634C1417.96 366.634 1417.93 366.61 1417.93 366.596L1417.92 366.581Z" fill="#FC6158"/>
<path d="M1442.56 335.523C1440.37 330.189 1438.75 327.666 1438.75 327.666L1438.81 327.654C1438.81 327.654 1438.77 327.572 1438.74 327.531C1437.96 326.051 1438.51 324.228 1439.99 323.432C1441.47 322.65 1443.29 323.203 1444.09 324.68C1444.09 324.695 1444.1 324.724 1444.12 324.736C1446.19 328.328 1447.76 334.04 1447.76 334.04C1448.17 335.469 1447.34 336.949 1445.91 337.356C1444.48 337.762 1443.16 336.916 1442.59 335.503L1442.56 335.523Z" fill="#FAB196"/>
<path d="M1425.5 317.028C1424.61 315.204 1425.37 313.008 1427.18 312.119C1427.26 312.073 1427.33 312.045 1427.42 312.013C1427.92 311.766 1428.5 311.702 1429.14 311.78C1429.32 311.805 1429.54 311.795 1429.7 311.885C1434.64 314.344 1442.27 320.432 1444.04 324.63C1444.04 324.63 1444.21 324.916 1444.28 325.055C1445.03 326.587 1444.4 328.424 1442.88 329.152C1441.46 329.846 1439.75 329.318 1438.93 327.981C1433.52 321.384 1427.05 318.668 1427.05 318.668L1427.04 318.654C1426.4 318.304 1425.84 317.741 1425.49 317.031L1425.5 317.028Z" fill="#FAB196"/>
<path d="M1443.8 339.654C1443.56 339.107 1443.02 337.263 1442.69 335.941C1442.16 334.566 1442.84 333.023 1444.21 332.49C1445.57 331.959 1447.1 332.629 1447.64 333.956C1447.64 333.956 1448.78 336.325 1449.39 338.386C1450.16 341.009 1449.31 341.138 1449.31 341.138C1449.31 341.138 1449.44 342.224 1448.72 342.269C1448.72 342.269 1448.73 343.224 1448.04 343.021C1448.04 343.021 1447.37 344.394 1446.95 342.619C1446.57 341.047 1445.52 339.072 1445.03 338.92C1444.56 338.766 1445.16 340.006 1444.92 340.598C1444.69 341.191 1444.04 340.187 1443.8 339.64L1443.8 339.654Z" fill="#FAB196"/>
<path d="M1419.87 361.97C1419.87 361.97 1419.3 342.154 1419.3 341.987C1419.23 339.43 1421.26 337.297 1423.8 337.243C1426.36 337.17 1428.49 339.201 1428.55 341.745C1428.55 341.851 1428.75 361.236 1428.75 361.236C1428.78 361.397 1428.78 361.564 1428.79 361.729C1428.86 364.194 1426.91 366.404 1424.44 366.46C1422.03 366.519 1420.01 364.498 1419.86 362.123L1419.85 361.973L1419.87 361.97Z" fill="#A7CEED"/>
<path d="M1424.25 357.248C1426.72 357.207 1428.75 359.181 1428.79 361.638L1428.48 376.662C1423.99 377.373 1420.36 376.797 1420.36 376.797L1419.86 361.788C1419.82 359.317 1421.79 357.287 1424.25 357.248Z" fill="#A7CEED"/>
<path d="M1413.4 335.452L1418.62 335.833L1418.72 335.846L1423.95 336.227L1429.23 336.612L1428.83 342.27C1428.7 344.074 1427.43 345.714 1425.7 346.223L1419.33 347.213L1416.38 346.994L1410.23 345.099C1408.6 344.343 1407.57 342.529 1407.7 340.74L1408.11 335.082L1413.4 335.467L1413.4 335.452Z" fill="#A7CEED"/>
<path d="M1406.6 361.359C1406.6 361.359 1415.61 343.703 1415.67 343.554C1416.82 341.268 1415.92 338.489 1413.65 337.336C1411.36 336.186 1408.58 337.091 1407.43 339.362C1407.38 339.447 1398.88 356.886 1398.88 356.886C1398.78 357.026 1398.7 357.163 1398.62 357.314C1397.5 359.518 1398.33 362.344 1400.51 363.466C1402.67 364.565 1405.35 363.603 1406.5 361.499L1406.58 361.362L1406.6 361.359Z" fill="#A7CEED"/>
<path d="M1399.43 357.268C1397.92 359.212 1398.41 362.146 1400.55 363.825L1413.92 373.572C1417.24 370.466 1418.93 367.166 1418.93 367.166L1406.07 356.79C1403.92 355.112 1400.96 355.338 1399.44 357.282L1399.43 357.268Z" fill="#A7CEED"/>
<path d="M1416.05 297.415C1416.38 297.641 1416.84 297.798 1417.31 297.953C1419.19 298.571 1421.32 297.864 1423.44 298.863C1423.34 299.87 1423.26 300.889 1423.16 301.896C1423.15 302.051 1423.19 302.272 1423.34 302.273C1423.43 302.271 1423.49 302.199 1423.54 302.129C1423.65 301.986 1423.76 301.844 1423.87 301.702C1423.6 302.209 1423.26 303.202 1423.64 303.387C1423.98 303.552 1424.69 302.551 1424.91 301.871C1425.01 301.852 1425.11 301.832 1425.22 301.827C1426.13 301.822 1426.86 302.551 1426.87 303.463C1426.87 304.374 1426.14 305.105 1425.23 305.11C1424.99 305.111 1424.75 305.049 1424.53 304.953L1424.15 309.832C1424.16 309.996 1424.16 310.164 1424.15 310.333C1423.98 312.404 1422.17 313.947 1420.1 313.79C1418.04 313.633 1416.49 311.811 1416.65 309.743C1416.66 309.588 1416.68 309.433 1416.71 309.275L1416.88 307.19C1414.96 306.381 1414.82 304.325 1415.23 302.544C1415.63 300.764 1415.66 298.478 1416.07 297.412L1416.05 297.415Z" fill="#FAB196"/>
<path d="M1435.3 324.334C1431.22 321.773 1426.89 318.456 1426.89 318.456L1426.88 318.441C1426.2 318.068 1425.62 317.478 1425.25 316.727C1424.31 314.806 1425.1 312.481 1427.01 311.558C1427.09 311.512 1427.18 311.48 1427.25 311.452L1427.25 311.437C1427.78 311.185 1428.39 311.115 1429.07 311.199C1429.27 311.221 1429.48 311.259 1429.67 311.313C1432.14 311.897 1436.27 315.405 1439.15 318.177C1439.15 318.177 1438.39 320.724 1435.3 324.349L1435.3 324.334Z" fill="#4F83C2"/>
<path d="M1429.94 323.855L1429.22 337.664C1429.22 337.664 1424.37 338.656 1418.39 338.234C1412.41 337.813 1407.91 336.29 1407.91 336.29L1409.03 322.406C1409.02 322.515 1408.39 305.874 1408.39 305.874C1410.44 305.09 1414.65 309.025 1416.7 308.912C1416.7 308.912 1417.67 311.056 1420.24 311.239C1420.24 311.239 1420.27 311.233 1420.29 311.245C1420.31 311.243 1420.32 311.24 1420.33 311.237C1422.91 311.42 1424.18 309.431 1424.18 309.431C1426.26 309.844 1428.66 310.532 1430.64 311.664L1429.91 323.861" fill="#4F83C2"/>
<path d="M1401.6 290.792C1403.03 296.377 1404.28 299.092 1404.28 299.092L1404.22 299.103C1404.22 299.103 1404.25 299.189 1404.27 299.23C1404.84 300.795 1404.04 302.528 1402.48 303.112C1400.92 303.681 1399.18 302.883 1398.6 301.321C1398.6 301.306 1398.59 301.277 1398.59 301.262C1397.04 297.418 1396.28 291.539 1396.28 291.539C1396.08 290.071 1397.1 288.707 1398.57 288.506C1400.03 288.305 1401.22 289.329 1401.6 290.792Z" fill="#FAB196"/>
<path d="M1415.94 311.459C1416.56 313.394 1415.52 315.461 1413.6 316.083C1413.51 316.099 1413.44 316.113 1413.35 316.145C1412.82 316.321 1412.24 316.294 1411.6 316.141C1411.41 316.1 1411.21 316.063 1411.05 315.956C1406.49 312.832 1399.79 305.75 1398.62 301.361C1398.62 301.361 1398.49 301.052 1398.43 300.896C1397.91 299.276 1398.77 297.547 1400.37 297.031C1401.88 296.548 1403.5 297.293 1404.12 298.727C1408.56 306.008 1414.6 309.598 1414.6 309.598L1412.4 310.545C1413 310.979 1415.65 310.676 1415.9 311.435L1415.94 311.459Z" fill="#FAB196"/>
<path d="M1401.24 286.813C1401.4 287.393 1401.71 289.28 1401.83 290.642C1402.16 292.07 1401.28 293.514 1399.85 293.845C1398.43 294.172 1397.01 293.316 1396.65 291.908C1396.65 291.908 1395.85 289.414 1395.54 287.283C1395.15 284.573 1396 284.565 1396 284.565C1396 284.565 1396.02 283.466 1396.73 283.529C1396.73 283.529 1396.85 282.578 1397.5 282.881C1397.5 282.881 1398.36 281.609 1398.53 283.417C1398.69 285.03 1399.46 287.134 1399.91 287.339C1400.36 287.557 1399.93 286.24 1400.24 285.695C1400.55 285.15 1401.07 286.222 1401.22 286.802L1401.24 286.813Z" fill="#FAB196"/>
<path d="M1407.24 302.881C1410.92 305.974 1414.75 309.858 1414.75 309.858L1414.75 309.872C1415.37 310.333 1415.88 310.998 1416.14 311.801C1416.8 313.836 1415.7 316.02 1413.68 316.676C1413.59 316.692 1413.51 316.724 1413.42 316.74C1412.86 316.922 1412.23 316.903 1411.58 316.723C1411.38 316.669 1411.19 316.614 1410.99 316.53C1408.63 315.607 1405.02 311.559 1402.56 308.42C1402.56 308.42 1403.67 306.005 1407.24 302.852L1407.24 302.881Z" fill="#4F83C2"/>
<path opacity="0.35" d="M1416.92 307.272C1416.92 307.272 1417.85 307.69 1419.18 307.683L1416.75 309.495L1416.92 307.272Z" fill="#FC6158"/>
<path opacity="0.35" d="M1417.2 302.55C1417.09 302.845 1416.64 302.961 1416.2 302.786C1415.76 302.626 1415.49 302.251 1415.6 301.941C1415.71 301.632 1416.16 301.531 1416.6 301.706C1417.04 301.866 1417.31 302.241 1417.2 302.55Z" fill="#FC6158"/>
<path opacity="0.35" d="M1422.58 302.569C1422.62 302.881 1422.28 303.188 1421.81 303.262C1421.35 303.318 1420.93 303.123 1420.89 302.812C1420.84 302.501 1421.18 302.194 1421.65 302.12C1422.12 302.063 1422.53 302.258 1422.58 302.569Z" fill="#FC6158"/>
<path d="M863.585 362.496C865.016 361.845 866.082 360.447 866.343 358.883C866.601 357.334 866.03 355.66 864.896 354.572C864.374 354.068 863.661 353.677 862.939 353.773C862.218 353.869 861.566 354.589 861.773 355.288C860.896 354.954 860.149 354.358 859.281 353.981C858.427 353.607 857.34 353.475 856.61 354.057C855.88 354.639 855.936 356.07 856.85 356.304C855.687 356.095 854.444 356.129 853.369 356.609C852.291 357.105 851.415 358.099 851.264 359.274C851.114 360.448 851.81 361.736 852.949 362.061C851.58 363.077 851.199 365.226 852.155 366.659C852.437 367.067 852.793 367.415 853.201 367.728C854.232 368.505 855.548 369.005 856.833 368.766C858.118 368.527 859.255 367.448 859.292 366.159" fill="#FFD9A8"/>
<path d="M872.62 374.197C871.359 372.763 869.177 372.619 867.745 373.865C867.689 373.915 867.63 373.979 867.574 374.028C867.168 374.372 866.901 374.851 866.734 375.442C866.683 375.615 866.647 375.79 866.623 375.984C865.83 380.871 870.71 391.335 873.715 394.379C873.715 394.379 873.89 394.644 873.989 394.756C875.055 395.952 876.874 396.082 878.052 395.028C879.171 394.038 879.33 392.377 878.478 391.179C874.708 384.071 873.471 376.142 873.471 376.142C873.387 375.438 873.098 374.768 872.606 374.194L872.62 374.197Z" fill="#FAB196"/>
<path d="M875.9 384.286C874.629 379.783 874.889 376.373 872.945 374.325C871.628 372.94 869.883 372.596 868.402 373.787C868.346 373.836 868.287 373.9 868.217 373.947C867.799 374.273 867.503 374.746 867.324 375.319C867.259 375.489 867.222 375.665 867.183 375.855C866.725 378.08 867.421 383.075 868.557 386.452C868.557 386.452 872.238 386.065 875.9 384.286Z" fill="white"/>
<path d="M890.119 385.625C889.578 385.804 887.956 386.569 886.821 387.19C885.529 387.686 884.867 389.122 885.361 390.429C885.847 391.704 887.267 392.362 888.551 391.909C888.551 391.909 890.92 391.222 892.748 390.347C895.066 389.237 894.624 388.567 894.624 388.567C894.624 388.567 895.463 387.976 895.053 387.449C895.053 387.449 895.724 386.855 895.158 386.495C895.158 386.495 895.693 385.155 894.196 385.976C892.856 386.707 890.801 387.2 890.407 386.966C889.998 386.73 891.246 386.376 891.524 385.838C891.785 385.312 890.685 385.467 890.145 385.646L890.119 385.625Z" fill="#FAB196"/>
<path d="M886.437 387.355C881.318 389.17 875.884 390.218 875.884 390.218L875.875 390.262C875.875 390.262 875.825 390.282 875.778 390.288C874.252 390.66 873.323 392.208 873.696 393.735C874.068 395.261 875.616 396.19 877.143 395.817C877.157 395.82 877.175 395.808 877.207 395.8C881.036 394.986 888.671 391.919 888.671 391.919C889.926 391.307 890.45 389.798 889.839 388.543C889.227 387.288 887.811 386.905 886.463 387.375L886.437 387.355Z" fill="#FAB196"/>
<path d="M839.53 421.033C841.538 421.064 843.138 422.706 843.106 424.713C843.074 426.721 841.433 428.321 839.425 428.289C839.288 428.291 839.153 428.279 839.018 428.266L836.677 428.227L834.906 431.936L835.07 420.984L839.487 421.024C839.487 421.024 839.516 421.03 839.53 421.033Z" fill="#182138"/>
<path d="M862.908 424.501C862.908 424.501 861.045 404.344 861.031 404.188C860.81 401.854 858.753 400.134 856.419 400.355C854.085 400.577 852.365 402.634 852.586 404.968C852.597 405.062 854.747 424.79 854.747 424.79C854.746 424.942 854.745 425.094 854.759 425.25C854.966 427.505 856.959 429.166 859.214 428.959C861.422 428.757 863.053 426.835 862.925 424.642L862.923 424.504L862.908 424.501Z" fill="#A7CEED"/>
<path d="M862.727 424.936C862.766 422.671 860.968 420.806 858.706 420.752L837.585 420.921C836.908 425.024 837.437 428.383 837.437 428.383L858.542 428.958C860.808 428.997 862.673 427.199 862.727 424.936Z" fill="#A7CEED"/>
<path d="M866.407 397.864L861.626 398.406L861.533 398.417L856.752 398.959L851.925 399.507L852.509 404.677C852.69 406.317 853.913 407.789 855.525 408.182L861.487 409.683L862.784 409.538L862.877 409.527C863.737 409.429 864.582 409.176 865.349 408.785L869.661 406.59C871.128 405.839 871.996 404.141 871.815 402.502L871.231 397.331L866.404 397.879L866.407 397.864Z" fill="#A7CEED"/>
<path d="M876.881 441.047C876.494 439.076 877.756 437.169 879.73 436.766C881.702 436.379 883.609 437.641 884.011 439.616C884.043 439.76 884.062 439.886 884.065 440.023L884.524 442.315L888.525 443.261L877.798 445.416L876.904 441.082C876.904 441.082 876.91 441.053 876.899 441.036L876.881 441.047Z" fill="#182138"/>
<path d="M873.028 423.441C873.028 423.441 863.9 405.374 863.836 405.239C862.772 403.143 863.619 400.586 865.711 399.537C867.807 398.473 870.364 399.32 871.413 401.412C871.457 401.498 880.108 419.36 880.108 419.36C880.19 419.483 880.268 419.622 880.332 419.757C881.349 421.782 880.538 424.239 878.528 425.26C876.553 426.257 874.16 425.505 873.092 423.576L873.028 423.441Z" fill="#A7CEED"/>
<path d="M875.737 417.545C877.956 417.07 880.125 418.463 880.614 420.684L884.505 441.442C880.605 442.897 877.207 443.022 877.207 443.022L872.583 422.419C872.109 420.2 873.504 418.016 875.723 417.542L875.737 417.545Z" fill="#A7CEED"/>
<path d="M864.867 360.273C864.853 360.194 864.824 360.111 864.81 360.032C864.51 360.23 864.101 360.36 863.664 360.483C861.958 360.986 860.083 360.311 858.168 361.168C858.224 362.079 858.284 362.977 858.355 363.891C858.357 364.029 858.332 364.222 858.18 364.222C858.107 364.207 858.043 364.148 858.008 364.095C857.912 363.968 857.816 363.841 857.723 363.7C857.949 364.159 858.251 365.06 857.899 365.217C857.596 365.353 856.974 364.446 856.81 363.833C856.723 363.815 856.635 363.797 856.529 363.79C855.726 363.762 855.046 364.4 855.015 365.218C854.987 366.021 855.625 366.702 856.446 366.718C856.674 366.719 856.88 366.685 857.065 366.601L857.31 370.969C857.294 371.119 857.297 371.257 857.296 371.409C857.403 373.262 858.986 374.686 860.839 374.58C862.692 374.473 864.116 372.889 864.01 371.036C864.007 370.898 863.976 370.755 863.956 370.628L863.852 368.761C865.579 368.079 865.76 366.239 865.432 364.646C865.103 363.053 864.852 360.27 864.852 360.27L864.867 360.273Z" fill="#FAB196"/>
<path opacity="0.35" d="M863.852 368.761C863.852 368.761 863.032 369.111 861.881 369.072L863.956 370.705L863.852 368.761Z" fill="#FC6158"/>
<path d="M874.093 376.53C874.038 375.313 873.367 374.275 872.403 373.695C870.279 372.083 866.724 371.488 864.067 371.277C864.067 371.277 863.127 373.174 860.77 373.284C860.77 373.284 860.741 373.278 860.726 373.275C860.726 373.275 860.697 373.269 860.682 373.266C858.325 373.376 857.233 371.564 857.233 371.564C854.593 372.013 851.123 372.931 849.153 374.723C848.252 375.392 847.674 376.494 847.729 377.71C847.753 378.188 847.859 378.637 848.053 379.028L851.661 384.333L852.211 399.597C852.211 399.597 855.07 400.536 861.921 400.237C861.921 400.237 861.95 400.243 861.965 400.246C861.979 400.249 861.994 400.252 862.009 400.255C868.851 399.924 871.613 398.738 871.613 398.738L870.769 383.49L873.889 377.891C874.038 377.464 874.114 377.022 874.09 376.544L874.093 376.53Z" fill="white"/>
<path d="M855.147 377.176C855.205 375.266 853.719 373.663 851.826 373.594C851.753 373.579 851.674 373.593 851.583 373.59C851.053 373.572 850.53 373.739 850.006 374.059C849.851 374.149 849.692 374.253 849.562 374.364C845.633 377.37 842.002 388.34 842.113 392.62C842.113 392.62 842.064 392.93 842.063 393.083C842.01 394.674 843.242 396.026 844.834 396.079C846.319 396.125 847.583 395.027 847.776 393.572C849.906 385.817 854.442 379.198 854.442 379.198C854.861 378.643 855.126 377.95 855.141 377.206L855.147 377.176Z" fill="#FAB196"/>
<path d="M850.468 386.345C852.438 382.112 854.444 379.183 854.444 379.183C854.864 378.629 855.128 377.936 855.144 377.191C855.202 375.281 853.716 373.678 851.823 373.609C851.75 373.594 851.671 373.608 851.58 373.605C851.049 373.587 850.527 373.754 850.003 374.074C849.847 374.163 849.689 374.268 849.559 374.379C847.766 375.749 846.026 378.793 844.689 382.104C844.689 382.104 846.63 384.533 850.465 386.359L850.468 386.345Z" fill="white"/>
<path d="M860.19 396.417C859.669 396.203 857.922 395.721 856.666 395.447C855.362 394.965 853.925 395.646 853.443 396.95C852.978 398.243 853.618 399.657 854.89 400.147C854.89 400.147 857.135 401.174 859.102 401.701C861.59 402.365 861.691 401.577 861.691 401.577C861.691 401.577 862.722 401.683 862.74 401C862.74 401 863.643 400.987 863.438 400.35C863.438 400.35 864.72 399.683 863.04 399.322C861.547 399.015 859.673 398.034 859.518 397.606C859.365 397.162 860.549 397.711 861.101 397.474C861.653 397.237 860.707 396.645 860.172 396.428L860.19 396.417Z" fill="#FAB196"/>
<path d="M856.277 395.337C851.218 393.38 846.415 390.622 846.415 390.622L846.406 390.666C846.406 390.666 846.324 390.618 846.295 390.612C844.886 389.895 843.183 390.46 842.466 391.869C841.749 393.278 842.314 394.981 843.722 395.698C843.737 395.701 843.766 395.707 843.781 395.71C847.208 397.59 855.007 400.248 855.007 400.248C856.353 400.601 857.741 399.788 858.095 398.442C858.448 397.096 857.631 395.875 856.289 395.355L856.277 395.337Z" fill="#FAB196"/>
<path opacity="0.35" d="M863.669 364.757C863.794 365.041 864.221 365.114 864.621 364.952C865.038 364.779 865.266 364.414 865.156 364.132C865.032 363.847 864.604 363.774 864.205 363.936C863.805 364.098 863.56 364.475 863.669 364.757Z" fill="#FC6158"/>
<path opacity="0.35" d="M858.574 364.974C858.543 365.273 858.882 365.556 859.33 365.603C859.778 365.649 860.157 365.437 860.188 365.139C860.219 364.84 859.881 364.557 859.433 364.51C858.984 364.464 858.605 364.676 858.574 364.974Z" fill="#FC6158"/>
<path d="M1796.59 212C1794.04 212.499 1791.57 213.922 1790.7 216.333C1789.93 218.471 1790.17 220.838 1789.59 223.031C1788.7 226.375 1786.07 228.931 1783.96 231.689C1781.85 234.446 1780.14 238.071 1781.46 241.267C1782.37 243.471 1784.62 245.139 1784.81 247.495C1784.96 249.333 1783.8 250.999 1783.27 252.766C1782.2 256.24 1783.69 260.157 1786.38 262.613C1789.08 265.068 1792.81 266.22 1796.48 266.408C1800.07 266.605 1803.86 265.862 1806.64 263.601C1809.43 261.341 1810.91 257.347 1809.51 254.07C1808.7 252.171 1807.02 250.613 1806.67 248.589C1805.78 243.413 1813.76 239.082 1811.64 234.251C1810.89 232.515 1809.04 231.544 1807.76 230.155C1805.81 228.056 1805.24 225.106 1804.77 222.299C1804.31 219.502 1803.82 216.553 1802.02 214.345C1800.21 212.137 1796.58 211.107 1794.42 212.981" fill="#D8D86E"/>
<path d="M1795.06 226.127C1795.04 233.602 1795 241.088 1794.96 248.563C1794.91 256.038 1794.89 263.554 1794.85 271.06C1794.84 275.249 1794.81 279.448 1794.8 283.637C1794.8 284.114 1795.54 284.125 1795.54 283.648C1795.56 276.193 1795.6 268.748 1795.63 261.303C1795.67 253.858 1795.7 246.292 1795.74 238.786C1795.75 234.577 1795.78 230.357 1795.79 226.148C1795.79 225.671 1795.05 225.66 1795.05 226.137L1795.06 226.127Z" fill="#6E3B46"/>
<path d="M1792.13 232.351C1793.04 234.231 1793.99 236.102 1794.92 237.973C1795.13 238.392 1795.78 238.047 1795.58 237.617C1794.67 235.737 1793.72 233.866 1792.79 231.996C1792.58 231.577 1791.93 231.922 1792.13 232.351Z" fill="#6E3B46"/>
<path d="M1795.73 254.6C1799.38 252.566 1801.75 248.94 1802.63 244.947C1802.73 244.492 1802.01 244.278 1801.91 244.753C1801.07 248.555 1798.85 252.01 1795.37 253.945C1794.95 254.182 1795.3 254.827 1795.73 254.6Z" fill="#6E3B46"/>
<path d="M913.592 194C911.043 194.499 908.572 195.922 907.701 198.333C906.927 200.471 907.168 202.838 906.588 205.031C905.702 208.375 903.07 210.931 900.959 213.689C898.848 216.446 897.145 220.071 898.463 223.267C899.375 225.471 901.622 227.139 901.812 229.495C901.958 231.333 900.8 232.999 900.268 234.766C899.205 238.24 900.687 242.157 903.385 244.613C906.082 247.068 909.809 248.22 913.478 248.408C917.075 248.605 920.862 247.862 923.644 245.601C926.427 243.341 927.909 239.347 926.51 236.07C925.696 234.171 924.023 232.613 923.674 230.589C922.778 225.413 930.757 221.082 928.642 216.251C927.887 214.515 926.041 213.544 924.756 212.155C922.814 210.056 922.243 207.106 921.772 204.299C921.312 201.502 920.824 198.553 919.017 196.345C917.211 194.137 913.585 193.107 911.416 194.981" fill="#D8D86E"/>
<path d="M912.064 208.127C912.039 215.602 912.004 223.088 911.959 230.563C911.913 238.038 911.888 245.554 911.852 253.06C911.838 257.249 911.813 261.448 911.799 265.637C911.802 266.114 912.542 266.125 912.539 265.648C912.564 258.193 912.598 250.748 912.633 243.303C912.668 235.858 912.704 228.292 912.74 220.786C912.754 216.577 912.779 212.357 912.794 208.148C912.791 207.671 912.051 207.66 912.053 208.137L912.064 208.127Z" fill="#6E3B46"/>
<path d="M909.127 214.351C910.044 216.231 910.992 218.102 911.919 219.973C912.128 220.392 912.782 220.047 912.583 219.617C911.666 217.737 910.718 215.866 909.791 213.996C909.581 213.577 908.928 213.922 909.127 214.351Z" fill="#6E3B46"/>
<path d="M912.728 236.6C916.381 234.566 918.753 230.94 919.628 226.947C919.728 226.492 919.011 226.278 918.911 226.753C918.07 230.555 915.855 234.01 912.368 235.945C911.953 236.182 912.303 236.827 912.728 236.6Z" fill="#6E3B46"/>
<path d="M1211.59 351C1209.04 351.499 1206.57 352.922 1205.7 355.333C1204.93 357.471 1205.17 359.838 1204.59 362.031C1203.7 365.375 1201.07 367.931 1198.96 370.689C1196.85 373.446 1195.15 377.071 1196.46 380.267C1197.37 382.471 1199.62 384.139 1199.81 386.495C1199.96 388.333 1198.8 389.999 1198.27 391.766C1197.21 395.24 1198.69 399.157 1201.38 401.613C1204.08 404.068 1207.81 405.22 1211.48 405.408C1215.08 405.605 1218.86 404.862 1221.64 402.601C1224.43 400.341 1225.91 396.347 1224.51 393.07C1223.7 391.171 1222.02 389.613 1221.67 387.589C1220.78 382.413 1228.76 378.082 1226.64 373.251C1225.89 371.515 1224.04 370.544 1222.76 369.155C1220.81 367.056 1220.24 364.106 1219.77 361.299C1219.31 358.502 1218.82 355.553 1217.02 353.345C1215.21 351.137 1211.59 350.107 1209.42 351.981" fill="#D8D86E"/>
<path d="M1210.06 365.127C1210.04 372.602 1210 380.088 1209.96 387.563C1209.91 395.038 1209.89 402.554 1209.85 410.06C1209.84 414.249 1209.81 418.448 1209.8 422.637C1209.8 423.114 1210.54 423.125 1210.54 422.648C1210.56 415.193 1210.6 407.748 1210.63 400.303C1210.67 392.858 1210.7 385.292 1210.74 377.786C1210.75 373.577 1210.78 369.357 1210.79 365.148C1210.79 364.671 1210.05 364.66 1210.05 365.137L1210.06 365.127Z" fill="#6E3B46"/>
<path d="M1207.13 371.351C1208.04 373.231 1208.99 375.102 1209.92 376.973C1210.13 377.392 1210.78 377.047 1210.58 376.617C1209.67 374.737 1208.72 372.866 1207.79 370.996C1207.58 370.577 1206.93 370.922 1207.13 371.351Z" fill="#6E3B46"/>
<path d="M1210.73 393.6C1214.38 391.566 1216.75 387.94 1217.63 383.947C1217.73 383.492 1217.01 383.278 1216.91 383.753C1216.07 387.555 1213.85 391.01 1210.37 392.945C1209.95 393.182 1210.3 393.827 1210.73 393.6Z" fill="#6E3B46"/>
<path d="M1714.59 339.777C1711.74 340.572 1708.8 341.374 1705.87 340.998C1702.94 340.625 1699.99 338.769 1699.24 335.885C1698.4 332.675 1700.41 329.513 1701.8 326.502C1702.92 324.073 1703.69 321.369 1703.25 318.725C1702.83 316.183 1701.36 313.97 1700.26 311.643C1699.16 309.316 1698.44 306.526 1699.56 304.21C1700.18 302.918 1701.3 301.95 1702.13 300.778C1703.96 298.179 1704.23 294.817 1705.09 291.744C1705.94 288.671 1707.92 285.418 1711.06 285.036C1714.92 284.567 1717.82 288.749 1718.43 292.628C1719.04 296.507 1718.34 300.591 1719.59 304.31C1720.59 307.306 1722.75 309.731 1724.49 312.364C1726.23 314.996 1727.6 318.226 1726.74 321.266C1726.26 322.93 1725.17 324.346 1724.61 325.982C1723.62 328.819 1724.33 332.011 1723.51 334.898C1722.16 339.594 1716.3 342.34 1711.89 340.342" fill="#7A9756"/>
<path d="M1711.36 301.362C1711.48 304.501 1711.58 307.638 1711.64 310.779C1711.71 313.915 1711.75 317.051 1711.75 320.188C1711.77 323.323 1711.75 326.462 1711.7 329.597C1711.66 332.731 1711.58 335.893 1711.47 339.038C1711.37 342.174 1711.24 345.306 1711.08 348.439C1711.06 348.828 1711.04 349.218 1711.01 349.609C1710.99 350.08 1711.71 350.151 1711.74 349.681C1711.91 346.537 1712.05 343.392 1712.16 340.245C1712.27 337.098 1712.35 333.951 1712.4 330.804C1712.46 327.656 1712.48 324.485 1712.48 321.325C1712.48 318.176 1712.45 315.027 1712.39 311.882C1712.33 308.728 1712.24 305.574 1712.12 302.421C1712.11 302.03 1712.09 301.639 1712.08 301.249C1712.07 301.052 1711.84 300.915 1711.66 300.944C1711.45 300.979 1711.35 301.166 1711.36 301.364L1711.36 301.362Z" fill="#6E3B46"/>
<path d="M1707.13 312.952C1708.1 314.506 1709.3 315.9 1710.68 317.099C1711.07 317.438 1711.48 317.755 1711.89 318.06C1712.04 318.17 1712.29 318.137 1712.4 317.972C1712.5 317.808 1712.47 317.581 1712.31 317.463C1711.95 317.196 1711.59 316.918 1711.24 316.628C1711.08 316.486 1710.91 316.341 1710.75 316.192C1710.71 316.156 1710.67 316.124 1710.64 316.088C1710.65 316.098 1710.55 316.01 1710.59 316.043C1710.62 316.07 1710.56 316.017 1710.55 316.01C1710.47 315.931 1710.38 315.848 1710.3 315.768C1709.66 315.139 1709.07 314.458 1708.54 313.739C1708.24 313.336 1707.95 312.919 1707.69 312.489C1707.58 312.328 1707.31 312.319 1707.17 312.439C1707.01 312.586 1707.01 312.78 1707.12 312.956L1707.13 312.952Z" fill="#6E3B46"/>
<path d="M1715.32 324.574C1714.43 325.833 1713.54 327.087 1712.65 328.346C1712.4 328.706 1712.14 329.065 1711.89 329.426C1711.78 329.581 1711.81 329.829 1711.97 329.936C1712.13 330.043 1712.36 330.014 1712.48 329.848C1713.36 328.589 1714.25 327.335 1715.14 326.076C1715.4 325.717 1715.65 325.357 1715.91 324.996C1716.02 324.841 1715.98 324.593 1715.82 324.486C1715.66 324.379 1715.43 324.408 1715.32 324.574Z" fill="#6E3B46"/>
<path d="M751.268 382.688C747.202 383.801 743 384.924 738.818 384.398C734.632 383.875 730.418 381.277 729.343 377.239C728.149 372.745 731.015 368.318 733 364.103C734.604 360.702 735.696 356.916 735.076 353.215C734.478 349.657 732.37 346.558 730.803 343.301C729.235 340.043 728.203 336.136 729.801 332.894C730.69 331.085 732.291 329.73 733.47 328.089C736.089 324.451 736.472 319.744 737.695 315.442C738.917 311.14 741.743 306.585 746.222 306.051C751.736 305.394 755.889 311.248 756.756 316.679C757.623 322.11 756.625 327.827 758.411 333.034C759.849 337.229 762.935 340.624 765.416 344.309C767.897 347.995 769.852 352.517 768.621 356.773C767.948 359.102 766.386 361.084 765.578 363.374C764.178 367.346 765.19 371.816 764.01 375.858C762.09 382.431 753.715 386.275 747.409 383.478" fill="#7A9756"/>
<path d="M746.654 328.906C746.829 333.302 746.966 337.693 747.059 342.09C747.152 346.48 747.21 350.871 747.221 355.263C747.236 359.652 747.207 364.047 747.143 368.436C747.078 372.824 746.968 377.25 746.819 381.653C746.673 386.043 746.48 390.429 746.251 394.814C746.223 395.359 746.195 395.905 746.164 396.453C746.128 397.112 747.159 397.212 747.195 396.553C747.436 392.152 747.637 387.748 747.795 383.343C747.953 378.938 748.069 374.532 748.148 370.125C748.227 365.719 748.26 361.279 748.259 356.855C748.253 352.446 748.21 348.038 748.124 343.635C748.04 339.22 747.912 334.803 747.745 330.389C747.724 329.842 747.703 329.295 747.681 328.748C747.669 328.473 747.342 328.282 747.087 328.322C746.786 328.371 746.648 328.632 746.657 328.91L746.654 328.906Z" fill="#6E3B46"/>
<path d="M740.613 345.132C741.998 347.309 743.719 349.26 745.687 350.939C746.243 351.413 746.822 351.858 747.415 352.284C747.634 352.439 747.985 352.391 748.136 352.161C748.288 351.931 748.247 351.614 748.013 351.448C747.493 351.074 746.984 350.686 746.491 350.279C746.254 350.08 746.02 349.878 745.787 349.669C745.733 349.618 745.678 349.574 745.624 349.523C745.635 349.537 745.503 349.414 745.554 349.461C745.597 349.498 745.512 349.424 745.503 349.414C745.382 349.304 745.262 349.188 745.144 349.075C744.233 348.194 743.389 347.241 742.626 346.234C742.194 345.671 741.787 345.086 741.409 344.485C741.263 344.259 740.869 344.247 740.678 344.414C740.446 344.62 740.449 344.891 740.606 345.138L740.613 345.132Z" fill="#6E3B46"/>
<path d="M752.308 361.403C751.039 363.166 749.77 364.922 748.5 366.685C748.137 367.188 747.774 367.691 747.407 368.197C747.25 368.413 747.298 368.761 747.531 368.91C747.763 369.06 748.083 369.019 748.251 368.788C749.521 367.025 750.79 365.269 752.059 363.506C752.423 363.003 752.786 362.5 753.152 361.994C753.309 361.778 753.261 361.43 753.029 361.281C752.797 361.131 752.476 361.172 752.308 361.403Z" fill="#6E3B46"/>
<path d="M1582.85 267.367C1581.9 268.276 1580.66 268.822 1579.58 269.586C1577.4 271.137 1575.92 273.722 1576 276.38C1576.08 279.037 1577.86 281.646 1580.42 282.446C1583.17 283.305 1586.1 282.1 1588.98 281.993C1594.59 281.786 1599.9 285.774 1605.44 284.865C1609.33 284.227 1612.61 281.239 1616.55 280.986C1619.04 280.825 1621.48 281.787 1623.97 281.835C1627.97 281.908 1631.88 279.376 1633.43 275.72C1634.12 274.075 1634.31 272.049 1633.26 270.603C1632.39 269.409 1630.88 268.859 1629.82 267.83C1627.97 266.036 1627.83 263.205 1627.36 260.683C1626.89 258.163 1625.47 255.304 1622.9 255.07C1620.26 254.83 1617.86 257.569 1615.31 256.868C1613.8 256.453 1612.89 254.994 1611.81 253.872C1609.04 250.993 1604.34 250.161 1600.74 251.913C1596.53 253.96 1596.53 258.742 1588.72 258.326C1580.91 257.911 1584.64 265.66 1582.85 267.371L1582.85 267.367Z" fill="#8BB546"/>
<path d="M1603.17 261.938C1603.28 263.936 1603.39 265.935 1603.5 267.937C1603.61 269.938 1603.72 271.912 1603.84 273.903L1604.02 277.274C1604.04 277.526 1604.3 277.739 1604.55 277.705C1604.82 277.666 1605 277.45 1604.99 277.179C1604.88 275.181 1604.77 273.183 1604.66 271.181C1604.54 269.193 1604.43 267.205 1604.32 265.215C1604.26 264.09 1604.2 262.967 1604.13 261.843C1604.12 261.592 1603.86 261.378 1603.6 261.413C1603.33 261.451 1603.15 261.668 1603.17 261.938Z" fill="#6E3B46"/>
<path d="M1596.9 266.54C1597.29 267.583 1598.01 268.502 1598.89 269.184C1599.78 269.864 1600.84 270.331 1601.95 270.496C1602.57 270.588 1603.22 270.588 1603.84 270.478C1603.97 270.454 1604.08 270.403 1604.17 270.299C1604.24 270.21 1604.29 270.069 1604.27 269.952C1604.24 269.712 1604.01 269.475 1603.74 269.522C1603.51 269.562 1603.28 269.589 1603.05 269.599C1602.93 269.604 1602.82 269.606 1602.7 269.603C1602.69 269.603 1602.67 269.604 1602.66 269.601C1602.66 269.601 1602.79 269.607 1602.71 269.602C1602.69 269.601 1602.66 269.6 1602.63 269.599C1602.57 269.596 1602.52 269.593 1602.46 269.587C1602.23 269.567 1602 269.535 1601.77 269.485C1601.66 269.461 1601.54 269.435 1601.43 269.402C1601.4 269.394 1601.37 269.386 1601.34 269.377C1601.27 269.356 1601.46 269.414 1601.36 269.381C1601.31 269.363 1601.25 269.346 1601.19 269.328C1600.97 269.253 1600.76 269.165 1600.55 269.067C1600.44 269.018 1600.34 268.965 1600.24 268.91C1600.19 268.881 1600.13 268.854 1600.09 268.825C1600.06 268.811 1600.04 268.798 1600.02 268.784C1599.99 268.769 1599.94 268.738 1600.06 268.811C1600.05 268.803 1600.04 268.796 1600.02 268.787C1599.63 268.543 1599.26 268.254 1598.93 267.926C1598.92 267.916 1598.91 267.904 1598.9 267.894C1598.85 267.84 1598.97 267.967 1598.93 267.927C1598.91 267.904 1598.89 267.882 1598.87 267.859C1598.82 267.812 1598.78 267.762 1598.73 267.715C1598.65 267.616 1598.57 267.514 1598.49 267.41C1598.33 267.202 1598.19 266.981 1598.06 266.753L1598.12 266.866C1598.01 266.649 1597.9 266.426 1597.82 266.194C1597.73 265.962 1597.43 265.814 1597.19 265.919C1596.95 266.024 1596.82 266.287 1596.91 266.538L1596.9 266.54Z" fill="#6E3B46"/>
<path d="M1604.83 273.175C1606.34 273.624 1607.98 273.687 1609.53 273.41C1611.12 273.127 1612.66 272.507 1613.98 271.575C1614.71 271.059 1615.38 270.44 1615.95 269.746C1616.11 269.551 1616.09 269.224 1615.88 269.073C1615.67 268.921 1615.37 268.941 1615.2 269.148C1615.04 269.335 1614.88 269.519 1614.71 269.693C1614.63 269.78 1614.54 269.863 1614.46 269.946C1614.4 270.001 1614.54 269.866 1614.47 269.936C1614.45 269.955 1614.43 269.974 1614.4 269.994C1614.36 270.038 1614.31 270.084 1614.26 270.128C1613.9 270.446 1613.51 270.741 1613.11 271.004C1612.88 271.156 1612.64 271.297 1612.4 271.429L1612.51 271.367C1611.69 271.812 1610.8 272.148 1609.89 272.365L1610.02 272.336C1609.36 272.491 1608.68 272.586 1608 272.611C1607.84 272.619 1607.67 272.621 1607.51 272.619C1607.47 272.618 1607.43 272.617 1607.38 272.616C1607.37 272.617 1607.35 272.615 1607.33 272.615C1607.24 272.613 1607.46 272.619 1607.36 272.616C1607.28 272.612 1607.19 272.61 1607.11 272.604C1606.78 272.583 1606.44 272.544 1606.1 272.488C1605.73 272.425 1605.36 272.338 1604.99 272.229C1604.88 272.196 1604.71 272.252 1604.63 272.316C1604.53 272.385 1604.45 272.508 1604.44 272.625C1604.42 272.751 1604.44 272.887 1604.52 272.988C1604.6 273.088 1604.71 273.138 1604.84 273.175L1604.83 273.175Z" fill="#6E3B46"/>
<path d="M1611.37 269.82C1611.4 270.459 1611.44 271.098 1611.47 271.737C1611.48 271.989 1611.75 272.202 1612 272.168C1612.27 272.129 1612.45 271.913 1612.44 271.643C1612.4 271.003 1612.36 270.365 1612.33 269.725C1612.32 269.474 1612.05 269.26 1611.8 269.295C1611.53 269.333 1611.35 269.55 1611.37 269.82Z" fill="#6E3B46"/>
<path d="M1599.62 269.175C1598.81 269.685 1598 270.198 1597.19 270.708C1596.97 270.843 1596.93 271.188 1597.09 271.38C1597.26 271.594 1597.53 271.625 1597.76 271.481C1598.58 270.971 1599.39 270.458 1600.2 269.948C1600.41 269.813 1600.46 269.467 1600.3 269.276C1600.12 269.061 1599.85 269.031 1599.62 269.175Z" fill="#6E3B46"/>
<path d="M1603.88 265.598C1605.31 265.626 1606.74 264.794 1607.48 263.591C1607.71 263.212 1607.88 262.818 1607.99 262.385C1608.05 262.139 1607.83 261.863 1607.59 261.834C1607.31 261.801 1607.09 261.969 1607.03 262.23C1607.02 262.279 1607.01 262.326 1606.99 262.372C1606.98 262.419 1607.02 262.3 1607.01 262.309C1607.01 262.319 1607.01 262.331 1607 262.341C1607 262.366 1606.99 262.392 1606.98 262.414C1606.95 262.507 1606.91 262.596 1606.87 262.687C1606.83 262.778 1606.79 262.864 1606.74 262.949C1606.73 262.97 1606.72 262.988 1606.71 263.009C1606.7 263.027 1606.64 263.111 1606.69 263.034C1606.74 262.956 1606.69 263.034 1606.69 263.048C1606.67 263.07 1606.66 263.092 1606.64 263.114C1606.53 263.276 1606.41 263.431 1606.28 263.576C1606.25 263.611 1606.21 263.647 1606.18 263.682C1606.16 263.699 1606.14 263.714 1606.13 263.731C1606.09 263.767 1606.19 263.676 1606.18 263.685C1606.17 263.7 1606.15 263.712 1606.14 263.723C1606.06 263.789 1605.99 263.852 1605.91 263.914C1605.74 264.054 1605.55 264.175 1605.35 264.284L1605.47 264.221C1605.17 264.38 1604.86 264.499 1604.54 264.576L1604.66 264.547C1604.37 264.615 1604.08 264.647 1603.78 264.64C1603.67 264.637 1603.52 264.731 1603.45 264.819C1603.38 264.907 1603.33 265.05 1603.35 265.166C1603.37 265.29 1603.42 265.416 1603.53 265.493C1603.63 265.57 1603.74 265.594 1603.88 265.597L1603.88 265.598Z" fill="#6E3B46"/>
<path d="M1846.23 317.434C1842.14 329.086 1850.71 332.248 1853.69 332.992C1858.35 334.151 1863.59 334.08 1867.54 331.318C1871.47 328.563 1873.42 322.664 1870.81 318.599C1870.25 317.717 1869.51 316.963 1868.95 316.069C1866.87 312.726 1867.74 308.223 1866.04 304.662C1864.14 300.716 1858.88 298.852 1854.97 300.744C1850.83 302.745 1849.1 307.673 1847.77 312.11C1846.85 315.165 1845.92 318.225 1845 321.28" fill="#90B249"/>
<path d="M1856.73 313.188C1856.55 316.621 1856.38 320.048 1856.2 323.481C1856.02 326.914 1855.85 330.341 1855.67 333.774C1855.57 335.723 1855.47 337.666 1855.37 339.615C1855.36 339.84 1855.6 340.014 1855.81 339.999C1856.05 339.982 1856.17 339.782 1856.18 339.558C1856.36 336.125 1856.53 332.698 1856.71 329.265C1856.89 325.832 1857.06 322.405 1857.24 318.972C1857.34 317.023 1857.44 315.079 1857.54 313.13C1857.55 312.906 1857.31 312.732 1857.11 312.746C1856.86 312.764 1856.74 312.963 1856.73 313.188Z" fill="#6E3B46"/>
<path d="M1853.03 317.197C1853.4 319.217 1854.66 320.972 1856.46 321.935C1856.92 322.18 1857.28 321.441 1856.81 321.19C1855.29 320.376 1854.15 318.858 1853.85 317.14C1853.8 316.919 1853.65 316.739 1853.41 316.756C1853.21 316.77 1852.99 316.977 1853.03 317.197Z" fill="#6E3B46"/>
<path d="M1860.76 324.314C1860.03 326.531 1858.37 328.389 1856.23 329.288C1855.74 329.492 1856.01 330.275 1856.49 330.071C1858.83 329.088 1860.7 327.101 1861.5 324.665C1861.57 324.453 1861.52 324.216 1861.31 324.117C1861.13 324.032 1860.83 324.096 1860.76 324.314Z" fill="#6E3B46"/>
<path d="M1006.23 189.434C1002.14 201.086 1010.71 204.248 1013.69 204.992C1018.35 206.151 1023.59 206.08 1027.54 203.318C1031.47 200.563 1033.42 194.664 1030.81 190.599C1030.25 189.717 1029.51 188.963 1028.95 188.069C1026.87 184.726 1027.74 180.223 1026.04 176.662C1024.14 172.716 1018.88 170.852 1014.97 172.744C1010.83 174.745 1009.1 179.673 1007.77 184.11C1006.85 187.165 1005.92 190.225 1005 193.28" fill="#90B249"/>
<path d="M1016.73 185.188C1016.55 188.621 1016.38 192.048 1016.2 195.481C1016.02 198.914 1015.85 202.341 1015.67 205.774C1015.57 207.723 1015.47 209.666 1015.37 211.615C1015.36 211.84 1015.6 212.014 1015.81 211.999C1016.05 211.982 1016.17 211.782 1016.19 211.558C1016.36 208.125 1016.54 204.698 1016.71 201.265C1016.89 197.832 1017.06 194.405 1017.24 190.972C1017.34 189.023 1017.44 187.079 1017.54 185.13C1017.55 184.906 1017.31 184.732 1017.11 184.746C1016.86 184.764 1016.74 184.963 1016.73 185.188Z" fill="#6E3B46"/>
<path d="M1013.03 189.197C1013.4 191.217 1014.66 192.972 1016.46 193.935C1016.92 194.18 1017.28 193.441 1016.81 193.19C1015.29 192.376 1014.15 190.858 1013.85 189.14C1013.8 188.919 1013.65 188.739 1013.41 188.756C1013.21 188.77 1012.99 188.977 1013.03 189.197Z" fill="#6E3B46"/>
<path d="M1020.76 196.314C1020.03 198.531 1018.37 200.389 1016.23 201.288C1015.74 201.492 1016.01 202.275 1016.49 202.071C1018.83 201.088 1020.7 199.101 1021.5 196.665C1021.57 196.453 1021.52 196.216 1021.31 196.117C1021.13 196.032 1020.83 196.096 1020.76 196.314Z" fill="#6E3B46"/>
<path d="M1151.23 317.434C1147.14 329.086 1155.71 332.248 1158.69 332.992C1163.35 334.151 1168.59 334.08 1172.54 331.318C1176.47 328.563 1178.42 322.664 1175.81 318.599C1175.25 317.717 1174.51 316.963 1173.95 316.069C1171.87 312.726 1172.74 308.223 1171.04 304.662C1169.14 300.716 1163.88 298.852 1159.97 300.744C1155.83 302.745 1154.1 307.673 1152.77 312.11C1151.85 315.165 1150.92 318.225 1150 321.28" fill="#90B249"/>
<path d="M1161.73 313.188C1161.55 316.621 1161.38 320.048 1161.2 323.481C1161.02 326.914 1160.85 330.341 1160.67 333.774C1160.57 335.723 1160.47 337.666 1160.37 339.615C1160.36 339.84 1160.6 340.014 1160.81 339.999C1161.05 339.982 1161.17 339.782 1161.19 339.558C1161.36 336.125 1161.54 332.698 1161.71 329.265C1161.89 325.832 1162.06 322.405 1162.24 318.972C1162.34 317.023 1162.44 315.079 1162.54 313.13C1162.55 312.906 1162.31 312.732 1162.11 312.746C1161.86 312.764 1161.74 312.963 1161.73 313.188Z" fill="#6E3B46"/>
<path d="M1158.03 317.197C1158.4 319.217 1159.66 320.972 1161.46 321.935C1161.92 322.18 1162.28 321.441 1161.81 321.19C1160.29 320.376 1159.15 318.858 1158.85 317.14C1158.8 316.919 1158.65 316.739 1158.41 316.756C1158.21 316.77 1157.99 316.977 1158.03 317.197Z" fill="#6E3B46"/>
<path d="M1165.76 324.314C1165.03 326.531 1163.37 328.389 1161.23 329.288C1160.74 329.492 1161.01 330.275 1161.49 330.071C1163.83 329.088 1165.7 327.101 1166.5 324.665C1166.57 324.453 1166.52 324.216 1166.31 324.117C1166.13 324.032 1165.83 324.096 1165.76 324.314Z" fill="#6E3B46"/>
<path d="M792.228 500.434C788.144 512.086 796.714 515.248 799.693 515.992C804.351 517.151 809.592 517.08 813.536 514.318C817.475 511.563 819.417 505.664 816.812 501.599C816.25 500.717 815.508 499.963 814.955 499.069C812.869 495.726 813.743 491.223 812.036 487.662C810.145 483.716 804.884 481.852 800.971 483.744C796.834 485.745 795.1 490.673 793.768 495.11C792.847 498.165 791.921 501.225 791 504.28" fill="#90B249"/>
<path d="M802.727 496.188C802.55 499.621 802.377 503.048 802.199 506.481C802.022 509.914 801.849 513.341 801.672 516.774C801.57 518.723 801.472 520.666 801.37 522.615C801.359 522.84 801.603 523.014 801.806 522.999C802.053 522.982 802.174 522.782 802.186 522.558C802.363 519.125 802.536 515.698 802.713 512.265C802.891 508.832 803.063 505.405 803.241 501.972C803.343 500.023 803.44 498.079 803.543 496.13C803.554 495.906 803.31 495.732 803.106 495.746C802.859 495.764 802.738 495.963 802.727 496.188Z" fill="#6E3B46"/>
<path d="M799.031 500.197C799.403 502.217 800.657 503.972 802.459 504.935C802.924 505.18 803.277 504.441 802.807 504.19C801.289 503.376 800.154 501.858 799.847 500.14C799.805 499.919 799.647 499.739 799.41 499.756C799.207 499.77 798.989 499.977 799.031 500.197Z" fill="#6E3B46"/>
<path d="M806.765 507.314C806.029 509.531 804.373 511.389 802.23 512.288C801.743 512.492 802.007 513.275 802.494 513.071C804.831 512.088 806.699 510.101 807.501 507.665C807.572 507.453 807.524 507.216 807.306 507.117C807.128 507.032 806.83 507.096 806.765 507.314Z" fill="#6E3B46"/>
<path d="M467.779 353.146C467.254 353.654 466.57 353.959 465.976 354.386C464.774 355.253 463.959 356.698 464.002 358.183C464.046 359.668 465.028 361.126 466.441 361.573C467.956 362.053 469.574 361.38 471.161 361.319C474.259 361.204 477.186 363.433 480.243 362.925C482.392 362.568 484.201 360.898 486.374 360.757C487.747 360.667 489.09 361.205 490.466 361.231C492.671 361.272 494.833 359.857 495.684 357.814C496.068 356.895 496.174 355.763 495.593 354.954C495.114 354.287 494.279 353.98 493.694 353.405C492.676 352.402 492.596 350.821 492.337 349.411C492.077 348.003 491.295 346.405 489.875 346.275C488.42 346.141 487.096 347.671 485.686 347.279C484.854 347.048 484.352 346.232 483.757 345.605C482.23 343.996 479.634 343.531 477.648 344.51C475.329 345.654 475.326 348.326 471.018 348.094C466.711 347.862 468.768 352.192 467.781 353.148L467.779 353.146Z" fill="#8BB546"/>
<path d="M478.99 350.112C479.052 351.229 479.114 352.346 479.175 353.465C479.235 354.583 479.296 355.686 479.358 356.798L479.462 358.683C479.469 358.823 479.616 358.943 479.754 358.923C479.903 358.902 480.002 358.781 479.994 358.63C479.933 357.513 479.871 356.396 479.81 355.277C479.749 354.167 479.688 353.056 479.627 351.944C479.592 351.315 479.558 350.688 479.523 350.06C479.515 349.919 479.369 349.8 479.23 349.819C479.082 349.84 478.982 349.961 478.99 350.112Z" fill="#6E3B46"/>
<path d="M475.532 352.684C475.749 353.267 476.143 353.781 476.632 354.162C477.12 354.542 477.707 354.803 478.32 354.895C478.662 354.946 479.018 354.946 479.359 354.885C479.43 354.871 479.495 354.843 479.541 354.785C479.581 354.735 479.608 354.656 479.598 354.591C479.579 354.457 479.454 354.324 479.306 354.35C479.18 354.373 479.052 354.388 478.924 354.394C478.86 354.397 478.797 354.398 478.732 354.396C478.724 354.396 478.715 354.396 478.707 354.395C478.707 354.395 478.78 354.398 478.738 354.395C478.724 354.394 478.708 354.394 478.694 354.394C478.662 354.392 478.631 354.39 478.598 354.387C478.47 354.376 478.344 354.358 478.218 354.33C478.156 354.316 478.093 354.302 478.031 354.283C478.014 354.279 477.998 354.274 477.983 354.27C477.941 354.258 478.05 354.29 477.993 354.272C477.963 354.262 477.931 354.252 477.901 354.242C477.779 354.2 477.66 354.151 477.544 354.096C477.485 354.069 477.429 354.039 477.372 354.008C477.344 353.993 477.315 353.977 477.289 353.961C477.277 353.953 477.263 353.946 477.251 353.938C477.236 353.93 477.21 353.912 477.277 353.953C477.269 353.949 477.262 353.945 477.254 353.94C477.036 353.803 476.833 353.642 476.653 353.459C476.647 353.453 476.64 353.447 476.635 353.441C476.605 353.41 476.674 353.482 476.651 353.459C476.64 353.447 476.628 353.434 476.617 353.421C476.592 353.395 476.568 353.367 476.544 353.34C476.496 353.286 476.451 353.228 476.407 353.17C476.321 353.054 476.241 352.931 476.172 352.803L476.207 352.866C476.142 352.745 476.085 352.62 476.037 352.491C475.989 352.361 475.824 352.279 475.692 352.337C475.561 352.396 475.487 352.543 475.539 352.683L475.532 352.684Z" fill="#6E3B46"/>
<path d="M479.906 356.392C480.741 356.643 481.642 356.678 482.498 356.523C483.379 356.365 484.224 356.018 484.954 355.498C485.359 355.209 485.729 354.864 486.043 354.476C486.131 354.367 486.117 354.184 486.001 354.099C485.885 354.015 485.72 354.026 485.626 354.141C485.541 354.246 485.453 354.349 485.358 354.446C485.313 354.495 485.266 354.541 485.218 354.587C485.187 354.618 485.265 354.543 485.224 354.582C485.212 354.593 485.201 354.603 485.188 354.614C485.162 354.639 485.135 354.665 485.108 354.689C484.91 354.867 484.696 355.032 484.473 355.179C484.346 355.264 484.215 355.343 484.08 355.416L484.143 355.381C483.689 355.63 483.202 355.818 482.7 355.939L482.769 355.923C482.404 356.01 482.032 356.063 481.657 356.077C481.566 356.081 481.474 356.082 481.384 356.081C481.361 356.081 481.339 356.08 481.315 356.08C481.306 356.08 481.296 356.079 481.289 356.079C481.235 356.078 481.356 356.081 481.303 356.08C481.257 356.077 481.211 356.076 481.167 356.073C480.981 356.061 480.794 356.039 480.61 356.008C480.402 355.973 480.197 355.924 479.996 355.863C479.934 355.845 479.842 355.876 479.794 355.912C479.742 355.95 479.697 356.019 479.689 356.084C479.681 356.155 479.693 356.231 479.738 356.287C479.782 356.343 479.838 356.371 479.91 356.392L479.906 356.392Z" fill="#6E3B46"/>
<path d="M483.512 354.517C483.531 354.874 483.552 355.231 483.571 355.588C483.578 355.729 483.725 355.848 483.863 355.829C484.012 355.808 484.111 355.687 484.103 355.536C484.084 355.178 484.064 354.821 484.045 354.464C484.037 354.324 483.891 354.204 483.752 354.223C483.604 354.245 483.504 354.366 483.512 354.517Z" fill="#6E3B46"/>
<path d="M477.033 354.156C476.585 354.442 476.138 354.728 475.69 355.013C475.572 355.089 475.548 355.282 475.634 355.389C475.731 355.509 475.881 355.526 476.008 355.445C476.456 355.16 476.903 354.874 477.351 354.588C477.469 354.513 477.493 354.32 477.407 354.213C477.31 354.093 477.161 354.076 477.033 354.156Z" fill="#6E3B46"/>
<path d="M479.38 352.157C480.169 352.173 480.958 351.708 481.366 351.036C481.496 350.824 481.59 350.604 481.648 350.362C481.68 350.225 481.563 350.071 481.427 350.054C481.274 350.036 481.155 350.13 481.121 350.276C481.115 350.303 481.108 350.329 481.1 350.355C481.093 350.381 481.113 350.315 481.112 350.32C481.109 350.325 481.109 350.332 481.106 350.337C481.102 350.351 481.097 350.366 481.092 350.379C481.075 350.43 481.055 350.48 481.033 350.531C481.01 350.582 480.987 350.63 480.96 350.677C480.954 350.689 480.948 350.699 480.942 350.711C480.936 350.721 480.908 350.768 480.935 350.725C480.962 350.681 480.935 350.725 480.93 350.733C480.922 350.745 480.915 350.757 480.907 350.77C480.847 350.86 480.779 350.947 480.707 351.028C480.688 351.048 480.669 351.067 480.65 351.087C480.641 351.097 480.632 351.105 480.623 351.115C480.603 351.135 480.655 351.084 480.651 351.088C480.645 351.097 480.635 351.104 480.628 351.11C480.588 351.147 480.545 351.182 480.504 351.217C480.407 351.295 480.304 351.363 480.195 351.423L480.258 351.388C480.097 351.477 479.924 351.544 479.744 351.587L479.814 351.57C479.655 351.609 479.493 351.626 479.328 351.623C479.264 351.621 479.185 351.673 479.146 351.723C479.108 351.772 479.079 351.851 479.089 351.916C479.098 351.986 479.13 352.056 479.188 352.099C479.247 352.142 479.308 352.156 479.381 352.157L479.38 352.157Z" fill="#6E3B46"/>
</g>
</svg>
