<svg width="1920" height="644" viewBox="0 0 1920 644" fill="none" xmlns="http://www.w3.org/2000/svg">
<mask id="mask0_4130_2230" style="mask-type:alpha" maskUnits="userSpaceOnUse" x="-89" y="0" width="2068" height="644">
<rect x="-89" width="2068" height="644" fill="#D9D9D9"/>
</mask>
<g mask="url(#mask0_4130_2230)">
<path d="M0.170837 286.78C0.116393 286.78 0.0620721 286.78 0.0076287 286.78L6.0341e-05 286.78C5.84252e-05 308.694 0.00152109 333.612 0.00444841 360.648C-0.00336556 377.49 -7.12617e-05 395.806 0.012012 415.072C0.0500782 640.498 0.183351 957.085 0.46692 965.03C0.765137 973.235 6.66125 974.763 21.7957 970.756C32.0509 968.04 39.8208 963.892 47.453 959.789C59.9642 953.059 74.8921 949.961 93.7738 950.293C111.557 950.606 129.366 950.554 147.175 950.503C153.283 950.485 159.392 950.468 165.5 950.465C186.27 950.453 202.704 954.258 215.873 962.265C243.978 979.347 271.776 979.916 303.942 964.545C334.417 949.984 360.992 949.838 391.865 964.335C405.065 970.535 420.054 973.484 438.698 973.713C461.594 973.995 477.414 974.82 491.846 975.574C513.225 976.69 531.558 977.647 565.334 976.44C569.198 976.302 575.896 975.893 583.96 975.401C607.32 973.976 642.148 971.851 652.813 973.572C672.084 976.681 692.021 976.784 711.974 976.44C728.071 976.162 744.162 975.783 760.253 975.404C768.02 975.221 775.787 975.038 783.554 974.866C801.747 974.465 823.5 969.419 852.5 969.024C889 969.024 858 969.024 904 969.024C929.5 969.419 946.423 968.296 967.966 969.419C992.34 970.69 1018.83 969.856 1045.28 969.024C1070.92 968.217 1096.53 967.411 1120.16 968.522C1140.57 969.48 1150.25 969.465 1165.65 962.754C1180.33 956.358 1197.02 956.674 1216.35 957.039C1219.47 957.098 1222.67 957.158 1225.93 957.192C1235.47 957.289 1244.73 955.814 1253.96 954.345C1256.69 953.91 1259.42 953.475 1262.16 953.082C1293.86 948.524 1324.05 941.407 1349.21 954.345C1367 963.494 1389.88 956.045 1413.16 954.345C1418.84 953.931 1424.5 954.82 1430.16 954.345C1446.03 953.013 1461.89 964.518 1478.23 964.526C1494.07 964.534 1508.03 960.989 1521.02 956.737C1546.99 948.238 1574.37 948.265 1602.06 954.132C1634.03 960.905 1665.03 961.264 1697.02 953.716C1731.14 945.671 1755.3 947.997 1782.79 960.5C1805.8 970.963 1833.97 972.353 1860.48 963.881C1876.56 958.743 1900.28 954.266 1920.42 954.908C1920.42 953.539 1920.3 952.166 1920.19 950.793C1919.95 948.05 1919.72 945.31 1920.42 942.619C1920.6 941.898 1920.74 932.325 1920.83 916.22C1920.88 916.22 1920.94 916.22 1920.99 916.22L1921 916.22C1921 894.334 1921 869.451 1921 842.454C1921 825.555 1921 807.17 1920.99 787.829C1920.95 562.41 1920.82 245.913 1920.53 237.97C1920.24 229.764 1914.34 228.236 1899.2 232.244C1888.95 234.959 1881.18 239.108 1873.55 243.211C1861.04 249.941 1846.11 253.039 1827.23 252.707C1809.44 252.394 1791.64 252.445 1773.83 252.497C1767.72 252.514 1761.61 252.532 1755.5 252.535C1734.73 252.547 1718.3 248.742 1705.13 240.735C1677.02 223.653 1649.22 223.083 1617.06 238.455C1586.58 253.016 1560.01 253.161 1529.14 238.665C1515.94 232.465 1500.95 229.516 1482.3 229.287C1459.41 229.005 1443.59 228.18 1429.15 227.426C1407.78 226.31 1389.44 225.353 1355.67 226.559C1351.8 226.698 1345.1 227.106 1337.04 227.599C1313.68 229.024 1278.85 231.149 1268.19 229.428C1248.92 226.319 1228.98 226.216 1209.03 226.56C1192.93 226.838 1176.84 227.217 1160.75 227.596C1152.98 227.779 1145.22 227.962 1137.45 228.133C1119.25 228.534 1107.61 234.1 1096.74 240.246C1069.25 255.782 1043.24 257.103 1010.52 243.852C993.536 236.973 974.578 234.704 953.035 233.58C928.66 232.31 902.173 233.144 875.716 233.976C850.076 234.783 824.466 235.589 800.837 234.478C780.434 233.519 770.753 233.535 755.351 240.246C740.671 246.642 723.976 246.326 704.652 245.961C701.528 245.902 698.334 245.842 695.07 245.808C685.532 245.711 676.268 247.186 667.045 248.654C664.31 249.09 661.578 249.525 658.843 249.918C627.145 254.475 596.952 254.961 571.792 242.022C554.004 232.874 531.123 232.755 507.836 234.455C502.156 234.87 496.499 235.344 490.843 235.819C474.968 237.151 459.107 238.482 442.771 238.474C426.934 238.466 412.969 242.011 399.984 246.263C374.013 254.762 346.635 254.735 318.943 248.868C286.969 242.095 255.974 241.736 223.977 249.284C189.862 257.329 165.703 255.002 138.211 242.5C115.199 232.037 87.0334 230.647 60.5196 239.119C44.4446 244.257 20.7191 248.734 0.583194 248.092C0.583193 249.46 0.698916 250.834 0.814516 252.206C1.0456 254.95 1.27643 257.69 0.583193 260.381C0.396913 261.102 0.263001 270.675 0.170837 286.78Z" fill="#88C35A"/>
<path d="M172.093 32.1264C375.272 -9.26669 741.5 297.501 919.5 675L-250 675C-202.478 202.544 24.9636 62.1329 172.093 32.1264Z" fill="#B3D158"/>
<g clip-path="url(#clip0_4130_2230)">
<path d="M373.629 271.324C374.004 270.299 373.805 269.086 373.137 268.238C372.469 267.378 371.344 266.907 370.266 267.013C369.34 267.119 368.391 267.755 368.262 268.686C368.11 269.722 369.012 270.653 369.985 271.053C371.227 271.572 372.868 271.418 373.629 270.311" fill="#6E3B46"/>
<path d="M379.723 274.952C380.72 274.057 380.977 272.454 380.309 271.288C379.384 269.675 377.227 269.309 375.387 269.415C374.661 269.451 373.922 269.545 373.266 269.863C372.317 270.322 371.637 271.218 371.192 272.184C370.418 273.833 370.231 275.694 370.055 277.508C370.02 277.873 369.997 278.285 370.219 278.58C370.629 279.122 371.473 278.874 372.083 278.58C371.883 279.381 372.551 280.241 373.36 280.359C374.169 280.476 375.001 279.958 375.376 279.216" fill="#6E3B46"/>
<path d="M384.716 284.034C383.896 282.844 382.278 282.526 381.106 283.351C381.059 283.386 381.013 283.421 380.966 283.457C380.638 283.68 380.403 284.01 380.216 284.446C380.157 284.576 380.11 284.705 380.075 284.835C379.032 288.439 381.751 296.768 383.731 299.324C383.731 299.324 383.837 299.536 383.907 299.63C384.587 300.631 385.946 300.89 386.931 300.207C387.857 299.571 388.126 298.322 387.587 297.345C385.407 291.655 385.196 285.577 385.196 285.577C385.196 285.047 385.056 284.505 384.739 284.034H384.716Z" fill="white"/>
<path d="M386.251 291.926C385.712 288.427 386.204 285.871 384.939 284.163C384.071 282.997 382.806 282.585 381.587 283.35C381.54 283.386 381.493 283.421 381.434 283.456C381.106 283.656 380.837 283.986 380.649 284.41C380.591 284.54 380.532 284.658 380.497 284.799C379.946 286.425 380.016 290.253 380.567 292.903C380.567 292.903 383.356 292.939 386.263 291.938L386.251 291.926Z" fill="white"/>
<path d="M396.775 294.224C396.353 294.307 395.064 294.743 394.162 295.096C393.142 295.343 392.533 296.38 392.779 297.393C393.025 298.406 394.033 299.019 395.029 298.795C395.029 298.795 396.869 298.488 398.31 297.994C400.15 297.369 399.869 296.816 399.869 296.816C399.869 296.816 400.56 296.439 400.291 296.015C400.291 296.015 400.853 295.626 400.455 295.308C400.455 295.308 400.982 294.354 399.775 294.825C398.709 295.249 397.127 295.438 396.845 295.226C396.564 295.013 397.537 294.849 397.783 294.472C398.029 294.095 397.185 294.118 396.763 294.201L396.775 294.224Z" fill="#FAB196"/>
<path d="M393.869 295.19C389.872 296.085 385.712 296.379 385.712 296.379V296.415C385.712 296.415 385.653 296.415 385.63 296.415C384.458 296.556 383.614 297.64 383.755 298.818C383.896 299.996 384.974 300.844 386.146 300.702C386.157 300.702 386.181 300.702 386.192 300.702C389.122 300.443 395.123 298.818 395.123 298.818C396.119 298.476 396.646 297.381 396.294 296.379C395.955 295.378 394.923 294.966 393.869 295.201V295.19Z" fill="#FAB196"/>
<path d="M366.903 334.546C366.926 333.026 368.168 331.813 369.68 331.836C371.192 331.86 372.399 333.108 372.376 334.628C372.376 334.734 372.376 334.84 372.352 334.934L372.329 336.713L375.118 338.056L366.867 337.926L366.903 334.581C366.903 334.581 366.903 334.557 366.903 334.546Z" fill="#FAB196"/>
<path d="M372.891 320.998C372.891 320.998 373.313 305.661 373.325 305.555C373.372 303.777 371.977 302.304 370.219 302.245C368.45 302.198 366.985 303.6 366.926 305.367C366.926 305.438 366.75 320.48 366.75 320.48C366.739 320.598 366.809 321.352 366.809 321.47C366.762 323.189 368.016 323.967 369.727 324.014C371.391 324.061 372.786 322.765 372.891 321.104V320.998Z" fill="white"/>
<path d="M369.856 316.958C368.145 316.922 366.739 318.289 366.703 319.997L366.821 336.005C369.914 336.512 372.446 336.123 372.446 336.123L372.879 320.126C372.915 318.407 371.555 316.993 369.856 316.958Z" fill="white"/>
<path d="M377.919 301.28L374.297 301.256H374.227L370.606 301.221L366.938 301.197L366.903 305.143C366.903 306.392 367.676 307.605 368.836 308.053L373.161 309.726H374.145H374.215C374.872 309.726 375.516 309.62 376.137 309.396L379.559 308.135C380.731 307.7 381.528 306.498 381.54 305.249L381.575 301.303L377.907 301.28H377.919Z" fill="white"/>
<path d="M388.689 332.813C388.032 331.47 388.583 329.856 389.907 329.196C391.243 328.537 392.849 329.09 393.505 330.422C393.552 330.516 393.587 330.61 393.622 330.704L394.384 332.271L397.42 332.188L390.154 335.793L388.689 332.848C388.689 332.848 388.677 332.825 388.665 332.813H388.689Z" fill="#FAB196"/>
<path d="M382.255 320.74C382.255 320.74 375.469 307.005 375.423 306.899C374.637 305.309 375.282 303.377 376.864 302.588C378.446 301.799 380.368 302.447 381.153 304.037C381.188 304.096 387.622 317.678 387.622 317.678C387.681 317.772 387.739 317.878 387.798 317.984C388.56 319.515 387.927 321.388 386.403 322.142C384.903 322.884 383.099 322.307 382.313 320.835L382.267 320.74H382.255Z" fill="white"/>
<path d="M383.392 316.146C384.88 315.38 386.708 315.969 387.482 317.465L394.232 331.636C391.712 333.427 389.322 334.169 389.322 334.169L382.091 320.245C381.329 318.749 381.915 316.912 383.403 316.134L383.392 316.146Z" fill="white"/>
<path d="M380.157 272.856C380.157 272.798 380.145 272.727 380.134 272.668C379.888 272.786 379.571 272.845 379.243 272.904C377.93 273.127 376.571 272.456 375.059 272.927C375.024 273.61 374.989 274.305 374.954 274.989C374.954 275.095 374.907 275.236 374.801 275.224C374.743 275.224 374.708 275.153 374.684 275.106C374.626 275 374.567 274.894 374.508 274.788C374.637 275.153 374.778 275.86 374.508 275.943C374.262 276.013 373.887 275.271 373.817 274.8C373.747 274.777 373.688 274.753 373.618 274.741C373.008 274.647 372.446 275.071 372.364 275.684C372.27 276.296 372.692 276.862 373.301 276.944C373.465 276.968 373.629 276.944 373.782 276.909L373.571 280.219C373.547 280.325 373.536 280.443 373.524 280.549C373.43 281.95 374.497 283.164 375.891 283.258C377.286 283.352 378.493 282.28 378.587 280.878C378.587 280.772 378.587 280.666 378.587 280.56L378.68 279.147C380.04 278.782 380.333 277.427 380.239 276.19C380.145 274.953 380.204 272.856 380.204 272.856H380.157Z" fill="#FAB196"/>
<path opacity="0.35" d="M378.645 279.146C378.645 279.146 378.001 279.335 377.145 279.205L378.552 280.619L378.645 279.146Z" fill="#FC6158"/>
<path d="M385.607 285.92C385.677 285.001 385.267 284.164 384.599 283.634C383.145 282.233 380.556 281.455 378.575 281.055C378.575 281.055 377.708 282.398 375.926 282.268C375.926 282.268 375.903 282.268 375.891 282.268C375.891 282.268 375.868 282.268 375.856 282.268C374.087 282.138 373.419 280.678 373.419 280.678C371.403 280.772 368.719 281.149 367.078 282.327C366.34 282.751 365.813 283.528 365.742 284.447C365.719 284.801 365.766 285.154 365.871 285.472L368.098 289.783L367.125 301.316C367.125 301.316 369.176 302.282 374.333 302.682C374.333 302.682 374.356 302.682 374.368 302.682C374.38 302.682 374.391 302.682 374.403 302.682C379.559 303.059 381.727 302.411 381.727 302.411L382.477 290.867L385.314 286.933C385.466 286.626 385.56 286.297 385.583 285.931L385.607 285.92Z" fill="white"/>
<path d="M371.368 284.695C371.59 283.258 370.618 281.926 369.211 281.703C369.153 281.703 369.094 281.691 369.036 281.679C368.649 281.608 368.239 281.679 367.817 281.879C367.688 281.938 367.571 281.997 367.453 282.068C364.219 283.976 360.516 291.904 360.211 295.131C360.211 295.131 360.152 295.355 360.129 295.473C359.941 296.674 360.75 297.794 361.934 297.97C363.047 298.147 364.09 297.428 364.36 296.345C366.657 290.702 370.653 286.132 370.653 286.132C371.016 285.743 371.286 285.248 371.368 284.683V284.695Z" fill="white"/>
<path d="M367.032 291.162C368.883 288.158 370.653 286.132 370.653 286.132C371.016 285.743 371.286 285.248 371.368 284.683C371.59 283.246 370.618 281.915 369.211 281.691C369.153 281.691 369.094 281.679 369.036 281.667C368.649 281.597 368.239 281.667 367.817 281.868C367.688 281.926 367.571 281.985 367.453 282.056C365.977 282.928 364.406 285.06 363.106 287.428C363.106 287.428 364.336 289.43 367.043 291.15L367.032 291.162Z" fill="white"/>
<path d="M368.825 305.815C368.649 305.426 367.957 304.249 367.418 303.436C366.961 302.493 365.824 302.105 364.887 302.564C363.961 303.023 363.574 304.143 364.008 305.073C364.008 305.073 364.699 306.816 365.485 308.124C366.492 309.797 366.961 309.408 366.961 309.408C366.961 309.408 367.465 310.009 367.84 309.644C367.84 309.644 368.332 310.115 368.567 309.644C368.567 309.644 369.61 309.95 368.883 308.878C368.239 307.924 367.723 306.416 367.864 306.086C368.004 305.756 368.368 306.687 368.789 306.84C369.211 307.005 369 306.18 368.825 305.78V305.815Z" fill="#FAB196"/>
<path d="M367.254 303.164C365.52 299.441 364.348 295.413 364.348 295.413H364.313C364.313 295.413 364.301 295.366 364.289 295.342C363.891 294.223 362.672 293.622 361.547 294.023C360.434 294.423 359.836 295.648 360.234 296.779C360.234 296.791 360.246 296.803 360.246 296.826C361.125 299.653 363.996 305.19 363.996 305.19C364.547 306.097 365.719 306.38 366.621 305.826C367.524 305.272 367.711 304.177 367.254 303.187V303.164Z" fill="#FAB196"/>
<path opacity="0.35" d="M378.856 276.119C378.915 276.343 379.231 276.437 379.559 276.343C379.888 276.249 380.098 275.99 380.028 275.778C379.97 275.554 379.653 275.46 379.325 275.554C378.997 275.648 378.786 275.907 378.856 276.119Z" fill="#FC6158"/>
<path opacity="0.35" d="M375.036 275.825C374.989 276.048 375.212 276.284 375.54 276.366C375.868 276.437 376.173 276.319 376.231 276.096C376.278 275.872 376.055 275.636 375.727 275.554C375.399 275.483 375.094 275.601 375.036 275.825Z" fill="#FC6158"/>
<path d="M381.781 297.645L367.156 297.529L367.14 299.52L381.765 299.635L381.781 297.645Z" fill="#182138"/>
<path d="M372.598 298.829L371.309 304.554L373.325 305.544L374.462 298.594L372.598 298.829Z" fill="#182138"/>
<path d="M376.512 298.357L379.723 306.862L377.661 308.087L375.083 298.852L376.512 298.357Z" fill="#182138"/>
<path d="M385.7 296.378L391.466 295.483L391.923 300.973C391.923 300.973 383.474 303.646 383.028 297.168C382.583 290.689 385.7 296.378 385.7 296.378Z" fill="white"/>
<path d="M360.75 292.752L364.957 294.036C364.957 294.036 364.442 296.027 365.66 298.524C366.879 301.021 366.938 301.186 366.938 301.186L361.899 304.225C361.899 304.225 358.559 298.877 360.75 292.752Z" fill="white"/>
<path d="M443.863 301.232C443.921 301.962 444.062 302.739 444.554 303.269C445.047 303.799 446.007 303.953 446.476 303.399C446.593 303.269 446.687 303.093 446.851 303.057C447.086 303.01 447.261 303.258 447.437 303.434C448.117 304.118 449.535 303.446 449.453 302.48C449.406 301.95 449.043 301.526 448.855 301.031C448.562 300.218 448.797 299.323 448.902 298.475C449.125 296.673 448.715 294.776 447.683 293.304C446.652 291.82 444.976 290.795 443.195 290.653C442.023 290.559 440.839 290.83 439.738 291.278C439.117 291.525 438.507 291.855 438.097 292.397C437.699 292.927 437.534 293.587 437.277 294.199C436.831 295.259 436.058 296.166 435.085 296.767C434.605 297.073 434.03 297.332 433.796 297.851C433.585 298.31 433.702 298.887 434.077 299.217C434.452 299.547 435.038 299.582 435.46 299.311C435.191 300.513 435.976 301.844 437.148 302.15C438.495 302.504 439.855 301.62 440.874 300.666" fill="#FFD9A8"/>
<path d="M438.378 295.943C439.89 295.908 441.402 295.472 442.691 294.682C443.042 295.495 443.406 296.332 444.027 296.956C444.66 297.58 445.621 297.945 446.441 297.627C447.484 297.215 447.883 295.872 447.683 294.765C447.343 292.939 445.691 291.478 443.851 291.208C442.011 290.937 440.101 291.761 438.894 293.175C438.167 294.023 436.62 296.603 437.019 297.639" fill="#FFD9A8"/>
<path d="M434.804 302.822C436.245 302.751 437.476 303.858 437.546 305.295C437.546 305.354 437.546 305.413 437.546 305.472C437.57 305.872 437.441 306.273 437.218 306.673C437.148 306.791 437.077 306.909 436.995 307.015C434.769 310.031 426.542 312.917 423.319 312.881C423.319 312.881 423.085 312.917 422.967 312.928C421.76 312.987 420.741 312.069 420.682 310.867C420.624 309.736 421.444 308.77 422.546 308.605C428.37 306.897 433.304 303.375 433.304 303.375C433.714 303.057 434.23 302.845 434.804 302.822Z" fill="white"/>
<path d="M427.608 306.649C430.702 304.965 432.448 302.738 434.57 302.727C436.011 302.715 437.113 303.481 437.253 304.906C437.253 304.965 437.253 305.024 437.253 305.083C437.288 305.483 437.195 305.884 436.972 306.296C436.913 306.425 436.843 306.543 436.761 306.649C435.812 308.075 432.483 310.113 430.058 311.279C430.058 311.279 428.569 309.582 427.597 306.649H427.608Z" fill="white"/>
<path d="M419.44 299.359C419.627 299.747 420.073 301.043 420.331 301.974C420.753 302.94 420.307 304.059 419.346 304.471C418.397 304.883 417.295 304.459 416.873 303.517C416.873 303.517 416.006 301.868 415.514 300.407C414.893 298.558 415.491 298.44 415.491 298.44C415.491 298.44 415.362 297.662 415.877 297.615C415.877 297.615 415.842 296.932 416.334 297.062C416.334 297.062 416.78 296.06 417.12 297.309C417.436 298.428 418.245 299.794 418.584 299.889C418.924 299.983 418.456 299.111 418.608 298.687C418.76 298.263 419.252 298.946 419.44 299.335V299.359Z" fill="#FAB196"/>
<path d="M420.436 302.268C422.147 306.003 424.444 309.513 424.444 309.513L424.409 309.537C424.409 309.537 424.444 309.584 424.456 309.607C425.053 310.632 424.714 311.963 423.694 312.564C422.674 313.165 421.362 312.823 420.753 311.798C420.753 311.786 420.741 311.775 420.729 311.763C419.159 309.254 416.803 303.482 416.803 303.482C416.475 302.481 417.014 301.397 418.022 301.067C419.018 300.737 419.979 301.303 420.424 302.292L420.436 302.268Z" fill="#FAB196"/>
<path d="M438.542 356.702C438.859 355.217 437.921 353.757 436.445 353.427C434.968 353.109 433.515 354.051 433.187 355.536C433.163 355.642 433.151 355.736 433.14 355.842L432.765 357.573L429.741 358.257L437.804 360L438.519 356.725C438.519 356.725 438.519 356.702 438.519 356.69L438.542 356.702Z" fill="#FAB196"/>
<path d="M435.741 342.142C435.741 342.142 438.765 327.111 438.788 326.994C439.14 325.25 440.828 324.119 442.562 324.473C444.296 324.826 445.422 326.523 445.07 328.266C445.058 328.337 441.847 343.026 441.847 343.026C441.847 343.144 441.589 343.862 441.566 343.98C441.226 345.664 439.831 346.147 438.156 345.806C436.515 345.476 435.448 343.897 435.718 342.26L435.741 342.154V342.142Z" fill="white"/>
<path d="M439.609 338.903C441.285 339.257 442.351 340.906 441.999 342.579L438.296 358.139C435.167 357.939 432.788 356.973 432.788 356.973L435.952 341.295C436.304 339.61 437.945 338.538 439.609 338.892V338.903Z" fill="white"/>
<path d="M435.261 321.787L438.8 322.577H438.87L442.41 323.389L445.984 324.19L445.129 328.042C444.859 329.267 443.816 330.269 442.585 330.445L437.992 331.093L437.031 330.881H436.96C436.327 330.728 435.718 330.469 435.167 330.104L432.108 328.101C431.065 327.418 430.55 326.063 430.819 324.838L431.675 320.986L435.249 321.787H435.261Z" fill="white"/>
<path d="M417.706 350.07C418.643 348.916 418.479 347.208 417.33 346.265C416.182 345.323 414.483 345.488 413.545 346.642C413.475 346.725 413.416 346.807 413.369 346.89L412.268 348.232L409.326 347.467L415.596 352.626L417.682 350.094C417.682 350.094 417.694 350.07 417.706 350.07Z" fill="#FAB196"/>
<path d="M426.671 339.763C426.671 339.763 436.363 327.913 436.433 327.83C437.558 326.452 437.359 324.426 435.988 323.295C434.616 322.164 432.601 322.365 431.476 323.743C431.429 323.802 422.112 335.57 422.112 335.57C422.03 335.652 421.948 335.734 421.878 335.829C420.799 337.16 420.987 339.115 422.299 340.199C423.589 341.259 425.475 341.106 426.577 339.857L426.647 339.775L426.671 339.763Z" fill="white"/>
<path d="M426.6 335.027C425.323 333.943 423.401 334.096 422.323 335.392L412.572 347.666C414.623 349.987 416.791 351.247 416.791 351.247L426.964 339.326C428.042 338.043 427.89 336.111 426.6 335.027Z" fill="white"/>
<path d="M445.703 293.41H445.714L445.703 293.421V293.41Z" fill="#FFBA9A"/>
<path d="M439.456 293.599C439.48 293.54 439.503 293.481 439.527 293.422C439.738 293.599 440.031 293.728 440.347 293.858C441.578 294.376 443.054 294.023 444.414 294.824C444.296 295.507 444.179 296.178 444.062 296.862C444.039 296.968 444.062 297.121 444.168 297.121C444.226 297.121 444.273 297.074 444.308 297.038C444.39 296.944 444.472 296.862 444.554 296.767C444.343 297.097 444.05 297.745 444.296 297.886C444.519 298.016 445.046 297.38 445.222 296.932C445.293 296.932 445.363 296.92 445.433 296.932C446.043 296.979 446.5 297.521 446.453 298.134C446.406 298.746 445.867 299.206 445.257 299.159C445.093 299.147 444.941 299.088 444.8 299.017L444.261 302.292C444.261 302.398 444.261 302.516 444.226 302.634C444.003 304.024 442.691 304.966 441.308 304.73C439.925 304.506 438.988 303.187 439.222 301.797C439.234 301.691 439.269 301.585 439.292 301.491L439.515 300.089C438.273 299.429 438.284 298.039 438.66 296.862C439.035 295.684 439.445 293.61 439.445 293.61L439.456 293.599Z" fill="#FAB196"/>
<path opacity="0.35" d="M439.527 300.064C439.527 300.064 440.113 300.394 440.98 300.465L439.292 301.525L439.527 300.064Z" fill="#FC6158"/>
<path d="M431.23 305.095C431.37 304.188 431.956 303.458 432.718 303.093C434.441 302.056 437.148 301.891 439.163 301.95C439.163 301.95 439.714 303.458 441.472 303.729C441.472 303.729 441.496 303.729 441.507 303.729C441.507 303.729 441.531 303.729 441.542 303.729C443.3 304 444.273 302.727 444.273 302.727C446.207 303.281 448.738 304.247 450.074 305.767C450.695 306.344 451.035 307.215 450.894 308.122C450.836 308.476 450.719 308.806 450.543 309.1L447.402 312.799L445.761 324.249C445.761 324.249 443.546 324.72 438.437 323.942C438.437 323.942 438.413 323.942 438.402 323.942C438.39 323.942 438.378 323.942 438.367 323.942C433.257 323.141 431.288 322.022 431.288 322.022L433.151 310.608L431.265 306.132C431.183 305.802 431.171 305.448 431.218 305.095H431.23Z" fill="white"/>
<path d="M445.375 307.121C445.48 305.672 446.722 304.589 448.152 304.695C448.211 304.695 448.269 304.706 448.328 304.718C448.715 304.742 449.101 304.907 449.465 305.189C449.582 305.272 449.676 305.366 449.781 305.46C452.488 308.052 454.316 316.616 453.895 319.82C453.895 319.82 453.895 320.055 453.895 320.173C453.801 321.386 452.769 322.293 451.574 322.199C450.449 322.117 449.594 321.186 449.57 320.067C448.597 314.048 445.726 308.688 445.726 308.688C445.457 308.229 445.316 307.687 445.351 307.121H445.375Z" fill="white"/>
<path d="M448.14 314.401C447.004 311.044 445.738 308.688 445.738 308.688C445.468 308.229 445.328 307.687 445.363 307.121C445.468 305.672 446.711 304.589 448.14 304.695C448.199 304.695 448.258 304.706 448.316 304.718C448.703 304.742 449.09 304.907 449.453 305.189C449.57 305.272 449.664 305.366 449.769 305.46C451.012 306.638 452.066 309.077 452.805 311.68C452.805 311.68 451.152 313.353 448.129 314.413L448.14 314.401Z" fill="white"/>
<path d="M443.113 328.278C443.371 327.936 444.308 326.947 445.023 326.287C445.679 325.474 446.875 325.356 447.683 326.016C448.48 326.676 448.609 327.854 447.976 328.667C447.976 328.667 446.91 330.21 445.843 331.305C444.496 332.707 444.121 332.224 444.121 332.224C444.121 332.224 443.488 332.683 443.218 332.259C443.218 332.259 442.632 332.601 442.515 332.106C442.515 332.106 441.425 332.165 442.375 331.282C443.218 330.492 444.062 329.138 443.992 328.796C443.921 328.455 443.359 329.256 442.914 329.326C442.468 329.385 442.855 328.631 443.113 328.29V328.278Z" fill="#FAB196"/>
<path d="M445.222 326.051C447.742 322.812 449.793 319.148 449.793 319.148L449.828 319.172C449.828 319.172 449.851 319.125 449.875 319.101C450.508 318.1 451.832 317.794 452.84 318.43C453.836 319.066 454.141 320.397 453.508 321.41C453.508 321.422 453.484 321.434 453.484 321.445C451.984 324.002 447.953 328.749 447.953 328.749C447.215 329.503 446.007 329.514 445.257 328.772C444.507 328.03 444.566 326.911 445.234 326.063L445.222 326.051Z" fill="#FAB196"/>
<path opacity="0.35" d="M439.996 297.074C439.89 297.274 439.55 297.297 439.257 297.132C438.964 296.968 438.812 296.673 438.929 296.473C439.035 296.273 439.374 296.249 439.667 296.414C439.96 296.579 440.113 296.873 439.996 297.074Z" fill="#FC6158"/>
<path opacity="0.35" d="M443.793 297.651C443.793 297.874 443.511 298.063 443.171 298.063C442.832 298.063 442.562 297.874 442.562 297.639C442.562 297.415 442.843 297.227 443.183 297.227C443.523 297.227 443.793 297.415 443.793 297.651Z" fill="#FC6158"/>
<path d="M431.898 319.329L446.172 322.531L446.604 320.588L432.329 317.386L431.898 319.329Z" fill="#182138"/>
<path d="M441.003 320.609L440.968 326.475L438.788 326.993L439.234 319.961L441.003 320.609Z" fill="#182138"/>
<path d="M437.288 319.266L432.261 326.816L433.984 328.489L438.577 320.067L437.288 319.266Z" fill="#182138"/>
<path d="M424.444 309.525L421.655 304.377L417.038 307.345C417.038 307.345 420.049 315.721 425.44 312.14C430.831 308.559 424.432 309.525 424.432 309.525H424.444Z" fill="white"/>
<path d="M453.906 317.381L449.523 317.675C449.523 317.675 449.57 319.725 447.824 321.892C446.078 324.048 445.984 324.201 445.984 324.201L450.215 328.301C450.215 328.301 454.668 323.86 453.906 317.381Z" fill="white"/>
</g>
<path d="M700.984 321.305L706.153 321.486L705.972 326.656L700.803 326.475L700.984 321.305Z" fill="#4F83C2"/>
<path d="M668.963 341.54L709.909 342.973L709.053 367.442L668.108 366.009L668.963 341.54Z" fill="#4F83C2"/>
<path d="M709.652 326.772L670.354 325.396L666.001 341.415L712.876 343.061L709.652 326.772Z" fill="#A7CEED"/>
<path d="M683.778 352.671L694.363 353.041L693.878 366.915L683.293 366.544L683.778 352.671Z" fill="white"/>
<path d="M697.939 348.944L706.174 349.232L705.886 357.468L697.651 357.18L697.939 348.944Z" fill="white"/>
<path d="M702.057 349.076L701.763 357.311" stroke="#A7CEED" stroke-width="1.03" stroke-miterlimit="10"/>
<path d="M697.796 353.04L706.03 353.334" stroke="#A7CEED" stroke-width="1.03" stroke-miterlimit="10"/>
<path d="M672.253 348.048L680.488 348.336L680.2 356.572L671.965 356.284L672.253 348.048Z" fill="white"/>
<path d="M676.374 348.17L676.08 356.405" stroke="#A7CEED" stroke-width="1.03" stroke-miterlimit="10"/>
<path d="M672.107 352.147L680.349 352.43" stroke="#A7CEED" stroke-width="1.03" stroke-miterlimit="10"/>
<path d="M977.782 382.123C870.593 380.695 760.059 510.069 649.096 684.086L1321.64 666.901C1182.56 457.626 1055.4 383.166 977.782 382.123Z" fill="#BED86A"/>
<path d="M1353.6 610.336C1339.8 602.662 1352.77 587.372 1362.17 594.77C1359.4 589.531 1359.4 583.566 1365.9 579.058C1373.65 573.686 1382.1 579.443 1382.76 585.759C1382.11 568.771 1407.53 567.13 1405.76 586.527C1410.27 569.823 1433.9 579.203 1429.16 595.214C1437.43 583.093 1457.77 596.288 1445.27 609.065C1456.4 606.161 1460.34 629.631 1440 624.351" fill="#D8E897"/>
<path d="M1353.12 614.03C1343.83 646.591 1346.3 661.529 1387.46 667.828C1401.18 669.931 1423.9 673.809 1434.62 664.936C1444.18 657.495 1444.65 644.128 1444.96 628.09" fill="#4F83C2"/>
<path d="M1353.24 619.092C1377.04 622.739 1400.87 626.203 1424.69 629.764C1431.5 630.781 1438.32 631.818 1445.14 632.854C1448.26 633.332 1451.4 630.083 1451.39 627.086C1451.37 623.522 1448.95 621.36 1445.61 620.842C1421.81 617.195 1397.99 613.731 1374.17 610.17C1367.35 609.153 1360.53 608.116 1353.72 607.079C1350.59 606.602 1347.45 609.851 1347.47 612.848C1347.48 616.412 1349.9 618.574 1353.24 619.092Z" fill="#4F83C2"/>
<path d="M1355.95 640.285C1355.42 645.324 1358.1 650.024 1361.62 653.415C1365.35 657 1370.66 657.573 1375.53 658.315C1376.18 658.416 1376.46 657.429 1375.81 657.337C1371.25 656.646 1366.14 656.171 1362.57 652.914C1359 649.657 1356.45 645.159 1356.96 640.303C1357.02 639.651 1356 639.652 1355.94 640.295L1355.95 640.285Z" fill="white"/>
<path d="M1362.8 641.198C1362.11 646.014 1366 651.09 1370.98 651.227C1371.63 651.242 1371.64 650.224 1370.99 650.209C1366.74 650.087 1363.18 645.639 1363.78 641.475C1363.87 640.833 1362.89 640.546 1362.8 641.198Z" fill="white"/>
<path d="M1356.15 620.048C1359.02 620.456 1361.87 620.854 1364.73 621.262C1371.56 622.222 1378.37 623.191 1385.2 624.151C1393.49 625.325 1401.78 626.489 1410.07 627.663C1417.21 628.674 1424.34 629.674 1431.47 630.685L1438.57 631.685C1439.63 631.838 1440.86 632.204 1441.94 632.165C1441.99 632.165 1442.04 632.175 1442.09 632.185C1442.73 632.277 1442.74 631.259 1442.09 631.167C1439.23 630.759 1436.38 630.361 1433.52 629.953C1426.69 628.993 1419.87 628.023 1413.05 627.064C1404.76 625.89 1396.46 624.726 1388.18 623.552C1381.04 622.541 1373.91 621.541 1366.77 620.53L1359.68 619.53C1358.62 619.377 1357.38 619.011 1356.31 619.05C1356.26 619.05 1356.21 619.04 1356.16 619.03C1355.52 618.938 1355.51 619.956 1356.15 620.048Z" fill="white"/>
<path d="M1370.06 590.664C1370.54 591.84 1371.13 592.969 1371.58 594.164C1371.48 593.904 1371.38 593.644 1371.29 593.383C1371.53 594.039 1371.73 594.713 1371.86 595.405C1371.99 596.175 1372.61 596.968 1373.26 597.386C1373.93 597.814 1374.95 598.025 1375.73 597.81C1376.52 597.586 1377.28 597.141 1377.71 596.405C1378.16 595.631 1378.29 594.825 1378.14 593.94C1377.74 591.708 1376.61 589.711 1375.76 587.638C1375.46 586.935 1374.59 586.303 1373.89 586.086C1373.14 585.839 1372.11 585.898 1371.4 586.315C1370.7 586.732 1370.07 587.36 1369.85 588.175C1369.8 588.463 1369.75 588.741 1369.7 589.028C1369.67 589.605 1369.8 590.153 1370.07 590.664L1370.06 590.664Z" fill="#FCFBD2"/>
<path d="M1414.62 585.764C1414.59 585.841 1414.55 585.907 1414.52 585.984C1414.64 585.735 1414.76 585.477 1414.87 585.228C1413.78 587.553 1412.45 589.761 1411.37 592.096C1411.05 592.794 1411.25 593.939 1411.6 594.585C1411.96 595.27 1412.71 595.93 1413.47 596.138C1414.28 596.356 1415.2 596.354 1415.96 595.909C1416.18 595.747 1416.4 595.596 1416.62 595.434C1417.04 595.053 1417.33 594.585 1417.51 594.049C1417.54 593.972 1417.58 593.905 1417.61 593.829L1417.26 594.585C1418.35 592.26 1419.68 590.052 1420.76 587.717C1421.08 587.019 1420.88 585.874 1420.53 585.227C1420.17 584.542 1419.42 583.883 1418.66 583.675C1417.85 583.457 1416.93 583.459 1416.17 583.904C1415.95 584.065 1415.73 584.217 1415.51 584.379C1415.09 584.759 1414.8 585.228 1414.62 585.764Z" fill="#FCFBD2"/>
<path d="M1424.77 610.602C1426.21 611.459 1427.56 612.488 1428.88 613.508C1429.24 613.761 1429.63 613.898 1430.06 613.94C1430.48 614.05 1430.91 614.053 1431.34 613.932C1431.77 613.849 1432.13 613.67 1432.46 613.403C1432.82 613.195 1433.11 612.9 1433.33 612.536C1433.75 611.81 1433.98 610.909 1433.75 610.071C1433.66 609.811 1433.55 609.551 1433.46 609.291C1433.19 608.799 1432.82 608.402 1432.35 608.091C1431.04 607.071 1429.68 606.032 1428.24 605.184C1427.51 604.746 1426.62 604.566 1425.78 604.76C1425.35 604.843 1424.99 605.023 1424.66 605.289C1424.3 605.497 1424.01 605.793 1423.79 606.156C1423.38 606.882 1423.14 607.783 1423.37 608.621C1423.59 609.41 1424.05 610.173 1424.78 610.602L1424.77 610.602Z" fill="#FCFBD2"/>
<path d="M1396.06 579.145C1397.36 580.241 1397.99 581.38 1398.4 582.516C1398.79 583.643 1398.89 584.768 1398.76 585.852C1398.63 586.937 1398.27 587.981 1397.65 588.965C1397 589.949 1396.16 590.893 1394.67 591.735C1393.51 590.486 1392.98 589.339 1392.64 588.241C1392.33 587.144 1392.25 586.086 1392.38 585.079C1392.51 584.062 1392.83 583.085 1393.39 582.11C1393.97 581.135 1394.72 580.171 1396.07 579.154L1396.06 579.145Z" fill="#88976A"/>
<path d="M1399.9 603.912C1401.77 603.928 1403.2 604.506 1404.44 605.208C1405.68 605.929 1406.69 606.831 1407.51 607.866C1408.35 608.9 1409 610.087 1409.42 611.426C1409.83 612.774 1410.07 614.246 1409.77 616.097C1407.92 615.841 1406.59 615.225 1405.4 614.505C1404.24 613.765 1403.27 612.883 1402.48 611.877C1401.68 610.871 1401.05 609.742 1400.59 608.471C1400.14 607.17 1399.85 605.785 1399.9 603.921L1399.9 603.912Z" fill="#88976A"/>
<path d="M1381.16 602.092C1381.4 603.832 1381.43 605.043 1381.25 606.242C1381.07 607.413 1380.71 608.495 1380.13 609.489C1379.55 610.493 1378.76 611.418 1377.7 612.206C1376.64 612.966 1375.31 613.675 1373.52 613.66C1373.28 611.92 1373.25 610.709 1373.43 609.51C1373.61 608.34 1373.98 607.267 1374.56 606.263C1375.14 605.259 1375.93 604.334 1376.99 603.546C1378.05 602.796 1379.38 602.077 1381.16 602.092Z" fill="#88976A"/>
<path d="M1367.3 595.924C1365.56 596.524 1363.94 596.242 1362.57 595.76C1361.2 595.249 1360.06 594.48 1359.14 593.618C1358.22 592.755 1357.5 591.789 1356.92 590.698C1356.33 589.579 1355.88 588.394 1355.38 586.632C1357.14 586.022 1358.76 586.305 1360.13 586.787C1361.5 587.298 1362.64 588.066 1363.56 588.929C1364.48 589.791 1365.18 590.767 1365.77 591.858C1366.36 592.977 1366.81 594.162 1367.31 595.924L1367.3 595.924Z" fill="#88976A"/>
<path d="M1442.14 612.994C1442.62 611.375 1443.05 610.36 1443.59 609.433C1444.15 608.535 1444.84 607.782 1445.74 607.175C1446.65 606.567 1447.79 606.106 1449.1 605.992C1450.4 605.897 1451.86 606.121 1453.17 607.217C1452.42 608.748 1451.91 609.695 1451.34 610.525C1450.77 611.337 1450.15 611.985 1449.31 612.526C1448.49 613.076 1447.47 613.519 1446.25 613.72C1445.02 613.892 1443.6 613.861 1442.14 612.994Z" fill="#88976A"/>
<path d="M1391.16 605.25C1393.77 605.349 1396.07 603.226 1396.17 600.624C1396.27 598.012 1394.16 595.718 1391.54 595.619C1388.93 595.521 1386.63 597.643 1386.53 600.246C1386.43 602.858 1388.55 605.152 1391.16 605.25Z" fill="#FA835F"/>
<path d="M1438.03 605.276C1440.63 605.374 1442.94 603.252 1443.04 600.649C1443.14 598.047 1441.02 595.743 1438.41 595.645C1435.79 595.546 1433.5 597.669 1433.4 600.271C1433.3 602.883 1435.42 605.177 1438.03 605.276Z" fill="#FA835F"/>
<path d="M1359.18 604.588C1363.32 604.748 1363.57 598.324 1359.43 598.164C1355.29 598.005 1355.03 604.429 1359.18 604.588Z" fill="#FA835F"/>
<path d="M1414.49 606.885C1418.63 607.044 1418.89 600.621 1414.75 600.461C1410.61 600.302 1410.35 606.726 1414.49 606.885Z" fill="#FA835F"/>
<path d="M1263.26 582.766C1269.13 574.125 1279.52 567.171 1291.53 565.14C1303.38 563.129 1317.89 566.522 1324.69 574.172C1332.35 567.388 1347.17 565.744 1358.7 569.135C1370.38 572.582 1379.87 580.717 1384.67 589.99C1396.09 612.046 1383.67 635.587 1369.29 655.545C1364.32 662.429 1358.9 669.059 1350.9 673.503C1341.39 678.777 1328.33 679.761 1318.75 673.807C1308.54 678.578 1295.69 676.055 1286.87 669.69C1279.45 664.331 1274.86 657.102 1270.74 649.676C1258.83 628.154 1249.28 603.306 1263.25 582.766L1263.26 582.766Z" fill="#FC6158"/>
<path d="M1321.54 580.568C1323.83 566.619 1330.59 550.66 1343.54 543.577C1346.52 541.946 1348.42 545.569 1345.49 547.507C1334.27 554.92 1328.35 568.624 1325.76 581.451C1325.08 584.8 1321.01 583.781 1321.54 580.568Z" fill="#6E3B46"/>
<path d="M1341.5 583.921C1329.24 588.472 1315.35 586.073 1305.31 577.693C1303.01 575.764 1305.98 572.182 1308.29 574.102C1317.12 581.465 1329.16 583.516 1339.93 579.517C1342.75 578.473 1344.31 582.868 1341.49 583.912L1341.5 583.921Z" fill="#6E3B46"/>
<path d="M1060.33 393.581C1058.68 393.827 1057.05 394.678 1056.42 396.222C1055.85 397.591 1055.93 399.14 1055.49 400.55C1054.82 402.701 1053.05 404.285 1051.61 406.016C1050.17 407.747 1048.96 410.056 1049.71 412.177C1050.23 413.641 1051.62 414.796 1051.67 416.336C1051.7 417.537 1050.91 418.587 1050.51 419.722C1049.72 421.951 1050.55 424.548 1052.21 426.229C1053.86 427.911 1056.22 428.775 1058.57 429.01C1060.87 429.248 1063.33 428.88 1065.18 427.493C1067.04 426.106 1068.11 423.55 1067.32 421.373C1066.85 420.112 1065.83 419.046 1065.67 417.718C1065.25 414.319 1070.51 411.742 1069.3 408.532C1068.87 407.378 1067.72 406.689 1066.93 405.745C1065.75 404.319 1065.48 402.38 1065.26 400.538C1065.05 398.703 1064.83 396.767 1063.74 395.274C1062.65 393.78 1060.35 392.999 1058.9 394.153" fill="#D8D86E"/>
<path d="M1058.91 402.734C1058.66 407.601 1058.41 412.475 1058.15 417.342C1057.89 422.208 1057.64 427.102 1057.38 431.989C1057.24 434.717 1057.1 437.451 1056.96 440.179C1056.94 440.489 1057.42 440.519 1057.43 440.208C1057.68 435.354 1057.93 430.507 1058.19 425.66C1058.44 420.812 1058.7 415.886 1058.95 410.999C1059.09 408.258 1059.24 405.511 1059.38 402.77C1059.39 402.459 1058.92 402.429 1058.9 402.74L1058.91 402.734Z" fill="#6E3B46"/>
<path d="M1056.83 406.697C1057.36 407.95 1057.91 409.197 1058.45 410.444C1058.57 410.723 1059 410.518 1058.89 410.233C1058.36 408.98 1057.81 407.733 1057.27 406.486C1057.15 406.207 1056.72 406.412 1056.83 406.697Z" fill="#6E3B46"/>
<path d="M1058.45 421.297C1060.86 420.084 1062.5 417.795 1063.18 415.222C1063.26 414.928 1062.81 414.767 1062.73 415.074C1062.07 417.523 1060.54 419.706 1058.24 420.86C1057.97 421.001 1058.17 421.432 1058.45 421.297Z" fill="#6E3B46"/>
<path d="M927.639 569.108C925.987 569.355 924.357 570.206 923.723 571.749C923.16 573.118 923.241 574.667 922.801 576.077C922.128 578.228 920.359 579.812 918.918 581.543C917.478 583.274 916.272 585.584 917.019 587.705C917.536 589.168 918.927 590.323 918.975 591.863C919.012 593.065 918.217 594.115 917.821 595.249C917.031 597.478 917.86 600.075 919.516 601.757C921.171 603.438 923.527 604.303 925.877 604.537C928.18 604.776 930.634 604.407 932.491 603.02C934.347 601.634 935.422 599.078 934.626 596.901C934.162 595.639 933.137 594.574 932.976 593.245C932.561 589.846 937.817 587.27 936.609 584.059C936.179 582.906 935.024 582.216 934.242 581.273C933.061 579.846 932.785 577.907 932.571 576.065C932.362 574.23 932.14 572.295 931.049 570.801C929.958 569.308 927.662 568.526 926.212 569.68" fill="#D8D86E"/>
<path d="M926.22 578.261C925.972 583.129 925.717 588.002 925.456 592.869C925.195 597.736 924.945 602.63 924.689 607.517C924.55 610.244 924.404 612.978 924.265 615.706C924.252 616.016 924.727 616.046 924.74 615.736C924.987 610.881 925.24 606.034 925.493 601.187C925.746 596.34 926.005 591.413 926.26 586.526C926.4 583.785 926.548 581.038 926.688 578.297C926.701 577.987 926.226 577.957 926.213 578.267L926.22 578.261Z" fill="#6E3B46"/>
<path d="M924.141 582.225C924.671 583.477 925.222 584.725 925.759 585.971C925.88 586.25 926.31 586.046 926.196 585.76C925.666 584.508 925.115 583.26 924.578 582.014C924.457 581.734 924.027 581.939 924.141 582.225Z" fill="#6E3B46"/>
<path d="M925.762 596.824C928.17 595.611 929.805 593.323 930.491 590.749C930.569 590.456 930.116 590.295 930.037 590.601C929.379 593.051 927.85 595.233 925.552 596.387C925.278 596.529 925.482 596.959 925.762 596.824Z" fill="#6E3B46"/>
<path d="M1157.71 583.009C1152.85 596.353 1163 599.99 1166.53 600.846C1172.05 602.181 1178.26 602.108 1182.94 598.95C1187.61 595.799 1189.92 589.044 1186.84 584.382C1186.17 583.371 1185.29 582.505 1184.64 581.48C1182.17 577.646 1183.22 572.489 1181.2 568.406C1178.97 563.881 1172.73 561.738 1168.09 563.899C1163.19 566.185 1161.13 571.83 1159.54 576.911C1158.45 580.409 1157.34 583.914 1156.25 587.413" fill="#90B249"/>
<path d="M1170.16 578.16C1169.94 582.093 1169.73 586.019 1169.52 589.952C1169.3 593.885 1169.09 597.812 1168.87 601.745C1168.75 603.978 1168.63 606.205 1168.51 608.438C1168.49 608.695 1168.78 608.894 1169.02 608.878C1169.32 608.858 1169.46 608.63 1169.47 608.373C1169.69 604.44 1169.9 600.513 1170.12 596.58C1170.33 592.647 1170.54 588.721 1170.76 584.788C1170.88 582.555 1171 580.328 1171.12 578.095C1171.14 577.838 1170.85 577.638 1170.61 577.655C1170.31 577.674 1170.17 577.903 1170.16 578.16Z" fill="#6E3B46"/>
<path d="M1165.77 582.748C1166.21 585.062 1167.69 587.075 1169.83 588.182C1170.38 588.463 1170.8 587.616 1170.24 587.329C1168.44 586.393 1167.1 584.652 1166.74 582.683C1166.69 582.43 1166.5 582.224 1166.22 582.243C1165.98 582.259 1165.72 582.495 1165.77 582.748Z" fill="#6E3B46"/>
<path d="M1174.92 590.914C1174.05 593.454 1172.08 595.58 1169.54 596.606C1168.96 596.839 1169.28 597.737 1169.85 597.504C1172.62 596.381 1174.84 594.107 1175.8 591.318C1175.88 591.075 1175.82 590.803 1175.57 590.689C1175.35 590.591 1175 590.665 1174.92 590.914Z" fill="#6E3B46"/>
<path d="M924.618 462.947C921.443 471.67 928.079 474.047 930.386 474.607C933.993 475.48 938.053 475.432 941.111 473.368C944.165 471.308 945.675 466.892 943.661 463.844C943.226 463.183 942.652 462.617 942.225 461.947C940.612 459.441 941.294 456.069 939.975 453.4C938.514 450.442 934.44 449.041 931.408 450.454C928.201 451.948 926.852 455.638 925.816 458.96C925.1 461.247 924.38 463.539 923.664 465.826" fill="#90B249"/>
<path d="M932.756 459.777C932.615 462.348 932.478 464.915 932.337 467.486C932.196 470.057 932.059 472.624 931.918 475.195C931.837 476.655 931.76 478.11 931.678 479.57C931.669 479.738 931.858 479.869 932.016 479.858C932.207 479.845 932.301 479.696 932.31 479.528C932.451 476.957 932.588 474.39 932.729 471.819C932.87 469.248 933.007 466.681 933.148 464.11C933.229 462.65 933.306 461.194 933.387 459.734C933.396 459.566 933.208 459.436 933.05 459.446C932.859 459.459 932.765 459.609 932.756 459.777Z" fill="#6E3B46"/>
<path d="M929.889 462.776C930.175 464.289 931.144 465.605 932.54 466.328C932.899 466.512 933.173 465.959 932.809 465.771C931.635 465.159 930.757 464.021 930.52 462.734C930.488 462.568 930.366 462.434 930.183 462.446C930.025 462.457 929.856 462.611 929.889 462.776Z" fill="#6E3B46"/>
<path d="M935.872 468.114C935.3 469.775 934.015 471.164 932.355 471.836C931.977 471.988 932.181 472.575 932.559 472.423C934.369 471.688 935.818 470.202 936.442 468.378C936.498 468.219 936.46 468.042 936.292 467.968C936.154 467.903 935.923 467.952 935.872 468.114Z" fill="#6E3B46"/>
<path d="M842.274 480.631C839.857 481.266 837.36 481.906 834.886 481.559C832.41 481.215 829.934 479.629 829.328 477.206C828.655 474.51 830.387 471.885 831.595 469.379C832.572 467.358 833.248 465.102 832.909 462.885C832.581 460.752 831.357 458.884 830.453 456.924C829.55 454.964 828.968 452.62 829.94 450.693C830.48 449.618 831.439 448.82 832.15 447.848C833.73 445.692 833.993 442.881 834.75 440.318C835.507 437.754 837.216 435.053 839.874 434.767C843.145 434.416 845.561 437.948 846.033 441.202C846.504 444.457 845.869 447.868 846.887 450.995C847.707 453.514 849.509 455.568 850.951 457.79C852.392 460.013 853.516 462.732 852.754 465.267C852.337 466.655 851.397 467.828 850.9 469.192C850.04 471.556 850.605 474.236 849.875 476.644C848.687 480.561 843.697 482.795 839.982 481.075" fill="#7A9756"/>
<path d="M839.954 448.437C840.024 451.067 840.071 453.693 840.093 456.323C840.115 458.949 840.115 461.575 840.088 464.202C840.063 466.826 840.012 469.454 839.94 472.078C839.868 474.701 839.769 477.347 839.647 479.979C839.526 482.603 839.379 485.224 839.209 487.844C839.189 488.17 839.168 488.496 839.145 488.824C839.119 489.217 839.729 489.285 839.755 488.891C839.931 486.262 840.084 483.63 840.212 480.997C840.34 478.364 840.442 475.73 840.523 473.096C840.603 470.461 840.657 467.807 840.69 465.161C840.72 462.525 840.729 459.889 840.712 457.256C840.696 454.614 840.654 451.973 840.589 449.332C840.581 449.005 840.572 448.677 840.564 448.35C840.559 448.186 840.367 448.069 840.216 448.091C840.037 448.118 839.953 448.273 839.956 448.439L839.954 448.437Z" fill="#6E3B46"/>
<path d="M836.251 458.094C837.055 459.406 838.059 460.585 839.212 461.604C839.538 461.892 839.877 462.162 840.226 462.422C840.354 462.516 840.562 462.49 840.654 462.354C840.745 462.217 840.723 462.027 840.586 461.926C840.281 461.699 839.983 461.463 839.694 461.216C839.554 461.095 839.418 460.972 839.281 460.846C839.249 460.815 839.217 460.788 839.185 460.757C839.192 460.766 839.115 460.691 839.145 460.719C839.17 460.742 839.12 460.697 839.115 460.691C839.044 460.624 838.974 460.554 838.905 460.486C838.372 459.952 837.879 459.376 837.435 458.768C837.183 458.427 836.947 458.075 836.727 457.713C836.643 457.576 836.409 457.566 836.295 457.665C836.156 457.786 836.156 457.948 836.246 458.097L836.251 458.094Z" fill="#6E3B46"/>
<path d="M843.054 467.912C842.289 468.956 841.523 469.997 840.758 471.041C840.539 471.339 840.32 471.637 840.099 471.937C840.004 472.065 840.03 472.273 840.166 472.365C840.303 472.456 840.493 472.434 840.594 472.297C841.36 471.252 842.125 470.212 842.891 469.168C843.11 468.87 843.329 468.571 843.55 468.272C843.644 468.143 843.619 467.935 843.482 467.844C843.346 467.753 843.156 467.775 843.054 467.912Z" fill="#6E3B46"/>
<path d="M1024.04 555.581C1022.2 556.064 1020.3 556.552 1018.41 556.288C1016.52 556.025 1014.64 554.817 1014.18 552.971C1013.66 550.916 1014.98 548.916 1015.9 547.007C1016.65 545.467 1017.16 543.748 1016.9 542.058C1016.65 540.433 1015.72 539.009 1015.03 537.516C1014.34 536.022 1013.9 534.236 1014.64 532.769C1015.05 531.949 1015.78 531.341 1016.33 530.6C1017.53 528.958 1017.73 526.815 1018.31 524.862C1018.88 522.909 1020.19 520.85 1022.21 520.633C1024.7 520.366 1026.54 523.057 1026.9 525.537C1027.26 528.016 1026.78 530.615 1027.56 532.998C1028.18 534.918 1029.55 536.482 1030.65 538.176C1031.75 539.87 1032.61 541.942 1032.03 543.873C1031.71 544.931 1030.99 545.825 1030.61 546.864C1029.96 548.665 1030.39 550.708 1029.83 552.543C1028.93 555.527 1025.12 557.23 1022.29 555.919" fill="#7A9756"/>
<path d="M1022.27 531.049C1022.33 533.053 1022.36 535.054 1022.38 537.058C1022.39 539.059 1022.39 541.06 1022.37 543.062C1022.36 545.062 1022.32 547.064 1022.26 549.063C1022.21 551.062 1022.13 553.078 1022.04 555.083C1021.95 557.083 1021.83 559.08 1021.7 561.077C1021.69 561.325 1021.67 561.573 1021.66 561.823C1021.64 562.123 1022.1 562.175 1022.12 561.875C1022.26 559.871 1022.37 557.865 1022.47 555.859C1022.57 553.853 1022.64 551.846 1022.71 549.839C1022.77 547.831 1022.81 545.808 1022.83 543.793C1022.86 541.784 1022.86 539.775 1022.85 537.769C1022.84 535.756 1022.81 533.743 1022.76 531.731C1022.75 531.482 1022.74 531.232 1022.74 530.983C1022.73 530.858 1022.59 530.768 1022.47 530.785C1022.34 530.806 1022.27 530.924 1022.27 531.051L1022.27 531.049Z" fill="#6E3B46"/>
<path d="M1019.45 538.407C1020.06 539.407 1020.83 540.306 1021.71 541.082C1021.96 541.302 1022.21 541.508 1022.48 541.705C1022.58 541.777 1022.74 541.757 1022.81 541.653C1022.88 541.55 1022.86 541.405 1022.75 541.328C1022.52 541.155 1022.29 540.975 1022.07 540.786C1021.97 540.694 1021.86 540.601 1021.76 540.504C1021.74 540.481 1021.71 540.46 1021.69 540.437C1021.69 540.443 1021.63 540.386 1021.66 540.408C1021.67 540.425 1021.64 540.391 1021.63 540.386C1021.58 540.336 1021.53 540.282 1021.47 540.23C1021.07 539.823 1020.69 539.384 1020.35 538.921C1020.16 538.662 1019.98 538.393 1019.81 538.117C1019.75 538.013 1019.57 538.005 1019.48 538.08C1019.38 538.173 1019.38 538.297 1019.45 538.41L1019.45 538.407Z" fill="#6E3B46"/>
<path d="M1024.63 545.889C1024.05 546.685 1023.47 547.477 1022.88 548.273C1022.72 548.5 1022.55 548.727 1022.38 548.956C1022.31 549.053 1022.33 549.212 1022.43 549.282C1022.54 549.351 1022.68 549.334 1022.76 549.23C1023.34 548.434 1023.93 547.641 1024.51 546.845C1024.68 546.618 1024.84 546.391 1025.01 546.163C1025.08 546.065 1025.06 545.907 1024.96 545.837C1024.86 545.767 1024.71 545.784 1024.63 545.889Z" fill="#6E3B46"/>
<path d="M560.573 648.769C554.692 652.709 546.998 655.125 540.336 658.459C526.84 665.221 517.777 676.319 518.41 687.602C519.059 698.88 530.294 709.813 546.292 713.001C563.453 716.429 581.66 711.073 599.584 710.383C634.56 709.05 667.836 725.556 702.318 721.245C726.553 718.22 746.818 705.266 771.356 703.869C786.854 702.987 802.078 706.874 817.616 706.872C842.524 706.859 866.807 695.788 876.219 680.138C880.456 673.095 881.546 664.478 874.901 658.419C869.424 653.419 859.969 651.208 853.306 646.925C841.702 639.456 840.642 627.447 837.575 616.772C834.498 606.111 825.518 594.085 809.465 593.3C793.012 592.495 778.213 604.32 762.25 601.551C752.83 599.912 747.081 593.786 740.294 589.109C722.888 577.109 693.526 573.957 671.189 581.692C645.11 590.724 645.335 611.031 596.659 609.901C547.983 608.771 571.65 641.373 560.6 648.785L560.573 648.769Z" fill="#8BB546"/>
<path d="M686.904 624.066C687.711 632.543 688.518 641.021 689.315 649.513C690.113 658.005 690.911 666.378 691.715 674.821L693.079 689.124C693.175 690.191 694.842 691.077 696.404 690.91C698.079 690.725 699.191 689.791 699.083 688.644C698.276 680.166 697.47 671.688 696.672 663.196C695.874 654.763 695.076 646.331 694.272 637.888C693.821 633.116 693.375 628.354 692.909 623.585C692.812 622.519 691.145 621.632 689.583 621.799C687.908 621.984 686.796 622.919 686.904 624.066Z" fill="#8BB546"/>
<path d="M648.097 644.118C650.607 648.517 655.104 652.36 660.664 655.186C666.219 658.002 672.876 659.898 679.803 660.508C683.676 660.85 687.689 660.796 691.534 660.278C692.334 660.166 693.067 659.941 693.58 659.492C694.026 659.108 694.325 658.503 694.213 658.011C693.986 656.992 692.559 656.004 690.887 656.225C689.461 656.413 688.02 656.546 686.574 656.61C685.851 656.641 685.137 656.659 684.412 656.655C684.323 656.656 684.22 656.66 684.126 656.65C684.126 656.65 684.946 656.663 684.478 656.649C684.317 656.646 684.141 656.646 683.98 656.643C683.622 656.634 683.264 656.625 682.899 656.606C681.448 656.54 680.018 656.421 678.598 656.228C677.891 656.136 677.178 656.034 676.483 655.904C676.289 655.874 676.11 655.839 675.931 655.805C675.458 655.721 676.69 655.954 676.047 655.821C675.704 655.749 675.346 655.68 675.003 655.608C673.626 655.308 672.271 654.954 670.959 654.553C670.295 654.354 669.655 654.138 669.01 653.91C668.695 653.795 668.364 653.683 668.065 653.563C667.925 653.506 667.771 653.453 667.631 653.397C667.471 653.334 667.165 653.204 667.925 653.506C667.834 653.472 667.765 653.443 667.674 653.409C665.193 652.401 662.883 651.203 660.83 649.841C660.77 649.798 660.688 649.749 660.628 649.706C660.283 649.479 661.072 650.012 660.815 649.845C660.688 649.749 660.546 649.657 660.419 649.561C660.144 649.363 659.863 649.155 659.588 648.957C659.047 648.547 658.53 648.118 658.029 647.684C657.041 646.814 656.127 645.888 655.335 644.929L655.736 645.401C654.988 644.489 654.333 643.551 653.777 642.574C653.222 641.598 651.349 640.994 649.872 641.457C648.396 641.921 647.575 643.049 648.179 644.108L648.097 644.118Z" fill="#8BB546"/>
<path d="M697.871 671.65C707.323 673.434 717.503 673.569 727.157 672.268C737.095 670.936 746.601 668.178 754.795 664.115C759.335 661.862 763.483 659.181 766.989 656.188C767.979 655.347 767.8 653.958 766.48 653.333C765.16 652.708 763.297 652.814 762.25 653.707C761.294 654.516 760.311 655.308 759.252 656.062C758.748 656.437 758.217 656.797 757.687 657.156C757.333 657.395 758.208 656.811 757.751 657.114C757.623 657.197 757.494 657.28 757.351 657.367C757.055 657.555 756.75 657.757 756.454 657.945C754.228 659.327 751.838 660.611 749.334 661.761C747.905 662.425 746.431 663.043 744.918 663.624L745.621 663.348C740.518 665.304 735.041 666.804 729.374 667.798L730.161 667.666C726.041 668.379 721.844 668.839 717.612 669C716.579 669.045 715.549 669.066 714.528 669.072C714.264 669.073 714.015 669.07 713.751 669.071C713.648 669.075 713.538 669.07 713.45 669.07C712.849 669.068 714.212 669.075 713.611 669.074C713.092 669.061 712.579 669.059 712.075 669.043C709.97 668.978 707.861 668.842 705.775 668.629C703.429 668.392 701.111 668.053 698.827 667.621C698.132 667.49 697.095 667.739 696.552 668.018C695.97 668.32 695.469 668.85 695.389 669.347C695.298 669.883 695.443 670.461 695.953 670.88C696.464 671.298 697.097 671.505 697.907 671.652L697.871 671.65Z" fill="#8BB546"/>
<path d="M738.414 656.873C738.664 659.585 738.928 662.294 739.178 665.006C739.274 666.073 740.942 666.959 742.504 666.792C744.179 666.607 745.29 665.673 745.182 664.526C744.933 661.813 744.668 659.105 744.419 656.393C744.323 655.326 742.655 654.44 741.093 654.606C739.418 654.792 738.306 655.726 738.414 656.873Z" fill="#8BB546"/>
<path d="M665.197 655.085C660.168 657.318 655.145 659.562 650.116 661.795C648.785 662.385 648.535 663.856 649.517 664.657C650.626 665.553 652.314 665.661 653.745 665.031C658.774 662.798 663.797 660.555 668.827 658.322C670.158 657.731 670.407 656.261 669.425 655.46C668.316 654.564 666.629 654.456 665.197 655.085Z" fill="#8BB546"/>
<path d="M691.503 639.55C700.423 639.554 709.283 635.904 713.827 630.738C715.271 629.106 716.312 627.419 716.941 625.571C717.297 624.523 715.95 623.371 714.423 623.266C712.693 623.146 711.357 623.88 710.986 624.992C710.914 625.201 710.837 625.401 710.76 625.6C710.683 625.8 710.896 625.29 710.883 625.329C710.856 625.372 710.849 625.421 710.822 625.465C710.778 625.571 710.72 625.683 710.671 625.779C710.48 626.176 710.262 626.557 710.013 626.946C709.765 627.335 709.504 627.703 709.207 628.07C709.136 628.16 709.075 628.236 709.005 628.327C708.943 628.403 708.625 628.764 708.925 628.432C709.225 628.1 708.925 628.432 708.873 628.494C708.787 628.589 708.702 628.683 708.616 628.778C707.946 629.473 707.192 630.143 706.377 630.77C706.166 630.923 705.955 631.076 705.745 631.228C705.647 631.303 705.544 631.367 705.446 631.441C705.22 631.598 705.8 631.201 705.751 631.238C705.684 631.304 705.574 631.358 705.495 631.404C705.046 631.693 704.571 631.966 704.11 632.234C703.019 632.842 701.864 633.373 700.643 633.85L701.347 633.574C699.532 634.273 697.585 634.806 695.566 635.157L696.353 635.025C694.559 635.338 692.727 635.495 690.871 635.492C690.145 635.489 689.256 635.899 688.825 636.279C688.394 636.658 688.08 637.267 688.192 637.759C688.307 638.286 688.672 638.816 689.335 639.134C689.998 639.451 690.689 639.547 691.519 639.545L691.503 639.55Z" fill="#8BB546"/>
<path d="M399.7 612.399L677.856 611.024C681.634 611.005 684.681 607.928 684.662 604.15L684.66 603.6C684.641 599.823 681.564 596.776 677.786 596.794L399.629 598.169C395.852 598.188 392.805 601.265 392.823 605.043L392.826 605.593C392.845 609.37 395.922 612.418 399.7 612.399Z" fill="#4F83C2"/>
<path d="M638.859 662.455L675.41 630.551L675.142 577.287L638.271 545.752L592.623 545.982L593.211 662.686L638.859 662.455Z" fill="#4F83C2"/>
<path d="M593.246 670.985L638.895 670.76L638.236 537.411L592.587 537.637L593.246 670.985Z" fill="#A7CEED"/>
<path d="M439.192 663.453L402.33 631.922L402.062 578.658L438.613 546.754L484.261 546.523L484.849 663.227L439.192 663.453Z" fill="#4F83C2"/>
<path d="M484.208 538.208L438.559 538.434L439.218 671.782L484.867 671.556L484.208 538.208Z" fill="#A7CEED"/>
<g opacity="0.6">
<path d="M1288.52 362.092L1133.14 363.042C1124.78 363.093 1118.04 369.89 1118.09 378.224L1118.62 464.91C1118.67 473.244 1125.49 479.958 1133.86 479.907L1289.23 478.957C1297.6 478.906 1304.33 472.109 1304.28 463.775L1303.75 377.089C1303.7 368.755 1296.88 362.041 1288.52 362.092Z" fill="#A7CEED"/>
<path d="M1224.98 376.259L1222.59 376.273L1223.14 465.753L1225.53 465.739L1224.98 376.259Z" fill="white"/>
<path d="M1208.22 384.078L1134.71 384.525L1134.94 421.558L1208.45 421.111L1208.22 384.078Z" fill="white"/>
<path d="M1161.03 415.227C1160.69 415.227 1160.35 415.13 1160.05 414.902L1145.87 404.247C1145.45 403.938 1145.22 403.435 1145.22 402.915C1145.22 402.395 1145.5 401.908 1145.94 401.616L1159.99 392.081C1160.72 391.578 1161.73 391.773 1162.24 392.503C1162.74 393.234 1162.55 394.241 1161.81 394.745L1149.64 403.013L1162.01 412.32C1162.73 412.856 1162.87 413.863 1162.34 414.577C1162.03 415 1161.54 415.211 1161.05 415.227H1161.03Z" fill="#B8C46D"/>
<path d="M1184.02 415.098C1183.49 415.098 1182.97 414.855 1182.66 414.384C1182.16 413.653 1182.35 412.646 1183.09 412.142L1195.26 403.874L1182.89 394.567C1182.17 394.031 1182.03 393.024 1182.56 392.31C1183.1 391.595 1184.13 391.465 1184.83 392.001L1199.01 402.656C1199.44 402.965 1199.66 403.468 1199.66 403.988C1199.66 404.508 1199.39 404.995 1198.95 405.288L1184.9 414.822C1184.62 415.017 1184.31 415.098 1184 415.098H1184.02Z" fill="#B8C46D"/>
<path d="M1168.38 418.362C1168.24 418.362 1168.07 418.346 1167.93 418.297C1167.06 418.054 1166.57 417.16 1166.82 416.299L1174.63 389.255C1174.87 388.394 1175.77 387.907 1176.63 388.151C1177.49 388.394 1177.98 389.288 1177.74 390.148L1169.93 417.193C1169.74 417.891 1169.08 418.362 1168.38 418.362Z" fill="#B8C46D"/>
<path d="M1136.91 463.55C1129.75 463.599 1123.9 457.833 1123.85 450.702C1123.8 443.572 1129.59 437.74 1136.74 437.692C1143.9 437.643 1149.75 443.409 1149.8 450.54C1149.85 457.67 1144.06 463.502 1136.91 463.55ZM1136.76 440.924C1131.4 440.957 1127.06 445.326 1127.09 450.686C1127.13 456.03 1131.51 460.35 1136.89 460.318C1142.27 460.285 1146.59 455.916 1146.56 450.556C1146.52 445.212 1142.14 440.892 1136.76 440.924Z" fill="white"/>
<path d="M1136.91 464.638C1129.16 464.687 1122.81 458.433 1122.76 450.718C1122.71 443.003 1128.98 436.668 1136.73 436.619C1138.23 436.619 1139.43 437.805 1139.45 439.299C1139.47 440.794 1138.26 441.996 1136.76 442.012C1131.98 442.044 1128.14 445.926 1128.17 450.685C1128.2 455.445 1132.1 459.278 1136.87 459.245C1141.65 459.213 1145.5 455.331 1145.46 450.572C1145.46 449.077 1145.06 447.599 1144.31 446.316C1143.56 445.033 1144 443.376 1145.28 442.629C1146.57 441.882 1148.23 442.32 1148.98 443.604C1150.21 445.699 1150.86 448.103 1150.88 450.523C1150.92 458.238 1144.65 464.573 1136.91 464.622V464.638Z" fill="#4F83C2"/>
<path d="M1170.21 463.355C1163.05 463.404 1157.2 457.637 1157.15 450.507C1157.1 443.376 1162.89 437.545 1170.05 437.496C1177.2 437.448 1183.05 443.214 1183.1 450.344C1183.15 457.475 1177.36 463.306 1170.21 463.355ZM1170.06 440.729C1164.7 440.761 1160.36 445.131 1160.4 450.491C1160.43 455.835 1164.81 460.155 1170.19 460.123C1175.55 460.09 1179.89 455.721 1179.86 450.361C1179.83 445.001 1175.44 440.696 1170.06 440.729Z" fill="white"/>
<path d="M1170.22 464.427C1162.48 464.476 1156.12 458.222 1156.08 450.507C1156.03 442.792 1162.3 436.457 1170.04 436.408C1172.6 436.408 1175.11 437.074 1177.3 438.357C1178.59 439.121 1179.01 440.778 1178.24 442.044C1177.48 443.328 1175.82 443.75 1174.54 442.987C1173.21 442.191 1171.66 441.768 1170.08 441.785C1165.3 441.817 1161.45 445.699 1161.49 450.458C1161.52 455.217 1165.42 459.051 1170.19 459.018C1173.91 459.002 1177.18 456.63 1178.36 453.122C1178.83 451.709 1180.36 450.946 1181.78 451.417C1183.2 451.888 1183.97 453.414 1183.49 454.828C1181.59 460.529 1176.27 464.378 1170.24 464.411L1170.22 464.427Z" fill="#4F83C2"/>
<path d="M1203.51 463.144C1196.36 463.193 1190.5 457.427 1190.45 450.296C1190.41 443.165 1196.19 437.334 1203.35 437.285C1210.5 437.237 1216.36 443.003 1216.41 450.134C1216.45 457.264 1210.67 463.095 1203.51 463.144ZM1203.36 440.518C1198 440.55 1193.67 444.92 1193.7 450.28C1193.73 455.624 1198.12 459.944 1203.49 459.912C1208.86 459.879 1213.19 455.51 1213.16 450.15C1213.13 444.806 1208.74 440.485 1203.36 440.518Z" fill="white"/>
<path d="M1203.53 464.232C1195.78 464.281 1189.43 458.027 1189.38 450.312C1189.35 445.244 1192.07 440.55 1196.49 438.048C1197.79 437.317 1199.44 437.772 1200.17 439.055C1200.9 440.355 1200.46 441.995 1199.16 442.726C1196.44 444.269 1194.76 447.161 1194.77 450.279C1194.81 455.038 1198.7 458.872 1203.48 458.839C1208.25 458.807 1212.1 454.925 1212.07 450.166C1212.07 449.597 1212 449.045 1211.89 448.493C1211.6 447.031 1212.54 445.618 1214.01 445.325C1215.48 445.033 1216.89 445.975 1217.19 447.437C1217.37 448.314 1217.46 449.223 1217.46 450.133C1217.51 457.848 1211.24 464.183 1203.49 464.232H1203.53Z" fill="#4F83C2"/>
<path d="M1250.11 392.967C1250.75 388.501 1247.64 384.36 1243.15 383.719C1238.67 383.078 1234.52 386.179 1233.87 390.645C1233.23 395.112 1236.34 399.252 1240.82 399.893C1245.31 400.535 1249.46 397.434 1250.11 392.967Z" fill="white"/>
<path d="M1274.67 393.893C1275.91 389.553 1273.39 385.034 1269.03 383.798C1264.68 382.563 1260.14 385.08 1258.9 389.419C1257.66 393.759 1260.19 398.279 1264.54 399.514C1268.9 400.75 1273.43 398.233 1274.67 393.893Z" fill="#A2BDDA"/>
<path d="M1297.36 397.273C1300.57 394.083 1300.57 388.91 1297.36 385.719C1294.16 382.528 1288.97 382.528 1285.77 385.719C1282.57 388.91 1282.57 394.083 1285.77 397.273C1288.97 400.464 1294.16 400.464 1297.36 397.273Z" fill="white"/>
<path d="M1249.43 402.992L1234.63 403.082L1234.64 404.901L1249.45 404.811L1249.43 402.992Z" fill="#F0F4FF"/>
<path d="M1251.28 406.944L1232.85 407.057L1232.86 408.876L1251.3 408.764L1251.28 406.944Z" fill="#F0F4FF"/>
<path d="M1274.24 402.842L1259.44 402.932L1259.45 404.751L1274.25 404.661L1274.24 402.842Z" fill="#F0F4FF"/>
<path d="M1276.09 406.794L1257.66 406.906L1257.67 408.725L1276.1 408.613L1276.09 406.794Z" fill="#F0F4FF"/>
<path d="M1299.05 402.676L1284.25 402.766L1284.26 404.585L1299.06 404.495L1299.05 402.676Z" fill="#F0F4FF"/>
<path d="M1300.88 406.642L1282.45 406.754L1282.46 408.573L1300.9 408.461L1300.88 406.642Z" fill="#F0F4FF"/>
<path d="M1297.22 416.978L1232.91 417.369L1233.19 463.53L1297.5 463.139L1297.22 416.978Z" fill="white"/>
<path d="M1292.93 421.895L1246.76 422.176L1246.78 424.222L1292.94 423.941L1292.93 421.895Z" fill="#A7CEED"/>
<path d="M1292.97 429.834L1239.02 430.164L1239.03 432.211L1292.99 431.881L1292.97 429.834Z" fill="#A7CEED"/>
<path d="M1293.02 437.779L1239.07 438.107L1239.08 440.154L1293.04 439.826L1293.02 437.779Z" fill="#A7CEED"/>
<path d="M1293.07 445.707L1239.12 446.035L1239.13 448.082L1293.09 447.753L1293.07 445.707Z" fill="#A7CEED"/>
<path d="M1287.48 453.52L1239.17 453.814L1239.18 456.023L1287.49 455.729L1287.48 453.52Z" fill="#A7CEED"/>
</g>
<path d="M103.89 149.319C101.758 149.879 99.5542 150.444 97.3718 150.138C95.1875 149.834 93.0029 148.435 92.4687 146.298C91.8751 143.919 93.403 141.603 94.469 139.393C95.3303 137.61 95.9266 135.62 95.6275 133.663C95.3389 131.782 94.2585 130.133 93.4613 128.404C92.6641 126.675 92.1515 124.607 93.0086 122.908C93.4853 121.959 94.3314 121.255 94.9584 120.397C96.3522 118.496 96.584 116.015 97.2521 113.754C97.9201 111.493 99.4279 109.109 101.773 108.857C104.658 108.548 106.789 111.664 107.206 114.535C107.622 117.406 107.062 120.415 107.96 123.174C108.683 125.396 110.273 127.208 111.544 129.169C112.816 131.13 113.807 133.528 113.135 135.765C112.767 136.989 111.938 138.024 111.5 139.227C110.741 141.313 111.24 143.678 110.596 145.802C109.548 149.257 105.145 151.228 101.868 149.711" fill="#7A9756"/>
<path d="M101.843 120.917C101.905 123.237 101.947 125.554 101.965 127.875C101.985 130.191 101.985 132.508 101.961 134.825C101.939 137.141 101.894 139.459 101.831 141.773C101.767 144.088 101.68 146.422 101.572 148.744C101.466 151.059 101.335 153.371 101.186 155.683C101.168 155.97 101.15 156.258 101.129 156.547C101.106 156.894 101.645 156.954 101.668 156.606C101.823 154.287 101.958 151.965 102.071 149.642C102.183 147.319 102.273 144.995 102.345 142.671C102.416 140.347 102.463 138.005 102.493 135.672C102.519 133.346 102.527 131.02 102.512 128.697C102.498 126.367 102.461 124.036 102.404 121.707C102.396 121.418 102.389 121.129 102.381 120.841C102.377 120.695 102.207 120.592 102.074 120.612C101.916 120.636 101.842 120.772 101.845 120.919L101.843 120.917Z" fill="#6E3B46"/>
<path d="M98.576 129.436C99.2851 130.594 100.171 131.635 101.189 132.533C101.476 132.787 101.775 133.026 102.083 133.255C102.196 133.338 102.38 133.315 102.46 133.195C102.541 133.074 102.522 132.907 102.401 132.818C102.131 132.617 101.868 132.409 101.613 132.191C101.491 132.084 101.37 131.976 101.249 131.864C101.221 131.837 101.193 131.813 101.165 131.786C101.171 131.794 101.103 131.728 101.129 131.753C101.151 131.773 101.107 131.733 101.103 131.728C101.04 131.669 100.978 131.607 100.918 131.547C100.447 131.076 100.013 130.568 99.6205 130.031C99.3987 129.731 99.1902 129.42 98.9964 129.1C98.9219 128.98 98.7159 128.971 98.6148 129.058C98.4924 129.165 98.492 129.308 98.5722 129.439L98.576 129.436Z" fill="#6E3B46"/>
<path d="M104.578 138.098C103.903 139.02 103.228 139.938 102.552 140.859C102.359 141.122 102.166 141.385 101.971 141.649C101.887 141.762 101.91 141.946 102.03 142.026C102.151 142.107 102.318 142.088 102.408 141.967C103.083 141.045 103.758 140.127 104.434 139.206C104.627 138.943 104.82 138.68 105.015 138.416C105.099 138.302 105.076 138.119 104.956 138.038C104.835 137.958 104.667 137.977 104.578 138.098Z" fill="#6E3B46"/>
<path d="M344.51 29.2324C342.637 29.5123 340.788 30.4774 340.069 32.2279C339.43 33.7806 339.522 35.5374 339.023 37.1364C338.26 39.5755 336.254 41.3725 334.62 43.3357C332.986 45.2989 331.619 47.9177 332.466 50.3232C333.052 51.9834 334.629 53.2928 334.684 55.0396C334.726 56.4023 333.824 57.5929 333.375 58.8795C332.479 61.4079 333.42 64.3528 335.297 66.2599C337.175 68.1669 339.847 69.1474 342.512 69.4135C345.124 69.6838 347.907 69.2659 350.012 67.6931C352.117 66.1204 353.337 63.2218 352.434 60.7526C351.908 59.3217 350.745 58.1134 350.563 56.6065C350.093 52.752 356.054 49.8299 354.684 46.189C354.195 44.8807 352.885 44.0991 351.999 43.0286C350.659 41.411 350.347 39.2121 350.103 37.1228C349.867 35.0414 349.615 32.8464 348.377 31.1526C347.14 29.4588 344.537 28.5728 342.892 29.8815" fill="#D8D86E"/>
<path d="M342.9 39.6132C342.619 45.1335 342.33 50.661 342.034 56.1804C341.738 61.6998 341.455 67.2501 341.165 72.7924C341.007 75.8859 340.841 78.9865 340.683 82.0799C340.668 82.4322 341.207 82.466 341.222 82.1138C341.502 76.6084 341.789 71.1111 342.077 65.6137C342.364 60.1163 342.657 54.5291 342.947 48.9867C343.106 45.8783 343.272 42.7627 343.431 39.6543C343.446 39.302 342.907 39.268 342.892 39.6202L342.9 39.6132Z" fill="#6E3B46"/>
<path d="M340.543 44.1084C341.145 45.5291 341.769 46.9436 342.378 48.3573C342.516 48.6741 343.003 48.4418 342.874 48.118C342.272 46.6974 341.648 45.2828 341.039 43.8692C340.901 43.5524 340.413 43.7846 340.543 44.1084Z" fill="#6E3B46"/>
<path d="M342.382 60.6659C345.113 59.2905 346.967 56.6949 347.745 53.7758C347.834 53.4433 347.319 53.2606 347.23 53.6081C346.483 56.3863 344.749 58.8618 342.143 60.1699C341.832 60.3307 342.064 60.8187 342.382 60.6659Z" fill="#6E3B46"/>
<path d="M385.962 70.4271C384.483 70.648 383.024 71.41 382.456 72.7919C381.952 74.0177 382.024 75.4046 381.63 76.667C381.028 78.5926 379.444 80.0112 378.154 81.5611C376.865 83.111 375.785 85.1784 376.454 87.0774C376.916 88.3881 378.162 89.4218 378.205 90.8008C378.238 91.8766 377.526 92.8166 377.172 93.8323C376.464 95.8283 377.207 98.1532 378.689 99.6588C380.171 101.164 382.281 101.938 384.385 102.148C386.447 102.362 388.644 102.032 390.306 100.79C391.968 99.5486 392.931 97.2603 392.218 95.311C391.803 94.1814 390.885 93.2275 390.74 92.0378C390.369 88.9948 395.075 86.6879 393.994 83.8136C393.608 82.7808 392.574 82.1637 391.874 81.3186C390.816 80.0416 390.57 78.3057 390.378 76.6562C390.191 75.013 389.992 73.2802 389.015 71.943C388.038 70.6058 385.983 69.9063 384.684 70.9396" fill="#D8D86E"/>
<path d="M384.691 78.6223C384.469 82.9804 384.241 87.3441 384.008 91.7014C383.774 96.0588 383.55 100.44 383.321 104.816C383.197 107.258 383.066 109.706 382.941 112.148C382.929 112.426 383.355 112.453 383.366 112.175C383.588 107.829 383.814 103.489 384.041 99.1486C384.268 94.8087 384.499 90.3978 384.728 86.0223C384.853 83.5684 384.985 81.1087 385.111 78.6547C385.122 78.3766 384.697 78.3498 384.685 78.6278L384.691 78.6223Z" fill="#6E3B46"/>
<path d="M382.83 82.1711C383.305 83.2926 383.798 84.4094 384.279 85.5254C384.388 85.7755 384.773 85.5921 384.67 85.3365C384.196 84.215 383.703 83.0982 383.222 81.9822C383.113 81.7321 382.728 81.9155 382.83 82.1711Z" fill="#6E3B46"/>
<path d="M384.282 95.2425C386.438 94.1567 387.902 92.1076 388.516 89.8031C388.586 89.5406 388.18 89.3963 388.109 89.6707C387.52 91.864 386.151 93.8183 384.093 94.851C383.848 94.9779 384.031 95.3631 384.282 95.2425Z" fill="#6E3B46"/>
<path d="M148.451 454.447C146.62 454.72 144.814 455.663 144.111 457.374C143.487 458.891 143.577 460.607 143.089 462.17C142.344 464.553 140.383 466.309 138.787 468.227C137.19 470.146 135.854 472.705 136.682 475.055C137.254 476.677 138.796 477.957 138.849 479.664C138.89 480.995 138.009 482.159 137.57 483.416C136.695 485.886 137.614 488.764 139.449 490.627C141.283 492.491 143.894 493.449 146.498 493.709C149.051 493.973 151.77 493.565 153.827 492.028C155.884 490.491 157.076 487.659 156.193 485.246C155.68 483.848 154.543 482.667 154.365 481.195C153.905 477.428 159.73 474.573 158.391 471.015C157.914 469.737 156.634 468.973 155.768 467.927C154.459 466.347 154.154 464.198 153.916 462.157C153.685 460.123 153.439 457.978 152.229 456.323C151.02 454.668 148.477 453.802 146.869 455.081" fill="#D8D86E"/>
<path d="M146.878 464.59C146.603 469.984 146.321 475.385 146.031 480.778C145.742 486.172 145.465 491.595 145.182 497.011C145.028 500.033 144.865 503.063 144.711 506.086C144.697 506.43 145.223 506.463 145.238 506.119C145.511 500.739 145.792 495.368 146.073 489.996C146.353 484.624 146.64 479.165 146.923 473.749C147.078 470.712 147.241 467.668 147.396 464.63C147.411 464.286 146.884 464.253 146.87 464.597L146.878 464.59Z" fill="#6E3B46"/>
<path d="M144.574 468.982C145.162 470.371 145.772 471.753 146.367 473.134C146.502 473.444 146.978 473.217 146.852 472.9C146.264 471.512 145.654 470.13 145.059 468.749C144.924 468.439 144.448 468.666 144.574 468.982Z" fill="#6E3B46"/>
<path d="M146.371 485.161C149.04 483.817 150.851 481.281 151.611 478.429C151.698 478.104 151.196 477.925 151.108 478.265C150.379 480.98 148.684 483.398 146.137 484.677C145.834 484.834 146.061 485.311 146.371 485.161Z" fill="#6E3B46"/>
<path d="M288 141H280V151H288V141Z" fill="#4F83C2"/>
<path d="M111.857 337.857H109.143V335.143C109.143 334.511 108.632 334 108 334C107.368 334 106.857 334.511 106.857 335.143V337.857H104.143C103.511 337.857 103 338.368 103 339C103 339.632 103.511 340.143 104.143 340.143H106.857V342.857C106.857 343.489 107.368 344 108 344C108.632 344 109.143 343.489 109.143 342.857V340.143H111.857C112.489 340.143 113 339.632 113 339C113 338.368 112.489 337.857 111.857 337.857Z" fill="white"/>
<path d="M72.7653 349H70.0213V365.443H72.7653V349Z" fill="#4F83C2"/>
<path d="M79.8665 349H77.128V365.443H79.8665V349Z" fill="#4F83C2"/>
<path d="M86.9731 349H84.2291V365.443H86.9731V349Z" fill="#4F83C2"/>
<path d="M72.7653 376.557H70.0213V393H72.7653V376.557Z" fill="#4F83C2"/>
<path d="M79.8665 376.557H77.128V393H79.8665V376.557Z" fill="#4F83C2"/>
<path d="M86.9731 376.557H84.2291V393H86.9731V376.557Z" fill="#4F83C2"/>
<path d="M69.4781 354.729H87.5219C91.6462 354.729 95 358.031 95 362.103V379.897C95 383.964 91.6518 387.271 87.5219 387.271H69.4781C65.3538 387.271 62 383.969 62 379.897V362.103C62 358.036 65.3482 354.729 69.4781 354.729Z" fill="#4E4553"/>
<path d="M92.1895 356.385L64.4724 385.341C65.7972 386.528 67.5434 387.271 69.4781 387.271H87.5219C91.6518 387.271 95 383.969 95 379.897V362.103C95 359.78 93.8913 357.735 92.1895 356.385Z" fill="#00B4E8"/>
<path d="M69.4781 354.729H87.5219C91.6462 354.729 95 358.031 95 362.103V379.897C95 383.964 91.6518 387.271 87.5219 387.271H69.4781C65.3538 387.271 62 383.969 62 379.897V362.103C62 358.036 65.3482 354.729 69.4781 354.729Z" fill="#4F83C2"/>
<path d="M92.1895 356.385L64.4724 385.341C65.7972 386.528 67.5434 387.271 69.4781 387.271H87.5219C91.6518 387.271 95 383.969 95 379.897V362.103C95 359.78 93.8913 357.735 92.1895 356.385Z" fill="#A7CEED"/>
<path d="M317.119 165.991H305.647C302.528 165.991 300 163.298 300 159.995C300 156.693 302.528 154 305.647 154C306.275 154 306.796 154.544 306.796 155.22C306.796 155.895 306.275 156.439 305.647 156.439C303.8 156.439 302.298 158.034 302.298 159.986C302.298 161.937 303.8 163.532 305.647 163.532H317.11C318.957 163.532 320.45 161.937 320.45 159.986C320.45 159.31 320.963 158.766 321.599 158.766C322.236 158.766 322.748 159.31 322.748 159.986C322.748 163.289 320.221 165.981 317.101 165.981L317.119 165.991Z" fill="#4F83C2"/>
<path d="M327.344 165.991H323.314C322.678 165.991 322.165 165.446 322.165 164.771C322.165 164.095 322.678 163.551 323.314 163.551H327.344C329.191 163.551 330.685 161.956 330.685 160.005C330.685 158.053 329.182 156.458 327.344 156.458H315.873C314.025 156.458 312.532 158.053 312.532 160.005C312.532 160.68 312.019 161.224 311.383 161.224C310.747 161.224 310.234 160.68 310.234 160.005C310.234 156.702 312.762 154.009 315.881 154.009H327.353C330.472 154.009 333 156.702 333 160.005C333 163.307 330.472 166 327.353 166L327.344 165.991Z" fill="#4F83C2"/>
<path d="M556.871 404.693C554.029 412.504 559.97 414.632 562.035 415.133C565.265 415.915 568.9 415.872 571.638 414.024C574.372 412.179 575.724 408.225 573.921 405.497C573.532 404.905 573.018 404.398 572.635 403.798C571.191 401.554 571.802 398.536 570.621 396.146C569.313 393.498 565.665 392.243 562.95 393.508C560.079 394.846 558.872 398.15 557.944 401.124C557.303 403.171 556.658 405.223 556.017 407.271" fill="#90B249"/>
<path d="M564.157 401.855C564.031 404.157 563.908 406.455 563.782 408.757C563.656 411.059 563.533 413.357 563.407 415.659C563.334 416.966 563.265 418.27 563.192 419.577C563.184 419.727 563.353 419.844 563.495 419.835C563.666 419.823 563.75 419.689 563.758 419.539C563.884 417.237 564.007 414.939 564.133 412.637C564.259 410.335 564.382 408.036 564.508 405.734C564.581 404.427 564.65 403.124 564.723 401.817C564.731 401.666 564.562 401.55 564.42 401.559C564.249 401.571 564.165 401.704 564.157 401.855Z" fill="#6E3B46"/>
<path d="M561.59 404.54C561.846 405.895 562.714 407.073 563.964 407.721C564.286 407.886 564.531 407.39 564.205 407.222C563.153 406.674 562.368 405.655 562.156 404.502C562.127 404.354 562.017 404.234 561.854 404.245C561.712 404.254 561.561 404.392 561.59 404.54Z" fill="#6E3B46"/>
<path d="M566.947 409.32C566.435 410.807 565.285 412.051 563.798 412.652C563.46 412.788 563.642 413.313 563.981 413.177C565.602 412.52 566.899 411.189 567.458 409.556C567.507 409.414 567.474 409.255 567.323 409.189C567.2 409.131 566.993 409.174 566.947 409.32Z" fill="#6E3B46"/>
<path d="M247.432 440.997C246.677 441.719 245.694 442.152 244.841 442.76C243.112 443.991 241.94 446.044 242.002 448.155C242.066 450.265 243.478 452.336 245.508 452.971C247.686 453.654 250.012 452.697 252.294 452.612C256.747 452.448 260.954 455.615 265.349 454.893C268.438 454.386 271.038 452.014 274.163 451.812C276.136 451.685 278.067 452.449 280.044 452.486C283.214 452.544 286.322 450.534 287.546 447.631C288.097 446.324 288.25 444.716 287.414 443.567C286.726 442.619 285.526 442.182 284.685 441.365C283.221 439.94 283.106 437.692 282.733 435.689C282.36 433.689 281.237 431.418 279.195 431.232C277.103 431.042 275.2 433.217 273.174 432.66C271.978 432.331 271.256 431.171 270.4 430.28C268.205 427.994 264.474 427.334 261.619 428.725C258.285 430.351 258.28 434.148 252.088 433.818C245.896 433.488 248.854 439.641 247.435 441L247.432 440.997Z" fill="#8BB546"/>
<path d="M263.548 436.686C263.637 438.273 263.726 439.86 263.813 441.45C263.901 443.039 263.988 444.607 264.077 446.187L264.226 448.865C264.237 449.064 264.448 449.234 264.647 449.207C264.86 449.176 265.003 449.004 264.991 448.79C264.903 447.203 264.814 445.616 264.727 444.026C264.639 442.447 264.552 440.869 264.463 439.288C264.414 438.395 264.365 437.504 264.313 436.611C264.303 436.411 264.092 436.241 263.893 436.269C263.68 436.299 263.537 436.471 263.548 436.686Z" fill="#6E3B46"/>
<path d="M258.577 440.341C258.889 441.169 259.455 441.899 260.158 442.441C260.86 442.981 261.704 443.351 262.585 443.482C263.077 443.556 263.587 443.555 264.078 443.468C264.18 443.449 264.273 443.409 264.339 443.326C264.397 443.255 264.436 443.143 264.422 443.05C264.395 442.859 264.215 442.671 264.002 442.708C263.82 442.74 263.637 442.762 263.453 442.77C263.361 442.774 263.27 442.775 263.177 442.773C263.166 442.773 263.153 442.774 263.141 442.772C263.141 442.772 263.245 442.776 263.186 442.772C263.165 442.771 263.143 442.771 263.122 442.77C263.077 442.767 263.031 442.765 262.985 442.76C262.8 442.744 262.619 442.719 262.438 442.679C262.348 442.66 262.258 442.639 262.17 442.613C262.145 442.607 262.122 442.6 262.1 442.594C262.04 442.577 262.196 442.623 262.114 442.597C262.071 442.582 262.025 442.569 261.982 442.554C261.807 442.495 261.635 442.425 261.469 442.347C261.385 442.309 261.304 442.266 261.222 442.222C261.182 442.2 261.14 442.178 261.102 442.155C261.085 442.144 261.065 442.134 261.047 442.123C261.027 442.111 260.988 442.086 261.085 442.144C261.073 442.138 261.064 442.132 261.053 442.125C260.739 441.931 260.447 441.701 260.188 441.442C260.18 441.433 260.17 441.424 260.162 441.416C260.119 441.373 260.218 441.474 260.186 441.442C260.17 441.424 260.152 441.407 260.136 441.388C260.101 441.351 260.066 441.311 260.031 441.273C259.963 441.195 259.898 441.114 259.835 441.032C259.711 440.867 259.596 440.691 259.497 440.51L259.547 440.599C259.453 440.427 259.371 440.25 259.302 440.066C259.233 439.882 258.996 439.764 258.807 439.848C258.619 439.931 258.512 440.14 258.587 440.339L258.577 440.341Z" fill="#6E3B46"/>
<path d="M264.865 445.609C266.065 445.966 267.36 446.016 268.591 445.796C269.858 445.571 271.072 445.079 272.121 444.339C272.703 443.929 273.235 443.438 273.686 442.887C273.813 442.732 273.793 442.472 273.626 442.352C273.459 442.232 273.222 442.247 273.087 442.411C272.964 442.56 272.838 442.706 272.702 442.844C272.637 442.913 272.569 442.979 272.501 443.045C272.455 443.089 272.568 442.982 272.509 443.038C272.493 443.053 272.476 443.068 272.458 443.084C272.42 443.118 272.381 443.155 272.343 443.19C272.057 443.443 271.751 443.677 271.43 443.886C271.247 444.007 271.059 444.118 270.865 444.223L270.955 444.173C270.303 444.527 269.603 444.794 268.88 444.966L268.981 444.943C268.455 445.066 267.92 445.142 267.382 445.162C267.25 445.168 267.119 445.169 266.989 445.168C266.955 445.167 266.924 445.166 266.89 445.166C266.877 445.166 266.863 445.165 266.852 445.165C266.775 445.163 266.949 445.168 266.872 445.166C266.806 445.162 266.741 445.161 266.677 445.157C266.409 445.139 266.141 445.109 265.876 445.064C265.578 445.014 265.283 444.945 264.993 444.858C264.905 444.832 264.773 444.876 264.703 444.927C264.629 444.982 264.564 445.08 264.553 445.173C264.541 445.273 264.558 445.381 264.622 445.461C264.687 445.54 264.767 445.58 264.87 445.61L264.865 445.609Z" fill="#6E3B46"/>
<path d="M270.049 442.945C270.076 443.453 270.105 443.96 270.132 444.468C270.143 444.667 270.354 444.837 270.553 444.81C270.766 444.779 270.909 444.607 270.897 444.393C270.87 443.885 270.841 443.378 270.814 442.87C270.803 442.67 270.592 442.501 270.393 442.528C270.18 442.559 270.037 442.731 270.049 442.945Z" fill="#6E3B46"/>
<path d="M260.735 442.433C260.091 442.838 259.448 443.245 258.805 443.651C258.634 443.758 258.6 444.032 258.724 444.184C258.863 444.354 259.078 444.379 259.261 444.264C259.905 443.859 260.548 443.452 261.191 443.047C261.362 442.94 261.396 442.665 261.272 442.513C261.133 442.343 260.918 442.319 260.735 442.433Z" fill="#6E3B46"/>
<path d="M264.108 439.592C265.243 439.615 266.377 438.954 266.963 437.999C267.15 437.698 267.285 437.385 267.368 437.041C267.415 436.846 267.246 436.627 267.052 436.604C266.832 436.577 266.661 436.711 266.611 436.918C266.602 436.957 266.592 436.994 266.582 437.031C266.571 437.068 266.599 436.973 266.598 436.981C266.594 436.989 266.593 436.998 266.59 437.006C266.584 437.026 266.576 437.046 266.57 437.064C266.545 437.138 266.517 437.209 266.484 437.281C266.452 437.353 266.418 437.421 266.38 437.489C266.371 437.506 266.363 437.52 266.354 437.537C266.346 437.551 266.305 437.617 266.343 437.556C266.382 437.495 266.343 437.556 266.337 437.567C266.326 437.585 266.315 437.602 266.304 437.62C266.217 437.748 266.12 437.872 266.015 437.987C265.988 438.015 265.961 438.043 265.934 438.071C265.922 438.085 265.908 438.096 265.896 438.11C265.867 438.139 265.941 438.066 265.935 438.073C265.926 438.085 265.912 438.095 265.902 438.103C265.844 438.156 265.783 438.206 265.724 438.255C265.585 438.366 265.437 438.463 265.281 438.549L265.371 438.499C265.138 438.625 264.89 438.72 264.632 438.781L264.733 438.758C264.504 438.812 264.27 438.837 264.034 438.832C263.942 438.83 263.828 438.904 263.773 438.974C263.717 439.044 263.676 439.157 263.69 439.249C263.703 439.348 263.749 439.448 263.833 439.509C263.917 439.57 264.005 439.59 264.11 439.591L264.108 439.592Z" fill="#6E3B46"/>
</g>
<defs>
<clipPath id="clip0_4130_2230">
<rect width="94" height="93" fill="white" transform="translate(360 267)"/>
</clipPath>
</defs>
</svg>
