<svg width="583" height="190" viewBox="0 0 583 190" fill="none" xmlns="http://www.w3.org/2000/svg">
<rect width="583" height="153" rx="51" fill="white"/>
<path d="M147.197 70.4616H141.658C141.445 69.2779 141.048 68.2363 140.468 67.3366C139.888 66.437 139.178 65.6735 138.337 65.0462C137.497 64.4188 136.556 63.9453 135.514 63.6257C134.484 63.3061 133.389 63.1463 132.229 63.1463C130.134 63.1463 128.258 63.6731 126.601 64.7266C124.955 65.7801 123.653 67.3248 122.695 69.3608C121.748 71.3968 121.274 73.8826 121.274 76.8182C121.274 79.7775 121.748 82.2751 122.695 84.3111C123.653 86.3471 124.961 87.8859 126.619 88.9276C128.276 89.9692 130.14 90.4901 132.212 90.4901C133.36 90.4901 134.449 90.3362 135.479 90.0284C136.52 89.7088 137.461 89.2412 138.302 88.6257C139.142 88.0102 139.853 87.2585 140.433 86.3707C141.024 85.4711 141.433 84.4413 141.658 83.2812L147.197 83.299C146.902 85.0864 146.327 86.7318 145.475 88.2351C144.635 89.7266 143.552 91.0168 142.226 92.1058C140.912 93.183 139.409 94.0175 137.716 94.6094C136.023 95.2012 134.177 95.4972 132.176 95.4972C129.027 95.4972 126.222 94.7514 123.76 93.2599C121.298 91.7566 119.357 89.6082 117.936 86.8146C116.527 84.0211 115.823 80.6889 115.823 76.8182C115.823 72.9356 116.533 69.6035 117.954 66.8217C119.374 64.0282 121.316 61.8857 123.778 60.3942C126.24 58.8909 129.039 58.1392 132.176 58.1392C134.106 58.1392 135.905 58.4174 137.574 58.9737C139.255 59.5182 140.764 60.3232 142.102 61.3885C143.439 62.442 144.546 63.7322 145.422 65.2592C146.298 66.7744 146.89 68.5085 147.197 70.4616ZM164.824 95.5504C162.268 95.5504 160.036 94.9645 158.131 93.7926C156.225 92.6207 154.745 90.9813 153.692 88.8743C152.638 86.7673 152.111 84.3052 152.111 81.4879C152.111 78.6589 152.638 76.1849 153.692 74.0661C154.745 71.9472 156.225 70.3018 158.131 69.13C160.036 67.9581 162.268 67.3722 164.824 67.3722C167.381 67.3722 169.613 67.9581 171.518 69.13C173.424 70.3018 174.904 71.9472 175.957 74.0661C177.011 76.1849 177.537 78.6589 177.537 81.4879C177.537 84.3052 177.011 86.7673 175.957 88.8743C174.904 90.9813 173.424 92.6207 171.518 93.7926C169.613 94.9645 167.381 95.5504 164.824 95.5504ZM164.842 91.0938C166.499 91.0938 167.872 90.6558 168.961 89.7798C170.05 88.9039 170.855 87.7379 171.376 86.282C171.909 84.826 172.175 83.2221 172.175 81.4702C172.175 79.7301 171.909 78.1321 171.376 76.6761C170.855 75.2083 170.05 74.0305 168.961 73.1428C167.872 72.255 166.499 71.8111 164.842 71.8111C163.173 71.8111 161.788 72.255 160.687 73.1428C159.598 74.0305 158.787 75.2083 158.255 76.6761C157.734 78.1321 157.474 79.7301 157.474 81.4702C157.474 83.2221 157.734 84.826 158.255 86.282C158.787 87.7379 159.598 88.9039 160.687 89.7798C161.788 90.6558 163.173 91.0938 164.842 91.0938ZM183.463 95V67.7273H188.559V72.1662H188.897C189.465 70.6629 190.394 69.491 191.684 68.6506C192.975 67.7983 194.519 67.3722 196.319 67.3722C198.141 67.3722 199.668 67.7983 200.9 68.6506C202.142 69.5028 203.06 70.6747 203.652 72.1662H203.936C204.587 70.7102 205.623 69.5502 207.043 68.6861C208.463 67.8101 210.156 67.3722 212.121 67.3722C214.595 67.3722 216.613 68.1475 218.176 69.6982C219.75 71.2488 220.537 73.5866 220.537 76.7116V95H215.228V77.2088C215.228 75.3622 214.725 74.0246 213.719 73.196C212.713 72.3674 211.511 71.9531 210.115 71.9531C208.386 71.9531 207.043 72.4858 206.084 73.5511C205.125 74.6046 204.646 75.96 204.646 77.6172V95H199.355V76.8714C199.355 75.3918 198.893 74.2022 197.97 73.3026C197.047 72.4029 195.845 71.9531 194.365 71.9531C193.359 71.9531 192.43 72.2195 191.578 72.7521C190.737 73.273 190.057 74.0009 189.536 74.9361C189.027 75.8712 188.772 76.9543 188.772 78.1854V95H183.463ZM227.653 95V67.7273H232.962V95H227.653ZM230.334 63.5192C229.411 63.5192 228.618 63.2114 227.955 62.5959C227.304 61.9685 226.978 61.2228 226.978 60.3587C226.978 59.4827 227.304 58.737 227.955 58.1214C228.618 57.4941 229.411 57.1804 230.334 57.1804C231.257 57.1804 232.044 57.4941 232.695 58.1214C233.358 58.737 233.69 59.4827 233.69 60.3587C233.69 61.2228 233.358 61.9685 232.695 62.5959C232.044 63.2114 231.257 63.5192 230.334 63.5192ZM245.413 78.8068V95H240.104V67.7273H245.2V72.1662H245.537C246.165 70.7221 247.147 69.562 248.485 68.6861C249.834 67.8101 251.533 67.3722 253.581 67.3722C255.439 67.3722 257.067 67.7628 258.463 68.544C259.86 69.3134 260.943 70.4616 261.713 71.9886C262.482 73.5156 262.867 75.4036 262.867 77.6527V95H257.558V78.2919C257.558 76.3151 257.043 74.7704 256.013 73.6577C254.983 72.5331 253.569 71.9709 251.77 71.9709C250.538 71.9709 249.444 72.2372 248.485 72.7699C247.538 73.3026 246.786 74.0838 246.23 75.1136C245.685 76.1316 245.413 77.3627 245.413 78.8068ZM281.422 105.795C279.255 105.795 277.391 105.511 275.828 104.943C274.278 104.375 273.011 103.623 272.029 102.688C271.046 101.753 270.312 100.729 269.827 99.6165L274.39 97.7344C274.71 98.2552 275.136 98.8056 275.669 99.3857C276.213 99.9775 276.947 100.481 277.87 100.895C278.806 101.309 280.007 101.516 281.475 101.516C283.487 101.516 285.15 101.025 286.464 100.043C287.778 99.072 288.435 97.5213 288.435 95.3906V90.0284H288.098C287.778 90.6084 287.316 91.2536 286.713 91.9638C286.121 92.674 285.304 93.2895 284.262 93.8104C283.221 94.3312 281.865 94.5916 280.196 94.5916C278.042 94.5916 276.101 94.0885 274.373 93.0824C272.656 92.0644 271.295 90.567 270.289 88.5902C269.294 86.6016 268.797 84.1572 268.797 81.2571C268.797 78.357 269.288 75.8712 270.271 73.7997C271.265 71.7282 272.627 70.142 274.355 69.0412C276.083 67.9285 278.042 67.3722 280.232 67.3722C281.925 67.3722 283.292 67.6562 284.333 68.2244C285.375 68.7808 286.186 69.4318 286.766 70.1776C287.358 70.9233 287.814 71.5803 288.133 72.1484H288.524V67.7273H293.726V95.6037C293.726 97.9474 293.182 99.871 292.093 101.374C291.004 102.878 289.53 103.99 287.672 104.712C285.825 105.434 283.742 105.795 281.422 105.795ZM281.368 90.1882C282.895 90.1882 284.185 89.8331 285.239 89.1229C286.304 88.4008 287.109 87.371 287.654 86.0334C288.21 84.6839 288.488 83.0682 288.488 81.1861C288.488 79.3513 288.216 77.7356 287.672 76.3388C287.127 74.942 286.328 73.853 285.275 73.0717C284.221 72.2786 282.919 71.8821 281.368 71.8821C279.77 71.8821 278.439 72.2964 277.373 73.125C276.308 73.9418 275.503 75.0544 274.958 76.4631C274.426 77.8717 274.159 79.446 274.159 81.1861C274.159 82.9735 274.432 84.5419 274.976 85.8913C275.521 87.2408 276.326 88.2943 277.391 89.0518C278.468 89.8094 279.794 90.1882 281.368 90.1882ZM334.515 74.3857L329.704 75.2379C329.502 74.6224 329.183 74.0365 328.745 73.4801C328.319 72.9238 327.739 72.468 327.005 72.1129C326.271 71.7578 325.354 71.5803 324.253 71.5803C322.749 71.5803 321.495 71.9176 320.488 72.5923C319.482 73.2552 318.979 74.1134 318.979 75.1669C318.979 76.0784 319.317 76.8123 319.991 77.3686C320.666 77.925 321.755 78.3807 323.258 78.7358L327.591 79.7301C330.1 80.3101 331.97 81.2038 333.202 82.4112C334.433 83.6186 335.048 85.187 335.048 87.1165C335.048 88.75 334.575 90.206 333.628 91.4844C332.693 92.7509 331.385 93.7453 329.704 94.4673C328.035 95.1894 326.099 95.5504 323.898 95.5504C320.844 95.5504 318.352 94.8994 316.422 93.5973C314.493 92.2834 313.309 90.419 312.871 88.0043L318.003 87.223C318.322 88.5606 318.979 89.5727 319.974 90.2592C320.968 90.9339 322.264 91.2713 323.862 91.2713C325.602 91.2713 326.993 90.9103 328.035 90.1882C329.076 89.4543 329.597 88.5606 329.597 87.5071C329.597 86.6548 329.278 85.9387 328.638 85.3587C328.011 84.7786 327.046 84.3407 325.744 84.0447L321.128 83.0327C318.583 82.4527 316.701 81.5294 315.481 80.2628C314.274 78.9962 313.67 77.3923 313.67 75.451C313.67 73.8411 314.12 72.4325 315.02 71.2251C315.919 70.0178 317.162 69.0767 318.748 68.402C320.335 67.7154 322.152 67.3722 324.199 67.3722C327.147 67.3722 329.467 68.0114 331.16 69.2898C332.852 70.5563 333.971 72.255 334.515 74.3857ZM352.373 95.5504C349.816 95.5504 347.585 94.9645 345.679 93.7926C343.774 92.6207 342.294 90.9813 341.24 88.8743C340.187 86.7673 339.66 84.3052 339.66 81.4879C339.66 78.6589 340.187 76.1849 341.24 74.0661C342.294 71.9472 343.774 70.3018 345.679 69.13C347.585 67.9581 349.816 67.3722 352.373 67.3722C354.93 67.3722 357.161 67.9581 359.067 69.13C360.973 70.3018 362.453 71.9472 363.506 74.0661C364.56 76.1849 365.086 78.6589 365.086 81.4879C365.086 84.3052 364.56 86.7673 363.506 88.8743C362.453 90.9813 360.973 92.6207 359.067 93.7926C357.161 94.9645 354.93 95.5504 352.373 95.5504ZM352.391 91.0938C354.048 91.0938 355.421 90.6558 356.51 89.7798C357.599 88.9039 358.404 87.7379 358.925 86.282C359.458 84.826 359.724 83.2221 359.724 81.4702C359.724 79.7301 359.458 78.1321 358.925 76.6761C358.404 75.2083 357.599 74.0305 356.51 73.1428C355.421 72.255 354.048 71.8111 352.391 71.8111C350.722 71.8111 349.337 72.255 348.236 73.1428C347.147 74.0305 346.336 75.2083 345.804 76.6761C345.283 78.1321 345.022 79.7301 345.022 81.4702C345.022 83.2221 345.283 84.826 345.804 86.282C346.336 87.7379 347.147 88.9039 348.236 89.7798C349.337 90.6558 350.722 91.0938 352.391 91.0938ZM382.5 95.5504C379.943 95.5504 377.712 94.9645 375.806 93.7926C373.901 92.6207 372.421 90.9813 371.367 88.8743C370.314 86.7673 369.787 84.3052 369.787 81.4879C369.787 78.6589 370.314 76.1849 371.367 74.0661C372.421 71.9472 373.901 70.3018 375.806 69.13C377.712 67.9581 379.943 67.3722 382.5 67.3722C385.057 67.3722 387.288 67.9581 389.194 69.13C391.1 70.3018 392.579 71.9472 393.633 74.0661C394.686 76.1849 395.213 78.6589 395.213 81.4879C395.213 84.3052 394.686 86.7673 393.633 88.8743C392.579 90.9813 391.1 92.6207 389.194 93.7926C387.288 94.9645 385.057 95.5504 382.5 95.5504ZM382.518 91.0938C384.175 91.0938 385.548 90.6558 386.637 89.7798C387.726 88.9039 388.531 87.7379 389.052 86.282C389.585 84.826 389.851 83.2221 389.851 81.4702C389.851 79.7301 389.585 78.1321 389.052 76.6761C388.531 75.2083 387.726 74.0305 386.637 73.1428C385.548 72.255 384.175 71.8111 382.518 71.8111C380.849 71.8111 379.464 72.255 378.363 73.1428C377.274 74.0305 376.463 75.2083 375.931 76.6761C375.41 78.1321 375.149 79.7301 375.149 81.4702C375.149 83.2221 375.41 84.826 375.931 86.282C376.463 87.7379 377.274 88.9039 378.363 89.7798C379.464 90.6558 380.849 91.0938 382.518 91.0938ZM406.448 78.8068V95H401.139V67.7273H406.235V72.1662H406.572C407.2 70.7221 408.182 69.562 409.52 68.6861C410.869 67.8101 412.568 67.3722 414.616 67.3722C416.474 67.3722 418.102 67.7628 419.499 68.544C420.895 69.3134 421.978 70.4616 422.748 71.9886C423.517 73.5156 423.902 75.4036 423.902 77.6527V95H418.593V78.2919C418.593 76.3151 418.078 74.7704 417.048 73.6577C416.018 72.5331 414.604 71.9709 412.805 71.9709C411.574 71.9709 410.479 72.2372 409.52 72.7699C408.573 73.3026 407.821 74.0838 407.265 75.1136C406.72 76.1316 406.448 77.3627 406.448 78.8068ZM434.52 95.3374C433.549 95.3374 432.715 94.9941 432.016 94.3075C431.318 93.6091 430.969 92.7687 430.969 91.7862C430.969 90.8156 431.318 89.987 432.016 89.3004C432.715 88.602 433.549 88.2528 434.52 88.2528C435.491 88.2528 436.325 88.602 437.023 89.3004C437.722 89.987 438.071 90.8156 438.071 91.7862C438.071 92.4373 437.905 93.035 437.574 93.5795C437.254 94.1122 436.828 94.5384 436.295 94.858C435.763 95.1776 435.171 95.3374 434.52 95.3374ZM448.68 95.3374C447.709 95.3374 446.875 94.9941 446.176 94.3075C445.478 93.6091 445.129 92.7687 445.129 91.7862C445.129 90.8156 445.478 89.987 446.176 89.3004C446.875 88.602 447.709 88.2528 448.68 88.2528C449.651 88.2528 450.485 88.602 451.184 89.3004C451.882 89.987 452.231 90.8156 452.231 91.7862C452.231 92.4373 452.065 93.035 451.734 93.5795C451.414 94.1122 450.988 94.5384 450.456 94.858C449.923 95.1776 449.331 95.3374 448.68 95.3374ZM462.84 95.3374C461.87 95.3374 461.035 94.9941 460.337 94.3075C459.638 93.6091 459.289 92.7687 459.289 91.7862C459.289 90.8156 459.638 89.987 460.337 89.3004C461.035 88.602 461.87 88.2528 462.84 88.2528C463.811 88.2528 464.645 88.602 465.344 89.3004C466.042 89.987 466.391 90.8156 466.391 91.7862C466.391 92.4373 466.226 93.035 465.894 93.5795C465.575 94.1122 465.148 94.5384 464.616 94.858C464.083 95.1776 463.491 95.3374 462.84 95.3374Z" fill="#0E8347"/>
<path d="M279 127L376 189.957L376 149.397" fill="white"/>
</svg>
