<svg width="403" height="80" viewBox="0 0 403 80" fill="none" xmlns="http://www.w3.org/2000/svg">
<path d="M3.68856 41.6057C3.68856 38.8747 5.14747 37.4247 7.89627 37.4247H22.8768C25.6345 37.4247 27.0845 38.8658 27.0845 41.6057C27.0845 44.3456 25.6256 45.8668 22.8768 45.8668H7.89627C5.13857 45.8668 3.68856 44.3901 3.68856 41.6057ZM26.9244 70.9618C28.6769 66.425 29.9312 60.8295 30.6606 54.2911C31.23 49.2294 31.5146 42.7621 31.5146 35.0762V9.02033C31.5146 7.26786 32.0751 5.81785 33.187 4.71477C34.299 3.61169 35.7579 3.06016 37.5282 3.06016H71.9372C73.7074 3.06016 75.1664 3.62058 76.2694 4.71477C77.3814 5.81785 77.9418 7.26786 77.9418 9.02033V68.3465C77.9418 70.9885 77.675 73.0434 77.1412 74.449C76.5986 76.0591 75.5489 77.3135 74.0277 78.1586C72.4442 79.146 69.989 79.742 66.7331 79.911C66.573 79.911 66.4129 79.911 66.2527 79.911C62.3208 79.911 59.9456 78.4877 59.1806 75.6766C58.6557 73.7996 58.807 72.314 59.6343 71.2554C60.6484 69.9566 62.5788 69.3606 65.5322 69.4229H66.6353C67.3203 69.4229 67.5071 69.2805 67.5427 69.236C67.5871 69.1827 67.7295 68.9692 67.7295 68.2575V14.1087C67.7295 12.9968 67.2491 12.5164 66.1193 12.5164H43.177C42.0473 12.5164 41.5669 12.9968 41.5669 14.1087V35.0762C41.5669 51.9159 39.8322 65.2151 36.4073 74.6091C35.5978 76.4594 34.3969 77.5625 32.8312 77.9095C31.2744 78.2475 29.6198 77.7493 27.9296 76.4239C27.2535 76.0502 26.7287 75.7567 26.3818 75.5877H9.43525C7.66498 75.5877 6.20607 75.0272 5.09409 73.9331C3.98212 72.83 3.42168 71.3799 3.42168 69.6275V55.1095C3.42168 53.357 3.98212 51.907 5.09409 50.8039C6.20607 49.7009 7.66498 49.1493 9.43525 49.1493H20.9019C22.6722 49.1493 24.1311 49.7097 25.2342 50.8039C26.3462 51.907 26.9066 53.3481 26.9066 55.1095V70.9707L26.9244 70.9618ZM13.723 66.7986H17.9841V59.5218C17.9841 58.4099 17.5037 57.9295 16.374 57.9295H13.723C12.5933 57.9295 12.1129 58.4099 12.1129 59.5218V65.2063C12.1129 66.3182 12.5933 66.7986 13.723 66.7986ZM63.8598 44.3545C64.8561 45.3419 65.3632 46.6496 65.3632 48.2331V60.2869C65.3632 62.0393 64.8027 63.4894 63.6908 64.5925C62.5788 65.6955 61.1199 66.2471 59.3496 66.2471H49.6799C47.9096 66.2471 46.4507 65.6866 45.3476 64.5925C44.2356 63.4894 43.6752 62.0393 43.6752 60.2869V48.8291C43.6752 47.0766 44.2356 45.6266 45.3476 44.5235C46.4596 43.4204 47.9185 42.8689 49.6799 42.8689H59.9545C61.5558 42.8689 62.8635 43.367 63.8598 44.3545ZM53.2738 51.053C52.144 51.053 51.6636 51.5334 51.6636 52.6454V56.5506C51.6636 57.6626 52.144 58.143 53.2738 58.143H55.5867C56.7165 58.143 57.1968 57.6626 57.1968 56.5506V52.3073C57.1968 51.4177 56.8321 51.053 55.9336 51.053H53.2738ZM4.72937 14.002C1.80265 14.002 0.263672 15.5321 0.263672 18.4321C0.263672 21.3321 1.81154 22.8622 4.72937 22.8622H24.5937C27.5204 22.8622 29.0594 21.3321 29.0594 18.4321C29.0594 15.5321 27.5115 14.002 24.5937 14.002H4.72937ZM8.49229 2.62425C5.68122 2.62425 4.19562 4.10096 4.19562 6.88534C4.19562 9.66973 5.68122 11.1464 8.49229 11.1464H22.5299C25.3409 11.1464 26.8265 9.66973 26.8265 6.88534C26.8265 4.10096 25.3409 2.62425 22.5299 2.62425H8.49229ZM47.2691 31.1442C44.5737 31.1442 43.1415 32.5586 43.1415 35.2363C43.1415 37.9139 44.5648 39.4173 47.2691 39.4173H61.9116C64.607 39.4173 66.0393 37.9762 66.0393 35.2363C66.0393 32.4964 64.6159 31.1442 61.9116 31.1442H58.7625V26.2604H61.3156C64.011 26.2604 65.4432 24.846 65.4432 22.1683C65.4432 19.4907 64.0199 18.0763 61.3156 18.0763H58.7625V16.9109C58.7625 14.0642 57.2502 12.5609 54.3769 12.5609C51.5035 12.5609 49.9912 14.0642 49.9912 16.9109V18.0763H47.6071C44.9117 18.0763 43.4795 19.4907 43.4795 22.1683C43.4795 24.846 44.9028 26.2604 47.6071 26.2604H49.9912V31.1442H47.2691ZM7.97634 34.409H22.7879C25.5989 34.409 27.0845 32.9056 27.0845 30.0589C27.0845 27.2123 25.5989 25.7978 22.7879 25.7978H7.98523C5.17416 25.7978 3.68856 27.2745 3.68856 30.0589C3.68856 32.8433 5.17416 34.409 7.98523 34.409H7.97634ZM92.4776 30.9218C99.1672 27.9506 105.127 23.9831 110.207 19.1349H92.9846C89.8355 19.1349 88.172 17.4536 88.172 14.2778C88.172 11.102 89.8355 9.50071 92.9846 9.50071H120.615V5.36417C120.615 1.85033 122.483 0 126.024 0C129.564 0 131.432 1.85922 131.432 5.36417V9.50071H159.748C162.897 9.50071 164.56 11.1553 164.56 14.2778C164.56 17.4002 162.897 19.1349 159.748 19.1349H141.636C146.609 23.5472 152.64 27.2568 159.57 30.1657C161.972 31.0019 163.422 32.016 164 33.2792C164.64 34.6225 164.196 36.2682 162.657 38.1541C160.762 40.5204 158.226 41.0808 155.122 39.8176C153.725 39.2216 152.32 38.5455 150.941 37.7894V59.0148C150.941 60.7672 150.38 62.2173 149.268 63.3203C148.156 64.4234 146.698 64.975 144.936 64.975H107.013C105.243 64.975 103.784 64.4145 102.672 63.3203C101.56 62.2173 101 60.7672 101 59.0148V38.4032C100.012 38.9636 98.7047 39.6575 97.0145 40.4848C93.9988 41.7658 91.5524 41.2321 89.711 38.9191C88.2432 37.0421 87.7628 35.4053 88.2699 34.0709C88.7858 32.8522 90.1558 31.8292 92.4598 30.9307L92.4776 30.9218ZM111.915 53.9353V55.9546C111.915 57.0132 112.369 57.458 113.436 57.458H137.837C138.967 57.458 139.447 56.9776 139.447 55.8656V53.9353H111.915ZM111.915 43.4115V46.6763H139.447V43.4115H111.915ZM120.615 28.9647V22.2929C116.14 27.5236 110.936 32.0961 105.119 35.9035H147.721C141.556 32.0783 136.085 27.4969 131.441 22.2573V28.9647C131.441 32.4786 129.573 34.3289 126.033 34.3289C122.492 34.3289 120.624 32.4697 120.624 28.9647H120.615ZM163.795 72.9278C163.795 69.752 162.105 68.0707 158.903 68.0707H93.6696C90.4671 68.0707 88.7769 69.752 88.7769 72.9278C88.7769 76.1036 90.4671 77.7849 93.6696 77.7849H158.903C162.105 77.7849 163.795 76.1036 163.795 72.9278ZM212.26 67.4391C206.611 71.7713 200.063 73.9686 192.796 73.9686C186.319 73.9686 181.062 72.1539 177.175 68.5867C173.501 65.2329 171.641 60.9007 171.641 55.6966C171.641 51.5957 172.887 47.9039 175.333 44.7281C177.121 42.344 179.834 39.9866 183.402 37.7182C180.831 32.8433 179.523 28.3242 179.523 24.2944C179.523 19.722 181.062 15.8256 184.104 12.6943C187.325 9.50961 191.515 7.89057 196.576 7.89057C201.184 7.89057 204.894 9.18935 207.625 11.7424C210.356 14.3044 211.744 17.756 211.744 21.9993C211.744 25.8245 210.267 29.4362 207.349 32.7366C205.508 34.836 202.474 37.3624 198.338 40.2535C201.923 44.6036 206.282 48.7579 211.299 52.6098C213.656 49.4607 215.649 45.849 217.223 41.8637C218.3 38.5277 220.55 36.8286 223.886 36.8286C226.253 36.8286 227.881 37.4247 228.699 38.59C229.526 39.7554 229.544 41.4811 228.752 43.7051C226.689 49.007 223.922 54.042 220.515 58.6856C222.303 59.6553 224.242 60.5982 226.279 61.4789C227.97 61.9593 229.171 62.8044 229.802 63.9875C230.469 65.2418 230.496 66.8609 229.873 68.818C228.841 72.2517 226.582 73.5861 223.335 72.6787H223.308C219.616 71.3977 215.907 69.6363 212.268 67.4391H212.26ZM184.514 54.9316C184.514 57.4847 185.403 59.4951 187.227 61.0875C189.042 62.6798 191.435 63.4805 194.335 63.4805C197.048 63.4805 199.894 62.5553 202.83 60.7406C200.321 58.6411 197.902 56.3994 195.642 54.0509C193.356 51.6757 191.203 49.2205 189.228 46.7474C186.097 49.5407 184.514 52.2895 184.514 54.9316ZM201.086 22.0794C201.086 18.7257 199.663 17.0888 196.736 17.0888C194.975 17.0888 193.587 17.7204 192.493 19.0103C191.399 20.3091 190.847 22.0794 190.847 24.2855C190.847 26.4917 191.541 29.1338 192.902 32.0516C195.651 30.3258 197.582 28.8758 198.64 27.7193C200.268 25.9491 201.095 24.0454 201.095 22.0794H201.086ZM272.413 18.8324H284.725V5.18624C284.725 1.84142 286.54 0.0711545 289.964 0.0711545C293.389 0.0711545 295.115 1.84142 295.115 5.18624V18.8324H308.37C310.14 18.8324 311.599 19.3929 312.711 20.487C313.823 21.5901 314.383 23.0401 314.383 24.7926V67.9106C314.383 69.663 313.823 71.1131 312.711 72.2162C311.599 73.3193 310.14 73.8708 308.37 73.8708H272.413C270.643 73.8708 269.184 73.3104 268.081 72.2162C266.969 71.1131 266.408 69.6719 266.408 67.9106V24.7926C266.408 23.0401 266.969 21.5901 268.081 20.487C269.193 19.384 270.652 18.8324 272.413 18.8324ZM284.725 29.3206H278.578C277.448 29.3206 276.968 29.8009 276.968 30.9129V40.7428H284.725V29.3206ZM278.578 63.3114H284.725V51.0441H276.968V61.7191C276.968 62.8311 277.448 63.3114 278.578 63.3114ZM303.468 40.7339V30.904C303.468 29.792 302.988 29.3117 301.858 29.3117H295.115V40.725H303.468V40.7339ZM301.858 63.3114C302.988 63.3114 303.468 62.8311 303.468 61.7191V51.0441H295.115V63.3114H301.858ZM242.514 41.6769C241.376 41.9615 240.557 42.1572 240.032 42.2729C238.262 42.6999 237.07 43.4293 236.501 44.4345C235.931 45.4398 235.887 46.872 236.376 48.6778C237.292 52.0049 239.543 53.3481 242.906 52.5564C244.4 52.1828 245.628 51.8714 246.553 51.6135V69.1026C246.553 69.9299 246.233 70.268 245.459 70.268H244.525C241.829 70.2057 240.086 70.7484 239.187 71.9315C238.449 72.91 238.342 74.28 238.867 76.0235C239.694 78.6656 241.9 80 245.45 80C245.601 80 245.752 80 245.912 80C249.044 79.831 251.552 79.2349 253.376 78.2475C254.835 77.4647 255.858 76.3616 256.401 74.9649C256.943 73.595 257.201 71.6824 257.201 69.1115V48.6512L262.005 47.299C264.949 46.5073 266.239 44.5146 265.75 41.5434C265.501 39.7375 264.852 38.4655 263.82 37.7805C262.806 37.1044 261.427 36.9888 259.728 37.4424L257.201 38.074V26.2693H260.181C263.553 26.2693 265.332 24.4724 265.332 21.0742C265.332 17.676 263.553 15.9591 260.181 15.9591H257.201V5.37307C257.201 1.9215 255.36 0.0889635 251.873 0.0889635C248.385 0.0889635 246.553 1.91261 246.553 5.37307V15.9591H241.607C238.235 15.9591 236.456 17.7293 236.456 21.0742C236.456 24.419 238.235 26.2693 241.607 26.2693H246.553V40.7517L242.523 41.6946L242.514 41.6769ZM350.838 9.74089C360.74 7.78381 368.337 4.90158 373.416 1.18313C374.43 0.364716 376.183 0.222382 378.736 0.765026C379.963 1.00521 380.88 1.45002 381.458 2.09052C381.805 2.43746 381.983 2.83775 381.974 3.26475C381.965 3.50493 381.894 3.74512 381.76 3.9853H391.581C393.867 3.9853 395.353 4.6525 396.003 5.96908C396.652 7.28566 396.332 9.02033 395.051 11.271C392.142 15.1318 388.165 18.2898 383.184 20.7094H386.19C387.676 20.7094 388.877 21.1542 389.758 22.026C390.638 22.9067 391.092 24.0987 391.092 25.5665V26.1448H398.182C400.771 26.1448 402.141 27.5058 402.141 30.0678C402.141 32.6298 400.771 34.0798 398.182 34.0798H391.092V38.7234C391.092 40.8495 390.825 42.4152 390.274 43.5094C389.651 44.6836 388.548 45.5732 386.991 46.1425C385.995 46.5162 384.732 46.8008 383.219 46.9965C386.084 47.8238 388.744 48.6956 391.145 49.5941C391.973 49.9411 392.506 50.5549 392.747 51.4177C392.942 52.1472 392.844 52.9211 392.453 53.7218H396.207C399.241 53.7218 400.851 55.3141 400.851 58.3298C400.851 61.3455 399.249 62.9289 396.207 62.9289H372.998C377.099 66.256 383.646 68.4087 392.489 69.3428C395.611 69.5207 397.791 70.0989 399.134 71.1309C400.299 72.0204 401.304 73.675 399.499 76.5573C398.04 78.8524 395.282 79.831 391.288 79.484H391.279C384.127 78.6923 378.211 77.2512 373.683 75.2051C369.199 73.2303 365.401 70.3925 362.403 66.7719C357.599 72.7677 347.805 77.0466 333.278 79.484C332.611 79.5819 331.97 79.6263 331.339 79.6263C330.396 79.6263 329.497 79.5196 328.643 79.3061C326.838 78.9503 325.539 78.203 324.783 77.0821C323.519 75.1962 323.751 73.4438 325.468 71.9938C326.838 70.8729 328.875 70.09 331.508 69.6897C340.368 67.9995 346.835 65.7311 350.741 62.9378H327.985C324.952 62.9378 323.35 61.3455 323.35 58.3387C323.35 55.3319 324.952 53.7307 327.985 53.7307H355.962V51.2043C355.962 47.6904 357.831 45.8401 361.371 45.8401C364.912 45.8401 366.78 47.6993 366.78 51.2043V53.7307H378.513C377.517 53.3926 376.779 53.1435 376.298 52.9834C374.973 52.6098 374.119 51.8981 373.79 50.8751C373.461 49.8699 373.71 48.749 374.528 47.557L374.697 47.3257C374.279 47.3257 373.959 47.0677 373.861 46.6496C373.603 45.4131 373.096 43.8296 372.357 41.9348L371.272 42.5931C367.474 44.7459 364.111 44.141 361.282 40.8051C360.063 39.4173 359.539 38.0385 359.725 36.7219C359.868 35.7345 360.419 34.8538 361.38 34.0887H356.567C353.979 34.0887 352.609 32.701 352.609 30.0767C352.609 27.4525 353.916 26.2159 356.398 26.1537C356.051 25.4242 355.553 24.5435 354.904 23.5205C354.254 22.6843 354.059 21.9015 354.361 21.2343C354.655 20.576 355.375 20.1757 356.514 20.0422C359.37 19.6686 361.638 19.3217 363.266 19.0192C362.083 17.9073 360.695 16.733 359.129 15.541C358.96 15.5943 358.711 15.6744 358.347 15.8078C357.617 15.9591 357.324 16.0658 357.19 16.1281C355.74 16.5462 354.592 16.1637 353.801 15.0517C352.849 13.6106 351.861 12.4274 350.838 11.5023V44.4968C350.838 47.726 349.113 49.4429 345.857 49.4429C342.601 49.4429 340.786 47.7349 340.786 44.4968V33.9108H336.97V33.9731C336.97 39.4707 335.618 44.2122 332.949 48.064C330.885 50.368 328.741 50.884 326.544 49.6386C324.863 48.7134 324.009 47.4057 324.009 45.7689C323.946 44.3456 324.542 42.7799 325.779 41.1342C326.731 38.9191 327.229 36.4906 327.265 33.9108H326.597C323.733 33.9108 322.212 32.3807 322.212 29.4807C322.212 26.5807 323.724 25.1306 326.597 25.1306H340.795V21.519H332.077C330.307 21.519 328.848 20.9585 327.745 19.8643C326.633 18.7612 326.073 17.3201 326.073 15.5588V6.90313C326.073 3.88745 327.674 2.29511 330.716 2.29511C333.759 2.29511 335.351 3.88745 335.351 6.90313V11.4044C335.351 12.5164 335.831 12.9968 336.961 12.9968H340.795V4.95497C340.795 1.7169 342.548 0.00887735 345.866 0.00887735C349.184 0.00887735 350.847 1.7169 350.847 4.95497V9.7587L350.838 9.74089ZM380.595 34.0709H367.402C369.199 35.6989 370.747 37.3713 372.019 39.0437C373.968 39.097 376.512 39.1237 379.581 39.1237C380.515 39.1237 380.595 38.7412 380.595 38.3854V34.0709ZM380.595 26.1359V21.8214C376.325 23.6006 371.308 25.0417 365.641 26.1359H380.595ZM373.941 16.1637C373.292 15.621 372.491 15.0339 371.548 14.3934C371.441 14.3489 371.272 14.2155 371.059 14.002C369.876 13.2281 368.924 12.6231 368.256 12.2317C367.367 12.5965 366.593 12.9078 365.952 13.148C367.981 14.7226 369.564 16.1014 370.658 17.2579C371.646 16.9821 372.749 16.6173 373.95 16.1637H373.941ZM384.963 10.3102H375.853C377.295 11.2354 378.736 12.3029 380.159 13.4949C380.906 13.1035 381.903 12.4986 383.104 11.698C383.7 11.2888 384.322 10.8262 384.954 10.3102H384.963Z" fill="url(#paint0_linear_14_1049)"/>
<path d="M8.84833 9.92772C10.5237 9.92772 11.8818 8.56959 11.8818 6.89425C11.8818 5.21891 10.5237 3.86078 8.84833 3.86078C7.17299 3.86078 5.81486 5.21891 5.81486 6.89425C5.81486 8.56959 7.17299 9.92772 8.84833 9.92772Z" fill="white"/>
<path d="M93.4916 17.0355C95.167 17.0355 96.5251 15.6773 96.5251 14.002C96.5251 12.3267 95.167 10.9685 93.4916 10.9685C91.8163 10.9685 90.4582 12.3267 90.4582 14.002C90.4582 15.6773 91.8163 17.0355 93.4916 17.0355Z" fill="white"/>
<path d="M185.634 21.4745C187.31 21.4745 188.668 20.1163 188.668 18.441C188.668 16.7656 187.31 15.4075 185.634 15.4075C183.959 15.4075 182.601 16.7656 182.601 18.441C182.601 20.1163 183.959 21.4745 185.634 21.4745Z" fill="white"/>
<path d="M241.847 23.8407C243.522 23.8407 244.88 22.4826 244.88 20.8073C244.88 19.1319 243.522 17.7738 241.847 17.7738C240.172 17.7738 238.814 19.1319 238.814 20.8073C238.814 22.4826 240.172 23.8407 241.847 23.8407Z" fill="white"/>
<path d="M330.761 9.9811C332.436 9.9811 333.794 8.62296 333.794 6.94762C333.794 5.27228 332.436 3.91415 330.761 3.91415C329.085 3.91415 327.727 5.27228 327.727 6.94762C327.727 8.62296 329.085 9.9811 330.761 9.9811Z" fill="white"/>
<defs>
<linearGradient id="paint0_linear_14_1049" x1="201.193" y1="80" x2="201.193" y2="0" gradientUnits="userSpaceOnUse">
<stop stop-color="#018139"/>
<stop offset="1" stop-color="#0F6632"/>
</linearGradient>
</defs>
</svg>
