<svg width="244" height="79" viewBox="0 0 244 79" fill="none" xmlns="http://www.w3.org/2000/svg">
<path d="M2 73L51.4845 73C51.4845 54.1696 58.9138 36.1105 72.138 22.7954C85.3623 9.48033 103.298 2 122 2C140.702 2 158.638 9.48034 171.862 22.7954C185.086 36.1105 192.515 54.1696 192.515 73L242 73" stroke="#0E8347" stroke-width="3" stroke-linecap="round" stroke-linejoin="round" stroke-dasharray="1 8"/>
<g clip-path="url(#clip0_4109_2460)">
<path d="M122 45.7692C120.982 45.7692 120.154 46.4936 120.154 47.3846V57.0769C120.154 57.9683 120.982 58.6923 122 58.6923C123.019 58.6923 123.847 57.9683 123.847 57.0769V47.3846C123.847 46.4936 123.019 45.7692 122 45.7692Z" fill="#F5F3B2"/>
<path d="M122 66.0769C120.982 66.0769 120.154 66.9048 120.154 67.9231C120.154 68.9418 120.982 69.7692 122 69.7692C123.019 69.7692 123.847 68.9418 123.847 67.9231C123.847 66.9048 123.019 66.0769 122 66.0769Z" fill="#F5F3B2"/>
<path d="M145.026 67.0674L128.046 35.8483C125.322 31.2618 118.681 31.256 115.953 35.8483C115.944 35.8647 115.935 35.8812 115.926 35.8977L98.9982 67.0179C96.2132 71.7043 99.5849 77.6388 105.043 77.6388H138.951C144.447 77.6388 147.752 71.6531 145.026 67.0674ZM122 72.0138C119.674 72.0138 117.781 70.1216 117.781 67.795C117.781 65.4689 119.674 63.5763 122 63.5763C124.326 63.5763 126.219 65.4689 126.219 67.795C126.219 70.1216 124.326 72.0138 122 72.0138ZM126.219 56.545C126.219 58.8716 124.326 60.7638 122 60.7638C119.674 60.7638 117.781 58.8716 117.781 56.545V48.1075C117.781 45.7814 119.674 43.8888 122 43.8888C124.326 43.8888 126.219 45.7814 126.219 48.1075V56.545Z" fill="#0E8347"/>
</g>
<defs>
<clipPath id="clip0_4109_2460">
<rect width="48" height="48" fill="white" transform="translate(98 31)"/>
</clipPath>
</defs>
</svg>
