<svg width="100" height="100" viewBox="0 0 100 100" fill="none" xmlns="http://www.w3.org/2000/svg">
<circle cx="50" cy="50" r="48" stroke="#9CCD5A" stroke-width="3" stroke-linecap="round" stroke-dasharray="1 8"/>
<mask id="mask0_4109_2370" style="mask-type:alpha" maskUnits="userSpaceOnUse" x="20" y="20" width="60" height="60">
<rect x="20" y="20" width="60" height="60" fill="#D9D9D9"/>
</mask>
<g mask="url(#mask0_4109_2370)">
<path d="M74.947 33.1502C73.1308 30.1906 70.8238 27.5999 68.0902 25.4501C67.4288 24.9301 66.4711 25.0445 65.951 25.7059C65.4309 26.3673 65.5454 27.325 66.2068 27.8451C68.6562 29.7713 70.7232 32.0924 72.35 34.7438C72.6375 35.2124 73.1377 35.4706 73.65 35.4706C73.9217 35.4706 74.1968 35.398 74.4453 35.2455C75.1624 34.8055 75.387 33.8674 74.947 33.1502Z" fill="#0E8347"/>
<path d="M27.8222 62.0061C27.3822 61.289 26.4441 61.0644 25.7269 61.5044C25.0097 61.9444 24.7851 62.8825 25.2252 63.5996C26.6408 65.9066 28.3711 68.0068 30.3679 69.8417C30.6605 70.1107 31.0299 70.2435 31.3984 70.2435C31.8099 70.2435 32.2201 70.0778 32.5206 69.7509C33.0898 69.1314 33.0491 68.1677 32.4296 67.5984C30.6404 65.9542 29.0903 64.0728 27.8222 62.0061Z" fill="#0E8347"/>
<path d="M63.0859 72.9532H61.725L60.9541 70.7737C57.6097 72.3997 53.9138 73.2579 50.0859 73.2579C46.258 73.2579 42.5622 72.3997 39.2177 70.7737L38.4469 72.9532H37.0859C36.245 72.9532 35.5625 73.6357 35.5625 74.4766C35.5625 75.3176 36.245 76.0001 37.0859 76.0001H63.0859C63.9269 76.0001 64.6094 75.3176 64.6094 74.4766C64.6094 73.6357 63.9269 72.9532 63.0859 72.9532Z" fill="#9CCD5A"/>
<path d="M45.5631 46.8515C45.768 46.2448 46.0914 45.6924 46.5063 45.222L41.4458 36.457C38.1473 38.8549 35.8777 42.5862 35.4375 46.8527C35.4453 46.8526 35.4529 46.8515 35.4608 46.8515H45.5631Z" fill="#9CCD5A"/>
<path d="M50.0864 43.6016C50.4094 43.6016 50.7242 43.6341 51.0289 43.695L56.0908 34.9292C55.523 34.6742 54.936 34.4549 54.3327 34.2731C54.1052 34.5666 53.8595 34.8723 53.5944 35.1902C52.724 36.2332 51.4453 36.8324 50.0864 36.8324C48.7275 36.8324 47.4488 36.2332 46.5784 35.1902C46.3134 34.8723 46.0676 34.5666 45.8401 34.2731C45.2368 34.4549 44.6498 34.6742 44.082 34.9292L49.1439 43.695C49.4486 43.6341 49.7634 43.6016 50.0864 43.6016Z" fill="#9CCD5A"/>
<path d="M50.0859 50.1016C51.0395 50.1016 51.8125 49.3286 51.8125 48.375C51.8125 47.4214 51.0395 46.6484 50.0859 46.6484C49.1324 46.6484 48.3594 47.4214 48.3594 48.375C48.3594 49.3286 49.1324 50.1016 50.0859 50.1016Z" fill="#0E8347"/>
<path d="M58.7245 36.457L53.6641 45.222C54.0789 45.6924 54.4023 46.2448 54.6073 46.8515H64.7096C64.7174 46.8515 64.725 46.8526 64.7329 46.8527C64.2927 42.5862 62.0231 38.855 58.7245 36.457Z" fill="#9CCD5A"/>
<path d="M57.1872 27.7141C57.1923 27.8299 57.1953 27.9457 57.1953 28.0625C57.1953 28.8303 57.044 29.9424 56.0984 31.6497C57.0552 31.994 57.9733 32.4195 58.8457 32.9151C58.8894 32.9344 58.932 32.9568 58.9737 32.9801C59.0204 33.0075 59.0651 33.036 59.1067 33.0675C64.3413 36.1631 67.8594 41.8658 67.8594 48.375C67.8594 58.1758 59.8867 66.1484 50.0859 66.1484C40.2852 66.1484 32.3125 58.1758 32.3125 48.375C32.3125 41.8658 35.8306 36.1631 41.0652 33.0675C41.1068 33.036 41.1515 33.0075 41.1982 32.9801C41.2398 32.9568 41.2825 32.9354 41.3252 32.9151C42.1976 32.4195 43.1167 31.994 44.0734 31.6497C43.1279 29.9424 42.9766 28.8303 42.9766 28.0625C42.9766 27.9457 42.9796 27.8299 42.9847 27.7141C39.8799 28.7785 37.0341 30.5457 34.6454 32.9344C30.5209 37.0589 28.25 42.5422 28.25 48.375C28.25 54.2077 30.5209 59.6911 34.6454 63.8155C38.7698 67.94 44.2532 70.2109 50.0859 70.2109C55.9187 70.2109 61.402 67.94 65.5265 63.8155C69.6509 59.6911 71.9219 54.2077 71.9219 48.375C71.9219 42.5422 69.6509 37.0589 65.5265 32.9344C63.1377 30.5457 60.292 28.7785 57.1872 27.7141Z" fill="#9CCD5A"/>
<path d="M64.7329 49.8972C64.725 49.8973 64.7174 49.8983 64.7096 49.8983H54.6073C54.4023 50.5051 54.0789 51.0575 53.6641 51.5279L58.7245 60.2929C62.0231 57.895 64.2927 54.1637 64.7329 49.8972Z" fill="#9CCD5A"/>
<path d="M41.4458 60.2929L46.5063 51.5279C46.0914 51.0575 45.768 50.5052 45.5631 49.8983H35.4608C35.4529 49.8983 35.4453 49.8973 35.4375 49.8972C35.8777 54.1637 38.1473 57.895 41.4458 60.2929Z" fill="#9CCD5A"/>
<path d="M56.0898 61.8209L51.0285 53.0544C50.7237 53.1158 50.4086 53.1484 50.0859 53.1484C49.7632 53.1484 49.4481 53.1158 49.1433 53.0544L44.082 61.8209C45.9166 62.6434 47.9487 63.1015 50.0859 63.1015C52.2231 63.1015 54.2552 62.6434 56.0898 61.8209Z" fill="#9CCD5A"/>
<path d="M51.2542 33.2387C52.4545 31.7994 54.1484 29.5113 54.1484 28.0625C54.1484 25.8189 52.3296 24 50.0859 24C47.8423 24 46.0234 25.8189 46.0234 28.0625C46.0234 29.5113 47.7174 31.7994 48.9177 33.2387C49.5254 33.9675 50.6465 33.9675 51.2542 33.2387Z" fill="#0E8347"/>
</g>
</svg>
