<svg width="169" height="126" viewBox="0 0 169 126" fill="none" xmlns="http://www.w3.org/2000/svg">
<g clip-path="url(#clip0_4109_2320)">
<path d="M23.7829 68.9831C23.7829 68.9831 23.7829 68.9831 23.7789 69.0017C25.615 77.2219 28.7178 85.2272 28.7178 85.2272L28.6357 85.2485C28.6357 85.2485 28.6716 85.3531 28.6969 85.4166C29.4641 87.731 28.1954 90.2324 25.8849 90.9811C23.5704 91.7483 21.069 90.4796 20.3204 88.1691C20.3243 88.1505 20.3137 88.1095 20.2991 88.087C18.2164 82.3918 15.9689 69.8204 15.9689 69.8204L15.9875 69.8244C15.7686 67.6654 17.3202 65.7474 19.4646 65.5061C21.6236 65.2872 23.2926 66.8245 23.7829 68.9831Z" fill="#FAB196"/>
<path d="M45.6624 65.7902C48.5236 65.0037 51.481 66.6796 52.2529 69.5183C52.2848 69.6414 52.2983 69.7605 52.3302 69.8836C52.5696 70.671 52.5033 71.529 52.2173 72.4177C52.1396 72.6919 52.0248 72.9582 51.9139 73.2059C48.7757 80.2126 33.5216 89.6024 27.0284 90.9727C27.0284 90.9727 26.5838 91.1494 26.3562 91.2172C23.9687 91.872 21.495 90.4735 20.8548 88.1086C20.2426 85.8853 21.4679 83.5878 23.597 82.7812C34.5413 76.796 42.9152 67.5894 42.9152 67.5894C43.6355 66.7543 44.5653 66.1188 45.6995 65.7981L45.6624 65.7902Z" fill="#FAB196"/>
<path d="M32.8236 76.0425C38.3097 71.299 38.6082 63.3392 42.8473 62.3614C45.7405 61.6979 50.5724 66.0401 51.4674 68.8469C51.4993 68.97 51.5313 69.093 51.5672 69.1976C51.8291 69.9704 51.8038 70.8177 51.5695 71.7369C51.5103 72.015 57.7325 69.0948 57.6177 69.3611C56.321 72.6317 44.8409 81.6812 40.4901 85.0965C40.4901 85.0965 36.0696 81.462 32.8275 76.024L32.8236 76.0425Z" fill="#FFFEF3"/>
<path d="M24.6484 49.5162C24.8855 48.6751 25.3396 45.9035 25.546 43.9319C26.0474 41.8487 24.7721 39.7362 22.6889 39.2347C20.6242 38.7372 18.5566 39.9833 18.0075 42.0177C18.0075 42.0177 16.8066 45.6575 16.3225 48.7522C15.7164 52.6931 16.9543 52.7046 16.9543 52.7046C16.9543 52.7046 16.9791 54.3184 18.0249 54.2308C18.0249 54.2308 18.1937 55.6234 19.1543 55.2076C19.1543 55.2076 20.3882 57.0593 20.6584 54.423C20.9066 52.0727 22.0594 49.0234 22.7288 48.7007C23.3758 48.3926 22.7536 50.3145 23.2049 51.1083C23.6522 51.9205 24.4113 50.3572 24.6523 49.4976L24.6484 49.5162Z" fill="#FAB196"/>
<path d="M25.657 43.3161C25.657 43.3161 25.657 43.3161 25.661 43.2976C27.8352 35.1748 31.2741 27.3019 31.2741 27.3019L31.1999 27.2861C31.1999 27.2861 31.2461 27.1602 31.2765 27.1086C32.1298 24.8289 30.9863 22.2793 28.7066 21.426C26.4269 20.5727 23.8773 21.7162 23.024 23.9959C23.0161 24.033 23.0122 24.0515 23.0043 24.0886C20.6901 29.6815 17.9197 42.1542 17.9197 42.1542L17.9382 42.1581C17.6183 44.2993 19.092 46.299 21.2372 46.6004C23.3784 46.9204 25.1067 45.4471 25.6795 43.3015L25.657 43.3161Z" fill="#FAB196"/>
<path d="M26.1231 49.5976C25.4419 47.2433 23.5326 45.2867 21.2107 44.5406C18.8888 43.7946 16.1874 44.2857 14.2765 45.7977C13.3905 46.5006 12.6385 47.484 12.6137 48.6028C12.5888 49.7215 13.5596 50.8971 14.6807 50.7287C13.9848 51.9954 12.894 53.023 12.1279 54.2553C11.3618 55.4876 10.918 57.118 11.6386 58.3761C12.3593 59.6341 14.5799 59.8546 15.1539 58.5233C14.5712 60.2598 14.3396 62.1679 14.8571 63.9253C15.3746 65.6827 16.7047 67.2643 18.461 67.7543C20.2357 68.2482 22.3608 67.4601 23.121 65.8001C24.3675 68.139 27.5742 69.1896 29.9861 68.0555C30.6781 67.7183 31.3049 67.2315 31.843 66.7065C33.2841 65.3077 34.3299 63.3984 34.2542 61.3862C34.1785 59.3739 32.7829 57.3715 30.8018 57.0274" fill="#182138"/>
<path d="M47.4011 47.4198C50.2342 48.3134 53.2386 46.7628 54.1243 43.9667C54.1519 43.8369 54.1756 43.7257 54.2032 43.5959C54.4616 42.8369 54.4313 41.9778 54.1824 41.0527C54.1039 40.7841 54.0254 40.5154 53.9059 40.2574C51.0638 33.1216 36.215 23.1206 29.781 21.4802C29.781 21.4802 29.3412 21.2703 29.1041 21.2005C26.7451 20.4466 24.2196 21.7503 23.4696 24.0907C22.7698 26.2868 23.8786 28.6352 25.9942 29.5311C36.6821 35.9528 44.6472 45.516 44.6472 45.516C45.3131 46.3941 46.2342 47.0746 47.3415 47.4266L47.4011 47.4198Z" fill="#FAB196"/>
<path d="M34.9851 36.6383C40.2667 41.5995 40.7028 51.2079 44.9158 52.3564C47.7726 53.1387 52.32 47.3427 53.3315 44.5928C53.3591 44.463 53.4013 44.3557 53.4435 44.2484C53.739 43.4973 53.7457 42.646 53.5379 41.7103C53.4819 41.4271 59.5698 44.6024 59.4728 44.3298C58.3202 41.0031 47.2241 31.4907 43.0075 27.8996C43.0075 27.8996 38.437 31.3457 34.9851 36.6383Z" fill="#FFFEF3"/>
<path d="M81.0087 53.2341L80.7611 60.6815L80.7335 60.8113L80.5045 68.2627L80.2597 75.7882L88.3202 76.0693C90.8808 76.149 93.398 74.611 94.3862 72.2438L98.041 63.4477L98.1069 61.4074L98.1345 61.2777C98.1511 59.9246 97.9519 58.5837 97.5251 57.3107L95.1213 50.21C94.2997 47.7871 91.893 46.0734 89.3364 45.9751L81.2759 45.694L81.0312 53.2195L81.0087 53.2341Z" fill="#91BAE8"/>
<path d="M120.831 61.2811C119.531 58.4657 120.769 55.1051 123.585 53.805C126.419 52.5088 129.761 53.7432 131.061 56.5587C131.155 56.7531 131.231 56.9437 131.284 57.1488L132.794 60.4353L139.17 60.4355L123.747 67.5219L120.842 61.3222C120.842 61.3222 120.812 61.2772 120.816 61.2586L120.831 61.2811Z" fill="#1C1316"/>
<path d="M117.215 35.279C117.215 35.279 95.6725 58.0984 95.5218 58.2602C93.0207 60.9063 88.8664 61.03 86.2203 58.529C83.5742 56.0279 83.4504 51.8736 85.9515 49.2275C86.0493 49.132 107.522 27.0925 107.522 27.0925C107.658 26.9082 107.813 26.728 107.986 26.5516C110.39 24.001 114.406 23.8867 116.975 26.2939C119.478 28.6482 119.639 32.539 117.388 35.1027L117.237 35.2644L117.215 35.279Z" fill="#91BAE8"/>
<path d="M110.685 26.254C113.856 24.7389 117.643 26.068 119.158 29.2392L132.484 59.1488C127.108 62.7337 122.057 64.1589 122.057 64.1589L107.714 34.7499C106.199 31.5786 107.528 27.7916 110.699 26.2765L110.685 26.254Z" fill="#91BAE8"/>
<path d="M152.058 77.8293C148.958 77.7318 146.507 75.1364 146.604 72.0369C146.702 68.9375 149.297 66.4859 152.397 66.5834C152.608 66.5897 152.816 66.6146 153.024 66.6394L156.644 66.7508L159.484 61.0565L158.956 78.018L152.113 77.8411C152.113 77.8411 152.058 77.8293 152.039 77.8253L152.058 77.8293Z" fill="#1C1316"/>
<path d="M121.924 77.6378C121.924 77.6378 90.569 76.3533 90.3387 76.3431C86.7083 76.1907 83.8906 73.1298 84.0244 69.4955C84.1767 65.8651 87.2376 63.0474 90.872 63.1812C91.0057 63.1903 121.734 64.9615 121.734 64.9615C121.968 64.9532 122.202 64.945 122.433 64.9552C125.948 65.1025 128.67 68.0655 128.527 71.5622C128.381 74.9808 125.541 77.671 122.154 77.6481L121.943 77.6418L121.924 77.6378Z" fill="#91BAE8"/>
<path d="M116.199 71.3032C116.249 67.7868 119.131 64.9892 122.648 65.0398L155.355 66.4375C156.179 72.8534 155.179 78.0089 155.179 78.0089L122.462 77.7524C118.946 77.7018 116.148 74.8196 116.199 71.3032Z" fill="#91BAE8"/>
<path d="M23.0235 47.1355C22.8858 47.1449 22.7667 47.1583 22.6476 47.1717C22.8866 47.6877 22.9828 48.3284 23.0858 49.0286C23.4762 51.7474 22.0186 54.4992 22.9061 57.6145C24.3175 57.721 25.7065 57.8422 27.1179 57.9487C27.3258 57.9736 27.6185 58.0552 27.5897 58.2817C27.5661 58.3929 27.4536 58.4659 27.3451 58.5203C27.1282 58.6292 26.9073 58.7566 26.6903 58.8655C27.4592 58.6221 28.8899 58.3646 29.039 58.9389C29.1668 59.4312 27.652 60.1748 26.6765 60.2967C26.6303 60.4225 26.5802 60.5669 26.5486 60.7152C26.3253 61.9468 27.1584 63.1318 28.39 63.3551C29.6216 63.5784 30.8066 62.7453 31.0114 61.5098C31.0824 61.1761 31.0382 60.8372 30.9676 60.5315L37.7192 61.1348C37.9417 61.1822 38.1641 61.2295 38.3945 61.2398C41.2652 61.5018 43.7895 59.3839 44.0515 56.5133C44.3135 53.6426 42.1956 51.1183 39.325 50.8563C39.1171 50.8314 38.8828 50.8397 38.6709 50.8334L35.7818 50.5674C35.1211 47.7524 32.3558 47.0864 29.8299 47.2078C27.3001 47.3478 22.9904 47.109 22.9904 47.109L23.0235 47.1355Z" fill="#FAB196"/>
<path opacity="0.35" d="M35.7992 50.5899C35.7992 50.5899 36.1321 51.9398 35.8393 53.6799L38.8035 50.861L35.7992 50.5899Z" fill="#FC6158"/>
<path d="M50.0251 36.6405C48.1462 36.4539 46.4116 37.2282 45.2909 38.5789C42.3294 41.4759 40.6172 46.7899 39.7015 50.8199C39.7015 50.8199 42.4076 52.6748 42.0395 56.3175C42.0395 56.3175 42.0316 56.3545 42.0237 56.3916C42.0197 56.4102 42.0158 56.4287 42.0079 56.4658C41.6398 60.1084 38.635 61.3876 38.635 61.3876C38.7216 65.534 36.5317 70.9984 38.8614 74.4399C39.6938 75.993 44.0591 77.1544 45.9194 77.3371C46.6583 77.4168 47.3546 77.3324 48.0374 77.1289L56.9836 72.7922L80.5002 75.3933C80.5002 75.3933 82.5701 71.2213 83.6738 60.6614C83.6738 60.6614 83.6856 60.6058 83.6896 60.5873C83.6935 60.5687 83.7014 60.5316 83.7053 60.5131C84.7534 49.9414 83.5408 45.4391 83.5408 45.4391L59.9667 43.291L52.0661 37.2493C51.4567 36.9258 50.7679 36.7017 50.0476 36.6259L50.0251 36.6405Z" fill="#FFFEF3"/>
<path opacity="0.35" d="M29.6283 49.9751C30.0796 49.8579 30.3143 49.2102 30.1254 48.5498C29.9589 47.8749 29.4327 47.4334 28.9814 47.5506C28.5301 47.6677 28.2954 48.3155 28.4843 48.9758C28.6508 49.6508 29.177 50.0922 29.6283 49.9751Z" fill="#FC6158"/>
<path opacity="0.35" d="M28.8097 57.8431C29.2732 57.9418 29.773 57.5055 29.9375 56.8234C30.102 56.1414 29.8681 55.5102 29.4086 55.393C28.945 55.2944 28.4452 55.7307 28.2807 56.4127C28.1162 57.0948 28.3501 57.726 28.8097 57.8431Z" fill="#FC6158"/>
</g>
<defs>
<clipPath id="clip0_4109_2320">
<rect width="95.4228" height="151.968" fill="white" transform="translate(0.316406 93.4668) rotate(-77.987)"/>
</clipPath>
</defs>
</svg>
