<svg width="270" height="327" viewBox="0 0 270 327" fill="none" xmlns="http://www.w3.org/2000/svg">
<g clip-path="url(#clip0_4109_2342)">
<path d="M126.272 75.2332C128.14 71.2874 126.36 66.3455 123.078 63.4967C119.796 60.6479 115.345 59.5113 111.029 58.9858C107.938 58.6271 104.776 58.5602 101.839 59.5117C96.2131 61.3549 92.388 66.8432 90.8517 72.5496C89.486 77.614 89.6681 83.2219 92.0006 87.9271C94.3475 92.6031 99.0479 96.2585 104.31 96.6323C109.557 97.0352 115.043 93.7798 116.628 88.7868" fill="#6E3B46"/>
<path d="M87.8125 285.904C87.963 279.916 92.9487 275.906 98.9376 276.056C104.926 276.207 109.704 280.444 109.539 286.463C109.512 286.885 109.5 287.279 109.445 287.687L109.266 293.88L120.292 300.102L87.5206 299.266L87.7843 286.036C87.7843 286.036 87.7982 285.934 87.7833 285.89L87.8125 285.904Z" fill="#182138"/>
<path d="M124.814 285.591C124.673 279.604 129.453 275.348 135.469 275.221C141.486 275.095 146.421 279.084 146.562 285.071C146.58 285.479 146.553 285.901 146.512 286.28L146.625 292.471L157.953 298.153L125.192 298.919L124.8 285.693C124.8 285.693 124.814 285.591 124.799 285.547L124.814 285.591Z" fill="#182138"/>
<path d="M111.289 248.877C111.289 248.877 113.602 194.505 113.613 194.039C113.903 187.029 108.43 181.106 101.421 180.817C94.4109 180.527 88.4877 186 88.1982 193.009C88.1709 193.286 86.8853 246.53 86.8853 246.53C86.8153 246.968 86.7746 247.42 86.763 247.886C86.4865 254.648 91.7421 260.791 98.504 261.067C105.12 261.345 110.723 255.86 111.219 249.315L111.246 248.892L111.289 248.877Z" fill="#92537F"/>
<path d="M99.416 235.74C92.6546 235.537 86.9926 240.848 86.7746 247.638L87.0282 288.896C99.2948 291.045 109.352 289.567 109.352 289.567L111.284 248.368C111.488 241.606 106.177 235.944 99.3868 235.726L99.416 235.74Z" fill="#92537F"/>
<path d="M130.077 176.289L115.703 177.096L115.441 177.112L101.066 177.92L86.5319 178.757L87.4052 194.326C87.6996 199.263 91.1094 203.844 95.8249 205.329L113.269 208.319L121.381 207.844L138.365 202.911C142.869 200.915 145.78 195.957 145.485 191.02L144.612 175.451L130.077 176.289Z" fill="#92537F"/>
<path d="M122.064 248.225C122.064 248.225 120.035 193.822 120.003 193.371C119.754 186.35 125.223 180.472 132.243 180.223C139.264 179.973 145.142 185.442 145.391 192.463C145.408 192.725 146.439 245.983 146.439 245.983C146.514 246.419 146.546 246.871 146.564 247.351C146.797 254.11 141.505 260.22 134.732 260.482C128.119 260.715 122.533 255.244 122.067 248.662L122.035 248.21L122.064 248.225Z" fill="#92537F"/>
<path d="M133.758 229.471C140.531 229.208 146.266 235.042 146.562 242.485L146.799 287.91C134.533 290.336 124.485 288.769 124.485 288.769L122.063 243.431C121.767 235.988 127.029 229.719 133.802 229.456L133.758 229.471Z" fill="#92537F"/>
<path d="M124.313 71.7639C123.399 72.3672 122.148 72.7687 120.811 73.1999C115.591 74.8073 109.794 72.7907 103.94 75.4658C104.162 78.2616 104.355 81.043 104.591 83.8096C104.638 84.2318 104.525 84.8299 104.088 84.8327C103.84 84.8198 103.679 84.6314 103.532 84.4138C103.253 84.0223 102.944 83.6164 102.665 83.2248C103.388 84.6333 104.323 87.3808 103.248 87.8686C102.319 88.2825 100.407 85.5268 99.8409 83.6511C99.5783 83.5945 99.2865 83.5236 98.9951 83.5255C96.5036 83.498 94.4476 85.4636 94.3909 87.9407C94.3633 90.4322 96.329 92.4882 98.8205 92.5157C99.5053 92.5259 100.16 92.3759 100.726 92.11L101.6 105.537C101.56 105.989 101.562 106.426 101.58 106.907C101.938 112.601 106.861 116.91 112.555 116.553C118.249 116.195 122.559 111.272 122.201 105.578C122.169 105.126 122.108 104.733 122.033 104.297L121.66 98.5591C126.964 96.4121 127.452 90.7707 126.415 85.8677C125.378 80.9646 125.41 74.6997 124.327 71.7347L124.313 71.7639Z" fill="#FAB196"/>
<path d="M85.1242 143.83L86.5801 181.758C86.5801 181.758 99.8424 184.688 116.285 183.736C132.713 182.813 145.129 178.828 145.129 178.828L142.593 140.659C142.624 140.964 145.008 95.3041 145.008 95.3041C139.399 93.0532 127.653 103.721 122.041 103.321C122.041 103.321 119.311 109.166 112.218 109.562C112.218 109.562 112.116 109.548 112.073 109.563C112.044 109.548 112 109.563 111.927 109.564C104.835 109.96 101.491 104.43 101.491 104.43C95.7579 105.458 89.1406 107.25 83.6824 110.301L85.1678 143.815" fill="white"/>
<path d="M176.856 55.0611C176.856 55.0611 176.856 55.0611 176.842 55.0904C168.771 68.6921 163.348 74.9192 163.348 74.9192L163.495 74.9911C163.495 74.9911 163.321 75.1962 163.278 75.2839C160.563 78.9584 161.413 84.2414 165.219 87.0576C169.026 89.8739 174.31 89.1693 177.025 85.4948C177.053 85.4364 177.082 85.3779 177.097 85.3487C184.207 76.4299 190.651 61.4838 190.651 61.4838L190.622 61.4695C192.273 57.7436 190.539 53.2967 186.725 51.5295C182.911 49.7623 178.96 51.5217 176.842 55.0904L176.856 55.0611Z" fill="#FAB196"/>
<path d="M126.868 105.912C124.526 110.968 126.663 116.956 131.676 119.313C131.88 119.414 132.085 119.515 132.318 119.557L132.304 119.586C133.678 120.262 135.325 120.382 137.072 120.152C137.61 120.09 138.164 120.072 138.643 119.836C152.103 112.843 172.768 95.7792 177.384 84.1814C177.384 84.1814 177.874 83.406 178.046 82.9824C180.014 78.7591 178.204 73.73 174.039 71.7903C170.109 69.9655 165.442 71.4819 163.266 75.1675C148.67 93.5466 131.063 101.295 131.063 101.295L136.723 104.624C134.952 105.641 127.817 103.91 126.882 105.883L126.868 105.912Z" fill="#FAB196"/>
<path d="M196.008 49.0508C195.45 50.6279 193.164 55.3486 191.335 58.6239C189.844 62.3925 185.631 64.241 181.848 62.7795C178.138 61.3176 176.261 57.1631 177.664 53.4242C177.664 53.4242 179.747 46.5341 182.364 41.2139C185.671 34.4907 187.632 35.8183 187.632 35.8183C187.632 35.8183 189.379 33.3739 190.902 34.6315C190.902 34.6315 192.652 32.697 193.683 34.3657C193.683 34.3657 197.592 32.8397 195.158 37.1971C192.998 41.072 191.478 47.0406 192.127 48.231C192.805 49.4359 193.874 45.7866 195.442 45.0334C197.011 44.2802 196.478 47.5034 195.92 49.0805L196.008 49.0508Z" fill="#FAB196"/>
<path d="M153.393 85.4153C142.339 92.6115 130.569 101.925 130.569 101.925L130.555 101.954C128.726 103.015 127.134 104.628 126.157 106.761C123.686 112.08 125.941 118.418 131.231 120.875C131.465 120.99 131.67 121.091 131.903 121.133L131.889 121.162C133.365 121.852 135.056 122.03 136.904 121.741C137.443 121.679 138.01 121.559 138.549 121.425C145.283 119.691 156.495 109.886 164.254 102.157C164.254 102.157 162.053 95.1931 153.364 85.4009L153.393 85.4153Z" fill="white"/>
<path opacity="0.35" d="M121.531 98.8222C121.531 98.8222 118.945 99.9463 115.346 99.8822L121.92 104.968L121.516 98.8514L121.531 98.8222Z" fill="#FC6158"/>
<path opacity="0.35" d="M121.406 86.0896C121.688 86.9182 122.914 87.2307 124.15 86.7856C125.385 86.3405 126.107 85.316 125.81 84.5166C125.514 83.7173 124.302 83.3755 123.067 83.8206C121.831 84.2657 121.11 85.2902 121.406 86.0896Z" fill="#FC6158"/>
<path opacity="0.35" d="M106.688 85.8938C106.548 86.7689 107.471 87.6225 108.755 87.8181C110.038 88.0137 111.171 87.4819 111.311 86.6068C111.451 85.7318 110.528 84.8782 109.244 84.6826C107.961 84.4869 106.828 85.0188 106.688 85.8938Z" fill="#FC6158"/>
<path d="M87.4506 181.315C87.4506 181.315 87.4506 181.315 87.4213 181.301C79.2473 167.732 76.2982 160.073 76.2982 160.073L76.153 160.147C76.153 160.147 76.0788 159.929 76.0198 159.827C74.0553 155.703 69.0902 153.914 64.9654 155.878C60.8405 157.843 59.0517 162.808 61.0162 166.933C61.031 166.976 61.0751 167.034 61.09 167.078C65.6452 177.523 75.6791 190.337 75.6791 190.337L75.6935 190.308C78.1766 193.526 82.8136 194.137 86.0318 191.654C89.2499 189.171 89.5426 184.886 87.3777 181.316L87.4506 181.315Z" fill="#FAB196"/>
<path d="M98.7005 120.81C98.9411 115.228 94.6562 110.506 89.1331 110.295C88.8854 110.282 88.6668 110.283 88.4339 110.314C86.8746 110.237 85.3333 110.713 83.8093 111.597C83.3449 111.877 82.8072 112.084 82.5038 112.479C72.7598 124.096 60.1802 147.751 60.3489 160.25C60.3489 160.25 60.1945 161.154 60.183 161.62C59.9948 166.284 63.5753 170.223 68.195 170.426C72.5377 170.602 76.2467 167.416 76.8456 163.173C83.255 140.622 96.5972 126.709 96.5972 126.709C97.8251 125.099 98.5988 123.083 98.701 120.883L98.7005 120.81Z" fill="#FAB196"/>
<path d="M94.5486 190.797C93.7235 189.375 90.5782 185.141 88.1703 182.287C86.0064 178.862 81.4979 177.843 78.0737 180.007C74.7075 182.127 73.673 186.591 75.7056 189.987C75.7056 189.987 79.0688 196.361 82.6396 201.058C87.1803 207.031 88.8304 205.374 88.8304 205.374C88.8304 205.374 91.0437 207.443 92.3014 205.92C92.3014 205.92 94.395 207.494 95.0823 205.654C95.0823 205.654 99.2103 206.414 96.0094 202.589C93.1463 199.184 90.5459 193.621 90.9601 192.336C91.3886 191.022 93.1735 194.405 94.8373 194.86C96.5011 195.316 95.403 192.234 94.5486 190.797Z" fill="#FAB196"/>
<path d="M82.666 149.047C90.4494 138.39 98.131 125.505 98.131 125.505L98.1453 125.475C99.4748 123.806 100.379 121.746 100.539 119.428C100.953 113.569 96.6069 108.454 90.791 108.026C90.5433 108.013 90.2955 108 90.077 108.001C88.4443 107.852 86.801 108.314 85.1605 109.213C84.6669 109.479 84.1881 109.788 83.7386 110.111C78.0681 114.111 71.0584 127.254 66.5342 137.263C66.5342 137.263 71.0879 142.989 82.6516 149.076L82.666 149.047Z" fill="white"/>
</g>
<defs>
<clipPath id="clip0_4109_2342">
<rect width="285.535" height="160.245" fill="white" transform="translate(0 256.215) rotate(-63.8075)"/>
</clipPath>
</defs>
</svg>
