<svg width="244" height="76" viewBox="0 0 244 76" fill="none" xmlns="http://www.w3.org/2000/svg">
<path d="M2 73L51.4845 73C51.4845 54.1696 58.9138 36.1105 72.138 22.7954C85.3623 9.48033 103.298 2 122 2C140.702 2 158.638 9.48034 171.862 22.7954C185.086 36.1105 192.515 54.1696 192.515 73L242 73" stroke="#0E8347" stroke-width="3" stroke-linecap="round" stroke-linejoin="round" stroke-dasharray="1 8"/>
<path d="M143.687 49.4785L143.266 49.0576L143.918 48.4062C144.614 47.7093 144.998 46.7828 144.998 45.7972C144.998 44.8115 144.614 43.885 143.918 43.1881C143.221 42.4913 142.295 42.1074 141.309 42.1074C140.324 42.1074 139.398 42.4913 138.701 43.1881L129.757 52.1357C129.642 52.2501 129.625 52.3839 129.625 52.4533C129.625 52.5228 129.642 52.6565 129.757 52.7711L134.338 57.3537C134.423 57.4386 134.535 57.4853 134.655 57.4853C134.775 57.4853 134.888 57.4386 134.973 57.3536L141.361 50.9639L141.781 51.3849C142.119 51.7228 142.305 52.1721 142.305 52.6501C142.305 53.128 142.119 53.5773 141.781 53.9153L137.066 58.6327C136.539 59.1591 136.539 60.0126 137.066 60.5391C137.329 60.8023 137.674 60.934 138.018 60.934C138.363 60.934 138.708 60.8024 138.971 60.5391L143.687 55.8218C144.534 54.9747 145 53.8482 145 52.6502C145.001 51.4521 144.534 50.3257 143.687 49.4785Z" fill="#9CCD5A"/>
<path d="M116.572 69.9737C116.448 70.3101 116.804 70.6651 117.14 70.5415C120.953 69.2788 124.47 67.1097 127.31 64.2687L132.374 59.203L127.907 54.7349L122.843 59.8007C120.003 62.6416 117.835 66.1594 116.572 69.9737Z" fill="#9CCD5A"/>
<path d="M116.206 39.0531C116.854 39.0531 117.382 38.5256 117.382 37.8774C117.382 37.2291 116.854 36.7017 116.206 36.7017C115.558 36.7017 115.03 37.2291 115.03 37.8774C115.03 38.5257 115.558 39.0531 116.206 39.0531Z" fill="#9CCD5A"/>
<path d="M119.757 44.3014C119.569 43.2592 118.665 42.5027 117.606 42.5027H114.804C113.745 42.5027 112.841 43.2592 112.653 44.3014L112.495 45.1821H119.915L119.757 44.3014Z" fill="#9CCD5A"/>
<path d="M117.987 73.1011C117.667 73.207 117.335 73.2605 116.999 73.2605C116.16 73.2605 115.37 72.9334 114.776 72.3396C114.105 71.6687 113.784 70.7558 113.867 69.8402H105.777C105.033 69.8402 104.429 69.2366 104.429 68.4921C104.429 67.7476 105.033 67.144 105.777 67.144H114.754C115.137 66.2238 115.569 65.3236 116.046 64.4479H105.777C105.033 64.4479 104.429 63.8443 104.429 63.0999C104.429 62.3554 105.033 61.7518 105.777 61.7518H116.173H117.712C118.367 60.8114 119.079 59.9103 119.841 59.0557H116.173H105.777C105.033 59.0557 104.429 58.4521 104.429 57.7076C104.429 56.9631 105.033 56.3595 105.777 56.3595H116.173H122.472L125.167 53.6634H116.173H105.777C105.033 53.6634 104.429 53.0599 104.429 52.3154C104.429 51.5709 105.033 50.9673 105.777 50.9673H116.173H127.862L133.346 45.4824V31.3481C133.346 30.6036 132.742 30 131.998 30H100.349C99.6044 30 99.001 30.6036 99.001 31.3481V74.6519C99.001 75.3964 99.6044 76 100.349 76H131.998C132.742 76 133.346 75.3964 133.346 74.6519V62.0443L129.216 66.1751C126.08 69.3119 122.198 71.7069 117.987 73.1011ZM110.048 46.1075L110.444 43.9044C110.766 42.1114 112.134 40.7359 113.853 40.3592C113.195 39.7351 112.784 38.8539 112.784 37.8779C112.784 35.9905 114.319 34.455 116.206 34.455C118.093 34.455 119.628 35.9905 119.628 37.8779C119.628 38.8539 119.216 39.7351 118.559 40.3592C120.277 40.7359 121.646 42.1114 121.968 43.9044L122.364 46.1075C122.423 46.4349 122.334 46.7717 122.12 47.0268C121.907 47.2821 121.591 47.4295 121.259 47.4295H111.153C110.82 47.4295 110.505 47.2821 110.291 47.0268C110.078 46.7717 109.989 46.4349 110.048 46.1075Z" fill="#0E8347"/>
</svg>
