<svg width="1920" height="815" viewBox="0 0 1920 815" fill="none" xmlns="http://www.w3.org/2000/svg">
<path d="M1333.19 23.1928C967.5 -104.5 617 331 337 791.999L1862 792C1570 224 1474.01 72.365 1333.19 23.1928Z" fill="#B6D267"/>
<path d="M-4.44421 149.264C-203.758 157.867 -375.943 539.5 -324.943 790H602.056C498 455.5 288.5 136.619 -4.44421 149.264Z" fill="#B9D877"/>
<path d="M1472.5 183.81C1354.5 298.5 1124.5 662 1030 814.5H2204.5C2194.34 742 2147.9 467.31 2117.5 351.31C2079.5 206.31 2002.5 46.81 1819 36.81C1635.5 26.81 1552.62 105.944 1472.5 183.81Z" fill="#BFDC6E"/>
<path d="M1694.86 60.6696C1692.66 61.2785 1690.38 61.8928 1688.12 61.605C1685.85 61.3189 1683.57 59.8981 1682.98 57.6891C1682.34 55.231 1683.89 52.8097 1684.96 50.504C1685.83 48.644 1686.43 46.573 1686.09 44.5486C1685.77 42.6021 1684.62 40.9075 1683.77 39.1256C1682.92 37.3437 1682.37 35.2065 1683.23 33.4336C1683.71 32.4439 1684.58 31.7026 1685.22 30.805C1686.64 28.8149 1686.85 26.2406 1687.51 23.8874C1688.17 21.5342 1689.7 19.0429 1692.13 18.7504C1695.12 18.3913 1697.37 21.5933 1697.84 24.564C1698.31 27.5348 1697.77 30.6619 1698.73 33.51C1699.51 35.8043 1701.19 37.6614 1702.53 39.6773C1703.88 41.6932 1704.94 44.1667 1704.27 46.4945C1703.9 47.7686 1703.06 48.8529 1702.62 50.1056C1701.86 52.278 1702.41 54.7229 1701.77 56.9338C1700.73 60.5295 1696.19 62.632 1692.77 61.1021" fill="#7A9756"/>
<path d="M1692.36 31.2522C1692.46 33.6563 1692.53 36.0583 1692.58 38.4633C1692.63 40.8649 1692.66 43.2663 1692.67 45.6688C1692.68 48.0697 1692.66 50.4737 1692.63 52.874C1692.59 55.2743 1692.53 57.6953 1692.45 60.1037C1692.37 62.5049 1692.27 64.9038 1692.15 67.3025C1692.13 67.6009 1692.12 67.8992 1692.1 68.1991C1692.08 68.5594 1692.64 68.6141 1692.66 68.2537C1692.79 65.8467 1692.9 63.4376 1692.98 61.028C1693.07 58.6184 1693.13 56.2083 1693.17 53.7981C1693.22 51.3879 1693.23 48.9592 1693.23 46.5393C1693.23 44.1282 1693.21 41.7169 1693.16 39.3086C1693.11 36.8933 1693.05 34.4775 1692.96 32.0631C1692.94 31.764 1692.93 31.4648 1692.92 31.1657C1692.91 31.0151 1692.74 30.9104 1692.6 30.9326C1692.44 30.9594 1692.36 31.102 1692.37 31.2541L1692.36 31.2522Z" fill="#6E3B46"/>
<path d="M1689.09 40.1275C1689.84 41.318 1690.77 42.3853 1691.84 43.3034C1692.14 43.563 1692.45 43.806 1692.78 44.0392C1692.89 44.1239 1693.08 44.0979 1693.17 43.9721C1693.25 43.8463 1693.23 43.6728 1693.1 43.5819C1692.82 43.3777 1692.54 43.1651 1692.28 42.9427C1692.15 42.8337 1692.02 42.7232 1691.89 42.6091C1691.86 42.5813 1691.83 42.557 1691.81 42.5291C1691.81 42.5369 1691.74 42.4692 1691.77 42.4951C1691.79 42.5152 1691.74 42.475 1691.74 42.4692C1691.67 42.4092 1691.61 42.3457 1691.55 42.2842C1691.05 41.8023 1690.59 41.2811 1690.18 40.7302C1689.95 40.4218 1689.73 40.1023 1689.52 39.7735C1689.44 39.6498 1689.23 39.6432 1689.13 39.7347C1689 39.8474 1689 39.9957 1689.09 40.1307L1689.09 40.1275Z" fill="#6E3B46"/>
<path d="M1695.43 49.0274C1694.74 49.9916 1694.05 50.9521 1693.36 51.9163C1693.17 52.1915 1692.97 52.4667 1692.77 52.7435C1692.69 52.8618 1692.71 53.0518 1692.84 53.1337C1692.96 53.2156 1693.14 53.1933 1693.23 53.0666C1693.92 52.1025 1694.61 51.1418 1695.29 50.1777C1695.49 49.9025 1695.69 49.6273 1695.89 49.3506C1695.97 49.2322 1695.94 49.0423 1695.82 48.9603C1695.69 48.8784 1695.52 48.9007 1695.43 49.0274Z" fill="#6E3B46"/>
<path d="M1577.04 189.787C1575.58 190.199 1574.06 190.615 1572.55 190.42C1571.03 190.226 1569.51 189.264 1569.12 187.767C1568.69 186.102 1569.73 184.462 1570.45 182.9C1571.02 181.64 1571.42 180.237 1571.2 178.866C1570.98 177.547 1570.22 176.399 1569.65 175.192C1569.08 173.985 1568.71 172.537 1569.29 171.336C1569.61 170.666 1570.19 170.164 1570.61 169.556C1571.56 168.208 1571.7 166.464 1572.14 164.87C1572.58 163.275 1573.6 161.588 1575.22 161.39C1577.21 161.146 1578.71 163.316 1579.03 165.328C1579.34 167.34 1578.98 169.459 1579.63 171.388C1580.14 172.942 1581.26 174.2 1582.16 175.566C1583.05 176.932 1583.76 178.607 1583.31 180.184C1583.07 181.047 1582.51 181.782 1582.21 182.63C1581.71 184.102 1582.07 185.758 1581.65 187.256C1580.95 189.692 1577.93 191.116 1575.65 190.08" fill="#7A9756"/>
<path d="M1575.38 169.859C1575.44 171.487 1575.49 173.114 1575.52 174.744C1575.56 176.37 1575.58 177.997 1575.58 179.625C1575.59 181.251 1575.58 182.88 1575.55 184.506C1575.53 186.132 1575.49 187.772 1575.44 189.403C1575.38 191.03 1575.32 192.655 1575.23 194.28C1575.22 194.482 1575.21 194.684 1575.2 194.887C1575.19 195.131 1575.56 195.168 1575.57 194.924C1575.66 193.294 1575.73 191.662 1575.79 190.029C1575.85 188.397 1575.89 186.764 1575.92 185.132C1575.95 183.499 1575.96 181.854 1575.96 180.214C1575.96 178.581 1575.94 176.948 1575.91 175.316C1575.88 173.68 1575.83 172.043 1575.77 170.408C1575.76 170.205 1575.76 170.003 1575.75 169.8C1575.74 169.698 1575.63 169.627 1575.53 169.642C1575.43 169.66 1575.38 169.757 1575.38 169.86L1575.38 169.859Z" fill="#6E3B46"/>
<path d="M1573.2 175.871C1573.7 176.677 1574.32 177.4 1575.03 178.022C1575.23 178.198 1575.44 178.363 1575.65 178.521C1575.73 178.578 1575.86 178.561 1575.91 178.475C1575.97 178.39 1575.95 178.273 1575.87 178.211C1575.68 178.073 1575.5 177.929 1575.32 177.778C1575.23 177.704 1575.15 177.629 1575.06 177.552C1575.05 177.533 1575.03 177.517 1575.01 177.498C1575.01 177.503 1574.96 177.457 1574.98 177.475C1575 177.488 1574.97 177.461 1574.96 177.457C1574.92 177.417 1574.87 177.374 1574.83 177.332C1574.5 177.005 1574.2 176.652 1573.92 176.279C1573.77 176.07 1573.62 175.854 1573.48 175.631C1573.43 175.547 1573.29 175.543 1573.22 175.605C1573.14 175.681 1573.14 175.782 1573.19 175.873L1573.2 175.871Z" fill="#6E3B46"/>
<path d="M1577.42 181.9C1576.96 182.553 1576.5 183.204 1576.04 183.857C1575.91 184.043 1575.78 184.23 1575.65 184.417C1575.59 184.497 1575.61 184.626 1575.69 184.682C1575.78 184.737 1575.89 184.722 1575.95 184.636C1576.41 183.983 1576.87 183.332 1577.33 182.679C1577.46 182.493 1577.59 182.306 1577.73 182.119C1577.78 182.039 1577.76 181.91 1577.68 181.854C1577.6 181.799 1577.48 181.814 1577.42 181.9Z" fill="#6E3B46"/>
<path d="M676.465 444.723C675.081 444.995 673.74 445.771 673.267 447.086C672.846 448.252 672.977 449.543 672.662 450.739C672.181 452.562 670.752 453.957 669.606 455.461C668.46 456.964 667.536 458.942 668.251 460.684C668.746 461.887 669.966 462.796 670.069 464.081C670.148 465.084 669.52 465.993 669.231 466.956C668.654 468.851 669.459 470.987 670.923 472.326C672.388 473.666 674.411 474.294 676.403 474.397C678.356 474.504 680.412 474.098 681.922 472.866C683.432 471.633 684.237 469.455 683.477 467.667C683.036 466.631 682.128 465.782 681.938 464.678C681.452 461.855 685.783 459.493 684.635 456.858C684.225 455.912 683.223 455.382 682.525 454.624C681.471 453.479 681.161 451.87 680.906 450.34C680.656 448.814 680.391 447.206 679.41 446.002C678.429 444.797 676.461 444.236 675.283 445.258" fill="#D8D86E"/>
<path d="M675.635 452.427C675.622 456.504 675.603 460.587 675.578 464.664C675.553 468.741 675.539 472.84 675.52 476.933C675.512 479.218 675.499 481.508 675.491 483.793C675.493 484.053 675.895 484.059 675.893 483.799C675.906 479.733 675.925 475.673 675.944 471.612C675.963 467.552 675.983 463.425 676.002 459.332C676.01 457.036 676.023 454.735 676.031 452.439C676.03 452.179 675.628 452.173 675.629 452.433L675.635 452.427Z" fill="#6E3B46"/>
<path d="M674.041 455.822C674.538 456.848 675.053 457.868 675.556 458.888C675.67 459.117 676.025 458.928 675.917 458.694C675.419 457.669 674.904 456.648 674.401 455.628C674.287 455.4 673.933 455.588 674.041 455.822Z" fill="#6E3B46"/>
<path d="M675.996 467.956C677.979 466.847 679.266 464.87 679.741 462.692C679.796 462.444 679.407 462.327 679.352 462.586C678.895 464.659 677.693 466.544 675.8 467.599C675.575 467.729 675.765 468.08 675.996 467.956Z" fill="#6E3B46"/>
<path d="M1173.46 126.394C1172.84 126.995 1172.03 127.356 1171.33 127.861C1169.91 128.887 1168.95 130.596 1169 132.353C1169.05 134.11 1170.21 135.835 1171.88 136.363C1173.66 136.932 1175.57 136.135 1177.44 136.064C1181.1 135.927 1184.55 138.564 1188.15 137.963C1190.69 137.541 1192.82 135.566 1195.38 135.398C1197 135.292 1198.59 135.928 1200.21 135.959C1202.81 136.008 1205.36 134.334 1206.36 131.917C1206.81 130.829 1206.94 129.49 1206.25 128.533C1205.69 127.744 1204.7 127.381 1204.01 126.7C1202.81 125.514 1202.72 123.643 1202.41 121.975C1202.11 120.309 1201.19 118.419 1199.51 118.264C1197.79 118.106 1196.23 119.916 1194.57 119.453C1193.59 119.179 1193 118.213 1192.3 117.472C1190.5 115.568 1187.44 115.018 1185.09 116.177C1182.36 117.53 1182.35 120.691 1177.28 120.417C1172.2 120.142 1174.62 125.265 1173.46 126.397L1173.46 126.394Z" fill="#8BB546"/>
<path d="M1186.68 122.805C1186.75 124.126 1186.82 125.447 1186.89 126.771C1186.96 128.094 1187.04 129.399 1187.11 130.715L1187.23 132.944C1187.24 133.111 1187.41 133.252 1187.58 133.229C1187.75 133.204 1187.87 133.06 1187.86 132.882C1187.79 131.56 1187.71 130.239 1187.64 128.916C1187.57 127.601 1187.5 126.287 1187.43 124.971C1187.39 124.228 1187.35 123.485 1187.3 122.742C1187.29 122.576 1187.12 122.435 1186.96 122.457C1186.78 122.483 1186.67 122.626 1186.68 122.805Z" fill="#6E3B46"/>
<path d="M1182.6 125.848C1182.85 126.537 1183.32 127.145 1183.89 127.596C1184.47 128.045 1185.16 128.354 1185.89 128.463C1186.29 128.524 1186.71 128.524 1187.11 128.451C1187.19 128.435 1187.27 128.402 1187.32 128.333C1187.37 128.274 1187.4 128.18 1187.39 128.104C1187.37 127.944 1187.22 127.788 1187.05 127.819C1186.9 127.845 1186.75 127.863 1186.6 127.87C1186.52 127.873 1186.45 127.875 1186.37 127.873C1186.36 127.873 1186.35 127.873 1186.34 127.871C1186.34 127.871 1186.43 127.875 1186.38 127.872C1186.36 127.871 1186.34 127.871 1186.33 127.87C1186.29 127.868 1186.25 127.866 1186.21 127.862C1186.06 127.849 1185.91 127.827 1185.77 127.794C1185.69 127.779 1185.62 127.761 1185.54 127.74C1185.52 127.734 1185.51 127.729 1185.49 127.723C1185.44 127.709 1185.57 127.748 1185.5 127.726C1185.46 127.714 1185.43 127.703 1185.39 127.691C1185.25 127.641 1185.11 127.583 1184.97 127.518C1184.9 127.486 1184.83 127.451 1184.77 127.414C1184.73 127.395 1184.7 127.377 1184.67 127.358C1184.65 127.349 1184.64 127.34 1184.62 127.331C1184.61 127.321 1184.58 127.3 1184.65 127.349C1184.65 127.343 1184.64 127.339 1184.63 127.333C1184.37 127.171 1184.13 126.98 1183.92 126.764C1183.91 126.757 1183.9 126.749 1183.9 126.743C1183.86 126.707 1183.94 126.791 1183.92 126.765C1183.9 126.749 1183.89 126.735 1183.88 126.72C1183.85 126.688 1183.82 126.655 1183.79 126.624C1183.73 126.559 1183.68 126.491 1183.63 126.423C1183.53 126.285 1183.43 126.139 1183.35 125.988L1183.39 126.063C1183.32 125.919 1183.25 125.772 1183.19 125.619C1183.14 125.466 1182.94 125.368 1182.79 125.437C1182.63 125.506 1182.54 125.68 1182.61 125.846L1182.6 125.848Z" fill="#6E3B46"/>
<path d="M1187.76 130.234C1188.74 130.531 1189.8 130.573 1190.81 130.389C1191.85 130.202 1192.85 129.792 1193.71 129.177C1194.18 128.835 1194.62 128.426 1194.99 127.967C1195.1 127.838 1195.08 127.622 1194.94 127.522C1194.81 127.422 1194.61 127.435 1194.5 127.572C1194.4 127.695 1194.3 127.817 1194.18 127.932C1194.13 127.989 1194.08 128.044 1194.02 128.099C1193.98 128.136 1194.07 128.046 1194.03 128.093C1194.01 128.105 1194 128.118 1193.98 128.131C1193.95 128.16 1193.92 128.191 1193.89 128.219C1193.66 128.43 1193.4 128.625 1193.14 128.799C1192.99 128.9 1192.84 128.993 1192.68 129.08L1192.75 129.039C1192.22 129.333 1191.64 129.555 1191.05 129.698L1191.13 129.679C1190.7 129.782 1190.26 129.845 1189.82 129.861C1189.71 129.866 1189.6 129.868 1189.5 129.866C1189.47 129.866 1189.44 129.865 1189.42 129.865C1189.41 129.865 1189.39 129.864 1189.39 129.864C1189.32 129.863 1189.47 129.866 1189.4 129.865C1189.35 129.862 1189.29 129.861 1189.24 129.857C1189.02 129.843 1188.8 129.817 1188.59 129.78C1188.34 129.738 1188.1 129.681 1187.86 129.609C1187.79 129.587 1187.68 129.624 1187.62 129.666C1187.56 129.712 1187.51 129.793 1187.5 129.87C1187.49 129.954 1187.5 130.044 1187.56 130.11C1187.61 130.176 1187.68 130.21 1187.76 130.234L1187.76 130.234Z" fill="#6E3B46"/>
<path d="M1192.01 128.016C1192.03 128.439 1192.05 128.861 1192.08 129.284C1192.09 129.45 1192.26 129.591 1192.42 129.568C1192.6 129.543 1192.71 129.4 1192.7 129.221C1192.68 128.798 1192.66 128.376 1192.64 127.953C1192.63 127.787 1192.45 127.646 1192.29 127.669C1192.12 127.694 1192 127.837 1192.01 128.016Z" fill="#6E3B46"/>
<path d="M1184.37 127.589C1183.84 127.927 1183.31 128.266 1182.78 128.603C1182.64 128.692 1182.62 128.921 1182.72 129.047C1182.83 129.189 1183.01 129.209 1183.16 129.114C1183.69 128.777 1184.21 128.438 1184.74 128.1C1184.88 128.011 1184.91 127.783 1184.81 127.656C1184.69 127.514 1184.52 127.494 1184.37 127.589Z" fill="#6E3B46"/>
<path d="M1187.13 125.224C1188.07 125.243 1189 124.693 1189.48 123.898C1189.63 123.647 1189.74 123.386 1189.81 123.1C1189.85 122.938 1189.71 122.755 1189.55 122.736C1189.37 122.714 1189.23 122.825 1189.19 122.998C1189.18 123.03 1189.17 123.061 1189.16 123.092C1189.16 123.123 1189.18 123.044 1189.18 123.05C1189.17 123.057 1189.17 123.064 1189.17 123.071C1189.17 123.088 1189.16 123.105 1189.15 123.12C1189.13 123.181 1189.11 123.24 1189.08 123.3C1189.06 123.36 1189.03 123.417 1189 123.473C1188.99 123.487 1188.98 123.499 1188.98 123.513C1188.97 123.525 1188.94 123.58 1188.97 123.529C1189 123.478 1188.97 123.529 1188.96 123.539C1188.95 123.553 1188.94 123.568 1188.94 123.582C1188.86 123.689 1188.79 123.792 1188.7 123.888C1188.68 123.911 1188.65 123.935 1188.63 123.958C1188.62 123.969 1188.61 123.979 1188.6 123.99C1188.58 124.014 1188.64 123.954 1188.63 123.959C1188.63 123.97 1188.61 123.978 1188.61 123.985C1188.56 124.029 1188.51 124.07 1188.46 124.111C1188.35 124.204 1188.22 124.284 1188.1 124.356L1188.17 124.314C1187.98 124.419 1187.78 124.498 1187.56 124.549L1187.65 124.53C1187.46 124.575 1187.27 124.596 1187.07 124.591C1187 124.59 1186.91 124.652 1186.86 124.71C1186.81 124.768 1186.78 124.862 1186.79 124.939C1186.8 125.021 1186.84 125.104 1186.91 125.155C1186.98 125.206 1187.05 125.222 1187.14 125.224L1187.13 125.224Z" fill="#6E3B46"/>
<path d="M1751.21 348.792C1747.57 358.364 1755.2 360.961 1757.85 361.572C1762 362.524 1766.67 362.466 1770.18 360.197C1773.69 357.934 1775.42 353.089 1773.1 349.75C1772.6 349.025 1771.94 348.405 1771.44 347.671C1769.59 344.925 1770.36 341.226 1768.84 338.301C1767.16 335.06 1762.48 333.529 1758.99 335.083C1755.31 336.726 1753.76 340.775 1752.58 344.419C1751.76 346.928 1750.93 349.442 1750.11 351.951" fill="#90B249"/>
<path d="M1760.56 345.304C1760.4 348.124 1760.24 350.939 1760.09 353.759C1759.93 356.579 1759.77 359.394 1759.62 362.214C1759.52 363.815 1759.44 365.412 1759.35 367.013C1759.34 367.197 1759.55 367.34 1759.74 367.328C1759.96 367.314 1760.06 367.15 1760.07 366.965C1760.23 364.145 1760.38 361.33 1760.54 358.51C1760.7 355.691 1760.85 352.875 1761.01 350.056C1761.1 348.454 1761.19 346.858 1761.28 345.257C1761.29 345.072 1761.07 344.93 1760.89 344.942C1760.67 344.956 1760.57 345.12 1760.56 345.304Z" fill="#6E3B46"/>
<path d="M1757.26 348.598C1757.6 350.257 1758.71 351.698 1760.32 352.49C1760.73 352.691 1761.04 352.083 1760.63 351.878C1759.28 351.209 1758.26 349.962 1757.99 348.55C1757.95 348.369 1757.81 348.222 1757.6 348.235C1757.42 348.247 1757.23 348.417 1757.26 348.598Z" fill="#6E3B46"/>
<path d="M1764.15 354.443C1763.5 356.265 1762.02 357.791 1760.11 358.53C1759.68 358.697 1759.91 359.34 1760.35 359.173C1762.43 358.365 1764.09 356.733 1764.81 354.732C1764.87 354.558 1764.83 354.363 1764.63 354.282C1764.47 354.212 1764.21 354.265 1764.15 354.443Z" fill="#6E3B46"/>
<path d="M1296.83 104.219C1292.82 115.912 1301.23 119.085 1304.15 119.831C1308.72 120.995 1313.86 120.923 1317.73 118.152C1321.6 115.386 1323.51 109.467 1320.95 105.388C1320.4 104.503 1319.67 103.745 1319.13 102.849C1317.08 99.4934 1317.94 94.9752 1316.26 91.4015C1314.41 87.4412 1309.24 85.5708 1305.4 87.4694C1301.35 89.4771 1299.64 94.4232 1298.34 98.8755C1297.43 101.941 1296.52 105.012 1295.62 108.078" fill="#90B249"/>
<path d="M1307.13 99.9572C1306.95 103.402 1306.78 106.841 1306.61 110.286C1306.44 113.731 1306.27 117.171 1306.09 120.616C1305.99 122.572 1305.9 124.522 1305.8 126.478C1305.79 126.704 1306.02 126.878 1306.22 126.863C1306.47 126.846 1306.59 126.646 1306.6 126.42C1306.77 122.975 1306.94 119.536 1307.11 116.091C1307.29 112.646 1307.46 109.207 1307.63 105.762C1307.73 103.806 1307.83 101.855 1307.93 99.8992C1307.94 99.6739 1307.7 99.4996 1307.5 99.5141C1307.26 99.5317 1307.14 99.7319 1307.13 99.9572Z" fill="#6E3B46"/>
<path d="M1303.5 103.981C1303.87 106.007 1305.1 107.769 1306.87 108.735C1307.32 108.981 1307.67 108.239 1307.21 107.988C1305.72 107.171 1304.6 105.647 1304.3 103.923C1304.26 103.702 1304.11 103.521 1303.87 103.538C1303.67 103.552 1303.46 103.76 1303.5 103.981Z" fill="#6E3B46"/>
<path d="M1311.09 111.122C1310.37 113.348 1308.74 115.212 1306.64 116.115C1306.16 116.319 1306.42 117.105 1306.9 116.901C1309.19 115.913 1311.02 113.919 1311.81 111.475C1311.88 111.262 1311.83 111.025 1311.62 110.925C1311.45 110.839 1311.15 110.904 1311.09 111.122Z" fill="#6E3B46"/>
<path d="M119.067 325.963C116.864 326.533 114.587 327.108 112.32 326.838C110.052 326.571 107.768 325.242 107.186 323.175C106.539 320.876 108.092 318.611 109.168 316.454C110.037 314.714 110.629 312.776 110.293 310.882C109.968 309.061 108.826 307.476 107.977 305.809C107.127 304.142 106.568 302.143 107.434 300.484C107.916 299.559 108.784 298.865 109.422 298.025C110.842 296.164 111.049 293.756 111.712 291.554C112.374 289.353 113.906 287.022 116.333 286.749C119.321 286.413 121.571 289.408 122.041 292.187C122.511 294.966 121.97 297.892 122.938 300.556C123.717 302.702 125.39 304.44 126.734 306.325C128.078 308.211 129.138 310.525 128.471 312.703C128.106 313.895 127.26 314.909 126.822 316.081C126.063 318.113 126.612 320.4 125.972 322.469C124.932 325.832 120.394 327.799 116.976 326.368" fill="#7A9756"/>
<path d="M116.567 298.444C116.662 300.693 116.736 302.94 116.786 305.19C116.837 307.436 116.868 309.683 116.874 311.93C116.882 314.176 116.867 316.425 116.832 318.671C116.797 320.916 116.737 323.181 116.657 325.434C116.577 327.68 116.473 329.924 116.349 332.168C116.333 332.447 116.318 332.726 116.301 333.007C116.282 333.344 116.841 333.395 116.86 333.058C116.99 330.806 117.099 328.553 117.185 326.299C117.271 324.044 117.333 321.79 117.376 319.535C117.419 317.28 117.437 315.008 117.437 312.745C117.433 310.489 117.41 308.233 117.364 305.98C117.318 303.721 117.249 301.461 117.158 299.202C117.147 298.923 117.135 298.643 117.124 298.363C117.117 298.222 116.94 298.124 116.802 298.145C116.638 298.17 116.564 298.303 116.568 298.446L116.567 298.444Z" fill="#6E3B46"/>
<path d="M113.293 306.747C114.044 307.86 114.976 308.859 116.043 309.718C116.344 309.96 116.658 310.188 116.979 310.406C117.098 310.485 117.288 310.461 117.37 310.343C117.452 310.225 117.43 310.063 117.303 309.978C117.021 309.787 116.746 309.588 116.479 309.38C116.35 309.278 116.223 309.175 116.097 309.068C116.068 309.042 116.038 309.019 116.009 308.993C116.015 309 115.943 308.937 115.971 308.961C115.994 308.98 115.948 308.943 115.943 308.937C115.877 308.881 115.812 308.822 115.749 308.764C115.255 308.313 114.797 307.826 114.384 307.31C114.15 307.022 113.93 306.723 113.724 306.415C113.646 306.3 113.432 306.293 113.328 306.379C113.203 306.485 113.204 306.623 113.289 306.75L113.293 306.747Z" fill="#6E3B46"/>
<path d="M119.631 315.072C118.943 315.974 118.255 316.873 117.567 317.775C117.371 318.032 117.174 318.29 116.975 318.549C116.89 318.659 116.916 318.837 117.042 318.914C117.168 318.99 117.341 318.969 117.432 318.851C118.12 317.949 118.808 317.05 119.496 316.148C119.693 315.891 119.89 315.634 120.088 315.375C120.173 315.264 120.147 315.086 120.022 315.01C119.896 314.933 119.722 314.954 119.631 315.072Z" fill="#6E3B46"/>
<path d="M345.632 300.437C343.984 300.765 342.388 301.699 341.825 303.282C341.324 304.687 341.48 306.241 341.105 307.681C340.533 309.877 338.831 311.556 337.467 313.367C336.103 315.177 335.002 317.558 335.854 319.656C336.443 321.104 337.896 322.199 338.018 323.746C338.112 324.954 337.364 326.048 337.021 327.208C336.334 329.489 337.291 332.062 339.035 333.674C340.778 335.287 343.186 336.044 345.558 336.167C347.883 336.296 350.33 335.808 352.128 334.324C353.926 332.839 354.884 330.216 353.98 328.064C353.454 326.817 352.373 325.794 352.148 324.465C351.569 321.066 356.725 318.221 355.358 315.049C354.87 313.909 353.677 313.272 352.847 312.359C351.592 310.981 351.222 309.044 350.918 307.2C350.621 305.364 350.305 303.427 349.138 301.977C347.97 300.527 345.627 299.851 344.225 301.081" fill="#D8D86E"/>
<path d="M344.644 309.714C344.628 314.623 344.605 319.539 344.576 324.448C344.547 329.357 344.53 334.292 344.507 339.221C344.498 341.972 344.482 344.73 344.473 347.481C344.474 347.794 344.953 347.801 344.951 347.488C344.967 342.592 344.989 337.703 345.012 332.814C345.034 327.925 345.058 322.957 345.081 318.028C345.09 315.263 345.106 312.492 345.116 309.728C345.114 309.415 344.635 309.408 344.637 309.721L344.644 309.714Z" fill="#6E3B46"/>
<path d="M342.746 313.802C343.338 315.036 343.951 316.265 344.55 317.493C344.686 317.768 345.108 317.542 344.979 317.26C344.387 316.025 343.774 314.797 343.175 313.568C343.04 313.293 342.617 313.52 342.746 313.802Z" fill="#6E3B46"/>
<path d="M345.073 328.412C347.434 327.077 348.967 324.696 349.533 322.073C349.597 321.774 349.134 321.634 349.069 321.946C348.525 324.442 347.094 326.712 344.841 327.982C344.572 328.138 344.799 328.561 345.073 328.412Z" fill="#6E3B46"/>
<path d="M278.485 467.896C277.84 468.518 277.001 468.891 276.273 469.413C274.797 470.473 273.797 472.24 273.85 474.057C273.904 475.874 275.109 477.657 276.842 478.203C278.702 478.791 280.687 477.967 282.635 477.894C286.436 477.752 290.028 480.479 293.78 479.857C296.417 479.421 298.636 477.379 301.304 477.205C302.988 477.096 304.637 477.753 306.325 477.786C309.03 477.836 311.684 476.105 312.728 473.606C313.199 472.482 313.329 471.097 312.616 470.108C312.028 469.292 311.004 468.916 310.286 468.213C309.036 466.987 308.938 465.052 308.62 463.327C308.301 461.605 307.343 459.651 305.6 459.491C303.814 459.327 302.189 461.199 300.459 460.72C299.438 460.437 298.823 459.439 298.092 458.672C296.218 456.704 293.033 456.135 290.596 457.333C287.75 458.732 287.746 462.001 282.46 461.717C277.174 461.433 279.698 466.729 278.488 467.899L278.485 467.896Z" fill="#8BB546"/>
<path d="M292.243 464.186C292.318 465.552 292.394 466.918 292.469 468.286C292.543 469.654 292.618 471.003 292.693 472.364L292.821 474.668C292.83 474.84 293.01 474.986 293.18 474.963C293.362 474.937 293.484 474.789 293.474 474.604C293.399 473.238 293.323 471.872 293.248 470.503C293.174 469.145 293.099 467.786 293.024 466.425C292.981 465.656 292.94 464.889 292.896 464.121C292.887 463.949 292.707 463.803 292.537 463.826C292.355 463.853 292.233 464.001 292.243 464.186Z" fill="#6E3B46"/>
<path d="M287.999 467.331C288.265 468.044 288.748 468.672 289.348 469.139C289.948 469.604 290.668 469.923 291.42 470.035C291.84 470.098 292.276 470.098 292.694 470.023C292.781 470.007 292.861 469.972 292.918 469.901C292.967 469.84 293 469.743 292.989 469.664C292.965 469.499 292.812 469.337 292.63 469.369C292.475 469.397 292.318 469.415 292.161 469.422C292.082 469.426 292.005 469.427 291.926 469.425C291.916 469.425 291.905 469.425 291.895 469.424C291.895 469.424 291.984 469.427 291.933 469.424C291.916 469.423 291.897 469.423 291.879 469.422C291.84 469.42 291.801 469.418 291.762 469.414C291.604 469.4 291.449 469.378 291.295 469.344C291.218 469.328 291.141 469.31 291.066 469.287C291.045 469.282 291.025 469.276 291.006 469.27C290.955 469.256 291.088 469.296 291.018 469.273C290.981 469.261 290.942 469.249 290.905 469.237C290.756 469.186 290.609 469.126 290.467 469.058C290.396 469.025 290.326 468.989 290.257 468.951C290.223 468.932 290.187 468.913 290.154 468.893C290.139 468.884 290.123 468.875 290.108 468.865C290.09 468.855 290.057 468.833 290.139 468.884C290.13 468.878 290.122 468.873 290.112 468.867C289.844 468.7 289.595 468.503 289.374 468.279C289.367 468.272 289.359 468.264 289.352 468.257C289.315 468.22 289.4 468.307 289.372 468.28C289.359 468.264 289.343 468.249 289.33 468.233C289.3 468.201 289.27 468.167 289.24 468.134C289.182 468.067 289.126 467.997 289.073 467.926C288.967 467.784 288.869 467.633 288.784 467.477L288.827 467.554C288.747 467.405 288.677 467.253 288.618 467.095C288.559 466.936 288.356 466.835 288.195 466.907C288.034 466.978 287.944 467.158 288.008 467.33L287.999 467.331Z" fill="#6E3B46"/>
<path d="M293.367 471.866C294.391 472.173 295.497 472.216 296.547 472.027C297.629 471.834 298.665 471.41 299.561 470.773C300.057 470.42 300.512 469.997 300.897 469.523C301.006 469.39 300.988 469.166 300.846 469.062C300.703 468.959 300.501 468.972 300.385 469.114C300.28 469.242 300.173 469.367 300.056 469.486C300.001 469.546 299.943 469.602 299.885 469.659C299.846 469.697 299.942 469.605 299.892 469.653C299.878 469.666 299.864 469.679 299.848 469.692C299.816 469.722 299.782 469.754 299.75 469.784C299.506 470.001 299.245 470.203 298.971 470.383C298.815 470.487 298.654 470.583 298.489 470.673L298.565 470.63C298.008 470.935 297.411 471.164 296.794 471.313L296.88 471.293C296.431 471.399 295.975 471.464 295.515 471.481C295.403 471.486 295.291 471.488 295.18 471.486C295.151 471.486 295.124 471.485 295.095 471.485C295.084 471.485 295.072 471.484 295.063 471.484C294.997 471.482 295.146 471.486 295.08 471.485C295.024 471.482 294.968 471.48 294.913 471.477C294.685 471.462 294.456 471.435 294.23 471.397C293.975 471.354 293.724 471.294 293.476 471.22C293.401 471.198 293.288 471.235 293.229 471.279C293.165 471.326 293.11 471.411 293.1 471.49C293.09 471.577 293.105 471.67 293.16 471.738C293.214 471.807 293.283 471.841 293.371 471.867L293.367 471.866Z" fill="#6E3B46"/>
<path d="M297.792 469.573C297.815 470.01 297.84 470.447 297.863 470.884C297.872 471.056 298.052 471.202 298.222 471.178C298.404 471.152 298.526 471.004 298.516 470.819C298.493 470.382 298.468 469.946 298.445 469.509C298.436 469.337 298.256 469.191 298.086 469.214C297.904 469.24 297.782 469.388 297.792 469.573Z" fill="#6E3B46"/>
<path d="M289.841 469.132C289.291 469.481 288.743 469.831 288.193 470.18C288.048 470.273 288.018 470.509 288.124 470.64C288.243 470.786 288.426 470.807 288.583 470.709C289.132 470.36 289.681 470.009 290.231 469.661C290.376 469.568 290.405 469.332 290.3 469.201C290.18 469.055 289.997 469.034 289.841 469.132Z" fill="#6E3B46"/>
<path d="M292.72 466.687C293.689 466.707 294.657 466.138 295.158 465.316C295.317 465.056 295.433 464.787 295.503 464.491C295.544 464.323 295.399 464.135 295.233 464.115C295.045 464.092 294.899 464.207 294.857 464.385C294.849 464.419 294.841 464.451 294.832 464.483C294.823 464.514 294.847 464.433 294.846 464.439C294.843 464.446 294.842 464.454 294.839 464.461C294.834 464.478 294.828 464.496 294.822 464.511C294.801 464.575 294.776 464.635 294.749 464.697C294.721 464.76 294.693 464.818 294.66 464.877C294.652 464.891 294.645 464.903 294.637 464.918C294.631 464.93 294.596 464.987 294.629 464.934C294.662 464.882 294.629 464.934 294.623 464.944C294.613 464.959 294.604 464.974 294.595 464.989C294.521 465.1 294.438 465.206 294.349 465.305C294.325 465.329 294.302 465.354 294.279 465.378C294.269 465.389 294.257 465.4 294.246 465.411C294.222 465.436 294.285 465.374 294.28 465.379C294.272 465.39 294.26 465.398 294.252 465.405C294.203 465.451 294.151 465.494 294.1 465.536C293.981 465.632 293.855 465.715 293.721 465.789L293.798 465.746C293.6 465.855 293.388 465.936 293.168 465.989L293.254 465.969C293.058 466.016 292.859 466.037 292.657 466.033C292.579 466.031 292.481 466.095 292.434 466.155C292.387 466.215 292.352 466.313 292.363 466.392C292.375 466.477 292.414 466.563 292.485 466.616C292.557 466.668 292.632 466.685 292.722 466.686L292.72 466.687Z" fill="#6E3B46"/>
<path d="M1749.71 112.734L1745.51 112.586L1745.36 116.784L1749.56 116.932L1749.71 112.734Z" fill="#A7CEED"/>
<path d="M1774.52 130.951L1741.25 129.778L1740.55 149.659L1773.82 150.832L1774.52 130.951Z" fill="#4F83C2"/>
<path d="M1742.37 116.668L1774.31 117.797L1776.93 131.031L1738.83 129.695L1742.37 116.668Z" fill="#A7CEED"/>
<path d="M1761.88 139.125L1753.27 138.822L1752.88 150.094L1761.48 150.397L1761.88 139.125Z" fill="white"/>
<path d="M1750.6 135.304L1743.91 135.068L1743.67 141.758L1750.36 141.994L1750.6 135.304Z" fill="white"/>
<path d="M1747.27 135.184L1747.03 141.868" stroke="#4F83C2" stroke-width="1.09" stroke-miterlimit="10"/>
<path d="M1750.49 138.642L1743.8 138.409" stroke="#4F83C2" stroke-width="1.09" stroke-miterlimit="10"/>
<path d="M1771.48 136.034L1764.79 135.798L1764.55 142.489L1771.24 142.725L1771.48 136.034Z" fill="white"/>
<path d="M1768.14 135.911L1767.91 142.606" stroke="#4F83C2" stroke-width="1.09" stroke-miterlimit="10"/>
<path d="M1771.36 139.376L1764.67 139.143" stroke="#4F83C2" stroke-width="1.09" stroke-miterlimit="10"/>
<path d="M1694.26 136.141L1690.05 136.129L1690.04 140.33L1694.24 140.342L1694.26 136.141Z" fill="#A7CEED"/>
<path d="M1719.64 153.551L1686.35 153.454L1686.29 173.347L1719.58 173.444L1719.64 153.551Z" fill="#A7CEED"/>
<path d="M1687.06 140.318L1719.01 140.41L1722.05 153.555L1683.93 153.442L1687.06 140.318Z" fill="#4F83C2"/>
<path d="M1707.27 162.121L1698.66 162.096L1698.63 173.374L1707.23 173.4L1707.27 162.121Z" fill="white"/>
<path d="M1695.89 158.668L1689.19 158.649L1689.17 165.344L1695.87 165.363L1695.89 158.668Z" fill="white"/>
<path d="M1692.54 158.662L1692.52 165.356" stroke="#4F83C2" stroke-width="1.09" stroke-miterlimit="10"/>
<path d="M1695.88 162.019L1689.18 161.999" stroke="#4F83C2" stroke-width="1.09" stroke-miterlimit="10"/>
<path d="M1716.76 158.73L1710.06 158.711L1710.04 165.406L1716.74 165.425L1716.76 158.73Z" fill="white"/>
<path d="M1713.42 158.72L1713.4 165.414" stroke="#4F83C2" stroke-width="1.09" stroke-miterlimit="10"/>
<path d="M1716.75 162.077L1710.06 162.057" stroke="#4F83C2" stroke-width="1.09" stroke-miterlimit="10"/>
<g clip-path="url(#clip0_4109_2180)">
<path d="M242.536 259.663C243.2 259.176 243.597 258.345 243.563 257.515C243.53 256.693 243.058 255.896 242.36 255.459C242.039 255.257 241.631 255.133 241.272 255.259C240.912 255.385 240.655 255.824 240.835 256.16C240.35 256.083 239.903 255.857 239.417 255.757C238.94 255.656 238.368 255.705 238.056 256.081C237.744 256.458 237.926 257.186 238.419 257.208C237.801 257.225 237.167 257.375 236.667 257.737C236.167 258.106 235.824 258.71 235.873 259.328C235.921 259.946 236.416 260.532 237.035 260.578C236.441 261.245 236.476 262.388 237.119 263.02C237.308 263.2 237.527 263.34 237.77 263.457C238.381 263.745 239.11 263.86 239.743 263.6C240.377 263.34 240.845 262.666 240.725 262.001" fill="#FFD9A8"/>
<path d="M248.42 264.697C247.62 264.097 246.486 264.256 245.885 265.049C245.861 265.08 245.838 265.119 245.815 265.151C245.643 265.37 245.558 265.644 245.535 265.965C245.527 266.059 245.528 266.153 245.536 266.255C245.652 268.846 249.274 273.69 251.14 274.93C251.14 274.93 251.258 275.047 251.321 275.094C251.995 275.593 252.942 275.466 253.434 274.799C253.902 274.171 253.805 273.303 253.24 272.78C250.547 269.538 249.065 265.604 249.065 265.604C248.946 265.252 248.726 264.939 248.413 264.697L248.42 264.697Z" fill="#FAB196"/>
<path d="M251.181 269.52C250.048 267.347 249.816 265.57 248.601 264.728C247.777 264.159 246.846 264.169 246.213 264.938C246.19 264.969 246.167 265.009 246.135 265.04C245.956 265.252 245.855 265.526 245.824 265.839C245.809 265.933 245.809 266.027 245.809 266.129C245.813 267.319 246.704 269.806 247.647 271.416C247.647 271.416 249.493 270.824 251.181 269.52Z" fill="white"/>
<path d="M258.615 268.687C258.358 268.836 257.607 269.402 257.092 269.842C256.482 270.235 256.297 271.041 256.69 271.659C257.075 272.261 257.874 272.446 258.483 272.077C258.483 272.077 259.625 271.471 260.469 270.827C261.539 270.01 261.241 269.713 261.241 269.713C261.241 269.713 261.608 269.321 261.341 269.095C261.341 269.095 261.622 268.718 261.293 268.594C261.293 268.594 261.424 267.85 260.744 268.431C260.135 268.949 259.134 269.421 258.907 269.344C258.672 269.266 259.274 268.951 259.359 268.646C259.437 268.348 258.889 268.545 258.631 268.695L258.615 268.687Z" fill="#FAB196"/>
<path d="M256.913 269.967C254.482 271.446 251.808 272.564 251.808 272.564L251.808 272.588C251.808 272.588 251.784 272.603 251.761 272.611C251.018 272.966 250.707 273.859 251.061 274.602C251.416 275.344 252.309 275.655 253.052 275.301C253.059 275.301 253.067 275.293 253.083 275.285C254.96 274.458 258.547 272.069 258.547 272.069C259.125 271.621 259.232 270.791 258.784 270.213C258.337 269.635 257.569 269.59 256.928 269.975L256.913 269.967Z" fill="#FAB196"/>
<path d="M236.46 292.255C237.492 292.057 238.488 292.727 238.687 293.76C238.885 294.793 238.215 295.789 237.182 295.987C237.111 296.003 237.041 296.011 236.97 296.019L235.765 296.249L235.254 298.341L234.167 292.715L236.436 292.263C236.436 292.263 236.452 292.263 236.46 292.263L236.46 292.255Z" fill="#182138"/>
<path d="M248.819 291.526C248.819 291.526 245.708 281.388 245.684 281.31C245.321 280.136 244.082 279.474 242.909 279.837C241.735 280.201 241.073 281.439 241.436 282.613C241.452 282.659 244.664 292.546 244.664 292.546C244.68 292.625 244.696 292.703 244.72 292.781C245.067 293.915 246.267 294.554 247.401 294.207C248.512 293.867 249.143 292.707 248.842 291.596L248.826 291.526L248.819 291.526Z" fill="#FA835F"/>
<path d="M248.78 291.777C248.558 290.611 247.437 289.846 246.271 290.061L235.458 292.406C235.55 294.582 236.18 296.248 236.18 296.248L247.065 294.286C248.231 294.064 248.995 292.942 248.78 291.777Z" fill="#FA835F"/>
<path d="M247.764 277.499L245.371 278.288L245.324 278.304L242.93 279.093L240.513 279.89L241.366 282.479C241.634 283.301 242.418 283.925 243.288 283.954L246.505 284.086L247.155 283.873L247.202 283.858C247.632 283.715 248.038 283.495 248.39 283.212L250.366 281.626C251.038 281.084 251.302 280.12 251.034 279.299L250.181 276.71L247.764 277.507L247.764 277.499Z" fill="#FA835F"/>
<path d="M257.754 298.517C257.345 297.547 257.788 296.435 258.758 296.017C259.727 295.607 260.84 296.051 261.258 297.02C261.289 297.091 261.313 297.153 261.328 297.224L261.809 298.35L263.962 298.407L258.684 300.667L257.762 298.541C257.762 298.541 257.762 298.525 257.754 298.517Z" fill="#182138"/>
<path d="M253.895 289.907C253.895 289.907 247.282 281.619 247.235 281.556C246.465 280.595 246.626 279.193 247.587 278.432C248.548 277.662 249.95 277.823 250.711 278.784C250.743 278.823 257.09 287.057 257.09 287.057C257.145 287.112 257.2 287.174 257.247 287.237C257.985 288.167 257.832 289.514 256.91 290.252C256.004 290.974 254.696 290.845 253.943 289.97L253.895 289.907Z" fill="#FA835F"/>
<path d="M254.654 286.594C255.741 286.114 257.003 286.596 257.491 287.683L261.706 297.912C259.861 299.075 258.132 299.502 258.132 299.502L253.558 289.431C253.077 288.344 253.559 287.075 254.646 286.594L254.654 286.594Z" fill="#FA835F"/>
<path d="M238.626 258.686L238.618 258.686L238.618 258.694L238.626 258.686Z" fill="#FFBA9A"/>
<path d="M242.955 258.386C242.939 258.347 242.915 258.308 242.9 258.269C242.767 258.402 242.571 258.512 242.36 258.622C241.54 259.063 240.506 258.917 239.615 259.561C239.741 260.023 239.868 260.476 240.002 260.938C240.018 261.008 240.026 261.11 239.948 261.126C239.909 261.126 239.87 261.103 239.846 261.079C239.783 261.025 239.72 260.97 239.658 260.908C239.823 261.118 240.074 261.548 239.91 261.666C239.769 261.768 239.354 261.37 239.204 261.073C239.157 261.073 239.11 261.073 239.055 261.081C238.641 261.153 238.36 261.553 238.431 261.975C238.503 262.39 238.903 262.671 239.325 262.592C239.443 262.568 239.544 262.528 239.63 262.465L240.223 264.679C240.231 264.758 240.247 264.828 240.263 264.906C240.516 265.845 241.48 266.406 242.419 266.153C243.358 265.9 243.919 264.936 243.666 263.997C243.65 263.927 243.619 263.856 243.595 263.794L243.342 262.847C244.155 262.313 244.051 261.35 243.712 260.568C243.373 259.786 242.947 258.386 242.947 258.386L242.955 258.386Z" fill="#FAB196"/>
<path opacity="0.35" d="M243.342 262.847C243.342 262.847 242.959 263.114 242.365 263.218L243.603 263.833L243.342 262.847Z" fill="#FC6158"/>
<path d="M249.425 265.736C249.267 265.118 248.811 264.657 248.255 264.463C246.993 263.864 245.106 263.939 243.721 264.115C243.721 264.115 243.442 265.188 242.245 265.497C242.245 265.497 242.23 265.497 242.222 265.497C242.222 265.497 242.206 265.497 242.198 265.497C241.001 265.805 240.248 264.993 240.248 264.993C238.942 265.505 237.261 266.347 236.442 267.477C236.051 267.916 235.873 268.543 236.031 269.161C236.094 269.403 236.197 269.622 236.338 269.802L238.755 272.137L240.67 279.905C240.67 279.905 242.236 280.081 245.718 279.195C245.718 279.195 245.733 279.195 245.741 279.195C245.749 279.195 245.757 279.195 245.765 279.195C249.238 278.294 250.528 277.39 250.528 277.39L248.464 269.661L249.466 266.456C249.496 266.221 249.488 265.987 249.425 265.744L249.425 265.736Z" fill="white"/>
<path d="M239.786 268.094C239.611 267.108 238.677 266.445 237.699 266.612C237.66 266.612 237.621 266.628 237.574 266.636C237.3 266.684 237.05 266.825 236.816 267.045C236.746 267.108 236.675 267.179 236.621 267.249C234.919 269.211 234.238 275.225 234.745 277.408C234.745 277.408 234.753 277.572 234.769 277.65C234.912 278.472 235.689 279.034 236.51 278.891C237.277 278.756 237.808 278.057 237.751 277.29C238.014 273.086 239.632 269.206 239.632 269.206C239.788 268.877 239.849 268.493 239.778 268.11L239.786 268.094Z" fill="#FAB196"/>
<path d="M238.359 273.296C238.916 270.915 239.632 269.198 239.632 269.198C239.787 268.869 239.849 268.485 239.778 268.102C239.603 267.116 238.669 266.453 237.691 266.62C237.652 266.62 237.613 266.636 237.566 266.644C237.292 266.691 237.042 266.833 236.808 267.053C236.738 267.116 236.667 267.186 236.613 267.257C235.84 268.151 235.273 269.899 234.941 271.739C234.941 271.739 236.196 272.777 238.359 273.304L238.359 273.296Z" fill="white"/>
<path d="M244.421 277.422C244.132 277.368 243.184 277.308 242.511 277.301C241.79 277.194 241.126 277.697 241.019 278.417C240.919 279.13 241.398 279.786 242.103 279.902C242.103 279.902 243.364 280.188 244.429 280.248C245.776 280.323 245.743 279.908 245.743 279.908C245.743 279.908 246.283 279.852 246.22 279.499C246.22 279.499 246.681 279.396 246.508 279.092C246.508 279.092 247.094 278.613 246.194 278.607C245.395 278.609 244.33 278.307 244.204 278.103C244.078 277.892 244.744 278.047 245.002 277.866C245.26 277.686 244.711 277.484 244.414 277.43L244.421 277.422Z" fill="#FAB196"/>
<path d="M242.299 277.286C239.496 276.824 236.738 275.923 236.738 275.923L236.738 275.947C236.738 275.947 236.691 275.931 236.675 275.931C235.876 275.714 235.063 276.186 234.846 276.985C234.629 277.784 235.101 278.597 235.9 278.814C235.908 278.814 235.923 278.814 235.931 278.814C237.89 279.412 242.173 279.941 242.173 279.941C242.902 279.978 243.526 279.413 243.564 278.684C243.601 277.956 243.051 277.417 242.307 277.294L242.299 277.286Z" fill="#FAB196"/>
<path opacity="0.35" d="M242.82 260.813C242.915 260.946 243.142 260.937 243.329 260.812C243.525 260.678 243.602 260.466 243.516 260.334C243.422 260.201 243.195 260.209 243.007 260.335C242.819 260.461 242.734 260.68 242.82 260.813Z" fill="#FC6158"/>
<path opacity="0.35" d="M240.231 261.469C240.247 261.626 240.451 261.735 240.686 261.711C240.92 261.687 241.092 261.538 241.076 261.381C241.06 261.225 240.856 261.116 240.621 261.14C240.387 261.164 240.215 261.313 240.231 261.469Z" fill="#FC6158"/>
<path d="M300.509 266.064L300.241 265.102L312.155 261.83L314.467 253.729L327.437 250.164L327.706 251.134L315.275 254.549L312.964 262.65L300.509 266.064Z" fill="white"/>
<path d="M299.228 261.417L298.967 260.447L308.699 257.776L311.003 249.683L323.981 246.118L324.242 247.08L311.811 250.495L309.507 258.596L299.228 261.417Z" fill="white"/>
<path d="M298.027 257.036L297.766 256.074L305.425 253.971L307.729 245.87L327.804 240.361L328.064 241.323L308.538 246.682L306.234 254.783L298.027 257.036Z" fill="white"/>
<path d="M296.881 252.858L296.613 251.896L302.222 250.355L304.526 242.254L324.593 236.745L324.861 237.715L305.335 243.074L303.031 251.175L296.881 252.858Z" fill="white"/>
<path d="M325.603 237.22C325.601 236.329 324.877 235.609 323.986 235.611C323.095 235.614 322.375 236.338 322.378 237.228C322.38 238.119 323.104 238.839 323.995 238.837C324.885 238.834 325.605 238.11 325.603 237.22Z" fill="#FFD9A8"/>
<path d="M329.551 240.842C329.549 239.951 328.825 239.231 327.934 239.234C327.044 239.236 326.324 239.96 326.326 240.85C326.328 241.741 327.052 242.461 327.943 242.459C328.833 242.457 329.554 241.733 329.551 240.842Z" fill="#FFD9A8"/>
<path d="M325.722 246.598C325.72 245.708 324.996 244.988 324.105 244.99C323.215 244.992 322.494 245.716 322.497 246.607C322.499 247.498 323.223 248.218 324.114 248.215C325.004 248.213 325.724 247.489 325.722 246.598Z" fill="#FFD9A8"/>
<path d="M329.169 250.582C329.167 249.692 328.443 248.971 327.552 248.974C326.662 248.976 325.942 249.7 325.944 250.591C325.946 251.481 326.67 252.201 327.561 252.199C328.452 252.197 329.172 251.473 329.169 250.582Z" fill="#FFD9A8"/>
<path d="M298.219 237.33C297.247 236.918 296.798 235.8 297.21 234.836C297.451 234.271 297.928 233.894 298.476 233.752L297.155 228.815L248.087 241.924L249.407 246.86C249.806 246.758 250.237 246.764 250.644 246.943C251.616 247.356 252.065 248.474 251.653 249.438C251.412 250.002 250.935 250.379 250.388 250.522L260.863 289.772L309.932 276.663L299.448 237.405C299.049 237.508 298.619 237.502 298.211 237.323L298.219 237.33Z" fill="#4F83C2"/>
<path d="M289.192 234.41L282.409 236.221L282.299 239.18L267.255 243.197L265.612 240.704L258.79 242.522C256.224 243.21 254.665 245.821 255.337 248.332L263.654 279.462C264.326 281.973 266.976 283.461 269.543 282.774L299.944 274.654C302.51 273.966 304.069 271.355 303.397 268.844L295.08 237.714C294.408 235.203 291.758 233.715 289.192 234.402L289.192 234.41Z" fill="white"/>
<path d="M252.435 243.337C252.434 242.702 251.917 242.188 251.282 242.189C250.646 242.191 250.132 242.708 250.134 243.343C250.135 243.979 250.652 244.493 251.288 244.491C251.923 244.489 252.437 243.973 252.435 243.337Z" fill="#FFD9A8"/>
<path d="M296.239 231.636C296.237 231.001 295.721 230.487 295.085 230.488C294.45 230.49 293.936 231.007 293.937 231.642C293.939 232.278 294.456 232.792 295.091 232.79C295.727 232.788 296.241 232.272 296.239 231.636Z" fill="#FFD9A8"/>
<path d="M263.812 285.92C263.811 285.285 263.294 284.771 262.658 284.772C262.023 284.774 261.509 285.291 261.511 285.926C261.512 286.562 262.029 287.076 262.664 287.074C263.3 287.072 263.814 286.556 263.812 285.92Z" fill="#FFD9A8"/>
<path d="M307.608 274.227C307.606 273.591 307.09 273.077 306.454 273.079C305.819 273.081 305.305 273.597 305.307 274.233C305.308 274.868 305.825 275.382 306.46 275.381C307.096 275.379 307.61 274.862 307.608 274.227Z" fill="#FFD9A8"/>
<path d="M289.958 240.296L261.352 247.934C260.487 248.165 259.973 249.053 260.204 249.918L267.463 277.103C267.694 277.967 268.582 278.481 269.446 278.25L298.053 270.612C298.918 270.381 299.432 269.493 299.201 268.628L291.942 241.444C291.711 240.579 290.823 240.065 289.958 240.296Z" fill="#A7CEED"/>
<path d="M274.897 258.428C274.53 258.749 273.748 259.182 272.668 259.475C270.173 260.139 267.868 259.064 267.094 256.162C266.351 253.385 267.73 251.009 270.476 250.274C271.579 249.981 272.338 250.026 272.683 250.104L272.654 251.114C272.161 251.021 271.503 251.031 270.768 251.22C268.687 251.774 267.666 253.475 268.283 255.799C268.86 257.966 270.483 259.026 272.642 258.449C273.339 258.259 274.011 257.929 274.409 257.583L274.889 258.428L274.897 258.428Z" fill="#3C3352"/>
<path d="M274.076 249.576C274.607 249.339 275.303 249.063 276.227 248.818C277.361 248.518 278.254 248.555 278.912 248.89C279.508 249.178 279.971 249.748 280.185 250.538C280.398 251.328 280.329 252.033 280.01 252.613C279.581 253.421 278.683 254.01 277.564 254.311C277.22 254.405 276.899 254.477 276.625 254.477L277.574 258.029L276.432 258.337L274.091 249.583L274.076 249.576ZM276.364 253.546C276.63 253.546 276.951 253.49 277.335 253.387C278.711 253.016 279.375 252.122 279.05 250.901C278.734 249.728 277.763 249.386 276.495 249.726C275.994 249.86 275.627 250.002 275.439 250.104L276.356 253.547L276.364 253.546Z" fill="#3C3352"/>
<path d="M282.196 247.292L283.595 252.541C284.125 254.528 285.23 255.136 286.411 254.82C287.726 254.472 288.334 253.374 287.812 251.418L286.412 246.169L287.57 245.861L288.954 251.024C289.681 253.746 288.55 255.245 286.625 255.759C284.81 256.241 283.165 255.572 282.437 252.818L281.046 247.6L282.203 247.292L282.196 247.292Z" fill="#3C3352"/>
<path d="M284.087 261.516C282.991 260.672 280.543 262.012 278.62 264.509C276.697 267.007 276.026 269.715 277.123 270.559C278.219 271.404 280.666 270.064 282.59 267.566C284.513 265.069 285.183 262.36 284.087 261.516Z" fill="white"/>
</g>
<path d="M767.815 528.443C766.023 528.943 764.171 529.447 762.327 529.211C760.482 528.976 758.625 527.809 758.151 525.996C757.625 523.977 758.888 521.989 759.763 520.096C760.47 518.569 760.951 516.868 760.678 515.206C760.414 513.608 759.485 512.216 758.794 510.753C758.104 509.29 757.649 507.535 758.353 506.079C758.745 505.267 759.451 504.658 759.97 503.921C761.125 502.287 761.293 500.173 761.832 498.241C762.371 496.309 763.617 494.263 765.591 494.023C768.021 493.728 769.852 496.357 770.234 498.796C770.616 501.236 770.176 503.803 770.963 506.142C771.597 508.026 772.957 509.551 774.051 511.206C775.144 512.861 776.006 514.892 775.464 516.804C775.167 517.85 774.479 518.74 774.123 519.769C773.505 521.553 773.951 523.56 773.431 525.375C772.585 528.328 768.894 530.054 766.114 528.798" fill="#7A9756"/>
<path d="M765.781 504.288C765.859 506.262 765.919 508.234 765.96 510.209C766.001 512.181 766.026 514.153 766.031 516.126C766.038 518.097 766.025 520.071 765.997 522.042C765.968 524.013 765.919 526.001 765.854 527.978C765.789 529.95 765.705 531.92 765.604 533.889C765.591 534.134 765.579 534.379 765.565 534.625C765.549 534.921 766.004 534.966 766.02 534.67C766.126 532.694 766.214 530.716 766.284 528.737C766.354 526.759 766.405 524.78 766.44 522.801C766.475 520.822 766.489 518.827 766.489 516.84C766.486 514.861 766.467 512.881 766.429 510.903C766.392 508.92 766.336 506.936 766.262 504.954C766.253 504.708 766.243 504.463 766.234 504.217C766.229 504.093 766.085 504.007 765.972 504.026C765.839 504.048 765.779 504.165 765.782 504.29L765.781 504.288Z" fill="#6E3B46"/>
<path d="M763.119 511.576C763.729 512.553 764.487 513.43 765.355 514.183C765.6 514.397 765.855 514.596 766.117 514.788C766.213 514.857 766.368 514.836 766.435 514.732C766.501 514.629 766.483 514.487 766.38 514.412C766.151 514.244 765.927 514.07 765.709 513.887C765.605 513.798 765.502 513.707 765.399 513.613C765.375 513.59 765.351 513.571 765.327 513.548C765.332 513.554 765.274 513.498 765.296 513.52C765.315 513.536 765.278 513.503 765.274 513.498C765.221 513.449 765.168 513.397 765.116 513.347C764.714 512.951 764.342 512.523 764.006 512.071C763.815 511.817 763.636 511.555 763.469 511.285C763.405 511.183 763.231 511.178 763.147 511.253C763.045 511.346 763.046 511.467 763.115 511.578L763.119 511.576Z" fill="#6E3B46"/>
<path d="M768.273 518.883C767.714 519.675 767.155 520.464 766.595 521.256C766.435 521.481 766.275 521.707 766.113 521.935C766.044 522.032 766.065 522.188 766.168 522.255C766.27 522.322 766.411 522.304 766.485 522.2C767.045 521.408 767.604 520.62 768.164 519.828C768.324 519.602 768.484 519.376 768.646 519.149C768.715 519.052 768.694 518.896 768.591 518.828C768.489 518.761 768.348 518.779 768.273 518.883Z" fill="#6E3B46"/>
<defs>
<clipPath id="clip0_4109_2180">
<rect width="71.7593" height="95.5199" fill="white" transform="translate(234.188 300.731) rotate(-90.1496)"/>
</clipPath>
</defs>
</svg>
