<svg width="1920" height="486" viewBox="0 0 1920 486" fill="none" xmlns="http://www.w3.org/2000/svg">
<mask id="mask0_4257_1891" style="mask-type:alpha" maskUnits="userSpaceOnUse" x="0" y="0" width="2008" height="486">
<rect width="2008" height="486" fill="#D9D9D9"/>
</mask>
<g mask="url(#mask0_4257_1891)">
<path d="M-107 489C-107 489 -118.04 1080.35 -93.9979 395.404C-80.945 23.5351 468.827 -65.2106 683.665 126.636C898.567 318.525 1056.95 338.478 1163.06 326.943C1199.64 322.966 1763.1 216.223 2179.07 677.796L2166.06 489L-107 489Z" fill="#9CCD5A"/>
<path d="M242.12 216.02H237.18V211.08C237.18 209.93 236.25 209 235.1 209C233.95 209 233.02 209.93 233.02 211.08V216.02H228.08C226.93 216.02 226 216.95 226 218.1C226 219.25 226.93 220.18 228.08 220.18H233.02V225.12C233.02 226.27 233.95 227.2 235.1 227.2C236.25 227.2 237.18 226.27 237.18 225.12V220.18H242.12C243.27 220.18 244.2 219.25 244.2 218.1C244.2 216.95 243.27 216.02 242.12 216.02Z" fill="white"/>
<g opacity="0.8">
<path d="M209.738 245.918C207.246 237.861 199.741 232 190.859 232C181.977 232 174.239 238.058 171.874 246.32C163.924 248.227 158 255.365 158 263.902C158 273.894 166.098 282 176.096 282C179.393 282 182.478 281.103 185.147 279.564C187.809 281.11 190.894 282 194.191 282C196.592 282 198.879 281.52 200.976 280.673C203.073 281.52 205.361 282 207.761 282C217.759 282 225.857 273.901 225.857 263.902C225.857 254.574 218.804 246.899 209.738 245.918Z" fill="#C1DDF7"/>
<path d="M203.984 256.312C201.337 256.312 199.197 258.451 199.197 261.099C199.197 263.302 200.694 265.138 202.72 265.696V281.273C203.631 281.541 204.57 281.725 205.53 281.845V265.611C207.415 264.969 208.778 263.203 208.778 261.099C208.778 258.451 206.632 256.312 203.991 256.312H203.984Z" fill="#4F83C2"/>
<path d="M179.908 256.312C177.261 256.312 175.121 258.451 175.121 261.099C175.121 263.189 176.47 264.947 178.341 265.604V281.852C179.308 281.732 180.24 281.527 181.151 281.259V265.703C183.191 265.152 184.695 263.309 184.695 261.099C184.695 258.451 182.549 256.312 179.908 256.312Z" fill="#4F83C2"/>
<path d="M196.719 261.099C196.719 258.451 194.573 256.312 191.932 256.312C189.292 256.312 187.145 258.451 187.145 261.099C187.145 263.253 188.571 265.046 190.527 265.653V281.583C191.445 281.774 192.377 281.901 193.337 281.944V265.653C195.293 265.046 196.719 263.253 196.719 261.099Z" fill="#4F83C2"/>
</g>
<path d="M304.37 387.78H291.39C287.86 387.78 285 384.91 285 381.39C285 377.87 287.86 375 291.39 375C292.1 375 292.69 375.58 292.69 376.3C292.69 377.02 292.1 377.6 291.39 377.6C289.3 377.6 287.6 379.3 287.6 381.38C287.6 383.46 289.3 385.16 291.39 385.16H304.36C306.45 385.16 308.14 383.46 308.14 381.38C308.14 380.66 308.72 380.08 309.44 380.08C310.16 380.08 310.74 380.66 310.74 381.38C310.74 384.9 307.88 387.77 304.35 387.77L304.37 387.78Z" fill="#4F83C2"/>
<path d="M315.94 387.78H311.38C310.66 387.78 310.08 387.2 310.08 386.48C310.08 385.76 310.66 385.18 311.38 385.18H315.94C318.03 385.18 319.72 383.48 319.72 381.4C319.72 379.32 318.02 377.62 315.94 377.62H302.96C300.87 377.62 299.18 379.32 299.18 381.4C299.18 382.12 298.6 382.7 297.88 382.7C297.16 382.7 296.58 382.12 296.58 381.4C296.58 377.88 299.44 375.01 302.97 375.01H315.95C319.48 375.01 322.34 377.88 322.34 381.4C322.34 384.92 319.48 387.79 315.95 387.79L315.94 387.78Z" fill="#4F83C2"/>
<path d="M1456.55 347.816C1453.11 348.695 1449.55 349.579 1446.04 349.05C1442.53 348.524 1439.03 346.219 1438.2 342.737C1437.28 338.863 1439.77 335.122 1441.52 331.546C1442.93 328.66 1443.91 325.435 1443.46 322.251C1443.02 319.19 1441.3 316.495 1440.04 313.673C1438.78 310.851 1437.98 307.483 1439.39 304.734C1440.17 303.2 1441.54 302.068 1442.56 300.683C1444.83 297.613 1445.24 293.586 1446.35 289.921C1447.45 286.256 1449.92 282.404 1453.7 282.029C1458.35 281.569 1461.74 286.664 1462.37 291.336C1463 296.007 1462.06 300.889 1463.47 305.386C1464.6 309.008 1467.14 311.976 1469.16 315.181C1471.18 318.387 1472.74 322.299 1471.63 325.924C1471.02 327.909 1469.67 329.579 1468.95 331.527C1467.7 334.905 1468.47 338.756 1467.4 342.199C1465.67 347.798 1458.55 350.937 1453.29 348.422" fill="#83A655"/>
<path d="M1453.64 301.629C1453.71 305.4 1453.75 309.167 1453.75 312.938C1453.75 316.703 1453.71 320.467 1453.64 324.233C1453.58 327.995 1453.47 331.762 1453.34 335.523C1453.21 339.283 1453.03 343.075 1452.83 346.846C1452.63 350.607 1452.38 354.363 1452.11 358.118C1452.08 358.585 1452.04 359.051 1452.01 359.521C1451.97 360.085 1452.83 360.19 1452.87 359.626C1453.16 355.858 1453.41 352.086 1453.62 348.313C1453.83 344.54 1454.01 340.765 1454.16 336.99C1454.3 333.214 1454.41 329.408 1454.49 325.616C1454.56 321.837 1454.61 318.058 1454.62 314.282C1454.62 310.495 1454.6 306.707 1454.54 302.92C1454.53 302.451 1454.52 301.982 1454.51 301.513C1454.51 301.276 1454.24 301.106 1454.02 301.136C1453.77 301.173 1453.65 301.394 1453.65 301.632L1453.64 301.629Z" fill="#6E3B46"/>
<path d="M1448.27 315.426C1449.39 317.317 1450.81 319.022 1452.43 320.497C1452.89 320.914 1453.37 321.306 1453.86 321.682C1454.04 321.819 1454.34 321.785 1454.47 321.591C1454.6 321.396 1454.57 321.124 1454.38 320.977C1453.95 320.647 1453.53 320.304 1453.12 319.947C1452.92 319.772 1452.73 319.594 1452.54 319.411C1452.49 319.366 1452.45 319.327 1452.4 319.282C1452.41 319.295 1452.3 319.186 1452.35 319.228C1452.38 319.26 1452.31 319.196 1452.3 319.186C1452.2 319.09 1452.11 318.988 1452.01 318.89C1451.26 318.118 1450.56 317.285 1449.94 316.408C1449.59 315.916 1449.26 315.408 1448.95 314.886C1448.83 314.689 1448.5 314.671 1448.33 314.811C1448.14 314.984 1448.13 315.216 1448.26 315.43L1448.27 315.426Z" fill="#6E3B46"/>
<path d="M1457.82 329.591C1456.71 331.078 1455.61 332.56 1454.51 334.047C1454.2 334.471 1453.88 334.896 1453.57 335.323C1453.43 335.506 1453.47 335.804 1453.66 335.937C1453.85 336.069 1454.12 336.041 1454.27 335.845C1455.37 334.358 1456.47 332.876 1457.57 331.389C1457.88 330.964 1458.2 330.54 1458.52 330.113C1458.65 329.93 1458.62 329.632 1458.42 329.499C1458.23 329.366 1457.96 329.395 1457.82 329.591Z" fill="#6E3B46"/>
<path d="M453.091 32.845C446.976 50.0896 459.809 54.7693 464.27 55.8697C471.244 57.5852 479.092 57.4796 484.998 53.3927C490.896 49.3144 493.805 40.5854 489.904 34.5696C489.062 33.2642 487.95 32.1474 487.123 30.8248C483.999 25.8768 485.308 19.2137 482.751 13.9434C479.92 8.10302 472.042 5.34475 466.183 8.14471C459.988 11.1054 457.391 18.3997 455.397 24.9656C454.018 29.4862 452.632 34.0154 451.253 38.536" fill="#90B249"/>
<path d="M468.812 26.5607C468.546 31.6412 468.288 36.7131 468.022 41.7935C467.756 46.874 467.498 51.9459 467.232 57.0264C467.079 59.9111 466.933 62.7874 466.78 65.6722C466.763 66.0044 467.128 66.2614 467.434 66.24C467.803 66.2141 467.984 65.9188 468.001 65.5866C468.267 60.5062 468.526 55.4343 468.791 50.3538C469.057 45.2734 469.316 40.2014 469.581 35.121C469.735 32.2362 469.88 29.3599 470.033 26.4752C470.05 26.143 469.685 25.886 469.38 25.9074C469.01 25.9333 468.829 26.2285 468.812 26.5607Z" fill="#6E3B46"/>
<path d="M463.278 32.4947C463.834 35.4832 465.712 38.0805 468.411 39.5061C469.107 39.8691 469.636 38.7744 468.931 38.4039C466.659 37.1987 464.96 34.9523 464.499 32.4092C464.436 32.0826 464.199 31.8166 463.846 31.8414C463.541 31.8628 463.215 32.1681 463.278 32.4947Z" fill="#6E3B46"/>
<path d="M474.858 43.0263C473.756 46.3086 471.276 49.0578 468.067 50.3885C467.338 50.6899 467.734 51.8489 468.463 51.5475C471.962 50.0915 474.759 47.1507 475.96 43.5468C476.067 43.2325 475.994 42.8823 475.669 42.7356C475.402 42.609 474.956 42.7046 474.858 43.0263Z" fill="#6E3B46"/>
<path d="M1503.1 337.44C1501.28 337.87 1499.54 338.972 1498.97 340.754C1498.47 342.334 1498.71 344.055 1498.35 345.669C1497.8 348.131 1495.98 350.065 1494.53 352.131C1493.08 354.197 1491.95 356.886 1492.99 359.183C1493.7 360.767 1495.36 361.925 1495.56 363.639C1495.71 364.976 1494.93 366.221 1494.59 367.524C1493.92 370.085 1495.09 372.905 1497.09 374.625C1499.1 376.346 1501.81 377.09 1504.45 377.131C1507.04 377.181 1509.75 376.54 1511.69 374.819C1513.63 373.098 1514.59 370.146 1513.5 367.791C1512.86 366.427 1511.62 365.335 1511.31 363.868C1510.53 360.115 1516.16 356.748 1514.51 353.279C1513.92 352.033 1512.57 351.372 1511.61 350.392C1510.15 348.912 1509.66 346.775 1509.25 344.739C1508.85 342.712 1508.42 340.573 1507.06 339.009C1505.7 337.445 1503.07 336.789 1501.56 338.212" fill="#D8D86E"/>
<path d="M1502.37 347.785C1502.55 353.238 1502.72 358.699 1502.89 364.153C1503.05 369.607 1503.23 375.09 1503.4 380.566C1503.5 383.622 1503.6 386.686 1503.7 389.742C1503.71 390.09 1504.25 390.079 1504.23 389.731C1504.05 384.292 1503.88 378.861 1503.71 373.429C1503.54 367.998 1503.36 362.477 1503.19 357.002C1503.09 353.931 1503 350.852 1502.9 347.781C1502.88 347.433 1502.35 347.444 1502.36 347.792L1502.37 347.785Z" fill="#6E3B46"/>
<path d="M1500.42 352.402C1501.13 353.749 1501.86 355.089 1502.58 356.429C1502.74 356.73 1503.2 356.461 1503.05 356.153C1502.34 354.805 1501.61 353.465 1500.89 352.125C1500.73 351.825 1500.27 352.094 1500.42 352.402Z" fill="#6E3B46"/>
<path d="M1503.6 368.537C1506.17 366.958 1507.78 364.252 1508.31 361.316C1508.37 360.981 1507.85 360.844 1507.79 361.193C1507.28 363.988 1505.78 366.567 1503.32 368.069C1503.03 368.253 1503.3 368.713 1503.6 368.537Z" fill="#6E3B46"/>
</g>
</svg>
