<svg width="60" height="60" viewBox="0 0 60 60" fill="none" xmlns="http://www.w3.org/2000/svg">
<mask id="mask0_4109_2970" style="mask-type:alpha" maskUnits="userSpaceOnUse" x="0" y="0" width="60" height="60">
<rect width="60" height="60" fill="#D9D9D9"/>
</mask>
<g mask="url(#mask0_4109_2970)">
<path d="M11.4375 16.375C10.1955 16.375 9.1875 15.367 9.1875 14.125V6.25C9.1875 5.008 10.1955 4 11.4375 4C12.6795 4 13.6875 5.008 13.6875 6.25V14.125C13.6875 15.367 12.6795 16.375 11.4375 16.375Z" fill="#0E8347"/>
<path d="M22.125 16.375C20.883 16.375 19.875 15.367 19.875 14.125V6.25C19.875 5.008 20.883 4 22.125 4C23.367 4 24.375 5.008 24.375 6.25V14.125C24.375 15.367 23.367 16.375 22.125 16.375Z" fill="#0E8347"/>
<path d="M32.8125 16.375C31.5705 16.375 30.5625 15.367 30.5625 14.125V6.25C30.5625 5.008 31.5705 4 32.8125 4C34.0545 4 35.0625 5.008 35.0625 6.25V14.125C35.0625 15.367 34.0545 16.375 32.8125 16.375Z" fill="#0E8347"/>
<path d="M35.0625 9.0625H9.1875C5.7675 9.0625 3 11.83 3 15.25V45.0625C3 48.4825 5.7675 51.25 9.1875 51.25H20.2125C20.4375 50.35 20.8425 49.495 21.36 48.7075L33.105 29.6275C34.6125 27.04 37.5375 25.375 40.6875 25.375C40.8675 25.375 41.07 25.375 41.25 25.3975V15.25C41.25 11.83 38.4825 9.0625 35.0625 9.0625ZM21 19.75C22.2375 19.75 23.25 20.7625 23.25 22C23.25 23.2375 22.2375 24.25 21 24.25H12C10.7625 24.25 9.75 23.2375 9.75 22C9.75 20.7625 10.7625 19.75 12 19.75H21ZM27.75 33.25H12C10.7625 33.25 9.75 32.2375 9.75 31C9.75 29.7625 10.7625 28.75 12 28.75H27.75C28.9875 28.75 30 29.7625 30 31C30 32.2375 28.9875 33.25 27.75 33.25Z" fill="#9CCD5A"/>
<path d="M56.3408 51.304L44.4653 32.0125C43.689 30.694 42.24 29.875 40.6875 29.875C39.135 29.875 37.686 30.694 36.9323 31.9765L25.0837 51.2275C24.6202 51.916 24.375 52.7373 24.375 53.6013C24.375 56.0268 26.355 58 28.7895 58H52.5855C55.02 58 57 56.0268 57 53.6013C57 52.7373 56.7548 51.916 56.3408 51.304ZM40.6875 53.5C39.4455 53.5 38.4375 52.492 38.4375 51.25C38.4375 50.008 39.4455 49 40.6875 49C41.9295 49 42.9375 50.008 42.9375 51.25C42.9375 52.492 41.9295 53.5 40.6875 53.5ZM42.9375 45.625C42.9375 46.867 41.9317 47.875 40.6875 47.875C39.4432 47.875 38.4375 46.867 38.4375 45.625V41.125C38.4375 39.883 39.4432 38.875 40.6875 38.875C41.9317 38.875 42.9375 39.883 42.9375 41.125V45.625Z" fill="#0E8347"/>
</g>
</svg>
