<svg width="1199" height="814" viewBox="0 0 1199 814" fill="none" xmlns="http://www.w3.org/2000/svg">
<rect width="1199" height="814" rx="52" fill="#4F83C2"/>
<rect x="18" y="364" width="15" height="86" rx="7.5" fill="#91BAE8"/>
<rect x="53" y="31" width="1078" height="752" rx="9" fill="white"/>
<path d="M80.1352 62.7782H82.5697C82.8402 63.9084 83.7869 64.5441 85.0041 64.5441C87.0328 64.5441 88.1824 62.5662 88.25 59.1755H88.1148C87.4385 60.5177 86.1537 61.3654 84.5307 61.3654C81.8934 61.3654 80 59.3168 80 56.5619C80 53.595 82.1639 51.4758 85.1394 51.4758C88.4529 51.4758 90.6845 54.0895 90.6845 58.893C90.6845 63.6965 88.5881 66.6633 85.0717 66.6633C82.5697 66.6633 80.6086 65.1093 80.2029 62.7782H80.1352ZM87.8443 56.5619C87.8443 54.8665 86.6947 53.595 85.1394 53.595C83.584 53.595 82.4344 54.8665 82.4344 56.4912C82.4344 58.1159 83.5164 59.3875 85.1394 59.3875C86.7623 59.3875 87.9119 58.1866 87.9119 56.5619H87.8443ZM92.9836 55.5023C92.9836 54.584 93.5923 53.9482 94.539 53.9482C95.4857 53.9482 96.0943 54.584 96.0943 55.5023C96.0943 56.4206 95.4857 57.0564 94.539 57.0564C93.5923 57.0564 92.9836 56.4206 92.9836 55.5023ZM92.9836 62.8488C92.9836 61.9305 93.5923 61.2947 94.539 61.2947C95.4857 61.2947 96.0943 61.9305 96.0943 62.8488C96.0943 63.7671 95.4857 64.4029 94.539 64.4029C93.5923 64.4029 92.9836 63.7671 92.9836 62.8488ZM105.223 63.6258H98.4611V61.5066C100.287 58.2572 102.248 54.9372 104.074 51.9703H107.59V61.5066H109.484V63.6258H107.59V66.3808H105.223V63.6258ZM100.76 61.5773H105.291V54.0189H105.156C103.736 56.2793 102.113 58.9636 100.76 61.436V61.5773ZM114.691 54.5133H114.555L111.107 57.0564V54.6546L114.691 51.9703H117.125V66.4514H114.623V54.5133H114.691Z" fill="#3A4546"/>
<path fill-rule="evenodd" clip-rule="evenodd" d="M1029.29 60.5707H1030.58C1031.32 60.5707 1031.87 61.1813 1031.87 61.8597V64.5056C1031.87 65.2519 1031.25 65.7946 1030.58 65.7946H1029.29C1028.54 65.7946 1028 65.184 1028 64.5056V61.8597C1028 61.1135 1028.61 60.5707 1029.29 60.5707ZM1035.39 57.9249H1036.68C1037.43 57.9249 1037.97 58.5355 1037.97 59.2139V64.4377C1037.97 65.184 1037.36 65.7267 1036.68 65.7267H1035.39C1034.65 65.7267 1034.1 65.1162 1034.1 64.4377V59.2139C1034.1 58.4676 1034.71 57.9249 1035.39 57.9249ZM1041.49 54.872H1042.78C1043.53 54.872 1044.07 55.4826 1044.07 56.161V64.4377C1044.07 65.184 1043.46 65.7267 1042.78 65.7267H1041.49C1040.75 65.7267 1040.21 65.1162 1040.21 64.4377V56.161C1040.21 55.4147 1040.82 54.872 1041.49 54.872ZM1047.6 51.8191H1048.89C1049.63 51.8191 1050.17 52.4297 1050.17 53.1081V64.4377C1050.17 65.184 1049.56 65.7267 1048.89 65.7267H1047.6C1046.85 65.7267 1046.31 65.1162 1046.31 64.4377V53.1081C1046.31 52.3618 1046.92 51.8191 1047.6 51.8191Z" fill="#3A4546"/>
<path fill-rule="evenodd" clip-rule="evenodd" d="M1066.92 61.5205C1067.94 61.5205 1068.95 61.9276 1069.83 62.6739C1070.04 62.8095 1070.04 63.0809 1069.83 63.2844L1067.53 65.5232C1067.19 65.8624 1066.65 65.8624 1066.31 65.5232L1064 63.2166C1064 63.2166 1063.87 62.7417 1064 62.606C1064.88 61.9276 1065.83 61.5205 1066.85 61.5205H1066.92ZM1066.92 56.568C1069.29 56.568 1071.33 57.3143 1073.09 58.8068C1073.43 59.1461 1073.5 59.6888 1073.16 60.028L1072.21 60.9778C1072.21 60.9778 1071.39 61.317 1070.99 60.9778C1069.77 60.028 1068.41 59.4853 1066.85 59.4853C1065.29 59.4853 1064 59.9602 1062.85 60.8421C1062.51 61.1135 1061.97 61.1135 1061.63 60.8421L1060.68 59.8923C1060.34 59.5531 1060.34 59.0104 1060.68 58.6712C1062.37 57.2465 1064.41 56.5002 1066.71 56.5002L1066.92 56.568ZM1066.92 51.8191C1070.51 51.8191 1073.7 53.0403 1076.55 55.4826C1076.89 55.8218 1076.95 56.3645 1076.62 56.7037L1075.73 57.5857C1075.73 57.5857 1074.85 57.9249 1074.51 57.5857C1072.48 55.6861 1069.97 54.8042 1066.99 54.8042C1064 54.8042 1061.63 55.6861 1059.59 57.45C1059.26 57.7892 1058.71 57.7214 1058.37 57.45L1057.49 56.568C1057.15 56.2288 1057.15 55.6861 1057.49 55.3469C1060.2 53.0403 1063.39 51.8869 1066.92 51.8869V51.8191Z" fill="#3A4546"/>
<path opacity="0.37" fill-rule="evenodd" clip-rule="evenodd" d="M1107.81 52.7011H1087.73C1086.04 52.7011 1084.68 54.058 1084.68 55.754V61.8598C1084.68 63.5559 1086.04 64.9127 1087.73 64.9127H1107.81C1109.5 64.9127 1110.86 63.5559 1110.86 61.8598V55.754C1110.86 54.058 1109.5 52.7011 1107.81 52.7011ZM1107.81 51.4121C1110.25 51.4121 1112.15 53.3795 1112.15 55.754V61.8598C1112.15 64.3021 1110.18 66.2017 1107.81 66.2017H1087.73C1085.29 66.2017 1083.39 64.2343 1083.39 61.8598V55.754C1083.39 53.3117 1085.36 51.4121 1087.73 51.4121H1107.81Z" fill="#353535"/>
<path d="M1107.74 53.9902H1087.74C1086.77 53.9902 1085.98 54.78 1085.98 55.7541V61.8599C1085.98 62.8341 1086.77 63.6238 1087.74 63.6238H1107.74C1108.72 63.6238 1109.51 62.8341 1109.51 61.8599V55.7541C1109.51 54.78 1108.72 53.9902 1107.74 53.9902Z" fill="#3A4546"/>
<path fill-rule="evenodd" clip-rule="evenodd" d="M562.08 768H635.318C636.488 768 637.398 768.954 637.398 770.081C637.398 771.208 636.444 772.162 635.318 772.162H562.08C560.91 772.162 560 771.208 560 770.081C560 768.954 560.953 768 562.08 768Z" fill="#939393"/>
<ellipse cx="1166.5" cy="407" rx="14.5" ry="14" fill="#91BAE8"/>
</svg>
