<svg width="815" height="1200" viewBox="0 0 815 1200" fill="none" xmlns="http://www.w3.org/2000/svg">
<rect x="814.52" y="0.5" width="1199" height="814" rx="52" transform="rotate(90 814.52 0.5)" fill="#4F83C2"/>
<rect x="450.52" y="18.5" width="15" height="86" rx="7.5" transform="rotate(90 450.52 18.5)" fill="#91BAE8"/>
<rect x="783.52" y="53.5" width="1078" height="752" rx="9" transform="rotate(90 783.52 53.5)" fill="white"/>
<path d="M50.1352 78.366H52.5697C52.8402 79.4963 53.7869 80.132 55.0041 80.132C57.0328 80.132 58.1824 78.1541 58.25 74.7634H58.1148C57.4385 76.1056 56.1537 76.9533 54.5307 76.9533C51.8934 76.9533 50 74.9047 50 72.1498C50 69.1829 52.1639 67.0637 55.1394 67.0637C58.4529 67.0637 60.6845 69.6774 60.6845 74.4809C60.6845 79.2844 58.5881 82.2512 55.0717 82.2512C52.5697 82.2512 50.6086 80.6971 50.2029 78.366H50.1352ZM57.8443 72.1498C57.8443 70.4544 56.6947 69.1829 55.1394 69.1829C53.584 69.1829 52.4344 70.4544 52.4344 72.0791C52.4344 73.7038 53.5164 74.9754 55.1394 74.9754C56.7623 74.9754 57.9119 73.7745 57.9119 72.1498H57.8443ZM62.9836 71.0902C62.9836 70.1719 63.5923 69.5361 64.539 69.5361C65.4857 69.5361 66.0943 70.1719 66.0943 71.0902C66.0943 72.0085 65.4857 72.6442 64.539 72.6442C63.5923 72.6442 62.9836 72.0085 62.9836 71.0902ZM62.9836 78.4367C62.9836 77.5184 63.5923 76.8826 64.539 76.8826C65.4857 76.8826 66.0943 77.5184 66.0943 78.4367C66.0943 79.355 65.4857 79.9908 64.539 79.9908C63.5923 79.9908 62.9836 79.355 62.9836 78.4367ZM75.2234 79.2137H68.4611V77.0945C70.2869 73.8451 72.248 70.5251 74.0738 67.5582H77.5902V77.0945H79.4837V79.2137H77.5902V81.9687H75.2234V79.2137ZM70.7603 77.1652H75.2911V69.6067H75.1558C73.7357 71.8672 72.1128 74.5515 70.7603 77.0239V77.1652ZM84.6907 70.1012H84.5554L81.1066 72.6442V70.2425L84.6907 67.5582H87.1251V82.0393H84.623V70.1012H84.6907Z" fill="#3A4546"/>
<path fill-rule="evenodd" clip-rule="evenodd" d="M685.288 76.1586H686.577C687.323 76.1586 687.865 76.7692 687.865 77.4476V80.0935C687.865 80.8397 687.255 81.3825 686.577 81.3825H685.288C684.542 81.3825 684 80.7719 684 80.0935V77.4476C684 76.7014 684.61 76.1586 685.288 76.1586ZM691.391 73.5128H692.68C693.426 73.5128 693.968 74.1234 693.968 74.8018V80.0256C693.968 80.7719 693.358 81.3146 692.68 81.3146H691.391C690.645 81.3146 690.103 80.7041 690.103 80.0256V74.8018C690.103 74.0555 690.713 73.5128 691.391 73.5128ZM697.494 70.4599H698.783C699.529 70.4599 700.071 71.0705 700.071 71.7489V80.0256C700.071 80.7719 699.461 81.3146 698.783 81.3146H697.494C696.748 81.3146 696.206 80.7041 696.206 80.0256V71.7489C696.206 71.0026 696.816 70.4599 697.494 70.4599ZM703.597 67.407H704.886C705.631 67.407 706.174 68.0176 706.174 68.696V80.0256C706.174 80.7719 705.564 81.3146 704.886 81.3146H703.597C702.851 81.3146 702.309 80.7041 702.309 80.0256V68.696C702.309 67.9497 702.919 67.407 703.597 67.407Z" fill="#3A4546"/>
<path fill-rule="evenodd" clip-rule="evenodd" d="M722.918 77.1084C723.935 77.1084 724.953 77.5155 725.834 78.2617C726.038 78.3974 726.038 78.6688 725.834 78.8723L723.529 81.1111C723.19 81.4503 722.647 81.4503 722.308 81.1111L720.003 78.8045C720.003 78.8045 719.867 78.3296 720.003 78.1939C720.884 77.5155 721.833 77.1084 722.85 77.1084H722.918ZM722.918 72.1559C725.292 72.1559 727.326 72.9022 729.089 74.3947C729.428 74.7339 729.496 75.2767 729.157 75.6159L728.207 76.5657C728.207 76.5657 727.394 76.9049 726.987 76.5657C725.766 75.6159 724.41 75.0732 722.85 75.0732C721.291 75.0732 720.002 75.548 718.85 76.43C718.511 76.7014 717.968 76.7014 717.629 76.43L716.68 75.4802C716.341 75.141 716.341 74.5983 716.68 74.259C718.375 72.8344 720.409 72.0881 722.715 72.0881L722.918 72.1559ZM722.918 67.407C726.512 67.407 729.699 68.6281 732.547 71.0705C732.886 71.4097 732.954 71.9524 732.615 72.2916L731.734 73.1736C731.734 73.1736 730.852 73.5128 730.513 73.1736C728.479 71.274 725.97 70.392 722.986 70.392C720.003 70.392 717.629 71.274 715.595 73.0379C715.256 73.3771 714.713 73.3093 714.374 73.0379L713.493 72.1559C713.154 71.8167 713.154 71.274 713.493 70.9348C716.205 68.6281 719.392 67.4748 722.918 67.4748V67.407Z" fill="#3A4546"/>
<path opacity="0.37" fill-rule="evenodd" clip-rule="evenodd" d="M763.806 68.289H743.734C742.039 68.289 740.683 69.6458 740.683 71.3419V77.4477C740.683 79.1438 742.039 80.5006 743.734 80.5006H763.806C765.502 80.5006 766.858 79.1438 766.858 77.4477V71.3419C766.858 69.6458 765.502 68.289 763.806 68.289ZM763.806 67C766.247 67 768.146 68.9674 768.146 71.3419V77.4477C768.146 79.89 766.18 81.7896 763.806 81.7896H743.734C741.293 81.7896 739.395 79.8222 739.395 77.4477V71.3419C739.395 68.8996 741.361 67 743.734 67H763.806Z" fill="#353535"/>
<path d="M763.744 69.5781H743.74C742.766 69.5781 741.977 70.3678 741.977 71.342V77.4478C741.977 78.422 742.766 79.2117 743.74 79.2117H763.744C764.717 79.2117 765.507 78.422 765.507 77.4478V71.342C765.507 70.3678 764.717 69.5781 763.744 69.5781Z" fill="#3A4546"/>
<path fill-rule="evenodd" clip-rule="evenodd" d="M443.338 1115.16L370.1 1115.16C368.93 1115.16 368.02 1114.21 368.02 1113.08C368.02 1111.95 368.974 1111 370.1 1111L443.338 1111C444.508 1111 445.418 1111.95 445.418 1113.08C445.418 1114.21 444.465 1115.16 443.338 1115.16Z" fill="#939393"/>
<ellipse cx="407.52" cy="1167" rx="14.5" ry="14" transform="rotate(90 407.52 1167)" fill="#91BAE8"/>
</svg>
