<svg width="252" height="1626" viewBox="0 0 252 1626" fill="none" xmlns="http://www.w3.org/2000/svg">
<path d="M83.8566 233.873C76.9552 234.52 69.2073 233.211 61.1753 229.976C53.9609 227.063 47.2438 222.824 41.8746 217.933C19.8384 218.929 6.2306 197.768 1.88553 185.456L0.500706 181.515L8.27907 178.728L9.66389 182.67C9.74697 182.893 12.7327 191.093 18.8866 198.386C23.4791 203.833 28.5513 207.324 34.0359 208.804C27.4818 198.567 28.3151 188.226 36.2854 181.077C43.1648 174.892 50.7688 173.339 57.1243 176.815C63.9795 180.538 67.9128 189.341 66.6946 198.228C65.5705 206.351 60.3409 212.676 52.3864 215.793C64.1522 224.156 80.3076 228.728 91.0199 223.421L94.7224 221.584L98.3685 229.092L94.666 230.929C91.3998 232.558 87.7631 233.549 83.8605 233.915L83.8566 233.873ZM49.3458 183.358C46.5113 183.624 43.8045 185.473 41.7608 187.322C36.7538 191.821 36.5752 197.652 41.2093 204.647C42.2466 206.208 43.4668 207.731 44.8288 209.219C45.2562 209.137 45.6631 209.057 46.0906 208.975C55.7564 206.872 58.0273 200.594 58.5212 197.022C59.2474 191.728 56.9877 186.189 53.2324 184.148C51.9445 183.45 50.6398 183.237 49.3458 183.358Z" fill="#E9684D"/>
<g clip-path="url(#clip0_4585_944)">
<path d="M71.001 54.9908C71.001 61.0724 66.0734 65.9817 60.0101 65.9817C53.9469 65.9817 49.001 61.0724 49.001 54.9908C49.001 48.9092 53.9285 44 59.9918 44C66.0551 44 70.9827 48.9276 70.9827 54.9908H71.001Z" fill="#F4C63C"/>
</g>
<path d="M200.868 97C179.757 97 168.277 74.8288 164.983 61.8148L164.001 57.9976L171.455 56L172.418 59.8172C172.457 59.9754 174.807 68.9349 180.412 76.8857C187.442 86.8934 196.226 90.7699 206.569 88.4163L210.325 87.5658L212.001 95.2793L208.245 96.1298C205.664 96.7231 203.198 97 200.868 97Z" fill="#F4C63C"/>
<path d="M252 1526.99C252 1533.07 247.072 1537.98 241.009 1537.98C234.946 1537.98 230 1533.07 230 1526.99C230 1520.91 234.928 1516 240.991 1516C247.054 1516 251.982 1520.93 251.982 1526.99H252Z" fill="#91BAE8"/>
<path d="M50 1193C50 1197.98 45.9684 1202 41.0075 1202C36.0466 1202 32 1197.98 32 1193C32 1188.02 36.0316 1184 40.9925 1184C45.9534 1184 49.985 1188.03 49.985 1193H50Z" fill="#FA835F"/>
<g clip-path="url(#clip1_4585_944)">
<path d="M112 14C115.866 14 119 10.866 119 7C119 3.13401 115.866 0 112 0C108.134 0 105 3.13401 105 7C105 10.866 108.134 14 112 14Z" fill="#E9684D"/>
</g>
<path d="M154.296 1120.52C154.408 1123.32 152.226 1125.69 149.429 1125.8C146.631 1125.91 144.266 1123.73 144.153 1120.93C144.041 1118.13 146.223 1115.76 149.02 1115.65C151.818 1115.53 154.183 1117.72 154.296 1120.52Z" fill="#FA835F"/>
<path d="M115.986 1108.26C106.885 1106.69 97.3065 1108.09 89.0303 1112.2C86.496 1113.46 83.8912 1115.21 83.1881 1117.96C82.72 1119.8 83.4996 1122.11 85.2965 1122.74C86.2503 1123.08 87.3092 1122.89 88.3141 1122.71C97.1027 1121 105.683 1118.15 114.543 1116.87C122.145 1115.77 131.319 1115.55 138.335 1119.19C131.401 1113.99 124.724 1109.77 115.987 1108.28L115.986 1108.26Z" fill="#FA835F"/>
<path d="M166.811 1096.42C190.962 1071.27 225.647 1087.81 203.377 1096.34C188.587 1100.75 170.08 1098.59 157.992 1109.06C159.475 1104.13 163.061 1099.79 166.811 1096.42Z" fill="#FA835F"/>
<path d="M110.687 1154.47C107.97 1159.28 105.662 1164.37 104.615 1169.78C103.567 1175.2 103.909 1180.99 106.279 1185.98C107.325 1188.16 108.985 1190.34 111.37 1190.77C113.665 1191.2 115.944 1189.88 117.576 1188.2C122.28 1183.38 123.109 1176.11 124.051 1169.43C125.667 1157.93 128.422 1146.42 133.604 1135.95C135.093 1132.96 136.786 1130.13 138.645 1127.34C135.185 1130.32 130.599 1131.79 126.937 1134.69C122.663 1138.08 118.959 1142.15 115.737 1146.55C113.887 1149.09 112.204 1151.73 110.669 1154.47L110.687 1154.47Z" fill="#FA835F"/>
<path d="M204.846 1134.66C207.788 1136.33 210.699 1138.15 213.16 1140.46C215.62 1142.76 217.671 1145.65 218.579 1148.9C219.318 1151.55 219.19 1154.65 217.337 1156.68C215.761 1158.39 213.235 1158.96 210.944 1158.62C208.652 1158.28 206.546 1157.13 204.632 1155.85C197.294 1150.92 191.869 1143.68 185.859 1137.2C182.59 1133.67 179.039 1130.32 174.976 1127.72C172.953 1126.43 170.83 1125.32 168.574 1124.5C166.941 1123.92 164.896 1123.84 163.384 1123.1C167.199 1121.77 172.949 1123.17 176.738 1123.88C183.058 1125.08 189.196 1127.13 195.085 1129.71C198.434 1131.19 201.682 1132.85 204.864 1134.66L204.846 1134.66Z" fill="#FA835F"/>
<path d="M158.031 1154.96C157.265 1161.07 155.169 1166.93 153.454 1172.84C151.74 1178.76 150.398 1184.94 151.186 1191.05C151.399 1192.76 151.812 1194.48 152.702 1195.94C153.593 1197.41 155.034 1198.64 156.727 1198.93C158.693 1199.27 160.681 1198.35 162.239 1197.1C166.878 1193.33 168.428 1186.93 168.839 1180.96C169.735 1168.21 166.592 1155.22 160.183 1144.18C158.376 1141.07 156.301 1138.03 153.932 1135.3C157.601 1141.12 158.915 1148.18 158.05 1154.98L158.031 1154.96Z" fill="#FA835F"/>
<path d="M142.521 1079C145.789 1071.29 152.544 1064.84 160.757 1063.19C161.868 1062.97 163.093 1062.84 164.072 1063.38C165.569 1064.19 165.975 1066.18 165.771 1067.87C165.431 1070.66 163.925 1073.2 162.019 1075.25C160.114 1077.31 157.849 1078.98 155.642 1080.73C151.631 1083.93 147.832 1087.47 145.059 1091.78C142.285 1096.07 140.628 1101.15 141.088 1106.29C139.81 1099.25 139.05 1092.02 140.609 1084.96C141.051 1082.91 141.693 1080.9 142.52 1078.98L142.521 1079Z" fill="#FA835F"/>
<path d="M92.483 1141.41C87.446 1145.61 82.5412 1150.41 80.4595 1156.62C80.1356 1157.56 79.8868 1158.57 80.0531 1159.55C80.2194 1160.54 80.8723 1161.49 81.8397 1161.73C82.5883 1161.91 83.4083 1161.63 84.0218 1161.15C84.6353 1160.67 85.0979 1160.04 85.5424 1159.41C89.1 1154.38 92.3414 1149.13 96.1604 1144.3C99.5832 1139.97 103.524 1135.94 108.251 1133.01C108.939 1132.59 109.847 1132.24 110.44 1131.7C108.838 1131.87 107.09 1132.9 105.595 1133.48C102.641 1134.65 99.8723 1135.92 97.2523 1137.75C95.5987 1138.88 94.0224 1140.14 92.483 1141.41Z" fill="#FA835F"/>
<path d="M114.063 1082.91C110.123 1080.68 105.793 1079.09 101.291 1078.63C99.5487 1078.45 97.6877 1078.47 96.1488 1079.31C94.5912 1080.13 93.4727 1081.99 93.9742 1083.67C94.3918 1085.06 95.7839 1085.97 97.1888 1086.29C98.611 1086.59 100.068 1086.43 101.529 1086.33C105.567 1086.06 109.647 1086.38 113.591 1087.35C116.11 1087.97 118.585 1088.83 120.926 1089.95C122.087 1090.5 123.214 1091.1 124.325 1091.76C124.992 1092.17 125.725 1092.87 126.474 1093.05C125.959 1091.48 123.543 1089.84 122.326 1088.81C119.743 1086.61 117.022 1084.59 114.081 1082.91L114.063 1082.91Z" fill="#FA835F"/>
<path d="M136.141 1169.34C135.908 1170.29 135.694 1171.26 135.859 1172.23C136.024 1173.18 136.677 1174.14 137.642 1174.31C138.443 1174.46 139.258 1174.05 139.794 1173.43C140.329 1172.81 140.624 1172.04 140.863 1171.25C142.943 1164.55 141.89 1157.22 139.776 1150.52C140.599 1153.46 139.175 1156.7 138.494 1159.55C137.721 1162.8 136.931 1166.07 136.158 1169.33L136.141 1169.34Z" fill="#FA835F"/>
<path d="M183.416 1158.68C184.616 1162 185.453 1165.73 188.13 1168.03C188.767 1168.58 189.706 1169.01 190.393 1168.55C190.991 1168.15 191.046 1167.28 190.981 1166.55C190.564 1161.58 188.153 1156.92 184.875 1153.16C181.615 1149.42 177.517 1146.4 173.275 1143.85C177.875 1147.67 181.383 1153.08 183.398 1158.68L183.416 1158.68Z" fill="#FA835F"/>
<path d="M201.901 1110.42C204.343 1110.92 206.871 1111.76 208.52 1113.65C208.956 1114.15 209.341 1114.74 209.422 1115.4C209.521 1116.07 209.262 1116.8 208.697 1117.15C207.85 1117.67 206.764 1117.17 205.895 1116.68C197.394 1112.07 187.414 1110.23 177.811 1111.47C184.016 1110.69 190.074 1109.4 196.395 1109.72C198.243 1109.81 200.077 1110.03 201.881 1110.39L201.901 1110.42Z" fill="#FA835F"/>
<path d="M169.446 1624.95L162.47 1625.12L162.386 1621.63C162.38 1621.2 162.179 1610.73 165.523 1599.78C170.196 1584.52 179.431 1575.81 192.248 1574.6C199.021 1573.96 205.08 1575.78 209.684 1579.63C215.602 1577.36 222.323 1576.72 227.962 1578.91L231.217 1580.16L228.694 1586.66L225.44 1585.41C222.094 1584.12 218.186 1584.29 214.498 1585.32C214.976 1586.12 215.404 1586.93 215.801 1587.8C218.96 1594.71 218.466 1602.09 214.594 1605.79C213.164 1607.17 209.083 1609.97 202.181 1606.46C195.369 1602.98 192.907 1597.33 195.614 1591.3C196.931 1588.37 199.489 1585.59 202.727 1583.33C200.27 1581.99 197.055 1581.16 192.904 1581.55C168.78 1583.81 169.362 1621.1 169.361 1621.46L169.444 1624.93L169.446 1624.95ZM208.018 1588.14C205.153 1589.9 202.921 1592.05 201.979 1594.13C201.502 1595.2 200.372 1597.7 205.36 1600.24C206.336 1600.74 208.712 1601.77 209.771 1600.75C211.218 1599.37 211.435 1595 209.45 1590.68C209.139 1589.99 208.669 1589.09 207.999 1588.12L208.018 1588.14Z" fill="#F4C63C"/>
<defs>
<clipPath id="clip0_4585_944">
<rect width="22" height="22" fill="white" transform="translate(49.001 44)"/>
</clipPath>
<clipPath id="clip1_4585_944">
<rect width="14" height="14" fill="white" transform="translate(105)"/>
</clipPath>
</defs>
</svg>
