<svg width="234" height="1119" viewBox="0 0 234 1119" fill="none" xmlns="http://www.w3.org/2000/svg">
<path d="M41.3992 1069L40.6696 1065.7C38.7691 1057.15 32.2362 1051.64 25.5505 1048.77C20.8502 1055.8 14.8942 1061.21 9.36244 1061.21C7.24137 1061.21 3.35555 1060.4 1.08176 1054.94C-1.29385 1049.28 0.776321 1045.63 2.21865 1043.95C5.91781 1039.68 13.6725 1038.39 22.4792 1040.59C22.5131 1040.59 22.5301 1040.59 22.564 1040.61C23.3276 1039.17 24.0573 1037.63 24.736 1035.99C29.097 1025.52 29.0291 1016.59 24.5663 1012.15L22.1738 1009.77L26.925 1005L29.3175 1007.38C35.8844 1013.92 36.4783 1025.3 30.9635 1038.58C30.3696 1040.02 29.6909 1041.45 28.9782 1042.87C37.0722 1046.56 44.8947 1053.5 47.2704 1064.2L48 1067.5L41.3822 1068.97L41.3992 1069ZM14.3682 1046.32C10.9066 1046.32 8.39523 1047.17 7.34318 1048.38C7.07168 1048.7 6.22325 1049.68 7.34318 1052.35C8.22555 1054.47 9.04004 1054.45 9.36244 1054.47C11.3987 1054.47 15.0978 1051.66 18.7291 1046.73C17.168 1046.44 15.6917 1046.32 14.3682 1046.32Z" fill="#4F83C2"/>
<path d="M110 956C110 968.156 100.156 978 88 978C75.8444 978 66 968.156 66 956C66 943.844 75.8444 934 88 934C100.156 934 110 943.844 110 956Z" fill="#F4C63C"/>
<path d="M38 1111C38 1115.42 34.4202 1119 30 1119C25.5798 1119 22 1115.42 22 1111C22 1106.58 25.5798 1103 30 1103C34.4202 1103 38 1106.58 38 1111Z" fill="#FC6158"/>
<path d="M179.071 48.6376C179.167 51.0052 177.314 53.0074 174.939 53.1027C172.565 53.198 170.557 51.3509 170.461 48.9833C170.365 46.6156 172.218 44.6135 174.593 44.5182C176.967 44.4228 178.976 46.27 179.071 48.6376Z" fill="white"/>
<path d="M146.55 38.2695C138.823 36.9426 130.692 38.1259 123.666 41.6056C121.515 42.6712 119.303 44.1522 118.706 46.4711C118.309 48.0324 118.971 49.9795 120.496 50.5149C121.306 50.8037 122.205 50.6452 123.058 50.4886C130.519 49.0415 137.803 46.6377 145.325 45.5555C151.778 44.6232 159.566 44.4329 165.522 47.5139C159.636 43.1144 153.967 39.5476 146.55 38.2848L146.55 38.2695Z" fill="white"/>
<path d="M189.696 28.2602C210.198 6.99659 239.643 20.9765 220.737 28.192C208.182 31.9243 192.471 30.0918 182.209 38.9493C183.468 34.7831 186.512 31.1114 189.696 28.2602Z" fill="white"/>
<path d="M142.051 77.3421C139.745 81.4126 137.785 85.714 136.896 90.2937C136.007 94.8735 136.297 99.7731 138.309 103.992C139.196 105.838 140.606 107.678 142.631 108.041C144.579 108.406 146.513 107.288 147.899 105.871C151.893 101.794 152.596 95.6457 153.396 89.9985C154.768 80.274 157.106 70.5413 161.506 61.6897C162.77 59.1604 164.207 56.7618 165.785 54.4035C162.848 56.9235 158.954 58.1661 155.846 60.6164C152.218 63.4855 149.073 66.9318 146.338 70.6523C144.767 72.7961 143.338 75.0261 142.035 77.3427L142.051 77.3421Z" fill="white"/>
<path d="M221.984 60.5927C224.482 62.0072 226.953 63.545 229.042 65.496C231.131 67.447 232.871 69.8863 233.643 72.6399C234.27 74.8791 234.161 77.4997 232.588 79.2152C231.25 80.6612 229.106 81.1451 227.161 80.856C225.216 80.5669 223.427 79.5983 221.803 78.516C215.573 74.3445 210.968 68.2259 205.866 62.7392C203.091 59.7601 200.076 56.9282 196.627 54.7259C194.91 53.632 193.107 52.6946 191.192 52.0065C189.806 51.5114 188.07 51.4434 186.786 50.8217C190.025 49.6972 194.906 50.8782 198.123 51.4835C203.488 52.492 208.699 54.2259 213.698 56.412C216.541 57.6595 219.299 59.0635 222 60.5921L221.984 60.5927Z" fill="white"/>
<path d="M182.242 77.7634C181.592 82.9302 179.812 87.8823 178.357 92.8825C176.901 97.8828 175.762 103.115 176.431 108.275C176.612 109.721 176.963 111.176 177.719 112.415C178.475 113.655 179.698 114.692 181.135 114.94C182.804 115.225 184.492 114.454 185.814 113.391C189.752 110.203 191.068 104.796 191.417 99.748C192.178 88.9617 189.509 77.9765 184.069 68.6479C182.535 66.0167 180.774 63.4406 178.763 61.1346C181.877 66.0585 182.993 72.0265 182.258 77.7781L182.242 77.7634Z" fill="white"/>
<path d="M169.075 13.5282C171.85 7.00618 177.584 1.55876 184.556 0.16198C185.5 -0.0289048 186.539 -0.13183 187.371 0.32437C188.641 1.00775 188.986 2.6922 188.813 4.122C188.525 6.47445 187.245 8.62186 185.627 10.3545C184.01 12.1024 182.087 13.5107 180.214 14.9935C176.809 17.7005 173.584 20.691 171.23 24.3351C168.875 27.9639 167.468 32.2584 167.859 36.6031C166.774 30.6492 166.128 24.5399 167.452 18.5658C167.828 16.8371 168.373 15.1323 169.074 13.5129L169.075 13.5282Z" fill="white"/>
<path d="M126.597 66.3041C122.321 69.857 118.157 73.9103 116.39 79.1679C116.115 79.9592 115.904 80.8092 116.045 81.645C116.186 82.4808 116.74 83.2848 117.562 83.4813C118.197 83.6394 118.893 83.3972 119.414 82.9938C119.935 82.5904 120.328 82.0545 120.705 81.5191C123.725 77.2669 126.477 72.8266 129.719 68.7491C132.625 65.083 135.97 61.6745 139.983 59.2031C140.567 58.8431 141.338 58.552 141.841 58.0882C140.481 58.2345 138.997 59.105 137.728 59.5996C135.221 60.5877 132.87 61.6613 130.646 63.204C129.242 64.1631 127.904 65.2266 126.597 66.3041Z" fill="white"/>
<path d="M144.917 16.8389C141.572 14.9536 137.896 13.6019 134.075 13.2198C132.595 13.065 131.015 13.0825 129.709 13.7928C128.387 14.4885 127.437 16.0566 127.863 17.4777C128.218 18.6568 129.399 19.4203 130.592 19.6937C131.799 19.9512 133.037 19.8097 134.276 19.7294C137.704 19.4999 141.168 19.774 144.516 20.5882C146.655 21.1143 148.756 21.8408 150.743 22.7861C151.728 23.2515 152.685 23.7638 153.628 24.3227C154.195 24.6671 154.817 25.2541 155.452 25.4122C155.015 24.0834 152.964 22.6969 151.931 21.8204C149.739 19.9654 147.429 18.2527 144.932 16.8383L144.917 16.8389Z" fill="white"/>
<path d="M163.659 89.9231C163.461 90.7266 163.28 91.5448 163.42 92.3653C163.56 93.1706 164.114 93.9745 164.934 94.1252C165.614 94.2509 166.306 93.9019 166.76 93.3787C167.215 92.8556 167.465 92.2029 167.668 91.5369C169.434 85.8663 168.539 79.6752 166.745 74.0098C167.444 76.4909 166.235 79.2322 165.657 81.6422C165.001 84.3919 164.33 87.1575 163.674 89.9072L163.659 89.9231Z" fill="white"/>
<path d="M203.792 80.9068C204.81 83.7116 205.521 86.8655 207.794 88.8091C208.334 89.277 209.132 89.6428 209.715 89.2522C210.223 88.9105 210.27 88.1742 210.214 87.5644C209.86 83.3559 207.813 79.4143 205.03 76.2365C202.263 73.0735 198.784 70.5204 195.183 68.37C199.088 71.5945 202.066 76.172 203.776 80.9074L203.792 80.9068Z" fill="white"/>
<path d="M219.484 40.0996C221.557 40.5213 223.704 41.2307 225.103 42.8269C225.474 43.2557 225.8 43.7475 225.869 44.3108C225.953 44.8735 225.733 45.4944 225.254 45.789C224.535 46.231 223.612 45.809 222.874 45.3949C215.658 41.4925 207.186 39.9355 199.033 40.9819C204.301 40.3267 209.444 39.2328 214.81 39.507C216.379 39.5817 217.936 39.764 219.468 40.0697L219.484 40.0996Z" fill="white"/>
</svg>
