<svg width="244" height="76" viewBox="0 0 244 76" fill="none" xmlns="http://www.w3.org/2000/svg">
<path d="M2 73L51.4845 73C51.4845 54.1696 58.9138 36.1105 72.138 22.7954C85.3623 9.48033 103.298 2 122 2C140.702 2 158.638 9.48034 171.862 22.7954C185.086 36.1105 192.515 54.1696 192.515 73L242 73" stroke="#0E8347" stroke-width="3" stroke-linecap="round" stroke-linejoin="round" stroke-dasharray="1 8"/>
<g clip-path="url(#clip0_4109_2466)">
<path d="M121 65.8438C118.2 65.8438 115.922 63.5657 115.922 60.7656C115.922 57.9655 118.2 55.6875 121 55.6875C123.8 55.6875 126.078 57.9655 126.078 60.7656C126.078 63.5657 123.8 65.8438 121 65.8438Z" fill="#0E8347"/>
<path d="M138.367 59.75C135.567 59.75 133.289 57.472 133.289 54.6719C133.289 51.8718 135.567 49.5938 138.367 49.5938C141.167 49.5938 143.445 51.8718 143.445 54.6719C143.445 57.472 141.167 59.75 138.367 59.75Z" fill="#0E8347"/>
<path d="M126.459 66.7787C125.015 68.0903 123.099 68.8906 121 68.8906C118.901 68.8906 116.985 68.0903 115.541 66.7787C113.605 68.3632 112.367 70.77 112.367 73.461V74.4766C112.367 75.3179 113.049 76 113.891 76H128.109C128.951 76 129.633 75.3179 129.633 74.4766V73.461C129.633 70.77 128.395 68.3631 126.459 66.7787Z" fill="#0E8347"/>
<path d="M143.826 60.685C142.383 61.9966 140.467 62.7969 138.368 62.7969C136.268 62.7969 134.352 61.9966 132.909 60.685C131.342 61.9675 130.232 63.7889 129.866 65.8636C130.889 67.0529 131.655 68.4266 132.128 69.9063H145.477C146.318 69.9063 147 69.2242 147 68.3828V67.3672C147 64.6762 145.762 62.2694 143.826 60.685Z" fill="#0E8347"/>
<path d="M109.091 60.685C107.648 61.9966 105.732 62.7969 103.633 62.7969C101.534 62.7969 99.6176 61.9966 98.1741 60.685C96.2381 62.2695 95 64.6762 95 67.3672V68.3828C95 69.2242 95.6821 69.9063 96.5234 69.9063H109.873C110.345 68.4266 111.112 67.053 112.134 65.8636C111.768 63.7889 110.658 61.9675 109.091 60.685Z" fill="#0E8347"/>
<path d="M103.633 59.75C100.833 59.75 98.5547 57.472 98.5547 54.6719C98.5547 51.8718 100.833 49.5938 103.633 49.5938C106.433 49.5938 108.711 51.8718 108.711 54.6719C108.711 57.472 106.433 59.75 103.633 59.75Z" fill="#0E8347"/>
<path d="M133.188 27.0469H128.617V25.5234C128.617 24.6821 127.935 24 127.094 24H114.906C114.065 24 113.383 24.6821 113.383 25.5234V27.0469H108.812C107.971 27.0469 107.289 27.729 107.289 28.5703V31.6172C107.289 34.6973 109.795 37.2031 112.875 37.2031H113.536C114.143 40.1834 116.496 42.5362 119.477 43.1436V49.5938H116.938C116.096 49.5938 115.414 50.2758 115.414 51.1172C115.414 51.9585 116.096 52.6406 116.938 52.6406H125.062C125.904 52.6406 126.586 51.9585 126.586 51.1172C126.586 50.2758 125.904 49.5938 125.062 49.5938H122.523V43.1436C125.504 42.5363 127.856 40.1834 128.464 37.2031H129.125C132.205 37.2031 134.711 34.6973 134.711 31.6172V28.5703C134.711 27.729 134.029 27.0469 133.188 27.0469ZM113.383 34.1562H112.875C111.475 34.1562 110.336 33.0172 110.336 31.6172V30.0938H113.383V34.1562ZM122.523 34.6641C122.523 35.5054 121.841 36.1875 121 36.1875C120.159 36.1875 119.477 35.5054 119.477 34.6641V31.6172C119.477 30.7758 120.159 30.0938 121 30.0938C121.841 30.0938 122.523 30.7758 122.523 31.6172V34.6641ZM131.664 31.6172C131.664 33.0172 130.525 34.1562 129.125 34.1562H128.617V30.0938H131.664V31.6172Z" fill="#F5F3B2"/>
</g>
<defs>
<clipPath id="clip0_4109_2466">
<rect width="52" height="52" fill="white" transform="translate(95 24)"/>
</clipPath>
</defs>
</svg>
