<svg width="391" height="211" viewBox="0 0 391 211" fill="none" xmlns="http://www.w3.org/2000/svg">
<path d="M37.5907 135.994L36.9904 132.28C36.9529 132.034 34.6832 119.287 25.3418 113.045C20.0521 109.5 13.318 108.651 5.36474 110.537L1.70696 111.385L0 104.031L3.65777 103.182C13.7495 100.806 22.4719 102.013 29.5623 106.784C41.6611 114.912 44.2872 130.394 44.3997 131.054L45 134.769L37.5907 135.994Z" fill="#E17244"/>
<path d="M299.449 97.5503C299.449 101.613 296.163 104.902 292.105 104.902C288.047 104.902 284.762 101.613 284.762 97.5503C284.762 93.4875 288.047 90.1986 292.105 90.1986C296.163 90.1986 299.449 93.4875 299.449 97.5503Z" fill="#FFE266"/>
<path d="M244.874 77.6073C231.83 74.8182 217.933 76.2853 205.742 81.7184C202.022 83.379 198.141 85.7812 196.982 89.6827C196.193 92.3267 197.175 95.6801 199.752 96.6958C201.121 97.244 202.65 97.0344 204.116 96.8248C216.902 94.8579 229.43 91.2788 242.313 89.9407C253.344 88.796 266.581 88.9895 276.501 94.6483C266.791 86.7485 257.402 80.2674 244.89 77.5912L244.874 77.6073Z" fill="#FFE266"/>
<path d="M318.885 63.4844C355.183 28.5962 404.266 54.4721 371.657 65.4996C350.062 71.0134 323.475 66.8216 305.439 81.2186C307.871 74.2055 313.281 68.1436 318.885 63.4844Z" fill="#FFE266"/>
<path d="M234.568 143.982C230.381 150.753 226.741 157.976 224.938 165.747C223.134 173.517 223.263 181.885 226.403 189.22C227.772 192.429 230.059 195.653 233.456 196.443C236.741 197.201 240.123 195.411 242.571 193.106C249.64 186.415 251.267 175.968 253.006 166.391C256.017 149.883 260.639 133.438 268.739 118.638C271.058 114.414 273.683 110.4 276.501 106.498C271.332 110.593 264.633 112.447 259.19 116.413C252.829 121.056 247.225 126.715 242.345 132.89C239.543 136.437 236.951 140.161 234.584 143.998L234.568 143.982Z" fill="#FFE266"/>
<path d="M371.56 120.879C375.715 123.458 379.789 126.248 383.219 129.73C386.649 133.212 389.435 137.485 390.562 142.241C391.464 146.094 391.094 150.576 388.308 153.381C385.94 155.751 382.253 156.444 378.968 155.815C375.683 155.187 372.719 153.429 370.014 151.446C359.708 143.901 352.316 133.132 344.007 123.426C339.482 118.154 334.554 113.124 328.837 109.126C326.003 107.143 322.992 105.418 319.787 104.128C317.468 103.193 314.505 102.935 312.38 101.79C317.968 100.098 326.18 102.435 331.607 103.693C340.657 105.789 349.402 109.094 357.743 113.173C362.478 115.494 367.083 118.074 371.56 120.863V120.879Z" fill="#FFE266"/>
<path d="M302.83 147.48C301.381 156.251 298.015 164.57 295.197 173.018C292.379 181.449 290.076 190.284 290.865 199.152C291.091 201.634 291.558 204.133 292.766 206.31C293.957 208.486 295.97 210.324 298.402 210.84C301.22 211.453 304.151 210.227 306.454 208.502C313.378 203.343 315.971 194.186 316.921 185.609C318.95 167.246 315.182 148.319 306.55 132.019C304.119 127.408 301.317 122.91 298.048 118.848C303.007 127.473 304.473 137.71 302.862 147.48H302.83Z" fill="#FFE266"/>
<path d="M284.859 36.9313C290.044 26.0006 300.157 17.0851 312.09 15.1827C313.7 14.9247 315.472 14.828 316.873 15.6663C318.982 16.9239 319.449 19.8258 319.063 22.2603C318.418 26.2585 316.083 29.8215 313.217 32.6912C310.351 35.561 306.969 37.8342 303.716 40.2364C297.758 44.6216 292.057 49.5065 287.79 55.5684C283.538 61.5981 280.865 68.8369 281.219 76.2692C279.802 66.0155 279.11 55.5684 281.767 45.4599C282.54 42.5257 283.554 39.6721 284.859 36.9313Z" fill="#FFE266"/>
<path d="M209.043 124.087C201.539 129.843 194.18 136.501 190.798 145.336C190.283 146.674 189.864 148.109 190.041 149.544C190.218 150.963 191.12 152.398 192.505 152.784C193.584 153.091 194.76 152.736 195.678 152.091C196.595 151.446 197.304 150.543 197.98 149.657C203.391 142.611 208.383 135.211 214.18 128.472C219.382 122.41 225.292 116.816 232.281 112.882C233.311 112.302 234.632 111.867 235.518 111.093C233.183 111.254 230.606 112.641 228.416 113.398C224.084 114.914 220.026 116.59 216.129 119.057C213.681 120.605 211.346 122.314 209.043 124.071V124.087Z" fill="#FFE266"/>
<path d="M243.585 40.9457C238.046 37.4956 231.878 34.9322 225.405 34.0132C222.892 33.6586 220.219 33.5779 217.933 34.6904C215.646 35.8028 213.923 38.3984 214.551 40.849C215.066 42.8804 217.015 44.283 219.044 44.815C221.073 45.347 223.198 45.1858 225.292 45.1213C231.137 44.9601 237.015 45.6695 242.635 47.2817C246.243 48.3135 249.753 49.7161 253.07 51.4734C254.713 52.3279 256.323 53.2791 257.869 54.3109C258.803 54.9235 259.818 55.9715 260.897 56.2939C260.253 53.9885 256.855 51.4896 255.164 49.9257C251.573 46.6207 247.756 43.5414 243.602 40.9618L243.585 40.9457Z" fill="#FFE266"/>
<path d="M270.414 166.94C270.027 168.294 269.641 169.68 269.834 171.083C270.011 172.469 270.913 173.872 272.282 174.195C273.425 174.453 274.633 173.904 275.438 173.05C276.243 172.195 276.71 171.083 277.113 169.987C280.511 160.426 279.4 149.802 276.743 140C277.757 144.272 275.519 148.883 274.359 152.962C273.039 157.621 271.734 162.28 270.414 166.94Z" fill="#FFE266"/>
<path d="M339.256 154.3C340.786 159.169 341.785 164.586 345.521 168.052C346.406 168.874 347.743 169.568 348.774 168.939C349.675 168.374 349.788 167.133 349.74 166.085C349.434 158.879 346.229 152.011 341.72 146.384C337.243 140.806 331.495 136.195 325.52 132.293C331.945 138.081 336.664 146.078 339.256 154.284V154.3Z" fill="#FFE266"/>
<path d="M368.726 85.7489C372.236 86.6034 375.827 87.9738 378.082 90.7951C378.694 91.5529 379.193 92.4235 379.29 93.3908C379.386 94.3581 378.984 95.4061 378.146 95.8736C376.89 96.5668 375.36 95.7769 374.12 95.0514C362.107 87.9093 347.84 84.6526 333.91 85.894C342.912 85.1363 351.72 83.6369 360.835 84.4592C363.492 84.701 366.133 85.1202 368.726 85.7489Z" fill="#FFE266"/>
<path d="M120.349 77.9997L115.259 74.0612L117.24 71.5316C122.829 64.391 122.121 58.6114 120.043 54.6088C115.001 58.8035 107.849 59.2838 102.872 57.4266C97.9428 55.5855 94.9951 51.5669 94.9951 46.6998C94.9951 42.6973 97.1213 39.7354 100.842 38.5827C106.013 36.9656 113.358 39.2711 119.044 43.7379C119.447 40.2157 118.303 35.7809 115.613 30.7697C113.181 26.2228 109.895 23.405 105.61 22.1242C96.1387 19.3224 85.0726 25.2942 84.9599 25.3583L82.141 26.8952L79 21.3237L81.8189 19.7707C82.3665 19.4665 95.3011 12.4381 107.382 15.9923C113.358 17.7374 118.029 21.7079 121.283 27.7758C126.711 37.8782 126.099 44.7786 124.199 49.1173C124.231 49.1654 124.263 49.1974 124.295 49.2454C129.852 57.2185 129.144 66.7766 122.346 75.4861L120.365 78.0157L120.349 77.9997ZM104.418 44.4744C103.79 44.4744 103.226 44.5384 102.759 44.6985C101.921 44.9547 101.438 45.371 101.438 46.6998C101.438 49.4696 103.452 50.8144 105.143 51.4388C108.3 52.6236 112.988 52.1913 116.048 49.5816C112.295 46.2355 107.527 44.4744 104.418 44.4744Z" fill="#4F83C2"/>
<g clip-path="url(#clip0_4585_943)">
<path d="M30 7.5C30 11.6439 26.6439 15 22.5 15C18.3561 15 15 11.6439 15 7.5C15 3.35605 18.3561 0 22.5 0C26.6439 0 30 3.35605 30 7.5Z" fill="#F4C63C"/>
</g>
<defs>
<clipPath id="clip0_4585_943">
<rect width="15" height="15" fill="white" transform="translate(15)"/>
</clipPath>
</defs>
</svg>
