<svg width="92" height="92" viewBox="0 0 92 92" fill="none" xmlns="http://www.w3.org/2000/svg">
<path d="M3 46C3 22.2518 22.4144 3 46 3C69.5856 3 89 22.2518 89 46C89 69.7482 69.5856 89 46 89C22.4144 89 3 69.7482 3 46Z" stroke="#91BAE8" stroke-width="5"/>
<path d="M32.9651 65.4431H26.1279C25.3723 65.4431 24.6477 65.143 24.1135 64.6089C23.5792 64.0748 23.2791 63.3504 23.2791 62.595V53.4812C23.2791 52.7258 23.5792 52.0014 24.1135 51.4673C24.6477 50.9332 25.3723 50.6331 26.1279 50.6331H32.9651C33.7207 50.6331 34.4453 50.9332 34.9795 51.4673C35.5138 52.0014 35.814 52.7258 35.814 53.4812V62.595C35.814 63.3504 35.5138 64.0748 34.9795 64.6089C34.4453 65.143 33.7207 65.4431 32.9651 65.4431ZM26.6977 62.0254H32.3953V54.0508H26.6977V62.0254Z" fill="#232323"/>
<path d="M48.9186 65.4431H42.0814C41.3258 65.4431 40.6012 65.143 40.067 64.6089C39.5327 64.0748 39.2326 63.3504 39.2326 62.595V46.6458C39.2326 45.8904 39.5327 45.166 40.067 44.6319C40.6012 44.0978 41.3258 43.7977 42.0814 43.7977H48.9186C49.6742 43.7977 50.3988 44.0978 50.933 44.6319C51.4673 45.166 51.7674 45.8904 51.7674 46.6458V62.595C51.7674 63.3504 51.4673 64.0748 50.933 64.6089C50.3988 65.143 49.6742 65.4431 48.9186 65.4431ZM42.6512 62.0254H48.3488V47.2154H42.6512V62.0254Z" fill="#232323"/>
<path d="M64.8721 65.4431H58.0349C57.2793 65.4431 56.5547 65.143 56.0204 64.6089C55.4862 64.0748 55.186 63.3504 55.186 62.595V37.532C55.186 36.7766 55.4862 36.0522 56.0204 35.5181C56.5547 34.984 57.2793 34.6839 58.0349 34.6839H64.8721C65.6277 34.6839 66.3523 34.984 66.8865 35.5181C67.4208 36.0522 67.7209 36.7766 67.7209 37.532V62.595C67.7209 63.3504 67.4208 64.0748 66.8865 64.6089C66.3523 65.143 65.6277 65.4431 64.8721 65.4431ZM58.6046 62.0254H64.3023V38.1016H58.6046V62.0254Z" fill="#232323"/>
<path d="M68.2907 70H22.7093C22.256 70 21.8212 69.82 21.5006 69.4995C21.1801 69.179 21 68.7444 21 68.2912C21 67.8379 21.1801 67.4033 21.5006 67.0828C21.8212 66.7624 22.256 66.5823 22.7093 66.5823H68.2907C68.744 66.5823 69.1788 66.7624 69.4994 67.0828C69.8199 67.4033 70 67.8379 70 68.2912C70 68.7444 69.8199 69.179 69.4994 69.4995C69.1788 69.82 68.744 70 68.2907 70Z" fill="#232323"/>
<path d="M61.4535 31.2662C61.002 31.2603 60.5706 31.0784 60.2514 30.7592C59.9321 30.44 59.7501 30.0087 59.7442 29.5574V24.4308H54.6163C54.1629 24.4308 53.7282 24.2508 53.4076 23.9303C53.0871 23.6099 52.907 23.1752 52.907 22.722C52.907 22.2688 53.0871 21.8341 53.4076 21.5137C53.7282 21.1932 54.1629 21.0131 54.6163 21.0131H61.4535C61.905 21.019 62.3363 21.201 62.6556 21.5202C62.9749 21.8394 63.1569 22.2706 63.1628 22.722V29.5574C63.1569 30.0087 62.9749 30.44 62.6556 30.7592C62.3363 31.0784 61.905 31.2603 61.4535 31.2662Z" fill="#91BAE8"/>
<path d="M29.5465 42.6585C29.1932 42.6606 28.8479 42.5532 28.5581 42.3511C28.2684 42.149 28.0484 41.862 27.9284 41.5298C27.8085 41.1975 27.7945 40.8363 27.8883 40.4957C27.9822 40.1552 28.1793 39.8521 28.4526 39.6281L42.127 28.2359C42.4404 27.9556 42.8461 27.8007 43.2665 27.8007C43.687 27.8007 44.0927 27.9556 44.406 28.2359L47.893 31.8358L60.3595 21.4233C60.5331 21.2737 60.7345 21.1597 60.9521 21.0879C61.1698 21.0161 61.3994 20.9878 61.628 21.0048C61.8566 21.0217 62.0795 21.0835 62.2842 21.1865C62.4889 21.2896 62.6713 21.432 62.8209 21.6055C62.9706 21.7791 63.0846 21.9804 63.1564 22.198C63.2282 22.4156 63.2565 22.6452 63.2395 22.8737C63.2226 23.1022 63.1608 23.3251 63.0577 23.5297C62.9546 23.7343 62.8122 23.9167 62.6386 24.0663L48.9642 35.4586C48.6508 35.7388 48.2451 35.8937 47.8247 35.8937C47.4042 35.8937 46.9985 35.7388 46.6851 35.4586L43.2209 31.8358L30.6405 42.2712C30.3294 42.519 29.9442 42.6554 29.5465 42.6585Z" fill="#91BAE8"/>
</svg>
