<svg width="92" height="92" viewBox="0 0 92 92" fill="none" xmlns="http://www.w3.org/2000/svg">
<g clip-path="url(#clip0_4797_1840)">
<path d="M49.164 62.5467C48.3914 62.5467 47.7223 61.9654 47.6255 61.1721C47.5205 60.3132 48.1245 59.5304 48.9754 59.4245C52.8612 58.9387 56.3817 57.2015 59.1563 54.3994C60.3303 53.2144 61.3299 51.8667 62.1231 50.4094C59.5267 51.2086 56.758 51.4488 54.0515 51.0869C49.8907 50.5302 46.1188 48.6483 43.1446 45.6455C40.1696 42.6434 38.3051 38.8362 37.7536 34.6365C37.3951 31.9038 37.6331 29.1099 38.4249 26.4885C36.9803 27.2892 35.6459 28.298 34.4719 29.483C28.5567 35.4528 27.6674 44.8478 32.3567 51.822C32.838 52.5383 32.6532 53.5129 31.9442 53.9987C31.2345 54.4845 30.269 54.2979 29.7877 53.5823C24.2629 45.3656 25.309 34.2984 32.2762 27.2675C34.6767 24.843 37.6531 23.0446 40.8823 22.0663C41.4878 21.8828 42.1421 22.088 42.5384 22.585C42.9346 23.082 42.9923 23.7715 42.6855 24.3289C39.2618 30.5419 40.353 38.3959 45.3403 43.4284C50.3269 48.4625 58.108 49.5639 64.2634 46.1081C64.8157 45.7984 65.4988 45.8567 65.9911 46.2566C66.4835 46.6566 66.6868 47.3178 66.505 47.9282C65.535 51.1877 63.754 54.1912 61.3528 56.6149C58.0843 59.9155 53.9361 61.9624 49.3569 62.534C49.2919 62.5422 49.2275 62.5459 49.164 62.5459V62.5467Z" fill="black"/>
<path d="M66.4485 33.3814H60.9976C60.4276 33.3814 59.9042 33.0665 59.6329 32.5613C59.3616 32.0561 59.386 31.4405 59.6972 30.9591L63.4573 25.1341H61.1655C60.3079 25.1341 59.6129 24.4327 59.6129 23.5671C59.6129 22.7014 60.3079 22 61.1647 22H66.3213C66.8913 22 67.4147 22.3149 67.6861 22.8201C67.9574 23.3253 67.933 23.9409 67.6217 24.4222L63.8617 30.2472H66.4485C67.3061 30.2472 68.001 30.9487 68.001 31.8143C68.001 32.6799 67.3061 33.3814 66.4485 33.3814Z" fill="black"/>
<path d="M55.0901 36.2528H50.7711C50.2011 36.2528 49.6776 35.9379 49.4063 35.4327C49.135 34.9275 49.1594 34.3119 49.4706 33.8305L52.1255 29.7181H50.9049C50.0473 29.7181 49.3524 29.0167 49.3524 28.1511C49.3524 27.2854 50.0473 26.584 50.9049 26.584H54.9902C55.5602 26.584 56.0837 26.8989 56.355 27.4041C56.6263 27.9093 56.6019 28.5249 56.2907 29.0062L53.6358 33.1187H55.0901C55.9476 33.1187 56.6426 33.8201 56.6426 34.6857C56.6426 35.5513 55.9476 36.2528 55.0901 36.2528Z" fill="black"/>
<path d="M49.8258 59.9801C48.7731 58.9174 47.3188 58.2608 45.7131 58.2608H44.8681C44.0031 53.7036 40.0331 50.2598 35.2646 50.2598C30.4961 50.2598 26.5261 53.7036 25.6611 58.2608H24.8161C23.2103 58.2608 21.7568 58.9174 20.7033 59.9801C19.6506 61.0427 19 62.5105 19 64.1313C19 67.3729 21.6046 70.0018 24.8161 70.0018H45.7131C48.9246 70.0018 51.5292 67.3729 51.5292 64.1313C51.5292 62.5105 50.8786 61.0434 49.8258 59.9801Z" fill="#91BAE8"/>
</g>
<path d="M3 46C3 22.2518 22.4144 3 46 3C69.5856 3 89 22.2518 89 46C89 69.7482 69.5856 89 46 89C22.4144 89 3 69.7482 3 46Z" stroke="#91BAE8" stroke-width="5"/>
<defs>
<clipPath id="clip0_4797_1840">
<rect width="49" height="48" fill="white" transform="translate(19 22)"/>
</clipPath>
</defs>
</svg>
