<svg width="92" height="92" viewBox="0 0 92 92" fill="none" xmlns="http://www.w3.org/2000/svg">
<path d="M3 46C3 22.2518 22.4144 3 46 3C69.5856 3 89 22.2518 89 46C89 69.7482 69.5856 89 46 89C22.4144 89 3 69.7482 3 46Z" stroke="#91BAE8" stroke-width="5"/>
<path d="M62.875 70.1875C60.9363 70.1851 59.0778 69.4139 57.7069 68.0431C56.3361 66.6722 55.5649 64.8137 55.5625 62.875V37C55.5625 36.5524 55.7403 36.1232 56.0568 35.8068C56.3732 35.4903 56.8024 35.3125 57.25 35.3125C57.6976 35.3125 58.1268 35.4903 58.4432 35.8068C58.7597 36.1232 58.9375 36.5524 58.9375 37V62.875C58.9375 63.9193 59.3523 64.9208 60.0908 65.6592C60.8292 66.3977 61.8307 66.8125 62.875 66.8125C63.9193 66.8125 64.9208 66.3977 65.6592 65.6592C66.3977 64.9208 66.8125 63.9193 66.8125 62.875V38.6875H61.75C61.3024 38.6875 60.8732 38.5097 60.5568 38.1932C60.2403 37.8768 60.0625 37.4476 60.0625 37C60.0625 36.5524 60.2403 36.1232 60.5568 35.8068C60.8732 35.4903 61.3024 35.3125 61.75 35.3125H68.5C68.9476 35.3125 69.3768 35.4903 69.6932 35.8068C70.0097 36.1232 70.1875 36.5524 70.1875 37V62.875C70.1851 64.8137 69.4139 66.6722 68.0431 68.0431C66.6722 69.4139 64.8137 70.1851 62.875 70.1875Z" fill="#232323"/>
<path d="M62.875 70.1875H28C26.3593 70.1863 24.7862 69.534 23.6261 68.3739C22.466 67.2138 21.8137 65.6407 21.8125 64V32.5C21.8123 32.2784 21.856 32.059 21.9409 31.8543C22.0259 31.6497 22.1505 31.4638 22.3075 31.3075L31.3075 22.3075C31.4638 22.1505 31.6497 22.0259 31.8543 21.9409C32.059 21.856 32.2784 21.8123 32.5 21.8125H55C56.0439 21.8137 57.0448 22.2289 57.7829 22.9671C58.5211 23.7052 58.9363 24.7061 58.9375 25.75V62.875C58.9355 63.3929 59.0361 63.9061 59.2335 64.3849C59.4308 64.8638 59.721 65.2988 60.0872 65.665C60.8291 66.3997 61.8309 66.812 62.875 66.8125C63.3226 66.8125 63.7518 66.9903 64.0682 67.3068C64.3847 67.6232 64.5625 68.0524 64.5625 68.5C64.5625 68.9476 64.3847 69.3768 64.0682 69.6932C63.7518 70.0097 63.3226 70.1875 62.875 70.1875ZM25.1875 33.1997V64C25.1887 64.7456 25.4854 65.4602 26.0126 65.9874C26.5398 66.5146 27.2544 66.8113 28 66.8125H56.7033C55.9541 65.6362 55.5582 64.2696 55.5625 62.875V25.75C55.5625 25.6008 55.5032 25.4577 55.3977 25.3523C55.2923 25.2468 55.1492 25.1875 55 25.1875H33.1997L25.1875 33.1997Z" fill="#232323"/>
<path d="M49.375 48.8125H31.375C30.9274 48.8125 30.4982 48.6347 30.1818 48.3182C29.8653 48.0018 29.6875 47.5726 29.6875 47.125V38.125C29.6875 37.6774 29.8653 37.2482 30.1818 36.9318C30.4982 36.6153 30.9274 36.4375 31.375 36.4375H49.375C49.8226 36.4375 50.2518 36.6153 50.5682 36.9318C50.8847 37.2482 51.0625 37.6774 51.0625 38.125V47.125C51.0625 47.5726 50.8847 48.0018 50.5682 48.3182C50.2518 48.6347 49.8226 48.8125 49.375 48.8125ZM33.0625 45.4375H47.6875V39.8125H33.0625V45.4375Z" fill="#91BAE8"/>
<path d="M32.5 34.1875H23.5C23.0524 34.1875 22.6232 34.0097 22.3068 33.6932C21.9903 33.3768 21.8125 32.9476 21.8125 32.5C21.8125 32.0524 21.9903 31.6232 22.3068 31.3068C22.6232 30.9903 23.0524 30.8125 23.5 30.8125H30.8125V23.5C30.8125 23.0524 30.9903 22.6232 31.3068 22.3068C31.6232 21.9903 32.0524 21.8125 32.5 21.8125C32.9476 21.8125 33.3768 21.9903 33.6932 22.3068C34.0097 22.6232 34.1875 23.0524 34.1875 23.5V32.5C34.1875 32.9476 34.0097 33.3768 33.6932 33.6932C33.3768 34.0097 32.9476 34.1875 32.5 34.1875Z" fill="#232323"/>
<path d="M48.25 55.5625H31.375C30.9274 55.5625 30.4982 55.3847 30.1818 55.0682C29.8653 54.7518 29.6875 54.3226 29.6875 53.875C29.6875 53.4274 29.8653 52.9982 30.1818 52.6818C30.4982 52.3653 30.9274 52.1875 31.375 52.1875H48.25C48.6976 52.1875 49.1268 52.3653 49.4432 52.6818C49.7597 52.9982 49.9375 53.4274 49.9375 53.875C49.9375 54.3226 49.7597 54.7518 49.4432 55.0682C49.1268 55.3847 48.6976 55.5625 48.25 55.5625Z" fill="#91BAE8"/>
<path d="M43.0008 61.1875H31.375C30.9274 61.1875 30.4982 61.0097 30.1818 60.6932C29.8653 60.3768 29.6875 59.9476 29.6875 59.5C29.6875 59.0524 29.8653 58.6232 30.1818 58.3068C30.4982 57.9903 30.9274 57.8125 31.375 57.8125H43.0008C43.4483 57.8125 43.8775 57.9903 44.194 58.3068C44.5105 58.6232 44.6883 59.0524 44.6883 59.5C44.6883 59.9476 44.5105 60.3768 44.194 60.6932C43.8775 61.0097 43.4483 61.1875 43.0008 61.1875Z" fill="#91BAE8"/>
</svg>
