<svg width="92" height="92" viewBox="0 0 92 92" fill="none" xmlns="http://www.w3.org/2000/svg">
<path d="M46 27C39.6914 27.0115 33.5947 29.3128 28.81 33.4887L18.6585 42.3419C18.1384 42.7937 17.7208 43.3544 17.4345 43.9857C17.1482 44.6169 17 45.3037 17 45.9987C17 46.6937 17.1482 47.3805 17.4345 48.0118C17.7208 48.643 18.1384 49.2038 18.6585 49.6555L28.81 58.5087C33.5881 62.6962 39.689 65 46 65C52.311 65 58.4119 62.6962 63.19 58.5087L73.3415 49.6555C73.8616 49.2038 74.2792 48.643 74.5655 48.0118C74.8518 47.3805 75 46.6937 75 45.9987C75 45.3037 74.8518 44.6169 74.5655 43.9857C74.2792 43.3544 73.8616 42.7937 73.3415 42.3419L63.19 33.4887C58.4053 29.3128 52.3086 27.0115 46 27ZM31.463 36.6231C35.4987 33.0712 40.6599 31.116 46 31.116C51.3401 31.116 56.5013 33.0712 60.537 36.6231L70.7157 45.4763C70.8512 45.6153 70.9273 45.8031 70.9273 45.9987C70.9273 46.1944 70.8512 46.3821 70.7157 46.5211L60.537 55.3744C56.5013 58.9262 51.3401 60.8814 46 60.8814C40.6599 60.8814 35.4987 58.9262 31.463 55.3744L21.2843 46.5211C21.1488 46.3821 21.0727 46.1944 21.0727 45.9987C21.0727 45.8031 21.1488 45.6153 21.2843 45.4763L31.463 36.6231Z" fill="#181818"/>
<path d="M46 34.3135C42.9487 34.3135 40.0223 35.5447 37.8647 37.7361C35.707 39.9275 34.4949 42.8996 34.4949 45.9987C34.4949 49.0978 35.707 52.07 37.8647 54.2614C40.0223 56.4528 42.9487 57.6839 46 57.6839C46.6367 57.69 47.2721 57.6255 47.895 57.4914C48.1558 57.4361 48.4031 57.3286 48.6224 57.175C48.8418 57.0214 49.0288 56.825 49.1725 56.5971C49.3162 56.3692 49.4137 56.1145 49.4593 55.8479C49.5049 55.5813 49.4976 55.3082 49.438 55.0444C49.4108 54.7794 49.4108 54.5121 49.438 54.2471C49.4449 52.9826 49.9388 51.7711 50.8141 50.8719C51.6894 49.9726 52.8764 49.4571 54.1212 49.4355C54.3822 49.4079 54.6453 49.4079 54.9063 49.4355C55.4303 49.5502 55.9776 49.4498 56.4289 49.1562C56.8803 48.8626 57.199 48.3997 57.3156 47.8683C57.4489 47.2359 57.5124 46.5904 57.5051 45.9437C57.4837 42.8564 56.263 39.9025 54.1084 37.7246C51.9539 35.5466 49.0398 34.3207 46 34.3135ZM45.3503 53.5597C43.9449 53.4228 42.6069 52.8829 41.4922 52.0028C40.3776 51.1228 39.5323 49.939 39.055 48.5896C38.5777 47.2401 38.488 45.7806 38.7964 44.3813C39.1049 42.9821 39.7987 41.7008 40.797 40.6868C41.7953 39.6729 43.0569 38.9682 44.4346 38.6549C45.8123 38.3417 47.2493 38.4327 48.578 38.9175C49.9067 39.4023 51.0722 40.2608 51.9387 41.3929C52.8051 42.525 53.3368 43.884 53.4715 45.3114C51.3738 45.4693 49.4012 46.3854 47.9113 47.8936C46.4214 49.4017 45.5128 51.4022 45.3503 53.5322V53.5597Z" fill="#91BAE8"/>
<path d="M45.3503 53.5597C43.9449 53.4228 42.6069 52.8829 41.4922 52.0028C40.3776 51.1228 39.5323 49.939 39.055 48.5896C38.5777 47.2401 38.488 45.7806 38.7964 44.3813C39.1049 42.9821 39.7987 41.7008 40.797 40.6868C41.7953 39.6729 43.0569 38.9682 44.4346 38.6549C45.8123 38.3417 47.2493 38.4327 48.578 38.9175C49.9067 39.4023 51.0722 40.2608 51.9387 41.3929C52.8051 42.525 53.3368 43.884 53.4715 45.3114C51.3738 45.4693 49.4012 46.3854 47.9113 47.8936C46.4214 49.4017 45.5128 51.4022 45.3503 53.5322V53.5597Z" fill="#91BAE8"/>
<path d="M3 46C3 22.2518 22.4144 3 46 3C69.5856 3 89 22.2518 89 46C89 69.7482 69.5856 89 46 89C22.4144 89 3 69.7482 3 46Z" stroke="#91BAE8" stroke-width="5"/>
</svg>
