<svg width="92" height="92" viewBox="0 0 92 92" fill="none" xmlns="http://www.w3.org/2000/svg">
<path d="M50.4983 71.6476H31.56C29.9215 71.6476 28.322 70.9838 27.1698 69.8272C25.9991 68.6602 25.3516 67.1006 25.3516 65.4392V27.5619C25.3516 25.9006 25.9984 24.3409 27.1735 23.1695C28.3213 22.0173 29.9215 21.3535 31.56 21.3535H50.4983C52.1367 21.3535 53.7369 22.0173 54.8884 23.174C56.0598 24.3409 56.7066 25.9006 56.7066 27.5619V37.384C56.7066 38.198 56.0473 38.8574 55.2332 38.8574C54.4191 38.8574 53.7597 38.198 53.7597 37.384V27.5619C53.7597 26.6896 53.4201 25.8711 52.8042 25.2574C52.1971 24.6482 51.3587 24.3012 50.4983 24.3012H31.56C30.7002 24.3012 29.8611 24.6482 29.2584 25.2537C28.6381 25.8719 28.2992 26.6904 28.2992 27.5626V65.4392C28.2992 66.3115 28.6388 67.13 29.2547 67.7437C29.8618 68.353 30.7009 68.7007 31.5607 68.7007H50.4983C51.358 68.7007 52.1971 68.3537 52.7998 67.7481C53.4201 67.13 53.7597 66.3115 53.7597 65.4392V60.7043C53.7597 59.8902 54.4191 59.2308 55.2332 59.2308C56.0473 59.2308 56.7066 59.8902 56.7066 60.7043V65.4392C56.7066 67.1006 56.0598 68.6602 54.884 69.8309C53.7362 70.9838 52.136 71.6469 50.4983 71.6469V71.6476Z" fill="black" stroke="black" stroke-width="0.2"/>
<path d="M48.9197 65.3336H33.1375C32.3234 65.3336 31.6641 64.6743 31.6641 63.8602C31.6641 63.0461 32.3234 62.3867 33.1375 62.3867H48.9197C49.7338 62.3867 50.3931 63.0461 50.3931 63.8602C50.3931 64.6743 49.7338 65.3336 48.9197 65.3336Z" fill="black"/>
<path d="M42.6108 30.6129H39.4539C38.6398 30.6129 37.9805 29.9536 37.9805 29.1395C37.9805 28.3254 38.6398 27.666 39.4539 27.666H42.6108C43.4249 27.666 44.0842 28.3254 44.0842 29.1395C44.0842 29.9536 43.4249 30.6129 42.6108 30.6129Z" fill="black"/>
<path d="M55.2361 62.1774C54.9775 62.1774 54.7189 62.1096 54.4883 61.9733C54.3225 61.8753 50.3811 59.5421 46.3799 56.0744C40.8066 51.2437 37.9805 46.7246 37.9805 42.6416C37.9805 36.9946 42.574 32.4004 48.221 32.4004C49.8344 32.4004 51.4427 32.7864 52.8727 33.5173C53.7317 33.9564 54.5303 34.5207 55.2361 35.1845C55.9419 34.5214 56.7405 33.9571 57.5995 33.5173C59.0295 32.7864 60.6378 32.4004 62.2512 32.4004C67.8975 32.4004 72.4917 36.9946 72.4917 42.6416C72.4917 46.7246 69.6656 51.2437 64.0923 56.0744C60.0911 59.5421 56.1496 61.8761 55.9839 61.9733C55.7533 62.1089 55.4947 62.1774 55.2361 62.1774ZM48.221 35.3473C44.1992 35.3473 40.9274 38.6198 40.9274 42.6416C40.9274 45.7793 43.4691 49.6442 48.2784 53.8192C51.0832 56.2549 53.9254 58.1416 55.2368 58.9719C56.5482 58.1416 59.3897 56.2549 62.1952 53.8192C67.0038 49.6442 69.5455 45.7786 69.5455 42.6416C69.5455 38.6198 66.2737 35.3473 62.2519 35.3473C59.9379 35.3473 57.8102 36.4119 56.4141 38.2684C56.1356 38.6383 55.6995 38.8563 55.2361 38.8563C54.7727 38.8563 54.3365 38.6383 54.0581 38.2684C52.662 36.4119 50.5343 35.3473 48.2202 35.3473H48.221Z" fill="black" stroke="black" stroke-width="0.2"/>
<path d="M59.1819 52.7077C58.7457 52.7077 58.331 52.5147 58.0503 52.1773L51.4227 44.2236L49.3606 47.3164C49.0872 47.726 48.6275 47.9728 48.1347 47.9728H36.2977C35.4836 47.9728 34.8242 47.3134 34.8242 46.4993C34.8242 45.6853 35.4836 45.0259 36.2977 45.0259H47.3456L50.0649 40.9474C50.3227 40.5606 50.7478 40.3182 51.212 40.2932C51.6746 40.2681 52.1248 40.4641 52.4224 40.8214L59.05 48.7751L61.1121 45.6823C61.3854 45.2727 61.8451 45.0259 62.338 45.0259H74.175C74.9891 45.0259 75.6485 45.6853 75.6485 46.4993C75.6485 47.3134 74.9891 47.9728 74.175 47.9728H63.127L60.4078 52.0513C60.1499 52.4381 59.7248 52.6805 59.2607 52.7055C59.2342 52.707 59.2084 52.7077 59.1819 52.7077Z" fill="#91BAE8" stroke="#91BAE8" stroke-width="0.2"/>
<path d="M3 46C3 22.2518 22.4144 3 46 3C69.5856 3 89 22.2518 89 46C89 69.7482 69.5856 89 46 89C22.4144 89 3 69.7482 3 46Z" stroke="#91BAE8" stroke-width="5"/>
</svg>
