<svg width="92" height="92" viewBox="0 0 92 92" fill="none" xmlns="http://www.w3.org/2000/svg">
<g clip-path="url(#clip0_4797_1837)">
<path d="M28.1435 55.7141C27.5899 55.7141 27.0364 55.4462 26.6971 54.9641C26.1256 54.1605 26.3042 53.0534 27.1078 52.4641L33.3578 47.9998C34.1614 47.4284 35.2685 47.607 35.8399 48.4105C36.4114 49.2141 36.2328 50.3212 35.4292 50.9105L29.1792 55.3748C28.8578 55.6069 28.5006 55.7141 28.1435 55.7141Z" fill="#91BAE8"/>
<path d="M54.9269 34.2857H50.534C50.1412 34.2857 49.7483 34.2143 49.3555 34.0893L39.5519 29.1072C36.784 27.6965 33.4626 28.2322 31.2662 30.4286L28.659 33.0357C27.9626 33.7322 27.9626 34.8572 28.659 35.5536C29.3555 36.25 30.4805 36.25 31.1769 35.5536L33.784 32.9465C34.784 31.9465 36.284 31.6786 37.5876 32.1786L33.284 39.0536C32.4448 40.375 32.5876 42.1429 33.6233 43.3036L38.9805 49.3929L40.6769 57.8572C40.8555 58.7143 41.5876 59.2857 42.4269 59.2857C42.534 59.2857 42.659 59.2857 42.784 59.25C43.7483 59.0536 44.3733 58.1072 44.1769 57.1429L42.3912 48.2143C42.3376 47.9107 42.1948 47.625 41.9805 47.3929L40.6233 45.8393L46.659 36.7143L47.8555 37.3215C47.8555 37.3215 47.9805 37.375 48.034 37.4107C48.8376 37.7143 49.6769 37.875 50.534 37.875H54.9269C55.909 37.875 56.7126 37.0715 56.7126 36.0893C56.7126 35.1072 55.909 34.3036 54.9269 34.3036V34.2857ZM38.1769 43.0715L36.3019 40.9465L40.8198 33.75L43.4448 35.0893L38.1769 43.0715Z" fill="#91BAE8"/>
<path d="M47.7868 30.7143C44.8404 30.7143 42.4297 28.3036 42.4297 25.3571C42.4297 22.4107 44.8404 20 47.7868 20C50.7333 20 53.144 22.4107 53.144 25.3571C53.144 28.3036 50.7333 30.7143 47.7868 30.7143ZM47.7868 23.5714C46.8047 23.5714 46.0011 24.375 46.0011 25.3571C46.0011 26.3393 46.8047 27.1429 47.7868 27.1429C48.769 27.1429 49.5725 26.3393 49.5725 25.3571C49.5725 24.375 48.769 23.5714 47.7868 23.5714Z" fill="#91BAE8"/>
<path d="M66.5177 57.5003C66.4105 48.6788 65.4463 46.0896 62.607 41.7146L64.2141 41.3931C64.5534 41.3217 64.8748 41.161 65.1248 40.911L70.482 35.5538C71.1784 34.8574 71.1784 33.7324 70.482 33.036C69.7855 32.3396 68.6605 32.3396 67.9641 33.036L62.982 38.0181L54.5891 39.6967C53.6248 39.8931 52.9998 40.8396 53.1963 41.8038C53.357 42.6431 54.107 43.2324 54.9463 43.2324C55.0534 43.2324 55.1784 43.2324 55.3034 43.1967L58.857 42.4824C61.9105 47.0717 62.8748 48.5538 62.982 57.5181M62.982 57.5181H60.3213C59.3391 57.5181 58.5355 58.3217 58.5355 59.3038V68.2324C58.5355 69.2146 59.3391 70.0181 60.3213 70.0181H67.4641C69.4284 70.0181 71.0355 68.411 71.0355 66.4467V61.0896C71.0355 59.1253 69.4284 57.5181 67.4641 57.5181H62.982ZM67.4641 66.4467H62.107V61.0896H67.4641V66.4467Z" fill="black"/>
<path d="M54.9286 70.0008H25.4643C23 70.0008 21 68.0008 21 65.5366C21 63.0723 23 61.0723 25.4643 61.0723H54.9286C55.9107 61.0723 56.7143 61.8758 56.7143 62.858C56.7143 63.8401 55.9107 64.6437 54.9286 64.6437H25.4643C24.9643 64.6437 24.5714 65.0544 24.5714 65.5366C24.5714 66.0187 24.9643 66.4294 25.4643 66.4294H54.9286C55.9107 66.4294 56.7143 67.233 56.7143 68.2151C56.7143 69.1973 55.9107 70.0008 54.9286 70.0008Z" fill="black"/>
</g>
<path d="M3 46C3 22.2518 22.4144 3 46 3C69.5856 3 89 22.2518 89 46C89 69.7482 69.5856 89 46 89C22.4144 89 3 69.7482 3 46Z" stroke="#91BAE8" stroke-width="5"/>
<defs>
<clipPath id="clip0_4797_1837">
<rect width="50" height="50" fill="white" transform="translate(21 20)"/>
</clipPath>
</defs>
</svg>
