<svg width="707" height="674" viewBox="0 0 707 674" fill="none" xmlns="http://www.w3.org/2000/svg">
<mask id="mask0_4237_1899" style="mask-type:alpha" maskUnits="userSpaceOnUse" x="-24" y="0" width="731" height="674">
<rect x="-24" width="731" height="674" fill="#D9D9D9"/>
</mask>
<g mask="url(#mask0_4237_1899)">
<path d="M-11.3368 102.292C-10.6865 101.206 71.053 262.423 303.569 299.817C385.648 313.017 416.078 310.301 465.539 302.564C505.445 289.076 575.495 255.195 576.463 208.04C576.891 187.126 561.783 164.069 571.979 146.169C576.813 137.686 586.459 132.654 591.813 124.479C599.627 112.545 596.874 96.6422 593.876 82.2137C590.404 65.5006 586.586 48.0429 575.335 34.202C590.856 35.2699 605.227 49.0291 612.756 62.3175C620.285 75.6058 622.624 90.5884 624.455 105.201C632.942 172.895 631.552 246.271 588.827 297.565C574.458 314.813 556.079 328.652 540.834 345.2C534.767 351.789 528.944 359.552 529.409 368.619C530.003 380.187 540.795 389.911 552.199 395.006C581.058 407.897 613.632 411.765 627.356 443.475C634.485 459.946 633.064 479.237 622.558 492.712C613.189 504.729 598.001 511.261 586.039 520.997C574.077 530.733 565.139 547.159 572.997 561.282C580.738 575.198 599.569 578.847 615.41 583.141C633.209 587.961 650.322 595.75 665.681 606.016C675.398 612.512 684.924 620.716 688.093 631.342C693.134 648.249 679.011 670.557 666.072 681.817C607.122 733.119 486.586 764.711 347.128 761.399C270.328 759.575 -23.449 737.648 -83.0072 687.702C-119.049 657.475 -48.7284 614.335 -86.9518 586.672C-77.3548 595.514 -97.5827 578.977 -86.9518 586.672C-96.0218 578.313 -80.8374 567.212 -88.0931 557.441C-106.815 532.22 -96.8342 503.546 -101.666 473.887C-48.0997 473.479 -148.533 261.612 -100.386 242.591C-52.2392 223.571 -36.7273 144.994 -11.3368 102.292Z" fill="#A7CEED"/>
<path d="M475.433 649.427C515.758 629.818 506.929 570.499 482.525 548.083C464.404 531.44 439.48 528.899 417.928 518.528C399.295 509.558 386.285 492.197 367.052 484.203C347.982 476.27 323.437 481.764 302.985 487.047C279.289 493.16 255.754 500.52 232.509 509.059C189.747 524.769 180.429 555.542 172.193 597.309C170.533 605.734 169.751 614.595 172.619 622.125C174.524 627.113 177.921 631.203 181.461 635.008C211.53 667.302 254.301 683.76 296.264 698.33C320.253 706.662 347.301 714.472 372.221 702.627C384.415 696.831 394.583 686.943 405.376 678.38C427.796 660.575 450.152 661.718 475.424 649.434L475.433 649.427Z" fill="#D8E897"/>
</g>
<g clip-path="url(#clip0_4237_1899)">
<path d="M389.209 529.649L390.704 567.113L320.341 566.897L320.819 497.069L389.209 529.649Z" fill="white"/>
<path d="M389.462 532.86L389.954 545.701C389.954 545.701 355.703 547.745 320.803 498.682L389.462 532.86Z" fill="#A7CEED"/>
<path d="M295.756 466.195C290.554 452.637 288.805 437.837 292.143 422.078C302.597 372.685 355.891 375.886 394.014 389.37C410.561 395.223 423.166 410.976 425.229 428.411C426.143 436.098 426.382 444.776 426.849 452.516C427.033 455.532 431.031 514.424 427.74 523.311C421.594 539.922 387.493 539.173 363.276 526.011C336.029 511.189 306.899 495.231 295.75 466.219L295.756 466.195Z" fill="white"/>
<path d="M425.219 428.404C423.999 417.985 418.939 408.213 411.587 400.757C411.481 400.741 411.367 400.719 411.253 400.712C386.445 397.312 364.274 416.466 363.891 441.494L363.275 481.235L370.29 482.431C383.598 484.689 393.446 496.034 393.822 509.521L394.556 535.48C410.234 536.963 424.054 533.279 427.738 523.295C431.022 514.417 427.03 455.516 426.847 452.5C426.372 444.769 426.134 436.091 425.227 428.395L425.219 428.404Z" fill="#4F83C2"/>
<mask id="mask1_4237_1899" style="mask-type:luminance" maskUnits="userSpaceOnUse" x="363" y="400" width="67" height="136">
<path d="M425.219 428.404C423.999 417.985 418.939 408.213 411.587 400.757C411.481 400.741 411.367 400.719 411.253 400.712C386.445 397.312 364.274 416.466 363.891 441.494L363.275 481.235L370.29 482.431C383.598 484.689 393.446 496.034 393.822 509.521L394.556 535.48C410.234 536.963 424.054 533.279 427.738 523.295C431.022 514.417 427.03 455.516 426.847 452.5C426.372 444.769 426.134 436.091 425.227 428.395L425.219 428.404Z" fill="white"/>
</mask>
<g mask="url(#mask1_4237_1899)">
<path d="M430.295 507.246C430.489 500.886 430.354 492.772 430.058 484.567L406.193 484.499C404.427 484.491 403.087 486.141 403.512 487.871C404.843 493.275 410.056 503.639 430.288 507.255L430.295 507.246Z" fill="white"/>
</g>
<path d="M391.542 555.53L319.309 555.319L319.273 567.555L391.506 567.766L391.542 555.53Z" fill="#4F83C2"/>
<path d="M321.279 431.53C320.949 431.533 320.61 431.424 320.326 431.214L288.893 407.836C288.181 407.307 288.034 406.303 288.563 405.59C289.093 404.878 290.097 404.731 290.809 405.261L322.242 428.638C322.955 429.168 323.102 430.171 322.572 430.884C322.26 431.304 321.771 431.53 321.279 431.53Z" fill="#A7CEED"/>
<path d="M314.126 427.822C301.185 443.083 303.066 465.946 318.327 478.887C333.589 491.828 356.451 489.947 369.392 474.686C382.333 459.424 380.453 436.562 365.191 423.621C349.93 410.68 327.067 412.561 314.126 427.822Z" fill="white"/>
<path d="M341.653 488.148C321.311 488.089 304.808 471.487 304.867 451.145C304.927 430.804 321.528 414.3 341.87 414.36C362.211 414.419 378.715 431.02 378.655 451.362C378.596 471.704 361.995 488.208 341.653 488.148ZM341.869 417.189C323.091 417.13 307.763 432.36 307.705 451.154C307.646 469.932 322.876 485.26 341.67 485.317C360.448 485.377 375.776 470.147 375.833 451.353C375.893 432.575 360.654 417.24 341.869 417.189Z" fill="#A7CEED"/>
<path d="M314.668 443.545C310.741 458.173 319.416 473.216 334.045 477.143C348.674 481.07 363.716 472.395 367.643 457.766C371.57 443.137 362.895 428.095 348.266 424.168C333.637 420.24 318.595 428.916 314.668 443.545Z" fill="#4F83C2"/>
<path d="M341.213 474.667C340.35 474.665 339.484 474.615 338.654 474.523C338.215 474.478 337.9 474.077 337.944 473.638C337.989 473.199 338.381 472.876 338.829 472.928C340.342 473.094 341.939 473.108 343.466 472.958C343.889 472.899 344.303 473.236 344.348 473.675C344.392 474.115 344.07 474.512 343.63 474.556C342.838 474.63 342.027 474.672 341.213 474.667ZM348.258 473.595C347.919 473.591 347.604 473.383 347.495 473.037C347.363 472.613 347.593 472.167 348.017 472.035C349.486 471.568 350.926 470.942 352.265 470.17C352.649 469.945 353.144 470.082 353.362 470.475C353.587 470.86 353.45 471.355 353.057 471.572C351.617 472.392 350.077 473.067 348.499 473.576C348.42 473.598 348.332 473.613 348.26 473.611L348.258 473.595ZM334.048 473.507C333.96 473.506 333.878 473.497 333.796 473.471C332.222 472.956 330.697 472.259 329.266 471.418C328.885 471.199 328.756 470.702 328.974 470.321C329.193 469.941 329.69 469.811 330.079 470.037C331.417 470.814 332.832 471.463 334.308 471.954C334.73 472.089 334.953 472.546 334.818 472.968C334.709 473.308 334.396 473.519 334.05 473.523L334.048 473.507ZM356.566 468.857C356.348 468.851 356.123 468.765 355.972 468.592C355.671 468.262 355.71 467.759 356.04 467.458C357.196 466.428 358.246 465.277 359.168 464.033C359.428 463.673 359.938 463.599 360.291 463.868C360.651 464.128 360.725 464.638 360.456 464.991C359.469 466.329 358.337 467.559 357.106 468.66C356.956 468.801 356.759 468.858 356.575 468.865L356.566 468.857ZM325.8 468.672C325.606 468.672 325.415 468.599 325.259 468.467C324.03 467.351 322.92 466.096 321.946 464.749C321.683 464.392 321.77 463.885 322.136 463.629C322.493 463.366 323 463.453 323.256 463.819C324.166 465.082 325.205 466.246 326.338 467.282C326.669 467.577 326.695 468.091 326.391 468.414C326.237 468.596 326.018 468.678 325.792 468.681L325.8 468.672ZM362.244 461.16C362.139 461.16 362.025 461.138 361.916 461.09C361.515 460.914 361.33 460.429 361.522 460.026C362.164 458.619 362.654 457.128 362.99 455.625C363.084 455.199 363.505 454.93 363.947 455.007C364.382 455.108 364.651 455.529 364.565 455.963C364.215 457.588 363.685 459.179 362.995 460.679C362.858 460.98 362.566 461.15 362.268 461.15L362.244 461.16ZM320.212 460.91C319.905 460.903 319.608 460.726 319.478 460.422C318.814 458.905 318.304 457.311 317.968 455.686C317.876 455.25 318.156 454.832 318.592 454.74C319.026 454.632 319.446 454.928 319.538 455.363C319.848 456.877 320.325 458.37 320.941 459.786C321.12 460.19 320.941 460.665 320.537 460.843C320.436 460.892 320.317 460.909 320.212 460.91ZM364.293 451.77C363.849 451.766 363.485 451.458 363.489 451.014L363.49 450.925C363.499 449.369 363.339 447.818 363.022 446.313C362.929 445.877 363.209 445.459 363.645 445.367C364.074 445.283 364.499 445.554 364.591 445.99C364.934 447.606 365.095 449.278 365.087 450.939C365.083 451.383 364.722 451.791 364.278 451.787L364.293 451.77ZM318.28 451.541C317.837 451.537 317.476 451.172 317.48 450.729C317.488 449.067 317.666 447.4 318.024 445.783C318.118 445.356 318.547 445.079 318.981 445.164C319.408 445.258 319.685 445.687 319.6 446.121C319.272 447.631 319.102 449.184 319.1 450.732C319.097 451.176 318.739 451.528 318.295 451.524L318.28 451.541ZM362.35 442.362C362.043 442.355 361.747 442.178 361.618 441.89C360.994 440.483 360.222 439.127 359.312 437.864C359.049 437.507 359.136 437 359.486 436.746C359.843 436.482 360.35 436.57 360.605 436.92C361.578 438.266 362.415 439.721 363.08 441.238C363.258 441.642 363.08 442.117 362.675 442.295C362.566 442.336 362.455 442.361 362.35 442.362ZM320.317 442.201C320.212 442.201 320.097 442.179 319.989 442.131C319.587 441.954 319.402 441.47 319.588 441.076C320.27 439.569 321.11 438.121 322.096 436.783C322.357 436.423 322.866 436.349 323.219 436.618C323.579 436.878 323.653 437.388 323.384 437.741C322.463 438.985 321.679 440.332 321.045 441.746C320.909 442.047 320.616 442.216 320.311 442.225L320.317 442.201ZM356.755 434.609C356.562 434.608 356.37 434.535 356.214 434.403C355.072 433.361 353.812 432.441 352.474 431.664C352.094 431.445 351.964 430.948 352.183 430.567C352.401 430.187 352.898 430.057 353.279 430.276C354.711 431.117 356.065 432.102 357.293 433.218C357.624 433.513 357.65 434.027 357.346 434.35C357.192 434.532 356.973 434.615 356.748 434.617L356.755 434.609ZM325.978 434.489C325.76 434.482 325.535 434.396 325.384 434.223C325.082 433.893 325.113 433.383 325.452 433.089C326.69 431.98 328.053 431.005 329.484 430.178C329.869 429.953 330.364 430.089 330.573 430.475C330.798 430.86 330.661 431.355 330.275 431.564C328.936 432.335 327.673 433.245 326.509 434.284C326.351 434.418 326.163 434.481 325.978 434.489ZM348.491 429.791C348.403 429.79 348.321 429.781 348.246 429.747C346.779 429.263 345.253 428.937 343.716 428.765C343.277 428.721 342.954 428.328 343.006 427.881C343.051 427.442 343.459 427.118 343.891 427.171C345.542 427.349 347.183 427.698 348.749 428.222C349.171 428.357 349.395 428.814 349.26 429.236C349.151 429.576 348.838 429.787 348.491 429.791ZM334.284 429.735C333.945 429.73 333.63 429.522 333.521 429.177C333.389 428.752 333.618 428.306 334.034 428.167C335.605 427.667 337.253 427.322 338.909 427.162C339.347 427.101 339.746 427.439 339.79 427.879C339.834 428.319 339.512 428.716 339.073 428.76C337.529 428.911 335.992 429.231 334.532 429.706C334.453 429.729 334.365 429.744 334.285 429.751L334.284 429.735Z" fill="#DEDEFA"/>
<path d="M280.552 398.576C278.868 400.562 279.112 403.537 281.098 405.221C283.084 406.905 286.06 406.66 287.744 404.674C289.428 402.688 289.183 399.713 287.197 398.029C285.211 396.345 282.236 396.59 280.552 398.576Z" fill="#FC6158"/>
<path d="M271.641 494.513C272.319 493.45 272.853 492.293 273.23 491.093C273.382 490.597 273.508 490.063 273.346 489.569C273.207 489.153 272.882 488.833 272.605 488.493C271.934 487.686 271.498 486.706 270.819 485.891C270.155 485.075 269.134 484.418 268.095 484.624C266.865 484.862 266.173 486.152 265.116 486.82C264.341 487.295 263.4 487.42 262.536 487.701C261.594 488.004 260.695 488.538 260.091 489.337C259.496 490.128 259.222 491.206 259.533 492.156C259.63 492.446 259.782 492.724 259.807 493.028C259.854 493.604 259.453 494.113 259.223 494.648C258.573 496.152 259.46 498.022 260.908 498.773C262.356 499.525 264.175 499.294 265.609 498.499" fill="#6E3B46"/>
<path d="M274.483 536.992C276.508 536.818 278.037 538.352 278.203 540.37C278.377 542.395 277.12 544.159 275.094 544.318C274.95 544.329 274.813 544.333 274.683 544.327L272.593 544.491L270.902 548.435L269.969 537.38L274.434 536.98C274.434 536.98 274.466 536.978 274.482 536.976L274.483 536.992Z" fill="#FC6158"/>
<path d="M261.943 506.192C262.126 504.307 260.755 502.639 258.895 502.461C258.814 502.452 258.741 502.45 258.661 502.456C258.141 502.402 257.611 502.535 257.078 502.812C256.916 502.898 256.735 502.953 256.617 503.092C253.113 506.838 248.441 514.614 248.272 518.836C248.272 518.836 248.208 519.139 248.188 519.286C248.035 520.854 249.174 522.252 250.742 522.405C252.204 522.543 253.516 521.54 253.802 520.114C256.384 512.607 261.136 508.145 261.136 508.145C261.584 507.616 261.876 506.956 261.953 506.216L261.943 506.192Z" fill="#FAB196"/>
<path d="M271.62 525.508L266.748 525.473L266.66 525.473L261.788 525.438L256.86 525.4L256.827 530.675C256.819 532.352 257.872 533.974 259.436 534.571L265.258 535.962L268.008 535.985L273.85 534.683C275.423 534.11 276.507 532.497 276.514 530.82L276.548 525.546L271.62 525.508Z" fill="#FFD9A8"/>
<path d="M287.788 542.854C287.788 542.854 270.885 535.507 270.743 535.446C268.569 534.496 267.57 531.951 268.519 529.777C269.469 527.603 272.015 526.603 274.188 527.553C274.272 527.595 290.678 535.071 290.678 535.071C290.819 535.116 290.968 535.168 291.11 535.229C293.209 536.145 294.294 538.659 293.379 540.757C292.484 542.814 289.986 543.705 287.92 542.891L287.787 542.838L287.788 542.854Z" fill="#A7CEED"/>
<path d="M293.367 538.945C293.594 541.223 291.741 543.286 289.222 543.534L273.877 544.538C272.806 540.443 273.121 537.015 273.121 537.015L288.397 535.267C290.907 535.012 293.13 536.659 293.359 538.954L293.367 538.945Z" fill="#A7CEED"/>
<path d="M263.215 537.984C261.195 538.223 260.005 540.013 260.227 542.034C260.466 544.054 262.03 545.529 264.059 545.298C264.194 545.279 264.33 545.26 264.464 545.224L266.547 544.98L268.99 548.511L267.72 537.484L263.271 537.971C263.271 537.971 263.239 537.974 263.222 537.975L263.215 537.984Z" fill="#FC6158"/>
<path d="M251.041 546.506C251.041 546.506 265.559 535.147 265.681 535.056C267.551 533.588 267.877 530.886 266.409 529.015C264.941 527.145 262.238 526.819 260.368 528.287C260.292 528.342 246.299 539.714 246.299 539.714C246.169 539.797 246.039 539.88 245.917 539.971C244.116 541.393 243.693 544.087 245.107 545.898C246.502 547.661 249.125 547.905 250.927 546.588L251.049 546.497L251.041 546.506Z" fill="#A7CEED"/>
<path d="M244.806 543.617C245.033 545.895 247.249 547.551 249.768 547.303L265.004 545.268C265.246 541.049 264.256 537.737 264.256 537.737L248.934 539.029C246.424 539.284 244.569 541.331 244.797 543.61L244.806 543.617Z" fill="#A7CEED"/>
<path d="M271.952 490.07C271.629 490.258 271.194 490.366 270.744 490.476C268.949 490.906 267.029 490.096 264.997 490.876C265.002 491.819 265.016 492.769 265.037 493.71C265.033 493.856 264.985 494.053 264.846 494.04C264.765 494.031 264.71 493.955 264.673 493.893C264.581 493.756 264.489 493.618 264.405 493.472C264.614 493.963 264.87 494.909 264.495 495.052C264.166 495.176 263.585 494.192 263.444 493.551C263.353 493.518 263.263 493.501 263.165 493.493C262.329 493.425 261.591 494.05 261.515 494.895C261.447 495.73 262.072 496.469 262.916 496.545C263.143 496.558 263.366 496.524 263.562 496.451L263.565 500.997C263.545 501.144 263.533 501.298 263.53 501.459C263.528 503.394 265.099 504.95 267.034 504.952C268.969 504.954 270.524 503.383 270.526 501.448C270.53 501.303 270.518 501.159 270.49 501.016L270.484 499.074C272.319 498.455 272.607 496.569 272.364 494.889C272.121 493.208 272.262 491.093 271.968 490.069L271.952 490.07Z" fill="#FAB196"/>
<path d="M255.788 515.735C258.502 512.182 261.204 507.89 261.204 507.89C261.674 507.335 261.987 506.632 262.061 505.86C262.252 503.878 260.81 502.118 258.852 501.933C258.771 501.923 258.682 501.923 258.609 501.921C258.064 501.861 257.503 501.995 256.939 502.292C256.768 502.37 256.607 502.472 256.455 502.581C254.491 503.896 252.032 508.29 250.42 511.63C250.42 511.63 251.913 513.611 255.789 515.751L255.788 515.735Z" fill="#FC6158"/>
<path d="M257.142 513.56L256.805 526.412C256.805 526.412 261.222 527.685 266.796 527.734C272.362 527.776 276.642 526.698 276.642 526.698L276.616 513.747C276.617 513.852 276.657 502.386 276.657 502.386C274.811 501.507 272.371 500.942 270.488 500.685C270.488 500.685 269.428 502.602 267.032 502.582C267.032 502.582 267 502.584 266.984 502.586C266.976 502.578 266.952 502.588 266.944 502.581C264.548 502.56 263.526 500.621 263.526 500.621C261.562 500.847 259.294 501.308 257.378 502.215L257.151 513.567" fill="#FC6158"/>
<path d="M274.762 519.445C279.731 517.433 282.084 515.957 282.084 515.957L282.104 516.004C282.104 516.004 282.166 515.967 282.197 515.948C283.572 515.222 285.268 515.752 285.993 517.127C286.719 518.502 286.19 520.198 284.815 520.924C284.8 520.941 284.775 520.935 284.76 520.952C281.403 522.857 276.087 524.278 276.087 524.278L276.078 524.27C274.754 524.637 273.369 523.864 273.002 522.54C272.635 521.216 273.429 519.998 274.732 519.464L274.762 519.445Z" fill="#FAB196"/>
<path d="M271.028 506.283C270.611 504.44 271.749 502.605 273.586 502.196C273.664 502.173 273.745 502.167 273.816 502.153L273.823 502.144C274.322 502.03 274.867 502.09 275.432 502.302C275.606 502.36 275.795 502.401 275.934 502.518C279.887 505.796 285.511 512.919 286.208 517.085C286.208 517.085 286.313 517.383 286.341 517.525C286.693 519.06 285.739 520.59 284.204 520.942C282.764 521.27 281.341 520.436 280.889 519.054C277.378 511.935 272.105 508.105 272.105 508.105L274.216 507.407C273.702 506.942 271.217 507.009 271.044 506.282L271.028 506.283Z" fill="#FAB196"/>
<path d="M278.353 514.967C275.206 511.792 271.981 507.865 271.981 507.865L271.989 507.857C271.44 507.362 271.033 506.718 270.865 505.95C270.423 504.012 271.627 502.083 273.549 501.643C273.628 501.62 273.708 501.614 273.795 501.598L273.803 501.59C274.325 501.466 274.894 501.532 275.493 501.757C275.676 501.822 275.851 501.897 276.012 501.988C278.114 503.041 281.115 507.09 283.136 510.204C283.136 510.204 281.91 512.353 278.337 514.968L278.353 514.967Z" fill="#FC6158"/>
<path opacity="0.35" d="M270.422 499.143C270.422 499.143 269.522 499.467 268.312 499.365L270.432 501.222L270.431 499.15L270.422 499.143Z" fill="#FC6158"/>
<path opacity="0.35" d="M270.499 494.752C270.586 495.035 270.993 495.17 271.41 495.048C271.827 494.925 272.106 494.595 272.027 494.32C271.939 494.037 271.533 493.901 271.116 494.024C270.699 494.147 270.42 494.476 270.499 494.752Z" fill="#FC6158"/>
<path opacity="0.35" d="M265.532 494.37C265.467 494.658 265.767 494.972 266.194 495.065C266.621 495.159 267.02 495.006 267.085 494.718C267.15 494.431 266.85 494.117 266.423 494.023C265.996 493.929 265.597 494.083 265.532 494.37Z" fill="#FC6158"/>
<path d="M259.87 520.566C259.87 520.566 259.87 520.566 259.861 520.558C254.879 518.582 252.51 517.125 252.51 517.125L252.473 517.168C252.473 517.168 252.421 517.124 252.38 517.119C251 516.411 249.304 516.953 248.595 518.334C247.886 519.714 248.429 521.41 249.809 522.119C249.826 522.134 249.842 522.132 249.86 522.147C253.23 524.022 258.56 525.413 258.56 525.413L258.567 525.404C259.903 525.762 261.265 524.981 261.623 523.646C261.98 522.311 261.172 521.103 259.864 520.59L259.87 520.566Z" fill="#FAB196"/>
<path d="M263.726 521.659C263.209 521.444 261.5 520.948 260.26 520.671C258.979 520.196 257.55 520.845 257.075 522.126C256.598 523.39 257.238 524.797 258.488 525.29C258.488 525.29 260.7 526.317 262.63 526.852C265.08 527.529 265.184 526.738 265.184 526.738C265.184 526.738 266.2 526.84 266.226 526.177C266.226 526.177 267.112 526.169 266.923 525.531C266.923 525.531 268.191 524.879 266.541 524.523C265.072 524.2 263.227 523.232 263.078 522.793C262.929 522.354 264.094 522.895 264.64 522.672C265.186 522.45 264.25 521.85 263.732 521.635L263.726 521.659Z" fill="#FAB196"/>
<path d="M271.432 520.598C271.946 520.378 273.653 519.875 274.895 519.588C276.177 519.095 277.608 519.743 278.092 521.017C278.574 522.275 277.95 523.697 276.709 524.194C276.709 524.194 274.514 525.237 272.584 525.791C270.143 526.492 270.029 525.695 270.029 525.695C270.029 525.695 269.007 525.811 268.976 525.145C268.976 525.145 268.09 525.153 268.279 524.509C268.279 524.509 267.002 523.872 268.647 523.495C270.111 523.157 271.949 522.184 272.098 521.744C272.247 521.305 271.076 521.861 270.534 521.639C269.992 521.418 270.918 520.818 271.432 520.598Z" fill="#FAB196"/>
<path d="M275.367 516.318L256.56 517.71C255.946 517.756 255.486 518.29 255.531 518.903L256.445 531.253C256.491 531.866 257.025 532.326 257.638 532.281L276.446 530.889C277.059 530.843 277.519 530.309 277.474 529.696L276.56 517.346C276.515 516.733 275.981 516.273 275.367 516.318Z" fill="#4F83C2"/>
<path d="M265.478 522.998C265.036 523.52 265.1 524.301 265.622 524.743C266.143 525.186 266.925 525.121 267.367 524.6C267.809 524.078 267.745 523.297 267.223 522.854C266.702 522.412 265.92 522.476 265.478 522.998Z" fill="#F5F7F5"/>
</g>
<path d="M207.021 614.237C205.191 614.763 203.3 615.294 201.418 615.045C199.534 614.798 197.638 613.571 197.154 611.662C196.617 609.539 197.907 607.447 198.8 605.455C199.522 603.848 200.013 602.059 199.734 600.31C199.465 598.629 198.517 597.165 197.811 595.626C197.106 594.086 196.642 592.24 197.361 590.708C197.76 589.853 198.481 589.213 199.011 588.438C200.19 586.718 200.362 584.494 200.913 582.462C201.463 580.429 202.734 578.277 204.75 578.024C207.231 577.714 209.1 580.48 209.49 583.046C209.88 585.613 209.431 588.314 210.235 590.774C210.882 592.756 212.271 594.361 213.387 596.102C214.503 597.844 215.384 599.981 214.83 601.991C214.527 603.092 213.824 604.029 213.46 605.111C212.83 606.988 213.285 609.1 212.754 611.01C211.891 614.116 208.122 615.932 205.284 614.611" fill="#7A9756"/>
<path d="M204.944 588.824C205.023 590.901 205.085 592.976 205.126 595.054C205.169 597.128 205.194 599.203 205.199 601.278C205.206 603.352 205.193 605.429 205.164 607.503C205.135 609.576 205.085 611.668 205.019 613.748C204.953 615.823 204.866 617.895 204.763 619.967C204.75 620.225 204.738 620.482 204.724 620.742C204.708 621.053 205.172 621.1 205.188 620.789C205.296 618.709 205.386 616.628 205.458 614.547C205.529 612.465 205.581 610.383 205.617 608.301C205.652 606.219 205.667 604.121 205.667 602.03C205.664 599.947 205.645 597.864 205.606 595.784C205.568 593.697 205.511 591.61 205.435 589.525C205.426 589.266 205.416 589.008 205.407 588.749C205.401 588.619 205.254 588.529 205.139 588.548C205.004 588.571 204.942 588.694 204.945 588.826L204.944 588.824Z" fill="#6E3B46"/>
<path d="M202.226 596.491C202.849 597.52 203.623 598.442 204.509 599.235C204.759 599.459 205.02 599.669 205.287 599.87C205.385 599.944 205.543 599.921 205.611 599.812C205.679 599.704 205.661 599.554 205.556 599.475C205.322 599.299 205.093 599.115 204.871 598.923C204.764 598.829 204.659 598.734 204.554 598.635C204.53 598.611 204.505 598.59 204.481 598.566C204.486 598.573 204.426 598.514 204.449 598.536C204.468 598.554 204.43 598.519 204.426 598.514C204.372 598.462 204.318 598.407 204.265 598.354C203.855 597.938 203.475 597.488 203.131 597.012C202.937 596.745 202.754 596.469 202.584 596.185C202.518 596.078 202.341 596.073 202.255 596.152C202.151 596.249 202.152 596.377 202.223 596.494L202.226 596.491Z" fill="#6E3B46"/>
<path d="M207.489 604.18C206.917 605.013 206.346 605.842 205.775 606.675C205.612 606.913 205.448 607.151 205.283 607.39C205.213 607.492 205.234 607.656 205.339 607.727C205.443 607.798 205.587 607.778 205.663 607.669C206.234 606.836 206.805 606.006 207.377 605.173C207.54 604.936 207.704 604.698 207.869 604.459C207.939 604.356 207.918 604.192 207.813 604.122C207.709 604.051 207.564 604.07 207.489 604.18Z" fill="#6E3B46"/>
<path d="M610.556 480C608.994 480.298 607.48 481.148 606.946 482.587C606.471 483.865 606.619 485.278 606.264 486.588C605.721 488.585 604.108 490.112 602.814 491.758C601.52 493.405 600.476 495.57 601.284 497.479C601.843 498.795 603.22 499.791 603.336 501.198C603.426 502.296 602.716 503.291 602.39 504.347C601.739 506.421 602.647 508.761 604.3 510.227C605.954 511.693 608.238 512.382 610.487 512.494C612.691 512.611 615.012 512.167 616.718 510.818C618.423 509.468 619.331 507.082 618.474 505.125C617.975 503.991 616.95 503.061 616.736 501.852C616.187 498.76 621.077 496.174 619.78 493.289C619.318 492.252 618.186 491.672 617.399 490.843C616.209 489.589 615.858 487.827 615.57 486.151C615.288 484.481 614.989 482.719 613.882 481.401C612.774 480.082 610.552 479.467 609.223 480.586" fill="#D8D86E"/>
<path d="M609.62 488.437C609.605 492.901 609.583 497.372 609.555 501.836C609.528 506.3 609.512 510.789 609.49 515.272C609.481 517.773 609.466 520.281 609.457 522.783C609.459 523.068 609.913 523.074 609.911 522.79C609.926 518.337 609.947 513.891 609.969 509.445C609.99 504.999 610.012 500.48 610.034 495.997C610.043 493.483 610.058 490.963 610.067 488.45C610.066 488.165 609.612 488.158 609.613 488.443L609.62 488.437Z" fill="#6E3B46"/>
<path d="M607.82 492.154C608.382 493.277 608.963 494.394 609.531 495.511C609.659 495.762 610.06 495.556 609.938 495.299C609.376 494.176 608.795 493.059 608.227 491.942C608.098 491.692 607.698 491.898 607.82 492.154Z" fill="#6E3B46"/>
<path d="M610.027 505.442C612.266 504.227 613.719 502.062 614.256 499.677C614.317 499.405 613.878 499.277 613.816 499.561C613.301 501.831 611.943 503.895 609.806 505.051C609.552 505.192 609.766 505.577 610.027 505.442Z" fill="#6E3B46"/>
<path d="M377.369 570.59C376.762 571.179 375.971 571.532 375.285 572.026C373.895 573.03 372.952 574.702 373.002 576.422C373.053 578.142 374.189 579.83 375.822 580.347C377.574 580.903 379.444 580.124 381.28 580.054C384.862 579.92 388.246 582.501 391.781 581.913C394.265 581.5 396.357 579.567 398.87 579.402C400.458 579.299 402.011 579.921 403.601 579.952C406.15 579.999 408.651 578.361 409.635 575.995C410.078 574.931 410.201 573.62 409.529 572.684C408.975 571.911 408.01 571.556 407.334 570.89C406.156 569.729 406.064 567.898 405.764 566.265C405.463 564.635 404.56 562.785 402.918 562.634C401.235 562.478 399.705 564.251 398.074 563.797C397.112 563.529 396.532 562.584 395.844 561.858C394.078 559.995 391.077 559.457 388.78 560.591C386.099 561.915 386.095 565.009 381.114 564.741C376.134 564.472 378.513 569.486 377.372 570.593L377.369 570.59Z" fill="#8BB546"/>
<path d="M390.332 567.078C390.404 568.371 390.475 569.664 390.545 570.959C390.616 572.254 390.686 573.531 390.757 574.819L390.878 577.001C390.886 577.164 391.056 577.302 391.216 577.28C391.387 577.255 391.502 577.115 391.493 576.94C391.422 575.647 391.35 574.353 391.28 573.058C391.21 571.772 391.139 570.486 391.068 569.198C391.028 568.47 390.989 567.744 390.948 567.016C390.939 566.854 390.77 566.715 390.61 566.738C390.438 566.762 390.323 566.903 390.332 567.078Z" fill="#6E3B46"/>
<path d="M386.334 570.055C386.585 570.73 387.04 571.325 387.605 571.766C388.17 572.206 388.849 572.508 389.557 572.615C389.953 572.675 390.364 572.675 390.758 572.603C390.84 572.588 390.915 572.555 390.969 572.488C391.015 572.43 391.046 572.339 391.035 572.263C391.013 572.108 390.869 571.954 390.697 571.985C390.551 572.01 390.403 572.028 390.255 572.035C390.181 572.038 390.108 572.039 390.034 572.037C390.025 572.037 390.014 572.038 390.005 572.036C390.005 572.036 390.089 572.04 390.041 572.037C390.024 572.036 390.006 572.035 389.99 572.035C389.953 572.033 389.916 572.03 389.879 572.027C389.731 572.014 389.585 571.993 389.439 571.961C389.367 571.945 389.294 571.928 389.223 571.907C389.204 571.902 389.185 571.897 389.167 571.891C389.119 571.877 389.244 571.915 389.179 571.894C389.144 571.882 389.107 571.871 389.072 571.859C388.932 571.811 388.794 571.754 388.66 571.69C388.592 571.659 388.527 571.625 388.461 571.589C388.429 571.57 388.395 571.553 388.365 571.534C388.351 571.525 388.335 571.517 388.321 571.508C388.304 571.498 388.273 571.477 388.351 571.525C388.341 571.519 388.334 571.515 388.325 571.51C388.073 571.351 387.838 571.164 387.629 570.952C387.623 570.946 387.615 570.938 387.609 570.931C387.574 570.896 387.654 570.979 387.628 570.953C387.615 570.938 387.601 570.924 387.588 570.909C387.56 570.878 387.531 570.846 387.503 570.815C387.449 570.752 387.396 570.685 387.346 570.618C387.246 570.484 387.153 570.341 387.073 570.193L387.114 570.266C387.039 570.126 386.973 569.981 386.917 569.831C386.862 569.682 386.671 569.586 386.519 569.654C386.367 569.721 386.282 569.891 386.342 570.054L386.334 570.055Z" fill="#6E3B46"/>
<path d="M391.392 574.348C392.357 574.639 393.398 574.68 394.388 574.501C395.407 574.317 396.384 573.916 397.228 573.313C397.696 572.979 398.124 572.579 398.487 572.13C398.589 572.004 398.573 571.792 398.438 571.694C398.304 571.596 398.113 571.609 398.005 571.743C397.906 571.864 397.804 571.983 397.695 572.095C397.643 572.152 397.588 572.205 397.533 572.259C397.497 572.295 397.587 572.207 397.54 572.253C397.527 572.265 397.513 572.277 397.499 572.29C397.468 572.318 397.437 572.349 397.406 572.377C397.176 572.583 396.93 572.774 396.672 572.944C396.525 573.042 396.373 573.134 396.218 573.219L396.29 573.178C395.765 573.466 395.203 573.684 394.621 573.824L394.702 573.805C394.279 573.906 393.849 573.968 393.416 573.984C393.31 573.989 393.204 573.99 393.1 573.989C393.073 573.988 393.047 573.987 393.02 573.987C393.01 573.987 392.999 573.986 392.99 573.986C392.928 573.985 393.068 573.989 393.006 573.987C392.953 573.984 392.9 573.983 392.849 573.979C392.634 573.965 392.418 573.94 392.205 573.904C391.965 573.863 391.728 573.807 391.495 573.736C391.424 573.715 391.317 573.751 391.261 573.792C391.201 573.837 391.149 573.917 391.141 573.993C391.131 574.074 391.145 574.162 391.196 574.227C391.248 574.292 391.313 574.325 391.395 574.349L391.392 574.348Z" fill="#6E3B46"/>
<path d="M395.561 572.178C395.583 572.591 395.606 573.004 395.628 573.418C395.637 573.581 395.806 573.719 395.966 573.697C396.138 573.672 396.253 573.532 396.244 573.357C396.222 572.943 396.198 572.53 396.176 572.116C396.168 571.954 395.998 571.815 395.838 571.838C395.667 571.863 395.551 572.003 395.561 572.178Z" fill="#6E3B46"/>
<path d="M388.069 571.76C387.552 572.09 387.035 572.422 386.517 572.752C386.38 572.84 386.352 573.063 386.452 573.187C386.564 573.326 386.737 573.346 386.884 573.253C387.402 572.922 387.919 572.591 388.437 572.26C388.574 572.173 388.601 571.949 388.502 571.826C388.389 571.687 388.217 571.667 388.069 571.76Z" fill="#6E3B46"/>
<path d="M390.783 569.446C391.696 569.464 392.607 568.925 393.079 568.147C393.229 567.902 393.338 567.647 393.405 567.366C393.443 567.207 393.306 567.029 393.15 567.01C392.973 566.989 392.836 567.098 392.796 567.266C392.789 567.298 392.78 567.328 392.772 567.359C392.764 567.389 392.786 567.312 392.785 567.318C392.782 567.324 392.782 567.332 392.779 567.338C392.774 567.354 392.768 567.371 392.763 567.386C392.743 567.446 392.72 567.503 392.694 567.562C392.668 567.621 392.641 567.677 392.61 567.732C392.603 567.745 392.596 567.757 392.589 567.771C392.583 567.782 392.549 567.836 392.581 567.786C392.612 567.736 392.581 567.786 392.575 567.796C392.566 567.81 392.557 567.824 392.548 567.839C392.479 567.943 392.401 568.044 392.317 568.138C392.295 568.16 392.273 568.183 392.251 568.206C392.241 568.217 392.231 568.227 392.22 568.238C392.197 568.261 392.257 568.202 392.252 568.208C392.245 568.218 392.234 568.226 392.226 568.232C392.179 568.275 392.13 568.316 392.083 568.356C391.97 568.447 391.851 568.525 391.726 568.595L391.798 568.555C391.611 568.658 391.411 568.735 391.204 568.784L391.285 568.766C391.101 568.81 390.913 568.83 390.723 568.826C390.649 568.824 390.557 568.885 390.513 568.942C390.468 568.999 390.435 569.091 390.446 569.166C390.457 569.247 390.494 569.328 390.561 569.378C390.629 569.428 390.699 569.443 390.784 569.445L390.783 569.446Z" fill="#6E3B46"/>
<g clip-path="url(#clip1_4237_1899)">
<path d="M451.106 424.616C462.904 426.27 473.808 418.046 475.462 406.249C477.116 394.452 468.893 383.547 457.096 381.893C445.298 380.24 434.394 388.463 432.74 400.26C431.086 412.057 439.309 422.962 451.106 424.616Z" fill="#FFD9A8"/>
<path d="M450.831 399.267L443.555 398.553L442.848 405.822L450.11 406.536L449.395 413.798L456.664 414.519L457.379 407.243L464.648 407.965L465.355 400.696L458.093 399.981L458.807 392.719L451.538 391.998L450.831 399.267Z" fill="#4F83C2"/>
<path d="M486.211 387.975L481.346 389.827L483.206 394.685L488.063 392.825L489.923 397.683L494.774 395.831L492.914 390.973L497.779 389.12L495.919 384.262L491.062 386.122L489.209 381.257L484.351 383.117L486.211 387.975Z" fill="white"/>
<path d="M458.647 361.034L453.521 361.932L454.426 367.051L459.545 366.146L460.443 371.273L465.563 370.368L464.665 365.255L469.784 364.35L468.879 359.231L463.767 360.129L462.861 355.009L457.742 355.914L458.647 361.034Z" fill="white"/>
</g>
<defs>
<clipPath id="clip0_4237_1899">
<rect width="218.734" height="194.058" fill="white" transform="translate(482.473 460.507) rotate(130.297)"/>
</clipPath>
<clipPath id="clip1_4237_1899">
<rect width="54.41" height="64.57" fill="white" transform="translate(462.656 351) rotate(45)"/>
</clipPath>
</defs>
</svg>
