<svg width="100" height="100" viewBox="0 0 100 100" fill="none" xmlns="http://www.w3.org/2000/svg">
<circle cx="50" cy="50" r="48" stroke="#9CCD5A" stroke-width="3" stroke-linecap="round" stroke-dasharray="1 8"/>
<path d="M60.1022 72.8123V68.031C60.1022 67.1507 59.3885 66.4372 58.5084 66.4372H40.9766C40.0965 66.4372 39.3828 67.1507 39.3828 68.031V72.8123C38.477 72.8123 37.7482 73.5671 37.7908 74.4823C37.8308 75.3398 38.5691 75.9999 39.4276 75.9999H60.0575C60.916 75.9999 61.6543 75.3399 61.6943 74.4823C61.7368 73.5671 61.008 72.8123 60.1022 72.8123Z" fill="#9CCD5A"/>
<path d="M49.5113 51.2786L46.0214 53.1134C45.8942 53.1803 45.802 53.2982 45.7687 53.438C45.1081 56.2108 44.5124 59.4365 44.2747 62.7185C44.2539 63.0058 44.4836 63.2496 44.7717 63.2496H54.7143C55.0024 63.2496 55.2321 63.0058 55.2113 62.7185C54.9736 59.4364 54.3779 56.2108 53.7173 53.438C53.684 53.2982 53.5917 53.1804 53.4646 53.1134L49.9748 51.2786C49.8297 51.2023 49.6563 51.2023 49.5113 51.2786Z" fill="#9CCD5A"/>
<path d="M62.123 33.8421L54.5575 32.7434L51.1737 25.8871C50.5886 24.7041 48.8996 24.7045 48.3148 25.8871L44.931 32.7434L37.3654 33.8421C36.0612 34.0325 35.5368 35.6392 36.4819 36.5605L41.9566 41.8978L40.6646 49.4324C40.4424 50.7292 41.8064 51.7294 42.9766 51.1129L49.7442 47.5557L56.5119 51.1129C57.6744 51.724 59.0473 50.7358 58.8239 49.4324L57.5319 41.8978L63.0066 36.5605C63.9505 35.6405 63.429 34.0328 62.123 33.8421Z" fill="#0E8347"/>
</svg>
