<svg width="337" height="80" viewBox="0 0 337 80" fill="none" xmlns="http://www.w3.org/2000/svg">
<path d="M63.2919 64.3991C64.4005 63.2993 64.9593 61.8537 64.9593 60.1064V48.0887C64.9593 46.51 64.4537 45.2062 63.4604 44.2217C62.467 43.2373 61.1544 42.7406 59.5668 42.7406H49.3229C47.5579 42.7406 46.1034 43.2993 45.0036 44.3902C43.895 45.49 43.3362 46.9357 43.3362 48.6829V60.1064C43.3362 61.8537 43.895 63.2993 45.0036 64.3991C46.1123 65.4989 47.5668 66.0488 49.3229 66.0488H58.9637C60.7287 66.0488 62.1832 65.49 63.2919 64.3991ZM51.3007 56.3814V52.4878C51.3007 51.3792 51.7797 50.9002 52.9061 50.9002H55.5491C56.4449 50.9002 56.8085 51.2639 56.8085 52.1508V56.3814C56.8085 57.49 56.3296 57.969 55.2032 57.969H52.8972C51.7708 57.969 51.2919 57.49 51.2919 56.3814H51.3007ZM22.6089 37.3215C25.3584 37.3215 26.8041 38.7583 26.8041 41.49C26.8041 44.2217 25.3495 45.7384 22.6089 45.7384H7.67323C4.92379 45.7384 3.47811 44.2661 3.47811 41.49C3.47811 38.714 4.93266 37.3215 7.67323 37.3215H22.6089ZM49.6511 31.0599V26.1907H47.2741C44.5868 26.1907 43.1588 24.7805 43.1588 22.1109C43.1588 19.4412 44.5779 18.031 47.2741 18.031H49.6511V16.8692C49.6511 14.031 51.1588 12.5322 54.0236 12.5322C56.8883 12.5322 58.3961 14.031 58.3961 16.8692V18.031H60.9415C63.6289 18.031 65.0568 19.4412 65.0568 22.1109C65.0568 24.7805 63.6378 26.1907 60.9415 26.1907H58.3961V31.0599H61.5358C64.2231 31.0599 65.6511 32.4701 65.6511 35.1397C65.6511 37.8093 64.232 39.3082 61.5358 39.3082H46.9371C44.2497 39.3082 42.8218 37.8714 42.8218 35.1397C42.8218 32.408 44.2409 31.0599 46.9371 31.0599H49.6511ZM3.98366 6.87361C3.98366 4.08869 5.46481 2.62528 8.26747 2.62528H22.263C25.0657 2.62528 26.5468 4.09756 26.5468 6.87361C26.5468 9.64967 25.0657 11.122 22.263 11.122H8.26747C5.46481 11.122 3.98366 9.64967 3.98366 6.87361ZM26.8041 29.9778C26.8041 32.816 25.3229 34.3149 22.5202 34.3149H7.75306C4.9504 34.3149 3.46924 32.816 3.46924 29.9778C3.46924 27.1397 4.9504 25.7295 7.75306 25.7295H22.5202C25.3229 25.7295 26.8041 27.2018 26.8041 29.9778ZM37.2076 3.051C35.4426 3.051 33.9881 3.60976 32.8794 4.70067C31.7708 5.80044 31.212 7.24612 31.212 8.99335V34.9712C31.212 42.6341 30.9282 49.082 30.3606 54.1286C29.6333 60.6475 28.3828 66.2262 26.6355 70.7494V54.9357C26.6355 53.1885 26.0768 51.7428 24.9681 50.643C23.8595 49.5432 22.4049 48.9934 20.6488 48.9934H9.21647C7.4515 48.9934 5.99696 49.5521 4.88831 50.643C3.77966 51.7428 3.22091 53.1885 3.22091 54.9357V69.4102C3.22091 71.1574 3.77966 72.6031 4.88831 73.7029C5.99696 74.8027 7.4515 75.3526 9.21647 75.3526H26.0945C26.4404 75.5299 26.9637 75.8138 27.6378 76.1863C29.3318 77.5078 30.9726 78.0044 32.5247 77.6674C34.0856 77.3215 35.283 76.2306 36.0901 74.3858C39.5047 65.02 41.2342 51.7517 41.2342 34.9712V14.0665C41.2342 12.9579 41.7132 12.4789 42.8395 12.4789H65.7131C66.8395 12.4789 67.3185 12.9579 67.3185 14.0665V68.0532C67.3185 68.7628 67.1766 68.9756 67.1322 69.0288C67.1056 69.0643 66.9282 69.2151 66.2276 69.2151H65.1278C62.1743 69.153 60.2586 69.7472 59.2475 71.0421C58.4316 72.0976 58.2808 73.5787 58.7952 75.4501C59.5579 78.2528 61.926 79.6718 65.8551 79.6718C66.0147 79.6718 66.1743 79.6718 66.334 79.6718C69.5801 79.5033 72.0369 78.9091 73.6067 77.9246C75.1234 77.082 76.1699 75.8315 76.7109 74.2262C77.2431 72.8248 77.5092 70.7849 77.5092 68.1419V8.99335C77.5092 7.24612 76.9504 5.80044 75.8417 4.70067C74.7331 3.60089 73.2786 3.051 71.5225 3.051H37.2076ZM11.8684 65.0111V59.3437C11.8684 58.235 12.3473 57.7561 13.4737 57.7561H16.1167C17.2431 57.7561 17.722 58.235 17.722 59.3437V66.5987H13.4737C12.3473 66.5987 11.8684 66.1197 11.8684 65.0111ZM4.51581 22.8027C1.59785 22.8027 0.0634766 21.2772 0.0634766 18.3858C0.0634766 15.4945 1.60671 13.969 4.51581 13.969H24.3207C27.2386 13.969 28.773 15.4945 28.773 18.3858C28.773 21.2772 27.2298 22.8027 24.3207 22.8027H4.51581ZM163.106 72.7095C163.106 75.8758 161.42 77.5521 158.228 77.5521H93.1899C89.997 77.5521 88.3118 75.8758 88.3118 72.7095C88.3118 69.5432 89.997 67.867 93.1899 67.867H158.228C161.42 67.867 163.106 69.5432 163.106 72.7095ZM163.877 14.235C163.877 11.122 162.219 9.47228 159.079 9.47228H130.848V5.34812C130.848 1.84479 128.986 0 125.456 0C121.926 0 120.063 1.85366 120.063 5.34812V9.47228H92.5158C89.3761 9.47228 87.7176 11.122 87.7176 14.235C87.7176 17.3481 89.3761 19.0776 92.5158 19.0776H109.687C104.622 23.9202 98.6799 27.867 92.0103 30.8293C89.7132 31.7251 88.3473 32.745 87.8329 33.9601C87.3185 35.2993 87.7974 36.9224 89.2697 38.7938C91.1056 41.0998 93.5535 41.6319 96.5513 40.3548C98.2276 39.5211 99.5313 38.8381 100.525 38.2794V58.8293C100.525 60.5765 101.083 62.0222 102.192 63.122C103.301 64.2217 104.755 64.7716 106.52 64.7716H144.33C146.095 64.7716 147.549 64.2129 148.649 63.122C149.757 62.0222 150.316 60.5765 150.316 58.8293V37.6674C151.691 38.4213 153.092 39.1042 154.485 39.6896C157.571 40.949 160.099 40.3991 161.997 38.031C163.531 36.1508 163.984 34.51 163.336 33.1707C162.769 31.9202 161.314 30.9002 158.919 30.0665C152.001 27.1663 145.997 23.4678 141.039 19.0687H159.097C162.236 19.0687 163.895 17.3925 163.895 14.2262L163.877 14.235ZM138.84 53.7738V55.6985C138.84 56.8071 138.361 57.286 137.234 57.286H112.906C111.842 57.286 111.389 56.8337 111.389 55.7871V53.7738H138.84ZM138.84 43.2816V46.5455H111.389V43.2816H138.84ZM125.456 34.2262C128.986 34.2262 130.848 32.3725 130.848 28.8781V22.1907C135.478 27.4146 140.933 31.9823 147.079 35.796H104.605C110.405 31.9911 115.593 27.4324 120.055 22.2262V28.8781C120.055 32.3814 121.917 34.2262 125.447 34.2262H125.456ZM248.25 62.0754C245.687 59.2106 243.407 55.5477 241.483 51.1929C241.553 51.1308 241.624 51.0599 241.695 50.9889C244.001 49.3747 245.837 48.0621 247.168 47.0953C248.746 45.9424 249.616 44.7184 249.766 43.4324C249.899 42.2883 249.456 41.1086 248.436 39.9202C245.988 37.1353 243.718 37.1353 241.279 39.9202C240.631 40.6652 239.611 41.6585 238.254 42.8825C237.518 40.3636 236.773 37.5965 236.037 34.643H245.624C248.542 34.643 250.077 33.1175 250.077 30.2262C250.077 27.3348 248.534 25.8093 245.624 25.8093H240.711C241.793 20.8337 242.733 15.9113 243.496 11.1752C243.797 9.24169 243.434 7.67184 242.414 6.50111C241.394 5.33038 239.886 4.74501 237.944 4.74501H220.613C220.817 3.5388 220.587 2.52772 219.939 1.72949C219.239 0.878049 218.13 0.381375 216.649 0.257206C213.376 -0.0443459 211.318 1.33925 210.715 4.24834C209.873 8.38137 208.667 13.4723 207.141 19.3526C206.627 20.9401 207.132 22.3149 208.569 23.3082C209.651 24.1419 211.221 24.6918 213.243 24.9224C215.177 25.0732 215.886 24.2661 216.134 23.4856H231.416L230.919 25.8182H205.332C202.414 25.8182 200.879 27.3437 200.879 30.235C200.879 33.1264 202.423 34.6519 205.332 34.6519H215.691C212.383 36.5854 208.711 38.2616 204.746 39.6364C204.276 39.8137 203.886 39.8404 203.593 39.6984C203.292 39.5654 203.052 39.2461 202.866 38.7672C202.848 38.6785 202.822 38.5543 202.76 38.3681C201.341 34.7672 200.214 32.0532 199.416 30.2883C198.91 29.286 198.201 28.6031 197.305 28.2572C196.4 27.9024 195.425 27.9557 194.423 28.3902L192.197 29.286C194.822 25.4457 197.305 21.7029 199.567 18.1286C200.427 16.7628 200.693 15.5299 200.365 14.4656C200.037 13.3836 199.097 12.4967 197.58 11.8137C196.117 11.1486 194.84 11.0155 193.784 11.4146C192.8 11.7871 192.01 12.6208 191.46 13.8714C189.616 17.5344 187.877 20.7361 186.281 23.4146C185.669 22.5632 184.942 21.6585 184.126 20.7095C186.086 17.5255 188.436 13.3126 191.141 8.17738C191.957 6.55432 192.143 5.16186 191.7 4.02661C191.274 2.95344 190.29 2.11973 188.755 1.55211C187.168 1.00222 185.873 0.97561 184.915 1.44568C183.957 1.92461 183.221 2.9357 182.733 4.42572C181.083 8.53215 179.593 11.9379 178.299 14.5543C177.669 14.1286 176.942 14.0222 176.188 14.235C175.363 14.4922 174.627 15.0244 173.997 15.8404C173.216 16.9135 172.755 18.0665 172.631 19.2727C172.507 20.6386 172.862 21.7827 173.678 22.6519C177.004 26.3858 179.434 29.5521 180.915 32.071C180.019 33.4191 178.973 34.9268 177.793 36.5588C177.536 36.5676 177.243 36.5942 176.915 36.6386H175.868C174.236 36.7273 173.03 37.2239 172.285 38.1109C171.54 38.9978 171.256 40.2572 171.443 41.8714C171.815 44.9756 173.66 46.4568 176.782 46.1552L183.044 45.6851V75.3348C183.044 78.3415 184.675 79.9291 187.753 79.9291C190.831 79.9291 192.374 78.3415 192.374 75.3348V44.9401L196.001 44.6563C196.001 44.6563 196.01 44.7273 196.019 44.7805C196.33 46.3415 196.959 47.3792 197.891 47.867C198.84 48.3636 200.081 48.2838 201.571 47.6364C203.709 46.7494 204.613 45.1885 204.214 43.1397C204.507 43.5122 204.791 43.8847 205.057 44.2661C205.793 45.3038 206.795 46.0133 208.019 46.3769C209.252 46.7406 210.511 46.6519 211.735 46.102C213.412 45.3747 214.813 44.6918 215.93 44.0532L217.199 45.3126C214.139 47.5388 210.52 49.6053 206.458 51.4678C204.551 52.1951 203.434 53.0554 203.044 54.0931C202.644 55.1486 203.07 56.4612 204.303 57.9867C205.101 59.0244 205.97 59.6541 206.866 59.8404C207.762 60.0266 208.844 59.7871 210.059 59.122C213.961 57.1087 217.917 54.5543 221.82 51.5388C222.183 52.2749 222.458 52.8603 222.653 53.3126C220.489 55.7428 217.678 58.1552 214.299 60.4789C210.804 62.8825 207.185 64.949 203.549 66.6075C201.598 67.3703 200.445 68.3636 200.126 69.5698C199.824 70.6785 200.223 71.9379 201.314 73.3038C202.174 74.4035 203.097 75.051 204.055 75.2461C204.995 75.4324 206.121 75.2195 207.416 74.6164C213.873 71.2284 219.664 67.2373 224.631 62.7672C224.658 65.9512 224.055 68.2217 222.848 69.5255L222.795 69.5965C222.192 70.5898 221.066 71.0776 219.336 71.0776H218.183C216.773 70.9534 215.78 71.2727 215.221 72.0177C214.671 72.7716 214.68 73.8537 215.23 75.184C215.283 75.388 215.336 75.7251 215.389 76.1863C215.443 76.6563 215.469 76.9934 215.469 77.224C215.602 78.8559 216.596 79.7871 218.343 79.9113C218.981 79.9645 219.93 80 221.181 80H221.216C224.542 79.8226 227.274 78.8204 229.323 77.0288C231.673 75.1574 233.225 71.9911 233.926 67.6098C234.494 64.0887 234.378 60.4967 233.571 56.8869C235.877 62.3681 238.565 66.9091 241.624 70.4745C243.035 71.8758 244.259 72.5233 245.367 72.5055C246.476 72.4701 247.647 71.7162 248.933 70.1907C250.201 68.6918 250.786 67.2993 250.653 66.0488C250.529 64.8071 249.731 63.4945 248.223 62.0577L248.25 62.0754ZM233.154 13.8182L232.791 15.8226H218.103L218.919 12.3902H231.966C232.48 12.3902 232.826 12.4967 233.012 12.7184C233.199 12.9401 233.243 13.3038 233.154 13.8182ZM223.283 39.4767C225.075 38.1197 226.485 37.0022 227.496 36.1419C228.409 40.7361 229.474 44.9845 230.689 48.8781C228.871 45.3747 226.387 42.2262 223.283 39.4767ZM187.496 35.9911C188.223 35.0155 188.773 34.2528 189.128 33.7206C189.811 32.8603 190.432 31.9911 190.973 31.1308C191.629 32.4257 192.285 33.9424 192.933 35.663L187.487 35.9911H187.496ZM200.179 65.4368C199.478 65.6585 198.848 65.765 198.29 65.765C197.633 65.765 197.066 65.6142 196.596 65.3215C195.771 64.7982 195.265 63.8315 195.088 62.4479C194.928 61.8182 194.671 60.745 194.325 59.2727C194.103 58.3326 193.695 56.8869 193.137 54.98C192.72 53.8714 192.711 52.8869 193.11 52.071C193.545 51.1929 194.458 50.5366 195.815 50.1197C198.077 49.4368 199.718 50.1641 200.542 52.2395C201.633 55.1929 202.467 58.2084 203.044 61.2062C203.239 62.3415 203.097 63.255 202.627 63.9113C202.165 64.5588 201.367 65.0643 200.179 65.4368ZM182.644 54.9978C182.245 58.3326 181.757 61.0909 181.181 63.184C180.675 65.4279 180.063 67.5743 179.381 69.561C178.813 70.9357 178.103 71.796 177.252 72.1508C176.95 72.2749 176.622 72.337 176.259 72.337C175.576 72.337 174.786 72.1153 173.891 71.6718C172.534 70.9978 171.682 70.2528 171.292 69.3836C170.902 68.5055 170.981 67.3792 171.54 66.031C172.534 62.8381 173.332 58.8559 173.899 54.2173C174.086 52.6741 174.627 51.5477 175.514 50.8647C176.374 50.2084 177.553 49.9778 179.017 50.1907C181.687 50.6253 182.937 52.2838 182.627 54.9978H182.644ZM335.735 73.6319C334.698 76.3548 332.516 77.7295 329.261 77.7295H301.27C292.791 77.7295 286.139 76.9845 281.509 75.5122C276.383 73.9069 272.214 71.0155 269.101 66.9002C268.471 70.6075 267.78 73.7384 267.044 76.2306C266.352 78.0399 265.5 79.0954 264.418 79.4856C264.081 79.6098 263.726 79.663 263.336 79.663C262.485 79.663 261.5 79.3703 260.356 78.7849C258.777 78.0044 257.793 77.1885 257.35 76.3016C256.897 75.3348 256.977 74.0488 257.589 72.4701C259.664 66.3503 260.862 57.0022 261.146 44.6918C261.208 42.9002 261.678 41.49 262.538 40.5144C263.487 39.4501 264.817 38.9712 266.485 39.0953C269.669 39.3348 271.283 41.1619 271.159 44.3814L270.902 50.7317C272.072 54.1907 273.553 57.0643 275.301 59.3082V34.6519H263.194C260.055 34.6519 258.396 32.9756 258.396 29.8093C258.396 26.643 260.055 25.0466 263.194 25.0466H273.252V17.9778H265.42C262.281 17.9778 260.622 16.3282 260.622 13.2151C260.622 10.102 262.281 8.45233 265.42 8.45233H273.252V5.25942C273.252 1.92461 275.026 0.159645 278.387 0.159645C281.749 0.159645 283.522 1.92461 283.522 5.25942V8.45233H291.185C294.325 8.45233 295.984 10.102 295.984 13.2151C295.984 16.3282 294.325 17.9778 291.185 17.9778H283.522V25.0466H293.323C296.463 25.0466 298.121 26.6962 298.121 29.8093C298.121 32.9224 296.463 34.6519 293.323 34.6519H285.314V42.9002H292.551C295.691 42.9002 297.35 44.5499 297.35 47.663C297.35 50.7761 295.691 52.5055 292.551 52.5055H285.314V65.6851C289.057 66.6785 294.414 67.184 301.261 67.184C309.828 67.3526 319.957 67.326 331.381 67.0954C334.024 67.0333 335.602 67.4945 336.205 68.4967C336.8 69.4723 336.64 71.1486 335.726 73.6231L335.735 73.6319ZM324.817 62.918C327.975 62.918 330.432 62.2882 332.117 61.0554C333.82 59.8137 335.061 57.6497 335.833 54.5898C336.126 52.7982 336.126 51.1486 335.833 49.694C335.46 47.867 334.573 46.6164 333.19 45.9956C331.115 45.0643 329.394 45.3836 328.064 46.9534C327.008 48.1774 326.236 50.031 325.766 52.4701C325.438 52.8603 324.835 53.0554 323.966 53.0554H313.722C311.664 53.0554 311.044 52.7007 310.848 52.4878C310.653 52.2661 310.316 51.5477 310.316 49.1885V36.8514H326.857C328.622 36.8514 330.077 36.2927 331.177 35.2018C332.285 34.102 332.844 32.6652 332.844 30.9091V10.2616C332.844 8.50554 332.285 7.06874 331.177 5.96896C330.068 4.86918 328.613 4.31929 326.857 4.31929H305.687C303.922 4.31929 302.467 4.87805 301.367 5.96896C300.259 7.06874 299.7 8.50554 299.7 10.2616V49.1885C299.7 54.5987 300.56 58.1641 302.334 60.071C304.09 61.9601 307.398 62.918 312.179 62.918H324.817ZM310.325 26.9978V15.6807C310.325 14.5721 310.804 14.0931 311.93 14.0931H320.551C321.678 14.0931 322.157 14.5721 322.157 15.6807V25.4102C322.157 26.5188 321.678 26.9978 320.551 26.9978H310.325Z" fill="url(#paint0_linear_14_1048)"/>
<path d="M8.42713 9.8714C10.0975 9.8714 11.4515 8.51733 11.4515 6.847C11.4515 5.17668 10.0975 3.82261 8.42713 3.82261C6.75681 3.82261 5.40274 5.17668 5.40274 6.847C5.40274 8.51733 6.75681 9.8714 8.42713 9.8714Z" fill="white"/>
<path d="M92.3472 17.1175C94.0175 17.1175 95.3716 15.7634 95.3716 14.0931C95.3716 12.4228 94.0175 11.0687 92.3472 11.0687C90.6769 11.0687 89.3228 12.4228 89.3228 14.0931C89.3228 15.7634 90.6769 17.1175 92.3472 17.1175Z" fill="white"/>
<path d="M186.777 9.0909C188.448 9.0909 189.802 7.73684 189.802 6.06651C189.802 4.39619 188.448 3.04212 186.777 3.04212C185.107 3.04212 183.753 4.39619 183.753 6.06651C183.753 7.73684 185.107 9.0909 186.777 9.0909Z" fill="white"/>
<path d="M265.243 16.0798C266.913 16.0798 268.268 14.7258 268.268 13.0554C268.268 11.3851 266.913 10.031 265.243 10.031C263.573 10.031 262.219 11.3851 262.219 13.0554C262.219 14.7258 263.573 16.0798 265.243 16.0798Z" fill="white"/>
<defs>
<linearGradient id="paint0_linear_14_1048" x1="168.312" y1="80.0089" x2="168.312" y2="0" gradientUnits="userSpaceOnUse">
<stop stop-color="#018139"/>
<stop offset="1" stop-color="#0F6632"/>
</linearGradient>
</defs>
</svg>
