<svg width="1920" height="687" viewBox="0 0 1920 687" fill="none" xmlns="http://www.w3.org/2000/svg">
<mask id="mask0_4223_1896" style="mask-type:alpha" maskUnits="userSpaceOnUse" x="-106" y="0" width="2229" height="687">
<rect x="-106" width="2229" height="687" fill="#D9D9D9"/>
</mask>
<g mask="url(#mask0_4223_1896)">
<g clip-path="url(#clip0_4223_1896)">
<path d="M1442.07 150.084C1148.15 128.932 635.308 400.485 303.19 735.825L2078.87 686.882C1988.38 272.287 1654.91 165.406 1442.07 150.084Z" fill="#BCD96A"/>
<path d="M1283.25 643.845C1283.25 643.845 1301.57 594.932 1337.8 603.821C1337.8 603.821 1390.4 538.885 1442.01 552.99C1493.62 567.094 1484.52 595.011 1484.52 595.011C1484.52 595.011 1512.81 558.362 1538.06 571.64C1563.32 584.919 1552.75 608.737 1552.75 608.737C1552.75 608.737 1599.55 593.84 1616.59 612.855C1633.63 631.87 1634.44 667.878 1634.44 667.878L1283.25 643.845Z" fill="#67925C"/>
<path d="M574.207 549.588C573.118 550.637 571.701 551.266 570.471 552.147C567.98 553.935 566.29 556.916 566.38 559.981C566.472 563.045 568.507 566.053 571.434 566.975C574.573 567.967 577.926 566.577 581.216 566.453C587.635 566.215 593.7 570.814 600.035 569.765C604.488 569.029 608.237 565.584 612.741 565.292C615.586 565.107 618.37 566.216 621.22 566.271C625.789 566.355 630.27 563.435 632.034 559.22C632.828 557.323 633.048 554.988 631.844 553.319C630.851 551.942 629.122 551.309 627.91 550.122C625.799 548.054 625.633 544.79 625.096 541.881C624.558 538.976 622.939 535.679 619.996 535.409C616.98 535.133 614.237 538.291 611.315 537.482C609.591 537.004 608.551 535.321 607.317 534.027C604.153 530.708 598.774 529.748 594.658 531.769C589.853 534.129 589.846 539.643 580.919 539.164C571.993 538.685 576.256 547.62 574.212 549.593L574.207 549.588Z" fill="#8BB546"/>
<path d="M597.439 543.328C597.567 545.633 597.695 547.937 597.821 550.245C597.947 552.554 598.073 554.83 598.201 557.124L598.417 561.012C598.432 561.302 598.736 561.549 599.023 561.509C599.33 561.465 599.536 561.215 599.519 560.903C599.392 558.599 599.264 556.294 599.138 553.986C599.012 551.694 598.885 549.402 598.758 547.107C598.687 545.81 598.616 544.515 598.542 543.219C598.527 542.929 598.223 542.683 597.936 542.722C597.629 542.767 597.422 543.017 597.439 543.328Z" fill="#6E3B46"/>
<path d="M590.273 548.635C590.723 549.838 591.539 550.897 592.552 551.684C593.564 552.468 594.781 553.007 596.05 553.197C596.76 553.303 597.496 553.303 598.202 553.176C598.349 553.148 598.484 553.09 598.58 552.969C598.662 552.867 598.719 552.704 598.699 552.57C598.66 552.292 598.401 552.019 598.093 552.073C597.831 552.119 597.567 552.15 597.301 552.162C597.169 552.168 597.038 552.17 596.904 552.167C596.888 552.167 596.869 552.168 596.852 552.165C596.852 552.165 597.003 552.171 596.917 552.165C596.887 552.164 596.855 552.164 596.825 552.162C596.76 552.158 596.694 552.155 596.627 552.148C596.361 552.125 596.099 552.088 595.839 552.03C595.71 552.003 595.579 551.973 595.452 551.935C595.416 551.926 595.384 551.916 595.351 551.906C595.264 551.882 595.49 551.949 595.372 551.911C595.309 551.89 595.244 551.87 595.181 551.849C594.929 551.763 594.682 551.662 594.442 551.549C594.32 551.492 594.204 551.431 594.086 551.367C594.028 551.335 593.968 551.303 593.913 551.27C593.888 551.254 593.86 551.239 593.834 551.223C593.805 551.205 593.749 551.169 593.888 551.254C593.871 551.244 593.858 551.236 593.842 551.226C593.389 550.944 592.968 550.611 592.595 550.234C592.584 550.222 592.569 550.208 592.558 550.196C592.495 550.134 592.639 550.281 592.592 550.235C592.569 550.208 592.543 550.183 592.52 550.156C592.47 550.101 592.419 550.044 592.369 549.989C592.271 549.876 592.177 549.758 592.086 549.638C591.907 549.399 591.742 549.144 591.599 548.881L591.671 549.01C591.536 548.76 591.418 548.503 591.319 548.236C591.219 547.969 590.877 547.798 590.605 547.919C590.333 548.04 590.18 548.343 590.288 548.632L590.273 548.635Z" fill="#6E3B46"/>
<path d="M599.338 556.285C601.068 556.803 602.935 556.876 604.709 556.556C606.535 556.23 608.285 555.515 609.798 554.441C610.636 553.845 611.404 553.132 612.054 552.332C612.238 552.107 612.208 551.729 611.967 551.555C611.727 551.381 611.385 551.403 611.19 551.642C611.013 551.858 610.831 552.07 610.635 552.27C610.542 552.371 610.443 552.466 610.345 552.562C610.28 552.626 610.442 552.47 610.357 552.551C610.333 552.573 610.31 552.595 610.283 552.618C610.228 552.668 610.172 552.722 610.117 552.772C609.706 553.139 609.264 553.479 608.802 553.783C608.538 553.958 608.266 554.12 607.987 554.273L608.117 554.2C607.176 554.713 606.168 555.101 605.126 555.351L605.271 555.318C604.513 555.497 603.742 555.607 602.966 555.636C602.776 555.644 602.587 555.646 602.4 555.644C602.351 555.644 602.306 555.642 602.257 555.641C602.238 555.642 602.218 555.64 602.202 555.64C602.092 555.637 602.342 555.644 602.231 555.642C602.136 555.636 602.042 555.634 601.95 555.628C601.564 555.603 601.177 555.558 600.795 555.493C600.365 555.421 599.941 555.32 599.523 555.195C599.396 555.157 599.205 555.221 599.105 555.295C598.997 555.375 598.904 555.517 598.888 555.651C598.87 555.796 598.895 555.954 598.988 556.069C599.081 556.185 599.196 556.243 599.345 556.286L599.338 556.285Z" fill="#6E3B46"/>
<path d="M606.811 552.417C606.85 553.154 606.892 553.89 606.932 554.628C606.947 554.918 607.25 555.164 607.537 555.124C607.845 555.08 608.051 554.83 608.034 554.518C607.995 553.781 607.953 553.045 607.914 552.308C607.899 552.018 607.595 551.771 607.308 551.811C607 551.855 606.794 552.105 606.811 552.417Z" fill="#6E3B46"/>
<path d="M593.384 551.673C592.456 552.261 591.529 552.853 590.601 553.441C590.356 553.597 590.306 553.995 590.485 554.216C590.686 554.463 590.995 554.498 591.259 554.332C592.187 553.744 593.114 553.153 594.042 552.564C594.287 552.409 594.337 552.01 594.159 551.79C593.957 551.542 593.648 551.507 593.384 551.673Z" fill="#6E3B46"/>
<path d="M598.247 547.548C599.883 547.581 601.517 546.621 602.363 545.235C602.632 544.797 602.827 544.343 602.946 543.843C603.014 543.56 602.77 543.242 602.49 543.209C602.173 543.17 601.926 543.364 601.855 543.665C601.842 543.722 601.827 543.775 601.813 543.829C601.798 543.883 601.838 543.745 601.836 543.756C601.831 543.768 601.829 543.781 601.824 543.793C601.816 543.822 601.805 543.852 601.796 543.878C601.76 543.985 601.719 544.087 601.672 544.192C601.626 544.297 601.577 544.396 601.522 544.494C601.509 544.519 601.497 544.539 601.484 544.563C601.473 544.584 601.413 544.681 601.469 544.592C601.525 544.503 601.469 544.592 601.459 544.608C601.444 544.634 601.428 544.659 601.412 544.684C601.287 544.871 601.147 545.05 600.996 545.217C600.957 545.258 600.918 545.299 600.879 545.339C600.861 545.359 600.842 545.376 600.824 545.396C600.782 545.438 600.889 545.332 600.88 545.342C600.868 545.36 600.847 545.374 600.833 545.386C600.75 545.463 600.662 545.536 600.577 545.607C600.375 545.768 600.162 545.908 599.937 546.033L600.067 545.961C599.732 546.144 599.374 546.282 599.002 546.37L599.147 546.337C598.817 546.416 598.481 546.452 598.14 546.444C598.007 546.441 597.843 546.549 597.763 546.651C597.683 546.752 597.624 546.916 597.644 547.05C597.664 547.194 597.729 547.339 597.85 547.428C597.971 547.516 598.097 547.545 598.25 547.547L598.247 547.548Z" fill="#6E3B46"/>
<path d="M1775.91 266.127C1773.89 266.623 1771.8 267.122 1769.73 266.823C1767.66 266.526 1765.61 265.226 1765.12 263.262C1764.57 261.077 1766.04 258.966 1767.07 256.949C1767.9 255.321 1768.48 253.502 1768.21 251.706C1767.95 249.979 1766.94 248.459 1766.2 246.867C1765.46 245.275 1764.99 243.375 1765.82 241.824C1766.27 240.959 1767.08 240.32 1767.68 239.539C1769.02 237.807 1769.26 235.536 1769.91 233.468C1770.56 231.401 1772.01 229.228 1774.23 229.016C1776.97 228.757 1778.96 231.631 1779.33 234.266C1779.71 236.902 1779.15 239.656 1779.98 242.192C1780.65 244.235 1782.14 245.91 1783.33 247.718C1784.52 249.526 1785.44 251.733 1784.78 253.778C1784.42 254.897 1783.63 255.839 1783.2 256.938C1782.47 258.844 1782.92 261.016 1782.29 262.958C1781.27 266.117 1777.09 267.887 1773.99 266.469" fill="#83A655"/>
<path d="M1774.2 240.073C1774.24 242.2 1774.26 244.325 1774.26 246.452C1774.26 248.576 1774.24 250.699 1774.2 252.823C1774.16 254.946 1774.1 257.071 1774.02 259.192C1773.94 261.313 1773.84 263.453 1773.72 265.58C1773.6 267.701 1773.46 269.82 1773.3 271.938C1773.28 272.201 1773.26 272.465 1773.24 272.73C1773.21 273.048 1773.72 273.107 1773.75 272.789C1773.91 270.663 1774.06 268.536 1774.19 266.407C1774.31 264.279 1774.42 262.15 1774.5 260.02C1774.59 257.89 1774.65 255.743 1774.7 253.604C1774.74 251.472 1774.77 249.34 1774.77 247.21C1774.78 245.074 1774.76 242.937 1774.73 240.801C1774.72 240.536 1774.72 240.272 1774.71 240.007C1774.71 239.874 1774.55 239.778 1774.42 239.795C1774.27 239.815 1774.2 239.94 1774.2 240.075L1774.2 240.073Z" fill="#6E3B46"/>
<path d="M1771.04 247.855C1771.7 248.922 1772.53 249.884 1773.49 250.716C1773.76 250.952 1774.04 251.172 1774.33 251.385C1774.44 251.462 1774.61 251.443 1774.69 251.333C1774.77 251.223 1774.75 251.07 1774.63 250.987C1774.38 250.801 1774.13 250.608 1773.89 250.406C1773.78 250.307 1773.66 250.207 1773.55 250.104C1773.53 250.078 1773.5 250.056 1773.47 250.031C1773.48 250.038 1773.41 249.977 1773.44 250C1773.46 250.018 1773.42 249.982 1773.41 249.977C1773.35 249.923 1773.3 249.865 1773.24 249.81C1772.8 249.374 1772.39 248.904 1772.02 248.409C1771.82 248.132 1771.62 247.845 1771.44 247.551C1771.37 247.44 1771.17 247.43 1771.08 247.509C1770.96 247.606 1770.96 247.737 1771.03 247.858L1771.04 247.855Z" fill="#6E3B46"/>
<path d="M1776.66 255.846C1776.01 256.685 1775.36 257.521 1774.71 258.36C1774.53 258.599 1774.34 258.839 1774.16 259.08C1774.08 259.183 1774.1 259.351 1774.21 259.426C1774.32 259.501 1774.48 259.484 1774.57 259.374C1775.22 258.535 1775.86 257.699 1776.51 256.86C1776.69 256.621 1776.88 256.381 1777.07 256.14C1777.15 256.037 1777.13 255.869 1777.01 255.794C1776.9 255.719 1776.74 255.736 1776.66 255.846Z" fill="#6E3B46"/>
<path d="M725.658 450.141C723.646 450.616 721.723 451.835 721.101 453.804C720.548 455.551 720.808 457.453 720.411 459.237C719.804 461.959 717.786 464.096 716.188 466.381C714.59 468.665 713.342 471.637 714.483 474.176C715.273 475.928 717.108 477.207 717.328 479.102C717.497 480.58 716.626 481.957 716.254 483.397C715.511 486.228 716.803 489.345 719.02 491.247C721.237 493.149 724.233 493.971 727.156 494.017C730.022 494.072 733.012 493.363 735.158 491.461C737.304 489.558 738.366 486.295 737.158 483.692C736.456 482.184 735.08 480.977 734.743 479.355C733.88 475.206 740.097 471.484 738.274 467.65C737.624 466.272 736.127 465.542 735.065 464.459C733.46 462.822 732.919 460.459 732.463 458.21C732.016 455.968 731.541 453.604 730.04 451.875C728.539 450.147 725.627 449.421 723.957 450.994" fill="#D8D86E"/>
<path d="M724.855 461.576C725.054 467.605 725.245 473.642 725.427 479.671C725.609 485.7 725.809 491.761 726 497.814C726.111 501.193 726.213 504.579 726.324 507.958C726.34 508.342 726.93 508.33 726.913 507.945C726.715 501.933 726.525 495.929 726.335 489.925C726.145 483.92 725.953 477.818 725.762 471.765C725.651 468.37 725.548 464.967 725.437 461.572C725.421 461.188 724.831 461.2 724.847 461.584L724.855 461.576Z" fill="#6E3B46"/>
<path d="M722.703 466.68C723.487 468.169 724.295 469.651 725.087 471.132C725.266 471.464 725.776 471.167 725.605 470.827C724.821 469.337 724.013 467.856 723.221 466.374C723.042 466.042 722.533 466.339 722.703 466.68Z" fill="#6E3B46"/>
<path d="M726.216 484.516C729.061 482.771 730.841 479.779 731.42 476.534C731.486 476.164 730.91 476.013 730.844 476.399C730.286 479.488 728.626 482.338 725.91 483.999C725.587 484.202 725.884 484.712 726.216 484.516Z" fill="#6E3B46"/>
<path d="M1689.36 489.377C1685.43 500.47 1693.69 503.481 1696.56 504.189C1701.04 505.293 1706.09 505.225 1709.89 502.595C1713.68 499.972 1715.56 494.356 1713.05 490.486C1712.5 489.646 1711.79 488.928 1711.26 488.077C1709.25 484.894 1710.09 480.607 1708.45 477.217C1706.62 473.459 1701.56 471.685 1697.79 473.486C1693.8 475.391 1692.13 480.084 1690.85 484.308C1689.96 487.216 1689.07 490.13 1688.18 493.038" fill="#90B249"/>
<path d="M1699.48 485.334C1699.31 488.602 1699.14 491.865 1698.97 495.133C1698.8 498.402 1698.63 501.665 1698.46 504.933C1698.36 506.789 1698.27 508.639 1698.17 510.495C1698.16 510.709 1698.39 510.874 1698.59 510.86C1698.83 510.844 1698.94 510.654 1698.96 510.44C1699.13 507.172 1699.29 503.909 1699.46 500.64C1699.63 497.372 1699.8 494.109 1699.97 490.841C1700.07 488.985 1700.16 487.135 1700.26 485.279C1700.27 485.065 1700.04 484.9 1699.84 484.913C1699.6 484.93 1699.49 485.12 1699.48 485.334Z" fill="#6E3B46"/>
<path d="M1695.92 489.151C1696.27 491.074 1697.48 492.745 1699.22 493.662C1699.67 493.895 1700.01 493.191 1699.55 492.953C1698.09 492.177 1697 490.732 1696.7 489.096C1696.66 488.886 1696.51 488.715 1696.28 488.731C1696.09 488.745 1695.88 488.941 1695.92 489.151Z" fill="#6E3B46"/>
<path d="M1703.37 495.926C1702.66 498.038 1701.06 499.807 1699 500.663C1698.53 500.857 1698.78 501.602 1699.25 501.408C1701.5 500.472 1703.3 498.58 1704.08 496.261C1704.14 496.059 1704.1 495.834 1703.89 495.739C1703.72 495.658 1703.43 495.72 1703.37 495.926Z" fill="#6E3B46"/>
<path d="M1778.42 398H1775.51V416.685H1778.42V398Z" fill="#4F83C2"/>
<path d="M1785.95 398H1783.04V416.685H1785.95V398Z" fill="#4F83C2"/>
<path d="M1793.49 398H1790.58V416.685H1793.49V398Z" fill="#4F83C2"/>
<path d="M1778.42 429.314H1775.51V448H1778.42V429.314Z" fill="#4F83C2"/>
<path d="M1785.95 429.314H1783.04V448H1785.95V429.314Z" fill="#4F83C2"/>
<path d="M1793.49 429.314H1790.58V448H1793.49V429.314Z" fill="#4F83C2"/>
<path d="M1774.93 404.51H1794.07C1798.44 404.51 1802 408.262 1802 412.89V433.11C1802 437.732 1798.45 441.49 1794.07 441.49H1774.93C1770.56 441.49 1767 437.738 1767 433.11V412.89C1767 408.268 1770.55 404.51 1774.93 404.51Z" fill="#4E4553"/>
<path d="M1799.02 406.392L1769.62 439.297C1771.03 440.645 1772.88 441.49 1774.93 441.49H1794.07C1798.45 441.49 1802 437.738 1802 433.11V412.89C1802 410.25 1800.82 407.927 1799.02 406.392Z" fill="#00B4E8"/>
<path d="M1774.93 404.51H1794.07C1798.44 404.51 1802 408.262 1802 412.89V433.11C1802 437.732 1798.45 441.49 1794.07 441.49H1774.93C1770.56 441.49 1767 437.738 1767 433.11V412.89C1767 408.268 1770.55 404.51 1774.93 404.51Z" fill="#4F83C2"/>
<path d="M1799.02 406.392L1769.62 439.297C1771.03 440.645 1772.88 441.49 1774.93 441.49H1794.07C1798.45 441.49 1802 437.738 1802 433.11V412.89C1802 410.25 1800.82 407.927 1799.02 406.392Z" fill="#A7CEED"/>
</g>
</g>
<defs>
<clipPath id="clip0_4223_1896">
<rect width="2307" height="692" fill="white" transform="translate(200.421 175.711) rotate(-3.04245)"/>
</clipPath>
</defs>
</svg>
