<svg width="1918" height="811" viewBox="0 0 1918 811" fill="none" xmlns="http://www.w3.org/2000/svg">
<path d="M1916.99 745.364C1917.04 745.364 1917.1 745.364 1917.15 745.364H1917.16C1917.16 721.699 1917.16 694.79 1917.16 665.595C1917.16 647.406 1917.16 627.627 1917.15 606.822C1917.11 363.387 1916.98 21.5056 1916.69 12.926C1916.4 4.06527 1910.5 2.41524 1895.36 6.74249C1885.11 9.67543 1877.34 14.1553 1869.71 18.5856C1857.2 25.854 1842.27 29.1995 1823.39 28.8406C1805.6 28.5027 1787.79 28.5582 1769.99 28.6137C1763.88 28.6327 1757.77 28.6518 1751.66 28.655C1730.89 28.6673 1714.46 24.5587 1701.29 15.9126C1673.18 -2.53489 1645.38 -3.14952 1613.22 13.4498C1582.74 29.1747 1556.17 29.3315 1525.3 13.6767C1512.1 6.9817 1497.11 3.79716 1478.46 3.54963C1455.57 3.24541 1439.75 2.35363 1425.31 1.54009C1403.94 0.334926 1385.6 -0.698464 1351.83 0.604305C1347.96 0.753562 1341.26 1.1949 1333.2 1.72631C1309.84 3.26556 1275.01 5.56057 1264.35 3.70229C1245.08 0.344456 1225.14 0.233074 1205.19 0.604305C1189.09 0.904822 1173 1.31411 1156.91 1.7234C1149.14 1.92097 1141.37 2.11855 1133.61 2.30386C1115.41 2.737 1093.66 8.18626 1064.66 8.61357C1028.16 8.61357 1059.16 8.61357 1013.16 8.61357C987.66 8.18626 970.737 9.39901 949.195 8.18626C924.82 6.81411 898.333 7.71439 871.876 8.61357C846.237 9.48502 820.626 10.3555 796.997 9.15561C776.594 8.12022 766.913 8.13673 751.511 15.3845C736.831 22.291 720.136 21.9503 700.812 21.5558C697.688 21.492 694.494 21.4268 691.229 21.3906C681.692 21.2857 672.428 22.8787 663.205 24.4645C660.469 24.9349 657.738 25.4046 655.003 25.8293C623.305 30.7505 593.112 31.2744 567.952 17.3027C550.164 7.4231 527.283 7.29521 503.996 9.13091C498.316 9.57837 492.659 10.091 487.004 10.6034C471.129 12.0421 455.267 13.4796 438.931 13.4705C423.093 13.4622 409.129 17.2903 396.144 21.8816C370.173 31.0599 342.795 31.031 315.103 24.6949C283.129 17.3811 252.134 16.9933 220.137 25.1445C186.022 33.832 161.863 31.3198 134.37 17.8184C111.359 6.51972 83.1934 5.01817 56.6796 14.1677C40.6046 19.7159 16.879 24.5505 -3.2568 23.8575C-3.2568 25.3351 -3.14112 26.8181 -3.0255 28.3004C-2.79443 31.2626 -2.56361 34.2218 -3.2568 37.1279C-3.44308 37.9062 -3.57701 48.244 -3.66915 65.6358C-3.72352 65.6358 -3.7779 65.6358 -3.83228 65.6358H-3.83984C-3.83986 89.271 -3.83846 116.142 -3.83553 145.295C-3.84345 163.545 -3.84011 183.398 -3.82791 204.285C-3.78981 447.713 -3.65655 789.496 -3.37312 798.074C-3.07487 806.935 2.82125 808.585 17.9556 804.258C28.2109 801.325 35.9808 796.845 43.613 792.414C56.1243 785.146 71.0521 781.801 89.9338 782.159C107.717 782.497 125.525 782.442 143.334 782.386C149.443 782.367 155.552 782.348 161.66 782.345C182.43 782.333 198.865 786.441 212.033 795.087C240.138 813.535 267.936 814.149 300.102 797.55C330.577 781.825 357.152 781.669 388.025 797.323C401.225 804.018 416.213 807.203 434.858 807.45C457.754 807.755 473.574 808.646 488.006 809.46C509.385 810.665 527.718 811.698 561.494 810.396C565.358 810.246 572.056 809.805 580.12 809.274C603.48 807.734 638.308 805.44 648.972 807.298C668.244 810.656 688.181 810.767 708.133 810.396C724.23 810.095 740.319 809.686 756.409 809.277C764.177 809.079 771.945 808.882 779.714 808.696C797.907 808.263 809.547 802.253 820.421 795.615C847.906 778.839 873.916 777.411 906.639 791.721C923.625 799.151 942.583 801.601 964.126 802.814C988.5 804.186 1014.99 803.286 1041.44 802.386C1067.08 801.515 1092.69 800.644 1116.32 801.844C1136.73 802.88 1146.41 802.863 1161.81 795.615C1176.49 788.709 1193.18 789.05 1212.51 789.444C1215.63 789.508 1218.83 789.573 1222.09 789.609C1231.63 789.714 1240.89 788.121 1250.12 786.535C1252.85 786.065 1255.58 785.595 1258.32 785.171C1290.02 780.25 1320.21 779.726 1345.37 793.697C1363.16 803.577 1386.04 803.705 1409.32 801.869C1415 801.422 1420.66 800.909 1426.32 800.396C1442.19 798.958 1458.05 797.52 1474.39 797.53C1490.23 797.538 1504.19 793.71 1517.18 789.118C1543.15 779.94 1570.53 779.969 1598.22 786.305C1630.19 793.619 1661.19 794.007 1693.18 785.855C1727.3 777.168 1751.46 779.68 1778.95 793.182C1801.96 804.48 1830.13 805.982 1856.64 796.833C1872.72 791.284 1896.44 786.45 1916.58 787.143C1916.58 785.665 1916.46 784.182 1916.35 782.7C1916.11 779.737 1915.88 776.778 1916.58 773.872C1916.76 773.094 1916.9 762.756 1916.99 745.364Z" fill="#F5F3B2"/>
</svg>
