<svg width="99" height="100" viewBox="0 0 99 100" fill="none" xmlns="http://www.w3.org/2000/svg">
<ellipse cx="49.6798" cy="50" rx="47.4454" ry="48" stroke="#9CCD5A" stroke-width="3" stroke-linecap="round" stroke-dasharray="1 8"/>
<mask id="mask0_4656_3206" style="mask-type:alpha" maskUnits="userSpaceOnUse" x="20" y="20" width="60" height="60">
<rect x="20.0273" y="20" width="59.3068" height="60" fill="#D9D9D9"/>
</mask>
<g mask="url(#mask0_4656_3206)">
<g clip-path="url(#clip0_4656_3206)">
<path d="M54.1914 63.0352C59.0455 63.0352 62.9805 59.1002 62.9805 54.2461C62.9805 49.392 59.0455 45.457 54.1914 45.457C49.3373 45.457 45.4023 49.392 45.4023 54.2461C45.4023 59.1002 49.3373 63.0352 54.1914 63.0352Z" fill="#0E8347"/>
<path d="M71.1749 67.4988L63.9163 60.2402C62.9801 61.7534 61.7007 63.0328 60.1875 63.9692L67.446 71.2277C68.4758 72.2574 70.1452 72.2574 71.1749 71.2277C72.2046 70.198 72.2046 68.5285 71.1749 67.4988Z" fill="#0E8347"/>
<path d="M35.7355 27.7725L27.7188 35.7892H35.7355V27.7725Z" fill="#9CCD5A"/>
<path d="M34.8555 49.8516H43.6451C44.3629 48.1351 45.4879 46.6298 46.8989 45.457H34.8555V49.8516Z" fill="#9CCD5A"/>
<path d="M42.9009 52.4883H33.5371C32.809 52.4883 32.2188 51.898 32.2188 51.1699V44.1387C32.2188 43.4106 32.809 42.8203 33.5371 42.8203H54.1914C56.841 42.8203 59.2825 43.727 61.2227 45.2461V30.9551C61.2227 28.7742 59.4484 27 57.2676 27H38.3711V37.1074C38.3711 37.8355 37.7808 38.4258 37.0527 38.4258H26.9453V68.0449C26.9453 70.2258 28.7196 72 30.9004 72H57.2676C59.2312 72 60.8644 70.5613 61.1704 68.6829L57.6301 65.1426C56.5443 65.486 55.3893 65.6719 54.1914 65.6719C51.4215 65.6719 48.8789 64.6808 46.8989 63.0352H33.5371C32.809 63.0352 32.2188 62.4449 32.2188 61.7168C32.2188 60.9887 32.809 60.3984 33.5371 60.3984H44.5672C44.0448 59.584 43.6236 58.6991 43.3198 57.7617H33.5371C32.809 57.7617 32.2188 57.1714 32.2188 56.4434C32.2188 55.7153 32.809 55.125 33.5371 55.125H42.7991C42.6788 53.809 42.9009 52.4883 42.9009 52.4883ZM54.6309 40.1836H42.3262C41.5981 40.1836 41.0078 39.5933 41.0078 38.8652C41.0078 38.1371 41.5981 37.5469 42.3262 37.5469H54.6309C55.3589 37.5469 55.9492 38.1371 55.9492 38.8652C55.9492 39.5933 55.3589 40.1836 54.6309 40.1836ZM54.6309 34.9102H42.3262C41.5981 34.9102 41.0078 34.3199 41.0078 33.5918C41.0078 32.8637 41.5981 32.2734 42.3262 32.2734H54.6309C55.3589 32.2734 55.9492 32.8637 55.9492 33.5918C55.9492 34.3199 55.3589 34.9102 54.6309 34.9102Z" fill="#9CCD5A"/>
</g>
</g>
<defs>
<clipPath id="clip0_4656_3206">
<rect width="45" height="45" fill="white" transform="translate(26.9453 27)"/>
</clipPath>
</defs>
</svg>
