<svg width="99" height="100" viewBox="0 0 99 100" fill="none" xmlns="http://www.w3.org/2000/svg">
<ellipse cx="49.2697" cy="50" rx="47.4454" ry="48" stroke="#9CCD5A" stroke-width="3" stroke-linecap="round" stroke-dasharray="1 8"/>
<mask id="mask0_4656_3249" style="mask-type:alpha" maskUnits="userSpaceOnUse" x="19" y="20" width="60" height="60">
<rect x="19.6172" y="20" width="59.3068" height="60" fill="#D9D9D9"/>
</mask>
<g mask="url(#mask0_4656_3249)">
</g>
<g clip-path="url(#clip0_4656_3249)">
<path d="M52.7079 30.8333H50.624C49.9988 28.6292 47.9906 27 45.6035 27C43.2164 27 41.2082 28.6292 40.583 30.8333H38.499C37.7223 30.8333 37.0781 31.485 37.0781 32.2708V35.1458C37.0781 36.9858 38.5748 38.5 40.3935 38.5H50.8134C52.6322 38.5 54.1288 36.9858 54.1288 35.1458V32.2708C54.1288 31.485 53.4847 30.8333 52.7079 30.8333Z" fill="#9CCD5A"/>
<path d="M56.497 32.75H56.0233V35.1458C56.0233 38.0592 53.6931 40.4167 50.8134 40.4167H40.3935C37.5138 40.4167 35.1836 38.0592 35.1836 35.1458V32.75H34.7099C31.8303 32.75 29.5 35.1075 29.5 38.0208V61.9792C29.5 64.8925 31.8303 67.25 34.7099 67.25H47.9905C47.0622 65.1992 46.5507 62.9375 46.5507 60.5417H36.6045C35.8277 60.5417 35.1836 59.89 35.1836 59.1042C35.1836 58.3183 35.8277 57.6667 36.6045 57.6667H46.8159C47.0054 56.4975 47.3464 55.3667 47.7821 54.3125H36.6045C35.8277 54.3125 35.1836 53.6608 35.1836 52.875C35.1836 52.0892 35.8277 51.4375 36.6045 51.4375H49.2978C50.1314 50.1917 51.1355 49.0608 52.2722 48.0833H36.6045C35.8277 48.0833 35.1836 47.4317 35.1836 46.6458C35.1836 45.86 35.8277 45.2083 36.6045 45.2083H54.6024C55.0761 45.2083 55.5118 45.4575 55.7581 45.8217C57.5768 44.94 59.585 44.4033 61.7069 44.2692V38.0208C61.7069 35.1075 59.3766 32.75 56.497 32.75Z" fill="#9CCD5A"/>
<path d="M62.6542 48.083C55.8643 48.083 50.3398 53.672 50.3398 60.5413C50.3398 67.4107 55.8643 72.9997 62.6542 72.9997C69.4442 72.9997 74.9686 67.4107 74.9686 60.5413C74.9686 53.672 69.4442 48.083 62.6542 48.083ZM63.6583 68.2655C63.3931 68.5338 63.0331 68.6872 62.6542 68.6872C62.4648 68.6872 62.2943 68.6488 62.1048 68.5722C61.9343 68.4955 61.7828 68.3997 61.6501 68.2655C61.5175 68.1313 61.4228 67.978 61.347 67.8055C61.2712 67.633 61.2333 67.4413 61.2333 67.2497C61.2333 66.8663 61.3849 66.5022 61.6501 66.2338C62.1806 65.6972 63.1279 65.6972 63.6583 66.2338C63.791 66.368 63.9046 66.5213 63.9615 66.6938C64.0372 66.8663 64.0751 67.058 64.0751 67.2497C64.0751 67.633 63.9236 67.9972 63.6583 68.2655ZM65.4543 61.0531C64.939 61.4345 64.0751 62.2529 64.0751 63.4547V63.8955C64.0751 64.689 63.4386 65.333 62.6542 65.333C61.8699 65.333 61.2333 64.689 61.2333 63.8955V63.4547C61.2333 61.6511 62.1598 59.9299 63.7739 58.7358C64.2665 58.3698 64.5488 57.8063 64.5488 57.1872C64.5488 56.1311 63.6981 55.2705 62.6542 55.2705C61.6104 55.2705 60.7597 56.1311 60.7597 57.1872C60.7597 57.9807 60.1232 58.6247 59.3388 58.6247C58.5545 58.6247 57.9179 57.9807 57.9179 57.1872C57.9179 54.546 60.0436 52.3955 62.6542 52.3955C65.2649 52.3955 67.3905 54.546 67.3905 57.1872C67.3905 58.7071 66.6668 60.1523 65.4543 61.0531Z" fill="#0E8347"/>
</g>
<defs>
<clipPath id="clip0_4656_3249">
<rect width="45.4685" height="46" fill="white" transform="translate(29.5 27)"/>
</clipPath>
</defs>
</svg>
