<svg width="336" height="80" viewBox="0 0 336 80" fill="none" xmlns="http://www.w3.org/2000/svg">
<path d="M49.3229 66.0488H58.9637C60.7287 66.0488 62.1832 65.4901 63.2919 64.3991C64.4005 63.2994 64.9593 61.8537 64.9593 60.1064V48.0887C64.9593 46.51 64.4537 45.2062 63.4604 44.2218C62.467 43.2373 61.1544 42.7406 59.5668 42.7406H49.3229C47.5579 42.7406 46.1034 43.2994 45.0036 44.3903C43.895 45.4901 43.3362 46.9357 43.3362 48.6829V60.1064C43.3362 61.8537 43.895 63.2994 45.0036 64.3991C46.1122 65.4989 47.5668 66.0488 49.3229 66.0488ZM51.3007 56.3814V52.4878C51.3007 51.3792 51.7797 50.9002 52.906 50.9002H55.5491C56.4448 50.9002 56.8085 51.2639 56.8085 52.1508V56.3814C56.8085 57.49 56.3295 57.969 55.2032 57.969H52.8972C51.7708 57.969 51.2919 57.49 51.2919 56.3814H51.3007ZM42.8218 35.1397C42.8218 32.4701 44.2409 31.0599 46.9371 31.0599H49.6511V26.1907H47.2741C44.5868 26.1907 43.1588 24.7805 43.1588 22.1109C43.1588 19.4413 44.5779 18.0311 47.2741 18.0311H49.6511V16.8692C49.6511 14.0311 51.1588 12.5322 54.0236 12.5322C56.8883 12.5322 58.3961 14.0311 58.3961 16.8692V18.0311H60.9415C63.6289 18.0311 65.0568 19.4413 65.0568 22.1109C65.0568 24.7805 63.6377 26.1907 60.9415 26.1907H58.3961V31.0599H61.5357C64.2231 31.0599 65.651 32.4701 65.651 35.1397C65.651 37.8094 64.232 39.3082 61.5357 39.3082H46.9371C44.2497 39.3082 42.8218 37.8714 42.8218 35.1397ZM65.7131 12.4789C66.8395 12.4789 67.3185 12.9579 67.3185 14.0666V68.0532C67.3185 68.7628 67.1766 68.9756 67.1322 69.0288C67.0967 69.0732 66.9105 69.2151 66.2275 69.2151H65.1278C62.1832 69.153 60.2586 69.7473 59.2475 71.0422C58.4315 72.0976 58.2808 73.5787 58.7952 75.4501C59.5579 78.2528 61.926 79.6718 65.8462 79.6718C66.0058 79.6718 66.1655 79.6718 66.3251 79.6718C69.5712 79.5033 72.028 78.9091 73.5978 77.9246C75.1145 77.0821 76.161 75.8315 76.702 74.2262C77.2342 72.8248 77.5003 70.7849 77.5003 68.1419V8.99336C77.5003 7.24613 76.9415 5.80049 75.8329 4.70071C74.7242 3.60093 73.2697 3.051 71.5136 3.051H37.2076C35.4426 3.051 33.9881 3.6098 32.8794 4.70071C31.7708 5.80049 31.212 7.24613 31.212 8.99336V34.9712C31.212 42.6342 30.9282 49.0821 30.3606 54.1286C29.6333 60.6475 28.3828 66.2262 26.6355 70.7495V54.9357C26.6355 53.1885 26.0768 51.7428 24.9681 50.643C23.8595 49.5433 22.4049 48.9934 20.6488 48.9934H9.21647C7.4515 48.9934 5.99696 49.5521 4.88831 50.643C3.77966 51.7428 3.22091 53.1885 3.22091 54.9357V69.4102C3.22091 71.1574 3.77966 72.6031 4.88831 73.7029C5.99696 74.8027 7.4515 75.3526 9.21647 75.3526H26.0945C26.4404 75.5299 26.9637 75.8138 27.6378 76.1863C29.3318 77.5078 30.9726 78.0044 32.5247 77.6674C34.0856 77.3304 35.283 76.2306 36.0901 74.377C39.5047 65.0111 41.2342 51.7517 41.2342 34.9623V14.0577C41.2342 12.949 41.7131 12.4701 42.8395 12.4701H65.7131V12.4789ZM11.8772 65.0111V59.3437C11.8772 58.2351 12.3562 57.7561 13.4825 57.7561H16.1256C17.2519 57.7561 17.7309 58.2351 17.7309 59.3437V66.5987H13.4825C12.3562 66.5987 11.8772 66.1198 11.8772 65.0111ZM24.3207 22.8027H4.5158C1.59784 22.8027 0.0634766 21.2772 0.0634766 18.3858C0.0634766 15.4945 1.60671 13.969 4.5158 13.969H24.3207C27.2386 13.969 28.773 15.4945 28.773 18.3858C28.773 21.2772 27.2298 22.8027 24.3207 22.8027ZM8.27634 2.6253H22.2719C25.0746 2.6253 26.5557 4.09756 26.5557 6.87361C26.5557 9.64967 25.0746 11.122 22.2719 11.122H8.27634C5.47368 11.122 3.99252 9.64967 3.99252 6.87361C3.99252 4.09756 5.47368 2.6253 8.27634 2.6253ZM22.6178 37.3215C25.3672 37.3215 26.8129 38.7583 26.8129 41.49C26.8129 44.2218 25.3584 45.7384 22.6178 45.7384H7.6821C4.93266 45.7384 3.48698 44.2661 3.48698 41.49C3.48698 38.714 4.94152 37.3215 7.6821 37.3215H22.6178ZM26.8129 29.9779C26.8129 32.816 25.3318 34.3149 22.5291 34.3149H7.76192C4.95926 34.3149 3.47811 32.816 3.47811 29.9779C3.47811 27.1397 4.95926 25.7295 7.76192 25.7295H22.5291C25.3318 25.7295 26.8129 27.2018 26.8129 29.9779ZM163.114 72.7096C163.114 75.8759 161.429 77.5521 158.236 77.5521H93.1987C90.0058 77.5521 88.3207 75.8759 88.3207 72.7096C88.3207 69.5433 90.0058 67.867 93.1987 67.867H158.236C161.429 67.867 163.114 69.5433 163.114 72.7096ZM163.886 14.2351C163.886 11.122 162.228 9.47233 159.088 9.47233H130.857V5.34814C130.857 1.84482 128.995 0 125.465 0C121.935 0 120.072 1.85368 120.072 5.34814V9.47233H92.5247C89.385 9.47233 87.7264 11.122 87.7264 14.2351C87.7264 17.3482 89.385 19.0776 92.5247 19.0776H109.695C104.631 23.9202 98.6887 27.867 92.0191 30.8293C89.722 31.7251 88.3561 32.745 87.8417 33.9601C87.3273 35.2905 87.8063 36.9224 89.2785 38.7938C91.1145 41.0998 93.5624 41.6319 96.5601 40.3548C98.2364 39.5211 99.5402 38.8382 100.534 38.2794V58.8293C100.534 60.5765 101.092 62.0222 102.201 63.122C103.31 64.2218 104.764 64.7716 106.529 64.7716H144.338C146.103 64.7716 147.558 64.2129 148.658 63.122C149.766 62.0222 150.325 60.5765 150.325 58.8293V37.6674C151.7 38.4213 153.101 39.1042 154.494 39.6896C157.58 40.949 160.117 40.3902 162.006 38.031C163.54 36.1419 163.992 34.51 163.345 33.1707C162.777 31.9202 161.323 30.9002 158.928 30.0665C152.01 27.1663 146.006 23.4678 141.048 19.0687H159.106C162.245 19.0687 163.904 17.3925 163.904 14.2262L163.886 14.2351ZM138.848 53.7738V55.6985C138.848 56.8071 138.369 57.286 137.243 57.286H112.915C111.851 57.286 111.398 56.8337 111.398 55.7872V53.7738H138.848ZM138.848 43.2816V46.5366H111.398V43.2816H138.848ZM125.465 34.2262C128.995 34.2262 130.857 32.3725 130.857 28.878V22.1907C135.487 27.4146 140.941 31.9823 147.088 35.796H104.613C110.414 31.9912 115.602 27.4324 120.063 22.2262V28.878C120.063 32.3814 121.926 34.2262 125.456 34.2262H125.465ZM206.831 45.5344C206.378 46.173 205.571 46.7761 204.356 47.3792C202.76 48.1065 201.447 48.2217 200.436 47.725C199.514 47.2727 198.857 46.3237 198.485 44.9047L194.361 45.1885V75.1575C194.361 78.3238 192.675 80 189.483 80C186.29 80 184.604 78.3238 184.604 75.1575V45.9246C181.154 46.1375 178.476 46.3237 176.64 46.4834C173.669 46.6785 171.966 45.1264 171.718 42.0133C171.593 40.3637 171.93 39.0865 172.72 38.2173C173.5 37.3659 174.715 36.9135 176.33 36.8781L177.731 36.8071C179.114 35.0244 180.33 33.4013 181.341 31.9911C179.7 29.6319 177.252 26.7228 174.05 23.3348C173.11 22.4035 172.693 21.1796 172.817 19.6896C172.942 18.4302 173.394 17.1973 174.165 16.0177C174.733 15.1486 175.407 14.5721 176.188 14.3149C176.924 14.0931 177.624 14.1818 178.298 14.5898C179.851 11.5743 181.341 8.18628 182.733 4.51444C183.283 2.94459 184.063 1.92464 185.057 1.47231C186.041 1.02885 187.363 1.08205 189.004 1.62307C190.644 2.18183 191.691 3.03331 192.117 4.15082C192.578 5.33042 192.33 6.8027 191.381 8.52332C188.8 13.5876 186.476 17.6852 184.471 20.7007C185.208 21.4989 186.015 22.4479 186.866 23.5388C188.631 20.7983 190.485 17.5432 192.392 13.8625C193.74 11.3082 195.975 10.5632 198.839 11.7073C200.471 12.3814 201.474 13.286 201.828 14.4124C202.183 15.5388 201.882 16.8692 200.933 18.3681C196.498 25.1264 192.161 31.1929 188.028 36.4257L194.91 36.0887L194.884 36.0532L194.103 34.5011C193.438 33.2417 193.27 32.1065 193.607 31.1308C193.961 30.1109 194.857 29.2772 196.276 28.6563C198.635 27.6098 200.569 28.2306 201.873 30.4479C204.276 34.9268 206.032 38.9978 207.123 42.5632C207.443 43.7783 207.336 44.7805 206.813 45.561L206.831 45.5344ZM206.272 34.2883C206.272 31.0067 208.019 29.2772 211.327 29.2772H221.722V20.9402H208.933C205.624 20.9402 203.877 19.2107 203.877 15.9291C203.877 12.6475 205.624 10.918 208.933 10.918H221.722V5.52554C221.722 1.91578 223.647 0.00887784 227.283 0.00887784C230.919 0.00887784 232.844 1.91578 232.844 5.52554V10.918H246.228C249.536 10.918 251.283 12.6475 251.283 15.9291C251.283 19.2107 249.536 20.9402 246.228 20.9402H232.844V29.2772H244.347C247.655 29.2772 249.403 31.0067 249.403 34.2883C249.403 37.5699 247.655 39.2993 244.347 39.2993H211.318C208.01 39.2993 206.263 37.5699 206.263 34.2883H206.272ZM179.655 50.2705C182.494 50.6963 183.806 52.479 183.434 55.4147C183.035 58.5189 182.573 61.1885 182.059 63.3348C181.376 66.1464 180.826 68.2129 180.427 69.4634C179.788 71.0421 179.017 71.9556 178.059 72.2838C177.749 72.3902 177.42 72.4435 177.057 72.4435C176.312 72.4435 175.443 72.2129 174.449 71.7606C172.986 71.0954 172.037 70.2794 171.62 69.3304C171.203 68.3725 171.301 67.122 171.913 65.6053C172.915 62.6253 173.713 58.8913 174.272 54.5454C174.458 52.8426 175.035 51.6098 175.992 50.8913C176.897 50.2084 178.13 50.0045 179.655 50.2705ZM203.283 52.3902C204.48 55.388 205.571 58.5543 206.547 61.8359C206.919 63.2018 206.866 64.3016 206.369 65.1087C205.89 65.898 204.968 66.5455 203.62 67.0333C202.822 67.326 202.086 67.4767 201.429 67.4767C200.773 67.4767 200.241 67.3437 199.753 67.0776C198.733 66.5277 198.032 65.4102 197.66 63.7517C197.545 63.1752 197.314 62.306 196.986 61.153L196.738 60.408C196.063 58.2971 195.522 56.7096 195.123 55.6896C194.618 54.4124 194.573 53.2949 194.999 52.3725C195.46 51.3792 196.454 50.6253 197.953 50.1109C200.445 49.3658 202.281 50.1552 203.274 52.3814L203.283 52.3902ZM245.864 74.6342C246.973 73.5344 247.531 72.0887 247.531 70.3415V51.4679C247.531 49.7206 246.973 48.2749 245.864 47.1752C244.755 46.0754 243.301 45.5255 241.536 45.5255H214.822C213.057 45.5255 211.602 46.0843 210.494 47.1752C209.385 48.2749 208.826 49.7206 208.826 51.4679V70.3415C208.826 72.0887 209.385 73.5344 210.494 74.6342C211.602 75.7339 213.057 76.2838 214.822 76.2838H241.536C243.301 76.2838 244.755 75.7251 245.864 74.6342ZM218.937 64.8426V56.9756C218.937 55.867 219.416 55.388 220.542 55.388H235.31C236.436 55.388 236.915 55.867 236.915 56.9756V64.8426C236.915 65.9513 236.436 66.4302 235.31 66.4302H220.542C219.416 66.4302 218.937 65.9513 218.937 64.8426ZM330.387 75.938C331.567 75.6896 332.711 74.9002 333.802 73.5787C335.389 71.5832 335.868 69.8891 335.23 68.5676C334.715 67.2993 333.234 66.2528 330.715 65.357C323.487 62.4035 316.977 58.714 311.345 54.3592H330.458C333.766 54.3592 335.514 52.5943 335.514 49.2594C335.514 45.9246 333.766 44.2483 330.458 44.2483H303.168V40.1419H321.669C323.434 40.1419 324.888 39.5832 325.988 38.4923C327.097 37.3925 327.655 35.9468 327.655 34.1996V9.82706C327.655 8.07984 327.097 6.63419 325.988 5.53441C324.879 4.43463 323.425 3.8847 321.669 3.8847H273.447C271.682 3.8847 270.228 4.4435 269.128 5.53441C268.019 6.63419 267.46 8.07984 267.46 9.82706V34.1996C267.46 35.9468 268.019 37.3925 269.128 38.4923C270.236 39.592 271.691 40.1419 273.447 40.1419H291.691V44.2483H264.312C261.004 44.2483 259.256 45.9779 259.256 49.2594C259.256 52.541 261.004 54.3592 264.312 54.3592H283.531C278.219 58.9269 271.62 62.8204 263.904 65.9424C261.42 66.8382 259.966 67.8936 259.469 69.1353C258.822 70.5366 259.31 72.2306 260.897 74.1729C262.848 76.5321 265.341 77.1175 268.338 75.9024C277.172 71.9291 285.021 66.6341 291.691 60.1419V74.2262C291.691 77.9512 293.678 79.9202 297.429 79.9202C301.181 79.9202 303.168 77.9512 303.168 74.2262V59.7073C309.784 66.0931 317.518 71.3082 326.183 75.2195C327.797 75.929 329.208 76.1685 330.378 75.9291L330.387 75.938ZM303.176 17.6851V13.153H315.771V17.6851H303.176ZM303.176 30.8825V26.3503H315.771V30.8825H303.176ZM291.709 26.3503V30.8825H280.542C279.416 30.8825 278.937 30.4036 278.937 29.2949V26.3503H291.709ZM291.709 13.153V17.6851H278.937V14.7406C278.937 13.632 279.416 13.153 280.542 13.153H291.709Z" fill="url(#paint0_linear_14_1051)"/>
<path d="M8.29418 9.90691C9.9645 9.90691 11.3186 8.55282 11.3186 6.88249C11.3186 5.21217 9.9645 3.85812 8.29418 3.85812C6.62385 3.85812 5.26979 5.21217 5.26979 6.88249C5.26979 8.55282 6.62385 9.90691 8.29418 9.90691Z" fill="white"/>
<path d="M92.8173 17.2151C94.4876 17.2151 95.8417 15.861 95.8417 14.1907C95.8417 12.5204 94.4876 11.1663 92.8173 11.1663C91.1469 11.1663 89.7929 12.5204 89.7929 14.1907C89.7929 15.861 91.1469 17.2151 92.8173 17.2151Z" fill="white"/>
<path d="M177.412 22.9534C179.082 22.9534 180.436 21.5994 180.436 19.9291C180.436 18.2587 179.082 16.9047 177.412 16.9047C175.741 16.9047 174.387 18.2587 174.387 19.9291C174.387 21.5994 175.741 22.9534 177.412 22.9534Z" fill="white"/>
<path d="M273.793 13.1619C275.463 13.1619 276.817 11.8078 276.817 10.1375C276.817 8.46719 275.463 7.1131 273.793 7.1131C272.123 7.1131 270.769 8.46719 270.769 10.1375C270.769 11.8078 272.123 13.1619 273.793 13.1619Z" fill="white"/>
<defs>
<linearGradient id="paint0_linear_14_1051" x1="167.789" y1="80.0177" x2="167.789" y2="0.00887015" gradientUnits="userSpaceOnUse">
<stop stop-color="#018139"/>
<stop offset="1" stop-color="#0F6632"/>
</linearGradient>
</defs>
</svg>
