<svg width="420" height="80" viewBox="0 0 420 80" fill="none" xmlns="http://www.w3.org/2000/svg">
<path d="M78.1058 73.2077C78.1058 76.2137 76.5097 77.7921 73.486 77.7921H17.7555C14.7318 77.7921 13.1357 76.2048 13.1357 73.2077C13.1357 70.2106 14.7318 68.6145 17.7555 68.6145H22.2601V57.9739C22.2601 54.5866 24.0956 52.7954 27.5627 52.7954C31.0297 52.7954 32.7854 54.5866 32.7854 57.9739V68.6145H41.032V51.5451C41.032 50.1352 41.4753 48.9736 42.362 48.0958C43.1069 47.3509 44.0645 46.9253 45.2084 46.81C44.4192 45.7991 43.7453 44.9834 43.1956 44.3982C42.433 43.6444 42.0694 42.8021 42.1404 41.9065C42.2024 41.0109 42.6724 40.2572 43.5236 39.6719C46.0597 37.6591 48.2676 35.3979 50.0765 32.9506H48.8972C46.3168 32.9506 44.9513 31.5673 44.9513 28.9515C44.9513 26.3357 46.3168 25.041 48.8972 25.041H54.7673V22.0084C53.8894 22.106 52.6923 22.1947 51.1406 22.2922C50.2982 22.3454 49.6509 22.4075 49.2075 22.4607C47.0794 22.5139 45.705 21.6892 45.0665 19.9778C44.6232 18.8339 44.6232 17.8852 45.0665 17.158C45.5808 16.3157 46.6183 15.828 48.2499 15.6595C54.7141 15.021 60.1319 14.1255 64.3705 12.9905H17.4984C16.3722 12.9905 15.8934 13.4693 15.8934 14.5777V29.4657C15.8934 32.5604 15.8225 35.8945 15.6717 39.3882C17.924 37.6768 20.0433 35.5132 21.9852 32.9506H20.7349C18.1545 32.9506 16.789 31.5673 16.789 28.9515C16.789 26.3357 18.1545 25.041 20.7349 25.041H26.0109V22.168C24.0158 22.3631 22.4285 22.4961 21.2669 22.5404C19.3605 22.5759 18.0393 21.769 17.3388 20.0665C16.8954 18.9847 16.8865 18.0802 17.3033 17.3797C17.791 16.5551 18.8196 16.0763 20.4334 15.9078C26.5784 15.2339 31.3401 14.3649 34.5944 13.3008C35.4633 12.9905 36.2703 12.9284 36.9796 13.1235C37.5649 13.3185 38.2565 13.7264 39.0989 14.3826C40.6595 15.6151 41.3246 16.697 41.1384 17.6812C40.9522 18.6655 39.959 19.4103 38.1058 19.9778C37.4141 20.1906 36.4299 20.439 35.0909 20.7493V25.0321H39.9413C42.5217 25.0321 43.8872 26.3888 43.8872 28.9426C43.8872 31.4964 42.5217 32.9417 39.9413 32.9417H37.1925C38.5935 33.793 39.826 34.5644 40.8723 35.2561C42.0606 36.0009 42.7167 36.8167 42.8143 37.6857C42.9118 38.5458 42.5039 39.5389 41.5729 40.7182C40.6418 41.8532 39.6487 42.4562 38.6201 42.5094C37.5915 42.5626 36.5185 42.0572 35.4545 41.0109C35.3569 40.9311 35.2328 40.8335 35.0998 40.7094V43.6533C35.0998 46.5972 33.5303 48.1578 30.5598 48.1578C27.5893 48.1578 26.0198 46.5972 26.0198 43.6533V40.1951C24.8493 41.871 23.5281 43.5026 22.1005 45.0543C21.0187 46.0652 19.7772 46.4997 18.4028 46.3844C17.2767 46.2869 16.2747 45.8081 15.4057 44.9657C14.6343 57.1138 12.8697 67.1071 10.1563 74.6885C9.3494 76.5329 8.43607 77.6325 7.3454 78.0758C6.99958 78.2177 6.62716 78.2886 6.21927 78.2886C5.33255 78.2886 4.29508 77.9517 3.12461 77.2955C1.55511 76.3999 0.570851 75.3625 0.189561 74.2097C-0.182862 73.0659 -0.00551784 71.6116 0.712727 69.8825C3.967 60.8025 5.62516 47.1825 5.62516 29.4392V8.96474C5.62516 7.2179 6.1838 5.77258 7.2922 4.67304C8.4006 3.57351 9.85483 3.0237 11.6194 3.0237H73.0515C76.2969 3.0237 78.0171 4.7262 78.0171 7.95387C78.0171 11.1815 76.2969 12.9639 73.0515 12.9639H67.8376C68.3519 13.1855 68.8839 13.5225 69.407 13.957C70.9499 15.1984 71.6061 16.2802 71.411 17.2644C71.2248 18.2221 70.2672 18.9404 68.4849 19.4636C67.5627 19.7296 66.1262 20.0754 64.1133 20.501V25.0233H72.2002C74.7806 25.0233 76.1461 26.38 76.1461 28.9337C76.1461 31.4875 74.7806 32.9329 72.2002 32.9329H68.946C70.5332 34.8393 72.3155 36.5063 74.2485 37.8807C75.9777 38.8827 76.9974 39.9113 77.3166 40.9931C77.6447 42.1636 77.1836 43.4937 75.9511 44.9568C74.9579 46.1273 73.9648 46.7302 72.9805 46.7657C72.0229 46.7923 70.9322 46.3667 69.6376 45.4534C67.7134 43.7509 65.869 41.6493 64.1045 39.1576V43.5646C64.1045 46.5706 62.5084 48.149 59.4758 48.149C56.4432 48.149 54.7673 46.5618 54.7673 43.5646V39.2286C52.6657 42.3853 50.5908 44.9124 48.5514 46.7657H49.58C50.9632 46.7657 51.7258 47.5283 51.7258 48.9027V53.7087H66.472C69.3272 53.7087 70.8435 55.2073 70.8435 58.0448C70.8435 60.8823 69.3361 62.3808 66.472 62.3808H51.7258V68.5968H73.4682C76.492 68.5968 78.0881 70.184 78.0881 73.19L78.1058 73.2077ZM164.455 56.626C164.455 60.0665 162.619 61.8932 159.143 61.8932H135.61V74.396C135.61 78.0581 133.659 80 129.961 80C126.264 80 124.313 78.0581 124.313 74.396V61.8932H91.646C88.1701 61.8932 86.3434 60.0754 86.3434 56.626C86.3434 53.1767 88.1789 51.3589 91.646 51.3589H99.6531V35.1319C99.6531 33.3851 100.212 31.9397 101.32 30.8401C102.429 29.7406 103.883 29.1909 105.638 29.1909H124.313V19.9246H106.924C104.619 24.0213 101.888 27.9495 98.8107 31.6116C97.5339 33.0038 96.2924 33.7575 95.1042 33.8817C93.916 34.0147 92.5416 33.4915 91.0342 32.3565C89.2253 30.982 88.2765 29.5899 88.2144 28.2155C88.1523 26.8499 88.9415 25.3425 90.5642 23.7376C95.0422 18.7453 98.9171 12.3787 102.074 4.84152C103.351 1.40991 105.771 0.124117 109.247 1.02857C111.172 1.55174 112.457 2.4296 113.069 3.63554C113.654 4.79714 113.619 6.25137 112.972 7.96274C112.918 8.17556 112.785 8.51252 112.573 8.96474C112.511 9.08888 112.457 9.20416 112.413 9.3017H154.541C158.017 9.3017 159.853 11.1195 159.853 14.5688C159.853 18.0182 158.017 19.9158 154.541 19.9158H135.619V29.182H152.75C156.111 29.182 157.884 30.9466 157.884 34.2806C157.884 37.6147 156.111 39.3793 152.75 39.3793H135.619V51.35H159.152C162.628 51.35 164.464 53.1678 164.464 56.6172L164.455 56.626ZM112.218 39.3882C111.092 39.3882 110.613 39.867 110.613 40.9754V51.3589H124.322V39.3882H112.218ZM233.131 70.716C233.513 72.0993 233.397 73.1989 232.803 73.9881C232.289 74.6797 231.358 75.2561 229.948 75.7437C229.159 76.0009 228.441 76.125 227.793 76.125C227.084 76.125 226.463 75.9743 225.922 75.6817C224.929 75.1319 224.22 74.0856 223.83 72.5604V72.5338C223.776 72.2767 223.661 71.9309 223.502 71.5052C223.502 71.5052 223.502 71.4964 223.502 71.4875C211.628 72.5161 201.591 73.3585 193.663 73.9969C192.112 74.1211 190.95 73.7841 190.232 73.0127C189.531 72.321 189.132 71.1505 189.008 69.4392C188.884 67.7367 189.123 66.4953 189.726 65.6352C190.347 64.7573 191.482 64.2873 193.096 64.2252C196.909 64.0656 201.103 63.8173 205.554 63.4981V55.5531H198.407C196.643 55.5531 195.189 54.9945 194.08 53.9038C192.972 52.8043 192.413 51.3589 192.413 49.6121V36.0718C192.413 34.325 192.972 32.8797 194.08 31.7801C195.189 30.6806 196.643 30.1308 198.407 30.1308H205.554V25.8923C203.488 26.0519 200.544 26.2381 196.802 26.442C194.249 26.5041 192.582 25.4046 191.837 23.1789C191.34 21.7424 191.384 20.5631 191.961 19.6852C192.608 18.6921 193.929 18.1068 195.889 17.9472C206.627 17.1669 215.078 16.0851 221.001 14.7373C222.101 14.4358 223.12 14.4713 224.007 14.8437C224.699 15.1541 225.47 15.7748 226.375 16.7236C227.917 18.4438 228.538 19.8182 228.272 20.9355C227.997 22.0882 226.774 22.8863 224.521 23.3828C221.95 23.9237 218.793 24.4558 215.14 24.9435V30.1219H222.801C224.566 30.1219 226.02 30.6806 227.119 31.7712C228.228 32.8708 228.786 34.3161 228.786 36.063V49.6032C228.786 51.3501 228.228 52.7954 227.119 53.8949C226.011 54.9944 224.557 55.5443 222.801 55.5443H215.14V62.9129L220.097 62.5671C220.097 62.5671 220.07 62.5138 220.061 62.4872L219.76 61.8932C219.041 60.4478 218.899 59.1975 219.325 58.1955C219.751 57.1936 220.726 56.4399 222.234 55.9433C224.699 55.2073 226.623 55.9522 227.793 58.098C230.134 62.505 231.925 66.7435 233.122 70.7072L233.131 70.716ZM218.119 47.0494C219.245 47.0494 219.724 46.5706 219.724 45.4622V40.2128C219.724 39.1044 219.245 38.6256 218.119 38.6256H215.149V47.0494H218.119ZM202.504 38.6256C201.378 38.6256 200.899 39.1044 200.899 40.2128V45.4622C200.899 46.5706 201.378 47.0494 202.504 47.0494H205.563V38.6256H202.504ZM248.161 60.1995C247.638 60.1818 247.177 60.4301 246.796 60.9C245.927 61.8843 245.386 63.8262 245.155 66.7968C245.022 67.6657 244.889 67.9849 244.818 68.1002C244.224 67.9495 242.664 66.114 241.936 51.6161C241.484 42.9883 241.369 29.7317 241.6 12.219C241.635 8.75191 240.943 6.27797 239.533 4.85922C238.576 3.89269 237.281 3.39616 235.694 3.39616H186.029C184.264 3.39616 182.81 3.95478 181.71 5.04545C180.602 6.14498 180.043 7.59031 180.043 9.33715V33.2786C180.043 40.3901 179.697 46.4908 179.024 51.4121C178.066 58.497 176.301 64.5356 173.792 69.3416C172.701 71.0796 172.24 72.525 172.364 73.7752C172.551 75.2029 173.446 76.4443 175.033 77.4729C176.417 78.4039 177.729 78.7497 178.953 78.5014C180.256 78.2354 181.444 77.2778 182.5 75.6285C187.802 66.0164 190.489 51.7668 190.489 33.2786V15.2605C190.489 14.1521 190.968 13.6732 192.094 13.6732H229.469C229.913 13.6732 231.074 13.6732 231.074 16.4487C231.074 37.8098 231.65 52.8043 232.786 61.0153C234.577 73.5624 238.31 79.9291 243.887 79.9291C246.193 79.9291 248.011 78.9803 249.287 77.1093C250.414 75.46 251.247 72.7999 251.841 68.9515C252.143 65.8834 251.841 63.7375 250.91 62.3897C249.899 60.9444 249.004 60.235 248.17 60.2084L248.161 60.1995ZM307.793 41.4188H320.252C322.61 41.4188 323.852 40.1508 323.852 37.7566C323.852 35.3625 322.61 34.1831 320.252 34.1831H307.793C305.435 34.1831 304.193 35.4157 304.193 37.7566C304.193 40.0976 305.435 41.4188 307.793 41.4188ZM324.091 11.4653C326.893 11.4653 328.374 9.99337 328.374 7.21793C328.374 4.44249 326.893 2.9705 324.091 2.9705H269.398C266.596 2.9705 265.115 4.44249 265.115 7.21793C265.115 9.99337 266.596 11.4653 269.398 11.4653H291.309V14.2141H265.381C263.617 14.2141 262.163 14.7728 261.063 15.8635C259.955 16.963 259.396 18.4083 259.396 20.1552V29.2884C259.396 32.454 261.081 34.1299 264.273 34.1299C267.465 34.1299 269.15 32.454 269.15 29.2884V24.039C269.15 22.9306 269.629 22.4518 270.755 22.4518H291.3V37.659C291.3 41.0463 293.136 42.8375 296.603 42.8375C300.07 42.8375 301.826 41.0463 301.826 37.659V22.4518H322.717C323.843 22.4518 324.322 22.9306 324.322 24.039V29.12C324.322 32.4008 326.095 34.1299 329.456 34.1299C332.817 34.1299 334.51 32.4008 334.51 29.12V20.1552C334.51 18.4083 333.952 16.963 332.843 15.8635C331.735 14.7639 330.281 14.2141 328.516 14.2141H301.826V11.4653H324.091ZM307.793 31.9397H318.203C320.562 31.9397 321.803 30.7072 321.803 28.3662C321.803 26.0253 320.562 24.7928 318.203 24.7928H307.793C305.435 24.7928 304.193 26.0253 304.193 28.3662C304.193 30.7072 305.435 31.9397 307.793 31.9397ZM335.459 59.0734C335.459 61.8577 333.978 63.3208 331.176 63.3208H317.964C321.537 65.9011 324.925 68.5968 328.055 71.3456C329.678 72.8885 330.289 74.2718 329.89 75.46C329.571 76.5418 328.401 77.5438 326.326 78.5103C325.297 78.9803 324.313 79.2109 323.391 79.2109C321.795 79.2109 320.349 78.5192 319.081 77.1537L318.461 76.5329C309.602 76.8699 296.55 77.2955 279.658 77.7921C274.142 77.9605 270.187 78.0758 267.793 78.129C266.357 78.1911 265.284 77.8276 264.628 77.0384C264.105 76.3911 263.794 75.2827 263.67 73.66C263.546 72.0018 263.874 70.7427 264.645 69.9003C265.39 69.1022 266.525 68.6943 268.033 68.6943C269.247 68.6411 271.154 68.6145 273.681 68.6056C274.444 67.4263 275.508 65.644 276.829 63.3208H262.57C259.768 63.3208 258.288 61.8488 258.288 59.0734C258.288 56.298 259.768 54.826 262.57 54.826H331.176C333.978 54.826 335.459 56.298 335.459 59.0734ZM306.534 63.3208H289.926C289.021 64.5444 287.682 66.2115 285.838 68.4194C287.727 68.3751 290.343 68.3219 293.623 68.2776C299.901 68.18 304.867 68.0736 308.423 67.9761C307.917 67.5948 307.306 67.1426 306.587 66.6283C305.736 65.9898 305.355 65.378 305.426 64.7396C305.479 64.2075 305.842 63.7375 306.534 63.3208ZM269.806 37.7477C269.806 40.1419 271.048 41.4099 273.406 41.4099H285.35C287.709 41.4099 288.95 40.1419 288.95 37.7477C288.95 35.3536 287.709 34.1742 285.35 34.1742H273.406C271.048 34.1742 269.806 35.4068 269.806 37.7477ZM268.104 48.0692C268.104 50.7382 269.522 52.1481 272.218 52.1481H321.883C324.57 52.1481 325.998 50.7382 325.998 48.0692C325.998 45.4002 324.579 43.9902 321.883 43.9902H272.218C269.531 43.9902 268.104 45.4002 268.104 48.0692ZM285.528 31.9309C287.886 31.9309 289.128 30.6983 289.128 28.3573C289.128 26.0164 287.886 24.7839 285.528 24.7839H275.206C272.848 24.7839 271.606 26.0164 271.606 28.3573C271.606 30.6983 272.848 31.9309 275.206 31.9309H285.528ZM413.526 8.79626H408.285C408.401 8.65439 408.534 8.50367 408.667 8.32633C410.148 6.44648 410.662 4.92131 410.227 3.66216C409.819 2.47396 408.551 1.61383 406.45 1.1084C403.4 0.443361 401.085 1.48967 399.578 4.1853C398.877 5.31144 397.84 6.86321 396.483 8.79626H387.855V5.3469C387.855 1.84435 385.993 0 382.464 0C378.935 0 377.073 1.85322 377.073 5.3469V8.79626H369.35C369.394 8.34404 369.146 7.75883 368.569 6.94305C367.647 5.6839 366.414 4.39812 364.898 3.13897C362.885 1.56948 361.334 0.95767 360.163 1.28576L357.937 1.87985C356.776 2.19907 356.031 2.77543 355.721 3.59121C355.41 4.42473 355.614 5.31145 356.324 6.19818C357.06 7.25337 357.636 8.13122 358.053 8.79626H352.679C350.915 8.79626 349.46 9.35489 348.361 10.4456C347.252 11.5451 346.694 12.9905 346.694 14.7373V20.7404C346.694 24.0213 348.467 25.7504 351.828 25.7504C355.189 25.7504 356.882 24.0213 356.882 20.7404V18.1157C356.882 17.0073 357.361 16.5285 358.487 16.5285H407.212C408.339 16.5285 408.817 17.0073 408.817 18.1157V20.4832C408.817 23.9237 410.68 25.7504 414.209 25.7504C417.738 25.7504 419.52 23.9326 419.52 20.4832V14.7284C419.52 12.9816 418.962 11.5363 417.853 10.4367C416.745 9.3372 415.291 8.78739 413.535 8.78739L413.526 8.79626ZM361.848 32.7377C360.739 31.6382 360.181 30.1929 360.181 28.446V24.7218C360.181 22.975 360.739 21.5296 361.848 20.43C362.956 19.3305 364.41 18.7808 366.166 18.7808H399.87C401.635 18.7808 403.089 19.3394 404.189 20.43C405.297 21.5296 405.856 22.975 405.856 24.7218V28.446C405.856 30.1929 405.297 31.6382 404.189 32.7377C403.08 33.8373 401.626 34.387 399.87 34.387H366.166C364.402 34.387 362.947 33.8284 361.848 32.7377ZM371.46 27.914H393.646C394.594 27.914 394.993 27.515 394.993 26.5839V26.3268C394.993 25.5642 394.674 25.2449 393.903 25.2449H371.717C370.768 25.2449 370.369 25.644 370.369 26.575V26.8322C370.369 27.5948 370.688 27.914 371.46 27.914ZM417.374 74.7063C417.241 75.7704 415.831 76.9586 412.958 78.4128C411.832 78.998 410.954 79.3438 410.281 79.468C409.394 79.5921 408.427 79.4414 407.39 79.0157C403.568 77.5083 399.347 75.9743 394.869 74.458C392.183 73.6688 390.746 72.6048 390.48 71.2037C390.258 70.0244 390.888 68.8185 392.351 67.6303H371.877L374.262 68.5524C375.672 69.0579 376.443 69.7052 376.629 70.5209C376.816 71.3722 376.301 72.1703 375.104 72.8974C370.52 75.2827 364.144 77.5438 356.128 79.6276C355.481 79.7783 354.852 79.8581 354.257 79.8581C352.502 79.8581 350.959 79.202 349.647 77.9073C347.971 76.2137 347.35 74.8127 347.749 73.6156C348.21 72.2146 350.028 71.3013 353.309 70.8047C358.292 69.9002 362.433 68.8273 365.643 67.6214H361.227C359.463 67.6214 358.008 67.0628 356.909 65.9721C355.8 64.8726 355.242 63.4361 355.242 61.6804V42.3055C355.242 40.5587 355.8 39.1133 356.909 38.0138C358.017 36.9142 359.471 36.3645 361.227 36.3645H405.342C407.106 36.3645 408.56 36.9231 409.66 38.0138C410.768 39.1133 411.327 40.5587 411.327 42.3055V61.6804C411.327 63.4272 410.768 64.8726 409.66 65.9721C408.551 67.0716 407.097 67.6214 405.342 67.6214H401.688C405.377 68.6766 409.287 69.8914 413.34 71.2392C416.284 72.2944 417.605 73.4205 417.392 74.6974L417.374 74.7063ZM400.456 44.744V43.4139C400.456 42.8641 400.261 42.6779 399.702 42.6779H367.275C366.148 42.6779 365.67 43.1567 365.67 44.2651V44.7528H400.447L400.456 44.744ZM400.456 52.9462V50.8712H365.678V52.9462H400.456ZM400.456 59.6498V59.0823H365.678V60.4123C365.678 61.0153 365.909 61.237 366.512 61.237H398.851C399.977 61.237 400.456 60.7582 400.456 59.6498Z" fill="url(#paint0_linear_14_1052)"/>
<path d="M11.1406 12.157C12.8106 12.157 14.1643 10.8032 14.1643 9.13322C14.1643 7.46327 12.8106 6.10953 11.1406 6.10953C9.47065 6.10953 8.11688 7.46327 8.11688 9.13322C8.11688 10.8032 9.47065 12.157 11.1406 12.157Z" fill="white"/>
<path d="M107.589 9.13322C109.259 9.13322 110.613 7.77948 110.613 6.10953C110.613 4.43957 109.259 3.08577 107.589 3.08577C105.919 3.08577 104.566 4.43957 104.566 6.10953C104.566 7.77948 105.919 9.13322 107.589 9.13322Z" fill="white"/>
<path d="M185.94 12.157C187.61 12.157 188.964 10.8032 188.964 9.13322C188.964 7.46327 187.61 6.10953 185.94 6.10953C184.27 6.10953 182.916 7.46327 182.916 9.13322C182.916 10.8032 184.27 12.157 185.94 12.157Z" fill="white"/>
<path d="M270.276 10.0998C271.946 10.0998 273.3 8.74598 273.3 7.07602C273.3 5.40607 271.946 4.05232 270.276 4.05232C268.606 4.05232 267.252 5.40607 267.252 7.07602C267.252 8.74598 268.606 10.0998 270.276 10.0998Z" fill="white"/>
<path d="M351.934 16.5994C353.604 16.5994 354.958 15.2457 354.958 13.5757C354.958 11.9058 353.604 10.552 351.934 10.552C350.264 10.552 348.911 11.9058 348.911 13.5757C348.911 15.2457 350.264 16.5994 351.934 16.5994Z" fill="white"/>
<defs>
<linearGradient id="paint0_linear_14_1052" x1="209.748" y1="80" x2="209.748" y2="0.00886819" gradientUnits="userSpaceOnUse">
<stop stop-color="#018139"/>
<stop offset="1" stop-color="#0F6632"/>
</linearGradient>
</defs>
</svg>
