<svg width="100" height="100" viewBox="0 0 100 100" fill="none" xmlns="http://www.w3.org/2000/svg">
<circle cx="50" cy="50" r="48" stroke="#0E8347" stroke-width="3" stroke-linecap="round" stroke-dasharray="1 8"/>
<mask id="mask0_147_417" style="mask-type:alpha" maskUnits="userSpaceOnUse" x="20" y="20" width="60" height="60">
<rect x="20" y="20" width="60" height="60" fill="#D9D9D9"/>
</mask>
<g mask="url(#mask0_147_417)">
<path d="M65.6615 63.0572L56.7727 54.1538C56.5777 53.9588 56.3177 53.845 56.0415 53.8288L51.7677 53.585C51.1015 53.5363 50.549 54.0888 50.5977 54.755L50.8415 59.0288C50.8577 59.305 50.9715 59.565 51.1665 59.76L60.0715 68.665L65.6615 63.0572Z" fill="#0E8347"/>
<path d="M68.1802 65.5775L67.3839 64.7812L61.7939 70.3875L62.5902 71.1838C63.3702 71.9638 64.3777 72.3375 65.3852 72.3375C66.3927 72.3375 67.4002 71.9638 68.1802 71.1838C69.7402 69.6238 69.7402 67.1213 68.1802 65.5775Z" fill="#0E8347"/>
<path d="M61.55 27H36.7688C33.5838 27 31 29.5837 31 32.7687V64.5537C31 67.7388 33.5838 70.3225 36.7688 70.3225H58.2821L49.4421 61.4841C48.8246 60.8634 48.4574 60.0428 48.407 59.1685L48.1632 54.8948C48.095 53.9571 48.4363 52.987 49.1009 52.272C49.7671 51.557 50.708 51.1459 51.6846 51.1459L56.1794 51.3961C57.0536 51.4465 57.8742 51.8121 58.4917 52.4264L67.3171 61.268V32.7687C67.3187 29.5837 64.735 27 61.55 27ZM45.625 63.0262H38.2475C37.4399 63.0262 36.785 62.3714 36.785 61.5638C36.785 60.7561 37.4399 60.1012 38.2475 60.1012H45.625C46.4326 60.1012 47.0875 60.7561 47.0875 61.5638C47.0875 62.3714 46.4326 63.0262 45.625 63.0262ZM36.785 52.9025C36.785 52.0949 37.4399 51.44 38.2475 51.44H45.04C45.8476 51.44 46.5025 52.0949 46.5025 52.9025C46.5025 53.7101 45.8476 54.365 45.04 54.365H38.2475C37.4399 54.365 36.785 53.7101 36.785 52.9025ZM59.912 45.707H38.254C37.4464 45.707 36.7915 45.0521 36.7915 44.2445C36.7915 43.4369 37.4464 42.782 38.254 42.782H59.912C60.7196 42.782 61.3745 43.4369 61.3745 44.2445C61.3745 45.0521 60.7196 45.707 59.912 45.707ZM59.912 37.0441H38.254C37.4464 37.0441 36.7915 36.3892 36.7915 35.5816C36.7915 34.774 37.4464 34.1191 38.254 34.1191H59.912C60.7196 34.1191 61.3745 34.774 61.3745 35.5816C61.3745 36.3892 60.7196 37.0441 59.912 37.0441Z" fill="#F5F3B2"/>
</g>
</svg>
