<svg width="193" height="205" viewBox="0 0 193 205" fill="none" xmlns="http://www.w3.org/2000/svg">
<path d="M63.4395 130.422L65.5956 130.418L79.9295 115.977C81.1174 114.784 83.0487 114.782 84.2468 115.962C85.4397 117.15 85.4497 119.086 84.2618 120.279L74.2006 130.417L75.1525 130.42L86.9154 130.413C88.1863 130.414 89.2157 129.382 89.2161 128.111L89.204 114.367C89.2044 113.096 88.1721 112.066 86.9012 112.066L63.4285 112.088C62.1576 112.087 61.1282 113.12 61.1277 114.391L61.1399 128.135C61.1395 129.406 62.1718 130.435 63.4427 130.435L63.4395 130.422Z" fill="#6CA9DD"/>
<path d="M49.793 106.011L49.8229 137.869C49.8271 139.284 50.9828 140.437 52.4063 140.438L97.9863 140.394C99.4099 140.395 100.563 139.24 100.559 137.824L100.529 105.966C100.53 104.543 99.3742 103.39 97.9506 103.389L52.3791 103.438C50.9556 103.437 49.8025 104.593 49.8067 106.008L49.793 106.011ZM61.1248 114.377C61.1253 113.106 62.1547 112.073 63.4256 112.074L86.8983 112.052C88.1692 112.052 89.2015 113.082 89.2011 114.353L89.2133 128.097C89.2128 129.368 88.1834 130.4 86.9125 130.399L75.1496 130.406L74.1978 130.403L84.2589 120.265C85.4468 119.072 85.4453 117.141 84.2439 115.948C83.0511 114.76 81.1145 114.77 79.9266 115.963L65.5927 130.404L63.4366 130.408C62.1657 130.407 61.1334 129.378 61.1338 128.107L61.1216 114.363L61.1248 114.377ZM94.1385 108.637C95.0819 108.635 95.8474 109.392 95.8587 110.341C95.8615 111.284 95.0985 112.058 94.1551 112.061C93.2117 112.064 92.4377 111.301 92.4402 110.349C92.4374 109.406 93.1951 108.64 94.1438 108.629L94.1385 108.637ZM94.1546 113.332C95.098 113.329 95.8719 114.092 95.8747 115.036C95.8775 115.979 95.1145 116.753 94.1711 116.756C93.2277 116.759 92.4538 115.996 92.451 115.052C92.4482 114.109 93.2112 113.335 94.1546 113.332Z" fill="#B9DBF6"/>
<path d="M40.0137 105.154L36.5281 136.077C36.4588 136.682 36.8982 137.225 37.4974 137.303L43.8362 138.013C44.4406 138.083 44.9841 137.643 45.0533 137.039L48.539 106.116C48.6082 105.511 48.1688 104.968 47.5644 104.898L41.2341 104.193C40.6297 104.124 40.0777 104.558 40.017 105.168L40.0137 105.154Z" fill="#B9DBF6"/>
<path d="M30.4202 147.222C29.8512 152.271 33.4984 156.843 38.5478 157.412C39.9571 157.569 41.2366 156.551 41.3936 155.142C41.5558 153.724 40.5408 152.458 39.1231 152.296C36.8921 152.041 35.2812 150.028 35.5364 147.797C35.7916 145.566 37.804 143.955 40.035 144.211C42.266 144.466 43.8769 146.478 43.6217 148.709C43.4647 150.118 44.4745 151.393 45.8922 151.555C47.3014 151.712 48.5809 150.694 48.7379 149.284C49.3069 144.235 45.6597 139.663 40.6103 139.094C35.5608 138.525 30.9893 142.173 30.4202 147.222Z" fill="#4F83C2"/>
<path d="M108.766 103.277L102.502 104.437C101.903 104.548 101.508 105.127 101.619 105.726L107.281 136.325C107.392 136.924 107.97 137.318 108.569 137.207L114.833 136.047C115.432 135.936 115.827 135.357 115.716 134.759L110.055 104.16C109.944 103.561 109.373 103.172 108.775 103.283L108.766 103.277Z" fill="#B9DBF6"/>
<path d="M114.551 151.574C113.158 151.827 112.23 153.17 112.492 154.568C112.745 155.961 114.088 156.889 115.486 156.627C120.484 155.705 123.794 150.886 122.872 145.888C121.95 140.889 117.131 137.579 112.133 138.502C107.134 139.424 103.824 144.243 104.747 149.241C105 150.634 106.342 151.562 107.741 151.3C109.139 151.039 110.062 149.705 109.8 148.306C109.393 146.099 110.856 143.971 113.062 143.564C115.269 143.156 117.398 144.619 117.805 146.826C118.212 149.033 116.749 151.161 114.543 151.569L114.551 151.574Z" fill="#4F83C2"/>
<path d="M70.3513 159.537C70.9618 159.54 71.448 159.041 71.4504 158.431L71.4371 143.968C71.4395 143.357 70.9462 142.863 70.3304 142.869L61.2621 142.877C60.6515 142.874 60.1654 143.373 60.163 143.983L60.1762 158.446C60.1791 159.048 60.6724 159.543 61.283 159.545L70.3513 159.537Z" fill="#B9DBF6"/>
<path d="M80.5152 159.527L89.5835 159.519C90.1941 159.522 90.6887 159.029 90.6827 158.413L90.6694 143.95C90.6718 143.34 90.1732 142.853 89.5627 142.851L80.4944 142.859C79.8838 142.856 79.3977 143.355 79.3952 143.966L79.4 158.423C79.3976 159.033 79.8909 159.528 80.5067 159.522L80.5152 159.527Z" fill="#B9DBF6"/>
<path d="M55.8544 163.967L55.8619 169.339C55.8594 170.291 56.3536 171.068 56.9694 171.062L70.9381 171.048C71.554 171.042 72.0425 170.275 72.0449 169.323L72.0375 163.951C72.0399 162.999 71.5405 162.23 70.9299 162.227L56.9613 162.241C56.3507 162.239 55.8569 163.015 55.8682 163.964L55.8544 163.967Z" fill="#4F83C2"/>
<path d="M78.7681 169.318C78.7656 170.27 79.2597 171.048 79.8756 171.042L93.8443 171.028C94.4548 171.03 94.9486 170.254 94.9426 169.297L94.9436 163.93C94.9461 162.978 94.4466 162.209 93.8361 162.207L79.8674 162.221C79.2568 162.218 78.7631 162.995 78.7691 163.952L78.7766 169.324L78.7681 169.318Z" fill="#4F83C2"/>
<path d="M64.4697 59.566L63.4817 59.5647C62.8712 59.5623 62.3765 60.0556 62.3826 60.6715L62.3792 66.3075L56.4326 66.3114L56.0107 66.3084C54.4122 66.3047 53.1197 67.6091 53.116 69.2076L53.1396 98.2134C53.1359 99.8119 54.4403 101.104 56.0303 101.103L94.8644 101.061C96.4629 101.064 97.7554 99.76 97.7539 98.17L97.7303 69.1642C97.734 67.5657 96.4296 66.2731 94.8396 66.2747L93.6269 66.2751L88.4711 66.2756L88.4607 60.6428C88.4631 60.0322 87.9645 59.5461 87.354 59.5436L86.3745 59.5476C85.764 59.5452 85.2694 60.0385 85.2754 60.6543L85.2858 66.2872L65.5592 66.3044L65.5488 60.6716C65.5513 60.061 65.058 59.5664 64.4474 59.564L64.4697 59.566ZM61.3459 76.7304C63.4129 76.7189 65.0906 78.3962 65.102 80.4632C65.1134 82.5301 63.4362 84.2078 61.3692 84.2192C59.3023 84.2307 57.6246 82.5534 57.6131 80.4865C57.6017 78.4195 59.2705 76.7366 61.3459 76.7304ZM89.37 76.6387C91.437 76.6272 93.1199 78.296 93.1261 80.3715C93.1375 82.4384 91.4603 84.1161 89.3933 84.1275C87.3263 84.139 85.6434 82.4702 85.6372 80.3948C85.6258 78.3278 87.303 76.6501 89.37 76.6387ZM96.5849 89.6638L96.5891 90.7375L54.6559 90.8801L54.6516 89.8063L96.5849 89.6638Z" fill="#B9DBF6"/>
<path d="M45.2096 76.917C44.5991 76.9146 44.1044 77.4079 44.102 78.0185L44.1104 89.4177C44.108 90.0283 44.6151 90.5197 45.2172 90.5168L49.507 90.5083L49.4634 76.9097L45.2149 76.9085L45.2096 76.917Z" fill="#4F83C2"/>
<path d="M50.7206 76.9133L49.4581 76.9181L49.5017 90.5168L50.7281 90.5131C51.3387 90.5156 51.8248 90.017 51.8272 89.4064L51.8188 78.0072C51.8212 77.3966 51.3279 76.902 50.7121 76.9081L50.7206 76.9133Z" fill="#6CA9DD"/>
<path d="M105.991 76.73L101.702 76.7385L101.745 90.3372L105.999 90.3298C106.61 90.3323 107.109 89.8305 107.098 89.2231L107.084 77.8324C107.087 77.2218 106.593 76.7272 105.978 76.7333L105.991 76.73Z" fill="#4F83C2"/>
<path d="M100.481 76.7338C99.8703 76.7313 99.3757 77.2247 99.3818 77.8405L99.3902 89.2397C99.3931 89.8418 99.8864 90.3364 100.497 90.3389L101.754 90.3425L101.711 76.7439L100.484 76.7475L100.481 76.7338Z" fill="#6CA9DD"/>
<path d="M61.3771 84.2246C63.444 84.2131 65.1128 82.5302 65.1098 80.4685C65.0984 78.4015 63.4207 76.7243 61.3538 76.7357C59.2868 76.7472 57.6096 78.4248 57.621 80.4918C57.6324 82.5588 59.3101 84.236 61.3771 84.2246Z" fill="#182138"/>
<path d="M89.4066 84.1242C91.4736 84.1127 93.1508 82.4351 93.1394 80.3681C93.1279 78.3011 91.4503 76.6239 89.3833 76.6353C87.3163 76.6468 85.6391 78.3244 85.6505 80.3914C85.662 82.4584 87.3449 84.1271 89.4066 84.1242Z" fill="#182138"/>
<path d="M54.6638 90.8765L96.5935 90.734L96.5899 89.664L54.6601 89.8066L54.6638 90.8765Z" fill="#6CA9DD"/>
<path d="M94.1541 112.061C95.0975 112.058 95.8605 111.284 95.8577 110.341C95.8549 109.398 95.081 108.635 94.1376 108.637C93.1942 108.64 92.4227 109.409 92.434 110.358C92.4368 111.301 93.2055 112.072 94.1489 112.07L94.1541 112.061Z" fill="#FC6158"/>
<path d="M94.1706 116.756C95.114 116.753 95.877 115.979 95.8742 115.036C95.8714 114.093 95.0975 113.33 94.1541 113.332C93.2107 113.335 92.4392 114.104 92.4505 115.053C92.4533 115.996 93.2272 116.759 94.1706 116.756Z" fill="#4F83C2"/>
<path d="M176.425 67.6052L177.523 44.5279C177.731 40.4143 174.54 36.9005 170.44 36.6885L148.415 35.5794L126.391 34.4703C122.286 34.2669 118.769 37.4445 118.561 41.5581L117.463 64.6353C117.26 68.7402 120.446 72.2627 124.551 72.466L133.448 72.9179L130.482 80.4909L128.872 84.6022C128.754 84.8915 128.705 85.1397 128.708 85.3369C128.717 85.9285 129.215 86.0847 130.035 85.6533L146.407 77.0102L151.621 74.2671C151.865 74.1411 152.034 74.0067 152.157 73.8699L168.603 74.6979C172.708 74.9013 176.23 71.715 176.434 67.6101L176.425 67.6052Z" fill="#4F83C2"/>
<path d="M125.214 47.0953L127.507 47.1895L127.335 51.2781L130.481 51.4084L130.652 47.3197L132.923 47.4127L132.481 58.1554L130.211 58.0624L130.394 53.6475L127.249 53.5172L127.065 57.9321L124.772 57.838L125.214 47.0953Z" fill="white"/>
<path d="M135.014 47.4962L141.069 47.7488L140.983 49.8849L137.221 49.7265L137.138 51.715L140.329 51.8477L140.237 54.0148L137.037 53.8772L136.939 56.156L140.841 56.3128L140.749 58.4799L134.546 58.2241L134.988 47.4814L135.014 47.4962Z" fill="white"/>
<path d="M142.968 47.8268L145.269 47.9259L144.919 56.5014L148.628 56.6525L148.536 58.8197L142.526 58.5695L142.968 47.8268Z" fill="white"/>
<path d="M150.506 48.1396L152.808 48.2387L152.458 56.8142L156.167 56.9653L156.075 59.1324L150.065 58.8822L150.506 48.1396Z" fill="white"/>
<path d="M156.827 53.7175C156.972 50.2007 158.825 48.2743 161.43 48.385C164.035 48.4957 165.721 50.5686 165.581 54.0767C165.43 57.6022 163.577 59.6316 160.967 59.5296C158.362 59.4189 156.676 57.243 156.827 53.7175ZM163.244 53.9802C163.331 51.9023 162.596 50.6454 161.34 50.5881C160.08 50.5395 159.265 51.7324 159.177 53.8103C159.094 55.9017 159.811 57.2517 161.071 57.3004C162.331 57.349 163.16 56.0716 163.257 53.9764L163.244 53.9802Z" fill="white"/>
<path d="M167.647 58.1939C167.686 57.2958 168.353 56.6279 169.228 56.6652C170.104 56.7025 170.72 57.4202 170.682 58.3183C170.642 59.2388 169.977 59.8844 169.101 59.8471C168.225 59.8098 167.617 59.1193 167.647 58.1939ZM168.128 51.2107L168.148 48.8068L170.959 48.9194L170.783 51.315L170.068 55.8542L168.464 55.7829L168.124 51.1971L168.128 51.2107Z" fill="white"/>
</svg>
