<svg width="249" height="158" viewBox="0 0 249 158" fill="none" xmlns="http://www.w3.org/2000/svg">
<g opacity="0.46">
<path d="M227.814 0.122993L20.2299 1.39217C9.05644 1.46049 0.0536227 10.5416 0.121577 21.6753L0.828435 137.489C0.896389 148.623 10.0094 157.593 21.1829 157.525L228.767 156.256C239.941 156.187 248.943 147.106 248.875 135.972L248.169 20.1587C248.101 9.02498 238.988 0.0546779 227.814 0.122993Z" fill="#A7CEED"/>
<path d="M142.929 19.0481L139.728 19.0676L140.461 138.614L143.662 138.594L142.929 19.0481Z" fill="white"/>
<path d="M120.541 29.4937L22.3237 30.0916L22.627 79.5679L120.844 78.97L120.541 29.4937Z" fill="white"/>
<path d="M57.4882 71.1116C57.0309 71.1116 56.5735 70.9814 56.1815 70.6776L37.2346 56.442C36.6684 56.0297 36.3635 55.357 36.3635 54.6626C36.3635 53.9682 36.7338 53.3172 37.3218 52.9265L56.0944 40.1883C57.0744 39.5156 58.4247 39.776 59.0998 40.7525C59.7749 41.7291 59.5136 43.0745 58.5336 43.7472L42.2654 54.7928L58.7949 67.2272C59.7531 67.9433 59.9491 69.2888 59.2305 70.2436C58.8167 70.8078 58.1633 71.0899 57.51 71.1116H57.4882Z" fill="#B8C46D"/>
<path d="M88.1952 70.9379C87.4983 70.9379 86.8014 70.6124 86.3876 69.9831C85.7125 69.0066 85.9738 67.6612 86.9539 66.9884L103.222 55.9429L86.6925 43.5085C85.7343 42.7923 85.5383 41.4469 86.257 40.4921C86.9756 39.5373 88.3477 39.3637 89.2841 40.0798L108.231 54.3153C108.797 54.7276 109.102 55.4004 109.102 56.0948C109.102 56.7892 108.732 57.4402 108.144 57.8308L89.3712 70.569C89.001 70.8294 88.5872 70.9379 88.1734 70.9379H88.1952Z" fill="#B8C46D"/>
<path d="M67.31 75.3C67.114 75.3 66.8962 75.2783 66.7002 75.2132C65.546 74.8877 64.8926 73.6942 65.2193 72.544L75.651 36.4126C75.9776 35.2625 77.1754 34.6115 78.3297 34.937C79.4839 35.2625 80.1372 36.456 79.8106 37.6062L69.3789 73.7376C69.1176 74.6707 68.2464 75.3 67.31 75.3Z" fill="#B8C46D"/>
<path d="M25.2566 135.671C15.6961 135.736 7.87776 128.032 7.81242 118.506C7.74709 108.979 15.4783 101.189 25.0388 101.124C34.5994 101.059 42.4177 108.762 42.4831 118.289C42.5484 127.815 34.8172 135.606 25.2566 135.671ZM25.0606 105.442C17.8956 105.486 12.1027 111.323 12.1463 118.484C12.1898 125.624 18.0481 131.396 25.2348 131.353C32.4216 131.309 38.1928 125.472 38.1492 118.311C38.1057 111.171 32.2474 105.399 25.0606 105.442Z" fill="white"/>
<path d="M25.2575 137.124C14.9129 137.189 6.41947 128.835 6.35414 118.527C6.2888 108.219 14.6733 99.756 25.0179 99.6909C27.0215 99.6909 28.6331 101.275 28.6548 103.272C28.6766 105.268 27.065 106.874 25.0615 106.895C18.6805 106.939 13.5409 112.125 13.5844 118.484C13.628 124.842 18.8329 129.963 25.2139 129.92C31.5949 129.876 36.7345 124.69 36.6909 118.332C36.6909 116.335 36.1465 114.36 35.1447 112.646C34.1429 110.932 34.7309 108.718 36.4514 107.72C38.1718 106.722 40.3932 107.308 41.395 109.022C43.0283 111.822 43.8995 115.033 43.9212 118.267C43.9866 128.574 35.602 137.038 25.2575 137.103V137.124Z" fill="#4F83C2"/>
<path d="M69.7495 135.41C60.189 135.475 52.3707 127.772 52.3053 118.245C52.24 108.719 59.9712 100.928 69.5318 100.863C79.0923 100.798 86.9106 108.502 86.976 118.028C87.0413 127.555 79.3101 135.345 69.7495 135.41ZM69.5535 105.181C62.3886 105.225 56.5956 111.062 56.6392 118.223C56.6827 125.363 62.541 131.135 69.7278 131.092C76.8927 131.048 82.6857 125.211 82.6421 118.05C82.5986 110.889 76.7403 105.138 69.5535 105.181Z" fill="white"/>
<path d="M69.7714 136.842C59.4268 136.907 50.9334 128.553 50.8681 118.245C50.8027 107.937 59.1873 99.474 69.5318 99.4089C72.951 99.4089 76.3048 100.299 79.223 102.013C80.9435 103.033 81.5097 105.246 80.4862 106.939C79.4626 108.653 77.2412 109.218 75.5426 108.198C73.7568 107.134 71.6878 106.57 69.5754 106.592C63.1944 106.635 58.0548 111.822 58.0984 118.18C58.1419 124.538 63.3469 129.659 69.7278 129.616C74.6932 129.594 79.0706 126.426 80.6386 121.739C81.2702 119.851 83.3173 118.831 85.212 119.46C87.1067 120.09 88.1303 122.129 87.4987 124.017C84.9507 131.634 77.851 136.777 69.7932 136.821L69.7714 136.842Z" fill="#4F83C2"/>
<path d="M114.242 135.128C104.682 135.193 96.8634 127.49 96.798 117.963C96.7327 108.437 104.464 100.646 114.024 100.581C123.585 100.516 131.403 108.22 131.469 117.746C131.534 127.273 123.803 135.063 114.242 135.128ZM114.046 104.9C106.881 104.943 101.088 110.78 101.132 117.942C101.175 125.081 107.034 130.853 114.22 130.81C121.385 130.767 127.178 124.929 127.135 117.768C127.091 110.628 121.233 104.856 114.046 104.9Z" fill="white"/>
<path d="M114.264 136.582C103.919 136.647 95.4258 128.293 95.3605 117.985C95.3169 111.214 98.9539 104.943 104.856 101.601C106.598 100.625 108.798 101.232 109.778 102.946C110.758 104.683 110.17 106.874 108.427 107.851C104.79 109.912 102.547 113.775 102.569 117.942C102.613 124.3 107.818 129.421 114.198 129.378C120.579 129.334 125.719 124.148 125.676 117.79C125.676 117.03 125.588 116.292 125.436 115.555C125.044 113.601 126.307 111.714 128.267 111.323C130.227 110.932 132.122 112.191 132.514 114.144C132.753 115.316 132.884 116.531 132.884 117.746C132.949 128.054 124.565 136.517 114.22 136.582H114.264Z" fill="#4F83C2"/>
<path d="M176.493 41.3723C177.352 35.405 173.195 29.8732 167.206 29.0165C161.218 28.1598 155.666 32.3027 154.806 38.2699C153.946 44.2371 158.104 49.769 164.093 50.6257C170.081 51.4824 175.633 47.3395 176.493 41.3723Z" fill="white"/>
<path d="M209.314 42.6085C210.971 36.8105 207.597 30.7722 201.778 29.1217C195.959 27.4712 189.899 30.8334 188.243 36.6315C186.586 42.4295 189.961 48.4678 195.779 50.1183C201.598 51.7688 207.658 48.4066 209.314 42.6085Z" fill="#A2BDDA"/>
<path d="M239.631 47.1229C243.909 42.8602 243.909 35.9489 239.631 31.6862C235.353 27.4235 228.417 27.4235 224.139 31.6862C219.861 35.9489 219.861 42.8602 224.139 47.1229C228.417 51.3856 235.353 51.3856 239.631 47.1229Z" fill="white"/>
<path d="M175.597 54.7651L155.823 54.8855L155.838 57.3159L175.612 57.1955L175.597 54.7651Z" fill="#F0F4FF"/>
<path d="M178.068 60.0454L153.437 60.1953L153.452 62.6257L178.083 62.4758L178.068 60.0454Z" fill="#F0F4FF"/>
<path d="M208.74 54.564L188.966 54.6843L188.981 57.1147L208.755 56.9944L208.74 54.564Z" fill="#F0F4FF"/>
<path d="M211.212 59.8435L186.582 59.9934L186.596 62.4238L211.227 62.2739L211.212 59.8435Z" fill="#F0F4FF"/>
<path d="M241.885 54.3403L222.111 54.4607L222.126 56.8911L241.9 56.7707L241.885 54.3403Z" fill="#F0F4FF"/>
<path d="M244.335 59.6415L219.705 59.7914L219.719 62.2218L244.35 62.0719L244.335 59.6415Z" fill="#F0F4FF"/>
<path d="M239.434 73.45L153.521 73.9729L153.899 135.645L239.812 135.122L239.434 73.45Z" fill="white"/>
<path d="M233.702 80.0179L172.028 80.3933L172.045 83.1275L233.719 82.7521L233.702 80.0179Z" fill="#A7CEED"/>
<path d="M233.768 90.6269L161.684 91.0676L161.7 93.8019L233.784 93.3611L233.768 90.6269Z" fill="#A7CEED"/>
<path d="M233.833 101.24L161.749 101.678L161.766 104.413L233.849 103.974L233.833 101.24Z" fill="#A7CEED"/>
<path d="M233.898 111.829L161.814 112.268L161.831 115.002L233.915 114.564L233.898 111.829Z" fill="#A7CEED"/>
<path d="M226.427 122.269L161.878 122.662L161.896 125.613L226.445 125.221L226.427 122.269Z" fill="#A7CEED"/>
</g>
</svg>
