<svg width="37" height="38" viewBox="0 0 37 38" fill="none" xmlns="http://www.w3.org/2000/svg">
<path d="M13.3008 20.9475C13.3008 20.4796 12.9213 20.1006 12.453 20.1006H9.49474C9.02703 20.1006 8.64746 20.4796 8.64746 20.9475V23.9054C8.64746 24.3739 9.02703 24.7531 9.49474 24.7531H12.453C12.9213 24.7531 13.3008 24.3739 13.3008 23.9054V20.9475Z" fill="white"/>
<path d="M20.6932 20.9472C20.6932 20.4794 20.3136 20.1003 19.8463 20.1003H16.8876C16.4199 20.1003 16.0403 20.4794 16.0403 20.9472V23.9052C16.0403 24.3736 16.4199 24.7528 16.8876 24.7528H19.8463C20.3136 24.7528 20.6932 24.3736 20.6932 23.9052V20.9472Z" fill="white"/>
<path d="M28.0881 20.9472C28.0881 20.4794 27.7086 20.1003 27.2409 20.1003H24.2826C23.8143 20.1003 23.4348 20.4794 23.4348 20.9472V23.9052C23.4348 24.3736 23.8143 24.7528 24.2826 24.7528H27.2409C27.7086 24.7528 28.0881 24.3736 28.0881 23.9052V20.9472Z" fill="white"/>
<path d="M13.3008 28.3413C13.3008 27.8726 12.9213 27.4939 12.453 27.4939H9.49474C9.02703 27.4939 8.64746 27.8726 8.64746 28.3413V31.2986C8.64746 31.7668 9.02703 32.1459 9.49474 32.1459H12.453C12.9213 32.1459 13.3008 31.7667 13.3008 31.2986V28.3413Z" fill="white"/>
<path d="M20.6932 28.3413C20.6932 27.8726 20.3136 27.4939 19.8463 27.4939H16.8876C16.4199 27.4939 16.0403 27.8726 16.0403 28.3413V31.2986C16.0403 31.7668 16.4199 32.1459 16.8876 32.1459H19.8463C20.3136 32.1459 20.6932 31.7667 20.6932 31.2986V28.3413Z" fill="white"/>
<path d="M28.0881 28.3413C28.0881 27.8726 27.7086 27.4939 27.2412 27.4939H24.2826C23.8143 27.4939 23.4348 27.8726 23.4348 28.3413V31.2986C23.4348 31.7668 23.8143 32.1459 24.2826 32.1459H27.2412C27.7086 32.1459 28.0881 31.7667 28.0881 31.2986V28.3413Z" fill="white"/>
<path d="M33.378 4.5006V9.01858C33.378 11.0607 31.7214 12.7063 29.6796 12.7063H27.3466C25.3046 12.7063 23.626 11.0607 23.626 9.01858V4.48438H13.1104V9.01858C13.1104 11.0607 11.4319 12.7063 9.39023 12.7063H7.05672C5.01502 12.7063 3.35847 11.0607 3.35847 9.01858V4.5006C1.574 4.55438 0.107666 6.03097 0.107666 7.84589V34.3234C0.107666 36.1725 1.60637 37.6911 3.45541 37.6911H33.281C35.1273 37.6911 36.6287 36.1693 36.6287 34.3234V7.84589C36.6287 6.03097 35.1625 4.55438 33.378 4.5006ZM32.2944 32.6746C32.2944 33.4737 31.6465 34.122 30.8471 34.122H5.82557C5.02619 34.122 4.37829 33.4737 4.37829 32.6746V18.998C4.37829 18.1986 5.02611 17.5503 5.82557 17.5503H30.847C31.6464 17.5503 32.2943 18.1986 32.2943 18.998L32.2944 32.6746Z" fill="white"/>
<path d="M7.04868 10.2843H9.35641C10.0569 10.2843 10.6248 9.71718 10.6248 9.01672V1.61006C10.6248 0.909524 10.0569 0.342041 9.35641 0.342041H7.04868C6.34814 0.342041 5.78027 0.909524 5.78027 1.61006V9.01672C5.78027 9.71718 6.34814 10.2843 7.04868 10.2843Z" fill="white"/>
<path d="M27.3164 10.2843H29.6241C30.3242 10.2843 30.8921 9.71718 30.8921 9.01672V1.61006C30.8922 0.909524 30.3242 0.342041 29.6241 0.342041H27.3164C26.616 0.342041 26.0481 0.909524 26.0481 1.61006V9.01672C26.0481 9.71718 26.616 10.2843 27.3164 10.2843Z" fill="white"/>
</svg>
