<svg width="496" height="366" viewBox="0 0 496 366" fill="none" xmlns="http://www.w3.org/2000/svg">
<path fill-rule="evenodd" clip-rule="evenodd" d="M194.088 0.540073C209.555 0.773131 224.824 4.80221 239.016 14.2961C255.435 25.2777 268.811 40.3822 282.676 54.6465C317.684 90.6621 357.568 101.539 405.2 106.219C442.891 109.92 476.705 131.726 489.022 174.52C521.958 288.973 420.697 350.262 290.943 331.13C195.329 317.031 146.504 395.896 64.0382 352.326C-23.2181 306.224 -11.3048 173.292 41.4486 95.4148C61.1963 66.2608 87.6134 41.7676 117.608 24.2907C140.718 10.8246 167.688 0.147729 194.093 0.543432L194.088 0.540073Z" fill="#85BF57"/>
</svg>
