<svg width="334" height="661" viewBox="0 0 334 661" fill="none" xmlns="http://www.w3.org/2000/svg">
<g style="mix-blend-mode:multiply" opacity="0.72">
<path d="M513.829 323.445C514.004 312.428 513.029 301.331 512.212 290.379C511.859 285.695 511.321 281.037 510.574 276.396C508.768 265.239 505.96 254.274 502.379 243.549C496.859 227.032 491.322 210.753 483.604 195.131C478.658 185.128 473.1 175.439 467.084 166.036C451.389 141.5 434.537 118.106 415.418 96.1344C396.277 74.1372 376.067 52.9629 353.384 34.5475C348.978 30.9676 344.365 27.6273 339.508 24.6833C331.941 20.0923 323.846 16.3227 315.929 12.3987C313.413 11.1551 310.884 9.97417 308.265 8.9538C305.645 7.93343 302.968 7.0442 300.248 6.31887C291.635 4.0154 282.76 2.14663 273.948 0.854797C263.292 -0.710727 251.916 0.805648 241.42 1.70052C236.9 2.08824 232.448 2.87829 228.116 4.22547C218.117 7.32626 207.168 10.2326 197.961 15.6477C190.897 19.7992 183.93 24.4027 177.37 29.3214C175.654 30.6073 174.026 32.0108 172.516 33.5339C167.681 38.3839 162.881 43.5226 158.551 48.8934C151.013 55.5876 144.46 63.6635 138.315 71.2752C133.723 76.9694 129.794 83.1875 126.336 89.6219C119.275 102.743 112.752 116.132 106.739 129.757C82.7116 184.201 66.6365 241.848 54.8018 300.232C48.3146 315.708 42.3063 331.392 36.9215 347.383C22.7265 389.498 12.6042 432.92 4.99052 476.679C0.624329 501.79 -1.04925 526.441 3.057 551.906C4.24647 559.289 6.70387 566.087 9.12413 573.184C11.4468 579.972 13.4599 586.746 17.0319 592.986C21.837 601.381 27.1543 609.63 33.2894 617.125C39.5927 624.831 47.8157 631.52 55.3608 637.66C58.0265 639.828 60.8871 641.605 63.9106 643.219C69.9424 646.437 78.0863 651.093 85.3873 653.82C93.1541 656.716 103.569 658.208 110.495 659.478C113.899 660.101 117.163 660.34 120.627 660.243C130.076 659.958 141.295 659.989 150.826 657.093C159.144 654.565 169.474 651.623 177.671 647.21C186.38 642.531 194.604 636.832 202.466 630.844C208.469 626.268 213.825 620.914 218.939 615.384C225.184 608.622 231.24 601.704 237.312 594.795C250.244 580.984 264.513 568.525 279.898 557.52C295.469 547.943 311.898 539.851 328.987 533.34C336.433 531.092 343.963 529.129 351.58 527.505C366.741 524.277 381.544 520.021 395.866 513.903C399.825 512.211 403.674 510.265 407.388 508.087C416.303 502.858 424.987 497.08 433.269 490.9C445.208 481.988 454.943 470.472 464.609 459.261C470.483 452.449 475.663 445.079 480.127 437.261C487.646 424.085 494.804 410.271 499.991 395.952C505.306 381.284 508.235 365.788 511.085 350.508C512.752 341.585 513.68 332.523 513.821 323.444L513.829 323.445Z" fill="#E7F2CE"/>
</g>
</svg>
