<svg width="946" height="299" viewBox="0 0 946 299" fill="none" xmlns="http://www.w3.org/2000/svg">
<path d="M814.289 147.333C794.545 149.799 774.179 151.72 753.206 153.188C709.46 155.527 663.28 156.312 615.155 152.608C600.354 150.747 585.621 148.314 570.606 145.907C566.287 145.216 561.942 144.55 557.589 143.935C557.503 141.417 557.068 138.848 556.274 136.219C554.815 127.709 550.256 133.573 541.746 126.01C541.746 126.01 545.109 122.365 543.718 120.931C547.414 102.647 575.506 100.624 575.506 100.624C575.506 100.624 578.322 92.8223 593.03 94.5039C601.882 95.5111 605.211 101.614 610.366 100.692C611.732 98.4731 613.516 95.9038 615.565 93.6588C615.582 93.6418 615.599 93.6162 615.624 93.5991C619.824 87.2825 626.704 79.438 633.413 83.0828C636.324 84.662 638.543 84.6791 640.242 83.8682C641.07 81.5805 641.258 79.5234 641.258 79.5234C642.717 77.0053 644.296 74.8798 645.987 73.0958C664.842 42.5117 700.855 74.0604 700.855 74.0604C700.855 74.0604 777.448 111.883 809.432 118.584C828.501 122.578 839.632 132.992 846.034 142.979C835.654 144.567 825.053 146.001 814.306 147.341L814.289 147.333Z" fill="#598050"/>
<path d="M938.231 188.774C927.492 177.336 902.952 157.004 885.137 150.841C879.973 139.147 842.065 69.6389 803.961 105.08C804.08 105.14 792.753 84.1499 777.517 95.5624C777.653 95.6563 771.123 67.2744 752.916 83.5865C753.317 83.6207 722.469 49.9039 711.261 88.3325C711.346 88.3325 693.225 78.2601 681.283 91.542C681.582 91.542 654.002 61.3078 644.211 92.7114C644.109 92.8138 641.634 109.083 607.575 92.3785C572.826 75.964 580.312 110.278 580.388 110.15C580.525 110.099 554.909 98.0976 545.921 118.626C546.031 118.592 526.331 100.94 528.345 127.068C528.106 127.051 527.867 127.043 527.637 127.026C525.947 124.405 521.329 119.403 510.667 119.548C506.698 119.651 503.685 121.768 500.8 124.9C481.714 113.633 464.095 109.851 443.703 139.667C414.929 103.663 343.953 86.079 343.953 86.079C343.953 86.079 336.45 71.9606 320.291 73.2752C310.432 74.0775 309.843 84.6706 303.211 82.4513C300.36 78.2857 296.809 73.4459 293.113 69.1523C293.079 69.1182 293.044 69.0755 293.01 69.0414C284.491 57.1252 271.833 42.0508 265.636 47.7699C262.93 50.2709 260.198 49.9978 257.655 48.2991C255.376 44.0141 254.01 40.2327 254.01 40.2327C250.817 35.4355 247.693 31.3468 244.612 27.8556C204.16 -30.9055 174.566 21.5561 174.566 21.5561L187.814 84.7047C140.926 82.8781 89.1389 84.4913 45.3668 94.2649C1.6544 104.03 -1.49534 151.942 0.408162 175.476C1.79098 192.59 9.78058 211.531 34.7822 221.953C56.2415 230.899 165.919 261.355 147.781 279.69C87.2439 340.85 317.773 231.548 795.058 232.854C809.313 232.897 909.209 228.56 920.647 224.634C942.686 217.054 954.927 206.538 938.239 188.774H938.231Z" fill="#67925C"/>
<mask id="mask0_145_522" style="mask-type:luminance" maskUnits="userSpaceOnUse" x="0" y="0" width="946" height="299">
<path d="M938.231 188.774C927.492 177.336 902.952 157.004 885.137 150.841C879.973 139.147 842.065 69.6389 803.961 105.08C804.08 105.14 792.753 84.1499 777.517 95.5624C777.653 95.6563 771.123 67.2744 752.916 83.5865C753.317 83.6207 722.469 49.9039 711.261 88.3325C711.346 88.3325 693.225 78.2601 681.283 91.542C681.582 91.542 654.002 61.3078 644.211 92.7114C644.109 92.8138 641.634 109.083 607.575 92.3785C572.826 75.964 580.312 110.278 580.388 110.15C580.525 110.099 554.909 98.0976 545.921 118.626C546.031 118.592 526.331 100.94 528.345 127.068C528.106 127.051 527.867 127.043 527.637 127.026C525.947 124.405 521.329 119.403 510.667 119.548C506.698 119.651 503.685 121.768 500.8 124.9C481.714 113.633 464.095 109.851 443.703 139.667C414.929 103.663 343.953 86.079 343.953 86.079C343.953 86.079 336.45 71.9606 320.291 73.2752C310.432 74.0775 309.843 84.6706 303.211 82.4513C300.36 78.2857 296.809 73.4459 293.113 69.1523C293.079 69.1182 293.044 69.0755 293.01 69.0414C284.491 57.1252 271.833 42.0508 265.636 47.7699C262.93 50.2709 260.198 49.9978 257.655 48.2991C255.376 44.0141 254.01 40.2327 254.01 40.2327C250.817 35.4355 247.693 31.3468 244.612 27.8556C204.16 -30.9055 174.566 21.5561 174.566 21.5561L187.814 84.7047C140.926 82.8781 89.1389 84.4913 45.3668 94.2649C1.6544 104.03 -1.49534 151.942 0.408162 175.476C1.79098 192.59 9.78058 211.531 34.7822 221.953C56.2415 230.899 165.919 261.355 147.781 279.69C87.2439 340.85 317.773 231.548 795.058 232.854C809.313 232.897 909.209 228.56 920.647 224.634C942.686 217.054 954.927 206.538 938.239 188.774H938.231Z" fill="white"/>
</mask>
<g mask="url(#mask0_145_522)">
<path d="M567.499 234.655C565.288 231.164 562.949 227.749 560.661 224.301C559.799 223.003 558.946 221.68 558.374 220.229C557.46 217.89 557.264 215.167 555.625 213.264C554.217 211.616 551.818 210.695 551.221 208.612C552.561 208.151 554.02 208.569 555.344 209.064C562.616 211.787 568.924 217.062 572.774 223.806C575.975 229.405 577.452 235.986 576.922 242.414C576.666 245.53 574.874 247.134 573.013 243.925C571.152 240.715 569.402 237.694 567.473 234.646L567.499 234.655Z" fill="#61885A"/>
<path d="M563.786 238.223C562.352 235.79 560.278 233.81 558.656 231.497C557.188 229.397 556.104 227.041 555.48 224.557C554.909 222.304 554.482 219.623 552.425 218.548C550.726 222.201 550.931 226.52 552.254 230.327C553.577 234.134 555.924 237.489 558.459 240.613C559.928 242.431 561.498 244.207 563.419 245.53C564.998 246.622 567.67 247.971 569.59 247.391C566.517 245.12 565.647 241.381 563.786 238.232V238.223Z" fill="#61885A"/>
<path d="M737.876 194.314C740.086 190.823 742.425 187.409 744.713 183.96C745.575 182.663 746.429 181.34 747.001 179.889C747.914 177.55 748.11 174.827 749.749 172.923C751.158 171.276 753.556 170.354 754.154 168.271C752.814 167.81 751.354 168.229 750.031 168.724C742.758 171.447 736.45 176.722 732.6 183.465C729.4 189.065 727.923 195.646 728.452 202.074C728.708 205.189 730.501 206.794 732.361 203.584C734.222 200.375 735.972 197.353 737.901 194.306L737.876 194.314Z" fill="#61885A"/>
<path d="M741.597 197.891C743.031 195.458 745.106 193.478 746.727 191.165C748.196 189.065 749.28 186.709 749.903 184.225C750.475 181.972 750.902 179.291 752.959 178.216C754.657 181.869 754.452 186.188 753.129 189.995C751.806 193.794 749.459 197.157 746.924 200.281C745.456 202.099 743.885 203.875 741.964 205.198C740.385 206.29 737.714 207.639 735.793 207.059C738.866 204.788 739.737 201.049 741.597 197.9V197.891Z" fill="#61885A"/>
<path d="M738.439 241.8C739.83 239.598 741.307 237.446 742.75 235.27C743.287 234.45 743.834 233.622 744.192 232.709C744.773 231.232 744.892 229.517 745.925 228.313C746.813 227.28 748.324 226.691 748.699 225.377C747.854 225.086 746.932 225.351 746.096 225.658C741.512 227.374 737.534 230.703 735.101 234.954C733.078 238.488 732.157 242.636 732.489 246.691C732.652 248.654 733.778 249.67 734.956 247.647C736.134 245.624 737.235 243.72 738.447 241.8H738.439Z" fill="#61885A"/>
<path d="M743.389 237.276C744.294 235.739 745.6 234.493 746.625 233.033C747.546 231.71 748.229 230.225 748.63 228.654C748.989 227.237 749.262 225.547 750.56 224.865C751.627 227.169 751.499 229.892 750.671 232.291C749.834 234.689 748.357 236.806 746.753 238.778C745.822 239.922 744.841 241.04 743.62 241.877C742.621 242.559 740.94 243.422 739.728 243.055C741.665 241.62 742.212 239.265 743.389 237.276Z" fill="#61885A"/>
<path d="M709.195 178.472C709.878 175.954 710.663 173.47 711.397 170.969C711.671 170.03 711.944 169.074 712.021 168.092C712.14 166.513 711.747 164.84 712.388 163.38C712.934 162.126 714.206 161.127 714.18 159.761C713.292 159.736 712.481 160.256 711.782 160.803C707.906 163.79 705.081 168.143 704.005 172.915C703.109 176.884 703.442 181.127 704.953 184.899C705.687 186.735 707.061 187.366 707.59 185.087C708.12 182.808 708.615 180.666 709.212 178.472H709.195Z" fill="#61885A"/>
<path d="M709.494 186.718C709.904 184.985 710.791 183.406 711.338 181.716C711.833 180.179 712.046 178.557 711.969 176.944C711.893 175.484 711.654 173.786 712.703 172.753C714.402 174.639 715.085 177.285 714.991 179.821C714.897 182.356 714.103 184.814 713.156 187.17C712.601 188.536 711.986 189.893 711.073 191.054C710.322 192.001 708.965 193.316 707.701 193.316C709.135 191.378 708.965 188.963 709.502 186.718H709.494Z" fill="#61885A"/>
<path d="M700.591 230.088C701.453 227.63 702.417 225.206 703.331 222.765C703.672 221.843 704.014 220.912 704.159 219.939C704.389 218.369 704.125 216.67 704.867 215.27C705.499 214.058 706.839 213.153 706.916 211.787C706.028 211.694 705.183 212.154 704.441 212.65C700.36 215.347 697.228 219.478 695.802 224.164C694.624 228.057 694.65 232.308 695.879 236.192C696.476 238.069 697.8 238.804 698.491 236.567C699.182 234.331 699.831 232.231 700.582 230.088H700.591Z" fill="#61885A"/>
<path d="M706.455 224.805C706.993 223.106 707.992 221.595 708.657 219.948C709.263 218.454 709.596 216.849 709.63 215.236C709.665 213.768 709.545 212.061 710.663 211.113C712.217 213.119 712.703 215.799 712.43 218.326C712.157 220.852 711.184 223.243 710.066 225.522C709.417 226.845 708.709 228.159 707.71 229.243C706.89 230.14 705.439 231.343 704.185 231.258C705.755 229.431 705.764 227.007 706.464 224.813L706.455 224.805Z" fill="#61885A"/>
<path d="M844.207 210.43C845.599 208.228 847.075 206.077 848.518 203.9C849.056 203.081 849.602 202.253 849.961 201.34C850.541 199.863 850.66 198.147 851.693 196.944C852.581 195.911 854.092 195.322 854.467 194.007C853.622 193.717 852.701 193.982 851.864 194.289C847.28 196.005 843.302 199.334 840.87 203.585C838.847 207.118 837.925 211.267 838.258 215.321C838.42 217.285 839.547 218.3 840.725 216.277C841.903 214.254 843.004 212.351 844.216 210.43H844.207Z" fill="#61885A"/>
<path d="M846.555 212.684C847.46 211.147 848.766 209.901 849.79 208.442C850.712 207.119 851.395 205.633 851.796 204.063C852.154 202.646 852.427 200.956 853.725 200.273C854.792 202.577 854.664 205.3 853.836 207.699C853.008 210.098 851.523 212.214 849.918 214.186C848.987 215.33 848.006 216.448 846.785 217.285C845.787 217.968 844.105 218.83 842.893 218.463C844.83 217.029 845.377 214.673 846.555 212.684Z" fill="#61885A"/>
<path d="M612.731 239.811C608.659 246.255 605.245 253.178 603.358 260.562C608.992 255.995 613.806 250.515 618.595 245.06C619.79 243.703 620.994 242.329 621.941 240.792C625.424 235.15 625.407 228.031 627.131 221.783C621.429 226.444 616.657 233.588 612.731 239.811Z" fill="#61885A"/>
<path d="M607.413 242.226C606.081 243.874 604.69 245.487 603.529 247.263C601.062 251.018 599.671 255.423 597.076 259.093C595.864 253.758 598.083 248.202 601.216 243.72C604.348 239.239 608.386 235.449 611.527 230.968C613.943 227.519 616.572 221.911 621.002 220.81C621.617 223.413 616.811 228.927 615.291 231.258C612.833 235.031 610.255 238.727 607.421 242.226H607.413Z" fill="#61885A"/>
<path d="M710.296 276.788C706.225 283.233 702.81 290.156 700.924 297.539C706.558 292.972 711.372 287.492 716.16 282.038C717.355 280.681 718.559 279.306 719.506 277.77C722.989 272.128 722.972 265.009 724.696 258.76C718.994 263.421 714.223 270.566 710.296 276.788Z" fill="#61885A"/>
<path d="M704.978 279.196C703.647 280.843 702.255 282.456 701.094 284.232C698.627 287.988 697.236 292.392 694.641 296.063C693.429 290.728 695.648 285.171 698.781 280.689C701.914 276.208 705.951 272.418 709.093 267.937C711.508 264.488 714.137 258.88 718.567 257.779C719.182 260.383 714.376 265.897 712.857 268.227C710.399 272 707.821 275.696 704.987 279.196H704.978Z" fill="#61885A"/>
<path d="M659.687 285.734C655.615 292.179 652.201 299.101 650.314 306.485C655.948 301.918 660.762 296.438 665.551 290.984C666.746 289.627 667.949 288.252 668.897 286.716C672.38 281.074 672.362 273.955 674.087 267.706C668.385 272.367 663.613 279.511 659.687 285.734Z" fill="#61885A"/>
<path d="M654.369 288.15C653.037 289.797 651.646 291.41 650.485 293.186C648.018 296.942 646.627 301.346 644.032 305.017C642.82 299.682 645.039 294.125 648.172 289.644C651.304 285.162 655.342 281.372 658.483 276.891C660.899 273.442 663.528 267.834 667.958 266.733C668.573 269.337 663.767 274.851 662.247 277.181C659.789 280.954 657.211 284.65 654.377 288.15H654.369Z" fill="#61885A"/>
<path d="M855.261 292.239C851.19 298.683 847.775 305.606 845.889 312.989C851.523 308.423 856.337 302.943 861.126 297.488C862.321 296.131 863.524 294.757 864.472 293.22C867.954 287.578 867.937 280.459 869.661 274.211C863.959 278.871 859.188 286.016 855.261 292.239Z" fill="#61885A"/>
<path d="M849.943 294.645C848.611 296.293 847.22 297.906 846.059 299.682C843.592 303.437 842.201 307.842 839.606 311.512C838.394 306.177 840.613 300.62 843.746 296.139C846.879 291.658 850.916 287.868 854.057 283.386C856.473 279.938 859.102 274.33 863.532 273.229C864.147 275.832 859.341 281.346 857.822 283.677C855.363 287.45 852.786 291.146 849.952 294.645H849.943Z" fill="#61885A"/>
<path d="M892.879 290.138C888.808 296.583 885.393 303.506 883.507 310.889C889.141 306.322 893.955 300.842 898.743 295.388C899.938 294.031 901.142 292.657 902.089 291.12C905.572 285.478 905.555 278.359 907.279 272.111C901.577 276.771 896.806 283.916 892.879 290.138Z" fill="#61885A"/>
<path d="M887.561 292.546C886.23 294.193 884.838 295.806 883.677 297.582C881.211 301.338 879.819 305.742 877.224 309.413C876.012 304.078 878.232 298.521 881.364 294.04C884.497 289.558 888.534 285.768 891.676 281.287C894.091 277.838 896.72 272.23 901.15 271.129C901.765 273.733 896.959 279.247 895.44 281.577C892.982 285.35 890.404 289.046 887.57 292.546H887.561Z" fill="#61885A"/>
<path d="M557.879 109.177C553.807 115.622 550.393 122.544 548.507 129.928C554.14 125.361 558.955 119.881 563.743 114.427C564.938 113.07 566.142 111.695 567.089 110.159C570.572 104.517 570.555 97.3977 572.279 91.1494C566.577 95.81 561.806 102.955 557.879 109.177Z" fill="#61885A"/>
<path d="M567.14 122.613C565.681 124.149 564.161 125.643 562.856 127.316C560.09 130.859 558.349 135.135 555.463 138.584C554.687 133.172 557.358 127.811 560.841 123.595C564.324 119.378 568.66 115.929 572.151 111.73C574.84 108.495 577.913 103.117 582.42 102.383C582.821 105.029 577.58 110.133 575.881 112.336C573.124 115.895 570.248 119.369 567.14 122.63V122.613Z" fill="#61885A"/>
<path d="M690.075 203.525C688.086 210.883 686.857 218.505 687.241 226.119C691.278 220.093 694.266 213.435 697.228 206.82C697.971 205.164 698.713 203.508 699.166 201.749C700.83 195.339 698.713 188.527 698.517 182.057C694.437 188.186 691.996 196.423 690.075 203.533V203.525Z" fill="#61885A"/>
<path d="M685.704 207.4C684.919 209.372 684.065 211.318 683.476 213.358C682.23 217.677 682.196 222.295 680.796 226.563C678.065 221.826 678.551 215.859 680.216 210.652C681.889 205.445 684.629 200.631 686.31 195.433C687.608 191.43 688.461 185.292 692.371 182.936C693.728 185.241 690.757 191.925 689.998 194.605C688.76 198.933 687.386 203.226 685.713 207.409L685.704 207.4Z" fill="#61885A"/>
<path d="M527.688 157.576C528.209 160.137 528.653 162.792 528.081 165.335C527.714 166.974 526.945 168.502 526.117 169.962C523.121 175.211 519.178 179.923 514.534 183.79C513.715 184.473 512.853 185.138 511.871 185.557C510.377 186.188 508.627 186.205 507.125 185.582C509.233 176.654 511.666 167.794 514.415 159.036C515.789 154.657 517.24 150.303 518.768 145.976C519.186 144.798 520.074 140.197 521.107 139.625C522.729 138.72 523.386 141.964 523.779 143.116C525.383 147.854 526.689 152.685 527.697 157.576H527.688Z" fill="#61885A"/>
<path d="M514.739 143.082C508.141 155.117 507.432 169.586 501.577 182.005C499.861 185.642 497.659 189.312 497.804 193.333C494.492 189.329 495.124 183.482 495.943 178.352C497.744 166.999 499.639 155.373 505.23 145.327C506.297 143.415 507.612 141.46 509.635 140.615C511.76 139.727 514.261 140.231 516.386 139.369C516.071 140.487 515.302 142.066 514.748 143.09L514.739 143.082Z" fill="#61885A"/>
<path d="M506.476 195.697C507.646 194.101 509.003 192.65 510.36 191.207C516.387 184.78 522.413 178.352 528.448 171.925C532.161 167.964 536.13 163.841 541.328 162.271C544.196 161.408 547.739 161.579 549.651 163.892C550.957 165.472 551.196 167.691 550.957 169.722C550.359 174.759 547.261 179.103 544.128 183.098C542.634 185.01 541.098 186.905 539.288 188.527C534.448 192.872 528.055 194.937 522.012 197.319C514.756 200.17 508.175 204.711 501.022 207.536C499.972 205.155 505 197.737 506.485 195.706L506.476 195.697Z" fill="#61885A"/>
<path d="M494.653 208.347C495.054 207.323 495.447 206.282 495.549 205.189C495.686 203.721 495.285 202.27 495.097 200.81C494.858 198.966 494.943 197.097 494.824 195.236C494.448 189.509 492.118 184.114 490.94 178.497C490.223 175.066 489.668 171.088 486.723 169.185C484.717 167.887 482.071 167.964 479.826 168.758C473.612 170.952 470.155 177.874 469.737 184.447C469.319 191.019 471.282 197.481 472.699 203.917C474.602 212.555 475.541 221.399 475.516 230.233C475.516 232.393 474.5 239.939 477.607 240.57C480.082 241.074 482.993 233.392 484 231.505C488.004 224.002 491.563 216.26 494.662 208.339L494.653 208.347Z" fill="#61885A"/>
<path d="M465.392 229.883C464.948 225.778 464.487 220.963 460.962 218.821C458.094 217.08 454.125 218.061 451.786 220.477C449.447 222.893 448.542 226.384 448.517 229.747C448.491 233.102 449.242 236.413 449.797 239.717C451.88 252.137 451.171 265.017 447.74 277.13C444.189 289.643 437.804 301.244 434.552 313.843C433.715 317.095 433.084 320.398 432.461 323.702C437.096 315.191 442.243 306.971 447.381 298.76C453.135 289.567 458.888 280.365 464.641 271.172C466.929 267.51 471.41 262.678 472.076 258.351C472.614 254.86 470.019 250.301 469.054 247.007C467.415 241.398 466.024 235.705 465.392 229.892V229.883Z" fill="#61885A"/>
<path d="M486.826 250.506C482.225 252.939 478.93 257.318 476.66 262.004C474.389 266.691 473.015 271.744 471.265 276.635C469.396 281.859 467.091 286.929 464.377 291.769C459.187 301.039 452.554 309.413 445.956 317.735C455.474 301.44 470.838 289.405 486.817 279.383C502.805 269.362 519.817 260.912 534.909 249.593C536.223 248.611 537.546 247.57 538.4 246.179C540.602 242.602 538.946 237.626 535.72 234.937C532.493 232.248 528.148 231.352 523.974 230.925C521.115 230.626 518.076 230.532 515.541 231.898C513.705 232.88 512.34 234.527 510.846 235.978C503.001 243.558 491.341 245.871 482.942 252.82" fill="#61885A"/>
<path d="M496.173 238.01C500.902 234.928 506.032 232.504 510.752 229.406C513.142 227.835 515.439 226.094 518.016 224.83C520.475 223.627 523.138 222.901 525.665 221.86C533.133 218.796 539.407 212.914 542.941 205.659C543.846 203.806 544.589 201.801 544.512 199.743C544.435 197.686 543.377 195.561 541.507 194.699C538.844 193.487 535.822 195.125 533.364 196.705C531.213 198.096 529.053 199.479 526.902 200.87C523.488 203.072 520.048 205.292 517.026 208.006C514.722 210.072 512.664 212.428 510.206 214.314C507.253 216.585 503.804 218.121 500.347 219.53C499.161 220.016 497.948 220.503 496.992 221.356C496.224 222.048 495.678 222.952 495.149 223.849C491.154 230.643 485.819 239.597 484.795 247.485C488.329 243.976 491.99 240.733 496.173 238.001V238.01Z" fill="#61885A"/>
<path d="M520.492 195.8C527.5 192.181 535.455 189.586 540.491 183.517C542.463 181.135 543.88 178.335 545.835 175.945C547.679 173.7 550.145 171.447 550 168.545C549.924 166.991 549.078 165.6 548.199 164.319C546.808 162.296 545.075 160.248 542.677 159.684C539.578 158.95 536.514 160.931 534.158 163.065C530.675 166.214 527.713 169.945 525.434 174.05C523.821 176.97 522.549 180.068 520.833 182.928C518.622 186.607 515.729 189.816 512.852 192.992C511.819 194.135 510.761 195.296 509.395 196.013C508.2 196.645 506.834 196.901 505.605 197.481C502.72 198.847 501.03 201.792 500.219 204.771C499.493 207.426 499.707 210.627 503.198 208.604C506.032 206.965 508.473 203.653 511.153 201.647C514.098 199.445 517.223 197.481 520.492 195.791V195.8Z" fill="#61885A"/>
<path d="M453.673 211.583C449.2 203.294 446.895 194.545 446.895 185.787C446.895 182.125 447.348 178.335 450.028 175.083C453.459 177.977 456.951 181.135 457.207 184.746C457.394 187.401 455.79 189.953 454.612 192.505C452.384 197.345 451.658 202.449 452.486 207.46" fill="#61885A"/>
<path d="M439.597 191.993C439.964 188.783 440.801 185.266 437.933 182.603C437.779 182.458 437.6 182.313 437.361 182.219C436.362 181.852 435.304 182.629 434.808 183.295C432.965 185.744 431.112 188.194 429.269 190.636C428.509 191.643 427.724 192.701 427.724 193.819C427.715 195.313 429.064 196.662 430.378 197.908C433.05 200.443 436.405 205.3 440.502 206.82C440.895 201.946 439.025 196.961 439.597 191.993Z" fill="#628859"/>
<path d="M565.758 210.046C561.285 201.758 558.98 193.008 558.98 184.251C558.98 180.589 559.433 176.799 562.113 173.547C565.544 176.44 569.036 179.599 569.292 183.209C569.479 185.864 567.875 188.416 566.697 190.968C564.469 195.808 563.743 200.913 564.571 205.923" fill="#61885A"/>
<path d="M489.796 307.466C490.163 304.257 491 300.74 488.132 298.077C487.978 297.932 487.799 297.786 487.56 297.693C486.561 297.325 485.503 298.102 485.008 298.768C483.164 301.218 481.312 303.668 479.468 306.109C478.708 307.116 477.923 308.175 477.923 309.293C477.914 310.787 479.263 312.135 480.578 313.381C483.249 315.917 486.604 320.774 490.701 322.293C491.094 317.419 489.224 312.434 489.796 307.466Z" fill="#628859"/>
<path d="M657.946 100.727C657.468 105.891 657.826 111.09 658.185 116.262C656.418 113.599 654.992 110.714 653.951 107.692C653.225 105.584 652.679 103.356 652.875 101.137C653.046 99.165 653.797 97.2956 654.531 95.4604C655.137 93.9496 655.743 92.4473 656.349 90.9364C657.024 89.2548 660.805 83.1175 661.001 88.4866C661.061 90.1426 659.602 92.3534 659.158 93.9752C658.552 96.1774 658.168 98.448 657.954 100.727H657.946Z" fill="#61885A"/>
<path d="M664.928 105.874C664.578 107.957 664.134 110.159 664.902 112.122C668.632 106.232 669.819 98.8147 668.197 92.0372C667.975 91.0983 667.634 88.2473 666.294 88.5631C665.133 88.8448 665.884 92.7628 665.892 93.6676C665.927 97.7563 665.602 101.845 664.919 105.874H664.928Z" fill="#61885A"/>
<path d="M677.407 116.809C675.819 119.113 674.231 121.435 672.934 123.919C670.544 128.503 669.195 133.625 669.024 138.789C667.488 137.56 666.822 135.571 666.225 133.693C665.73 132.114 665.226 130.483 665.363 128.827C665.508 127.086 666.336 125.498 667.155 123.953C668.265 121.862 669.374 119.771 670.484 117.679C671.483 115.793 672.499 113.89 673.89 112.259C674.88 111.107 680.522 106.096 681.99 108.077C683.271 109.801 678.166 115.699 677.407 116.8V116.809Z" fill="#61885A"/>
<path d="M684.517 113.795C683.518 114.632 683.16 115.98 682.853 117.235C682.178 119.984 681.512 122.724 680.838 125.472C680.445 127.068 680.061 128.665 679.489 130.201C678.252 133.564 676.143 136.927 676.792 140.453C678.841 140.803 680.599 139.019 681.786 137.303C683.39 134.973 684.713 132.446 685.721 129.8C686.25 128.409 686.694 126.957 686.694 125.472C686.694 123.867 686.173 122.314 685.797 120.752C684.884 116.945 684.807 112.95 685.576 109.109" fill="#61885A"/>
<path d="M694.035 107.914C691.764 108.452 689.366 107.692 687.325 106.54C685.763 105.661 684.27 104.483 683.544 102.835C682.981 101.555 682.93 100.121 682.887 98.7209C682.819 96.4077 682.016 92.0458 683.757 90.1765C685.909 87.8547 687.522 90.6459 688.213 92.6604C688.734 94.1883 691.867 108.426 694.026 107.914H694.035Z" fill="#61885A"/>
<path d="M696.911 103.851C697.278 104.594 698.175 105.456 698.772 104.884C698.61 100.454 696.485 96.3308 695.844 91.9433C695.204 87.59 694.402 82.3575 689.784 80.2406C687.274 79.0968 686.489 80.3516 686.924 82.6819C687.505 85.7889 689.451 88.8704 690.859 91.6531C692.908 95.7076 694.905 99.7878 696.92 103.859L696.911 103.851Z" fill="#61885A"/>
<path d="M705.362 136.629C705.251 137.96 705.14 139.352 704.406 140.461C704.244 140.7 704.005 140.948 703.723 140.914C703.339 140.863 703.211 140.385 703.177 140C702.793 136.1 702.699 132.173 702.887 128.255C702.998 125.865 702.383 120.265 705.097 119.147C708.631 117.688 706.95 122.587 706.702 124.371C706.139 128.443 705.695 132.532 705.362 136.629Z" fill="#61885A"/>
<path d="M709.204 129.527C708.717 131.269 708.128 133.036 708.256 134.837C708.324 135.784 709.007 136.971 709.903 136.655C710.347 136.501 710.578 136.032 710.766 135.605C713.19 130.039 714.231 123.868 713.77 117.816C713.608 115.716 712.917 113.522 711.022 112.396C710.373 118.2 710.817 123.731 709.195 129.527H709.204Z" fill="#61885A"/>
<path d="M660.651 158.703C661.53 163.909 663.476 169.057 667.019 172.975C666.822 165.779 666.635 158.557 667.36 151.396C667.676 148.34 667.497 139.881 662.418 143.893C658.346 147.111 659.917 154.366 660.651 158.703Z" fill="#61885A"/>
<path d="M658.031 176.944C654.642 174.11 652.278 170.089 651.433 165.753C650.844 162.697 650.997 159.531 651.407 156.449C651.791 153.598 652.466 147.546 654.898 145.583C657.698 143.321 656.734 150.61 656.819 152.446C656.99 156.551 657.553 160.615 657.92 164.703C658.108 166.743 658.262 168.783 658.296 170.832C658.313 171.566 657.664 176.636 658.023 176.935L658.031 176.944Z" fill="#61885A"/>
<path d="M641.249 132.019C639.832 135.69 638.415 139.369 636.99 143.039C636.153 145.199 635.146 147.546 633.063 148.536C632.081 146.445 632.961 143.995 633.831 141.861C634.727 139.668 635.632 137.482 636.529 135.289C637.869 132.019 639.456 128.477 642.632 126.915C643.75 126.369 644.953 126.078 645.773 125.131C643.332 126.326 642.162 129.621 641.24 132.011L641.249 132.019Z" fill="#61885A"/>
<path d="M632.696 141.264C632.662 142.766 632.73 144.294 632.389 145.754C631.706 148.69 629.529 151.012 627.429 153.18C627.02 153.598 626.576 154.042 625.995 154.145C624.809 154.341 623.964 153.018 623.631 151.866C622.76 148.81 623.085 145.549 623.486 142.391C623.853 139.506 624.297 136.578 625.526 133.94C626.883 131.03 629.111 128.674 631.527 126.617C632.935 125.413 636.349 121.743 638.338 122.579C637.271 125.515 635.351 128.187 634.369 131.269C633.336 134.495 632.764 137.875 632.688 141.264H632.696Z" fill="#61885A"/>
<path d="M761.648 132.259C760.777 138.182 760.922 144.2 761.067 150.184C759.096 149.211 758.285 146.863 757.764 144.721C756.091 137.79 755.502 130.594 756.048 123.475C756.313 120.001 756.851 116.39 758.566 113.292C759.83 111.013 762.279 107.624 764.217 111.098C765.779 113.898 764.413 118.319 763.842 121.23C763.124 124.909 762.194 128.545 761.648 132.259Z" fill="#61885A"/>
<path d="M766.974 159.3C769.424 154.222 771.925 148.989 772.3 143.355C772.454 141.128 772.266 138.883 771.95 136.663C771.421 132.907 770.832 127.777 768.801 124.576C767.281 125.985 767.751 129.809 767.64 131.73C767.461 134.785 767.307 137.85 767.196 140.914C766.974 147.043 766.897 153.172 766.966 159.3H766.974Z" fill="#61885A"/>
<path d="M601.83 208.202C602.095 206.085 601.967 203.781 601.89 202.722C601.737 200.512 601.079 198.275 599.662 196.568C599.449 196.303 599.201 196.047 598.885 195.936C598.518 195.8 598.117 195.868 597.742 195.979C595.761 196.559 594.191 198.326 593.832 200.358C593.602 201.698 593.866 203.081 594.225 204.395C594.771 206.384 596.436 213.017 599.355 212.564C600.746 212.351 601.284 210.789 601.583 209.611C602.078 207.613 603.179 206.99 604.792 205.642C607.703 203.217 610.938 200.665 614.728 200.605C615.863 200.588 617.076 200.844 617.886 201.638C618.928 202.654 619.064 204.353 618.535 205.701C618.006 207.05 616.913 208.117 615.752 208.996C612.765 211.258 609.086 212.581 605.347 212.752C603.853 212.82 602.283 212.684 601.037 211.881C599.79 211.079 598.971 209.432 599.509 208.04C599.585 207.844 599.714 207.63 599.918 207.588C600.081 207.545 600.251 207.622 600.405 207.69C601.276 208.091 602.129 208.544 602.949 209.039" fill="#628859"/>
<path d="M603.657 222.739C604.306 222.636 604.98 222.594 605.612 222.782C606.927 223.183 607.703 224.489 608.352 225.692C609.018 226.921 609.709 228.279 609.479 229.661C609.206 231.275 607.78 232.401 606.432 233.323C604.665 234.527 602.838 235.662 600.977 236.712C599.509 237.54 597.981 238.325 596.325 238.573C593.218 239.025 590.188 237.54 587.397 236.089C582.292 233.443 589.198 229.977 591.665 228.373C595.284 226.034 599.33 223.396 603.649 222.73L603.657 222.739Z" fill="#628859"/>
<path d="M589.146 218.966C589.112 217.583 589.035 216.013 587.968 215.134C587.131 214.442 585.945 214.408 584.861 214.476C584.101 214.527 583.316 214.613 582.641 214.971C581.916 215.347 581.37 215.987 580.943 216.679C580.217 217.856 579.799 219.214 579.739 220.596C579.628 223.157 580.721 225.599 581.882 227.886C582.462 229.03 583.06 230.157 583.683 231.275C584.11 232.043 584.571 232.828 585.305 233.315C587.831 234.997 591.246 232.197 590.768 229.457C590.529 228.108 589.888 226.87 589.684 225.479C589.368 223.328 589.214 221.151 589.154 218.983L589.146 218.966Z" fill="#628859"/>
<path d="M597.758 210.968C597.912 209.918 598.032 208.783 598.732 207.98C599.431 207.178 600.942 207.024 601.437 207.972C601.839 208.749 601.326 209.662 600.891 210.422C598.953 213.734 598.168 217.575 596.691 221.117C595.872 223.072 594.779 224.967 593.286 226.486C592.654 227.126 589.257 230.106 588.668 228.492C588.309 227.528 591.749 224.651 592.389 223.797C593.695 222.065 594.796 220.178 595.676 218.198C596.691 215.893 597.408 213.461 597.767 210.968H597.758Z" fill="#628859"/>
<path d="M608.915 201.809C610.135 201.126 611.433 200.537 612.824 200.341C614.566 200.085 616.392 200.486 617.869 201.433C617.98 201.502 618.099 201.596 618.117 201.724C618.134 201.826 618.082 201.937 618.031 202.031C615.155 207.187 609.632 210.772 603.759 211.309C600.567 211.6 600.626 208.86 602.231 207.101C604.152 204.993 606.431 203.209 608.923 201.818L608.915 201.809Z" fill="#628859"/>
<path d="M601.199 196.201C601.096 195.911 600.977 195.62 600.746 195.415C600.302 195.006 599.611 195.066 599.031 195.211C595.488 196.098 592.825 199.675 592.987 203.328C593.038 204.421 593.312 205.496 593.576 206.555C593.815 207.477 594.046 208.407 594.285 209.329C594.43 209.901 594.601 210.515 595.044 210.908C596.18 211.915 599.679 211.463 600.96 210.908C602.24 210.353 603.222 209.047 603.341 207.69C603.461 206.333 602.829 204.805 602.599 203.465C602.18 201.041 602.052 198.548 601.207 196.218L601.199 196.201Z" fill="#628859"/>
<path d="M608.215 184.234C606.901 186.589 607.865 189.5 607.908 192.198C607.934 193.964 607.55 195.714 607.08 197.413C606.116 200.87 604.519 204.515 601.31 206.128C601.037 205.701 600.755 205.283 600.482 204.856C602.411 203.798 602.846 201.297 603.521 199.206C603.922 197.976 604.468 196.79 604.835 195.552C605.569 193.068 605.535 190.431 605.501 187.844C606.662 187.964 607.985 187.58 609.146 187.708C609.666 186.248 610.187 184.78 610.708 183.32C611.835 180.145 612.987 176.765 612.261 173.47C611.613 170.516 609.376 167.964 606.534 166.923C606.005 166.726 605.416 166.59 604.895 166.803C604.135 167.119 603.853 168.032 603.708 168.835C603.102 172.36 603.478 175.971 603.862 179.53C604.092 181.681 604.989 186.683 608.104 186.555C609.205 186.513 610.349 185.096 611.22 184.532C612.389 183.764 613.644 183.141 614.959 182.68C617.323 181.844 619.867 181.519 622.359 181.818C622.948 181.886 623.563 182.006 624.024 182.373C624.86 183.039 624.903 184.362 624.399 185.301C623.896 186.24 622.974 186.88 622.052 187.426C618.74 189.398 614.856 190.635 610.972 190.448C609.666 190.379 607.635 190.32 606.517 189.534C605.194 188.604 604.357 186.333 603.691 184.925C603.23 183.96 602.761 182.893 601.813 182.398C601.387 182.176 600.9 182.083 600.422 182.057C599.654 182.006 598.766 182.142 598.339 182.782C598.126 183.107 598.066 183.499 598.041 183.884C597.955 185.053 598.117 186.222 598.331 187.375C598.578 188.715 598.911 190.106 599.79 191.148C600.755 192.283 602.334 192.846 603.819 192.658C605.262 192.479 607.387 191.361 607.567 189.748C607.635 189.125 607.106 188.672 607.302 188.015C607.447 187.528 607.942 187.085 608.429 186.692" fill="#628859"/>
</g>
<path d="M889.098 198.266C890.293 194.733 890.899 190.738 891.147 188.911C891.659 185.07 891.334 181.015 889.516 177.592C889.235 177.072 888.91 176.543 888.407 176.227C887.826 175.868 887.109 175.843 886.435 175.894C882.841 176.184 879.521 178.651 878.198 182.006C877.318 184.225 877.293 186.675 877.438 189.056C877.668 192.658 878.155 204.592 883.328 204.856C885.777 204.976 887.271 202.5 888.185 200.588C889.738 197.345 891.847 196.662 895.082 194.937C900.929 191.813 907.365 188.595 913.869 189.842C915.824 190.217 917.804 191.079 918.914 192.727C920.339 194.835 919.972 197.788 918.581 199.914C917.19 202.039 914.953 203.473 912.648 204.566C906.733 207.374 899.964 208.347 893.502 207.306C890.925 206.896 888.287 206.102 886.426 204.276C884.565 202.449 883.754 199.35 885.18 197.165C885.385 196.849 885.675 196.542 886.042 196.525C886.341 196.517 886.597 196.696 886.836 196.867C888.185 197.865 889.482 198.932 890.711 200.076" fill="#628859"/>
<path d="M885.76 221.552C886.657 221.595 887.57 221.723 888.355 222.15C889.994 223.046 890.677 225.009 891.215 226.802C891.77 228.629 892.316 230.626 891.625 232.41C890.822 234.484 888.603 235.602 886.546 236.456C883.848 237.583 881.108 238.59 878.326 239.478C876.14 240.178 873.887 240.801 871.599 240.673C867.323 240.425 863.695 237.591 860.366 234.894C854.28 229.943 864.455 227.229 868.202 225.778C873.682 223.661 879.811 221.254 885.769 221.561L885.76 221.552Z" fill="#628859"/>
<path d="M863.568 212.205C863.995 209.824 864.421 207.11 862.919 205.223C861.733 203.738 859.71 203.26 857.823 203.004C856.5 202.816 855.134 202.696 853.845 203.055C852.48 203.439 851.31 204.335 850.329 205.368C848.664 207.118 847.461 209.312 846.872 211.651C845.77 215.995 846.778 220.562 847.956 224.89C848.545 227.049 849.168 229.192 849.842 231.326C850.303 232.786 850.815 234.296 851.891 235.389C855.621 239.162 862.458 235.577 862.612 230.72C862.689 228.321 862.023 225.982 862.168 223.524C862.398 219.734 862.893 215.953 863.559 212.214L863.568 212.205Z" fill="#628859"/>
<path d="M881.151 201.553C881.783 199.803 882.397 197.908 883.874 196.79C885.351 195.672 888.005 195.945 888.509 197.729C888.927 199.205 887.724 200.588 886.699 201.724C882.21 206.708 879.504 213.008 875.714 218.539C873.622 221.595 871.079 224.455 867.98 226.529C866.674 227.399 859.794 231.292 859.359 228.33C859.094 226.546 865.991 222.85 867.391 221.612C870.234 219.103 872.794 216.269 875.005 213.187C877.566 209.611 879.649 205.693 881.151 201.553Z" fill="#628859"/>
<path d="M903.49 189.833C905.82 189.099 908.253 188.553 910.694 188.698C913.759 188.886 916.746 190.209 918.94 192.36C919.102 192.522 919.273 192.71 919.264 192.94C919.264 193.128 919.128 193.29 919.008 193.435C912.257 201.237 901.535 205.42 891.284 204.25C885.718 203.619 886.794 198.941 890.166 196.5C894.195 193.572 898.744 191.318 903.499 189.833H903.49Z" fill="#628859"/>
<path d="M892.274 177.507C892.197 176.978 892.095 176.431 891.779 176.005C891.164 175.151 889.961 175.006 888.911 175.049C882.535 175.322 876.705 180.495 875.689 186.803C875.382 188.698 875.467 190.627 875.552 192.539C875.629 194.203 875.706 195.876 875.783 197.541C875.825 198.574 875.902 199.675 876.517 200.503C878.104 202.628 884.259 203.098 886.64 202.594C889.022 202.09 891.173 200.212 891.856 197.925C892.539 195.637 892.001 192.803 892.078 190.422C892.214 186.12 892.889 181.809 892.257 177.516L892.274 177.507Z" fill="#628859"/>
<path d="M908.526 159.505C905.445 163.073 906.051 168.391 905.172 173.026C904.591 176.056 903.319 178.916 901.902 181.664C899.026 187.247 894.997 192.914 888.928 194.536C888.604 193.717 888.288 192.897 887.963 192.069C891.642 190.951 893.273 186.811 895.176 183.474C896.294 181.511 897.66 179.684 898.727 177.686C900.861 173.692 901.749 169.168 902.602 164.72C904.549 165.335 906.947 165.156 908.893 165.77C910.302 163.449 911.71 161.127 913.127 158.814C916.192 153.777 919.35 148.391 919.273 142.501C919.205 137.209 916.286 132.045 911.787 129.262C910.951 128.75 909.986 128.298 909.021 128.477C907.613 128.742 906.802 130.201 906.273 131.541C903.977 137.363 903.345 143.679 902.739 149.902C902.372 153.666 902.124 162.544 907.511 163.432C909.414 163.747 911.881 161.741 913.571 161.067C915.842 160.171 918.215 159.556 920.63 159.223C924.967 158.634 929.448 158.984 933.605 160.376C934.586 160.709 935.602 161.118 936.259 161.921C937.446 163.363 937.062 165.634 935.867 167.068C934.672 168.502 932.862 169.262 931.095 169.868C924.719 172.061 917.643 172.812 911.061 171.105C908.851 170.533 905.394 169.705 903.755 167.964C901.817 165.907 901.194 161.716 900.554 159.078C900.11 157.26 899.675 155.28 898.232 154.085C897.583 153.547 896.79 153.231 895.979 153.001C894.681 152.634 893.119 152.557 892.155 153.513C891.677 153.982 891.437 154.64 891.25 155.288C890.686 157.26 890.55 159.317 890.499 161.366C890.439 163.747 890.516 166.248 891.668 168.34C892.923 170.627 895.415 172.155 898.019 172.36C900.554 172.556 904.591 171.395 905.462 168.707C905.795 167.674 905.052 166.709 905.624 165.651C906.042 164.874 907.05 164.294 908.023 163.79" fill="#628859"/>
<path d="M779.975 69.9547C780.692 71.8412 780.914 73.8642 781.127 75.8701C781.315 77.62 781.503 79.3784 781.682 81.1282C781.793 82.1782 781.904 83.2622 781.665 84.2865C781.426 85.3108 780.76 86.3095 779.753 86.6595C776.091 83.1512 774.119 78.2687 772.566 73.4374C771.934 71.4741 767.572 62.4005 770.884 61.6835C774.196 60.9664 779.027 67.4793 779.975 69.9462V69.9547Z" fill="#628859"/>
<path d="M768.324 81.8794C770.91 87.0522 773.027 92.9163 771.678 98.5415C768.614 97.9354 766.412 95.1613 765.277 92.2591C764.141 89.3569 763.791 86.1986 762.827 83.2281C762.323 81.6746 761.657 80.1722 761.239 78.5931C760.812 76.9627 759.071 68.7256 762.408 70.4754C763.8 71.201 764.414 74.1715 765.063 75.5202C766.104 77.6627 767.257 79.754 768.324 81.888V81.8794Z" fill="#628859"/>
<path d="M856.722 100.488C859.078 99.8218 861.511 99.4462 863.96 99.3865C864.822 99.3609 865.744 99.3865 866.478 99.856C867.486 100.488 867.895 101.794 867.818 102.989C867.699 105.003 866.453 106.813 864.874 108.067C863.303 109.331 861.417 110.125 859.556 110.901C857.123 111.917 854.699 112.941 852.266 113.957C853.794 113.966 855.313 113.983 856.841 113.991C858.011 114 859.18 114.008 860.333 114.205C861.673 114.435 862.962 114.922 864.233 115.408C865.36 115.835 866.547 116.305 867.306 117.244C867.981 118.072 868.237 119.19 868.177 120.257C868.066 122.049 867.059 123.765 865.539 124.721C864.293 125.515 862.791 125.797 861.323 125.933C854.067 126.607 846.564 124.064 841.221 119.104C840.606 118.533 840 117.909 839.65 117.141C839.411 116.629 839.3 116.066 839.223 115.502C838.831 112.592 839.513 109.664 840.009 106.77C840.461 104.15 840.794 101.427 842.143 99.1304C843.491 96.8342 846.18 95.0759 848.758 95.7502C850.567 96.2197 851.831 97.7988 852.437 99.506C852.736 100.368 852.906 105.592 851.984 104.798C853.009 102.596 854.374 101.162 856.73 100.496L856.722 100.488Z" fill="#628859"/>
<path d="M850.773 132.514C851.601 132.89 852.412 133.325 853.095 133.923C854.273 134.964 854.99 136.415 855.673 137.832C855.929 138.361 856.193 138.925 856.185 139.514C856.168 140.401 855.519 141.187 854.725 141.596C853.931 142.006 853.026 142.109 852.139 142.177C850.15 142.331 848.152 142.322 846.164 142.177C844.866 142.074 843.552 141.904 842.348 141.4C841.409 141.007 840.573 140.419 839.736 139.847C836.219 137.431 832.54 135.058 829.997 131.627C827.222 127.871 826.053 123.202 824.952 118.669C824.704 117.662 824.465 116.655 824.431 115.613C824.363 113.658 825.097 111.687 826.42 110.244C827.41 109.16 828.75 108.366 830.21 108.187C831.67 108.008 833.223 108.486 834.213 109.57C835.562 111.046 835.647 113.249 835.605 115.246C835.477 120.137 834.973 125.011 834.085 129.817C833.932 130.662 833.368 131.763 834.452 132.045C835.203 132.241 836.595 131.464 837.346 131.285C839.454 130.781 841.648 130.611 843.808 130.773C846.206 130.952 848.579 131.533 850.773 132.523V132.514Z" fill="#628859"/>
<path d="M827.043 144.149C828.033 143.995 829.04 143.884 830.022 144.046C830.782 144.174 831.507 144.473 832.182 144.849C833.189 145.412 834.094 146.138 834.981 146.88C836.458 148.11 837.909 149.373 839.326 150.662C841.127 152.292 843.031 154.358 842.741 156.773C842.664 157.439 842.391 158.105 841.87 158.523C841.349 158.95 840.658 159.078 840.001 159.181C838.549 159.394 837.081 159.496 835.605 159.496C834.734 159.496 833.855 159.454 832.993 159.283C831.985 159.078 831.021 158.694 830.065 158.31C827.495 157.277 824.935 156.253 822.365 155.22C820.581 154.503 818.797 153.786 817.039 153.001C815.4 152.267 813.753 151.447 812.472 150.175C809.698 147.41 809.229 143.125 809.305 139.207C809.365 136.509 809.613 133.812 810.108 131.157C810.637 128.375 811.567 125.455 813.812 123.731C814.461 123.227 815.229 122.843 816.049 122.775C817.585 122.647 819.036 123.671 819.873 124.969C821.29 127.171 821.256 129.962 821.341 132.583C821.418 134.964 821.614 137.363 821.324 139.744C821.008 142.297 819.975 144.012 818.524 146.052C819.472 146.385 821.213 145.429 822.178 145.173C823.774 144.746 825.387 144.405 827.017 144.157L827.043 144.149Z" fill="#628859"/>
<path d="M822.886 166.129C826.684 166.436 830.466 167.845 833.206 170.491C834.708 171.942 835.912 174.11 835.152 176.056C834.443 177.857 832.378 178.651 830.517 179.172C824.482 180.853 818.089 181.664 811.943 180.503C811.166 180.358 810.364 180.162 809.732 179.684C808.708 178.907 808.349 177.567 807.939 176.355C807.274 174.366 806.335 172.462 805.165 170.73C804.662 171.498 805.003 172.573 804.602 173.393C804.286 174.042 803.552 174.409 802.826 174.503C801.247 174.699 799.702 173.76 798.763 172.48C797.824 171.199 797.406 169.62 797.082 168.066C795.844 162.108 795.887 155.621 798.806 150.278C799.335 149.322 799.958 148.391 800.82 147.708C801.683 147.025 802.801 146.624 803.876 146.812C805.054 147.017 806.027 147.905 806.608 148.946C807.188 149.987 807.427 151.182 807.615 152.36C808.213 156.193 808.306 160.103 807.863 163.952C807.734 165.07 807.197 167.281 808.264 168.152C809.331 169.023 811.32 167.827 812.387 167.503C815.775 166.47 819.343 165.847 822.894 166.137L822.886 166.129Z" fill="#628859"/>
<path d="M810.705 190.422C812.25 189.713 813.855 189.099 815.537 188.868C818.61 188.45 821.7 189.312 824.662 190.226C825.379 190.447 826.104 190.678 826.702 191.122C827.914 192.018 828.383 193.606 828.545 195.1C828.639 195.953 828.656 196.849 828.341 197.652C827.956 198.633 827.128 199.376 826.258 199.974C822.408 202.586 817.474 202.876 812.831 202.782C810.876 202.739 808.93 202.654 806.984 202.509C805.447 202.398 803.894 202.244 802.46 201.681C801.563 201.331 799.233 200.11 799.242 198.924C799.242 197.993 801.726 196.286 802.417 195.706C804.927 193.589 807.709 191.805 810.697 190.422H810.705Z" fill="#628859"/>
<path d="M796.16 186.427C795.571 181.929 794.026 177.447 791.047 174.024C790.415 173.299 789.638 172.582 788.682 172.505C787.598 172.42 786.642 173.162 785.806 173.862C785.268 174.315 784.713 174.793 784.423 175.433C784.167 176.013 784.158 176.679 784.158 177.319C784.158 184.25 784.619 191.446 787.871 197.566C788.384 198.531 788.972 199.478 789.783 200.204C791.96 202.167 795.844 201.536 796.228 198.377C796.706 194.485 796.655 190.302 796.151 186.427H796.16Z" fill="#628859"/>
<path d="M800.94 217.634C807.965 213.759 816.057 211.839 824.072 212.146C824.559 212.163 825.062 212.197 825.515 212.393C826.428 212.795 826.906 213.802 827.162 214.766C828.076 218.164 827 222.022 824.465 224.463C822.698 226.162 820.368 227.143 818.02 227.843C813.061 229.329 807.837 229.687 802.664 229.875C801.708 229.909 800.735 229.935 799.813 229.679C798.533 229.329 797.457 228.458 796.211 227.988C794.308 227.271 792.148 227.519 790.219 226.862C787.513 225.931 785.729 223.388 784.227 220.946C782.426 218.019 780.744 214.98 779.779 211.676C778.815 208.373 778.601 204.779 779.737 201.527C779.882 201.117 780.07 200.682 780.437 200.452C780.735 200.264 781.094 200.238 781.444 200.247C784.193 200.281 786.642 201.937 788.742 203.712C791.218 205.795 793.514 208.177 794.965 211.062C796.023 213.162 796.604 215.56 796.407 217.916C796.296 219.222 795.725 220.315 797.449 219.521C798.652 218.966 799.779 218.275 800.94 217.634Z" fill="#628859"/>
<path d="M846.855 115.024C846.855 115.024 793.147 161.502 796.57 221.476" stroke="#628859" stroke-width="3.68" stroke-miterlimit="10"/>
</svg>
