<svg width="4060" height="4060" viewBox="0 0 4060 4060" fill="none" xmlns="http://www.w3.org/2000/svg">
<mask id="mask0_255_1036" style="mask-type:luminance" maskUnits="userSpaceOnUse" x="0" y="0" width="4060" height="4060">
<path d="M960.402 4059.13L4059.13 3098.73L3098.73 -7.45192e-05L-0.0001014 960.402L960.402 4059.13Z" fill="white"/>
</mask>
<g mask="url(#mask0_255_1036)">
<path d="M838.865 2101.47C839.508 2106.09 841.245 2110.23 843.752 2113.76C829.2 2123.43 820.605 2140.89 823.188 2159.41C825.314 2174.68 834.578 2187.22 847.104 2194.11C844.652 2199.94 843.704 2206.48 844.644 2213.2C847.38 2232.8 865.329 2246.62 884.904 2244.26L878.611 2199.14L874.874 2172.32L868.296 2125.17L865.634 2106.05L860.7 2070.64C846.476 2073.5 836.831 2086.94 838.86 2101.48L838.865 2101.47Z" fill="url(#paint0_linear_255_1036)"/>
<path d="M1323.54 511.57C1319.6 514.062 1316.55 517.353 1314.37 521.094C1299.55 511.832 1280.1 511.215 1264.3 521.211C1251.27 529.453 1243.67 543.068 1242.57 557.321C1236.24 557.496 1229.9 559.33 1224.17 562.962C1207.44 573.548 1202.26 595.6 1212.49 612.456L1250.99 588.093L1273.87 573.619L1314.11 548.16L1330.43 537.841L1360.63 518.731C1352.16 506.954 1335.94 503.717 1323.53 511.569L1323.54 511.57Z" fill="url(#paint1_linear_255_1036)"/>
<path d="M471.962 2181.76C472.63 2186.37 474.391 2190.5 476.916 2194.02C462.417 2203.76 453.917 2221.28 456.601 2239.78C458.811 2255.04 468.143 2267.53 480.706 2274.35C478.286 2280.2 477.373 2286.74 478.351 2293.45C481.193 2313.04 499.217 2326.76 518.779 2324.3L512.24 2279.21L508.357 2252.41L501.522 2205.29L498.756 2186.19L493.63 2150.81C479.421 2153.74 469.849 2167.23 471.957 2181.76L471.962 2181.76Z" fill="url(#paint2_linear_255_1036)"/>
<path d="M3426.94 2268.35C3424.57 2258.59 3419.97 2250.11 3413.81 2243.08C3442.91 2219.23 3457.54 2179.95 3448.03 2140.84C3440.17 2108.58 3417.61 2083.7 3389.3 2071.65C3393.29 2058.62 3393.91 2044.42 3390.45 2030.22C3380.36 1988.8 3338.94 1963.08 3297.5 1972.35L3320.71 2067.69L3334.5 2124.34L3358.75 2223.95L3368.58 2264.34L3386.79 2339.14C3416.65 2329.97 3434.42 2299.08 3426.94 2268.36L3426.94 2268.35Z" fill="url(#paint3_linear_255_1036)"/>
<path d="M3192.95 1145.6C3188.18 1140.63 3182.53 1137.19 3176.45 1135.14C3185.49 1110.96 3180.63 1082.62 3161.51 1062.7C3145.73 1046.27 3123.78 1039.29 3102.84 1041.9C3100.71 1032.79 3096.19 1024.16 3089.24 1016.93C3068.99 995.833 3035.55 994.853 3014.17 1014.63L3060.78 1063.18L3088.49 1092.03L3137.2 1142.76L3156.95 1163.33L3193.52 1201.41C3208.07 1185.69 3207.97 1161.24 3192.95 1145.6Z" fill="url(#paint4_linear_255_1036)"/>
<path d="M1908.17 420.192C1901.31 420.765 1895.06 422.971 1889.64 426.387C1876.59 404.133 1851.53 390.01 1824.02 392.292C1801.32 394.17 1782.05 406.796 1770.86 424.698C1762.46 420.606 1752.91 418.668 1742.91 419.493C1713.77 421.909 1691.91 447.23 1693.78 476.295L1760.86 470.75L1800.71 467.449L1870.79 461.652L1899.21 459.305L1951.83 454.955C1948.81 433.748 1929.78 418.403 1908.16 420.196L1908.17 420.192Z" fill="url(#paint5_linear_255_1036)"/>
<path d="M2277.77 506.044C2273.4 505.413 2269.17 505.893 2265.28 507.251C2260.41 491.441 2246.84 478.991 2229.31 476.452C2214.85 474.356 2200.95 479.481 2191.31 489.073C2186.67 485.3 2180.99 482.71 2174.62 481.786C2156.05 479.097 2138.66 491.795 2135.53 510.254L2178.26 516.453L2203.65 520.132L2248.3 526.605L2266.4 529.232L2299.92 534.095C2301.16 520.386 2291.53 508.039 2277.76 506.044L2277.77 506.044Z" fill="url(#paint6_linear_255_1036)"/>
<path d="M3396.21 1313.81C3394.23 1309.86 3391.43 1306.66 3388.09 1304.25C3398.3 1291.22 3400.78 1272.98 3392.86 1257.13C3386.33 1244.06 3374.19 1235.57 3360.82 1233.13C3361.26 1227.16 3360.15 1221.02 3357.27 1215.26C3348.89 1198.48 3328.54 1191.44 3311.59 1199.41L3330.89 1238.04L3342.35 1260.99L3362.51 1301.34L3370.68 1317.71L3385.81 1348.01C3397.78 1341.21 3402.43 1326.26 3396.21 1313.81L3396.21 1313.81Z" fill="url(#paint7_linear_255_1036)"/>
<path d="M2054.27 3594.42C2061.14 3594.01 2067.44 3591.94 2072.93 3588.64C2085.47 3611.19 2110.19 3625.88 2137.76 3624.23C2160.5 3622.87 2180.04 3610.69 2191.64 3593.05C2199.94 3597.34 2209.46 3599.49 2219.46 3598.89C2248.66 3597.14 2271.08 3572.32 2269.89 3543.22L2202.7 3547.23L2162.77 3549.62L2092.58 3553.82L2064.11 3555.52L2011.4 3558.67C2013.95 3579.94 2032.62 3595.71 2054.28 3594.42L2054.27 3594.42Z" fill="url(#paint8_linear_255_1036)"/>
<path d="M1774.68 3431.3C1781.56 3430.89 1787.85 3428.82 1793.34 3425.52C1805.88 3448.07 1830.61 3462.76 1858.17 3461.11C1880.91 3459.75 1900.45 3447.57 1912.05 3429.93C1920.35 3434.21 1929.87 3436.36 1939.88 3435.77C1969.07 3434.02 1991.49 3409.2 1990.3 3380.09L1923.11 3384.11L1883.19 3386.5L1812.99 3390.7L1784.53 3392.4L1731.82 3395.55C1734.36 3416.82 1753.04 3432.59 1774.69 3431.3L1774.68 3431.3Z" fill="url(#paint9_linear_255_1036)"/>
<path d="M2843.9 3049.35C2848.72 3044.43 2852 3038.67 2853.85 3032.55C2878.29 3040.85 2906.48 3035.13 2925.8 3015.41C2941.74 2999.14 2948.05 2976.99 2944.81 2956.13C2953.84 2953.73 2962.33 2948.94 2969.35 2941.78C2989.82 2920.89 2989.78 2887.44 2969.36 2866.67L2922.25 2914.74L2894.26 2943.31L2845.05 2993.54L2825.09 3013.91L2788.13 3051.63C2804.3 3065.69 2828.73 3064.84 2843.91 3049.35L2843.9 3049.35Z" fill="url(#paint10_linear_255_1036)"/>
<path d="M2950.79 2871.24C2955.61 2866.32 2958.89 2860.56 2960.74 2854.43C2985.18 2862.73 3013.36 2857.02 3032.69 2837.29C3048.63 2821.02 3054.94 2798.88 3051.69 2778.01C3060.73 2775.62 3069.22 2770.83 3076.24 2763.66C3096.71 2742.77 3096.66 2709.33 3076.25 2688.55L3029.14 2736.63L3001.15 2765.2L2951.93 2815.43L2931.98 2835.8L2895.02 2873.51C2911.19 2887.57 2935.62 2886.73 2950.8 2871.24L2950.79 2871.24Z" fill="url(#paint11_linear_255_1036)"/>
<path d="M2369.59 757.401C2359.95 754.6 2350.29 754.368 2341.14 756.198C2334.95 719.096 2308.18 686.828 2269.52 675.609C2237.63 666.353 2204.83 673.519 2180.28 692.065C2170.98 682.115 2158.97 674.507 2144.93 670.428C2103.99 658.541 2061.05 681.664 2048.45 722.206L2142.68 749.568L2198.67 765.822L2297.12 794.409L2337.05 805.995L2410.97 827.46C2417.89 797 2399.96 766.205 2369.59 757.388L2369.59 757.401Z" fill="url(#paint12_linear_255_1036)"/>
<path d="M2797.83 1309.41C2789.22 1304.24 2779.95 1301.55 2770.63 1300.98C2774.12 1263.53 2756.49 1225.49 2721.98 1204.77C2693.51 1187.67 2659.97 1186.22 2631.49 1197.88C2625.04 1185.88 2615.37 1175.46 2602.84 1167.93C2566.3 1145.98 2518.88 1157.36 2496.34 1193.34L2580.45 1243.87L2630.43 1273.89L2718.31 1326.68L2753.95 1348.08L2819.94 1387.72C2834.41 1360.04 2824.94 1325.68 2797.83 1309.4L2797.83 1309.41Z" fill="url(#paint13_linear_255_1036)"/>
<path d="M3003.1 934.38C2994.82 928.703 2985.72 925.463 2976.45 924.339C2982.18 887.161 2966.84 848.14 2933.64 825.393C2906.24 806.627 2872.85 803.175 2843.72 813.111C2838 800.75 2828.97 789.766 2816.91 781.501C2781.74 757.406 2733.73 765.938 2709.08 800.506L2790.02 855.968L2838.12 888.919L2922.69 946.865L2956.99 970.357L3020.49 1013.87C3036.59 987.099 3029.19 952.24 3003.1 934.367L3003.1 934.38Z" fill="url(#paint14_linear_255_1036)"/>
<path d="M3332.86 1650.81C3329.48 1641.35 3324.01 1633.4 3317.16 1627.05C3343.6 1600.29 3354.06 1559.69 3340.5 1521.79C3329.31 1490.53 3304.28 1468.15 3274.87 1459.12C3277.48 1445.75 3276.6 1431.56 3271.68 1417.8C3257.32 1377.66 3213.42 1356.41 3173.19 1369.96L3206.24 1462.35L3225.88 1517.25L3260.41 1613.78L3274.41 1652.92L3300.34 1725.4C3329.08 1713.15 3343.52 1680.57 3332.87 1650.8L3332.86 1650.81Z" fill="url(#paint15_linear_255_1036)"/>
<path d="M3146.59 2917.01C3152.32 2908.75 3155.62 2899.68 3156.8 2890.42C3193.94 2896.37 3233.06 2881.28 3256.01 2848.22C3274.94 2820.94 3278.6 2787.56 3268.85 2758.38C3281.24 2752.73 3292.28 2743.77 3300.62 2731.76C3324.93 2696.75 3316.7 2648.68 3282.28 2623.82L3226.32 2704.42L3193.07 2752.31L3134.61 2836.52L3110.9 2870.67L3067 2933.9C3093.67 2950.17 3128.57 2942.98 3146.61 2917.01L3146.59 2917.01Z" fill="url(#paint16_linear_255_1036)"/>
<path d="M897.087 2727.03C904.911 2733.33 913.727 2737.27 922.887 2739.09C914.312 2775.72 926.597 2815.8 957.952 2841.04C983.814 2861.87 1016.86 2867.88 1046.65 2860.21C1051.41 2872.98 1059.57 2884.63 1070.95 2893.8C1104.16 2920.53 1152.68 2915.72 1179.92 2883.15L1103.49 2821.62L1058.07 2785.06L978.209 2720.78L945.827 2694.71L885.864 2646.44C867.757 2671.88 872.445 2707.21 897.075 2727.04L897.087 2727.03Z" fill="url(#paint17_linear_255_1036)"/>
<path d="M2229.66 3407.79C2239.25 3404.81 2247.44 3399.7 2254.07 3393.11C2279.68 3420.68 2319.78 3432.85 2358.23 3420.93C2389.94 3411.09 2413.38 3387.03 2423.65 3358.03C2436.9 3361.21 2451.11 3360.94 2465.07 3356.61C2505.79 3343.98 2528.88 3301.03 2517.06 3260.25L2423.35 3289.33L2367.66 3306.61L2269.75 3336.99L2230.05 3349.31L2156.53 3372.12C2167.53 3401.34 2199.46 3417.17 2229.66 3407.8L2229.66 3407.79Z" fill="url(#paint18_linear_255_1036)"/>
<path d="M3466.27 2752.95C3468.7 2743.2 3468.57 2733.55 3466.38 2724.47C3503.23 2716.88 3534.45 2688.91 3544.21 2649.85C3552.25 2617.64 3543.84 2585.12 3524.37 2561.3C3533.97 2551.62 3541.11 2539.33 3544.66 2525.15C3554.98 2483.79 3530.25 2441.76 3489.26 2430.71L3465.49 2525.9L3451.37 2582.48L3426.54 2681.94L3416.47 2722.27L3397.83 2796.96C3428.52 2802.72 3458.62 2783.64 3466.28 2752.96L3466.27 2752.95Z" fill="url(#paint19_linear_255_1036)"/>
<path d="M475.642 1517.83C472.517 1527.38 471.958 1537.02 473.493 1546.23C436.194 1551.17 403.063 1576.84 390.543 1615.1C380.219 1646.66 386.287 1679.69 404.004 1704.85C393.745 1713.82 385.738 1725.56 381.191 1739.46C367.942 1779.97 389.609 1823.66 429.711 1837.61L460.209 1744.35L478.332 1688.93L510.197 1591.49L523.118 1551.98L547.047 1478.82C516.842 1470.88 485.463 1487.77 475.631 1517.82L475.642 1517.83Z" fill="url(#paint20_linear_255_1036)"/>
<path d="M1066.52 3285.64C1075.36 3290.41 1084.75 3292.68 1094.09 3292.8C1092.32 3330.39 1111.69 3367.55 1147.11 3386.68C1176.33 3402.45 1209.92 3402.35 1237.82 3389.39C1244.82 3401.08 1254.96 3411.05 1267.82 3417.99C1305.34 3438.24 1352.18 3424.68 1373.04 3387.7L1286.69 3341.1L1235.38 3313.42L1145.15 3264.73L1108.57 3244.99L1040.83 3208.44C1027.65 3236.75 1038.69 3270.63 1066.51 3285.65L1066.52 3285.64Z" fill="url(#paint21_linear_255_1036)"/>
<path d="M2995.95 2528.02C2998.62 2522.31 2999.71 2516.35 2999.45 2510.5C3023.06 2510.26 3045.66 2496.8 3056.37 2473.92C3065.2 2455.05 3063.94 2434.01 3054.82 2416.99C3061.89 2412.18 3067.78 2405.48 3071.66 2397.17C3083 2372.94 3072.83 2344.08 3048.92 2332.34L3022.82 2388.09L3007.31 2421.23L2980.04 2479.49L2968.98 2503.12L2948.5 2546.86C2966.71 2554.11 2987.54 2545.98 2995.95 2528.01L2995.95 2528.02Z" fill="url(#paint22_linear_255_1036)"/>
<path d="M2900.75 1451.47C2896.03 1447.29 2890.62 1444.58 2884.93 1443.16C2891.38 1420.44 2884.85 1394.96 2865.93 1378.23C2850.32 1364.42 2829.79 1359.68 2810.89 1363.61C2808.27 1355.47 2803.51 1347.94 2796.64 1341.85C2776.62 1324.12 2746.05 1325.72 2728.03 1345.33L2774.13 1386.14L2801.53 1410.38L2849.7 1453.01L2869.23 1470.3L2905.4 1502.32C2917.51 1486.9 2915.59 1464.62 2900.74 1451.47L2900.75 1451.47Z" fill="url(#paint23_linear_255_1036)"/>
<path d="M1645.74 864.18C1640.68 867.929 1636.89 872.663 1634.33 877.937C1613.45 866.929 1587.17 868.039 1566.88 883.079C1550.14 895.489 1541.26 914.586 1541.19 933.9C1532.69 934.772 1524.32 937.874 1516.95 943.339C1495.46 959.26 1490.69 989.494 1506.16 1011.19L1555.62 974.531L1585.01 952.744L1636.69 914.437L1657.65 898.903L1696.46 870.139C1683.88 855.108 1661.68 852.368 1645.74 864.18Z" fill="url(#paint24_linear_255_1036)"/>
<path d="M2978.81 705.41C2973.47 702.053 2967.69 700.251 2961.85 699.784C2964.51 676.328 2953.92 652.249 2932.54 638.815C2914.89 627.73 2893.87 626.395 2875.85 633.356C2871.95 625.753 2866.02 619.087 2858.25 614.208C2835.6 599.972 2805.71 606.52 2791.12 628.813L2843.25 661.565L2874.23 681.027L2928.7 715.25L2950.79 729.13L2991.69 754.823C3001.12 737.639 2995.61 715.969 2978.81 705.41Z" fill="url(#paint25_linear_255_1036)"/>
<path d="M2491.19 1039.96C2485.05 1038.57 2478.99 1038.78 2473.33 1040.28C2468.06 1017.27 2450.09 998.059 2425.46 992.474C2405.14 987.866 2384.86 993.573 2370.18 1006.11C2363.97 1000.23 2356.17 995.911 2347.22 993.883C2321.14 987.96 2295.1 1004.05 2288.72 1029.92L2348.76 1043.54L2384.44 1051.63L2447.18 1065.86L2472.62 1071.63L2519.73 1082.31C2522.93 1062.97 2510.54 1044.36 2491.19 1039.96Z" fill="url(#paint26_linear_255_1036)"/>
<path d="M1277.13 823.466C1272.08 827.238 1268.32 831.989 1265.79 837.275C1244.86 826.361 1218.58 827.59 1198.36 842.721C1181.67 855.207 1172.88 874.344 1172.9 893.658C1164.4 894.569 1156.05 897.708 1148.7 903.206C1127.28 919.225 1122.65 949.48 1138.21 971.102L1187.51 934.224L1216.8 912.304L1268.31 873.764L1289.2 858.135L1327.88 829.196C1315.23 814.222 1293.02 811.582 1277.13 823.466Z" fill="url(#paint27_linear_255_1036)"/>
<path d="M628.195 1826.22C627.555 1832.49 628.508 1838.47 630.683 1843.91C608.481 1851.94 591.602 1872.11 589.055 1897.24C586.954 1917.97 595.087 1937.4 609.321 1950.46C604.24 1957.33 600.898 1965.6 599.975 1974.73C597.268 2001.34 616.406 2025.23 642.856 2028.4L649.072 1967.16L652.762 1930.76L659.252 1866.75L661.886 1840.8L666.757 1792.74C647.173 1791.92 630.202 1806.48 628.195 1826.22Z" fill="url(#paint28_linear_255_1036)"/>
<path d="M647.221 2538.89C648.877 2542.76 651.368 2545.94 654.398 2548.41C644.051 2560.27 640.739 2577.49 647.384 2592.96C652.868 2605.73 663.896 2614.42 676.418 2617.43C675.68 2623.08 676.409 2628.98 678.824 2634.6C685.857 2650.99 704.743 2658.73 721.191 2652.02L704.996 2614.3L695.369 2591.89L678.443 2552.48L671.58 2536.49L658.869 2506.9C647.186 2512.76 642.003 2526.74 647.221 2538.89Z" fill="url(#paint29_linear_255_1036)"/>
<path d="M1667.27 3197.43C1673.32 3199.19 1679.38 3199.33 1685.13 3198.18C1689.02 3221.47 1705.81 3241.71 1730.07 3248.75C1750.08 3254.56 1770.66 3250.06 1786.07 3238.42C1791.91 3244.67 1799.45 3249.45 1808.25 3252C1833.94 3259.46 1860.89 3244.96 1868.79 3219.51L1809.66 3202.34L1774.53 3192.14L1712.74 3174.2L1687.69 3166.93L1641.3 3153.46C1636.96 3172.58 1648.21 3191.9 1667.27 3197.43Z" fill="url(#paint30_linear_255_1036)"/>
<path d="M972.904 1603.26C970.78 1609.19 970.264 1615.23 971.062 1621.03C947.582 1623.48 926.348 1639.01 917.837 1662.79C910.812 1682.41 914.048 1703.23 924.716 1719.32C918.127 1724.77 912.899 1731.99 909.808 1740.63C900.793 1765.82 913.628 1793.6 938.534 1803.05L959.28 1745.08L971.613 1710.63L993.299 1650.06L1002.09 1625.51L1018.37 1580.03C999.562 1574.53 979.586 1584.58 972.904 1603.26Z" fill="url(#paint31_linear_255_1036)"/>
<path d="M792.284 1414.86C790.16 1420.8 789.644 1426.83 790.443 1432.63C766.963 1435.08 745.728 1450.61 737.217 1474.39C730.192 1494.01 733.428 1514.84 744.097 1530.92C737.507 1536.38 732.28 1543.6 729.189 1552.24C720.173 1577.43 733.008 1605.2 757.914 1614.65L778.661 1556.68L790.993 1522.23L812.679 1461.67L821.473 1437.11L837.754 1391.63C818.942 1386.14 798.966 1396.18 792.284 1414.86Z" fill="url(#paint32_linear_255_1036)"/>
<path d="M1161.41 3098.52C1165.23 3100.4 1169.23 3101.21 1173.18 3101.12C1173.02 3117.06 1181.8 3132.49 1197.09 3140.03C1209.71 3146.25 1223.92 3145.68 1235.53 3139.77C1238.68 3144.61 1243.12 3148.67 1248.67 3151.4C1264.87 3159.39 1284.49 3152.92 1292.74 3136.95L1255.46 3118.57L1233.31 3107.65L1194.36 3088.45L1178.58 3080.66L1149.33 3066.24C1144.2 3078.43 1149.4 3092.6 1161.41 3098.52Z" fill="url(#paint33_linear_255_1036)"/>
<path d="M755.099 3101.19C758.151 3104.15 761.714 3106.16 765.501 3107.29C760.443 3122.4 764.047 3139.79 776.277 3151.66C786.367 3161.46 800.063 3165.3 812.93 3163.24C814.437 3168.81 817.411 3174.04 821.855 3178.36C834.81 3190.94 855.462 3190.82 868.23 3178.16L838.419 3149.21L820.702 3132L789.555 3101.74L776.927 3089.48L753.542 3066.76C744.904 3076.78 745.49 3091.86 755.099 3101.19Z" fill="url(#paint34_linear_255_1036)"/>
<path d="M2832.19 1112.11C2827.76 1108.9 2823.09 1106.69 2818.46 1105.41C2819.03 1089.53 2809.12 1071.05 2791.4 1058.19C2776.79 1047.58 2760.13 1043.2 2746.39 1045.08C2742.82 1039.14 2737.72 1033.54 2731.28 1028.86C2712.51 1015.25 2689.39 1014.88 2679.35 1027.98L2722.55 1059.33L2748.22 1077.96L2793.36 1110.72L2811.66 1124L2845.55 1148.6C2851.86 1138.19 2846.11 1122.22 2832.18 1112.12L2832.19 1112.11Z" fill="url(#paint35_linear_255_1036)"/>
<path d="M2683.01 2909.63C2686.94 2905.83 2689.92 2901.62 2692 2897.29C2707.53 2900.62 2727.46 2894.09 2743.23 2878.9C2756.23 2866.36 2763.45 2850.73 2764 2836.88C2770.47 2834.4 2776.89 2830.36 2782.61 2824.83C2799.3 2808.73 2803.7 2786.03 2792.55 2773.85L2754.13 2810.91L2731.3 2832.93L2691.16 2871.65L2674.89 2887.35L2644.75 2916.42C2653.89 2924.45 2670.62 2921.58 2683 2909.64L2683.01 2909.63Z" fill="url(#paint36_linear_255_1036)"/>
<path d="M1996.68 3169.31C2001.93 3170.83 2007.07 3171.31 2011.86 3170.95C2016.71 3186.08 2032.31 3200.1 2053.34 3206.18C2070.7 3211.2 2087.84 3209.67 2100.13 3203.23C2105.5 3207.6 2112.2 3211.15 2119.85 3213.35C2142.13 3219.79 2164 3212.29 2168.99 3196.54L2117.71 3181.72L2087.24 3172.92L2033.66 3157.44L2011.94 3151.16L1971.71 3139.54C1969.3 3151.47 1980.14 3164.54 1996.67 3169.31L1996.68 3169.31Z" fill="url(#paint37_linear_255_1036)"/>
<path d="M1237.76 1042.4C1229.96 1048.73 1224.26 1056.52 1220.54 1065.09C1186.54 1049.01 1144.76 1052.59 1113.5 1077.95C1087.71 1098.86 1074.89 1129.89 1076.12 1160.64C1062.64 1162.6 1049.54 1168.13 1038.18 1177.34C1005.07 1204.18 999.569 1252.64 1025.69 1286.11L1101.9 1224.32L1147.19 1187.6L1226.83 1123.03L1259.11 1096.85L1318.91 1048.37C1297.83 1025.32 1262.31 1022.48 1237.75 1042.4L1237.76 1042.4Z" fill="url(#paint38_linear_255_1036)"/>
<path d="M735.51 1339.55C732.976 1345.32 732.046 1351.3 732.444 1357.15C708.852 1357.97 686.595 1371.99 676.457 1395.12C668.092 1414.21 669.867 1435.2 679.406 1451.99C672.46 1456.97 666.74 1463.82 663.059 1472.22C652.314 1496.72 663.194 1525.33 687.392 1536.47L712.11 1480.09L726.797 1446.58L752.623 1387.66L763.098 1363.76L782.488 1319.52C764.102 1312.73 743.48 1321.38 735.51 1339.55Z" fill="url(#paint39_linear_255_1036)"/>
<path d="M3006.94 1239.31C3003.27 1235.25 2999.17 1232.12 2994.9 1229.9C2998.76 1214.49 2992.9 1194.35 2978.24 1178.09C2966.15 1164.68 2950.76 1156.93 2936.94 1155.92C2934.68 1149.37 2930.85 1142.83 2925.53 1136.92C2909.99 1119.7 2887.45 1114.54 2874.91 1125.27L2910.65 1164.91L2931.9 1188.47L2969.25 1229.89L2984.39 1246.68L3012.43 1277.78C3020.76 1268.91 3018.46 1252.09 3006.93 1239.32L3006.94 1239.31Z" fill="url(#paint40_linear_255_1036)"/>
<path d="M3274.7 1631.74C3273.03 1626.54 3270.58 1621.99 3267.61 1618.21C3277.48 1605.76 3280.45 1584.99 3273.8 1564.14C3268.32 1546.93 3257.5 1533.53 3245.32 1526.9C3245.96 1520.01 3245.17 1512.47 3242.76 1504.89C3235.71 1482.79 3217.31 1468.8 3201.46 1473.4L3217.67 1524.25L3227.31 1554.47L3244.25 1607.61L3251.12 1629.16L3263.83 1669.05C3275.08 1664.41 3279.92 1648.14 3274.69 1631.75L3274.7 1631.74Z" fill="url(#paint41_linear_255_1036)"/>
</g>
<defs>
<linearGradient id="paint0_linear_255_1036" x1="803.962" y1="2157.15" x2="941.505" y2="2157.86" gradientUnits="userSpaceOnUse">
<stop stop-color="white"/>
<stop offset="0.05" stop-color="white" stop-opacity="0.98"/>
<stop offset="0.12" stop-color="white" stop-opacity="0.91"/>
<stop offset="0.2" stop-color="white" stop-opacity="0.79"/>
<stop offset="0.29" stop-color="white" stop-opacity="0.63"/>
<stop offset="0.39" stop-color="white" stop-opacity="0.42"/>
<stop offset="0.49" stop-color="white" stop-opacity="0.18"/>
<stop offset="0.52" stop-color="white" stop-opacity="0.1"/>
</linearGradient>
<linearGradient id="paint1_linear_255_1036" x1="1258.42" y1="502.767" x2="1314.56" y2="628.336" gradientUnits="userSpaceOnUse">
<stop stop-color="white"/>
<stop offset="0.05" stop-color="white" stop-opacity="0.98"/>
<stop offset="0.12" stop-color="white" stop-opacity="0.91"/>
<stop offset="0.2" stop-color="white" stop-opacity="0.79"/>
<stop offset="0.29" stop-color="white" stop-opacity="0.63"/>
<stop offset="0.39" stop-color="white" stop-opacity="0.42"/>
<stop offset="0.49" stop-color="white" stop-opacity="0.18"/>
<stop offset="0.52" stop-color="white" stop-opacity="0.1"/>
</linearGradient>
<linearGradient id="paint2_linear_255_1036" x1="437.363" y1="2237.62" x2="574.908" y2="2237.59" gradientUnits="userSpaceOnUse">
<stop stop-color="white"/>
<stop offset="0.05" stop-color="white" stop-opacity="0.98"/>
<stop offset="0.12" stop-color="white" stop-opacity="0.91"/>
<stop offset="0.2" stop-color="white" stop-opacity="0.79"/>
<stop offset="0.29" stop-color="white" stop-opacity="0.63"/>
<stop offset="0.39" stop-color="white" stop-opacity="0.42"/>
<stop offset="0.49" stop-color="white" stop-opacity="0.18"/>
<stop offset="0.52" stop-color="white" stop-opacity="0.1"/>
</linearGradient>
<linearGradient id="paint3_linear_255_1036" x1="3445.44" y1="2130.58" x2="3342.06" y2="2155.74" gradientUnits="userSpaceOnUse">
<stop stop-color="white"/>
<stop offset="1" stop-color="white" stop-opacity="0.1"/>
</linearGradient>
<linearGradient id="paint4_linear_255_1036" x1="3156.55" y1="1057.46" x2="3103.91" y2="1108.01" gradientUnits="userSpaceOnUse">
<stop stop-color="white"/>
<stop offset="1" stop-color="white" stop-opacity="0.1"/>
</linearGradient>
<linearGradient id="paint5_linear_255_1036" x1="1816.84" y1="392.888" x2="1822.86" y2="465.624" gradientUnits="userSpaceOnUse">
<stop stop-color="white"/>
<stop offset="1" stop-color="white" stop-opacity="0.1"/>
</linearGradient>
<linearGradient id="paint6_linear_255_1036" x1="2224.74" y1="475.791" x2="2218.01" y2="522.217" gradientUnits="userSpaceOnUse">
<stop stop-color="white"/>
<stop offset="1" stop-color="white" stop-opacity="0.1"/>
</linearGradient>
<linearGradient id="paint7_linear_255_1036" x1="3390.8" y1="1253" x2="3348.83" y2="1273.96" gradientUnits="userSpaceOnUse">
<stop stop-color="white"/>
<stop offset="1" stop-color="white" stop-opacity="0.1"/>
</linearGradient>
<linearGradient id="paint8_linear_255_1036" x1="2145.05" y1="3623.78" x2="2140.7" y2="3550.92" gradientUnits="userSpaceOnUse">
<stop stop-color="white"/>
<stop offset="1" stop-color="white" stop-opacity="0.1"/>
</linearGradient>
<linearGradient id="paint9_linear_255_1036" x1="1865.46" y1="3460.66" x2="1861.11" y2="3387.8" gradientUnits="userSpaceOnUse">
<stop stop-color="white"/>
<stop offset="1" stop-color="white" stop-opacity="0.1"/>
</linearGradient>
<linearGradient id="paint10_linear_255_1036" x1="2930.9" y1="3010.18" x2="2878.77" y2="2959.1" gradientUnits="userSpaceOnUse">
<stop stop-color="white"/>
<stop offset="1" stop-color="white" stop-opacity="0.1"/>
</linearGradient>
<linearGradient id="paint11_linear_255_1036" x1="3037.79" y1="2832.06" x2="2985.66" y2="2780.98" gradientUnits="userSpaceOnUse">
<stop stop-color="white"/>
<stop offset="1" stop-color="white" stop-opacity="0.1"/>
</linearGradient>
<linearGradient id="paint12_linear_255_1036" x1="2259.38" y1="672.665" x2="2229.72" y2="774.841" gradientUnits="userSpaceOnUse">
<stop stop-color="white"/>
<stop offset="1" stop-color="white" stop-opacity="0.1"/>
</linearGradient>
<linearGradient id="paint13_linear_255_1036" x1="2712.93" y1="1199.33" x2="2658.14" y2="1290.54" gradientUnits="userSpaceOnUse">
<stop stop-color="white"/>
<stop offset="1" stop-color="white" stop-opacity="0.1"/>
</linearGradient>
<linearGradient id="paint14_linear_255_1036" x1="2924.92" y1="819.425" x2="2864.79" y2="907.196" gradientUnits="userSpaceOnUse">
<stop stop-color="white"/>
<stop offset="1" stop-color="white" stop-opacity="0.1"/>
</linearGradient>
<linearGradient id="paint15_linear_255_1036" x1="3336.94" y1="1511.85" x2="3236.76" y2="1547.69" gradientUnits="userSpaceOnUse">
<stop stop-color="white"/>
<stop offset="1" stop-color="white" stop-opacity="0.1"/>
</linearGradient>
<linearGradient id="paint16_linear_255_1036" x1="3262.03" y1="2839.54" x2="3174.63" y2="2778.86" gradientUnits="userSpaceOnUse">
<stop stop-color="white"/>
<stop offset="1" stop-color="white" stop-opacity="0.1"/>
</linearGradient>
<linearGradient id="paint17_linear_255_1036" x1="966.262" y1="2847.72" x2="1032.98" y2="2764.84" gradientUnits="userSpaceOnUse">
<stop stop-color="white"/>
<stop offset="1" stop-color="white" stop-opacity="0.1"/>
</linearGradient>
<linearGradient id="paint18_linear_255_1036" x1="2368.41" y1="3417.76" x2="2336.89" y2="3316.14" gradientUnits="userSpaceOnUse">
<stop stop-color="white"/>
<stop offset="1" stop-color="white" stop-opacity="0.1"/>
</linearGradient>
<linearGradient id="paint19_linear_255_1036" x1="3546.78" y1="2639.51" x2="3443.55" y2="2613.73" gradientUnits="userSpaceOnUse">
<stop stop-color="white"/>
<stop offset="1" stop-color="white" stop-opacity="0.1"/>
</linearGradient>
<linearGradient id="paint20_linear_255_1036" x1="387.241" y1="1625.24" x2="488.364" y2="1658.31" gradientUnits="userSpaceOnUse">
<stop stop-color="white"/>
<stop offset="1" stop-color="white" stop-opacity="0.1"/>
</linearGradient>
<linearGradient id="paint21_linear_255_1036" x1="1156.5" y1="3391.73" x2="1207.03" y2="3298.1" gradientUnits="userSpaceOnUse">
<stop stop-color="white"/>
<stop offset="1" stop-color="white" stop-opacity="0.1"/>
</linearGradient>
<linearGradient id="paint22_linear_255_1036" x1="3076.48" y1="2490.58" x2="2921.2" y2="2388.48" gradientUnits="userSpaceOnUse">
<stop stop-color="white"/>
<stop offset="0.05" stop-color="white" stop-opacity="0.98"/>
<stop offset="0.12" stop-color="white" stop-opacity="0.91"/>
<stop offset="0.2" stop-color="white" stop-opacity="0.79"/>
<stop offset="0.29" stop-color="white" stop-opacity="0.63"/>
<stop offset="0.39" stop-color="white" stop-opacity="0.42"/>
<stop offset="0.49" stop-color="white" stop-opacity="0.18"/>
<stop offset="0.52" stop-color="white" stop-opacity="0.1"/>
</linearGradient>
<linearGradient id="paint23_linear_255_1036" x1="2887.64" y1="1363.54" x2="2745.8" y2="1483.62" gradientUnits="userSpaceOnUse">
<stop stop-color="white"/>
<stop offset="0.05" stop-color="white" stop-opacity="0.98"/>
<stop offset="0.12" stop-color="white" stop-opacity="0.91"/>
<stop offset="0.2" stop-color="white" stop-opacity="0.79"/>
<stop offset="0.29" stop-color="white" stop-opacity="0.63"/>
<stop offset="0.39" stop-color="white" stop-opacity="0.42"/>
<stop offset="0.49" stop-color="white" stop-opacity="0.18"/>
<stop offset="0.52" stop-color="white" stop-opacity="0.1"/>
</linearGradient>
<linearGradient id="paint24_linear_255_1036" x1="1557" y1="858.808" x2="1645.11" y2="1022.44" gradientUnits="userSpaceOnUse">
<stop stop-color="white"/>
<stop offset="0.05" stop-color="white" stop-opacity="0.98"/>
<stop offset="0.12" stop-color="white" stop-opacity="0.91"/>
<stop offset="0.2" stop-color="white" stop-opacity="0.79"/>
<stop offset="0.29" stop-color="white" stop-opacity="0.63"/>
<stop offset="0.39" stop-color="white" stop-opacity="0.42"/>
<stop offset="0.49" stop-color="white" stop-opacity="0.18"/>
<stop offset="0.52" stop-color="white" stop-opacity="0.1"/>
</linearGradient>
<linearGradient id="paint25_linear_255_1036" x1="2951.56" y1="620.789" x2="2831.15" y2="762.352" gradientUnits="userSpaceOnUse">
<stop stop-color="white"/>
<stop offset="0.05" stop-color="white" stop-opacity="0.98"/>
<stop offset="0.12" stop-color="white" stop-opacity="0.91"/>
<stop offset="0.2" stop-color="white" stop-opacity="0.79"/>
<stop offset="0.29" stop-color="white" stop-opacity="0.63"/>
<stop offset="0.39" stop-color="white" stop-opacity="0.42"/>
<stop offset="0.49" stop-color="white" stop-opacity="0.18"/>
<stop offset="0.52" stop-color="white" stop-opacity="0.1"/>
</linearGradient>
<linearGradient id="paint26_linear_255_1036" x1="2437.43" y1="969.162" x2="2370.76" y2="1142.63" gradientUnits="userSpaceOnUse">
<stop stop-color="white"/>
<stop offset="0.05" stop-color="white" stop-opacity="0.98"/>
<stop offset="0.12" stop-color="white" stop-opacity="0.91"/>
<stop offset="0.2" stop-color="white" stop-opacity="0.79"/>
<stop offset="0.29" stop-color="white" stop-opacity="0.63"/>
<stop offset="0.39" stop-color="white" stop-opacity="0.42"/>
<stop offset="0.49" stop-color="white" stop-opacity="0.18"/>
<stop offset="0.52" stop-color="white" stop-opacity="0.1"/>
</linearGradient>
<linearGradient id="paint27_linear_255_1036" x1="1188.37" y1="818.496" x2="1277.22" y2="981.724" gradientUnits="userSpaceOnUse">
<stop stop-color="white"/>
<stop offset="0.05" stop-color="white" stop-opacity="0.98"/>
<stop offset="0.12" stop-color="white" stop-opacity="0.91"/>
<stop offset="0.2" stop-color="white" stop-opacity="0.79"/>
<stop offset="0.29" stop-color="white" stop-opacity="0.63"/>
<stop offset="0.39" stop-color="white" stop-opacity="0.42"/>
<stop offset="0.49" stop-color="white" stop-opacity="0.18"/>
<stop offset="0.52" stop-color="white" stop-opacity="0.1"/>
</linearGradient>
<linearGradient id="paint28_linear_255_1036" x1="564.461" y1="1888.2" x2="744.757" y2="1933.26" gradientUnits="userSpaceOnUse">
<stop stop-color="white"/>
<stop offset="0.05" stop-color="white" stop-opacity="0.98"/>
<stop offset="0.12" stop-color="white" stop-opacity="0.91"/>
<stop offset="0.2" stop-color="white" stop-opacity="0.79"/>
<stop offset="0.29" stop-color="white" stop-opacity="0.63"/>
<stop offset="0.39" stop-color="white" stop-opacity="0.42"/>
<stop offset="0.49" stop-color="white" stop-opacity="0.18"/>
<stop offset="0.52" stop-color="white" stop-opacity="0.1"/>
</linearGradient>
<linearGradient id="paint29_linear_255_1036" x1="630.121" y1="2595.65" x2="749.811" y2="2563.58" gradientUnits="userSpaceOnUse">
<stop stop-color="white"/>
<stop offset="0.05" stop-color="white" stop-opacity="0.98"/>
<stop offset="0.12" stop-color="white" stop-opacity="0.91"/>
<stop offset="0.2" stop-color="white" stop-opacity="0.79"/>
<stop offset="0.29" stop-color="white" stop-opacity="0.63"/>
<stop offset="0.39" stop-color="white" stop-opacity="0.42"/>
<stop offset="0.49" stop-color="white" stop-opacity="0.18"/>
<stop offset="0.52" stop-color="white" stop-opacity="0.1"/>
</linearGradient>
<linearGradient id="paint30_linear_255_1036" x1="1716.69" y1="3271.43" x2="1793.55" y2="3102.22" gradientUnits="userSpaceOnUse">
<stop stop-color="white"/>
<stop offset="0.05" stop-color="white" stop-opacity="0.98"/>
<stop offset="0.12" stop-color="white" stop-opacity="0.91"/>
<stop offset="0.2" stop-color="white" stop-opacity="0.79"/>
<stop offset="0.29" stop-color="white" stop-opacity="0.63"/>
<stop offset="0.39" stop-color="white" stop-opacity="0.42"/>
<stop offset="0.49" stop-color="white" stop-opacity="0.18"/>
<stop offset="0.52" stop-color="white" stop-opacity="0.1"/>
</linearGradient>
<linearGradient id="paint31_linear_255_1036" x1="896.286" y1="1648.19" x2="1060.47" y2="1735.26" gradientUnits="userSpaceOnUse">
<stop stop-color="white"/>
<stop offset="0.05" stop-color="white" stop-opacity="0.98"/>
<stop offset="0.12" stop-color="white" stop-opacity="0.91"/>
<stop offset="0.2" stop-color="white" stop-opacity="0.79"/>
<stop offset="0.29" stop-color="white" stop-opacity="0.63"/>
<stop offset="0.39" stop-color="white" stop-opacity="0.42"/>
<stop offset="0.49" stop-color="white" stop-opacity="0.18"/>
<stop offset="0.52" stop-color="white" stop-opacity="0.1"/>
</linearGradient>
<linearGradient id="paint32_linear_255_1036" x1="715.666" y1="1459.79" x2="879.85" y2="1546.86" gradientUnits="userSpaceOnUse">
<stop stop-color="white"/>
<stop offset="0.05" stop-color="white" stop-opacity="0.98"/>
<stop offset="0.12" stop-color="white" stop-opacity="0.91"/>
<stop offset="0.2" stop-color="white" stop-opacity="0.79"/>
<stop offset="0.29" stop-color="white" stop-opacity="0.63"/>
<stop offset="0.39" stop-color="white" stop-opacity="0.42"/>
<stop offset="0.49" stop-color="white" stop-opacity="0.18"/>
<stop offset="0.52" stop-color="white" stop-opacity="0.1"/>
</linearGradient>
<linearGradient id="paint33_linear_255_1036" x1="1185.64" y1="3153.36" x2="1256.67" y2="3049.96" gradientUnits="userSpaceOnUse">
<stop stop-color="white"/>
<stop offset="0.05" stop-color="white" stop-opacity="0.98"/>
<stop offset="0.12" stop-color="white" stop-opacity="0.91"/>
<stop offset="0.2" stop-color="white" stop-opacity="0.79"/>
<stop offset="0.29" stop-color="white" stop-opacity="0.63"/>
<stop offset="0.39" stop-color="white" stop-opacity="0.42"/>
<stop offset="0.49" stop-color="white" stop-opacity="0.18"/>
<stop offset="0.52" stop-color="white" stop-opacity="0.1"/>
</linearGradient>
<linearGradient id="paint34_linear_255_1036" x1="761.282" y1="3160.82" x2="860.677" y2="3084.3" gradientUnits="userSpaceOnUse">
<stop stop-color="white"/>
<stop offset="0.05" stop-color="white" stop-opacity="0.98"/>
<stop offset="0.12" stop-color="white" stop-opacity="0.91"/>
<stop offset="0.2" stop-color="white" stop-opacity="0.79"/>
<stop offset="0.29" stop-color="white" stop-opacity="0.63"/>
<stop offset="0.39" stop-color="white" stop-opacity="0.42"/>
<stop offset="0.49" stop-color="white" stop-opacity="0.18"/>
<stop offset="0.52" stop-color="white" stop-opacity="0.1"/>
</linearGradient>
<linearGradient id="paint35_linear_255_1036" x1="2790.91" y1="1028.24" x2="2721.67" y2="1174.28" gradientUnits="userSpaceOnUse">
<stop stop-color="white"/>
<stop offset="0.52" stop-color="white" stop-opacity="0.1"/>
</linearGradient>
<linearGradient id="paint36_linear_255_1036" x1="2772.95" y1="2883.55" x2="2641.26" y2="2789.85" gradientUnits="userSpaceOnUse">
<stop stop-color="white"/>
<stop offset="0.52" stop-color="white" stop-opacity="0.1"/>
</linearGradient>
<linearGradient id="paint37_linear_255_1036" x1="2064.14" y1="3234.26" x2="2079.67" y2="3073.39" gradientUnits="userSpaceOnUse">
<stop stop-color="white"/>
<stop offset="0.52" stop-color="white" stop-opacity="0.1"/>
</linearGradient>
<linearGradient id="paint38_linear_255_1036" x1="1105.3" y1="1084.6" x2="1172.31" y2="1167.24" gradientUnits="userSpaceOnUse">
<stop stop-color="white"/>
<stop offset="1" stop-color="white" stop-opacity="0.1"/>
</linearGradient>
<linearGradient id="paint39_linear_255_1036" x1="655.826" y1="1378.97" x2="813.579" y2="1477.21" gradientUnits="userSpaceOnUse">
<stop stop-color="white"/>
<stop offset="0.05" stop-color="white" stop-opacity="0.98"/>
<stop offset="0.12" stop-color="white" stop-opacity="0.91"/>
<stop offset="0.2" stop-color="white" stop-opacity="0.79"/>
<stop offset="0.29" stop-color="white" stop-opacity="0.63"/>
<stop offset="0.39" stop-color="white" stop-opacity="0.42"/>
<stop offset="0.49" stop-color="white" stop-opacity="0.18"/>
<stop offset="0.52" stop-color="white" stop-opacity="0.1"/>
</linearGradient>
<linearGradient id="paint40_linear_255_1036" x1="2983.98" y1="1148.7" x2="2885.92" y2="1277.17" gradientUnits="userSpaceOnUse">
<stop stop-color="white"/>
<stop offset="0.52" stop-color="white" stop-opacity="0.1"/>
</linearGradient>
<linearGradient id="paint41_linear_255_1036" x1="3291.15" y1="1539.73" x2="3148.83" y2="1616.32" gradientUnits="userSpaceOnUse">
<stop stop-color="white"/>
<stop offset="0.52" stop-color="white" stop-opacity="0.1"/>
</linearGradient>
</defs>
</svg>
