<svg width="244" height="81" viewBox="0 0 244 81" fill="none" xmlns="http://www.w3.org/2000/svg">
<path d="M2 73L51.4845 73C51.4845 54.1696 58.9138 36.1105 72.138 22.7954C85.3623 9.48033 103.298 2 122 2C140.702 2 158.638 9.48034 171.862 22.7954C185.086 36.1105 192.515 54.1696 192.515 73L242 73" stroke="#0E8347" stroke-width="3" stroke-linecap="round" stroke-linejoin="round" stroke-dasharray="1 8"/>
<mask id="mask0_145_1870" style="mask-type:alpha" maskUnits="userSpaceOnUse" x="92" y="21" width="60" height="60">
<rect x="92" y="21" width="60" height="60" fill="#D9D9D9"/>
</mask>
<g mask="url(#mask0_145_1870)">
<path d="M144.043 67.9977V48.8477C144.047 47.9965 143.758 47.1697 143.226 46.5055C142.694 45.8412 141.95 45.3796 141.118 45.1977L136.218 44.0727C136.108 44.0426 135.992 44.0388 135.88 44.0614C135.769 44.084 135.663 44.1324 135.574 44.2029C135.484 44.2733 135.412 44.3638 135.363 44.467C135.314 44.5703 135.29 44.6835 135.293 44.7977V72.2477C135.293 72.4466 135.372 72.6374 135.513 72.778C135.654 72.9187 135.844 72.9977 136.043 72.9977H139.043C139.722 73.0935 140.414 73.0302 141.064 72.8129C141.715 72.5955 142.306 72.2299 142.791 71.7451C143.275 71.2602 143.641 70.6693 143.858 70.0189C144.076 69.3686 144.139 68.6767 144.043 67.9977Z" fill="#9CCD5A"/>
<path d="M131.543 37.5226V72.2476C131.543 72.4465 131.464 72.6373 131.324 72.7779C131.183 72.9186 130.992 72.9976 130.793 72.9976H121.043C120.85 72.9941 120.665 72.9173 120.526 72.7828C120.387 72.6482 120.304 72.4659 120.293 72.2726V62.9976C120.293 61.6715 119.767 60.3998 118.829 59.4621C117.891 58.5244 116.62 57.9976 115.293 57.9976C113.967 57.9976 112.696 58.5244 111.758 59.4621C110.82 60.3998 110.293 61.6715 110.293 62.9976V72.2476C110.288 72.4323 110.217 72.6091 110.094 72.7464C109.97 72.8838 109.802 72.9728 109.618 72.9976H104.043C103.364 73.0934 102.672 73.0302 102.022 72.8128C101.372 72.5954 100.781 72.2298 100.296 71.745C99.8112 71.2601 99.4456 70.6692 99.2283 70.0189C99.0109 69.3685 98.9476 68.6766 99.0434 67.9976V31.7476C99.0438 31.1831 99.1716 30.626 99.4173 30.1177C99.663 29.6095 100.02 29.1633 100.463 28.8124C100.905 28.4615 101.42 28.215 101.971 28.0912C102.522 27.9675 103.094 27.9696 103.643 28.0976L128.643 33.8726C129.47 34.0599 130.208 34.5237 130.736 35.1874C131.263 35.8511 131.548 36.6749 131.543 37.5226ZM113.418 50.4976C113.415 50.0013 113.217 49.5263 112.866 49.1754C112.515 48.8245 112.04 48.6259 111.543 48.6226H109.043C108.546 48.6226 108.069 48.8201 107.718 49.1718C107.366 49.5234 107.168 50.0003 107.168 50.4976C107.168 50.9949 107.366 51.4718 107.718 51.8234C108.069 52.1751 108.546 52.3726 109.043 52.3726H111.543C112.04 52.3693 112.515 52.1707 112.866 51.8198C113.217 51.4689 113.415 50.9939 113.418 50.4976ZM113.418 42.9976C113.415 42.5013 113.217 42.0263 112.866 41.6754C112.515 41.3245 112.04 41.1259 111.543 41.1226H109.043C108.546 41.1226 108.069 41.3201 107.718 41.6718C107.366 42.0234 107.168 42.5003 107.168 42.9976C107.168 43.4949 107.366 43.9718 107.718 44.3234C108.069 44.6751 108.546 44.8726 109.043 44.8726H111.543C112.04 44.8693 112.515 44.6707 112.866 44.3198C113.217 43.9689 113.415 43.4939 113.418 42.9976ZM123.418 50.4976C123.415 50.0013 123.217 49.5263 122.866 49.1754C122.515 48.8245 122.04 48.6259 121.543 48.6226H119.043C118.546 48.6226 118.069 48.8201 117.718 49.1718C117.366 49.5234 117.168 50.0003 117.168 50.4976C117.168 50.9949 117.366 51.4718 117.718 51.8234C118.069 52.1751 118.546 52.3726 119.043 52.3726H121.543C122.04 52.3693 122.515 52.1707 122.866 51.8198C123.217 51.4689 123.415 50.9939 123.418 50.4976ZM123.418 42.9976C123.415 42.5013 123.217 42.0263 122.866 41.6754C122.515 41.3245 122.04 41.1259 121.543 41.1226H119.043C118.546 41.1226 118.069 41.3201 117.718 41.6718C117.366 42.0234 117.168 42.5003 117.168 42.9976C117.168 43.4949 117.366 43.9718 117.718 44.3234C118.069 44.6751 118.546 44.8726 119.043 44.8726H121.543C122.04 44.8693 122.515 44.6707 122.866 44.3198C123.217 43.9689 123.415 43.4939 123.418 42.9976Z" fill="#0E8347"/>
</g>
</svg>
