<svg width="244" height="80" viewBox="0 0 244 80" fill="none" xmlns="http://www.w3.org/2000/svg">
<path d="M2 73L51.4845 73C51.4845 54.1696 58.9138 36.1105 72.138 22.7954C85.3623 9.48033 103.298 2 122 2C140.702 2 158.638 9.48034 171.862 22.7954C185.086 36.1105 192.515 54.1696 192.515 73L242 73" stroke="#0E8347" stroke-width="3" stroke-linecap="round" stroke-linejoin="round" stroke-dasharray="1 8"/>
<mask id="mask0_145_430" style="mask-type:alpha" maskUnits="userSpaceOnUse" x="92" y="20" width="60" height="60">
<rect x="92" y="20" width="60" height="60" fill="#D9D9D9"/>
</mask>
<g mask="url(#mask0_145_430)">
<path d="M102.055 50.0867H97.4063C96.63 50.0867 96 49.4871 96 48.7482C96 48.0093 96.63 47.4096 97.4063 47.4096H102.055C102.831 47.4096 103.461 48.0093 103.461 48.7482C103.461 49.4871 102.831 50.0867 102.055 50.0867Z" fill="#F5F3B2"/>
<path d="M146.594 50.0867H141.945C141.169 50.0867 140.539 49.4871 140.539 48.7482C140.539 48.0093 141.169 47.4096 141.945 47.4096H146.594C147.37 47.4096 148 48.0093 148 48.7482C148 49.4871 147.37 50.0867 146.594 50.0867Z" fill="#F5F3B2"/>
<path d="M107.897 36.6627C107.537 36.6627 107.177 36.532 106.902 36.2708L103.615 33.1418C103.066 32.6192 103.066 31.7711 103.615 31.2485C104.164 30.7259 105.055 30.7259 105.604 31.2485L108.891 34.3775C109.44 34.9001 109.44 35.7482 108.891 36.2708C108.617 36.532 108.257 36.6627 107.897 36.6627Z" fill="#F5F3B2"/>
<path d="M139.39 66.6398C139.03 66.6398 138.67 66.5091 138.396 66.2479C137.112 65.0259 136.392 64.3408 135.109 63.1189C134.56 62.5963 134.56 61.7482 135.109 61.2256C135.658 60.703 136.549 60.703 137.098 61.2256L140.385 64.3546C140.934 64.8772 140.934 65.7253 140.385 66.2479C140.11 66.5091 139.75 66.6398 139.39 66.6398Z" fill="#F5F3B2"/>
<path d="M122 31.1018C121.224 31.1018 120.594 30.5021 120.594 29.7633V25.3386C120.594 24.5997 121.224 24 122 24C122.776 24 123.406 24.5997 123.406 25.3386V29.7633C123.406 30.5021 122.776 31.1018 122 31.1018Z" fill="#F5F3B2"/>
<path d="M136.103 36.6627C135.743 36.6627 135.383 36.532 135.109 36.2708C134.56 35.7482 134.56 34.9001 135.109 34.3775C135.658 33.8549 138.396 31.2485 138.396 31.2485C138.945 30.7259 139.836 30.7259 140.385 31.2485C140.934 31.7711 140.934 32.6192 140.385 33.1418L137.098 36.2708C136.823 36.532 136.463 36.6627 136.103 36.6627Z" fill="#F5F3B2"/>
<path d="M104.61 66.6398C104.25 66.6398 103.89 66.5091 103.615 66.2479C103.066 65.7253 103.066 64.8772 103.615 64.3546L106.902 61.2256C107.451 60.703 108.342 60.703 108.891 61.2256C109.44 61.7482 109.44 62.5963 108.891 63.1189L105.604 66.2479C105.33 66.5091 104.97 66.6398 104.61 66.6398Z" fill="#F5F3B2"/>
<path d="M132.243 38.8665C129.442 36.2365 125.727 34.8176 121.793 34.869C113.796 34.975 107.346 41.2566 107.413 48.8713C107.447 52.6568 109.051 56.182 111.93 58.798C111.936 58.8023 111.94 58.8077 111.946 58.8119C113.511 60.1912 114.314 62.3425 114.15 64.7166C114.124 65.086 114.26 65.449 114.527 65.7199C114.792 65.9898 115.164 66.144 115.554 66.144H128.45C128.839 66.144 129.211 65.9909 129.477 65.7199C129.742 65.449 129.878 65.086 129.853 64.7155C129.686 62.35 130.498 60.1901 132.082 58.7895C132.088 58.7852 132.092 58.7798 132.098 58.7755C134.995 56.1316 136.589 52.5722 136.589 48.7535C136.589 44.9349 135.046 41.4965 132.244 38.8665H132.243Z" fill="#0E8347"/>
<path d="M127.639 48.0243C127.09 47.5017 126.199 47.5017 125.65 48.0243C124.674 48.9527 123.378 49.4635 121.999 49.4635C120.62 49.4635 119.324 48.9527 118.348 48.0243C117.799 47.5017 116.908 47.5017 116.359 48.0243C115.81 48.5469 115.81 49.395 116.359 49.9175C117.528 51.0301 118.997 51.753 120.591 52.0217V58.4136V64.8054C120.591 65.5443 121.221 66.144 121.998 66.144C122.774 66.144 123.404 65.5443 123.404 64.8054V52.0217C124.999 51.753 126.467 51.0301 127.636 49.9175C128.185 49.395 128.185 48.5469 127.636 48.0243H127.639Z" fill="#F5F3B2"/>
<path d="M128.447 67.4815H115.551C114.775 67.4815 114.145 68.0811 114.145 68.82V71.9147C114.145 74.1667 116.07 76 118.436 76H125.562C127.928 76 129.853 74.1678 129.853 71.9147V68.82C129.853 68.0811 129.223 67.4815 128.446 67.4815H128.447Z" fill="#0E8347"/>
</g>
</svg>
