<svg width="60" height="60" viewBox="0 0 60 60" fill="none" xmlns="http://www.w3.org/2000/svg">
<mask id="mask0_145_1671" style="mask-type:alpha" maskUnits="userSpaceOnUse" x="0" y="0" width="60" height="60">
<rect width="60" height="60" fill="#D9D9D9"/>
</mask>
<g mask="url(#mask0_145_1671)">
<path d="M18.8291 53.4343V35.3359C18.8291 34.88 18.6481 34.4429 18.3257 34.1205C18.0034 33.7982 17.5662 33.6171 17.1104 33.6171H12.719C12.2632 33.6171 11.826 33.7982 11.5037 34.1205C11.1813 34.4429 11.0002 34.88 11.0002 35.3359V53.4343C11.0002 53.8902 11.1813 54.3273 11.5037 54.6497C11.826 54.972 12.2632 55.1531 12.719 55.1531H17.1104C17.5662 55.1531 18.0034 54.972 18.3257 54.6497C18.6481 54.3273 18.8291 53.8902 18.8291 53.4343ZM43.751 44.3851H42.7971C43.1183 44.384 43.4366 44.4463 43.7337 44.5684C44.0308 44.6906 44.3009 44.8702 44.5285 45.0969C44.756 45.3236 44.9365 45.5931 45.0597 45.8898C45.1829 46.1864 45.2463 46.5045 45.2463 46.8257C45.2475 47.1477 45.1849 47.4667 45.0622 47.7643C44.9395 48.062 44.7592 48.3325 44.5315 48.5601C44.3039 48.7878 44.0334 48.9681 43.7357 49.0908C43.4381 49.2135 43.1191 49.2761 42.7971 49.2749H40.8549C41.4504 49.2771 42.0247 49.4962 42.4704 49.8912C42.9161 50.2862 43.2026 50.83 43.2763 51.4209C43.35 52.0118 43.2059 52.6094 42.871 53.1017C42.5361 53.5941 42.0332 53.9476 41.4565 54.096L39.4713 54.8437C36.4588 55.8318 33.2994 56.2969 30.1299 56.2187C26.6277 56.124 23.1868 55.277 20.0409 53.7351C20.0409 53.632 20.0409 53.5374 20.0409 53.4343V35.3359C20.0396 34.8687 19.9431 34.4067 19.7573 33.9781L20.4792 32.7664C21.2784 31.4343 23.5729 30.5835 23.5729 30.5835C24.0783 30.425 24.5474 30.1679 24.953 29.8272C25.3586 29.4865 25.6928 29.0689 25.9362 28.5984L29.2104 22.7031C29.6461 21.908 30.3728 21.3126 31.238 21.0418C32.1033 20.771 33.0398 20.8459 33.851 21.2507C34.6336 21.6365 35.2438 22.3007 35.5618 23.1132C35.8798 23.9257 35.8826 24.8277 35.5698 25.6421L32.5362 33.6171H41.3448C42.1228 33.6194 42.8681 33.9301 43.4175 34.481C43.9668 35.0319 44.2752 35.7782 44.2752 36.5562V37.046C44.2752 37.3666 44.2121 37.6839 44.0895 37.98C43.9668 38.2761 43.787 38.5452 43.5604 38.7718C43.3338 38.9985 43.0647 39.1782 42.7686 39.3009C42.4725 39.4235 42.1551 39.4867 41.8346 39.4867H43.7854C44.107 39.4867 44.4255 39.55 44.7227 39.6731C45.0198 39.7962 45.2898 39.9766 45.5173 40.204C45.7447 40.4315 45.9251 40.7015 46.0482 40.9986C46.1713 41.2958 46.2346 41.6143 46.2346 41.9359C46.2346 42.2575 46.1713 42.576 46.0482 42.8732C45.9251 43.1703 45.7447 43.4403 45.5173 43.6677C45.2898 43.8952 45.0198 44.0756 44.7227 44.1987C44.4255 44.3218 44.107 44.3851 43.7854 44.3851H43.751Z" fill="#0E8347"/>
<path d="M42.2166 10.5027L41.2618 8.50247C41.1799 8.35054 41.0587 8.22362 40.9107 8.13516C40.7628 8.0467 40.5938 8 40.4215 8C40.2493 8 40.0802 8.0467 39.9323 8.13516C39.7844 8.22362 39.6631 8.35054 39.5813 8.50247L38.6265 10.5027C38.5579 10.6331 38.4601 10.7459 38.3409 10.8322C38.2216 10.9185 38.0841 10.9761 37.939 11.0003L35.7333 11.3257C35.5746 11.3637 35.4281 11.4419 35.3081 11.5528C35.188 11.6636 35.0983 11.8035 35.0476 11.959C34.9968 12.1145 34.9867 12.2805 35.0181 12.4411C35.0496 12.6016 35.1216 12.7514 35.2273 12.8761L36.8887 14.4361C36.9932 14.5416 37.0718 14.67 37.1182 14.8112C37.1646 14.9524 37.1776 15.1025 37.156 15.2496L36.7741 17.4508C36.7617 17.6139 36.7911 17.7774 36.8597 17.9259C36.9283 18.0743 37.0337 18.2027 37.1659 18.2986C37.298 18.3946 37.4525 18.4551 37.6146 18.4742C37.7767 18.4933 37.941 18.4704 38.0918 18.4078L39.9918 17.3646C40.1239 17.2989 40.2693 17.2646 40.4167 17.2646C40.5642 17.2646 40.7096 17.2989 40.8416 17.3646L42.8086 18.4078C42.9593 18.4704 43.1236 18.4933 43.2857 18.4742C43.4478 18.4551 43.6023 18.3946 43.7344 18.2986C43.8666 18.2027 43.972 18.0743 44.0406 17.9259C44.1092 17.7774 44.1387 17.6139 44.1262 17.4508L43.7538 15.2496C43.7311 15.1032 43.7425 14.9536 43.7873 14.8124C43.832 14.6713 43.9088 14.5424 44.0116 14.4361L45.6062 12.8761C45.7119 12.752 45.7842 12.6029 45.8162 12.443C45.8482 12.283 45.8389 12.1175 45.7892 11.9622C45.7394 11.8068 45.6509 11.6668 45.532 11.5554C45.413 11.444 45.2677 11.365 45.1097 11.3257L42.9041 11.0003C42.759 10.9761 42.6214 10.9185 42.5022 10.8322C42.3829 10.7459 42.2852 10.6331 42.2166 10.5027Z" fill="#9CCD5A"/>
<path d="M53.0442 13.5843L53.9131 11.8234C53.9923 11.6641 54.1142 11.5301 54.2652 11.4365C54.4162 11.3429 54.5902 11.2932 54.7677 11.2932C54.9452 11.2932 55.1192 11.3429 55.2702 11.4365C55.4212 11.5301 55.5431 11.6641 55.6223 11.8234L56.5484 13.5843C56.6163 13.7236 56.717 13.8443 56.8417 13.936C56.9665 14.0277 57.1116 14.0877 57.2646 14.1107L59.1742 14.3882C59.3518 14.4125 59.519 14.4863 59.6567 14.6014C59.7944 14.7164 59.897 14.8679 59.9528 15.0387C60.0086 15.2094 60.0153 15.3925 59.9722 15.5668C59.929 15.7412 59.8378 15.8999 59.7089 16.0248L58.3053 17.3933C58.1948 17.5009 58.1119 17.6337 58.0637 17.7803C58.0155 17.927 58.0034 18.0832 58.0284 18.2355L58.3626 20.1496C58.3952 20.3272 58.377 20.5104 58.3101 20.6781C58.2431 20.8457 58.1303 20.991 57.9845 21.0971C57.8387 21.2032 57.6659 21.2658 57.4862 21.2776C57.3064 21.2895 57.127 21.2501 56.9686 21.164L55.2403 20.207C55.1034 20.1349 54.951 20.0972 54.7963 20.0972C54.6417 20.0972 54.4893 20.1349 54.3524 20.207L52.6146 21.164C52.4565 21.2474 52.2782 21.2846 52.1 21.2714C51.9218 21.2583 51.7509 21.1953 51.6067 21.0896C51.4625 20.9839 51.3507 20.8398 51.2841 20.6736C51.2176 20.5075 51.1988 20.3259 51.2301 20.1496L51.5643 18.2355C51.5893 18.0832 51.5772 17.927 51.529 17.7803C51.4808 17.6337 51.3979 17.5009 51.2874 17.3933L49.8838 16.0248C49.7549 15.8999 49.6636 15.7412 49.6205 15.5668C49.5774 15.3925 49.5841 15.2094 49.6399 15.0387C49.6957 14.8679 49.7983 14.7164 49.936 14.6014C50.0737 14.4863 50.2409 14.4125 50.4185 14.3882L52.3281 14.1107C52.4811 14.0877 52.6262 14.0277 52.751 13.936C52.8757 13.8443 52.9764 13.7236 53.0442 13.5843Z" fill="#9CCD5A"/>
<path d="M45.4057 24.4371L46.0836 23.059V23.0877C46.1283 22.9709 46.2066 22.87 46.3086 22.7979C46.4106 22.7258 46.5317 22.6856 46.6565 22.6825C46.7812 22.6795 46.9041 22.7136 47.0095 22.7806C47.1149 22.8476 47.1981 22.9445 47.2485 23.059L47.936 24.4371C47.9786 24.5294 48.0439 24.6095 48.1257 24.6697C48.2075 24.7299 48.3032 24.7684 48.4038 24.7816L49.9315 25.0113C50.0484 25.0265 50.1585 25.0746 50.249 25.1502C50.3396 25.2257 50.4068 25.3255 50.4428 25.4379C50.4789 25.5503 50.4823 25.6707 50.4526 25.785C50.4229 25.8992 50.3614 26.0027 50.2753 26.0832L49.1772 27.1647C49.1025 27.2342 49.0467 27.3216 49.015 27.4187C48.9832 27.5158 48.9766 27.6194 48.9958 27.7197L49.2536 29.2414C49.2751 29.3571 49.2635 29.4765 49.2201 29.5857C49.1767 29.695 49.1032 29.7897 49.0082 29.8589C48.9133 29.928 48.8007 29.9687 48.6836 29.9763C48.5665 29.9839 48.4496 29.9581 48.3465 29.9018L46.9811 29.184C46.8912 29.137 46.7913 29.1125 46.6899 29.1125C46.5885 29.1125 46.4886 29.137 46.3987 29.184L45.0333 29.9018C44.9289 29.9682 44.8072 30.0023 44.6836 29.9999C44.5599 29.9975 44.4397 29.9587 44.3379 29.8882C44.2361 29.8178 44.1572 29.719 44.1111 29.604C44.065 29.4889 44.0536 29.3629 44.0785 29.2414L44.3363 27.7197C44.3549 27.6202 44.349 27.5176 44.319 27.4208C44.289 27.3241 44.236 27.2362 44.1644 27.1647L43.0568 26.0832C42.9707 26.0027 42.9092 25.8992 42.8795 25.785C42.8498 25.6707 42.8532 25.5503 42.8893 25.4379C42.9253 25.3255 42.9925 25.2257 43.0831 25.1502C43.1736 25.0746 43.2837 25.0265 43.4006 25.0113L44.9283 24.7816C45.0301 24.7683 45.127 24.7298 45.2103 24.6697C45.2936 24.6095 45.3607 24.5296 45.4057 24.4371Z" fill="#9CCD5A"/>
</g>
</svg>
