<svg width="92" height="58" viewBox="0 0 92 58" fill="none" xmlns="http://www.w3.org/2000/svg">
<path d="M9.5418 0H81.5555C86.8234 0 91.1 4.27265 91.1 9.5357V37.3898C91.1 42.6528 86.8234 46.9255 81.5555 46.9255H9.5418C4.2739 46.9255 -0.00268555 42.6528 -0.00268555 37.3898V9.5357C-0.00268555 4.27265 4.2739 0 9.5418 0Z" fill="#4F83C2"/>
<path d="M17.8733 40.6147V58L37.716 40.6147H17.8733Z" fill="#4F83C2"/>
<path d="M24.772 28.5005C27.4371 28.5005 29.5975 26.3421 29.5975 23.6795C29.5975 21.0169 27.4371 18.8584 24.772 18.8584C22.107 18.8584 19.9465 21.0169 19.9465 23.6795C19.9465 26.3421 22.107 28.5005 24.772 28.5005Z" fill="white"/>
<path d="M49.6368 23.6793C49.6368 26.3394 47.474 28.5003 44.8113 28.5003C42.1487 28.5003 39.9858 26.3394 39.9858 23.6793C39.9858 21.0191 42.1487 18.8582 44.8113 18.8582C47.474 18.8582 49.6368 21.0191 49.6368 23.6793Z" fill="white"/>
<path d="M64.8423 28.5003C67.5074 28.5003 69.6678 26.3419 69.6678 23.6793C69.6678 21.0167 67.5074 18.8582 64.8423 18.8582C62.1773 18.8582 60.0168 21.0167 60.0168 23.6793C60.0168 26.3419 62.1773 28.5003 64.8423 28.5003Z" fill="white"/>
</svg>
