<svg width="182" height="253" viewBox="0 0 182 253" fill="none" xmlns="http://www.w3.org/2000/svg">
<path d="M182 252.404V38.9792H0V197.719C0 205.887 6.63276 212.514 14.8085 212.514H136.633L182 252.414V252.404Z" fill="#D7E8F7"/>
<path d="M182 38.9792L0 38.9792V13.7338C0 6.15622 6.16185 2.67029e-05 13.7464 2.67029e-05L168.254 2.67029e-05C175.838 2.67029e-05 182 6.15622 182 13.7338V38.9792Z" fill="#4F83C2"/>
<path d="M39.0154 29.1494C43.8461 29.1494 47.7622 25.237 47.7622 20.4107C47.7622 15.5844 43.8461 11.6719 39.0154 11.6719C34.1846 11.6719 30.2686 15.5844 30.2686 20.4107C30.2686 25.237 34.1846 29.1494 39.0154 29.1494Z" fill="#C1DDF7"/>
<path d="M66.9285 29.1494C71.7592 29.1494 75.6753 25.237 75.6753 20.4107C75.6753 15.5844 71.7592 11.6719 66.9285 11.6719C62.0977 11.6719 58.1816 15.5844 58.1816 20.4107C58.1816 25.237 62.0977 29.1494 66.9285 29.1494Z" fill="#C1DDF7"/>
<path d="M103.589 20.4107C103.589 25.2356 99.6718 29.1495 94.8425 29.1495C90.0132 29.1495 86.0957 25.2356 86.0957 20.4107C86.0957 15.5859 90.0132 11.6719 94.8425 11.6719C99.6718 11.6719 103.589 15.5859 103.589 20.4107Z" fill="#C1DDF7"/>
<path d="M133.716 128.674C140.218 100.999 123.033 73.2982 95.333 66.8021C67.6327 60.3059 39.9062 77.4746 33.404 105.149C26.9019 132.824 44.0864 160.525 71.7867 167.022C99.487 173.518 127.214 156.349 133.716 128.674Z" fill="#F8FCFF"/>
<path d="M116.484 136.007H110.553V120.972C110.553 117.699 107.888 115.036 104.611 115.036C101.335 115.036 98.67 117.699 98.67 120.972V136.007H90.6947V113.935C90.6947 110.661 88.0296 107.999 84.7533 107.999C81.477 107.999 78.8118 110.661 78.8118 113.935V136.007H70.8465V93.314C70.8465 90.0407 68.1814 87.3781 64.9051 87.3781C61.6288 87.3781 58.9637 90.0407 58.9637 93.314V136.007H53.0323C52.1606 136.007 51.4492 136.718 51.4492 137.589C51.4492 138.459 52.1606 139.17 53.0323 139.17H116.484C117.356 139.17 118.067 138.459 118.067 137.589C118.067 136.718 117.356 136.007 116.484 136.007Z" fill="#FC6158"/>
</svg>
