<svg width="193" height="153" viewBox="0 0 193 153" fill="none" xmlns="http://www.w3.org/2000/svg">
<path d="M-0.00268555 152.82V23.5969H192.913V119.706C192.913 124.655 188.897 128.662 183.95 128.662H27.4686L-0.00268555 152.82Z" fill="#D7E8F7"/>
<path d="M94.7695 76.5449C94.7695 76.5449 94.7695 76.5026 94.7695 76.4784C94.7635 76.424 94.7514 76.3757 94.7514 76.3213C94.7514 76.2971 94.7393 76.279 94.7393 76.2548V35.4484C72.899 36.2823 55.4436 54.2291 55.4436 76.2548C55.4436 98.2805 73.7517 117.104 96.3299 117.104C98.3017 117.104 100.243 116.953 102.142 116.687C101.513 113.285 100.842 109.665 100.177 106.039C97.461 91.2891 94.7635 76.5388 94.7635 76.5388L94.7695 76.5449Z" fill="#4F83C2"/>
<path d="M97.927 70.5805L116.169 40.5422C110.731 37.5208 104.532 35.708 97.927 35.4542V70.5805Z" fill="#FC6158"/>
<path d="M118.89 42.1859L97.927 76.2789C99.6568 85.7418 102.929 103.429 105.282 116.119C123.058 112.155 136.467 96.6308 137.186 77.85V74.6716C136.666 61.0996 129.523 49.2257 118.89 42.1859Z" fill="#C1DDF7"/>
<path d="M8.31975 0H184.597C189.187 0 192.919 3.72231 192.919 8.31478V23.5968H-0.00268555V8.31478C-0.00268555 3.72836 3.72306 0 8.31975 0Z" fill="#4F83C2"/>
<path d="M52.9196 17.6448C55.8458 17.6448 58.2179 15.2749 58.2179 12.3514C58.2179 9.42793 55.8458 7.05798 52.9196 7.05798C49.9935 7.05798 47.6213 9.42793 47.6213 12.3514C47.6213 15.2749 49.9935 17.6448 52.9196 17.6448Z" fill="#C1DDF7"/>
<path d="M36.0205 17.6448C38.9466 17.6448 41.3188 15.2748 41.3188 12.3513C41.3188 9.42787 38.9466 7.05792 36.0205 7.05792C33.0943 7.05792 30.7222 9.42787 30.7222 12.3513C30.7222 15.2748 33.0943 17.6448 36.0205 17.6448Z" fill="#C1DDF7"/>
<path d="M19.122 17.6448C22.0482 17.6448 24.4203 15.2748 24.4203 12.3513C24.4203 9.42787 22.0482 7.05792 19.122 7.05792C16.1959 7.05792 13.8237 9.42787 13.8237 12.3513C13.8237 15.2748 16.1959 17.6448 19.122 17.6448Z" fill="#C1DDF7"/>
</svg>
