<svg width="338" height="80" viewBox="0 0 338 80" fill="none" xmlns="http://www.w3.org/2000/svg">
<path d="M15.6256 3.5384C17.3904 1.11738 19.7848 0.532064 22.7202 1.80022C24.6446 2.55401 25.7974 3.57389 26.1344 4.8243C26.4714 6.05698 26.0103 7.48475 24.7687 9.08103C22.7113 11.573 20.4322 14.0029 17.9846 16.3263C15.4216 18.8094 12.8233 21.0443 10.2692 22.9598C8.93899 23.9175 7.73291 24.4053 6.6776 24.4053C6.47363 24.4053 6.27853 24.3875 6.08343 24.352C4.86849 24.1303 3.76883 23.1637 2.79333 21.4699C1.0729 18.4813 1.72028 15.9273 4.71773 13.861C8.92125 10.7483 12.6016 7.27192 15.6345 3.5384H15.6256ZM34.0892 30.9589C32.9807 29.8592 32.422 28.4137 32.422 26.6667V8.38928C32.422 6.64225 32.9807 5.19676 34.0892 4.0971C35.1977 2.99745 36.6521 2.44763 38.408 2.44763H69.1275C70.8922 2.44763 72.3466 3.00632 73.4463 4.0971C74.5548 5.19676 75.1135 6.64225 75.1135 8.38928V26.6667C75.1135 28.4137 74.5548 29.8592 73.4463 30.9589C72.3377 32.0585 70.8834 32.6083 69.1275 32.6083H38.408C36.6432 32.6083 35.1889 32.0497 34.0892 30.9589ZM64.0815 13.7014V11.7769C64.0815 10.7837 63.6558 10.3581 62.6448 10.3581H44.6424C43.5161 10.3581 43.0372 10.8369 43.0372 11.9454V13.7014H64.0815ZM44.5537 24.6979H62.4763C63.6026 24.6979 64.0815 24.2191 64.0815 23.1105V21.1861H43.0372V23.1992C43.0372 24.2545 43.4895 24.7068 44.5537 24.7068V24.6979ZM55.905 70.1386H54.4683C51.666 70.0765 49.8569 70.6264 48.9612 71.8413C48.2429 72.8168 48.1719 74.1736 48.7483 75.8852C49.6263 78.4481 51.7813 79.7517 55.1334 79.7517C55.2842 79.7517 55.4261 79.7517 55.5769 79.7517C59.1507 79.6364 61.8733 79.1664 63.6735 78.3594C65.3585 77.6411 66.5557 76.5414 67.2297 75.0959C67.8327 73.8366 68.1254 72.0009 68.1254 69.4912V57.9182H74.8475C77.9247 57.9182 79.5565 56.2687 79.5565 53.156C79.5565 50.0433 77.9602 48.4824 74.9273 48.4824H68.1165V44.545H73.3931C76.3639 44.545 77.9336 42.9576 77.9336 39.9601C77.9336 36.9627 76.3639 35.455 73.3931 35.455H32.5993C29.6285 35.455 28.0588 37.0159 28.0588 39.9601C28.0588 42.9044 29.6285 44.545 32.5993 44.545H56.9869V48.4824H30.808C27.7307 48.4824 26.099 50.0965 26.099 53.156C26.099 56.2155 27.7307 57.9182 30.808 57.9182H36.8738L36.191 58.3793C34.7809 59.3548 33.9828 60.5255 33.8232 61.8646C33.6635 63.2125 34.1779 64.5161 35.3396 65.7222C36.6876 67.2298 37.9114 68.7019 38.9756 70.0854C39.96 71.4865 41.0419 72.2581 42.2125 72.3911C43.2235 72.4443 44.4473 71.9832 45.9105 70.9545C47.2674 69.979 48.03 69.0212 48.2606 68.0279C48.4912 67.0258 48.101 65.8641 47.0989 64.5516C45.2543 62.4144 43.1348 60.1885 40.7847 57.9271H56.9869V69.2429C56.9869 69.6863 56.8539 70.1031 55.8961 70.1563L55.905 70.1386ZM1.56952 45.5471C2.53615 47.7109 3.74222 48.9258 5.1434 49.1475C6.54458 49.3693 8.14085 48.6864 10.0209 47.0547C10.4377 46.6999 10.9964 46.1501 11.6704 45.4229L11.7679 45.3254V74.555C11.7679 77.9958 13.6037 79.8227 17.0711 79.8227C20.5386 79.8227 22.3832 78.0047 22.3832 74.555V33.5839C24.1125 31.3136 25.691 29.1586 27.0922 27.1544C27.9879 25.7 28.2628 24.3875 27.9081 23.2435C27.5356 22.0552 26.4714 21.0797 24.7599 20.3348C21.8068 19.0578 19.4744 19.7406 17.8249 22.3479C14.0559 27.5979 9.31145 32.6084 3.75109 37.2287C2.19916 38.417 1.24139 39.6763 0.904402 40.9799C0.56741 42.2924 0.789115 43.8266 1.56952 45.5471ZM151.513 45.9905C150.52 46.3629 149.261 46.6467 147.753 46.8418C150.608 47.6666 153.26 48.5357 155.654 49.4313C156.479 49.7772 157.011 50.3891 157.251 51.2493C157.446 51.9765 157.348 52.7481 156.958 53.5462H160.7C163.725 53.5462 165.33 55.1336 165.33 58.1399C165.33 61.1462 163.733 62.7248 160.7 62.7248H137.563C141.652 66.0415 148.179 68.1876 156.994 69.1188C160.106 69.2961 162.279 69.8726 163.618 70.9013C164.78 71.7881 165.782 73.4376 163.982 76.3109C162.527 78.5988 159.778 79.5832 155.796 79.2285H155.788C148.657 78.4392 142.76 77.0026 138.246 74.9629C133.777 72.9941 129.99 70.1652 127.001 66.5558C122.213 72.533 112.449 76.7986 97.9669 79.2285C97.3017 79.326 96.6632 79.3704 96.0336 79.3704C95.0936 79.3704 94.1979 79.264 93.3465 79.0511C91.5463 78.6964 90.2515 77.9515 89.4977 76.8341C88.2384 74.954 88.469 73.207 90.1806 71.7615C91.5463 70.6441 93.5771 69.8636 96.2021 69.4646C105.035 67.7796 111.482 65.5183 115.375 62.7336H92.6903C89.6662 62.7336 88.0699 61.1462 88.0699 58.1488C88.0699 55.1513 89.6662 53.5551 92.6903 53.5551H120.581V51.0365C120.581 47.5335 122.443 45.6889 125.973 45.6889C129.502 45.6889 131.364 47.5424 131.364 51.0365V53.5551H143.062C142.068 53.2181 141.332 52.9697 140.853 52.8101C139.532 52.4377 138.681 51.7282 138.353 50.7084C138.025 49.7063 138.273 48.5889 139.089 47.4005L139.257 47.17C138.84 47.17 138.521 46.9128 138.424 46.496C138.166 45.2633 137.661 43.6848 136.925 41.7958L135.843 42.4521C132.047 44.5982 128.704 43.9951 125.884 40.6696C124.669 39.2861 124.146 37.9115 124.332 36.599C124.474 35.6147 125.024 34.7367 125.981 33.9741H121.184C118.603 33.9741 117.237 32.5906 117.237 29.9745C117.237 27.3584 118.541 26.1257 121.015 26.0637C120.669 25.3365 120.173 24.4585 119.525 23.4386C118.878 22.605 118.683 21.8246 118.984 21.1595C119.277 20.5033 120.004 20.1042 121.131 19.9711C123.977 19.5987 126.23 19.2529 127.862 18.9513C126.682 17.8428 125.299 16.6722 123.738 15.4838C123.569 15.5371 123.321 15.6169 122.966 15.7499C122.239 15.9007 121.946 16.0071 121.813 16.0692C120.368 16.486 119.224 16.1046 118.435 14.9961C117.486 13.5595 116.501 12.38 115.482 11.4577V44.3499C115.482 47.569 113.761 49.2806 110.515 49.2806C107.27 49.2806 105.46 47.5779 105.46 44.3499V33.7967H101.656V33.8588C101.656 39.3393 100.308 44.066 97.6476 47.906C95.5902 50.2028 93.4529 50.7172 91.2625 49.4757C89.5864 48.5534 88.7351 47.2498 88.7351 45.618C88.673 44.1991 89.2672 42.6383 90.4998 40.9977C91.4487 38.7895 91.9454 36.3685 91.9808 33.7967H91.3157C88.4601 33.7967 86.9437 32.2714 86.9437 29.3804C86.9437 26.4893 88.4513 25.0438 91.3157 25.0438H105.469V21.4433H96.7785C95.0137 21.4433 93.5594 20.8846 92.4597 19.7938C91.3512 18.6942 90.7925 17.2575 90.7925 15.5016V6.87286C90.7925 3.86654 92.3888 2.27913 95.4217 2.27913C98.4546 2.27913 100.042 3.86654 100.042 6.87286V11.3602C100.042 12.4687 100.521 12.9476 101.647 12.9476H105.469V4.93072C105.469 1.71156 107.216 0 110.524 0C113.832 0 115.49 1.70269 115.49 4.93072V9.71951C125.361 7.76851 132.934 4.89522 137.998 1.18831C139.009 0.372434 140.756 0.230569 143.301 0.771529C144.525 1.01097 145.438 1.45437 146.015 2.09288C146.361 2.43874 146.538 2.83782 146.529 3.26349C146.52 3.50293 146.449 3.74237 146.316 3.98181H156.107C158.386 3.98181 159.867 4.64692 160.514 5.96828C161.162 7.28078 160.842 9.01009 159.565 11.2537C156.665 15.1025 152.701 18.2507 147.735 20.6629H150.733C152.214 20.6629 153.411 21.1063 154.289 21.9754C155.167 22.8445 155.61 24.0328 155.61 25.505V26.0814H162.678C165.259 26.0814 166.624 27.4382 166.624 29.9923C166.624 32.5463 165.259 33.9918 162.678 33.9918H155.61V38.621C155.61 40.7405 155.344 42.3013 154.794 43.3921C154.174 44.5627 153.074 45.4495 151.522 46.0171L151.513 45.9905ZM149.509 10.2693H140.428C141.864 11.1916 143.301 12.2558 144.72 13.4442C145.465 13.054 146.458 12.451 147.655 11.6528C148.25 11.2449 148.87 10.7837 149.5 10.2693H149.509ZM138.521 16.1046C137.874 15.5637 137.076 14.9784 136.136 14.3399C136.029 14.2955 135.861 14.1625 135.648 13.9497C134.451 13.1693 133.511 12.5751 132.854 12.1849C131.968 12.5485 131.196 12.8589 130.557 13.0983C132.579 14.668 134.158 16.0515 135.249 17.1955C136.233 16.9205 137.333 16.5569 138.53 16.1046H138.521ZM130.247 26.0459H145.155V21.7448C140.898 23.5184 135.896 24.9551 130.247 26.0459ZM132.003 33.9563C133.794 35.5792 135.337 37.2464 136.606 38.9137C138.548 38.9669 141.084 38.9935 144.144 38.9935C145.075 38.9935 145.155 38.6122 145.155 38.2574V33.9652H132.003V33.9563ZM202.86 40.9356C204.625 40.9356 206.079 41.4943 207.179 42.5851C208.287 43.6847 208.846 45.1303 208.846 46.8773V69.7218C208.846 71.4688 208.287 72.9143 207.179 74.014C206.07 75.1136 204.616 75.6635 202.86 75.6635H181.78C180.015 75.6635 178.561 75.1048 177.453 74.014C176.344 72.9143 175.785 71.4688 175.785 69.7218V46.8773C175.785 45.1303 176.344 43.6847 177.453 42.5851C178.561 41.4854 180.015 40.9356 181.78 40.9356H202.86ZM196.377 51.471H187.846C186.72 51.471 186.241 51.9499 186.241 53.0584V63.5495C186.241 64.658 186.72 65.1369 187.846 65.1369H196.377C197.504 65.1369 197.982 64.658 197.982 63.5495V53.0584C197.982 51.9499 197.504 51.471 196.377 51.471ZM193.477 3.28124H231.877C233.641 3.28124 235.096 3.83993 236.195 4.93072C237.304 6.03037 237.863 7.47586 237.863 9.2229V28.8571C237.863 30.6041 237.304 32.0497 236.195 33.1493C235.087 34.249 233.633 34.7988 231.877 34.7988H193.477C191.713 34.7988 190.258 34.2401 189.15 33.1493C188.041 32.0497 187.482 30.6041 187.482 28.8571V9.2229C187.482 7.47586 188.041 6.03037 189.15 4.93072C190.258 3.83106 191.713 3.28124 193.477 3.28124ZM199.703 24.352H225.137C226.263 24.352 226.742 23.8732 226.742 22.7647V15.4041C226.742 14.2955 226.263 13.8166 225.137 13.8166H199.703C198.577 13.8166 198.098 14.2955 198.098 15.4041V22.7647C198.098 23.8732 198.577 24.352 199.703 24.352ZM221.208 40.9356H243.308C245.073 40.9356 246.527 41.4943 247.627 42.5851C248.735 43.6847 249.294 45.1303 249.294 46.8773V69.7218C249.294 71.4688 248.735 72.9143 247.627 74.014C246.518 75.1136 245.064 75.6635 243.308 75.6635H221.208C219.443 75.6635 217.989 75.1048 216.889 74.014C215.781 72.9143 215.222 71.4777 215.222 69.7218V46.8773C215.222 45.1303 215.781 43.6847 216.889 42.5851C217.998 41.4854 219.452 40.9356 221.208 40.9356ZM227.265 65.1369H236.657C237.783 65.1369 238.262 64.658 238.262 63.5495V53.0584C238.262 51.9499 237.783 51.471 236.657 51.471H227.265C226.139 51.471 225.66 51.9499 225.66 53.0584V63.5495C225.66 64.658 226.139 65.1369 227.265 65.1369ZM272.511 31.5885H287.427C290.504 31.5885 292.136 29.939 292.136 26.8263C292.136 23.7136 290.504 22.1527 287.427 22.1527H286.505V4.8243C286.505 1.71156 284.846 0.0620839 281.707 0.0620839C278.568 0.0620839 276.909 1.71156 276.909 4.8243V22.1527H272.502V6.8551C272.502 3.79557 270.87 2.18154 267.793 2.18154C264.716 2.18154 262.995 3.79557 262.995 6.8551V34.0184C262.995 50.1497 261.683 63.0263 259.093 72.3024C258.605 73.8721 258.597 75.1757 259.075 76.1778C259.554 77.1888 260.601 77.9869 262.179 78.5634C263.767 79.1398 265.053 79.2019 266.019 78.7585C266.986 78.3062 267.731 77.2509 268.227 75.5925C270.019 68.8616 271.314 60.1796 272.05 49.7772H276.927C278.053 49.7772 278.532 50.2561 278.532 51.3646V75.1402C278.532 78.3062 280.253 79.9823 283.498 79.9823C286.744 79.9823 288.376 78.3062 288.376 75.1402V46.3718C288.376 44.6248 287.817 43.1793 286.709 42.0796C285.6 40.98 284.146 40.4301 282.39 40.4301H272.44C272.484 38.8693 272.511 36.7143 272.511 34.0184V31.5885ZM316.169 74.892V63.2391H294.424C291.4 63.2391 289.795 61.6251 289.795 58.5656C289.795 55.506 291.391 53.9807 294.424 53.9807H296.57C296.029 53.4664 295.355 52.8544 294.557 52.1273C293.786 51.5597 293.413 50.9389 293.475 50.3004C293.555 49.52 294.282 48.8283 295.692 48.1809C298.903 46.5846 301.563 44.6514 303.603 42.4254H298.601C296.836 42.4254 295.4 41.8845 294.318 40.8203C293.236 39.7561 292.695 38.3195 292.695 36.5724V13.8078C292.695 12.0608 293.254 10.6152 294.362 9.51556C295.471 8.4159 296.925 7.86609 298.69 7.86609H306.095C306.237 7.5557 306.405 7.13888 306.6 6.6334C306.857 5.95941 307.035 5.46278 307.15 5.12579C307.682 3.35215 308.507 2.09289 309.589 1.38344C310.671 0.673981 312.169 0.47001 314.041 0.771529C316.311 1.1972 317.694 2.03079 318.182 3.24574C318.643 4.3986 318.368 5.91509 317.348 7.87497H329.418C331.183 7.87497 332.637 8.43365 333.737 9.52444C334.845 10.6241 335.404 12.0696 335.404 13.8166V36.4926C335.404 38.2396 334.845 39.6852 333.737 40.7848C332.628 41.8845 331.174 42.4343 329.418 42.4343H315.264C312.684 47.1611 308.675 51.0454 303.328 53.9896H316.178V48.3406C316.178 45.0061 317.951 43.2414 321.312 43.2414C324.674 43.2414 326.447 45.0061 326.447 48.3406V53.9896H332.832C335.856 53.9896 337.453 55.577 337.453 58.5745C337.453 61.5719 335.856 63.248 332.832 63.248H326.447V74.9008C326.447 78.2352 324.674 80 321.312 80C317.951 80 316.178 78.2352 316.178 74.9008L316.169 74.892ZM309.261 21.1418V16.2731H303.647C302.813 16.2731 302.468 16.6101 302.468 17.4349V21.1418H309.261ZM304.073 33.9209H308.427C308.613 33.2025 308.782 32.3423 308.924 31.3402C309.021 30.7638 309.119 29.9656 309.216 28.9724H302.468V32.3334C302.468 33.4419 302.946 33.9209 304.073 33.9209ZM323.698 16.2731H318.599V19.5544C318.599 20.6629 319.078 21.1418 320.204 21.1418H325.303V17.8606C325.303 16.752 324.824 16.2731 323.698 16.2731ZM318.421 31.4023C318.368 31.9876 318.262 32.8123 318.102 33.9209H323.698C324.824 33.9209 325.303 33.4419 325.303 32.3334V28.9724H318.59C318.572 29.5222 318.519 30.2583 318.421 31.1894V31.4023Z" fill="url(#paint0_linear_14_1050)"/>
<path d="M7.01455 21.869C8.68469 21.869 10.0386 20.5151 10.0386 18.8449C10.0386 17.1748 8.68469 15.8208 7.01455 15.8208C5.34441 15.8208 3.99049 17.1748 3.99049 18.8449C3.99049 20.5151 5.34441 21.869 7.01455 21.869Z" fill="white"/>
<path d="M95.6169 10.3581C97.287 10.3581 98.6409 9.0041 98.6409 7.33396C98.6409 5.66382 97.287 4.30993 95.6169 4.30993C93.9467 4.30993 92.5928 5.66382 92.5928 7.33396C92.5928 9.0041 93.9467 10.3581 95.6169 10.3581Z" fill="white"/>
<path d="M193.211 12.1849C194.881 12.1849 196.235 10.831 196.235 9.16081C196.235 7.49067 194.881 6.13678 193.211 6.13678C191.541 6.13678 190.187 7.49067 190.187 9.16081C190.187 10.831 191.541 12.1849 193.211 12.1849Z" fill="white"/>
<path d="M267.775 10.3758C269.445 10.3758 270.799 9.02186 270.799 7.35172C270.799 5.68158 269.445 4.32769 267.775 4.32769C266.105 4.32769 264.751 5.68158 264.751 7.35172C264.751 9.02186 266.105 10.3758 267.775 10.3758Z" fill="white"/>
<defs>
<linearGradient id="paint0_linear_14_1050" x1="169.108" y1="79.9911" x2="169.108" y2="-0.00886917" gradientUnits="userSpaceOnUse">
<stop stop-color="#018139"/>
<stop offset="1" stop-color="#0F6632"/>
</linearGradient>
</defs>
</svg>
