<svg width="42" height="42" viewBox="0 0 42 42" fill="none" xmlns="http://www.w3.org/2000/svg">
<mask id="mask0_289_757" style="mask-type:alpha" maskUnits="userSpaceOnUse" x="0" y="0" width="42" height="42">
<rect width="42" height="42" fill="#D9D9D9"/>
</mask>
<g mask="url(#mask0_289_757)">
<path d="M32.2415 31.018L25.9573 24.7235C25.8194 24.5857 25.6356 24.5053 25.4403 24.4938L22.4189 24.3215C21.9479 24.287 21.5573 24.6776 21.5917 25.1486L21.764 28.1701C21.7755 28.3654 21.856 28.5492 21.9938 28.687L28.2895 34.9827L32.2415 31.018Z" fill="#91BAE8"/>
<path d="M34.0225 32.7997L33.4596 32.2368L29.5076 36.2003L30.0705 36.7632C30.6219 37.3147 31.3342 37.5789 32.0465 37.5789C32.7588 37.5789 33.4711 37.3147 34.0225 36.7632C35.1254 35.6604 35.1254 33.8911 34.0225 32.7997Z" fill="#91BAE8"/>
<path d="M30.3948 8.84204V20.9999H19.3421V33.7105H9.39478V8.84204H30.3948Z" fill="white"/>
<path d="M29.335 5.52637H11.8152C9.56347 5.52637 7.73682 7.35302 7.73682 9.60475V32.0761C7.73682 34.3278 9.56347 36.1544 11.8152 36.1544H27.0247L20.775 29.9059C20.3384 29.467 20.0788 28.8869 20.0432 28.2688L19.8709 25.2474C19.8226 24.5845 20.0639 23.8986 20.5337 23.3931C21.0048 22.8876 21.6699 22.597 22.3604 22.597L25.5381 22.7739C26.1562 22.8095 26.7363 23.068 27.1729 23.5023L33.4122 29.7531V9.60475C33.4134 7.35302 31.5867 5.52637 29.335 5.52637ZM18.0764 30.9961H12.8606C12.2897 30.9961 11.8267 30.5332 11.8267 29.9622C11.8267 29.3912 12.2897 28.9282 12.8606 28.9282H18.0764C18.6473 28.9282 19.1103 29.3912 19.1103 29.9622C19.1103 30.5332 18.6473 30.9961 18.0764 30.9961ZM11.8267 23.8389C11.8267 23.2679 12.2897 22.8049 12.8606 22.8049H17.6628C18.2338 22.8049 18.6967 23.2679 18.6967 23.8389C18.6967 24.4098 18.2338 24.8728 17.6628 24.8728H12.8606C12.2897 24.8728 11.8267 24.4098 11.8267 23.8389ZM28.177 18.7518H12.8652C12.2943 18.7518 11.8313 18.2888 11.8313 17.7179C11.8313 17.1469 12.2943 16.6839 12.8652 16.6839H28.177C28.7479 16.6839 29.2109 17.1469 29.2109 17.7179C29.2109 18.2888 28.7479 18.7518 28.177 18.7518ZM28.177 12.6273H12.8652C12.2943 12.6273 11.8313 12.1644 11.8313 11.5934C11.8313 11.0224 12.2943 10.5594 12.8652 10.5594H28.177C28.7479 10.5594 29.2109 11.0224 29.2109 11.5934C29.2109 12.1644 28.7479 12.6273 28.177 12.6273Z" fill="#91BAE8"/>
</g>
</svg>
