<svg width="42" height="42" viewBox="0 0 42 42" fill="none" xmlns="http://www.w3.org/2000/svg">
<mask id="mask0_289_751" style="mask-type:alpha" maskUnits="userSpaceOnUse" x="0" y="0" width="42" height="42">
<rect width="42" height="42" fill="#D9D9D9"/>
</mask>
<g mask="url(#mask0_289_751)">
<path d="M36.4629 19.5573L31.6131 14.6746V9.03427C31.6131 8.01442 30.7922 7.18792 29.7778 7.18792C28.7657 7.18792 27.9448 8.01442 27.9448 9.03427V10.9814L24.3338 7.34575C22.5484 5.54928 19.4443 5.55247 17.6631 7.349L5.53688 19.5573C4.82104 20.2794 4.82104 21.4478 5.53688 22.1688C6.25304 22.8908 7.41587 22.8908 8.13177 22.1688L20.2568 9.96027C20.6518 9.56468 21.348 9.56468 21.7409 9.9591L33.868 22.1688C34.2276 22.5298 34.6965 22.7094 35.1652 22.7094C35.6348 22.7094 36.1044 22.5297 36.4629 22.1688C37.179 21.4479 37.179 20.2794 36.4629 19.5573Z" fill="#91BAE8"/>
<path d="M21.637 13.4651C21.2847 13.1106 20.7143 13.1106 20.363 13.4651L9.69677 24.2005C9.52837 24.37 9.4329 24.6014 9.4329 24.8429V32.6729C9.4329 34.5103 10.9126 36 12.7376 36H18.0184V27.7662H23.9804V36H29.2614C31.0862 36 32.5659 34.5103 32.5659 32.673V24.8429C32.5659 24.6014 32.4713 24.37 32.3021 24.2005L21.637 13.4651Z" fill="#91BAE8"/>
</g>
</svg>
