<svg width="42" height="42" viewBox="0 0 42 42" fill="none" xmlns="http://www.w3.org/2000/svg">
<mask id="mask0_289_792" style="mask-type:alpha" maskUnits="userSpaceOnUse" x="0" y="0" width="42" height="42">
<rect width="42" height="42" fill="#D9D9D9"/>
</mask>
<g mask="url(#mask0_289_792)">
</g>
<g clip-path="url(#clip0_289_792)">
<rect x="13.3157" y="7.42114" width="11" height="13" fill="white"/>
<path d="M34.8398 6.72776H33.5658L33.6798 5.70207C33.7555 5.01619 33.2176 4.42114 32.5332 4.42114H9.46684C8.7824 4.42114 8.24455 5.01619 8.32026 5.70207L8.43424 6.72776H7.16015C5.25226 6.72776 3.7002 8.27982 3.7002 10.1877C3.7002 15.1428 6.57112 19.6084 11.0424 21.6878C12.4614 24.1842 14.778 26.0732 17.54 26.9462V30.9475C17.54 31.7772 16.8147 32.8696 16.3867 32.8696C16.307 32.8696 16.2292 32.8778 16.154 32.8932C14.3562 33.0154 12.9267 34.5014 12.9267 36.3296V38.6362C12.9267 39.2729 13.4434 39.7896 14.0801 39.7896H27.9199C28.5566 39.7896 29.0732 39.2729 29.0732 38.6362V36.3296C29.0732 34.5014 27.6437 33.0153 25.846 32.8932C25.7708 32.8778 25.693 32.8696 25.6133 32.8696C25.1853 32.8696 24.4599 31.7772 24.4599 30.9475V26.9462C27.2223 26.073 29.5392 24.1838 30.9582 21.6868C35.4284 19.6079 38.2998 15.1425 38.2998 10.1877C38.2998 8.27982 36.7477 6.72776 34.8398 6.72776ZM6.00688 10.1877C6.00688 9.55177 6.52428 9.03437 7.16022 9.03437H8.6906L9.60803 17.2916C9.64112 17.5889 9.69245 17.8797 9.74737 18.1691C7.41416 16.2289 6.00688 13.3268 6.00688 10.1877ZM19.3924 32.8696C19.6875 32.2254 19.8467 31.5406 19.8467 30.9475V27.4272C20.2266 27.4652 20.6107 27.4875 21 27.4875C21.3893 27.4875 21.7735 27.4651 22.1534 27.4272V30.9475C22.1534 31.5406 22.3125 32.2254 22.6077 32.8696H19.3924ZM26.1922 15.0826L24.4329 16.7975L24.848 19.2198C25.011 20.1683 24.0085 20.8759 23.1743 20.4347L21 19.2911L18.8255 20.4346C17.9849 20.8793 16.9899 20.1622 17.1518 19.2197L17.567 16.7975L15.8077 15.0825C15.1236 14.4165 15.5037 13.2521 16.4466 13.1153L18.8779 12.7616L19.9659 10.5578C20.3871 9.70244 21.6126 9.70237 22.0338 10.5578L23.1218 12.7616L25.553 13.1153C26.4961 13.2521 26.8762 14.4165 26.1922 15.0826ZM32.2528 18.1685C32.3077 17.8793 32.359 17.5886 32.392 17.2917L33.3094 9.03444H34.8398C35.4757 9.03444 35.9932 9.55184 35.9932 10.1878C35.9931 13.3274 34.5859 16.2287 32.2528 18.1685Z" fill="#91BAE8"/>
</g>
<defs>
<clipPath id="clip0_289_792">
<rect width="35.3684" height="35.3684" fill="white" transform="translate(3.31567 4.42114)"/>
</clipPath>
</defs>
</svg>
