<svg width="42" height="42" viewBox="0 0 42 42" fill="none" xmlns="http://www.w3.org/2000/svg">
<mask id="mask0_289_754" style="mask-type:alpha" maskUnits="userSpaceOnUse" x="0" y="0" width="42" height="42">
<rect width="42" height="42" fill="#D9D9D9"/>
</mask>
<g mask="url(#mask0_289_754)">
<path d="M6.42465 20.5617H3.02765C2.46039 20.5617 2 20.135 2 19.6093C2 19.0835 2.46039 18.6569 3.02765 18.6569H6.42465C6.99191 18.6569 7.4523 19.0835 7.4523 19.6093C7.4523 20.135 6.99191 20.5617 6.42465 20.5617Z" fill="#91BAE8"/>
<path d="M38.9724 20.5617H35.5754C35.0081 20.5617 34.5477 20.135 34.5477 19.6093C34.5477 19.0835 35.0081 18.6569 35.5754 18.6569H38.9724C39.5396 18.6569 40 19.0835 40 19.6093C40 20.135 39.5396 20.5617 38.9724 20.5617Z" fill="#91BAE8"/>
<path d="M10.6939 11.01C10.4308 11.01 10.1678 10.917 9.96716 10.7311L7.56493 8.50472C7.16373 8.13289 7.16373 7.52943 7.56493 7.1576C7.96612 6.78577 8.61724 6.78577 9.01843 7.1576L11.4207 9.384C11.8219 9.75583 11.8219 10.3593 11.4207 10.7311C11.2201 10.917 10.957 11.01 10.6939 11.01Z" fill="#91BAE8"/>
<path d="M33.7083 32.3398C33.4452 32.3398 33.1822 32.2469 32.9816 32.061C32.0434 31.1915 31.5175 30.704 30.5793 29.8346C30.1781 29.4627 30.1781 28.8593 30.5793 28.4875C30.9805 28.1156 31.6317 28.1156 32.0328 28.4875L34.4351 30.7139C34.8363 31.0857 34.8363 31.6891 34.4351 32.061C34.2345 32.2469 33.9714 32.3398 33.7083 32.3398Z" fill="#91BAE8"/>
<path d="M21 7.05321C20.4327 7.05321 19.9724 6.62652 19.9724 6.10078V2.95243C19.9724 2.42669 20.4327 2 21 2C21.5673 2 22.0277 2.42669 22.0277 2.95243V6.10078C22.0277 6.62652 21.5673 7.05321 21 7.05321Z" fill="#91BAE8"/>
<path d="M31.3061 11.01C31.043 11.01 30.7799 10.917 30.5793 10.7311C30.1781 10.3593 30.1781 9.75583 30.5793 9.384C30.9805 9.01217 32.9816 7.1576 32.9816 7.1576C33.3828 6.78577 34.0339 6.78577 34.4351 7.1576C34.8363 7.52943 34.8363 8.13289 34.4351 8.50472L32.0328 10.7311C31.8322 10.917 31.5692 11.01 31.3061 11.01Z" fill="#91BAE8"/>
<path d="M8.29168 32.3398C8.0286 32.3398 7.76552 32.2469 7.56493 32.061C7.16373 31.6891 7.16373 31.0857 7.56493 30.7139L9.96716 28.4875C10.3684 28.1156 11.0195 28.1156 11.4207 28.4875C11.8219 28.8593 11.8219 29.4627 11.4207 29.8346L9.01843 32.061C8.81784 32.2469 8.55476 32.3398 8.29168 32.3398Z" fill="#91BAE8"/>
<path d="M28.4854 12.5781C26.4383 10.7067 23.7237 9.69716 20.8487 9.73373C15.0051 9.80916 10.2911 14.2787 10.3404 19.6969C10.3651 22.3904 11.5374 24.8987 13.6412 26.7601C13.6453 26.7632 13.6486 26.767 13.6527 26.77C14.7963 27.7514 15.3833 29.2822 15.2633 30.9714C15.2443 31.2343 15.3438 31.4926 15.5387 31.6853C15.7327 31.8773 16.0048 31.9871 16.2893 31.9871H25.7132C25.9977 31.9871 26.2698 31.8781 26.4638 31.6853C26.6578 31.4926 26.7573 31.2343 26.7384 30.9706C26.6167 29.2875 27.2103 27.7507 28.3678 26.754C28.3719 26.751 28.3752 26.7472 28.3793 26.7441C30.4963 24.8629 31.6612 22.3302 31.6612 19.6131C31.6612 16.896 30.5325 14.4494 28.4854 12.5781Z" fill="#91BAE8"/>
<path d="M25.1205 19.0942C24.7193 18.7224 24.0681 18.7224 23.667 19.0942C22.9542 19.7548 22.0071 20.1183 20.9992 20.1183C19.9913 20.1183 19.0442 19.7548 18.3314 19.0942C17.9302 18.7224 17.2791 18.7224 16.8779 19.0942C16.4767 19.466 16.4767 20.0695 16.8779 20.4413C17.7321 21.233 18.8058 21.7473 19.9707 21.9385V26.4866V31.0346C19.9707 31.5604 20.4311 31.9871 20.9984 31.9871C21.5656 31.9871 22.026 31.5604 22.026 31.0346V21.9385C23.1918 21.7473 24.2646 21.233 25.1188 20.4413C25.52 20.0695 25.52 19.466 25.1188 19.0942H25.1205Z" fill="white"/>
<path d="M25.7116 32.9387H16.2876C15.7203 32.9387 15.26 33.3654 15.26 33.8912V36.0932C15.26 37.6956 16.6666 39 18.3955 39H23.6028C25.3317 39 26.7384 37.6963 26.7384 36.0932V33.8912C26.7384 33.3654 26.2788 32.9387 25.7116 32.9387Z" fill="#91BAE8"/>
</g>
</svg>
