<svg width="42" height="42" viewBox="0 0 42 42" fill="none" xmlns="http://www.w3.org/2000/svg">
<mask id="mask0_289_765" style="mask-type:alpha" maskUnits="userSpaceOnUse" x="0" y="0" width="42" height="42">
<rect width="42" height="42" fill="#D9D9D9"/>
</mask>
<g mask="url(#mask0_289_765)">
<path d="M6.63159 13.2632L11.0526 6.63159L17.1316 8.28949L16.579 14.3684L20.4474 14.9211L25.9737 12.7105L27.079 18.7895L32.0526 21L22.1053 30.3948C19.1579 29.1053 13.1526 26.4158 12.7105 25.9737C12.2684 25.5316 14 21 14.9211 18.7895L6.63159 13.2632Z" fill="white"/>
<path d="M23.9075 20.9109C23.638 20.7198 23.4792 20.409 23.4831 20.0787L23.5105 17.9377L21.7931 19.219C21.5294 19.4141 21.1833 19.468 20.8706 19.3651L18.8424 18.6769L19.5305 20.7052C19.6364 21.0179 19.5815 21.3629 19.3845 21.6276L18.1033 23.3439L20.2452 23.3165C20.2491 23.3165 20.254 23.3165 20.2579 23.3165C20.5833 23.3165 20.8892 23.4743 21.0774 23.7409L22.3136 25.4898L22.9498 23.4439C23.0478 23.1283 23.2948 22.8813 23.6105 22.7832L25.6554 22.148L23.9075 20.9109Z" fill="#91BAE8"/>
<path d="M13.2327 11.8135C12.8433 11.4241 12.2104 11.4183 11.8132 11.8135C11.4193 12.2094 11.4221 12.8428 11.8132 13.2319C12.1945 13.6133 12.8543 13.6123 13.2317 13.233C13.2327 13.233 13.2327 13.233 13.2327 13.2319C13.6238 12.8428 13.6266 12.2094 13.2327 11.8135Z" fill="#91BAE8"/>
<path d="M38.3902 22.7744L36.2611 20.6453L20.6453 36.2611L22.7745 38.3902C22.9705 38.5863 23.2274 38.6843 23.4842 38.6843C23.7409 38.6843 23.9978 38.5863 24.1938 38.3902L38.3902 24.1938C38.7824 23.8018 38.7824 23.1665 38.3902 22.7744Z" fill="#91BAE8"/>
<path d="M20.3308 4.71526C20.1426 4.52701 19.8877 4.42114 19.6211 4.42114H11.1034C10.8368 4.42114 10.5819 4.52701 10.3937 4.71526L8.26408 6.84486L6.13441 4.71526C5.74232 4.32317 5.10705 4.32317 4.71496 4.71526C4.32288 5.10734 4.32288 5.74262 4.71496 6.1347L6.84463 8.26437L4.71503 10.394C4.52678 10.5822 4.42092 10.8371 4.42092 11.1037V19.6213C4.42092 19.8879 4.52678 20.1428 4.71503 20.331L19.2256 34.8416L34.8414 19.2258L20.3308 4.71526ZM14.652 14.6523C13.4779 15.8264 11.5727 15.8312 10.3937 14.6523C9.21863 13.4791 9.21475 11.5729 10.3937 10.394C11.5319 9.25586 13.5169 9.2578 14.653 10.394C15.8286 11.5715 15.8286 13.4757 14.652 14.6523ZM28.1932 23.4616L24.7103 24.5438L23.627 28.0277C23.4942 28.4535 23.0996 28.7335 22.6683 28.7335C22.3458 28.7335 22.039 28.5777 21.8488 28.3091L19.7432 25.331L16.0956 25.377C15.6691 25.3711 15.3613 25.1692 15.1888 24.8291C15.0153 24.4889 15.0496 24.0792 15.278 23.7733L17.4591 20.8501L16.2877 17.3956C16.1651 17.0339 16.2583 16.634 16.5289 16.3634C16.7994 16.0938 17.1965 16.0017 17.5611 16.1222L21.0156 17.2937L23.9397 15.1116C24.2456 14.8851 24.6563 14.8499 24.9955 15.0224C25.3356 15.1949 25.5484 15.5468 25.5434 15.9291L25.4974 19.5768L28.4745 21.6833C28.7872 21.9039 28.946 22.2823 28.8861 22.6597C28.8263 23.0371 28.5578 23.3479 28.1932 23.4616Z" fill="#91BAE8"/>
</g>
</svg>
