<svg width="42" height="42" viewBox="0 0 42 42" fill="none" xmlns="http://www.w3.org/2000/svg">
<mask id="mask0_289_803" style="mask-type:alpha" maskUnits="userSpaceOnUse" x="0" y="0" width="42" height="42">
<rect width="42" height="42" fill="#D9D9D9"/>
</mask>
<g mask="url(#mask0_289_803)">
<circle cx="21.5527" cy="17.1316" r="10.5" fill="white"/>
<path d="M18.72 32.1206H15.4043C14.8321 32.1206 14.3682 32.5845 14.3682 33.1567V37.6467C14.3682 38.4856 15.3176 38.9779 16.0032 38.4922L17.0621 37.7422L18.1211 38.4922C18.7992 38.9726 19.7561 38.4925 19.7561 37.6467V33.1567C19.7561 32.5845 19.2922 32.1206 18.72 32.1206Z" fill="#91BAE8"/>
<path d="M28.1834 3.31567H11.536C9.44093 3.31567 7.73682 5.01979 7.73682 7.11487V31.4988C7.73682 33.5939 9.44093 35.298 11.536 35.298H12.2958V33.2257H11.536C10.5834 33.2257 9.8091 32.4513 9.8091 31.4988C9.8091 30.5462 10.5834 29.7719 11.536 29.7719H28.1841C28.2207 26.5129 30.8649 23.8686 34.1239 23.832V9.32462C30.8421 9.28801 28.1834 6.60647 28.1834 3.31567ZM20.9304 25.351C16.093 25.351 12.1577 21.4157 12.1577 16.5783C12.1577 11.7409 16.093 7.80563 20.9304 7.80563C25.7678 7.80563 29.7031 11.7409 29.7031 16.5783C29.7031 21.4157 25.7678 25.351 20.9304 25.351Z" fill="#91BAE8"/>
<path d="M30.2564 29.7719H32.0517V33.2257H21.8284V35.298H33.0878C33.6597 35.298 34.1239 34.8338 34.1239 34.2618V25.9043C32.0074 25.9409 30.293 27.6554 30.2564 29.7719Z" fill="#91BAE8"/>
<path d="M20.9304 9.87793C17.2355 9.87793 14.23 12.8834 14.23 16.5783C14.23 20.2732 17.2355 23.2787 20.9304 23.2787C24.6253 23.2787 27.6308 20.2732 27.6308 16.5783C27.6308 12.8834 24.6253 9.87793 20.9304 9.87793ZM21.9665 16.5783C21.9665 16.8533 21.8574 17.1164 21.6633 17.3112L19.4528 19.5217C19.0505 19.924 18.3933 19.928 17.987 19.5217C17.5829 19.1169 17.5829 18.4607 17.987 18.0559L19.8942 16.1494V12.7101C19.8942 12.1381 20.3584 11.6739 20.9304 11.6739C21.5023 11.6739 21.9665 12.1381 21.9665 12.7101V16.5783Z" fill="#91BAE8"/>
<path d="M33.088 3.31567H30.2559C30.2559 5.46395 31.9848 7.21572 34.1241 7.25233V4.35182C34.1241 3.77987 33.6599 3.31567 33.088 3.31567Z" fill="#91BAE8"/>
</g>
</svg>
