<svg width="42" height="42" viewBox="0 0 42 42" fill="none" xmlns="http://www.w3.org/2000/svg">
<mask id="mask0_289_799" style="mask-type:alpha" maskUnits="userSpaceOnUse" x="0" y="0" width="42" height="42">
<rect width="42" height="42" fill="#D9D9D9"/>
</mask>
<g mask="url(#mask0_289_799)">
</g>
<g clip-path="url(#clip0_289_799)">
<path fill-rule="evenodd" clip-rule="evenodd" d="M11.5516 23.434C13.7351 23.4313 15.8283 22.5628 17.3721 21.0188C18.916 19.4748 19.7844 17.3816 19.7869 15.1982C19.7869 15.0764 19.763 14.9558 19.7164 14.8433C19.6699 14.7308 19.6016 14.6286 19.5155 14.5425C19.4294 14.4564 19.3272 14.3881 19.2147 14.3415C19.1022 14.295 18.9817 14.271 18.8599 14.271H12.4788V7.8896C12.4787 7.64373 12.381 7.40795 12.2072 7.2341C12.0333 7.06025 11.7975 6.96258 11.5516 6.96256C10.4701 6.96256 9.39918 7.17558 8.39997 7.58947C7.40077 8.00335 6.49287 8.60999 5.72811 9.37475C4.96335 10.1395 4.35671 11.0474 3.94283 12.0466C3.52894 13.0458 3.31592 14.1168 3.31592 15.1983C3.31592 16.2798 3.52894 17.3508 3.94283 18.35C4.35671 19.3492 4.96335 20.2571 5.72811 21.0218C6.49287 21.7866 7.40077 22.3932 8.39997 22.8071C9.39918 23.221 10.4701 23.434 11.5516 23.434ZM25.4668 9.11527C25.4667 9.23702 25.4907 9.35759 25.5372 9.47009C25.5838 9.58258 25.6521 9.6848 25.7381 9.7709C25.8242 9.857 25.9264 9.92529 26.0389 9.97187C26.1514 10.0185 26.272 10.0424 26.3937 10.0424H35.5069C35.7514 10.0403 35.9852 9.94166 36.1573 9.76803C36.3294 9.5944 36.426 9.3598 36.426 9.1153C36.426 8.8708 36.3294 8.6362 36.1573 8.46257C35.9852 8.28894 35.7514 8.19034 35.5069 8.18823H26.3937C26.272 8.18819 26.1514 8.21214 26.0389 8.25872C25.9265 8.3053 25.8243 8.37358 25.7382 8.45967C25.6521 8.54576 25.5838 8.64798 25.5372 8.76047C25.4907 8.87295 25.4667 8.99352 25.4668 9.11527ZM25.4668 4.24271C25.4667 4.36446 25.4907 4.48502 25.5372 4.59751C25.5838 4.71 25.6521 4.81221 25.7382 4.89831C25.8243 4.9844 25.9265 5.05268 26.0389 5.09926C26.1514 5.14583 26.272 5.16979 26.3937 5.16975H35.5069C35.7528 5.16975 35.9886 5.07208 36.1624 4.89823C36.3363 4.72438 36.434 4.48858 36.434 4.24271C36.434 3.99685 36.3363 3.76105 36.1624 3.5872C35.9886 3.41334 35.7528 3.31567 35.5069 3.31567H26.3937C26.272 3.31564 26.1514 3.33959 26.0389 3.38617C25.9265 3.43274 25.8243 3.50103 25.7382 3.58712C25.6521 3.67321 25.5838 3.77542 25.5372 3.88791C25.4907 4.0004 25.4667 4.12097 25.4668 4.24271ZM37.7572 36.83C38.003 36.83 38.2388 36.9277 38.4127 37.1015C38.5865 37.2754 38.6842 37.5112 38.6842 37.7571C38.6842 38.0029 38.5865 38.2387 38.4127 38.4126C38.2388 38.5864 38.003 38.6841 37.7572 38.6841H6.23443C5.98857 38.6841 5.75277 38.5864 5.57892 38.4126C5.40506 38.2387 5.30739 38.0029 5.30739 37.7571C5.30739 37.5112 5.40506 37.2754 5.57892 37.1015C5.75277 36.9277 5.98857 36.83 6.23443 36.83H8.17659V28.6625C8.17651 28.5407 8.20043 28.4201 8.24698 28.3076C8.29354 28.195 8.36181 28.0928 8.44791 28.0066C8.534 27.9205 8.63623 27.8522 8.74874 27.8056C8.86126 27.759 8.98185 27.735 9.10363 27.7351H14.4158C14.5376 27.735 14.6581 27.759 14.7706 27.8056C14.8831 27.8522 14.9853 27.9205 15.0714 28.0065C15.1575 28.0926 15.2258 28.1949 15.2724 28.3074C15.3189 28.4199 15.3429 28.5404 15.3428 28.6622V36.83H18.1571V23.7354C18.1572 23.4896 18.2549 23.2538 18.4287 23.08C18.6026 22.9061 18.8383 22.8084 19.0842 22.8084H24.3967C24.5185 22.8084 24.639 22.8323 24.7515 22.8789C24.864 22.9255 24.9662 22.9938 25.0523 23.0799C25.1384 23.1659 25.2067 23.2681 25.2533 23.3806C25.2998 23.4931 25.3238 23.6137 25.3238 23.7354V36.83H28.1381V16.0891C28.138 15.9674 28.162 15.8468 28.2086 15.7343C28.2552 15.6219 28.3235 15.5197 28.4095 15.4336C28.4956 15.3475 28.5978 15.2792 28.7103 15.2326C28.8228 15.186 28.9434 15.1621 29.0651 15.1621H34.3773C34.6231 15.1622 34.8588 15.2599 35.0327 15.4337C35.2065 15.6075 35.3042 15.8433 35.3043 16.0891V36.83H37.7572ZM15.1983 3.31567C17.3816 3.31834 19.4748 4.18688 21.0187 5.73077C22.5626 7.27467 23.4311 9.36788 23.4338 11.5513C23.4338 11.673 23.4099 11.7936 23.3633 11.9061C23.3167 12.0186 23.2484 12.1208 23.1623 12.2069C23.0762 12.293 22.974 12.3612 22.8615 12.4078C22.7491 12.4544 22.6285 12.4783 22.5067 12.4783H15.1982C15.0764 12.4784 14.9559 12.4544 14.8434 12.4078C14.7309 12.3613 14.6286 12.293 14.5425 12.2069C14.4564 12.1208 14.3882 12.0186 14.3416 11.9061C14.295 11.7936 14.271 11.673 14.2711 11.5513V4.24271C14.271 4.12095 14.295 4.00037 14.3416 3.88788C14.3882 3.77538 14.4565 3.67316 14.5426 3.58707C14.6287 3.50098 14.7309 3.43269 14.8434 3.38613C14.9559 3.33956 15.0765 3.31562 15.1983 3.31567Z" fill="#91BAE8"/>
</g>
<defs>
<clipPath id="clip0_289_799">
<rect width="35.3684" height="35.3684" fill="white" transform="translate(3.31567 3.31567)"/>
</clipPath>
</defs>
</svg>
