<svg width="627" height="103" viewBox="0 0 627 103" fill="none" xmlns="http://www.w3.org/2000/svg">
<path d="M584.691 0.380371H42.4993C19.5151 0.380371 0.882812 19.0182 0.882812 42.0091V42.0214C0.882812 65.0123 19.5151 83.6502 42.4993 83.6502C254.238 83.6502 372.952 83.6502 584.691 83.6502C607.675 83.6502 626.307 65.0123 626.307 42.0214V42.0091C626.307 19.0182 607.675 0.380371 584.691 0.380371Z" fill="#0E8347"/>
<path d="M72.8945 77.4194L102.347 102.784C102.347 90.3208 102.347 83.333 102.347 70.8696L72.8945 77.4194Z" fill="#0E8347"/>
<path d="M46.6798 54.0415C55.7413 46.0935 60.4252 40.1693 60.4252 35.1528C60.4252 31.8411 58.635 29.5598 55.2017 29.5598C52.7739 29.5598 50.7752 31.0929 49.1444 32.9573L46.4346 30.3079C49.0709 27.4869 51.7807 25.7575 55.7903 25.7575C61.4307 25.7575 65.0602 29.4003 65.0602 34.9075C65.0602 40.7949 60.3394 46.8785 53.8284 53.048C55.4102 52.8763 57.3353 52.7536 58.8435 52.7536H66.5316V56.8135H46.6921V54.0415H46.6798Z" fill="white"/>
<path d="M72.687 41.4449C72.687 30.8844 76.574 25.7452 82.6313 25.7452C88.6887 25.7452 92.5756 30.9212 92.5756 41.4449C92.5756 51.9686 88.6519 57.3532 82.6313 57.3532C76.6108 57.3532 72.687 52.0545 72.687 41.4449ZM87.9775 41.4449C87.9775 32.712 85.7581 29.5107 82.6313 29.5107C79.5046 29.5107 77.2852 32.6997 77.2852 41.4449C77.2852 50.1902 79.4923 53.5754 82.6313 53.5754C85.7703 53.5754 87.9775 50.2638 87.9775 41.4449Z" fill="white"/>
<path d="M98.4613 54.0415C107.523 46.0935 112.207 40.1693 112.207 35.1528C112.207 31.8411 110.417 29.5598 106.983 29.5598C104.555 29.5598 102.557 31.0929 100.926 32.9573L98.2161 30.3079C100.852 27.4869 103.562 25.7575 107.572 25.7575C113.212 25.7575 116.842 29.4003 116.842 34.9075C116.842 40.7949 112.121 46.8785 105.61 53.048C107.192 52.8763 109.117 52.7536 110.625 52.7536H118.313V56.8135H98.4736V54.0415H98.4613Z" fill="white"/>
<path d="M145.056 48.6202H141.132V56.8257H136.62V48.6202H123.34V45.4312L135.578 26.334H141.132V44.9283H145.056V48.6202ZM136.62 44.9283V36.9313C136.62 35.2754 136.792 32.712 136.865 31.0561H136.694C135.946 32.5893 135.112 34.1593 134.229 35.7415L128.172 44.9406H136.608L136.62 44.9283Z" fill="white"/>
<path d="M157.22 27.8671C155.92 29.94 154.424 31.7553 152.965 33.1658C152.425 32.5403 151.089 31.2156 150.329 30.6391C152.793 28.4436 155.135 25.0952 156.423 21.7344L159.893 22.7279C159.648 23.4271 159.304 24.1385 158.936 24.8376H168.917V27.8671H161.904C163.203 28.8974 164.491 30.2712 165.239 31.142L162.738 33.3375C161.904 32.2214 160.101 30.4429 158.728 29.155L160.273 27.8671H157.22ZM186.158 46.4247C186.158 46.4247 186.121 47.3814 186.035 47.9211C185.532 53.5141 185.029 56.0408 183.95 57.1201C183.153 57.9542 182.32 58.2363 181.069 58.3221C180.027 58.408 177.979 58.4448 175.845 58.3221C175.809 57.2428 175.343 55.7954 174.754 54.802C176.63 55.0105 178.555 55.0473 179.266 55.0105C179.978 55.0105 180.394 54.9737 180.726 54.6793C181.228 54.1396 181.608 52.7782 181.976 49.7118H170.867V60.0638H167.029V51.2818C163.436 55.0473 158.385 58.2363 153.664 60.0147C153.075 59.1439 152.033 57.6966 151.162 56.9975C155.797 55.5869 160.678 52.815 164.025 49.7118H153.958C154.547 47.0993 155.123 43.1621 155.466 40.0221H167.029V36.7963H153.995V33.6073H184.478V43.2111H170.867V46.4369H186.145L186.158 46.4247ZM158.765 43.1989C158.642 44.315 158.47 45.3944 158.311 46.4247H167.041V43.1989H158.765ZM188.205 24.8498V27.8794H179.978C181.314 28.8729 182.822 30.1608 183.607 31.0684L180.971 33.3007C180.088 32.2214 178.261 30.5287 176.716 29.3267L178.555 27.8794H174.374C173.418 29.3758 172.289 30.7004 171.198 31.7307C170.573 31.1052 169.15 29.989 168.28 29.4494C170.536 27.585 172.461 24.7272 173.503 21.7835L177.047 22.6175C176.753 23.4025 176.458 24.1139 176.127 24.8498H188.205ZM170.879 40.0099H180.689V36.7841H170.879V40.0099Z" fill="white"/>
<path d="M227.124 55.5256C228.338 55.5256 228.497 54.2868 228.669 48.6447C229.589 49.3929 231.256 50.092 232.299 50.3373C231.919 57.0097 230.999 59.2052 227.492 59.2052H223.066C219.301 59.2052 218.308 57.8806 218.308 53.5754V34.8952H209.994C209.161 44.916 206.365 54.3604 197.132 60.1987C196.543 59.1684 195.207 57.8806 194.128 57.1324C202.564 52.1158 205.065 43.8367 205.776 34.8952H195.293V31.0807H206.022C206.144 28.1002 206.144 25.1197 206.144 22.176H210.448C210.411 25.1197 210.411 28.1002 210.24 31.0807H222.354V53.5754C222.354 55.2312 222.563 55.5256 223.691 55.5256H227.124Z" fill="white"/>
<path d="M245.872 35.3613V36.1463C245.872 43.1008 245.247 53.4528 240.943 60.1251C240.195 59.4996 238.479 58.5061 237.473 58.1381C241.605 51.7601 241.985 42.6469 241.985 36.1463V24.0526H273.094V35.3613H245.86H245.872ZM245.872 27.5728V31.8411H269.219V27.5728H245.872ZM273.854 38.8815V60.0515H270.139V58.4325H247.834V38.9305H251.586V55.0473H270.126V38.8937H273.842L273.854 38.8815ZM259.152 49.074V43.8612H254.186V40.709H259.152V36.3548H262.708V40.709H267.796V43.8612H262.708V49.074H268.643V52.2262H253.107V49.074H259.164H259.152Z" fill="white"/>
<path d="M292.136 23.145C291.302 25.8801 290.297 28.6521 289.169 31.2646V60.0515H285.748V37.9738C284.914 39.2985 284.117 40.5373 283.246 41.6166C282.952 40.709 281.996 38.5503 281.407 37.5936C284.46 33.7791 287.084 27.9898 288.629 22.1392L292.136 23.1327V23.145ZM301.198 37.2624C300.695 43.2725 299.689 48.0682 298.193 51.7969C301.872 55.4397 306.924 56.3106 312.307 56.3106C313.606 56.3106 318.364 56.3106 320.068 56.2738C319.566 57.0588 319.026 58.5552 318.855 59.426H312.086C306.078 59.426 300.768 58.5184 296.722 54.7897C295.422 57.022 293.84 58.7637 292.001 60.0883C291.462 59.3401 290.211 58.1872 289.451 57.7334C291.499 56.4087 293.129 54.5812 294.466 52.1036C293.043 50.1166 291.83 47.6758 290.873 44.5235L293.669 43.53C294.257 45.6029 295.005 47.3814 295.888 48.8287C296.759 46.302 297.396 43.4074 297.764 39.924H291.498C292.872 36.8209 294.625 32.3072 296.097 28.2474H291.915V24.9357H300.768C299.432 28.7502 297.715 33.2639 296.256 36.9067H298.807L299.187 36.8699L301.185 37.287L301.198 37.2624ZM307.672 28.186H302.62V25.3282H307.672V22.0533H310.884V25.3282H317.064V30.7986H319.774V33.6932H317.064V39.2372H310.884V41.7638H317.726V44.7934H310.884V47.5286H318.989V50.5459H310.884V54.9737H307.672V50.5459H301.075V47.5286H307.672V44.7934H302.08V41.7638H307.672V39.2372H302.62V36.3793H307.672V33.6932H300.781V30.7986H307.672V28.186ZM310.884 28.186V30.7986H314.06V28.186H310.884ZM314.06 33.6932H310.884V36.3793H314.06V33.6932Z" fill="white"/>
<path d="M349.264 49.3193C350.061 49.6505 350.845 49.9448 351.692 50.276C353.862 48.9881 356.743 46.8785 358.411 45.3453L361.293 47.6267C359.294 49.0372 357.038 50.4845 354.99 51.6497C358.117 52.9744 361.133 54.3849 363.095 55.4643L361.342 58.1995C358.632 56.6295 353.617 54.2623 349.276 52.447V56.0898C349.276 58.1995 348.736 59.0703 347.277 59.5732C345.769 60.1129 343.513 60.1497 340.006 60.1497C339.834 59.193 339.344 57.7947 338.792 56.9239C341.134 57.0465 343.685 57.0097 344.347 56.9607C345.095 56.9607 345.352 56.7153 345.352 56.053V52.4102C341.22 54.2745 336.916 56.1757 333.532 57.623L332.024 54.4708C335.322 53.3056 340.423 51.3186 345.34 49.3806V45.1981H336.364C338.326 46.3143 340.913 48.0192 342.25 49.0495L340.031 51.4535C338.731 50.2515 336.058 48.473 334.059 47.2342L336.021 45.2104H334.856V42.4752H345.34V39.6542H333.397V36.8331H345.34V34.1348H335.236V31.4486H345.34V28.922H332.477V37.5323C332.477 44.082 331.889 53.7717 328.296 60.027C327.634 59.3647 326.003 58.2853 325.169 57.9174C328.468 52.079 328.762 43.6282 328.762 37.5445V25.5367H344.837C344.298 24.5432 343.746 23.5497 343.255 22.6789L347.093 21.7222C347.89 22.8383 348.724 24.3347 349.35 25.5367H363.303V28.9342H349.276V31.4609H359.882V36.551H363.769V39.8627H359.882V45.2104H349.276V49.3561L349.264 49.3193ZM349.264 36.8086H356.192V34.1102H349.264V36.8086ZM349.264 42.4384H356.192V39.6174H349.264V42.4384Z" fill="white"/>
<path d="M371.114 41.9478H386.233V59.794H382.395V57.9296H374.793V60.0883H371.114V41.9478ZM374.793 45.6397V54.25H382.395V45.6397H374.793ZM400.346 37.937H377V23.8073H400.346V37.937ZM396.373 27.4992H380.715V34.2451H396.373V27.4992ZM406.183 41.9601V59.8921H402.296V57.9419H394.031V60.1006H390.316V41.9601H406.183ZM402.296 54.2623V45.652H394.031V54.2623H402.296Z" fill="white"/>
<path d="M426.39 22.1024V36.5142H419.328V38.538C419.328 39.6174 419.328 40.6967 419.291 41.8988H426.354V60.0761H422.798V45.1613H419.168C418.837 50.2515 418.126 55.7587 416.409 60.0761C415.575 59.7081 413.945 59.1684 412.939 58.8741C415.404 52.9989 415.784 44.4132 415.784 38.538V23.01H419.328V33.2026H423.165V22.1024H426.39ZM451.49 51.8828H444.599V60.0393H441.092V51.8828H427.518V48.4853H431.736C431.197 47.9824 430.572 47.4918 430.02 47.1606C431.982 45.8727 433.49 44.4254 434.569 42.9413H428.978V26.334H434.777C435.403 25.0093 436.151 23.3535 436.494 22.1515L440.835 22.7279C440.173 24.0158 439.498 25.2546 438.91 26.334H449.553V42.9413H438.444C437.401 44.8915 435.942 46.8294 433.895 48.4853H441.08V43.8489H444.587V48.4853H451.429L451.466 51.8828H451.49ZM432.57 33.1167H437.585V29.388H432.57V33.1167ZM436.335 39.8259C436.923 38.5012 437.254 37.1766 437.414 36.0604H432.57V39.8259H436.335ZM445.813 36.0604H440.884C440.675 37.0907 440.381 38.4154 439.927 39.8259H445.813V36.0604ZM445.813 29.388H441.055V33.1167H445.813V29.388Z" fill="white"/>
<path d="M490.667 24.1017C490.544 39.7523 490.544 55.9917 492.751 55.9917C493.168 55.9917 493.413 53.3056 493.499 49.859C494.124 50.9383 495.007 52.1404 495.706 52.8027C495.326 57.9419 494.615 60.1374 492.322 60.1374C486.89 60.1374 486.89 45.4312 486.804 27.6709H465.26V37.7408C465.26 44.5358 464.549 54.0538 459.951 60.2355C459.289 59.5732 457.695 58.5429 456.775 58.1259C461.165 52.3243 461.533 44.0084 461.533 37.753V24.1262H490.642L490.667 24.1017ZM483.064 48.706C485.026 51.478 486.951 55.2558 487.577 57.7824L484.364 58.8986C484.156 58.0278 483.824 56.9484 483.359 55.869C476.798 56.3719 470.079 56.8625 465.272 57.1937L464.978 53.7594C467.48 53.6367 470.655 53.4282 474.125 53.2197V48.1296H467.234V36.5265H474.125V33.129H466.817V30.0258H485.063V33.129H477.51V36.5265H484.609V48.1296H477.51V53.0112L481.936 52.7168C481.348 51.6375 480.685 50.5581 480.06 49.6505L483.064 48.6938V48.706ZM474.125 45.1V39.5561H470.288V45.1H474.125ZM477.51 39.5561V45.1H481.433V39.5561H477.51Z" fill="white"/>
<path d="M538.696 51.7601H528.887C531.768 53.8698 535.103 56.6908 536.943 58.641L533.436 60.2968C532.933 59.6713 532.271 58.9722 531.474 58.1872C510.384 59.1439 508.127 59.1807 506.582 59.7204C506.374 58.9354 505.834 57.071 505.368 56.0775C506.08 55.9549 506.877 55.5011 507.784 54.7897C508.409 54.4217 509.954 53.2197 511.499 51.7724H501.481V48.7919H538.696V51.7724V51.7601ZM505.749 36.6001H502.279V27.9407H518.108V26.0764H504.866V23.2185H535.226V26.0764H521.91V27.9407H537.899V36.6001H534.306V30.5165H521.897V41.7393H518.096V30.5165H505.736V36.6001H505.749ZM505.454 39.7032C508.213 38.9183 512.26 37.6304 516.232 36.3057L516.735 38.9183C513.265 40.2797 509.721 41.6902 506.791 42.7696L505.454 39.7032ZM533.889 46.3756H506.239V43.5178H533.889V46.3756ZM508.409 31.0561C510.997 31.7553 514.589 33.0431 516.465 33.8772L515.043 36.2812C513.204 35.4104 509.66 33.9998 506.987 33.2148L508.409 31.0561ZM528.372 55.3662C527.207 54.3727 525.993 53.3792 524.865 52.5942L526.704 51.7601H516.723C515.141 53.2565 513.461 54.7038 511.794 55.9426L528.372 55.3662ZM533.46 33.5337C530.824 34.699 527.194 35.7293 524.607 36.3548L523.148 34.1961C525.698 33.5705 529.5 32.1232 531.67 31.1297L533.46 33.5337ZM524.521 36.3916C527.82 37.2992 532.418 38.8324 534.834 39.9976L533.583 42.6101C531.241 41.494 526.692 39.7891 523.307 38.722L524.521 36.4039V36.3916Z" fill="white"/>
<path d="M561.11 55.8568C557.984 57.807 552.674 59.4137 548.493 60.2846C547.831 59.4996 546.445 58.0032 545.575 57.3899C549.915 56.8135 554.759 55.7709 557.395 54.4463L561.11 55.8568ZM546.703 33.9876V26.5793H553.091C552.429 25.4999 551.46 24.2611 550.59 23.2676L554.06 22.3109C555.225 23.4761 556.525 25.0829 557.15 26.2481L556.194 26.5793H561.92V22.0656H565.758V26.5793H571.104L570.981 26.5425C572.023 25.3037 573.323 23.3903 574.034 22.1515L578.007 23.145C577.088 24.4328 576.009 25.6348 575.089 26.5793H581.526V33.9876H577.762V29.2286H550.406V33.9876H546.703ZM570.049 54.3236C574.439 55.4397 579.319 56.9361 582.25 57.9664L578.277 60.1251C575.69 59.0458 571.177 57.5126 566.751 56.3964L569.596 54.3236H550.847V39.8259H577.701V54.3236H570.049ZM553.177 38.0842V31.1665H575.138V38.0842H553.177ZM554.55 43.9225H573.85V42.0214H554.55V43.9225ZM554.55 47.9824H573.85V46.0322H554.55V47.9824ZM554.55 52.079H573.85V50.092H554.55V52.079ZM556.77 35.8028H571.3V33.4479H556.77V35.8028Z" fill="white"/>
</svg>
