<svg width="228" height="265" viewBox="0 0 228 265" fill="none" xmlns="http://www.w3.org/2000/svg">
<path d="M73.2401 198.844L76.8318 194.733L73.9115 137.707C73.9115 137.707 31.0174 116.067 9.14342 115.604C5.96564 116.531 3.66993 118.272 2.72889 121.136C-3.31016 139.488 46.0106 187.483 73.2392 198.84L73.2401 198.844Z" fill="#4F83C2"/>
<path d="M208.833 140.665L203.499 141.852L173.037 194.635C173.037 194.635 193.609 232.324 210.946 245.632C214.055 246.766 216.936 246.722 219.396 244.968C235.167 233.757 223.999 165.918 208.833 140.665Z" fill="#4F83C2"/>
<path d="M130.809 264.729H138.847C159.198 264.729 175.697 259.959 175.697 239.689H93.9587C93.9587 259.955 110.458 264.729 130.809 264.729Z" fill="#33B8C0"/>
<path d="M104.62 260.045C97.2635 255.935 93.6904 249.277 93.6904 239.689V239.419H175.969V239.689C175.969 249.274 172.392 255.935 165.039 260.045C159.075 263.38 150.508 265 138.85 265H130.813C119.155 265 110.588 263.38 104.623 260.045H104.62Z" fill="#4F83C2"/>
<path d="M123.8 132.809H148.522V130.442H123.8V132.809Z" fill="#313440"/>
<path d="M130.505 156.164C133.525 156.164 135.973 153.726 135.973 150.719C135.973 147.711 133.525 145.273 130.505 145.273C127.485 145.273 125.036 147.711 125.036 150.719C125.036 153.726 127.485 156.164 130.505 156.164Z" fill="white"/>
<path d="M99.6081 245.225C99.6262 245.236 99.6479 245.243 99.666 245.254C106.113 249.339 118.535 254.625 134.878 254.448C135.063 254.452 135.248 254.448 135.433 254.456C135.618 254.452 135.799 254.456 135.987 254.448C152.331 254.625 164.753 249.342 171.2 245.254C171.218 245.243 171.24 245.236 171.258 245.225C205.934 227.961 215.236 150.895 207.626 140.366C201.248 131.546 152.24 128.645 136.469 127.93C136.495 127.901 136.513 127.865 136.538 127.836C136.23 127.847 135.788 127.869 135.433 127.883C135.078 127.869 134.639 127.847 134.328 127.836C134.353 127.865 134.371 127.901 134.396 127.93C118.626 128.641 69.6175 131.546 63.2396 140.366C55.6297 150.895 64.932 227.957 99.6081 245.225Z" fill="white"/>
<path d="M135.179 254.719C135.078 254.719 134.973 254.719 134.879 254.715C116.426 254.917 104.004 248.325 99.5213 245.485L99.4814 245.467C91.3315 241.407 84.0513 233.825 77.8473 222.931C72.6581 213.815 68.2697 202.351 65.1604 189.782C62.5332 179.165 60.8952 168.076 60.551 158.557C60.2248 149.517 61.1199 142.83 63.0152 140.21C65.791 136.371 76.637 133.221 95.2561 130.842C109.835 128.98 125.471 128.075 133.835 127.689L133.708 127.544L134.331 127.569C134.498 127.577 134.705 127.584 134.915 127.595L135.411 127.616L135.93 127.595C136.14 127.584 136.346 127.577 136.517 127.569L137.118 127.551L137.006 127.689C145.366 128.075 161.013 128.98 175.596 130.842C194.211 133.217 205.061 136.371 207.836 140.21C209.732 142.83 210.627 149.517 210.301 158.557C209.956 168.076 208.318 179.165 205.691 189.782C202.582 202.354 198.194 213.815 193.004 222.931C186.8 233.825 179.524 241.407 171.37 245.467L171.323 245.488C166.891 248.296 154.777 254.719 136.81 254.719C136.538 254.719 136.263 254.719 135.988 254.715C135.882 254.715 135.781 254.715 135.676 254.719C135.596 254.719 135.513 254.719 135.419 254.719C135.335 254.719 135.255 254.719 135.172 254.719H135.179Z" fill="#C1DDF7"/>
<mask id="mask0_14_934" style="mask-type:luminance" maskUnits="userSpaceOnUse" x="60" y="127" width="151" height="128">
<path d="M135.179 254.719C135.078 254.719 134.973 254.719 134.879 254.715C116.426 254.917 104.004 248.325 99.5213 245.485L99.4814 245.467C91.3315 241.407 84.0513 233.825 77.8473 222.931C72.6581 213.815 68.2697 202.351 65.1604 189.782C62.5332 179.165 60.8952 168.076 60.551 158.557C60.2248 149.517 61.1199 142.83 63.0152 140.21C65.791 136.371 76.637 133.221 95.2561 130.842C109.835 128.98 125.471 128.075 133.835 127.689L133.708 127.544L134.331 127.569C134.498 127.577 134.705 127.584 134.915 127.595L135.411 127.616L135.93 127.595C136.14 127.584 136.346 127.577 136.517 127.569L137.118 127.551L137.006 127.689C145.366 128.075 161.013 128.98 175.596 130.842C194.211 133.217 205.061 136.371 207.836 140.21C209.732 142.83 210.627 149.517 210.301 158.557C209.956 168.076 208.318 179.165 205.691 189.782C202.582 202.354 198.194 213.815 193.004 222.931C186.8 233.825 179.524 241.407 171.37 245.467L171.323 245.488C166.891 248.296 154.777 254.719 136.81 254.719C136.538 254.719 136.263 254.719 135.988 254.715C135.882 254.715 135.781 254.715 135.676 254.719C135.596 254.719 135.513 254.719 135.419 254.719C135.335 254.719 135.255 254.719 135.172 254.719H135.179Z" fill="white"/>
</mask>
<g mask="url(#mask0_14_934)">
<g opacity="0.5">
<path d="M208.489 187.303C208.8 187.595 208.851 188.075 208.597 188.429C208.318 188.811 207.782 188.898 207.394 188.62L194.443 179.306L155.661 219.625L182.394 244.68C182.742 245.005 182.756 245.546 182.43 245.892C182.104 246.239 181.56 246.253 181.212 245.928L153.215 219.69L194.236 177.047L208.402 187.234C208.434 187.256 208.46 187.281 208.489 187.306V187.303Z" fill="#4F83C2"/>
<path d="M151.32 216.731C152.943 215.013 155.654 214.934 157.375 216.547C159.096 218.16 159.18 220.863 157.56 222.577C155.936 224.295 153.226 224.374 151.504 222.761C149.779 221.144 149.7 218.445 151.32 216.731Z" fill="#4F83C2"/>
</g>
<g opacity="0.5">
<path d="M78.0212 228.643C78.0538 228.589 78.0792 228.528 78.0973 228.466L87.4105 197.934L62.5585 181.98C62.1599 181.724 61.6272 181.839 61.3699 182.236C61.1126 182.644 61.2286 183.164 61.6272 183.42L85.3884 198.674L76.4521 227.968C76.3144 228.423 76.5717 228.899 77.0247 229.036C77.4161 229.156 77.8255 228.982 78.0212 228.643Z" fill="#4F83C2"/>
<path d="M84.1346 202.387C86.1893 203.556 88.8057 202.841 89.9798 200.795C91.1539 198.749 90.4364 196.144 88.3817 194.975C86.327 193.806 83.7107 194.52 82.5366 196.566C81.3624 198.612 82.08 201.218 84.1346 202.387Z" fill="#4F83C2"/>
</g>
</g>
<path d="M136.966 164.092C139.986 164.092 142.434 161.654 142.434 158.647C142.434 155.639 139.986 153.201 136.966 153.201C133.946 153.201 131.498 155.639 131.498 158.647C131.498 161.654 133.946 164.092 136.966 164.092Z" fill="#33BAC1"/>
<path d="M158.122 164.092C161.142 164.092 163.59 161.654 163.59 158.647C163.59 155.639 161.142 153.201 158.122 153.201C155.102 153.201 152.653 155.639 152.653 158.647C152.653 161.654 155.102 164.092 158.122 164.092Z" fill="#F05923"/>
<path d="M116.843 164.092C119.863 164.092 122.311 161.654 122.311 158.647C122.311 155.639 119.863 153.201 116.843 153.201C113.823 153.201 111.375 155.639 111.375 158.647C111.375 161.654 113.823 164.092 116.843 164.092Z" fill="#FCB036"/>
<path d="M209.037 22.4917L206.022 22.6922C205.912 22.6995 205.829 22.794 205.836 22.9034L208.945 69.2611C208.952 69.3705 209.047 69.4532 209.157 69.4459L212.172 69.2454C212.282 69.2381 212.365 69.1435 212.358 69.0342L209.25 22.6765C209.242 22.5671 209.147 22.4844 209.037 22.4917Z" fill="#FA835F"/>
<path d="M208.488 14.2725L205.472 14.473C205.362 14.4803 205.279 14.5749 205.286 14.6843L205.656 20.1932C205.663 20.3026 205.758 20.3853 205.868 20.378L208.884 20.1775C208.993 20.1702 209.076 20.0756 209.069 19.9662L208.7 14.4573C208.692 14.3479 208.597 14.2652 208.488 14.2725Z" fill="#FA835F"/>
<path d="M214.004 84.8182L203.579 85.511L201.908 60.5755L212.334 59.8826C217.262 59.5542 221.524 63.2711 221.853 68.1824L222.332 75.3347C222.661 80.246 218.933 84.4934 214.004 84.8182Z" fill="#4F83C2"/>
<path d="M84.9122 8.13708L72.5851 52.947C72.556 53.0528 72.6185 53.1619 72.7247 53.1909L75.6395 53.9861C75.7457 54.015 75.8554 53.9528 75.8844 53.8471L88.2115 9.03712C88.2406 8.93141 88.1781 8.82222 88.0719 8.79326L85.1571 7.9981C85.0509 7.96913 84.9413 8.03137 84.9122 8.13708Z" fill="#FA835F"/>
<path d="M87.0986 0.191412L85.6337 5.5164C85.6046 5.62212 85.6671 5.7313 85.7733 5.76026L88.6881 6.55543C88.7943 6.58439 88.9039 6.52216 88.933 6.41644L90.3979 1.09145C90.427 0.985733 90.3645 0.876552 90.2583 0.847591L87.3435 0.0524288C87.2373 0.0234676 87.1277 0.0856934 87.0986 0.191412Z" fill="#FA835F"/>
<path d="M67.8132 68.0922L77.8909 70.842L84.5225 46.74L74.4447 43.9903C69.6831 42.6912 64.7619 45.4842 63.4537 50.2332L61.5513 57.1473C60.2467 61.8926 63.0479 66.7967 67.8132 68.0958V68.0922Z" fill="#4F83C2"/>
<path d="M180.057 39.9711C181.705 25.5292 169.12 12.2472 151.948 10.305C134.777 8.36278 119.521 18.4959 117.874 32.9378C116.227 47.3798 128.812 60.6618 145.983 62.604C163.155 64.5462 178.41 54.4131 180.057 39.9711Z" fill="#4F83C2"/>
<path d="M165.416 16.2545C165.137 16.2545 164.855 16.1859 164.59 16.0416C160.687 13.8692 156.364 12.5051 151.747 11.9819C147.406 11.4911 143.137 11.787 139.06 12.866C138.158 13.1042 137.23 12.5701 136.988 11.6679C136.748 10.7658 137.285 9.84557 138.191 9.6038C142.677 8.41656 147.366 8.08818 152.128 8.62947C157.194 9.20324 161.941 10.7044 166.239 13.0969C167.054 13.5516 167.348 14.5801 166.891 15.392C166.579 15.9441 166.003 16.2581 165.413 16.2581L165.416 16.2545Z" fill="#C1DDF7"/>
<path d="M105.671 114.86L164.384 121.496C188.109 124.177 208.246 104.33 205.8 80.6791L203.76 60.9616C201.959 43.5609 188.235 29.7507 170.78 27.7768L121.007 22.151C103.873 20.2131 87.628 30.1946 81.685 46.3179L74.7853 65.0249C66.4324 87.6798 81.5907 112.139 105.671 114.86Z" fill="#C1DDF7"/>
<mask id="mask1_14_934" style="mask-type:luminance" maskUnits="userSpaceOnUse" x="72" y="21" width="135" height="101">
<path d="M105.671 114.86L164.384 121.496C188.109 124.177 208.246 104.33 205.8 80.6791L203.76 60.9616C201.959 43.5609 188.235 29.7507 170.78 27.7768L121.007 22.151C103.873 20.2131 87.628 30.1946 81.685 46.3179L74.7853 65.0249C66.4324 87.6798 81.5907 112.139 105.671 114.86Z" fill="white"/>
</mask>
<g mask="url(#mask1_14_934)">
<g opacity="0.5">
<path d="M206.274 48.1763C206.235 48.1763 206.195 48.1763 206.151 48.1654L127.656 36.073L131.396 21.7107C131.505 21.2885 131.94 21.0359 132.364 21.1441C132.788 21.2524 133.041 21.6854 132.932 22.1076L129.631 34.7775L206.394 46.6029C206.825 46.6715 207.122 47.072 207.057 47.5051C206.996 47.8948 206.659 48.1727 206.274 48.1727V48.1763Z" fill="#4F83C2"/>
<path d="M124.587 36.1559C124.34 38.3139 125.898 40.2625 128.065 40.5079C130.233 40.7533 132.189 39.2016 132.436 37.0437C132.682 34.8857 131.124 32.937 128.957 32.6917C126.79 32.4463 124.833 33.998 124.587 36.1559Z" fill="#4F83C2"/>
</g>
<path opacity="0.5" d="M112.473 96.1601C110.686 95.958 109.044 96.9792 108.385 98.549L74.2379 92.934C73.8067 92.8654 73.3972 93.1541 73.3247 93.5835C73.2522 94.0129 73.5458 94.4207 73.977 94.4929L108.077 100.101C108.091 101.797 109.2 103.291 110.798 103.807L109.269 117.224C109.218 117.657 109.534 118.05 109.969 118.097C109.998 118.097 110.03 118.1 110.059 118.1C110.458 118.1 110.798 117.805 110.845 117.4L112.375 103.984C114.205 103.821 115.73 102.399 115.948 100.508C116.194 98.3505 114.636 96.4018 112.469 96.1565L112.473 96.1601Z" fill="#4F83C2"/>
</g>
<path d="M153.233 89.7114C146.529 89.7114 137.72 89.4119 127.838 88.3221C117.55 87.189 107.722 85.3775 98.6298 82.9345C93.7014 81.6101 89.621 78.4814 87.1387 74.1186C84.7253 69.8785 84.131 64.9816 85.4573 60.3229C86.6676 56.0791 89.4036 52.3984 93.1651 49.9553C96.8759 47.5484 101.351 46.4874 105.761 46.9746C106.74 47.0829 107.722 47.2669 108.679 47.5231C115.832 49.4429 123.75 50.89 132.215 51.821C145.96 53.3366 156.788 53.0479 162.017 52.7412C163.108 52.6762 164.21 52.7051 165.293 52.8242C174.418 53.831 181.444 61.041 181.999 69.9687C182.303 74.8764 180.622 79.6001 177.266 83.2737C173.921 86.9364 169.308 89.116 164.282 89.4083C162.057 89.5382 158.23 89.7042 153.233 89.7042V89.7114ZM103.652 50.1285C100.576 50.1285 97.5426 51.0163 94.9589 52.6943C91.8605 54.7043 89.6101 57.7319 88.6172 61.2142C87.5301 65.0249 88.0229 69.0341 89.9979 72.5056C92.0417 76.0997 95.4118 78.6835 99.4886 79.7769C108.421 82.173 118.082 83.9557 128.204 85.0708C145.199 86.9436 158.966 86.4493 164.094 86.1497C168.261 85.9044 172.077 84.1037 174.842 81.0796C177.596 78.0628 178.973 74.1908 178.727 70.1744C178.27 62.8381 172.472 56.9091 164.938 56.0791C164.039 55.9817 163.122 55.9565 162.217 56.0106C156.882 56.3209 145.848 56.6168 131.86 55.0759C123.228 54.1233 115.143 52.6474 107.827 50.6843C107.033 50.4714 106.218 50.3162 105.406 50.2296C104.823 50.1646 104.239 50.1321 103.66 50.1321L103.652 50.1285Z" fill="#4F83C2"/>
<path d="M128.182 85.2476C145.413 87.1963 159.375 86.6838 164.608 86.3699C173.019 85.8647 179.429 78.6655 178.922 70.2863C178.415 61.9107 171.182 55.527 162.774 56.0322C148.761 56.873 126.801 55.8482 107.185 50.4425C99.0644 48.2051 90.6572 52.9469 88.4105 61.0374C86.1637 69.1243 90.9254 77.4963 99.0499 79.7336C109.131 82.5123 119.111 84.2191 128.185 85.244L128.182 85.2476Z" fill="#1C1316"/>
<path d="M166.761 78.135C166.04 78.135 165.373 77.6731 165.145 76.9514C164.478 74.8367 163.257 72.9169 161.611 71.3977C159.089 69.0738 155.813 67.8685 152.382 67.9984C148.95 68.1319 145.772 69.5862 143.442 72.0942C142.847 72.7329 142.318 73.4294 141.873 74.1655C141.387 74.963 140.347 75.2156 139.546 74.7321C138.745 74.2485 138.492 73.2128 138.977 72.4153C139.543 71.4843 140.209 70.6038 140.959 69.7991C143.909 66.6271 147.921 64.7903 152.255 64.6243C156.596 64.4547 160.734 65.9848 163.92 68.9186C165.996 70.8348 167.54 73.2598 168.384 75.9373C168.663 76.8251 168.167 77.7741 167.275 78.052C167.105 78.1061 166.935 78.1314 166.768 78.1314L166.761 78.135Z" fill="white"/>
<path d="M120.514 72.9061C119.793 72.9061 119.126 72.4442 118.898 71.7225C118.231 69.6078 117.01 67.6881 115.365 66.1688C112.842 63.8449 109.574 62.6396 106.135 62.7695C102.703 62.8994 99.525 64.3573 97.1949 66.8653C96.6006 67.504 96.0715 68.2005 95.6258 68.9366C95.1402 69.7341 94.1002 69.9868 93.2993 69.5032C92.4985 69.0196 92.2448 67.984 92.7304 67.1865C93.2957 66.2554 93.9625 65.3749 94.7126 64.5702C97.6624 61.3982 101.674 59.5615 106.008 59.3955C110.349 59.2331 114.488 60.7559 117.673 63.6897C119.749 65.6059 121.293 68.0309 122.137 70.7085C122.417 71.5962 121.92 72.5453 121.029 72.8231C120.862 72.8773 120.688 72.9025 120.521 72.9025L120.514 72.9061Z" fill="white"/>
</svg>
