<svg width="626" height="227" viewBox="0 0 626 227" fill="none" xmlns="http://www.w3.org/2000/svg">
<path d="M9.37913 105.134C1.91758 105.134 -0.680151 101.591 1.58595 94.5057L25.9788 19.869C26.6513 17.9789 27.7567 16.4723 29.3135 15.3583C30.861 14.2443 32.6481 13.6873 34.6563 13.6873H43.2049C45.213 13.6873 47.0001 14.2626 48.5477 15.4131C50.0953 16.5636 51.2099 18.0885 51.8824 19.9877L76.7727 96.1036C77.6938 98.9068 77.5464 101.107 76.3305 102.714C75.1145 104.321 73.0419 105.125 70.1033 105.125H67.2108C65.1197 105.125 63.2682 104.531 61.6837 103.335C60.0901 102.139 59.0031 100.56 58.4135 98.5781L53.7616 81.6492H23.5929L19.0699 97.7106C17.725 102.65 14.5009 105.125 9.38834 105.125L9.37913 105.134ZM27.6093 67.4414H49.736L46.9725 57.4339C45.7934 53.5623 44.126 47.545 41.9428 39.3911C40.5979 34.1225 39.557 30.1688 38.8016 27.5299H38.295C35.946 37.4188 33.3022 47.3807 30.3728 57.4339L27.6093 67.4414Z" fill="#3A4546"/>
<path d="M70.1125 105.618H67.22C65.0276 105.618 63.0655 104.979 61.3982 103.728C59.7308 102.477 58.5701 100.788 57.9529 98.7242L53.3931 82.1423H23.9614L19.5305 97.8567C18.1303 103.007 14.7128 105.627 9.37913 105.627C5.51018 105.627 2.84797 104.668 1.44777 102.787C0.0475813 100.897 -0.0629603 98.0668 1.11615 94.3687L25.5182 19.7229C26.2183 17.7324 27.3974 16.1344 29.0279 14.9748C30.6584 13.806 32.5468 13.2125 34.6563 13.2125H43.2049C45.3144 13.2125 47.212 13.8243 48.8425 15.0387C50.4638 16.244 51.6429 17.8602 52.343 19.8325L77.2425 95.9575C78.2097 98.8977 78.0347 101.272 76.7266 103.007C75.4185 104.732 73.1893 105.609 70.1125 105.609V105.618ZM23.2245 81.1744H54.1393L58.8925 98.4594C59.4453 100.322 60.4862 101.838 61.9877 102.961C63.4892 104.084 65.2487 104.659 67.2292 104.659H70.1217C72.8761 104.659 74.8382 103.911 75.9528 102.44C77.0582 100.97 77.1872 98.8977 76.3213 96.268L51.4126 20.1429C50.777 18.3624 49.7176 16.9014 48.2529 15.8057C46.7975 14.7191 45.0933 14.1713 43.2049 14.1713H34.6563C32.7587 14.1713 31.0545 14.7009 29.599 15.7509C28.1344 16.801 27.075 18.2346 26.4394 20.0334L2.04654 94.6609C0.968761 98.0394 1.03324 100.578 2.23999 102.212C3.43752 103.838 5.8418 104.659 9.37913 104.659C14.289 104.659 17.3013 102.349 18.5909 97.6011L23.2153 81.1836L23.2245 81.1744ZM50.3808 67.9254H26.9737L29.9122 57.306C32.8324 47.2894 35.4946 37.2361 37.8252 27.4203L37.9173 27.046H39.1701L39.2714 27.3929C40.0176 30.0135 41.0769 34.0129 42.4219 39.2724C44.5958 47.3989 46.2816 53.471 47.4423 57.2878L50.3808 67.9162V67.9254ZM28.2541 66.9575H49.1096L46.5119 57.5617C45.3512 53.7358 43.6562 47.6637 41.4822 39.5189C40.2847 34.7982 39.3083 31.091 38.5805 28.4978C36.296 38.0579 33.6983 47.8372 30.861 57.5708L28.2633 66.9666L28.2541 66.9575Z" fill="#3A4546"/>
<path d="M101.285 105.134C95.0857 105.134 91.9813 102.084 91.9813 95.994V22.8366C91.9813 16.7371 95.0857 13.6965 101.285 13.6965C107.485 13.6965 110.589 16.7462 110.589 22.8366V95.994C110.589 102.094 107.485 105.134 101.285 105.134Z" fill="#3A4546"/>
<path d="M101.285 105.618C94.7909 105.618 91.4931 102.377 91.4931 95.994V22.8366C91.4931 16.4449 94.7909 13.2125 101.285 13.2125C107.78 13.2125 111.077 16.454 111.077 22.8366V95.994C111.077 102.386 107.78 105.618 101.285 105.618ZM101.285 14.1804C95.3528 14.1804 92.4696 17.011 92.4696 22.8457V95.994C92.4696 101.82 95.3528 104.659 101.285 104.659C107.218 104.659 110.101 101.829 110.101 95.994V22.8366C110.101 17.011 107.218 14.1713 101.285 14.1713V14.1804Z" fill="#3A4546"/>
<path d="M143.208 111.681C141.108 107.316 143.245 104.76 149.62 104.02C155.322 103.116 160.057 101.92 163.824 100.441C163.069 100.112 161.936 99.6373 160.434 99.0164C158.923 98.3955 157.79 97.9663 157.044 97.7198L156.915 97.9663C156.409 98.8703 155.405 99.1625 153.894 98.8337C151.296 98.2585 149.371 97.2724 148.109 95.8662C146.764 94.3048 146.727 92.5699 147.98 90.6798C148.569 89.858 149.445 88.4975 150.624 86.5982C150.872 86.1052 151.084 85.7308 151.25 85.4843L143.328 85.6121C139.643 85.6121 137.755 83.8407 137.672 80.2979C137.589 76.5907 139.219 74.7371 142.573 74.7371C148.938 74.7371 153.848 74.7006 157.284 74.6093C157.956 73.4587 158.877 71.806 160.047 69.6694H150.495C148.063 69.6694 146.091 68.9298 144.59 67.4414C143.079 65.9622 142.324 64.0264 142.324 61.6341V54.8407C142.324 52.4484 143.079 50.5126 144.59 49.0334C146.101 47.5542 148.063 46.8054 150.495 46.8054H164.322V42.9795H153.009C150.578 42.9795 148.606 42.2399 147.105 40.7516C145.594 39.2724 144.839 37.3366 144.839 34.9443V29.8766H142.324C138.805 29.8766 137.045 28.1508 137.045 24.6902C137.045 21.2295 138.805 19.5038 142.324 19.5038H144.839V12.5825C144.839 10.6924 145.401 9.20403 146.534 8.1357C147.667 7.06738 149.15 6.52865 151.001 6.52865H164.331V6.28212C164.331 2.41058 166.422 0.474811 170.613 0.474811C174.805 0.474811 176.896 2.41058 176.896 6.28212V6.52865H189.47C191.902 6.52865 193.873 7.26826 195.375 8.75661C196.876 10.245 197.641 12.1716 197.641 14.5639V19.5038H200.404C203.923 19.5038 205.683 21.2295 205.683 24.6902C205.683 28.1508 203.923 29.8766 200.404 29.8766H197.641V36.7979C197.641 38.6149 197.079 40.0941 195.946 41.2446C194.813 42.3952 193.283 42.9704 191.358 42.9704H176.896V46.7963H196.508C198.94 46.7963 200.155 47.9924 200.155 50.3756V50.75C205.692 40.2859 209.791 26.0324 212.481 7.99874C213.153 2.9767 215.834 0.794395 220.523 1.45183C225.129 2.02708 227.1 4.62028 226.428 9.24055C225.921 12.8656 225.129 17.4402 224.042 22.9553H246.297C250.903 22.9553 253.215 25.3476 253.215 30.1231C253.215 34.4055 251.115 36.5513 246.933 36.5513H246.684C244.169 56.2377 240.107 71.9795 234.488 83.7585C238.007 89.9402 242.069 95.0444 246.684 99.0803C249.199 100.897 250.627 102.705 250.959 104.513C251.373 106.321 250.664 108.385 248.821 110.695C247.145 112.676 245.422 113.699 243.663 113.781C242.069 113.781 240.181 112.959 238.007 111.307C233.392 107.271 229.458 102.66 226.188 97.4641C222.328 102.486 217.805 107.061 212.61 111.179C210.261 112.74 207.995 113.325 205.821 112.905C203.638 112.494 201.924 111.179 200.662 108.951C200.331 108.54 199.907 107.965 199.409 107.225C199.078 106.732 198.82 106.358 198.654 106.111L194.002 110.558C192.823 111.708 191.469 112.393 189.912 112.594C188.364 112.795 187.001 112.494 185.822 111.672C182.975 109.946 180 108.257 176.896 106.604C170.613 110.229 162.479 113.032 152.503 115.005C147.805 115.827 144.71 114.713 143.199 111.672L143.208 111.681ZM156.786 60.8945H164.331V55.7081H156.538C155.193 55.7081 154.529 56.3656 154.529 57.6895V58.6757C154.529 60.1549 155.285 60.9036 156.796 60.9036L156.786 60.8945ZM157.035 20.2434H164.331V17.6502C164.331 16.4175 163.704 15.7966 162.442 15.7966H160.057C158.048 15.7966 157.035 16.7827 157.035 18.7642V20.2434ZM158.923 33.7116H164.331V29.137H157.035V31.858C157.035 33.0907 157.661 33.7116 158.923 33.7116ZM175.145 93.3917C177.329 90.9994 179.171 88.2053 180.673 84.9912L164.828 85.2377L162.82 88.6984C164.662 89.2736 166.717 90.0132 168.983 90.9263C170.908 91.6659 172.962 92.4877 175.145 93.4008V93.3917ZM197.152 104.139C206.291 99.199 213.577 92.3599 219.03 83.6307C216.267 77.1203 213.789 69.1307 211.615 59.6618C211.449 59.9084 211.237 60.3193 210.989 60.8945C210.15 62.4559 209.478 63.5699 208.98 64.2273C208.308 65.2956 207.534 65.88 206.65 65.9531C205.765 66.0353 204.992 65.67 204.328 64.8391C203.905 64.346 203.214 63.6247 202.256 62.6751C201.289 61.7254 200.598 61.0041 200.183 60.511V65.4509C200.183 68.2541 198.755 69.6511 195.909 69.6511H172.52L173.524 69.8977C173.607 69.8977 173.653 69.9433 173.653 70.0255L171.138 74.4723C176.168 74.3901 183.915 74.3079 194.398 74.2258C196.996 74.1436 198.967 74.0979 200.303 74.0979C203.988 73.9336 205.747 75.6593 205.581 79.2843C205.498 82.5806 203.739 84.3064 200.303 84.4707L194.02 84.5985C192.261 90.1228 189.829 94.7705 186.725 98.5598C187.305 98.8885 188.153 99.2994 189.24 99.7925C192.924 101.774 195.568 103.207 197.162 104.121L197.152 104.139ZM176.914 20.2343H184.836V17.6411C184.836 16.4084 184.21 15.7875 182.948 15.7875H179.926C177.918 15.7875 176.914 16.7736 176.914 18.755V20.2343ZM176.914 33.7025H181.815C183.823 33.7025 184.836 32.7163 184.836 30.7349V29.1278H176.914V33.7025ZM176.914 60.8854H185.085C186.596 60.8854 187.351 60.1458 187.351 58.6574V57.9178C187.351 56.4386 186.596 55.6899 185.085 55.6899H176.914V60.8854ZM226.953 66.3183C228.288 62.1181 229.467 57.4613 230.472 52.3571C231.393 47.6637 232.185 42.3951 232.857 36.5422H220.532L220.283 37.2818C222.043 48.4855 224.263 58.1644 226.943 66.3183H226.953Z" fill="#3A4546"/>
<path d="M149.739 115.763C146.377 115.763 144.037 114.466 142.766 111.9C141.79 109.873 141.679 108.156 142.434 106.814C143.411 105.061 145.741 103.993 149.564 103.554C154.631 102.751 158.988 101.692 162.535 100.423C161.908 100.158 161.144 99.8382 160.25 99.4729C159.006 98.9616 158.002 98.5781 157.275 98.3224C156.63 99.3542 155.46 99.6829 153.792 99.3177C151.103 98.7242 149.067 97.6741 147.75 96.204C146.248 94.46 146.193 92.5151 147.584 90.4333C148.173 89.6115 149.048 88.2509 150.218 86.37C150.283 86.2421 150.347 86.1234 150.403 86.0047L143.346 86.1143C139.404 86.1143 137.285 84.1146 137.193 80.3252C137.147 78.2434 137.626 76.6729 138.63 75.6593C139.542 74.7371 140.868 74.2714 142.582 74.2714C148.772 74.2714 153.627 74.2349 157.007 74.1527C157.569 73.1757 158.306 71.87 159.237 70.1716H150.504C147.952 70.1716 145.852 69.3772 144.249 67.8067C142.655 66.2361 141.845 64.1634 141.845 61.6524V54.8589C141.845 52.3479 142.655 50.2752 144.249 48.7047C145.843 47.1341 147.952 46.3397 150.504 46.3397H163.843V43.4726H153.019C150.467 43.4726 148.367 42.6782 146.764 41.1077C145.17 39.5372 144.36 37.4644 144.36 34.9534V30.3696H142.333C138.556 30.3696 136.566 28.4065 136.566 24.6993C136.566 20.9921 138.565 19.029 142.333 19.029H144.36V12.5916C144.36 10.5737 144.986 8.95749 146.211 7.79786C147.436 6.64736 149.048 6.05384 151.011 6.05384H163.852C163.944 2.09099 166.274 0 170.622 0C174.97 0 177.301 2.09099 177.393 6.05384H189.479C192.031 6.05384 194.131 6.84824 195.734 8.41877C197.327 9.98929 198.138 12.062 198.138 14.573V19.029H200.413C204.19 19.029 206.18 20.9921 206.18 24.6993C206.18 28.4065 204.181 30.3696 200.413 30.3696H198.138V36.807C198.138 38.7428 197.521 40.3498 196.305 41.5916C195.089 42.8334 193.422 43.4635 191.367 43.4635H177.393V46.3306H196.517C198.718 46.3306 200.073 47.262 200.506 49.0425C205.6 38.8158 209.469 25.0006 212.011 7.94395C212.37 5.22292 213.338 3.25976 214.867 2.10013C216.295 1.02267 218.229 0.6483 220.606 0.986146C223.01 1.28747 224.779 2.14578 225.838 3.52456C226.916 4.9216 227.284 6.87563 226.925 9.3136C226.446 12.7925 225.672 17.221 224.64 22.4805H246.307C251.216 22.4805 253.704 25.0554 253.704 30.1322C253.704 34.5882 251.428 36.9805 247.108 37.0353C244.612 56.3656 240.549 72.0708 235.031 83.7402C238.486 89.7484 242.511 94.7887 246.997 98.7242C249.568 100.578 251.069 102.504 251.428 104.44C251.88 106.376 251.124 108.586 249.19 111.005C247.421 113.087 245.57 114.192 243.672 114.274C241.931 114.274 239.987 113.434 237.694 111.708C233.217 107.791 229.338 103.299 226.133 98.3315C222.365 103.153 217.916 107.609 212.895 111.581C210.417 113.233 208.004 113.845 205.71 113.407C203.389 112.969 201.546 111.553 200.22 109.216C199.925 108.86 199.492 108.266 198.986 107.517L198.553 106.887L194.315 110.932C193.072 112.147 191.607 112.886 189.958 113.105C188.291 113.325 186.798 112.987 185.527 112.092C182.791 110.43 179.88 108.777 176.886 107.179C170.613 110.75 162.433 113.553 152.586 115.507C151.563 115.69 150.605 115.772 149.721 115.772L149.739 115.763ZM143.641 111.471C145.06 114.32 147.925 115.324 152.42 114.539C162.286 112.585 170.438 109.773 176.647 106.193L176.886 106.056L177.126 106.184C180.212 107.828 183.224 109.535 186.08 111.261C187.185 112.037 188.41 112.311 189.847 112.119C191.285 111.928 192.565 111.288 193.652 110.211L198.728 105.362L199.805 106.951C200.294 107.673 200.708 108.248 201.04 108.65C202.283 110.832 203.859 112.046 205.904 112.43C207.939 112.813 210.104 112.256 212.333 110.777C217.446 106.723 221.987 102.139 225.792 97.1719L226.216 96.6149L226.593 97.2084C229.817 102.331 233.769 106.951 238.32 110.941C240.374 112.494 242.18 113.288 243.654 113.288C245.238 113.215 246.859 112.229 248.435 110.375C250.166 108.211 250.848 106.266 250.47 104.614C250.157 102.915 248.785 101.19 246.38 99.4547C241.719 95.3731 237.583 90.1776 234.046 83.9776L233.926 83.7585L234.036 83.5302C239.6 71.8517 243.69 56.0186 246.187 36.4691L246.242 36.0491H246.924C250.83 36.0491 252.718 34.1042 252.718 30.1048C252.718 25.6033 250.618 23.421 246.288 23.421H223.443L223.553 22.8457C224.64 17.3489 225.442 12.7469 225.939 9.15837C226.253 6.97607 225.949 5.27771 225.046 4.09068C224.143 2.92191 222.605 2.19144 220.458 1.91751C218.33 1.61618 216.645 1.93577 215.438 2.84887C214.121 3.84414 213.282 5.58816 212.96 8.05353C210.279 26.0781 206.116 40.5142 200.588 50.9691L199.667 52.704V50.3756C199.667 48.2572 198.663 47.2711 196.508 47.2711H176.407V42.4773H191.349C193.155 42.4773 194.545 41.9569 195.586 40.8977C196.637 39.8293 197.143 38.4871 197.143 36.7887V29.3835H200.395C203.665 29.3835 205.185 27.886 205.185 24.6719C205.185 21.4578 203.665 19.9603 200.395 19.9603H197.143V14.5365C197.143 12.2903 196.434 10.455 195.025 9.0762C193.615 7.69742 191.745 6.99433 189.461 6.99433H176.398V6.26385C176.398 2.68451 174.501 0.940491 170.595 0.940491C166.689 0.940491 164.791 2.68451 164.791 6.26385V6.99433H150.974C149.242 6.99433 147.897 7.47827 146.847 8.46442C145.806 9.45057 145.299 10.7928 145.299 12.5642V19.9695H142.296C139.026 19.9695 137.506 21.4669 137.506 24.681C137.506 27.8952 139.026 29.3926 142.296 29.3926H145.299V34.9443C145.299 37.2179 145.99 39.0076 147.418 40.4137C148.827 41.7925 150.697 42.4956 152.982 42.4956H164.782V47.2894H150.467C148.183 47.2894 146.313 47.9924 144.903 49.3712C143.494 50.75 142.784 52.5945 142.784 54.8407V61.6341C142.784 63.9077 143.475 65.6974 144.903 67.1036C146.313 68.4824 148.183 69.1854 150.467 69.1854H160.84L160.453 69.8977C159.246 72.1074 158.334 73.7235 157.68 74.8467L157.542 75.0841H157.265C153.866 75.1754 148.91 75.2119 142.545 75.2119C141.099 75.2119 140.012 75.5771 139.293 76.3076C138.482 77.1294 138.086 78.4625 138.132 80.2796C138.206 83.5394 139.901 85.119 143.3 85.119L152.153 84.982L151.628 85.749C151.471 85.9682 151.278 86.3243 151.029 86.8083C149.831 88.744 148.938 90.1228 148.348 90.9446C147.224 92.6429 147.252 94.1496 148.45 95.5466C149.629 96.8615 151.48 97.8019 153.968 98.3589C155.874 98.7698 156.307 97.9937 156.455 97.7289L156.759 97.1263L157.155 97.2541C157.919 97.5098 159.071 97.948 160.582 98.5598C162.092 99.1807 163.225 99.6555 163.99 99.9843L165.059 100.45L163.972 100.879C160.185 102.367 155.368 103.582 149.666 104.495C146.211 104.897 144.056 105.828 143.254 107.271C142.665 108.33 142.784 109.745 143.613 111.471H143.641ZM197.134 104.696L196.895 104.559C195.292 103.646 192.629 102.194 188.982 100.24C187.885 99.7468 187.047 99.336 186.458 98.9981L185.96 98.715L186.319 98.2768C189.368 94.5513 191.791 89.9036 193.523 84.4707L193.624 84.142L200.257 84.0142C203.407 83.8681 204.982 82.3158 205.056 79.2934C205.13 77.6316 204.78 76.3989 204.015 75.6411C203.241 74.8741 201.989 74.5271 200.284 74.6001C198.949 74.6001 197.023 74.6366 194.37 74.728C184.007 74.8101 176.186 74.8923 171.101 74.9745H170.254L172.916 70.2812L168.485 69.1946H195.863C198.442 69.1946 199.649 68.0167 199.649 65.4783V59.2144L200.506 60.228C200.92 60.7119 201.602 61.4333 202.551 62.3555C203.536 63.3234 204.227 64.0447 204.651 64.5469C205.222 65.25 205.848 65.5513 206.558 65.4874C207.285 65.4235 207.921 64.9304 208.52 63.9808C209.026 63.3142 209.69 62.2094 210.519 60.6754C210.777 60.0819 210.989 59.6618 211.173 59.397L211.799 58.4748L212.048 59.5614C214.213 68.9663 216.7 77.0016 219.445 83.4572L219.546 83.6855L219.417 83.8955C213.946 92.6612 206.53 99.619 197.355 104.577L197.116 104.705L197.134 104.696ZM187.443 98.432C187.959 98.6968 188.613 99.0072 189.415 99.3816C192.915 101.263 195.504 102.669 197.134 103.591C205.968 98.7607 213.144 92.0312 218.459 83.585C215.862 77.4216 213.494 69.852 211.412 61.0589V61.0771C210.528 62.7207 209.855 63.8347 209.33 64.5104C208.603 65.6792 207.7 66.3366 206.659 66.4279C205.6 66.5192 204.688 66.09 203.905 65.1404C203.509 64.6747 202.818 63.9534 201.869 63.022C201.39 62.5472 200.975 62.1363 200.625 61.7711V65.46C200.625 68.528 198.976 70.1442 195.863 70.1442H174.095L171.931 73.9883C177.015 73.9062 184.551 73.8331 194.352 73.7509C197.005 73.6688 198.949 73.6231 200.266 73.6231C202.237 73.5409 203.73 73.9792 204.706 74.9471C205.673 75.9058 206.125 77.3759 206.033 79.3117C205.94 82.8271 203.96 84.7903 200.284 84.9638L194.334 85.0825C192.639 90.278 190.317 94.7613 187.425 98.4229L187.443 98.432ZM175.265 93.9669L174.943 93.83C172.732 92.9169 170.669 92.086 168.799 91.3646C166.56 90.4698 164.506 89.7302 162.663 89.1458L162.083 88.9632L164.533 84.7446L181.428 84.4798L181.096 85.1829C179.576 88.4244 177.688 91.2916 175.486 93.7021L175.256 93.9578L175.265 93.9669ZM163.539 88.4153C165.252 88.9723 167.14 89.6571 169.158 90.4698C170.945 91.1546 172.907 91.9399 175.007 92.8073C176.886 90.698 178.526 88.2327 179.89 85.4751L165.114 85.7034L163.539 88.4062V88.4153ZM226.943 67.9071L226.474 66.4827C223.793 58.347 221.545 48.5494 219.795 37.3731L219.777 37.2544L220.173 36.0765H233.392L233.327 36.6152C232.655 42.4499 231.853 47.7824 230.932 52.4666C229.928 57.5526 228.74 62.2733 227.395 66.4827L226.934 67.9162L226.943 67.9071ZM220.771 37.3275C222.411 47.7459 224.484 56.9499 226.925 64.7113C228.067 60.9128 229.099 56.7399 229.974 52.2657C230.858 47.755 231.641 42.6234 232.295 37.0261H220.873L220.771 37.3275ZM185.067 61.3693H176.407V55.215H185.067C186.844 55.215 187.821 56.1738 187.821 57.9178V58.6574C187.821 60.4014 186.844 61.3602 185.067 61.3602V61.3693ZM177.384 60.4014H185.067C186.31 60.4014 186.844 59.881 186.844 58.6574V57.9178C186.844 56.6943 186.31 56.1738 185.067 56.1738H177.384V60.4014ZM164.81 61.3693H156.777C154.999 61.3693 154.023 60.4106 154.023 58.6666V57.6804C154.023 56.0916 154.907 55.2242 156.519 55.2242H164.801V61.3785L164.81 61.3693ZM156.528 56.1829C155.46 56.1829 154.999 56.6304 154.999 57.6804V58.6666C154.999 59.8901 155.534 60.4106 156.777 60.4106H163.833V56.1829H156.528ZM181.796 34.1864H176.407V28.653H185.306V30.744C185.306 32.9994 184.09 34.1955 181.806 34.1955L181.796 34.1864ZM177.384 33.2185H181.796C183.547 33.2185 184.33 32.4515 184.33 30.7349V29.6118H177.384V33.2185ZM164.81 34.1864H158.914C157.385 34.1864 156.538 33.3555 156.538 31.8489V28.6439H164.801V34.1773L164.81 34.1864ZM157.514 29.6118V31.8489C157.514 32.8259 157.919 33.2185 158.914 33.2185H163.833V29.6118H157.514ZM185.297 20.7182H176.398V18.755C176.398 16.4997 177.614 15.3035 179.899 15.3035H182.92C184.449 15.3035 185.297 16.1344 185.297 17.6411V20.7182ZM177.375 19.7503H184.32V17.6411C184.32 16.664 183.915 16.2714 182.92 16.2714H179.899C178.148 16.2714 177.365 17.0384 177.365 18.755V19.7594L177.375 19.7503ZM164.801 20.7182H156.538V18.755C156.538 16.4997 157.754 15.3035 160.038 15.3035H162.424C163.953 15.3035 164.801 16.1344 164.801 17.6411V20.7182ZM157.505 19.7503H163.824V17.6411C163.824 16.664 163.419 16.2714 162.424 16.2714H160.038C158.288 16.2714 157.505 17.0384 157.505 18.755V19.7594V19.7503Z" fill="#3A4546"/>
<path d="M286.433 115.516C281.735 115.516 279.395 113.206 279.395 108.595V50.1474C279.064 50.5582 278.576 51.1792 277.949 52.0009C277.323 52.8227 276.835 53.4436 276.503 53.8545C273.988 56.5756 271.786 57.8722 269.898 57.7443C268.01 57.6165 266.269 55.9912 264.684 52.8593C263.505 50.5582 263.054 48.5312 263.302 46.8054C263.551 45.0797 264.601 43.2626 266.444 41.3725C275.158 31.9037 282.537 20.6086 288.57 7.5148C290.413 2.98583 293.554 1.46096 298.003 2.94018C302.784 4.59288 304.203 7.59698 302.277 11.9616C299.846 17.568 296.916 23.2931 293.48 29.137V108.595C293.48 113.206 291.131 115.516 286.442 115.516H286.433ZM307.049 110.695C302.351 110.695 300.011 108.385 300.011 103.774C300.011 99.1625 302.36 96.8523 307.049 96.8523H340.746C345.527 82.0236 349.166 66.2544 351.68 49.5264C352.436 44.2579 355.494 42.0299 360.855 42.8517C366.217 43.6735 368.317 46.8511 367.138 52.3662C363.619 68.7563 359.593 83.585 355.07 96.8523H373.3C377.998 96.8523 380.338 99.1625 380.338 103.774C380.338 108.385 377.989 110.695 373.3 110.695H307.04H307.049ZM309.564 36.6792C304.866 36.6792 302.526 34.3325 302.526 29.6392C302.526 24.9458 304.875 22.7179 309.564 22.7179H331.691V9.36839C331.691 4.51071 334.206 2.08186 339.235 2.08186C344.265 2.08186 346.651 4.51071 346.651 9.36839V22.7179H370.795C375.493 22.7179 377.833 25.028 377.833 29.6392C377.833 34.2503 375.484 36.6792 370.795 36.6792H309.564ZM320.379 90.9263C318.951 90.1045 318.195 88.3331 318.113 85.6121C317.523 80.0148 316.86 74.8649 316.104 70.1625C315.266 64.3186 314.096 57.9726 312.585 51.1335C311.664 46.7689 313.47 44.1757 317.993 43.3448C322.267 42.6052 324.911 44.2944 325.915 48.4125C329.268 61.762 331.525 73.7053 332.704 84.2516C332.87 86.3973 332.492 87.9587 331.571 88.9449C330.65 89.931 329.01 90.6707 326.67 91.1729C323.824 91.7481 321.724 91.6659 320.388 90.9263H320.379Z" fill="#3A4546"/>
<path d="M286.433 116C281.44 116 278.907 113.507 278.907 108.595V51.5535C278.732 51.7818 278.539 52.0283 278.336 52.2931C277.7 53.1241 277.221 53.745 276.881 54.1559C274.218 57.0412 271.915 58.3652 269.87 58.2283C267.807 58.0913 265.918 56.3656 264.251 53.0784C263.035 50.6952 262.556 48.5586 262.823 46.7415C263.09 44.9153 264.187 42.9978 266.094 41.0346C274.725 31.6571 282.14 20.3073 288.128 7.31392C290.072 2.54754 293.443 0.913098 298.16 2.48363C300.739 3.36933 302.416 4.67506 303.153 6.35516C303.862 7.96222 303.714 9.90711 302.72 12.1533C300.306 17.7141 297.358 23.4666 293.959 29.2648V108.595C293.959 113.507 291.426 116 286.433 116ZM279.884 48.7777V108.595C279.884 112.923 282.03 115.032 286.433 115.032C290.836 115.032 292.983 112.923 292.983 108.595V29.0091L293.047 28.8996C296.456 23.1014 299.413 17.3397 301.826 11.779C302.701 9.78841 302.849 8.09918 302.259 6.7478C301.633 5.32336 300.15 4.20025 297.837 3.40586C293.655 2.00882 290.763 3.40586 289.022 7.70655C282.988 20.8095 275.508 32.2415 266.803 41.7103C265.034 43.5365 264.021 45.2714 263.781 46.8876C263.542 48.5129 263.993 50.4578 265.117 52.6584C266.619 55.6077 268.24 57.1691 269.935 57.2787C271.648 57.3974 273.749 56.1373 276.144 53.5441C276.457 53.1606 276.936 52.5488 277.562 51.727C278.198 50.8961 278.677 50.2752 279.018 49.8643L279.884 48.796V48.7777ZM307.058 111.179C302.066 111.179 299.532 108.686 299.532 103.774C299.532 98.8611 302.066 96.3684 307.058 96.3684H340.396C345.094 81.7223 348.733 65.944 351.211 49.4534C351.607 46.7141 352.62 44.7236 354.241 43.5365C355.872 42.3404 358.138 41.9477 360.947 42.3769C363.693 42.7969 365.655 43.8378 366.797 45.4632C367.985 47.1615 368.271 49.5173 367.644 52.4666C364.19 68.5463 360.201 83.3111 355.78 96.3684H373.328C378.321 96.3684 380.854 98.8611 380.854 103.774C380.854 108.686 378.321 111.179 373.328 111.179H307.058ZM307.058 97.3363C302.646 97.3363 300.509 99.4455 300.509 103.774C300.509 108.102 302.655 110.211 307.058 110.211H373.319C377.731 110.211 379.868 108.102 379.868 103.774C379.868 99.4455 377.722 97.3363 373.319 97.3363H354.407L354.628 96.6971C359.123 83.5211 363.186 68.5645 366.686 52.2657C367.257 49.5904 367.018 47.4902 365.995 46.011C365.019 44.614 363.269 43.71 360.8 43.3265C358.248 42.9339 356.24 43.2626 354.822 44.3035C353.421 45.3353 352.528 47.1067 352.178 49.5904C349.672 66.2635 345.987 82.2062 341.225 96.9984L341.114 97.3363H307.058ZM323.354 92.0312C322.037 92.0312 320.977 91.8029 320.148 91.3372C318.573 90.4241 317.735 88.4975 317.643 85.6121C317.062 80.0787 316.39 74.8923 315.635 70.2264C314.796 64.4008 313.617 58.0091 312.116 51.2248C311.637 48.9421 311.867 47.0793 312.816 45.6732C313.783 44.2487 315.496 43.2991 317.91 42.8608C322.46 42.0664 325.316 43.8926 326.394 48.2846C329.738 61.5793 332.022 73.6596 333.192 84.1785C333.367 86.4704 332.944 88.1688 331.93 89.2553C330.926 90.3328 329.24 91.0998 326.772 91.6203C325.482 91.8851 324.349 92.0129 323.354 92.0129V92.0312ZM320.627 90.4972C321.853 91.1729 323.861 91.2459 326.578 90.6889C328.807 90.2141 330.373 89.5201 331.221 88.607C332.041 87.7305 332.382 86.2695 332.225 84.279C331.055 73.8149 328.78 61.7802 325.445 48.522C324.506 44.6596 322.101 43.1256 318.085 43.8105C315.948 44.2031 314.446 45.0066 313.626 46.2119C312.834 47.3898 312.641 49.006 313.074 51.0239C314.575 57.8356 315.764 64.2456 316.602 70.0803C317.348 74.7553 318.03 79.96 318.619 85.5482C318.702 88.114 319.375 89.7576 320.637 90.488L320.627 90.4972ZM370.804 37.154H309.573C304.58 37.154 302.047 34.6247 302.047 29.63C302.047 24.6354 304.58 22.2248 309.573 22.2248H331.212V9.36839C331.212 4.20938 333.911 1.59792 339.244 1.59792C344.578 1.59792 347.148 4.20938 347.148 9.36839V22.2339H370.804C375.797 22.2339 378.33 24.7267 378.33 29.6392C378.33 34.5516 375.797 37.1631 370.804 37.1631V37.154ZM309.573 23.1927C305.161 23.1927 303.024 25.3019 303.024 29.63C303.024 33.9581 305.17 36.1861 309.573 36.1861H370.804C375.216 36.1861 377.354 34.0403 377.354 29.63C377.354 25.2198 375.207 23.1927 370.804 23.1927H346.181V9.36839C346.181 4.78464 343.915 2.55667 339.254 2.55667C334.592 2.55667 332.197 4.78464 332.197 9.36839V23.1927H309.573Z" fill="#3A4546"/>
<path d="M397.656 112.43C392.793 112.43 390.361 110.037 390.361 105.262C390.361 100.486 392.793 97.9754 397.656 97.9754H438.52V73.1392H411.861C407.08 73.1392 404.694 70.7468 404.694 65.9713C404.694 61.1958 407.08 58.9314 411.861 58.9314H438.52V37.1814H412.745C410.313 41.7925 407.928 45.7919 405.579 49.1703C403.985 51.2339 402.373 52.4027 400.742 52.6949C399.112 52.9871 397.205 52.4301 395.022 51.0239C392.424 49.3804 390.978 47.6911 390.683 45.9562C390.388 44.2305 391.208 42.2125 393.133 39.9024C399.084 31.4197 403.902 21.3665 407.596 9.75189C409.107 4.56549 412.331 2.54754 417.278 3.69805C422.639 4.84855 424.49 7.98048 422.814 13.0847C421.561 16.8741 420.382 20.1247 419.295 22.8457H438.529V8.1357C438.529 3.11366 441.127 0.593514 446.322 0.593514C451.518 0.593514 453.996 3.10453 453.996 8.1357V22.8366H488.697C493.56 22.8366 495.992 25.2289 495.992 30.0044C495.992 34.7799 493.56 37.1722 488.697 37.1722H453.996V58.9222H484.045C488.826 58.9222 491.211 61.2689 491.211 65.9622C491.211 70.6555 488.826 73.13 484.045 73.13H453.996V97.9663H494.979C499.843 97.9663 502.275 100.395 502.275 105.253C502.275 110.111 499.843 112.421 494.979 112.421H397.666L397.656 112.43Z" fill="#3A4546"/>
<path d="M494.979 112.905H397.666C392.507 112.905 389.891 110.33 389.891 105.253C389.891 100.176 392.507 97.4824 397.666 97.4824H438.041V73.614H411.87C406.795 73.614 404.215 71.039 404.215 65.9622C404.215 60.8854 406.785 58.4383 411.87 58.4383H438.041V37.6562H413.049C410.663 42.1577 408.287 46.1206 405.993 49.4351C404.317 51.6083 402.585 52.8501 400.835 53.1606C399.093 53.471 397.039 52.8867 394.764 51.4257C392.056 49.7091 390.527 47.9011 390.213 46.0384C389.9 44.1757 390.757 42.0025 392.774 39.5919C398.642 31.228 403.488 21.12 407.145 9.60579C408.729 4.16373 412.174 2.00882 417.397 3.22324C420.216 3.82588 422.151 5.00378 423.136 6.70214C424.113 8.38224 424.159 10.5828 423.284 13.2399C422.132 16.7097 421.036 19.7777 420.013 22.3709H438.05V8.1357C438.05 2.81234 440.841 0.118703 446.332 0.118703C451.822 0.118703 454.484 2.82147 454.484 8.1357V22.3618H488.697C493.855 22.3618 496.481 24.9367 496.481 30.0135C496.481 35.0904 493.864 37.6653 488.697 37.6653H454.484V58.4474H484.045C489.12 58.4474 491.7 60.9767 491.7 65.9713C491.7 70.966 489.13 73.6231 484.045 73.6231H454.484V97.4915H494.988C500.147 97.4915 502.763 100.103 502.763 105.262C502.763 110.421 500.147 112.914 494.988 112.914L494.979 112.905ZM397.666 98.4502C393.087 98.4502 390.858 100.678 390.858 105.262C390.858 109.846 393.087 111.946 397.666 111.946H494.979C499.557 111.946 501.787 109.764 501.787 105.262C501.787 100.76 499.557 98.4502 494.979 98.4502H453.508V72.6461H484.045C488.54 72.6461 490.723 70.4638 490.723 65.9622C490.723 61.4606 488.54 59.4062 484.045 59.4062H453.508V36.6974H488.697C493.275 36.6974 495.504 34.5151 495.504 30.0135C495.504 25.512 493.275 23.3297 488.697 23.3297H453.508V8.1357C453.508 3.38759 451.159 1.07746 446.322 1.07746C441.486 1.07746 439.017 3.38759 439.017 8.1357V23.3205H418.576L418.844 22.6631C419.931 19.9512 421.11 16.6732 422.353 12.9295C423.136 10.5463 423.118 8.60139 422.289 7.17695C421.451 5.72513 419.728 4.71159 417.185 4.16373C412.487 3.06801 409.512 4.93986 408.075 9.87972C404.381 21.5035 399.499 31.6936 393.548 40.1763C391.696 42.3951 390.904 44.2944 391.181 45.8741C391.448 47.4537 392.839 49.0516 395.298 50.613C397.362 51.9462 399.167 52.4758 400.669 52.211C402.17 51.9462 403.699 50.823 405.21 48.869C407.513 45.5453 409.917 41.5277 412.331 36.9531L412.469 36.6974H439.027V59.4062H411.889C407.393 59.4062 405.21 61.5519 405.21 65.9622C405.21 70.3725 407.393 72.6461 411.889 72.6461H439.027V98.4502H397.666Z" fill="#3A4546"/>
<path d="M532.351 57.6256C530.804 58 528.934 57.5252 526.76 56.2012C526.511 56.0368 526.05 55.7903 525.378 55.4616C523.867 54.5576 522.734 53.9002 521.988 53.4802C519.307 52.0009 517.253 50.8413 515.825 50.0195C511.8 47.7916 511.21 44.7053 514.066 40.7516C516.498 37.5375 519.344 36.7157 522.614 38.2771C523.121 38.5236 523.913 38.9345 525 39.5098C529.698 41.7377 533.107 43.4452 535.244 44.6414C537.381 45.8375 538.532 47.1707 538.698 48.659C538.947 50.0652 538.339 51.8092 536.874 53.9093C535.41 56.0094 533.899 57.2421 532.351 57.6165V57.6256ZM517.198 109.216C515.098 107.563 513.882 105.956 513.55 104.395C513.209 102.833 513.762 101.016 515.181 98.9616C517.944 94.7613 520.505 90.762 522.854 86.9726C525.783 82.2793 528.51 77.6225 531.025 73.0113C533.705 67.9893 537.188 67.4506 541.462 71.4043C544.391 74.1253 544.981 77.2116 543.221 80.6722C537.768 90.8076 532.747 99.7469 528.132 107.49C525.194 112.101 521.555 112.676 517.198 109.216ZM537.759 23.9506C536.128 24.2793 534.304 23.7497 532.287 22.3435C531.697 22.0148 530.822 21.4761 529.643 20.7365C528.805 20.2434 528.178 19.869 527.755 19.6225C527.082 19.2116 526.078 18.6181 524.733 17.8328C523.388 17.0475 522.384 16.4906 521.712 16.1618C517.437 13.9339 516.894 10.8111 520.081 6.77519C522.513 3.64326 525.406 2.90365 528.759 4.54723C529.68 5.0403 531.062 5.74339 532.904 6.64735C536.672 8.62878 539.398 10.0623 541.075 10.9754C543.258 12.2081 544.428 13.5686 544.594 15.057C544.76 16.5362 544.069 18.3167 542.521 20.3712C540.974 22.4348 539.38 23.631 537.74 23.9506H537.759ZM561.958 110.823C559.526 110.823 557.555 110.083 556.053 108.595C554.552 107.106 553.787 105.18 553.787 102.787V73.9975C553.787 71.6052 554.543 69.6694 556.053 68.1902C557.564 66.711 559.526 65.9622 561.958 65.9622H579.184V50.3939H553.281C548.5 50.3939 546.114 48.0472 546.114 43.3539C546.114 38.6606 548.5 36.3139 553.281 36.3139H579.184V21.8596C573.233 22.6814 567.236 23.421 561.203 24.0875C557.011 24.4162 554.285 22.7727 553.032 19.1477C551.521 14.4543 553.612 11.779 559.314 11.1124C578.171 8.8114 593.214 5.79817 604.452 2.09099C606.294 1.43356 607.888 1.35139 609.233 1.84446C610.403 2.25535 611.748 3.2415 613.259 4.81203C618.122 9.66971 617.404 13.1304 611.121 15.194C605.843 16.6732 599.892 18.0793 593.269 19.3942V36.323H617.662C622.443 36.323 624.829 38.6697 624.829 43.363C624.829 48.0564 622.443 50.403 617.662 50.403H593.269V65.9714H610.495C612.927 65.9714 614.898 66.711 616.4 68.1993C617.911 69.6785 618.666 71.6143 618.666 74.0066V102.797C618.666 105.189 617.911 107.125 616.4 108.604C614.889 110.083 612.918 110.832 610.495 110.832H561.967L561.958 110.823ZM570.129 97.4732H601.56C603.568 97.4732 604.581 96.4871 604.581 94.5057V82.2702C604.581 80.2887 603.577 79.3026 601.56 79.3026H570.129C568.121 79.3026 567.107 80.2887 567.107 82.2702V94.5057C567.107 96.4871 568.112 97.4732 570.129 97.4732Z" fill="#3A4546"/>
<path d="M522.412 111.918C520.689 111.918 518.838 111.142 516.894 109.59C514.72 107.873 513.43 106.166 513.071 104.495C512.703 102.806 513.283 100.852 514.784 98.6877C517.53 94.5148 520.109 90.4789 522.439 86.7261C525.369 82.0419 528.114 77.3485 530.601 72.7831C531.992 70.1716 533.65 68.6832 535.52 68.3728C537.418 68.0532 539.537 68.9572 541.803 71.0482C544.898 73.9153 545.524 77.2298 543.664 80.8822C538.229 90.9902 533.144 100.021 528.565 107.727C527.027 110.138 525.268 111.517 523.333 111.845C523.038 111.891 522.734 111.918 522.43 111.918H522.412ZM536.266 69.2768C536.064 69.2768 535.87 69.295 535.677 69.3224C534.12 69.5781 532.701 70.8929 531.458 73.2305C528.961 77.8142 526.207 82.5258 523.269 87.2191C520.938 90.9811 518.349 95.0261 515.595 99.2172C514.25 101.162 513.725 102.87 514.029 104.285C514.333 105.728 515.503 107.262 517.502 108.823C519.575 110.467 521.481 111.161 523.158 110.878C524.816 110.604 526.345 109.371 527.727 107.207C532.296 99.5277 537.372 90.5154 542.798 80.4257C544.456 77.1568 543.921 74.3171 541.139 71.7421C539.362 70.0894 537.722 69.2585 536.285 69.2585L536.266 69.2768ZM610.486 111.307H561.958C559.406 111.307 557.306 110.512 555.703 108.942C554.11 107.371 553.299 105.298 553.299 102.787V73.9975C553.299 71.4865 554.11 69.4137 555.703 67.8432C557.297 66.2727 559.406 65.4783 561.958 65.4783H578.696V50.8778H553.281C548.205 50.8778 545.626 48.3485 545.626 43.3539C545.626 38.3593 548.196 35.83 553.281 35.83H578.696V22.4074C572.939 23.2018 567.071 23.9232 561.258 24.5532C556.827 24.9093 553.907 23.1288 552.571 19.2846C551.825 16.9562 551.917 15.0661 552.848 13.6326C553.907 11.9981 556.063 10.9846 559.259 10.6193C577.987 8.32746 593.14 5.3051 604.295 1.61618C606.23 0.922229 607.953 0.84005 609.399 1.37878C610.633 1.81707 612.052 2.84887 613.609 4.46505C616.234 7.09477 617.284 9.32273 616.814 11.2585C616.372 13.103 614.502 14.573 611.269 15.6322C606.083 17.0932 600.196 18.4811 593.748 19.7686V35.8208H617.653C622.728 35.8208 625.308 38.3501 625.308 43.3448C625.308 48.3394 622.738 50.8687 617.653 50.8687H593.748V65.4691H610.486C613.038 65.4691 615.138 66.2635 616.741 67.8341C618.334 69.4046 619.145 71.4773 619.145 73.9883V102.778C619.145 105.289 618.334 107.362 616.741 108.933C615.147 110.503 613.038 111.298 610.486 111.298V111.307ZM561.958 66.4553C559.674 66.4553 557.804 67.1584 556.394 68.5371C554.985 69.9159 554.275 71.7604 554.275 74.0066V102.797C554.275 105.043 554.985 106.878 556.394 108.266C557.822 109.672 559.637 110.348 561.958 110.348H610.486C612.77 110.348 614.65 109.645 616.05 108.266C617.459 106.887 618.168 105.043 618.168 102.797V74.0066C618.168 71.7604 617.459 69.9251 616.05 68.5371C614.64 67.1584 612.77 66.4553 610.486 66.4553H592.772V49.9191H617.653C622.148 49.9191 624.331 47.7733 624.331 43.363C624.331 38.9528 622.148 36.807 617.653 36.807H592.772V18.9833L593.158 18.9011C599.727 17.5954 605.723 16.1801 610.974 14.71C613.848 13.7695 615.497 12.5277 615.856 11.0302C616.234 9.4597 615.239 7.47827 612.899 5.13161C611.444 3.625 610.154 2.66625 609.058 2.28275C607.824 1.8262 606.331 1.91751 604.609 2.52928C593.38 6.23646 578.162 9.27708 559.37 11.5781C556.477 11.9159 554.561 12.7834 553.658 14.1622C552.894 15.3401 552.829 16.9654 553.483 18.9833C554.662 22.3983 557.177 23.9049 561.147 23.5945C567.126 22.9462 573.169 22.1974 579.101 21.3756L579.654 21.3026V36.7979H553.271C548.776 36.7979 546.593 38.9436 546.593 43.3539C546.593 47.7642 548.776 49.9099 553.271 49.9099H579.654V66.4462H561.94L561.958 66.4553ZM601.56 97.9663H570.129C567.835 97.9663 566.628 96.7701 566.628 94.5148V82.2793C566.628 80.0239 567.844 78.8278 570.129 78.8278H601.56C603.853 78.8278 605.06 80.0239 605.06 82.2793V94.5148C605.06 96.7701 603.844 97.9663 601.56 97.9663ZM570.129 79.8048C568.379 79.8048 567.596 80.5718 567.596 82.2884V94.5239C567.596 96.2405 568.379 97.0076 570.129 97.0076H601.56C603.31 97.0076 604.093 96.2405 604.093 94.5239V82.2884C604.093 80.5718 603.31 79.8048 601.56 79.8048H570.129ZM531.292 58.2374C529.873 58.2374 528.271 57.6987 526.502 56.6212C526.253 56.4569 525.811 56.2195 525.157 55.8999C523.637 54.9868 522.504 54.3293 521.739 53.9093C519.059 52.4301 516.986 51.2613 515.568 50.4395C513.513 49.2982 512.279 47.9011 511.91 46.2849C511.523 44.5775 512.113 42.6143 513.661 40.4776C516.249 37.0627 519.326 36.1769 522.817 37.8479C523.324 38.0945 524.125 38.5145 525.221 39.0897C529.873 41.2903 533.328 43.0252 535.474 44.2213C537.75 45.4906 538.993 46.9698 539.177 48.6042C539.454 50.12 538.827 51.9553 537.271 54.1832C535.741 56.3747 534.12 57.6895 532.462 58.0822C532.084 58.1735 531.697 58.2191 531.292 58.2191V58.2374ZM519.529 38.0123C517.668 38.0123 515.982 39.0258 514.444 41.062C513.071 42.9613 512.537 44.6596 512.859 46.0932C513.163 47.4263 514.232 48.6133 516.047 49.6178C517.465 50.4395 519.538 51.5992 522.209 53.0784C522.974 53.4984 524.125 54.165 525.618 55.0598C526.281 55.3885 526.751 55.6351 527.018 55.8086C529.054 57.0412 530.813 57.4978 532.232 57.1599C533.659 56.8221 535.078 55.6351 536.469 53.6445C537.851 51.6631 538.44 50.0104 538.21 48.7503C538.053 47.4081 536.976 46.1754 534.995 45.0705C532.867 43.8835 529.431 42.1577 524.779 39.9572C523.674 39.3728 522.882 38.9619 522.384 38.7154C521.38 38.2406 520.431 37.994 519.529 37.994V38.0123ZM536.81 24.5441C535.327 24.5441 533.715 23.9414 532.011 22.7544C531.476 22.4622 530.601 21.9326 529.385 21.1565L527.515 20.0516C526.833 19.6407 525.839 19.0472 524.503 18.262C523.176 17.4858 522.172 16.938 521.518 16.6093C519.317 15.4679 518.027 14.0617 517.677 12.4181C517.299 10.6741 517.99 8.68356 519.722 6.483C522.301 3.15932 525.424 2.36492 528.998 4.1272C529.947 4.62941 531.338 5.34162 533.144 6.22733C536.93 8.20875 539.656 9.65145 541.333 10.5645C543.654 11.8794 544.916 13.3769 545.101 15.0113C545.285 16.6184 544.548 18.5176 542.927 20.6634C541.305 22.8092 539.601 24.0784 537.86 24.4345C537.519 24.4984 537.169 24.5349 536.819 24.5349L536.81 24.5441ZM525.47 4.20025C523.628 4.20025 521.979 5.159 520.477 7.08564C518.93 9.0488 518.303 10.7746 518.617 12.2264C518.911 13.5686 520.026 14.7557 521.951 15.7601C522.615 16.0888 523.646 16.6549 524.991 17.4402C526.336 18.2254 527.34 18.8281 528.022 19.239L529.901 20.3438C531.117 21.1108 531.974 21.6313 532.536 21.9418C534.461 23.284 536.184 23.7953 537.667 23.494C539.168 23.1927 540.679 22.0513 542.153 20.0973C543.617 18.1524 544.29 16.4814 544.133 15.13C543.986 13.8152 542.88 12.5642 540.854 11.4137C539.187 10.5098 536.469 9.0762 532.692 7.09477C530.878 6.20907 529.477 5.49685 528.538 4.99465C527.46 4.46505 526.437 4.20025 525.47 4.20025Z" fill="#3A4546"/>
<path d="M77.3242 201.281C77.3242 198.84 76.0202 197.542 73.5427 197.542H66.032V195.681H71.8737C74.073 195.681 75.2378 194.504 75.2378 192.271C75.2378 190.038 74.073 188.947 71.8737 188.947H66.032V187.173H72.8734C75.0727 187.173 76.2375 185.996 76.2375 183.763C76.2375 181.53 75.0727 180.439 72.8734 180.439H66.032V177.67H68.779C70.5089 177.67 71.9345 177.124 73.0124 176.06C74.0991 174.987 74.6467 173.576 74.6467 171.871V167.491C74.6467 165.951 74.1686 164.696 73.2211 163.761C72.2735 162.826 71.0044 162.359 69.4396 162.359H59.5644C57.8345 162.359 56.4088 162.904 55.3309 163.969C54.2443 165.042 53.6966 166.444 53.6966 168.158V176.25C53.6966 177.159 54.2182 177.678 55.1396 177.678H56.2958V180.448H48.3852V177.678C49.3066 177.644 50.0629 177.341 50.6454 176.77C51.2539 176.164 51.5668 175.35 51.5668 174.355V168.158C51.5668 166.453 51.0192 165.042 49.9325 163.969C48.8459 162.895 47.4203 162.359 45.6991 162.359H36.7453C35.0154 162.359 33.5897 162.904 32.5118 163.969C31.4252 165.042 30.8775 166.444 30.8775 168.158V173.611C30.8775 174.822 31.26 175.818 32.0076 176.562C32.7552 177.306 33.7636 177.678 34.9893 177.678H38.8229V180.448H33.0681C30.8688 180.448 29.704 181.599 29.704 183.772C29.704 185.944 30.8688 187.182 33.0681 187.182H38.8229V188.956H34.1548C31.9554 188.956 30.7906 190.107 30.7906 192.28C30.7906 194.452 31.9554 195.69 34.1548 195.69H38.8229V197.551H30.808C28.3305 197.551 27.0265 198.84 27.0265 201.29C27.0265 203.739 28.3305 205.107 30.808 205.107H36.7018C34.8154 205.834 32.7726 206.517 30.6167 207.149C28.8086 207.617 27.748 208.344 27.3742 209.365C27.0265 210.317 27.3395 211.459 28.287 212.775C29.5736 214.532 31.3469 215.06 33.5549 214.333C34.8328 213.866 36.0325 213.415 37.1538 212.991V216.289C36.9191 216.324 36.5801 216.358 36.0759 216.401C35.4935 216.531 35.2153 216.557 35.0241 216.557C33.5463 216.765 32.5205 217.31 31.9728 218.167C31.4078 219.05 31.3643 220.253 31.825 221.733C32.5553 224.07 34.1635 225.143 36.4932 224.84C40.7875 224.122 46.9509 223.04 54.818 221.621C55.8699 221.439 56.6783 220.997 57.2173 220.305C57.7562 219.621 57.9996 218.764 57.9388 217.778L57.791 215.77C60.8857 219.647 64.8323 222.659 69.5787 224.745C70.5002 225.065 71.3521 225.221 72.1258 225.221C73.6644 225.221 74.9075 224.598 75.8464 223.352C77.0547 221.672 77.3763 220.244 76.8026 219.102C76.2984 218.115 75.0466 217.258 72.9951 216.505C71.7259 215.951 70.4219 215.224 69.118 214.35C70.4741 213.77 72.0388 213.009 73.7948 212.065C74.9771 211.347 75.629 210.516 75.7333 209.616C75.8377 208.681 75.3509 207.694 74.2903 206.682C72.6995 205.115 70.9783 204.864 69.3179 205.963C67.2403 207.296 65.3626 208.421 63.7196 209.33C62.6156 207.98 61.6594 206.569 60.8944 205.115H73.5688C76.0463 205.115 77.3502 203.791 77.3502 201.298L77.3242 201.281ZM48.3765 188.956V187.182H56.2871V188.956H48.3765ZM51.8189 205.098C52.8621 207.997 54.253 210.793 55.9829 213.415C54.8354 213.571 53.2533 213.788 51.2365 214.065H51.2017C50.1586 214.29 48.5677 214.532 46.438 214.809C46.4119 214.809 46.3945 214.809 46.3684 214.818V208.378C48.1853 207.34 49.75 206.232 51.0366 205.089H51.8189V205.098ZM48.3765 197.542V195.681H56.2871V197.542H48.3765ZM61.5898 170.313V168.989C61.5898 168.513 61.7637 168.348 62.2418 168.348H64.8323C65.8755 168.348 66.3188 168.79 66.3188 169.811V170.226C66.3188 171.308 65.8494 171.776 64.7454 171.776H63.0763C62.0332 171.776 61.5898 171.334 61.5898 170.313ZM43.152 169.82V170.235C43.152 171.317 42.6826 171.784 41.5786 171.784H40.2399C39.1967 171.784 38.7534 171.343 38.7534 170.322V168.919C38.7534 168.495 38.8924 168.357 39.3271 168.357H41.6655C42.7087 168.357 43.152 168.798 43.152 169.82Z" fill="url(#paint0_linear_215_969)"/>
<path d="M22.0193 173.109H7.54552C4.79853 173.109 3.3468 174.545 3.3468 177.254C3.3468 179.963 4.79853 181.487 7.54552 181.487H22.0193C24.7663 181.487 26.2181 180.024 26.2181 177.254C26.2181 174.485 24.7663 173.109 22.0193 173.109Z" fill="url(#paint1_linear_215_969)"/>
<path d="M23.7753 170.252C26.6353 170.252 28.1392 168.764 28.1392 165.942C28.1392 163.121 26.6266 161.632 23.7753 161.632H4.36388C1.50389 161.632 0 163.121 0 165.942C0 168.764 1.51258 170.252 4.36388 170.252H23.7753Z" fill="url(#paint2_linear_215_969)"/>
<path d="M8.04971 158.862H21.7673C24.5142 158.862 25.966 157.425 25.966 154.716C25.966 152.007 24.5142 150.571 21.7673 150.571H8.04971C5.30272 150.571 3.851 152.007 3.851 154.716C3.851 157.425 5.30272 158.862 8.04971 158.862Z" fill="url(#paint3_linear_215_969)"/>
<path d="M31.8859 161.009H72.9603C75.5421 161.009 76.9069 159.632 76.9069 157.027C76.9069 154.422 75.5421 153.124 72.9603 153.124H57.4954C57.3998 149.774 55.5221 148 52.0449 148C48.5677 148 46.6901 149.766 46.5944 153.124H31.8859C29.3041 153.124 27.9393 154.474 27.9393 157.027C27.9393 159.581 29.3041 161.009 31.8859 161.009Z" fill="url(#paint4_linear_215_969)"/>
<path d="M22.0976 184.421H7.45859C4.76376 184.421 3.3468 185.823 3.3468 188.489C3.3468 191.154 4.77245 192.634 7.45859 192.634H22.0976C24.7924 192.634 26.2094 191.198 26.2094 188.489C26.2094 185.78 24.7837 184.421 22.0976 184.421Z" fill="url(#paint5_linear_215_969)"/>
<path d="M20.3416 195.811H8.97117C7.24126 195.811 5.81561 196.356 4.72899 197.421C3.64236 198.494 3.09471 199.905 3.09471 201.61V215.735C3.09471 217.44 3.64236 218.851 4.72899 219.924C5.81561 220.997 7.24126 221.534 8.97117 221.534H20.1764C21.9063 221.534 23.332 220.989 24.4099 219.924C25.4965 218.851 26.0442 217.44 26.0442 215.735V201.445C26.0442 199.74 25.5226 198.356 24.4969 197.343C23.4711 196.33 22.0715 195.811 20.3416 195.811ZM17.3164 205.903V211.433C17.3164 212.515 16.847 212.983 15.743 212.983H13.1525C12.0485 212.983 11.5791 212.515 11.5791 211.433V205.903C11.5791 204.821 12.0485 204.354 13.1525 204.354H15.743C16.847 204.354 17.3164 204.821 17.3164 205.903Z" fill="url(#paint6_linear_215_969)"/>
<path d="M109.593 152.25C109.045 151.133 107.915 150.294 106.22 149.757C102.951 148.762 100.595 149.939 99.4218 153.141C95.7185 161.866 91.0417 169.586 85.5303 176.06C84.3568 177.332 83.6787 178.587 83.4962 179.799C83.3136 181.019 83.644 182.421 84.4611 183.979C85.6607 186.299 86.9647 187.459 88.4251 187.519C89.8768 187.58 91.3981 186.611 93.1019 184.585C93.1367 184.551 93.1628 184.525 93.1976 184.481V220.772C93.1976 224.079 94.9709 225.827 98.3177 225.827C101.665 225.827 103.438 224.079 103.438 220.772V168.694C105.811 164.427 107.854 160.256 109.514 156.266C110.105 154.69 110.132 153.34 109.601 152.25H109.593Z" fill="url(#paint7_linear_215_969)"/>
<path d="M156.031 162.783H125.535C126.396 160.403 127.17 158.066 127.848 155.816C128.326 154.102 128.239 152.691 127.587 151.609C126.935 150.536 125.735 149.792 124.014 149.411C120.624 148.589 118.329 150.043 117.39 153.583C114.904 161.649 111.688 168.642 107.845 174.338C106.663 175.861 106.141 177.228 106.298 178.414C106.454 179.617 107.289 180.803 108.845 182.041C110.41 183.287 111.748 183.815 112.939 183.659C114.113 183.503 115.286 182.629 116.425 181.028C118.416 177.947 119.989 175.151 121.111 172.719H130.012V214.402C130.012 214.982 129.83 215.371 128.943 215.371H128.369C125.44 215.32 123.545 215.908 122.606 217.198C121.806 218.288 121.745 219.838 122.432 221.802C123.319 224.485 125.536 225.844 129.056 225.844C129.334 225.844 129.621 225.844 129.917 225.818C132.751 225.541 135.002 224.935 136.602 224.035C138.14 223.222 139.244 222.01 139.896 220.417C140.418 219.05 140.679 217.085 140.679 214.567V172.728H150.876C150.571 175.229 150.337 177.047 150.18 178.172C149.885 180.059 150.345 182.447 154.222 183.123C155.709 183.356 156.822 183.322 157.639 183.01C158.551 182.621 159.169 181.746 159.482 180.387C160.142 177.168 160.794 173.472 161.411 169.378C161.707 167.396 161.368 165.778 160.403 164.583C159.429 163.38 157.96 162.774 156.048 162.774L156.031 162.783Z" fill="url(#paint8_linear_215_969)"/>
<path d="M125.753 191.968C126.144 190.289 125.996 188.913 125.318 187.866C124.64 186.818 123.44 186.1 121.737 185.754C118.346 185.044 116.112 186.559 115.286 190.107C113.739 195.768 111.731 200.796 109.323 205.003C108.184 206.656 107.741 208.032 107.958 209.209C108.176 210.395 109.132 211.485 110.87 212.55C112.131 213.329 113.244 213.727 114.209 213.727C114.469 213.727 114.73 213.701 114.965 213.64C116.095 213.364 117.138 212.446 118.173 210.828C119.616 208.136 120.92 205.349 122.041 202.536C123.206 199.792 124.458 196.244 125.744 191.977L125.753 191.968Z" fill="url(#paint9_linear_215_969)"/>
<path d="M154.17 187.978C152.91 185.252 150.702 184.343 147.772 185.347C146.042 185.953 144.921 186.844 144.443 187.978C143.991 189.051 144.095 190.332 144.756 191.778C146.034 195.015 147.181 198.286 148.172 201.489C149.111 204.613 149.841 207.322 150.337 209.521C150.641 211.477 151.354 212.74 152.458 213.268C152.944 213.502 153.51 213.623 154.17 213.623C154.979 213.623 155.926 213.441 157.013 213.087C158.56 212.559 159.586 211.944 160.151 211.2C160.777 210.334 160.968 209.148 160.725 207.634C159.386 201.411 157.178 194.798 154.17 187.978Z" fill="url(#paint10_linear_215_969)"/>
<path d="M240.439 214.558C232.737 214.506 226.339 214.229 221.402 213.736C215.673 213.216 210.666 212.29 206.493 210.983C209.171 207.928 211.048 204.293 212.092 200.147H232.911C234.641 200.147 236.067 199.602 237.154 198.537C238.24 197.464 238.788 196.053 238.788 194.348V171.144C238.788 169.439 238.24 168.028 237.154 166.955C236.067 165.881 234.641 165.345 232.911 165.345H213.439V161.338H239.101C242.282 161.338 243.969 159.676 243.969 156.525C243.969 153.375 242.282 151.713 239.101 151.713H175.355C172.173 151.713 170.487 153.375 170.487 156.525C170.487 159.676 172.173 161.338 175.355 161.338H202.277V165.345H183.639C181.91 165.345 180.484 165.89 179.406 166.955C178.319 168.028 177.772 169.439 177.772 171.144V195.672C177.772 196.997 178.198 198.087 179.032 198.909C179.867 199.732 180.971 200.147 182.309 200.147H184.804C182.961 200.917 181.84 201.991 181.475 203.358C181.101 204.734 181.579 206.266 182.909 207.928C184.196 209.348 185.595 210.68 187.073 211.892C184.387 212.983 181.127 213.987 177.372 214.887C174.138 215.51 172.252 216.557 171.6 218.107C171.087 219.344 171.408 220.842 172.573 222.573C173.773 224.321 175.555 225.204 177.885 225.204C178.684 225.204 179.554 225.1 180.484 224.892C187.151 223.204 192.915 221.006 197.635 218.349C202.573 220.461 208.527 222.079 215.36 223.17C221.15 224.053 228.4 224.658 236.919 224.996C240.926 225.057 243.473 223.403 244.499 220.089L244.629 219.872V219.803C245.499 218.262 245.568 216.981 244.838 216.003C244.099 215.025 242.665 214.549 240.439 214.549V214.558ZM213.43 178.553V174.13H226.548C227.652 174.13 228.122 174.597 228.122 175.679V178.553H213.43ZM213.378 191.267C213.413 190.687 213.43 189.951 213.43 189.06V186.766H228.122V189.718C228.122 190.8 227.652 191.267 226.548 191.267H213.378ZM202.269 186.766V188.973C202.269 189.925 202.251 190.696 202.216 191.267H189.403C188.299 191.267 187.829 190.8 187.829 189.718V186.766H202.269ZM200.478 200.147C199.487 202.527 198.061 204.613 196.218 206.353C193.662 204.7 191.298 202.614 189.168 200.147H200.478ZM202.269 174.13V178.553H187.829V175.679C187.829 174.597 188.299 174.13 189.403 174.13H202.269Z" fill="url(#paint11_linear_215_969)"/>
<path d="M326.613 165.423V160.489C326.613 158.784 326.065 157.374 324.979 156.3C323.892 155.227 322.466 154.69 320.737 154.69H312.556V153.306C312.556 150.216 310.905 148.58 307.775 148.58C304.646 148.58 302.907 150.216 302.907 153.306V154.69H296.57C293.936 154.69 292.537 156.067 292.537 158.672C292.537 161.277 293.927 162.653 296.57 162.653H302.907V165.423H291.128C288.494 165.423 287.095 166.799 287.095 169.404C287.095 172.009 288.486 173.472 291.128 173.472H302.907V176.484H296.57C293.936 176.484 292.537 177.86 292.537 180.465C292.537 183.071 293.927 184.447 296.57 184.447H302.907V187.459H295.562C292.928 187.459 291.528 188.835 291.528 191.44C291.528 194.045 292.919 195.421 295.562 195.421H302.907V198.607H293.475C290.841 198.607 289.442 199.983 289.442 202.588C289.442 205.193 290.833 206.569 293.475 206.569H302.907V209.356C302.907 212.446 304.594 214.082 307.775 214.082C310.957 214.082 312.556 212.446 312.556 209.356V206.569H325.005C327.639 206.569 329.038 205.193 329.038 202.588C329.038 199.983 327.648 198.607 325.005 198.607H312.556V195.421H323.084C325.718 195.421 327.117 194.045 327.117 191.44C327.117 188.835 325.726 187.459 323.084 187.459H312.556V184.447H320.902C322.632 184.447 324.031 183.919 325.057 182.872C326.083 181.833 326.604 180.465 326.604 178.812V173.463C329.23 173.463 330.621 172.053 330.621 169.395C330.621 166.738 329.23 165.414 326.604 165.414L326.613 165.423ZM317.459 173.472V175.766C317.459 176.302 317.268 176.493 316.72 176.493H312.556V173.481H317.459V173.472ZM317.459 163.787V165.423H312.556V162.653H316.303C317.12 162.653 317.459 162.982 317.459 163.787Z" fill="url(#paint12_linear_215_969)"/>
<path d="M325.083 215.224C320.963 215.276 315.243 215.311 307.61 215.311C302.707 215.259 298.587 214.766 295.353 213.84C291.693 212.74 288.581 210.931 286.112 208.456C288.738 201.878 290.563 193.344 291.554 183.071C291.711 180.976 291.328 179.418 290.407 178.423C289.624 177.575 288.451 177.15 286.938 177.15H282.496C284.895 171.49 287.008 166.081 288.772 161.043C289.433 159.139 289.294 157.573 288.373 156.387C287.451 155.21 285.956 154.613 283.93 154.613H273.994C274.255 153.531 274.177 152.596 273.76 151.817C273.256 150.882 272.273 150.198 270.839 149.766C269.283 149.298 267.857 149.376 266.588 149.999C265.31 150.631 264.423 151.73 263.945 153.262C261.068 161.718 257.434 169.101 253.14 175.186C252.201 176.397 251.653 177.583 251.506 178.7C251.358 179.816 251.575 181.115 252.158 182.551C253.183 185.113 254.374 186.394 255.8 186.455C257 186.507 258.347 185.676 259.816 183.919V221.205C259.816 224.243 261.468 225.853 264.597 225.853C267.727 225.853 269.3 224.243 269.3 221.205V219.941C269.657 220.322 269.917 220.651 270.091 220.945C271.108 222.477 272.334 223.352 273.742 223.533C275.151 223.715 276.541 223.178 277.871 221.915C279.123 220.634 280.332 219.093 281.488 217.328C284.469 220.045 288.147 222.01 292.415 223.187C296.335 224.295 301.273 224.858 307.089 224.858H323.649C325.179 224.858 326.404 224.572 327.309 224.009C328.221 223.438 328.934 222.46 329.412 221.093C330.134 218.894 330.151 217.388 329.473 216.488C328.795 215.588 327.343 215.19 325.066 215.242L325.083 215.224ZM273.099 190.549C271.865 190.912 270.987 191.63 270.491 192.669C269.996 193.638 269.9 194.79 270.204 196.114C271.517 201.039 273.212 205.444 275.229 209.209C273.664 211.883 271.908 214.168 270.013 215.986C269.613 216.315 269.448 216.315 269.439 216.324C269.431 216.315 269.3 216.168 269.3 215.501V166.609C270.039 164.929 270.9 162.826 271.873 160.325C271.934 161.173 272.256 161.891 272.83 162.454C273.464 163.086 274.299 163.406 275.307 163.406H278.28C276.202 168.868 273.638 175.134 270.639 182.049C270.039 183.495 269.987 184.706 270.482 185.658C270.995 186.636 272.073 187.312 273.708 187.675C276.298 188.212 278.115 187.346 279.089 185.122H280.74C281.262 185.122 281.636 185.243 281.844 185.468C282.061 185.71 282.14 186.126 282.07 186.688C281.436 190.86 280.671 194.608 279.784 197.862C279.28 196.382 278.871 195.058 278.576 193.924C278.237 192.383 277.585 191.31 276.637 190.748C275.716 190.202 274.525 190.133 273.09 190.549H273.099Z" fill="url(#paint13_linear_215_969)"/>
<path d="M410.414 177.981H406.919V173.463C406.919 171.75 406.371 170.348 405.285 169.274C404.198 168.201 402.772 167.664 401.042 167.664H386.169V164.479H408.571C411.7 164.479 413.352 162.844 413.352 159.754C413.352 156.664 411.7 155.028 408.571 155.028H383.491V153.565C383.491 149.991 381.579 148.095 377.954 148.095C374.329 148.095 372.33 149.991 372.33 153.565V155.028H348.676C346.946 155.028 345.52 155.573 344.442 156.638C343.356 157.711 342.808 159.113 342.808 160.827V179.409C342.808 195.456 341.104 207.712 337.74 215.813C336.966 217.509 336.714 218.894 336.958 220.037C337.201 221.3 338.079 222.451 339.574 223.455C341.183 224.511 342.582 224.883 343.747 224.546C344.912 224.2 345.894 223.144 346.746 221.283C350.927 211.26 353.048 197.17 353.048 179.409V166.029C353.048 164.947 353.518 164.479 354.622 164.479H375.85V167.664H362.15C359.733 167.664 358.456 168.928 358.456 171.317C358.456 173.706 359.733 175.056 362.15 175.056H375.85V177.99H357.63C355.1 177.99 353.761 179.314 353.761 181.807C353.761 184.3 355.1 185.71 357.63 185.71H375.85V188.895H361.229C360.055 188.895 359.116 189.527 358.421 190.765C357.83 191.812 357.525 192.998 357.525 194.279C357.525 195.352 357.873 195.863 358.256 196.097L357.395 196.945C356.187 198.139 355.648 199.385 355.804 200.649C355.961 201.913 356.778 202.986 358.229 203.817C359.933 204.856 361.472 205.894 362.776 206.915C364.141 208.049 366.288 208.854 368.809 206.223C369.904 205.081 370.434 204.094 370.434 203.228C370.504 202.311 369.939 201.376 368.739 200.441C366.723 199.1 364.341 197.698 361.655 196.278H375.841V215.83C375.841 216.488 375.694 216.756 375.572 216.869C375.459 216.964 375.146 217.128 374.242 217.128C372.964 217.224 370.904 217.215 368.105 217.12C368.348 217.007 368.609 216.886 368.887 216.756C369.913 216.289 370.687 215.943 371.199 215.718C373.26 214.696 374.068 212.957 373.52 210.68C373.155 209.287 372.434 208.352 371.382 207.911C370.356 207.487 369.157 207.539 367.835 208.075C364.436 209.391 359.968 211.035 354.561 212.939C352.849 213.485 351.849 214.307 351.588 215.406C351.397 216.298 351.771 217.527 352.718 219.18C354.152 221.724 356.308 222.477 358.951 221.352C359.638 221.067 360.664 220.591 361.985 219.941C362.802 219.561 363.445 219.258 363.932 219.041C364.062 219.336 364.228 219.699 364.41 220.14C364.628 220.634 364.793 221.006 364.897 221.248C365.888 224.407 368.487 226.017 372.634 226.017C372.703 226.017 372.782 226.017 372.851 226.017C376.685 225.905 379.579 225.446 381.448 224.667C383.152 223.975 384.378 222.945 385.1 221.62C385.812 220.305 386.151 218.444 386.151 215.925V209.348C390.254 215.302 395.548 219.941 401.929 223.17C405.024 224.581 407.51 224.096 409.318 221.716C410.7 219.881 411.074 218.262 410.44 216.877C409.822 215.726 408.405 214.74 406.137 213.883C403.729 212.775 401.295 211.26 398.878 209.391C401.46 208.006 403.885 206.638 406.093 205.314C407.832 204.258 408.753 203.116 408.84 201.904C408.918 200.736 408.214 199.533 406.728 198.33C405.606 197.455 404.52 196.979 403.52 196.919C402.486 196.858 401.416 197.282 400.347 198.165C397.461 200.338 394.966 202.069 392.941 203.306C391.263 201.082 389.846 198.736 388.733 196.304H401.364C403.033 196.304 404.389 195.802 405.389 194.816C406.389 193.829 406.902 192.487 406.902 190.834V185.736H410.396C412.926 185.736 414.264 184.386 414.264 181.833C414.264 179.28 412.926 178.016 410.396 178.016L410.414 177.981ZM396.679 185.702V187.338C396.679 188.419 396.209 188.887 395.105 188.887H386.169V185.702H396.679ZM396.679 176.268V177.981H386.169V175.047H395.436C396.314 175.047 396.67 175.402 396.67 176.268H396.679Z" fill="url(#paint14_linear_215_969)"/>
<path d="M486.208 153.782H431.416C427.956 153.782 426.13 155.591 426.13 159.001C426.13 162.411 427.956 164.306 431.416 164.306H473.585C469.43 168.729 464.91 172.684 460.137 176.077H460.024C458.355 176.077 456.973 176.588 455.913 177.601C454.852 178.613 454.313 179.998 454.313 181.712V213.917C454.313 214.307 454.252 214.818 453.983 215.017C453.835 215.12 453.426 215.302 452.314 215.302H451.384C449.506 215.354 447.889 215.354 446.568 215.302C443.812 215.19 441.882 215.597 440.665 216.557C439.231 217.726 438.927 219.474 439.778 221.75C440.813 224.52 443.273 225.922 447.098 225.922C447.246 225.922 447.402 225.922 447.559 225.922C452.879 225.81 456.999 225.273 459.825 224.33C461.928 223.577 463.423 222.399 464.284 220.824C465.127 219.275 465.553 217.016 465.553 214.091V185.009C475.063 179.02 483.148 170.988 489.589 161.121C490.902 158.879 491.241 157.14 490.615 155.807C489.98 154.465 488.494 153.782 486.208 153.782Z" fill="url(#paint15_linear_215_969)"/>
<path d="M558.725 202.7C557.968 200.779 556.517 200.061 554.517 200.623C553.309 200.969 552.492 201.541 552.101 202.311C551.727 203.047 551.744 203.947 552.135 204.977C552.457 205.946 552.909 207.487 553.465 209.573C553.63 210.222 553.848 211.208 554.126 212.611C554.178 212.887 554.239 213.087 554.3 213.225C554.491 214.445 554.961 215.294 555.699 215.752C556.108 216.003 556.604 216.133 557.169 216.133C557.681 216.133 558.255 216.029 558.881 215.822C559.916 215.458 560.628 215.043 561.072 214.541C561.55 213.995 561.698 213.182 561.506 212.1C560.837 208.958 559.898 205.799 558.725 202.709V202.7Z" fill="url(#paint16_linear_215_969)"/>
<path d="M575.459 189.458H563.593V185.373H572.607C575.406 185.373 576.893 183.91 576.893 181.14C576.893 178.371 575.415 176.908 572.607 176.908H563.593V172.987H572.607C575.406 172.987 576.893 171.499 576.893 168.677C576.893 165.856 575.415 164.445 572.607 164.445H563.593V160.602H574.537C577.615 160.602 579.24 158.966 579.24 155.876C579.24 152.786 577.615 151.228 574.537 151.228H541.33C539.6 151.228 538.174 151.774 537.096 152.838C536.01 153.911 535.462 155.314 535.462 157.027V192.695C535.462 194.4 536.01 195.811 537.096 196.884C538.183 197.957 539.609 198.494 541.339 198.494H569.86C570.608 198.494 570.86 198.788 570.982 198.996C571.147 199.325 571.338 200.078 571.269 201.748C570.582 212.351 569.721 215.406 569.113 216.116C568.635 216.678 567.922 216.955 566.94 216.955H565.462C563.793 216.834 562.68 217.146 562.08 217.907C561.48 218.669 561.428 219.708 561.924 220.997C562.054 221.369 562.071 221.534 562.071 221.664C562.254 222.927 562.854 223.966 563.862 224.754C564.853 225.524 566.14 225.913 567.704 225.913C569.686 225.801 571.016 225.688 571.764 225.576C574.146 225.178 576.041 224.122 577.388 222.443C578.336 221.214 579.075 219.024 579.649 215.718C580.153 212.316 580.605 206.967 580.987 199.818C581.161 196.01 580.753 193.362 579.753 191.726C578.84 190.22 577.388 189.449 575.45 189.449L575.459 189.458ZM553.691 189.458H547.18C546.076 189.458 545.607 188.991 545.607 187.909V185.364H553.691V189.458ZM553.691 172.987V176.908H545.607V172.987H553.691ZM553.691 160.602V164.445H545.607V162.151C545.607 161.069 546.076 160.602 547.18 160.602H553.691Z" fill="url(#paint17_linear_215_969)"/>
<path d="M563.419 208.828C563.471 209.053 563.532 209.226 563.593 209.356C563.906 210.516 564.445 211.295 565.201 211.684C565.566 211.866 565.975 211.961 566.427 211.961C566.948 211.961 567.531 211.84 568.157 211.598C570.112 210.914 570.843 209.555 570.26 207.66C569.426 205.349 568.4 203.047 567.218 200.831C566.392 199.334 565.027 198.832 563.262 199.385C562.15 199.766 561.428 200.329 561.124 201.073C560.828 201.792 560.933 202.648 561.419 203.618C561.75 204.319 562.184 205.366 562.749 206.812C562.906 207.236 563.132 207.919 563.401 208.837L563.419 208.828Z" fill="url(#paint18_linear_215_969)"/>
<path d="M531.646 197.49V161.069C531.646 159.364 531.098 157.953 530.012 156.88C528.925 155.807 527.499 155.27 525.77 155.27H512.887C511.157 155.27 509.731 155.816 508.644 156.88C507.558 157.953 507.01 159.364 507.01 161.069V197.49C507.01 199.195 507.558 200.606 508.644 201.679C509.731 202.752 511.157 203.289 512.887 203.289H525.77C527.499 203.289 528.925 202.744 530.012 201.679C531.098 200.606 531.646 199.195 531.646 197.49ZM522.075 191.795C522.075 192.877 521.606 193.344 520.502 193.344H518.163C517.059 193.344 516.59 192.877 516.59 191.795V166.764C516.59 165.682 517.059 165.215 518.163 165.215H520.502C521.606 165.215 522.075 165.682 522.075 166.764V191.795Z" fill="url(#paint19_linear_215_969)"/>
<path d="M545.616 201.601C544.355 201.792 543.451 202.25 542.93 202.986C542.434 203.687 542.286 204.613 542.495 205.738C542.825 207.591 543.077 209.495 543.242 211.407C543.408 212.931 543.495 214.411 543.495 215.813C543.469 217.111 543.799 218.081 544.477 218.678C545.016 219.154 545.763 219.387 546.72 219.387C547.041 219.387 547.398 219.362 547.763 219.301C550.484 218.842 551.049 217.154 551.049 215.804C550.936 211.944 550.51 208.084 549.78 204.319C549.284 202.172 547.841 201.229 545.607 201.593L545.616 201.601Z" fill="url(#paint20_linear_215_969)"/>
<path d="M537.357 201.696C535.914 201.281 534.741 201.35 533.854 201.913C532.95 202.484 532.368 203.557 532.124 205.089C531.298 209.486 530.186 213.173 528.83 216.021C528.195 217.154 528.021 218.21 528.317 219.145C528.647 220.192 529.551 221.093 531.02 221.82C531.82 222.226 532.567 222.425 533.245 222.425C534.506 222.425 535.558 221.75 536.366 220.4C537.21 218.842 538.044 216.644 538.826 213.866C539.383 211.814 539.922 209.304 540.426 206.387C540.791 204.033 539.73 202.415 537.366 201.696H537.357Z" fill="url(#paint21_linear_215_969)"/>
<path d="M619.915 158.092C616.776 155.452 612.491 154.111 607.171 154.111C601.851 154.111 596.948 155.868 592.566 159.347C591.367 160.463 590.776 161.615 590.793 162.766C590.819 163.925 591.471 165.077 592.732 166.176C595.131 168.374 597.687 168.409 600.286 166.306C601.938 165.258 603.746 164.722 605.658 164.722C607.71 164.722 609.353 165.293 610.544 166.418C611.734 167.543 612.334 169.101 612.334 171.057C612.334 172.451 611.821 173.957 610.813 175.541C610.213 176.51 609.014 178.051 607.258 180.111C605.363 182.257 603.998 183.971 603.207 185.191C601.79 187.312 600.816 189.441 600.303 191.518V191.605C600.234 193.405 600.66 194.911 601.546 196.079C602.468 197.352 603.789 197.992 605.493 197.992C609.561 197.992 611.9 195.915 612.439 191.812C613.317 189.735 615.107 187.182 617.759 184.248L618.115 183.893C620.349 181.296 621.94 179.254 622.844 177.8C624.27 175.376 624.991 172.832 624.991 170.226C624.991 164.999 623.279 160.913 619.906 158.083L619.915 158.092Z" fill="url(#paint22_linear_215_969)"/>
<path d="M605.91 203.246C603.624 203.246 601.685 204.059 600.156 205.652C598.634 207.244 597.861 209.244 597.861 211.607C597.861 213.969 598.634 215.969 600.156 217.561C601.685 219.154 603.615 219.967 605.91 219.967C608.31 219.967 610.283 219.145 611.752 217.518C613.273 215.899 614.047 213.9 614.047 211.563C614.047 209.226 613.273 207.236 611.752 205.652C610.222 204.059 608.257 203.246 605.919 203.246H605.91Z" fill="url(#paint23_linear_215_969)"/>
<path d="M8.37135 157.659C10.0085 157.659 11.3357 156.338 11.3357 154.708C11.3357 153.078 10.0085 151.756 8.37135 151.756C6.73421 151.756 5.40704 153.078 5.40704 154.708C5.40704 156.338 6.73421 157.659 8.37135 157.659Z" fill="white"/>
<path d="M104.177 157.815C105.814 157.815 107.141 156.494 107.141 154.864C107.141 153.234 105.814 151.912 104.177 151.912C102.54 151.912 101.213 153.234 101.213 154.864C101.213 156.494 102.54 157.815 104.177 157.815Z" fill="white"/>
<path d="M175.303 159.468C176.94 159.468 178.267 158.147 178.267 156.517C178.267 154.887 176.94 153.565 175.303 153.565C173.666 153.565 172.339 154.887 172.339 156.517C172.339 158.147 173.666 159.468 175.303 159.468Z" fill="white"/>
<path d="M268.744 157.425C270.381 157.425 271.708 156.104 271.708 154.474C271.708 152.844 270.381 151.523 268.744 151.523C267.107 151.523 265.78 152.844 265.78 154.474C265.78 156.104 267.107 157.425 268.744 157.425Z" fill="white"/>
<path d="M348.476 163.744C350.113 163.744 351.44 162.422 351.44 160.792C351.44 159.162 350.113 157.841 348.476 157.841C346.839 157.841 345.512 159.162 345.512 160.792C345.512 162.422 346.839 163.744 348.476 163.744Z" fill="white"/>
<path d="M431.407 161.788C433.044 161.788 434.371 160.466 434.371 158.836C434.371 157.206 433.044 155.885 431.407 155.885C429.77 155.885 428.443 157.206 428.443 158.836C428.443 160.466 429.77 161.788 431.407 161.788Z" fill="white"/>
<path d="M512.495 163.925C514.132 163.925 515.46 162.604 515.46 160.974C515.46 159.344 514.132 158.023 512.495 158.023C510.858 158.023 509.531 159.344 509.531 160.974C509.531 162.604 510.858 163.925 512.495 163.925Z" fill="white"/>
<path d="M596.391 165.466C598.029 165.466 599.356 164.145 599.356 162.515C599.356 160.885 598.029 159.563 596.391 159.563C594.754 159.563 593.427 160.885 593.427 162.515C593.427 164.145 594.754 165.466 596.391 165.466Z" fill="white"/>
<defs>
<linearGradient id="paint0_linear_215_969" x1="312.334" y1="226.007" x2="312.334" y2="148.011" gradientUnits="userSpaceOnUse">
<stop stop-color="#018139"/>
<stop offset="1" stop-color="#0F6632"/>
</linearGradient>
<linearGradient id="paint1_linear_215_969" x1="312.377" y1="226.017" x2="312.377" y2="148" gradientUnits="userSpaceOnUse">
<stop stop-color="#018139"/>
<stop offset="1" stop-color="#0F6632"/>
</linearGradient>
<linearGradient id="paint2_linear_215_969" x1="312.592" y1="226.017" x2="312.592" y2="147.922" gradientUnits="userSpaceOnUse">
<stop stop-color="#018139"/>
<stop offset="1" stop-color="#0F6632"/>
</linearGradient>
<linearGradient id="paint3_linear_215_969" x1="312.496" y1="226.017" x2="312.496" y2="147.919" gradientUnits="userSpaceOnUse">
<stop stop-color="#018139"/>
<stop offset="1" stop-color="#0F6632"/>
</linearGradient>
<linearGradient id="paint4_linear_215_969" x1="312.551" y1="226.017" x2="312.551" y2="148" gradientUnits="userSpaceOnUse">
<stop stop-color="#018139"/>
<stop offset="1" stop-color="#0F6632"/>
</linearGradient>
<linearGradient id="paint5_linear_215_969" x1="312.496" y1="226.017" x2="312.496" y2="148" gradientUnits="userSpaceOnUse">
<stop stop-color="#018139"/>
<stop offset="1" stop-color="#0F6632"/>
</linearGradient>
<linearGradient id="paint6_linear_215_969" x1="312.496" y1="226.017" x2="312.496" y2="148" gradientUnits="userSpaceOnUse">
<stop stop-color="#018139"/>
<stop offset="1" stop-color="#0F6632"/>
</linearGradient>
<linearGradient id="paint7_linear_215_969" x1="312.406" y1="226.026" x2="312.406" y2="147.998" gradientUnits="userSpaceOnUse">
<stop stop-color="#018139"/>
<stop offset="1" stop-color="#0F6632"/>
</linearGradient>
<linearGradient id="paint8_linear_215_969" x1="312.359" y1="226.026" x2="312.359" y2="148.008" gradientUnits="userSpaceOnUse">
<stop stop-color="#018139"/>
<stop offset="1" stop-color="#0F6632"/>
</linearGradient>
<linearGradient id="paint9_linear_215_969" x1="312.587" y1="226.017" x2="312.587" y2="147.993" gradientUnits="userSpaceOnUse">
<stop stop-color="#018139"/>
<stop offset="1" stop-color="#0F6632"/>
</linearGradient>
<linearGradient id="paint10_linear_215_969" x1="312.321" y1="226.041" x2="312.321" y2="148.02" gradientUnits="userSpaceOnUse">
<stop stop-color="#018139"/>
<stop offset="1" stop-color="#0F6632"/>
</linearGradient>
<linearGradient id="paint11_linear_215_969" x1="312.477" y1="226.036" x2="312.477" y2="148" gradientUnits="userSpaceOnUse">
<stop stop-color="#018139"/>
<stop offset="1" stop-color="#0F6632"/>
</linearGradient>
<linearGradient id="paint12_linear_215_969" x1="312.558" y1="226.048" x2="312.558" y2="148" gradientUnits="userSpaceOnUse">
<stop stop-color="#018139"/>
<stop offset="1" stop-color="#0F6632"/>
</linearGradient>
<linearGradient id="paint13_linear_215_969" x1="312.608" y1="226" x2="312.608" y2="147.989" gradientUnits="userSpaceOnUse">
<stop stop-color="#018139"/>
<stop offset="1" stop-color="#0F6632"/>
</linearGradient>
<linearGradient id="paint14_linear_215_969" x1="312.54" y1="226" x2="312.54" y2="147.991" gradientUnits="userSpaceOnUse">
<stop stop-color="#018139"/>
<stop offset="1" stop-color="#0F6632"/>
</linearGradient>
<linearGradient id="paint15_linear_215_969" x1="312.454" y1="226.017" x2="312.454" y2="148" gradientUnits="userSpaceOnUse">
<stop stop-color="#018139"/>
<stop offset="1" stop-color="#0F6632"/>
</linearGradient>
<linearGradient id="paint16_linear_215_969" x1="312.414" y1="225.974" x2="312.414" y2="148.022" gradientUnits="userSpaceOnUse">
<stop stop-color="#018139"/>
<stop offset="1" stop-color="#0F6632"/>
</linearGradient>
<linearGradient id="paint17_linear_215_969" x1="312.527" y1="226.017" x2="312.527" y2="147.991" gradientUnits="userSpaceOnUse">
<stop stop-color="#018139"/>
<stop offset="1" stop-color="#0F6632"/>
</linearGradient>
<linearGradient id="paint18_linear_215_969" x1="312.937" y1="226.07" x2="312.937" y2="148.016" gradientUnits="userSpaceOnUse">
<stop stop-color="#018139"/>
<stop offset="1" stop-color="#0F6632"/>
</linearGradient>
<linearGradient id="paint19_linear_215_969" x1="312.496" y1="226.017" x2="312.496" y2="148" gradientUnits="userSpaceOnUse">
<stop stop-color="#018139"/>
<stop offset="1" stop-color="#0F6632"/>
</linearGradient>
<linearGradient id="paint20_linear_215_969" x1="312.672" y1="226.017" x2="312.672" y2="148.03" gradientUnits="userSpaceOnUse">
<stop stop-color="#018139"/>
<stop offset="1" stop-color="#0F6632"/>
</linearGradient>
<linearGradient id="paint21_linear_215_969" x1="312.273" y1="226.017" x2="312.273" y2="147.993" gradientUnits="userSpaceOnUse">
<stop stop-color="#018139"/>
<stop offset="1" stop-color="#0F6632"/>
</linearGradient>
<linearGradient id="paint22_linear_215_969" x1="312.658" y1="226.033" x2="312.658" y2="148" gradientUnits="userSpaceOnUse">
<stop stop-color="#018139"/>
<stop offset="1" stop-color="#0F6632"/>
</linearGradient>
<linearGradient id="paint23_linear_215_969" x1="312.496" y1="226.017" x2="312.496" y2="148" gradientUnits="userSpaceOnUse">
<stop stop-color="#018139"/>
<stop offset="1" stop-color="#0F6632"/>
</linearGradient>
</defs>
</svg>
