<svg width="43" height="44" viewBox="0 0 43 44" fill="none" xmlns="http://www.w3.org/2000/svg">
<path d="M21.5 44C33.3741 44 43 34.1503 43 22C43 9.84974 33.3741 0 21.5 0C9.62588 0 0 9.84974 0 22C0 34.1503 9.62588 44 21.5 44Z" fill="#00B900"/>
<path d="M36.0841 20.8615C36.0841 14.1534 29.5125 8.69844 21.436 8.69844C13.3595 8.69844 6.78779 14.1534 6.78779 20.8615C6.78779 26.8734 11.9987 31.9106 19.0426 32.8689C19.5229 32.9754 20.1713 33.1884 20.3314 33.6061C20.4754 33.9829 20.4274 34.5808 20.3794 34.9657C20.3794 34.9657 20.2113 36.0223 20.1713 36.2517C20.1072 36.6284 19.8751 37.7342 21.444 37.0625C23.0048 36.3909 29.8807 31.9762 32.9544 28.3559C35.0756 25.9724 36.0921 23.5562 36.0921 20.8697" fill="white"/>
<path d="M18.4583 17.618H17.4337C17.2736 17.618 17.1456 17.7491 17.1456 17.9129V24.449C17.1456 24.6128 17.2736 24.7439 17.4337 24.7439H18.4583C18.6184 24.7439 18.7465 24.6128 18.7465 24.449V17.9129C18.7465 17.7491 18.6184 17.618 18.4583 17.618Z" fill="#00B900"/>
<path d="M25.5262 17.618H24.5017C24.3416 17.618 24.2135 17.7491 24.2135 17.9129V21.7952L21.2839 17.7491C21.2839 17.7491 21.2679 17.7327 21.2599 17.7163C21.2599 17.7163 21.2519 17.6999 21.2439 17.6999C21.2439 17.6999 21.2359 17.6917 21.2278 17.6835C21.2278 17.6835 21.2198 17.6835 21.2118 17.6754C21.2118 17.6754 21.2118 17.6754 21.2038 17.6754C21.2038 17.6754 21.1958 17.6754 21.1878 17.6672C21.1878 17.6672 21.1878 17.6672 21.1798 17.6672C21.1798 17.6672 21.1718 17.6672 21.1638 17.6672C21.1638 17.6672 21.1638 17.6672 21.1558 17.6672C21.1558 17.6672 21.1478 17.6672 21.1398 17.6672C21.1398 17.6672 21.1398 17.6672 21.1318 17.6672C21.1318 17.6672 21.1238 17.6672 21.1158 17.6672C21.1158 17.6672 21.1078 17.6672 21.0998 17.6672C21.0998 17.6672 21.0918 17.6672 21.0838 17.6672C21.0838 17.6672 21.0758 17.6672 21.0678 17.6672C21.0678 17.6672 21.0678 17.6672 21.0598 17.6672H20.0352C19.8751 17.6672 19.747 17.7982 19.747 17.962V24.4981C19.747 24.6619 19.8751 24.793 20.0352 24.793H21.0598C21.2198 24.793 21.3479 24.6619 21.3479 24.4981V20.6158L24.2775 24.662C24.2775 24.662 24.3256 24.7111 24.3496 24.7357C24.3496 24.7357 24.3576 24.7357 24.3656 24.7439C24.3656 24.7439 24.3656 24.7439 24.3736 24.7439C24.3736 24.7439 24.3816 24.7439 24.3896 24.7439C24.3896 24.7439 24.3976 24.7439 24.4056 24.7439C24.4056 24.7439 24.4056 24.7439 24.4136 24.7439H24.4296C24.4536 24.7439 24.4777 24.752 24.5017 24.752H25.5262C25.6863 24.752 25.8144 24.621 25.8144 24.4572V17.9211C25.8144 17.7573 25.6863 17.6262 25.5262 17.6262" fill="#00B900"/>
<path d="M15.9769 23.0975H13.1834V17.9129C13.1834 17.7491 13.0553 17.618 12.8952 17.618H11.8706C11.7105 17.618 11.5825 17.7491 11.5825 17.9129V24.4408C11.5825 24.5227 11.6145 24.5882 11.6625 24.6456C11.7105 24.6947 11.7826 24.7275 11.8626 24.7275H15.9689C16.129 24.7275 16.2571 24.5964 16.2571 24.4326V23.3842C16.2571 23.2204 16.129 23.0894 15.9689 23.0894" fill="#00B900"/>
<path d="M31.2014 19.2561C31.3615 19.2561 31.4896 19.1251 31.4896 18.9613V17.9129C31.4896 17.7491 31.3615 17.618 31.2014 17.618H27.0951C27.0151 17.618 26.951 17.6508 26.895 17.6999C26.847 17.7491 26.815 17.8228 26.815 17.9047V24.4326C26.815 24.5145 26.847 24.58 26.895 24.6374C26.943 24.6865 27.0151 24.7193 27.0951 24.7193H31.2014C31.3615 24.7193 31.4896 24.5882 31.4896 24.4244V23.376C31.4896 23.2122 31.3615 23.0812 31.2014 23.0812H28.4079V21.9754H31.2014C31.3615 21.9754 31.4896 21.8444 31.4896 21.6806V20.6322C31.4896 20.4684 31.3615 20.3373 31.2014 20.3373H28.4079V19.2316H31.2014V19.2561Z" fill="#00B900"/>
</svg>
