<svg width="43" height="44" viewBox="0 0 43 44" fill="none" xmlns="http://www.w3.org/2000/svg">
<path d="M43 21.9959C43 9.85148 33.3706 0 21.5 0C9.62937 0 0 9.85148 0 21.9959C0 32.9775 7.86039 42.0756 18.1381 43.7216V28.3506H12.6791V21.9959H18.1381V17.148C18.1381 11.6367 21.3479 8.59036 26.2627 8.59036C28.616 8.59036 31.0733 9.01619 31.0733 9.01619V14.4292H28.3598C25.6863 14.4292 24.8539 16.1243 24.8539 17.8604V21.9877H30.8172L29.8647 28.3425H24.8539V43.7134C35.1316 42.0674 42.992 32.9611 42.992 21.9877L43 21.9959Z" fill="#1677F0"/>
<path d="M29.8647 28.3506L30.8172 21.9959H24.8539V17.8686C24.8539 16.1325 25.6863 14.4374 28.3598 14.4374H31.0733V9.02438C31.0733 9.02438 28.616 8.59855 26.2627 8.59855C21.3479 8.59855 18.1381 11.6449 18.1381 17.1562V22.0041H12.6791V28.3588H18.1381V43.7298C19.2347 43.9017 20.3554 44 21.5 44C22.6446 44 23.7653 43.9099 24.8619 43.7298V28.3588H29.8727L29.8647 28.3506Z" fill="white"/>
</svg>
